<svg width="256" height="91" viewBox="0 0 256 91" fill="none" xmlns="http://www.w3.org/2000/svg">
<path d="M255.247 13.7839C253.98 10.1506 255.847 6.31378 254.069 3.91084C253.79 3.87432 253.51 3.84394 253.231 3.8197C250.953 3.61921 248.497 3.61009 246.011 3.33972C243.543 3.15656 241.087 2.5469 238.667 1.51701C238.361 1.47144 238.041 0.177319 237.729 0.134789L219.786 0.0132749C218.362 -0.129504 196.538 0.930706 195.111 0.74236C193.157 0.560088 191.226 0.936782 189.281 0.979312C187.336 1.02184 185.303 1.62334 183.356 1.91801C181.9 2.13673 180.469 2.52558 179.073 2.76861C178.058 2.94177 177.063 3.19391 176.073 3.35491C174.597 3.5706 173.132 3.74376 171.702 3.94729C169.537 4.25715 167.408 4.56702 165.3 4.7341C164.139 4.77967 162.976 4.76448 161.799 4.74625C160.104 4.71587 158.392 4.65511 156.611 4.51537C155.187 4.40905 153.721 4.3331 152.214 4.21159C150.887 4.19281 149.562 4.08237 148.239 3.88046C145.917 3.47659 143.588 3.28502 141.258 3.30631C140.195 3.37618 139.14 3.38529 138.115 3.33669C135.901 3.17872 90.0932 3.03898 87.8014 3.34276C86.9729 3.41871 86.1677 3.4339 85.4105 3.38833C84.8397 3.32757 84.25 3.28808 83.6487 3.27593C81.5063 3.41364 79.4163 3.55744 77.3788 3.7073C75.6169 3.7711 73.8886 3.85312 72.2155 3.90173C71.0696 3.93514 69.9295 3.98679 68.7938 4.06881C67.5212 4.16602 66.2733 4.33918 65.0153 4.45765C64.7625 4.45672 64.5099 4.47902 64.2581 4.52449C63.183 4.72623 62.1027 4.78002 61.0241 4.68549C60.1097 4.7503 59.2031 4.83739 58.3042 4.94675C57.2485 4.99535 56.1783 4.98016 55.1067 4.97713L48.132 4.78574C46.8463 4.8222 45.5883 4.85257 44.3259 4.99232C43.0634 5.13509 41.7239 5.37205 40.4571 5.55128C39.4116 5.75785 38.3312 5.88241 37.2391 5.9219C34.8876 5.93405 15.5582 6.09506 13.2605 6.40795C11.1151 6.67403 8.96458 6.71154 6.81735 6.52036C6.54487 6.51949 6.27292 6.57033 6.00486 6.67225C5.3661 6.98776 4.70951 7.11759 4.05372 7.05806C3.5604 6.88436 3.05348 7.01748 2.59618 7.44082C2.57176 7.47626 2.55056 7.5205 2.53357 7.57145C2.24808 8.32793 2.03995 9.19847 1.92202 10.1293C1.95839 12.4314 1.78343 14.7267 1.40657 16.8916C1.02695 18.5047 0.693411 20.1632 0.407701 21.8585L0.359651 22.144L2.19139 24.0761L0.037858 24.4558C0.0357716 24.6129 0.0274926 24.7694 0.0131047 24.9237C0.00728038 25.4705 0.00291215 26.0112 0 26.5459L4.07556 29.3893L0.436823 29.1098L0.499434 29.9817C0.572238 30.9447 1.16195 31.9259 1.16923 32.8494C1.13771 34.7324 0.973351 36.5954 0.681444 38.3783C0.519259 39.3714 0.500127 40.4419 0.626413 41.4575C0.752698 42.4731 1.01886 43.3892 1.39201 44.0925C1.7 44.5887 1.97004 45.1798 2.19285 45.8454C2.62068 47.7682 2.94259 49.7861 3.1524 51.8603C3.29354 54.6275 3.34026 57.4121 3.29219 60.1931C3.28636 60.8736 3.22812 61.5511 3.23394 62.2285C3.21242 63.3671 3.23189 64.5075 3.29219 65.64C3.33587 66.4906 3.7028 67.3564 3.7028 68.207C3.74649 70.5348 3.43832 72.8324 2.82188 74.7748C2.45456 75.7596 2.18749 76.8905 2.03705 78.0982C1.80117 80.6683 1.55655 83.2717 1.30464 85.9359C1.17651 87.2969 2.07491 87.95 4.0013 88.1778C4.29688 88.2173 4.57208 88.3145 4.85747 88.354C5.94238 88.6289 7.03832 88.6594 8.12636 88.4452C8.99504 88.1239 9.87069 87.8907 10.7502 87.7465C12.3461 87.6006 13.9521 87.6189 15.5174 87.6158C16.3212 87.6158 34.0154 87.9986 34.7638 88.2295C37.0091 88.9586 39.3077 89.5904 41.6598 90.1251C43.5973 90.4552 45.5956 90.678 47.6545 90.7934C49.3741 90.8846 51.1199 90.9818 52.8672 91C53.8235 90.98 54.7795 90.9121 55.7342 90.7965C56.538 90.6766 57.3429 90.5915 58.1484 90.5413C59.5215 90.52 60.9018 90.5686 62.2778 90.681C63.7475 90.8329 65.2293 90.916 66.7232 90.9301C68.2205 90.9427 69.7177 90.887 71.2138 90.7631C73.9454 90.5079 76.7672 90.5929 79.5571 90.5838C81.7008 90.6178 83.8439 90.4262 85.9784 90.0097C87.1028 89.724 88.234 89.5709 89.3667 89.5509C92.4681 89.6239 139.259 89.7818 142.353 90.0188C144.603 90.1889 146.845 90.517 149.082 90.8329C151.406 91.0545 153.735 90.9408 156.052 90.4927C156.892 90.3408 157.745 90.2193 158.607 90.1342C160.694 89.9702 162.795 89.873 164.882 89.7271C165.655 89.6482 166.427 89.5266 167.197 89.3626C168.717 89.077 170.225 88.7611 171.747 88.4816C171.995 88.4584 172.244 88.4807 172.49 88.5485C174.959 89.0862 177.397 89.7211 179.894 90.1464C181.969 90.4653 184.079 90.6841 186.213 90.7843C187.524 90.8242 188.836 90.7898 190.146 90.681C192.121 90.5393 194.101 90.355 196.085 90.1281C196.639 89.9854 217.562 89.8183 218.087 89.6269C219.61 89.2988 238.122 88.9646 239.666 88.7034C241.857 88.3328 244.078 88.0624 246.276 87.713C247.828 87.7556 249.364 87.0617 250.768 85.6838C250.992 85.5256 251.228 85.4505 251.464 85.462C251.597 85.4865 251.721 85.6106 251.814 85.8113C251.898 86.1859 251.966 86.5753 252.018 86.9748C252.259 87.1203 252.511 87.1629 252.761 87.1003C253.01 87.0377 253.25 86.871 253.468 86.6103C253.736 86.3153 253.964 85.8824 254.13 85.3526C254.225 84.8119 254.32 82.9406 254.381 82.3938C254.018 80.0249 253.904 77.5201 254.049 75.0513L251.027 75.0817C252.035 75.0665 253.037 72.0134 254.049 74.1733C256.044 72.0256 254.018 66.2293 256 64.1272C255.023 62.1227 254.22 59.7816 253.625 57.2069C253.053 54.6671 252.674 51.9575 252.501 49.1748C252.318 46.2299 252.279 43.2536 252.385 40.2922C252.49 37.2255 252.685 34.175 252.967 31.1573C253.241 28.1438 253.579 25.2031 253.932 22.4144C254.286 19.6257 254.659 16.9888 255.001 14.5464C255.104 14.325 255.187 14.0666 255.246 13.7839H255.247Z" fill="#133D4A"/>
<path d="M244.935 68.8984C244.733 68.9607 244.527 68.862 244.359 68.6219C244.136 68.1298 244.577 67.5708 244.941 67.3673C247.285 66.0531 249.681 65.1888 252.101 64.7851L253.235 64.6029C253.536 60.7393 253.32 56.7777 252.612 53.1532C250.422 38.0247 251.686 22.2704 252.958 6.89277C246.163 6.60721 201.99 6.32773 195.19 6.18799C192.713 7.35452 189.965 7.88311 188.067 10.5412C187.694 11.1668 187.28 11.6763 186.838 12.0541C186.256 12.3513 185.652 12.4111 185.059 12.2303L182.189 11.7412C174.265 26.092 164.042 37.326 154 48.2562C152.354 50.2734 150.563 51.72 148.694 52.5396C146.486 53.031 144.254 52.7641 142.087 51.7497C120.955 44.2675 56.222 36.2263 35.2691 27.6261C30.1975 25.5452 8.1045 23.4248 2.95581 21.8542C3.00823 23.2759 3.06648 24.6946 3.11161 26.1133C4.95501 26.0019 6.79937 25.9735 8.6447 26.0282C8.49919 27.2225 8.23777 28.3417 7.87662 29.3168C7.51547 30.2918 7.06226 31.1019 6.54504 31.6968C5.64348 32.5629 4.77675 33.5788 3.95323 34.7347C3.74064 35.1205 3.56009 35.5549 3.35187 35.9468C3.61514 50.722 3.43375 65.517 2.80875 80.2448C2.69371 81.1993 2.69953 82.1999 2.82562 83.1483C2.95172 84.0968 3.19377 84.9606 3.52805 85.6552C4.21988 86.5724 5.00865 87.123 5.82574 87.2592C9.62885 88.4006 13.4695 88.9075 17.3113 88.7751C18.4616 86.5635 36.6043 84.3611 37.7837 82.189C37.941 81.8512 38.1393 81.6087 38.3574 81.4872C38.5815 81.4478 38.8066 81.5327 39.0099 81.7333C39.2132 81.9339 39.3874 82.2431 39.515 82.6295C40.3144 84.6254 41.0089 87.1863 42.4941 87.6511C42.8727 87.7695 43.3838 87.9245 43.509 88.3923C53.1089 87.9305 62.7175 87.9397 72.3218 87.967C84.0112 87.9943 139.381 88.0247 151.071 88.052L157.936 88.0703C157.56 86.9058 157.123 85.8337 156.632 84.8745C155.982 83.6016 155.174 82.2528 155.258 80.6367L159.056 83.7808C159.774 84.4129 160.511 84.9457 161.262 85.3757C161.804 85.6643 162.368 85.8526 162.893 86.2081C163.507 86.6366 164.084 87.2707 164.601 88.0855L167.299 88.0915C183.563 88.1341 237.208 88.1736 253.455 89.3279C254.192 83.0652 254.391 76.5787 254.04 70.1712L251.441 69.1384C251.457 69.1202 251.47 69.0989 251.485 69.0776C249.303 68.8903 247.119 68.8305 244.935 68.8984Z" fill="#1E8B63"/>
<path d="M244.935 68.8984C244.733 68.9607 244.527 68.862 244.359 68.6219C244.136 68.1298 244.577 67.5708 244.941 67.3673C247.285 66.0531 249.681 65.1888 252.101 64.7851L253.235 64.6029C253.536 60.7393 253.32 56.7777 252.612 53.1532C250.422 38.0247 251.686 22.2704 252.958 6.89277C246.163 6.60721 201.99 6.32773 195.19 6.18799C192.713 7.35452 189.965 7.88311 188.067 10.5412C187.694 11.1668 187.28 11.6763 186.838 12.0541C186.256 12.3513 185.652 12.4111 185.059 12.2303L182.189 11.7412C174.265 26.092 164.042 37.326 154 48.2562C152.354 50.2734 150.563 51.72 148.694 52.5395C146.486 53.031 144.254 52.7641 142.087 51.7497C120.955 44.2675 56.222 36.2263 35.2691 27.6261C30.1975 25.5452 8.1045 23.4248 2.95581 21.8542C3.00823 23.2759 3.06648 24.6946 3.11161 26.1133C4.95501 26.0019 6.79937 25.9735 8.6447 26.0282C8.49919 27.2225 8.23777 28.3417 7.87662 29.3168C7.51547 30.2918 7.06226 31.1019 6.54504 31.6968C5.64348 32.5629 4.77675 33.5788 3.95323 34.7347C3.74064 35.1205 3.56009 35.5549 3.35187 35.9468C3.61514 50.722 3.43375 65.517 2.80875 80.2448C2.69371 81.1993 2.69953 82.1999 2.82562 83.1483C2.95172 84.0968 3.19377 84.9606 3.52805 85.6552C4.21988 86.5724 5.00865 87.123 5.82574 87.2592C9.62885 88.4006 13.4695 88.9075 17.3113 88.7751C18.4616 86.5635 36.6043 84.3611 37.7837 82.189C37.941 81.8512 38.1393 81.6087 38.3574 81.4872C38.5815 81.4478 38.8066 81.5327 39.0099 81.7333C39.2132 81.9339 39.3874 82.2431 39.515 82.6295C40.3144 84.6254 41.0089 87.1863 42.4941 87.651C42.8727 87.7695 43.3838 87.9245 43.509 88.3923C53.1089 87.9305 62.7175 87.9397 72.3218 87.967C84.0112 87.9943 139.381 88.0247 151.071 88.052L157.936 88.0703C157.56 86.9058 157.123 85.8337 156.632 84.8745C155.982 83.6016 155.174 82.2528 155.258 80.6367L159.056 83.7808C159.774 84.4129 160.511 84.9457 161.262 85.3757C161.804 85.6643 162.368 85.8526 162.893 86.2081C163.507 86.6366 164.084 87.2707 164.601 88.0855L167.299 88.0915C183.563 88.1341 237.208 88.1736 253.455 89.3279C254.192 83.0652 254.391 76.5787 254.04 70.1712L251.441 69.1384C251.457 69.1201 251.47 69.0989 251.485 69.0776C249.303 68.8903 247.119 68.8305 244.935 68.8984Z" fill="#1E6A8B"/>
<path d="M6.5428 31.6987C7.06002 31.1038 7.51323 30.2937 7.87438 29.3187C8.23553 28.3436 8.49695 27.2244 8.64246 26.0301C6.7981 25.9734 4.95374 26.0018 3.10938 26.1152C3.2113 29.39 3.8942 31.4588 3.95244 34.7366C3.7384 35.1224 4.15921 34.3417 3.95244 34.7366C4.7755 33.5809 5.64174 32.565 6.5428 31.6987ZM42.4919 87.653C41.0067 87.1882 40.3121 84.6273 39.5127 82.6314C39.3852 82.245 39.2109 81.9358 39.0076 81.7353C38.8043 81.5347 38.5792 81.4498 38.3551 81.4892C38.1376 81.6111 37.9398 81.8536 37.7829 82.1909C36.6035 84.363 36.0647 85.3776 34.9144 87.5892C37.5718 87.5679 39.6176 88.5826 42.2662 88.4428C42.6797 88.4215 43.0932 88.4124 43.5067 88.3942C43.3815 87.9264 42.8719 87.7714 42.4919 87.653ZM161.26 85.3776C160.508 84.9476 159.771 84.4148 159.054 83.7827L155.256 80.6386C155.172 82.2547 155.98 83.6035 156.629 84.8764C156.995 85.4531 157.313 86.1509 157.57 86.9421C159.792 86.9482 162.375 88.0843 164.598 88.0874C164.082 87.2726 163.505 86.6385 162.89 86.21C162.366 85.8546 161.801 85.6632 161.26 85.3776ZM253.233 64.6017C252.853 64.6686 252.473 64.7233 252.098 64.787C249.679 65.1905 247.282 66.0549 244.937 67.3692C244.573 67.5728 244.134 68.1317 244.355 68.6239C244.524 68.8647 244.73 68.9634 244.933 68.9003C247.117 68.8274 249.301 68.9003 251.484 69.0826C251.902 68.6132 252.272 67.9756 252.572 67.2065C252.872 66.4375 253.098 65.5522 253.233 64.6017ZM185.106 6.10788C184.164 8.05622 183.19 9.93576 182.186 11.7431L185.055 12.2292C185.648 12.4114 186.253 12.3526 186.836 12.056C187.278 11.6782 187.692 11.1687 188.064 10.5431C189.963 7.88502 192.711 7.35644 195.188 6.1899C191.826 6.12104 188.465 6.0937 185.106 6.10788Z" fill="#00465C"/>
<path d="M142.085 51.7467C144.253 52.7629 146.486 53.0307 148.696 52.5396C150.563 51.7197 152.355 50.2731 154 48.2563C164.041 37.3261 174.264 26.0921 182.188 11.7413L179.403 11.2674C175.104 10.5383 170.803 9.80312 166.527 8.8067C164.697 8.37378 162.87 7.89782 161.046 7.37891C157.84 7.85699 154.623 7.96855 151.411 7.71307C148.048 7.31208 144.742 6.07263 141.377 5.71417C137.056 5.24937 89.0503 6.23364 84.7316 6.74096C83.7832 6.85235 82.8343 6.94146 81.8849 7.00829L81.866 7.04475C81.2341 8.48469 81.6156 10.6598 80.8715 11.9661C80.4677 12.483 80.0043 12.7622 79.5305 12.774C79.0568 12.7858 78.5903 12.5297 78.1807 12.0329C77.483 11.1088 76.9153 9.81525 76.5353 8.28419L76.215 7.20575C73.0611 7.21486 69.9029 7.0812 66.7447 6.91412C66.623 7.0619 66.5001 7.20571 66.3763 7.34549L62.8497 11.3433C63.1284 9.67549 63.5486 8.12583 64.0902 6.7683C55.5224 5.89668 46.9361 6.23973 38.3905 7.79509C33.9466 8.81278 12.3093 10.4563 8.08229 8.10496C6.19084 7.05386 3.74318 5.44076 2.48076 7.86193L2.36719 8.74594C2.60744 13.1113 2.79382 17.4828 2.95544 21.8543C8.10413 23.4248 30.1972 25.5453 35.2687 27.6262C56.2216 36.2233 120.953 44.2676 142.085 51.7467Z" fill="#2A759F"/>
<path d="M76.5023 8.72022C76.5139 8.72022 76.5256 8.51972 76.5372 8.55921C76.9199 10.051 77.4883 11.2998 78.1826 12.1743C78.5838 12.6994 79.0455 12.9893 79.519 13.0133C79.9925 13.0374 80.4604 12.7948 80.8734 12.311C81.4413 11.3115 81.3568 8.71718 81.5651 8.71718L76.5023 8.72022ZM64.1256 6.77599L64.0921 6.76992C63.5505 8.12745 63.1303 9.67711 62.8516 11.3449L65.8118 7.9881C65.2223 7.77311 64.653 7.36593 64.1256 6.77599ZM161.777 7.2985L161.048 7.37749C162.871 7.89392 164.697 8.37998 166.529 8.80832C170.805 9.80473 175.105 10.5399 179.405 11.269L182.19 11.7429C183.194 9.93555 184.168 8.05601 185.11 6.10767C177.324 6.1502 169.544 6.47525 161.777 7.2985Z" fill="#074957"/>
</svg>
