<svg width="256" height="132" viewBox="0 0 256 132" fill="none" xmlns="http://www.w3.org/2000/svg">
<path d="M242.071 65.1374C242.037 64.9785 248.324 64.3916 249.038 64.2901C250.113 64.1444 252.085 64.0518 252.987 63.6016C253.992 63.0853 253.705 62.3704 253.692 61.5452C253.644 57.7412 252.059 53.9372 251.315 50.1642C251.119 49.1801 249.573 46.9559 250.143 46.2587C250.522 45.7777 251.916 45.5526 252.416 44.9966C253.069 44.2684 253.039 43.2579 253.113 42.4194C253.256 40.7248 253.222 39.1538 253.592 37.4592C254.027 35.5396 253.2 35.491 250.64 34.8114C252.634 33.4523 254.737 32.2652 255.207 30.2264C255.46 29.1275 254.941 28.0199 255.024 26.9078C255.098 25.8708 255.277 24.847 255.277 23.7967C255.28 21.1929 255.122 18.5914 254.802 16.0078C254.515 13.691 254.04 11.4139 254.645 9.11033C254.926 7.95648 255.013 6.76303 254.902 5.57996C254.854 4.47231 255.416 3.59413 255.773 2.53502C256.539 0.200556 255.338 0.558007 252.59 0.769829C250.532 0.893354 248.468 0.902194 246.408 0.796307C244.954 0.752177 242.772 0.319707 241.375 0.531529C238.889 0.911044 238.288 4.18546 236.812 5.42551C236.028 4.54291 235.645 3.40437 234.74 2.57914C233.542 1.48473 232.036 1.59505 230.198 1.60388C225.409 1.63477 220.716 2.17315 215.944 2.257C206.801 2.42028 197.727 2.74684 188.567 2.60121C179.641 2.45999 170.503 2.72036 161.625 2.06724C159.448 1.90837 157.158 1.82894 155.034 1.47149C153.205 1.167 152.238 0.407966 151.507 1.79805C150.967 2.82627 150.963 4.1987 149.643 4.92243C148.773 5.39462 146.091 6.24632 145.242 5.54025C144.393 4.83417 144.972 2.36291 143.3 1.92603C142.603 1.74509 141.101 2.23935 140.335 2.29672C139.029 2.39821 137.644 2.3585 136.316 2.32761C133.782 2.27024 132.289 1.76716 131.44 3.53235C130.817 4.82534 130.426 6.28162 129.032 7.28337C128.382 6.08304 127.759 4.87389 127.164 3.65591C126.52 2.33202 126.459 2.22611 124.374 2.1908C120.333 2.12461 116.08 2.02311 112.087 2.43352C103.14 3.35583 94.5454 2.59238 85.6069 2.22169C81.6884 2.05842 77.77 1.83777 73.8515 1.72744C69.6587 1.60388 65.0698 1.08756 61.1121 2.0187C59.4794 2.33665 57.8238 2.51966 56.1618 2.56591C55.1998 2.66147 54.2324 2.69095 53.2665 2.65417C52.6526 2.60562 51.6294 2.21287 51.0504 2.28348C49.5396 2.49089 48.3902 4.58704 46.9752 4.58704C45.7038 4.58704 44.0407 2.64093 43.0872 2.06724C40.3921 0.443269 34.8279 0.933109 31.4537 0.805133C27.0127 0.641853 22.5587 0.540355 18.1178 0.363836C14.3343 0.218208 10.7075 0.35501 6.93275 0.27999C5.5308 0.253512 2.17398 -0.253979 0.937486 0.165253C-0.438333 0.646266 0.110253 2.46441 0.0971917 3.58971C0.0623609 6.38312 0.785101 9.17212 0.907009 11.9743C1.05069 15.2135 0.584824 18.4702 0.393254 21.7094C0.0492993 27.6492 0.867824 33.7038 1.05939 39.6657C1.11164 41.1485 0.867824 42.2826 2.1435 43.4653C3.34952 44.5862 3.11441 45.5923 3.14489 46.9956C3.17101 48.1871 3.16666 49.3875 3.26244 50.579C3.30163 51.0909 3.63688 51.9029 3.47578 52.3839C3.14489 53.368 3.18408 52.7899 2.13915 53.1914C1.59056 53.4033 1.49913 53.0414 1.07681 53.4562C0.728501 53.796 1.02021 54.939 1.02456 55.3317C0.99942 56.5782 1.05031 57.825 1.17695 59.0651C1.33369 60.2698 1.20307 61.3025 2.56147 62.0659C4.12886 62.9485 6.59314 63.5663 8.36081 64.3254C9.91514 64.9917 10.7206 65.208 8.7483 65.7816C7.00371 66.1991 5.22631 66.4605 3.4366 66.5627C1.69506 66.7304 1.58621 66.5627 1.12035 67.5998C0.471623 69.034 1.02892 71.1919 0.959255 72.7056C0.698024 78.3365 0.837347 83.9631 0.166853 89.5852C0.0495139 91.0146 0.0146236 92.4498 0.0623609 93.8834C0.0623609 95.7148 0.08413 95.856 2.53535 96.6327C3.40612 96.9107 5.8051 97.4756 5.88347 98.3405C5.94877 99.0731 3.04475 99.9159 2.40038 100.626C0.867824 102.281 1.4077 105.031 1.20742 106.963C0.867824 110.225 1.20742 113.508 0.911363 116.782C0.671901 119.43 0.2757 122.078 0.262638 124.726C0.262638 126.186 0.123315 127.643 0.0536532 129.099C-0.0203624 130.785 0.689316 130.538 2.97509 130.515C7.26364 130.476 11.452 129.814 15.7319 129.633C20.3992 129.442 25.0709 129.287 29.747 129.169C32.2577 129.105 34.7669 129.074 37.2748 129.077C38.9162 129.077 41.0321 129.452 42.6039 129.32C44.5022 129.161 45.6777 127.488 47.502 127.034C49.6789 126.491 50.4713 127.431 51.882 128.441C53.5625 129.646 53.9892 130.083 56.3229 129.986C58.6565 129.889 60.9815 130.193 63.2891 130.304C68.1175 130.529 72.9807 130.387 77.8222 130.387C87.8666 130.387 97.85 130.913 107.886 130.873C112.684 130.855 117.48 130.855 122.275 130.873C123.05 130.873 124.887 131.094 125.58 130.873C126.816 130.485 126.681 130.017 126.925 129.108C127.13 128.335 127.308 125.414 128.427 125.043C129.894 125.714 129.677 127.903 130.822 128.786C131.967 129.668 132.563 129.425 134.357 129.006C136.408 128.525 136.416 127.854 138.41 128.662C139.337 129.088 140.293 129.445 141.271 129.73C142.368 130.008 144.031 129.814 144.976 130.171C146.805 130.882 145.977 131.38 148.307 131.38C150.527 131.38 152.695 131.853 154.92 131.95C159.548 132.148 164.063 131.707 168.674 131.535C172.636 131.385 176.607 131.274 180.556 130.979C184.958 130.648 189.285 130.882 193.678 130.727C195.903 130.648 196.778 130.286 198.468 129.403C199.996 128.631 201.659 128.41 203.509 128.252C205.732 128.042 207.969 128.06 210.188 128.305C211.264 128.424 212.335 128.596 213.432 128.609C214.272 128.609 215.735 128.252 216.453 128.609C217.803 129.249 217.159 130.427 218.935 130.816C220.803 131.226 223.232 130.674 225.139 130.679C229.833 130.679 234.23 132.082 239.002 131.875C243.09 131.698 246.956 131.491 251.058 131.751C252.799 131.861 254.436 132.369 254.976 131.098C255.581 129.726 254.476 127.51 254.397 126.067C254.232 123.141 255.333 120.33 255.743 117.444C256.178 114.254 255.864 111.028 255.477 107.837C254.767 101.862 254.341 95.8339 254.21 89.7882C254.166 88.1024 254.105 86.4299 253.984 84.7486C253.91 83.7203 254.38 81.836 253.235 81.0682C251.929 80.1856 248.846 80.799 249.212 79.1309C249.477 77.9173 251.763 76.6861 252.899 75.8609C254.493 74.7002 254.149 73.6102 254.031 72.0922C253.927 70.733 254.467 68.5618 253.805 67.2865C253.191 66.1038 250.352 66.2229 248.602 65.9979C246.417 65.7037 244.225 65.4257 242.028 65.1638C242.071 65.1065 243.247 65.283 242.071 65.1374Z" fill="#D49332" fill-opacity="0.2"/>
</svg>
