<svg width="256" height="98" viewBox="0 0 256 98" fill="none" xmlns="http://www.w3.org/2000/svg">
<path d="M242.071 48.3596C242.037 48.2416 248.324 47.8059 249.038 47.7305C250.113 47.6224 252.085 47.5536 252.987 47.2194C253.992 46.8361 253.705 46.3053 253.692 45.6926C253.644 42.8685 252.059 40.0443 251.315 37.2431C251.119 36.5125 249.573 34.8612 250.143 34.3436C250.522 33.9865 251.916 33.8194 252.416 33.4065C253.069 32.866 253.039 32.1157 253.113 31.4932C253.256 30.2351 253.222 29.0687 253.592 27.8106C254.027 26.3855 253.2 26.3494 250.64 25.8449C252.634 24.8358 254.737 23.9544 255.207 22.4408C255.46 21.625 254.941 20.8026 255.024 19.977C255.098 19.2071 255.277 18.447 255.277 17.6672C255.28 15.7341 255.122 13.8027 254.802 11.8846C254.515 10.1645 254.04 8.47396 254.645 6.76373C254.926 5.90709 255.013 5.02103 254.902 4.1427C254.854 3.32035 255.416 2.66837 255.773 1.88206C256.539 0.148898 255.338 0.414278 252.59 0.57154C250.532 0.663248 248.468 0.66981 246.408 0.591198C244.954 0.558435 242.772 0.237358 241.375 0.39462C238.889 0.676381 238.288 3.10739 236.812 4.02803C236.028 3.37277 235.645 2.52749 234.74 1.91482C233.542 1.1023 232.036 1.18421 230.198 1.19076C225.409 1.21369 220.716 1.6134 215.944 1.67565C206.801 1.79687 197.727 2.03932 188.567 1.9312C179.641 1.82636 170.503 2.01966 161.625 1.53477C159.448 1.41682 157.158 1.35785 155.034 1.09247C153.205 0.866406 152.238 0.302884 151.507 1.33492C150.967 2.09829 150.963 3.11722 149.643 3.65453C148.773 4.00509 146.091 4.63742 145.242 4.11321C144.393 3.58901 144.972 1.75428 143.3 1.42993C142.603 1.2956 141.101 1.66255 140.335 1.70514C139.029 1.78049 137.644 1.75101 136.316 1.72807C133.782 1.68548 132.289 1.31198 131.44 2.6225C130.817 3.58245 130.426 4.66363 129.032 5.40735C128.382 4.5162 127.759 3.61849 127.164 2.71424C126.52 1.73135 126.459 1.65272 124.374 1.62651C120.333 1.57736 116.08 1.50201 112.087 1.8067C103.14 2.49145 94.5454 1.92465 85.6069 1.64944C81.6884 1.52822 77.77 1.3644 73.8515 1.2825C69.6587 1.19076 65.0698 0.807433 61.1121 1.49873C59.4794 1.73479 57.8238 1.87066 56.1618 1.90499C55.1998 1.97594 54.2324 1.99783 53.2665 1.97052C52.6526 1.93448 51.6294 1.64289 51.0504 1.69531C49.5396 1.84929 48.3902 3.40553 46.9752 3.40553C45.7038 3.40553 44.0407 1.96069 43.0872 1.53477C40.3921 0.329094 34.8279 0.692763 31.4537 0.59775C27.0127 0.476527 22.5587 0.401173 18.1178 0.270121C14.3343 0.162003 10.7075 0.263568 6.93275 0.207871C5.5308 0.188214 2.17398 -0.18856 0.937486 0.122688C-0.438333 0.479804 0.110253 1.82964 0.0971917 2.66509C0.0623609 4.73898 0.785101 6.8096 0.907009 8.89005C1.05069 11.2948 0.584824 13.7128 0.393254 16.1175C0.0492993 20.5274 0.867824 25.0225 1.05939 29.4488C1.11164 30.5496 0.867824 31.3916 2.1435 32.2697C3.34952 33.1019 3.11441 33.8488 3.14489 34.8907C3.17101 35.7753 3.16666 36.6665 3.26244 37.5511C3.30163 37.9311 3.63688 38.5339 3.47578 38.8911C3.14489 39.6217 3.18408 39.1925 2.13915 39.4906C1.59056 39.6479 1.49913 39.3792 1.07681 39.6872C0.728501 39.9395 1.02021 40.788 1.02456 41.0796C0.99942 42.005 1.05031 42.9307 1.17695 43.8514C1.33369 44.7458 1.20307 45.5125 2.56147 46.0792C4.12886 46.7345 6.59314 47.1932 8.36081 47.7567C9.91514 48.2514 10.7206 48.412 8.7483 48.8379C7.0037 49.1478 5.22631 49.3419 3.4366 49.4178C1.69506 49.5423 1.58621 49.4178 1.12035 50.1877C0.471623 51.2525 1.02892 52.8546 0.959255 53.9784C0.698024 58.1589 0.837347 62.3362 0.166853 66.5102C0.0495139 67.5715 0.0146236 68.637 0.0623609 69.7013C0.0623609 71.061 0.08413 71.1658 2.53535 71.7425C3.40612 71.9489 5.8051 72.3682 5.88347 73.0104C5.94877 73.5542 3.04475 74.18 2.40038 74.7075C0.867824 75.9361 1.4077 77.9772 1.20742 79.4123C0.867824 81.8334 1.20742 84.271 0.911363 86.702C0.671901 88.6678 0.2757 90.6336 0.262638 92.5993C0.262638 93.6838 0.123315 94.765 0.0536532 95.8461C-0.0203624 97.0977 0.689316 96.9142 2.97509 96.8978C7.26364 96.8683 11.452 96.3769 15.7319 96.2426C20.3992 96.1006 25.0709 95.9859 29.747 95.8986C32.2577 95.8505 34.7669 95.8276 37.2748 95.8298C38.9162 95.8298 41.0321 96.1083 42.6039 96.01C44.5022 95.892 45.6777 94.6503 47.502 94.3128C49.6789 93.9099 50.4713 94.6077 51.882 95.358C53.5625 96.2524 53.9892 96.5768 56.3229 96.5047C58.6565 96.4326 60.9815 96.6587 63.2891 96.7406C68.1175 96.9077 72.9807 96.8028 77.8222 96.8028C87.8666 96.8028 97.85 97.1927 107.886 97.1632C112.684 97.1501 117.48 97.1501 122.275 97.1632C123.05 97.1632 124.887 97.327 125.58 97.1632C126.816 96.8749 126.681 96.5276 126.925 95.8527C127.13 95.2793 127.308 93.1104 128.427 92.8352C129.894 93.3332 129.677 94.9583 130.822 95.6135C131.967 96.2688 132.563 96.0886 134.357 95.7773C136.408 95.4202 136.416 94.9222 138.41 95.5218C139.337 95.8378 140.293 96.1028 141.271 96.3147C142.368 96.5211 144.031 96.3769 144.976 96.6423C146.805 97.1698 145.977 97.54 148.307 97.54C150.527 97.54 152.695 97.8906 154.92 97.9626C159.548 98.1101 164.063 97.7824 168.674 97.6547C172.636 97.5433 176.607 97.4614 180.556 97.2418C184.958 96.9961 189.285 97.1698 193.678 97.0551C195.903 96.9961 196.778 96.7275 198.468 96.0722C199.996 95.4989 201.659 95.335 203.509 95.2171C205.732 95.0614 207.969 95.0745 210.188 95.2564C211.264 95.3449 212.335 95.4726 213.432 95.4825C214.272 95.4825 215.735 95.2171 216.453 95.4825C217.803 95.9575 217.159 96.8323 218.935 97.1206C220.803 97.4253 223.232 97.0158 225.139 97.0191C229.833 97.0191 234.23 98.0609 239.002 97.9069C243.09 97.7759 246.956 97.6219 251.058 97.8152C252.799 97.8971 254.436 98.2739 254.976 97.3303C255.581 96.3114 254.476 94.6667 254.397 93.5953C254.232 91.4232 255.333 89.3362 255.743 87.1935C256.178 84.8247 255.864 82.4297 255.477 80.061C254.767 75.6249 254.341 71.1494 254.21 66.6609C254.166 65.4094 254.105 64.1677 253.984 62.9194C253.91 62.156 254.38 60.757 253.235 60.187C251.929 59.5317 248.846 59.9871 249.212 58.7487C249.477 57.8477 251.763 56.9336 252.899 56.3209C254.493 55.4593 254.149 54.65 254.031 53.523C253.927 52.5139 254.467 50.902 253.805 49.9551C253.191 49.0771 250.352 49.1655 248.602 48.9984C246.417 48.78 244.225 48.5736 242.028 48.3792C242.071 48.3366 243.247 48.4677 242.071 48.3596Z" fill="#D49332" fill-opacity="0.2"/>
</svg>
