<svg width="402" height="74" viewBox="0 0 402 74" fill="none" xmlns="http://www.w3.org/2000/svg">
    <path d="M400.818 11.2089C398.829 8.25433 401.76 5.13428 398.968 3.18024C398.529 3.15055 398.09 3.12584 397.651 3.10613C394.075 2.94309 390.218 2.93568 386.315 2.71582C382.439 2.56687 378.581 2.0711 374.782 1.23361C374.301 1.19656 373.798 0.144193 373.309 0.109609L345.133 0.0107949C342.896 -0.105311 308.626 0.756838 306.386 0.603677C303.317 0.455456 300.285 0.761779 297.231 0.796364C294.176 0.830948 290.984 1.32008 287.927 1.5597C285.64 1.73756 283.393 2.05377 281.2 2.25139C279.606 2.3922 278.045 2.59724 276.49 2.72817C274.171 2.90356 271.871 3.04437 269.626 3.20989C266.226 3.46186 262.883 3.71384 259.572 3.84971C257.75 3.88676 255.923 3.87441 254.075 3.85959C251.414 3.83488 248.725 3.78548 245.928 3.67184C243.692 3.58538 241.39 3.52362 239.023 3.42481C236.94 3.40954 234.859 3.31973 232.781 3.15554C229.135 2.82712 225.478 2.67134 221.82 2.68865C220.151 2.74546 218.493 2.75287 216.883 2.71335C213.408 2.58489 141.475 2.47126 137.876 2.71829C136.575 2.78005 135.31 2.7924 134.121 2.75534C133.225 2.70594 132.299 2.67382 131.355 2.66394C127.99 2.77593 124.708 2.89286 121.509 3.01473C118.742 3.06661 116.028 3.13331 113.401 3.17283C111.602 3.20001 109.811 3.242 108.028 3.3087C106.029 3.38775 104.07 3.52856 102.094 3.6249C101.697 3.62415 101.301 3.64228 100.905 3.67925C99.217 3.84331 97.5206 3.88705 95.827 3.81018C94.3911 3.86288 92.9673 3.9337 91.5558 4.02263C89.8981 4.06216 88.2175 4.0498 86.5347 4.04733L75.5824 3.8917C73.5634 3.92135 71.5878 3.94605 69.6055 4.05968C67.6231 4.17579 65.5195 4.36848 63.5302 4.51423C61.8885 4.68221 60.192 4.78349 58.4771 4.81561C54.7844 4.82549 24.4312 4.95642 20.8231 5.21086C17.4542 5.42723 14.0772 5.45774 10.7054 5.30227C10.2775 5.30156 9.85044 5.3429 9.4295 5.42578C8.42646 5.68236 7.3954 5.78793 6.3656 5.73952C5.59093 5.59827 4.79492 5.70652 4.07682 6.05078C4.03847 6.0796 4.00517 6.11557 3.9785 6.15701C3.53019 6.77216 3.20336 7.48007 3.01817 8.23703C3.07528 10.109 2.80054 11.9755 2.20875 13.736C1.61263 15.0477 1.08887 16.3964 0.640218 17.775L0.564764 18.0072L3.44117 19.5784L0.0594489 19.8872C0.0561726 20.0149 0.0431719 20.1422 0.0205784 20.2676C0.0114325 20.7123 0.00457299 21.152 0 21.5868L6.3999 23.899L0.685948 23.6717L0.784268 24.3807C0.898592 25.1638 1.82462 25.9617 1.83605 26.7127C1.78656 28.2439 1.52847 29.7589 1.07008 31.2087C0.815399 32.0163 0.785355 32.8869 0.983663 33.7127C1.18197 34.5385 1.59994 35.2835 2.18589 35.8555C2.66953 36.259 3.09357 36.7396 3.44346 37.2808C4.11529 38.8445 4.62079 40.4854 4.95026 42.1721C5.17189 44.4224 5.24525 46.6868 5.16976 48.9483C5.16062 49.5016 5.06916 50.0525 5.0783 50.6034C5.0445 51.5293 5.07508 52.4566 5.16976 53.3776C5.23836 54.0693 5.81455 54.7733 5.81455 55.465C5.88316 57.358 5.39924 59.2263 4.43123 60.8059C3.85442 61.6067 3.43505 62.5264 3.19881 63.5085C2.82839 65.5984 2.44426 67.7154 2.0487 69.8819C1.84749 70.9887 3.25825 71.5198 6.28329 71.705C6.74744 71.7372 7.17959 71.8162 7.62774 71.8483C9.3314 72.0718 11.0524 72.0967 12.7609 71.9224C14.125 71.6612 15.5001 71.4715 16.8812 71.3543C19.3872 71.2357 21.9092 71.2505 24.3672 71.248C25.6293 71.248 53.4148 71.5593 54.59 71.747C58.1158 72.3399 61.7254 72.8538 65.4189 73.2885C68.4614 73.557 71.5993 73.7381 74.8324 73.832C77.5327 73.9061 80.2742 73.9852 83.018 74C84.5197 73.9837 86.0209 73.9285 87.5201 73.8345C88.7823 73.737 90.0463 73.6678 91.3111 73.627C93.4673 73.6097 95.6349 73.6492 97.7956 73.7406C100.103 73.8641 102.43 73.9316 104.776 73.9432C107.127 73.9534 109.479 73.9081 111.828 73.8073C116.117 73.5998 120.549 73.669 124.929 73.6616C128.296 73.6892 131.661 73.5334 135.013 73.1947C136.779 72.9624 138.555 72.8379 140.334 72.8216C145.204 72.8809 218.68 73.0094 223.539 73.2021C227.072 73.3404 230.593 73.6072 234.105 73.8641C237.755 74.0443 241.412 73.9519 245.05 73.5875C246.37 73.4639 247.71 73.3651 249.063 73.296C252.34 73.1626 255.639 73.0835 258.916 72.9649C260.13 72.9007 261.342 72.8019 262.551 72.6685C264.938 72.4363 267.307 72.1794 269.697 71.9521C270.086 71.9332 270.476 71.9514 270.863 72.0064C274.741 72.4437 278.568 72.96 282.49 73.3058C285.748 73.5652 289.061 73.7431 292.413 73.8246C294.472 73.8571 296.531 73.8291 298.589 73.7406C301.691 73.6253 304.8 73.4755 307.915 73.291C308.784 73.1749 341.641 73.039 342.464 72.8834C344.856 72.6166 373.926 72.3449 376.35 72.1324C379.791 71.831 383.278 71.6112 386.731 71.3271C389.167 71.3617 391.579 70.7975 393.785 69.6769C394.136 69.5483 394.506 69.4872 394.878 69.4966C395.086 69.5165 395.281 69.6174 395.426 69.7807C395.559 70.0853 395.666 70.4019 395.746 70.7268C396.125 70.845 396.522 70.8797 396.913 70.8288C397.304 70.7779 397.682 70.6424 398.024 70.4304C398.445 70.1904 398.803 69.8385 399.064 69.4076C399.213 68.9679 399.361 67.4462 399.457 67.0015C398.887 65.0752 398.709 63.0383 398.936 61.0307L394.192 61.0554C395.774 61.0431 397.347 58.5604 398.936 60.3168C402.069 58.5702 398.888 53.8568 402 52.1474C400.466 50.5173 399.205 48.6136 398.271 46.5199C397.373 44.4546 396.777 42.2511 396.506 39.9883C396.218 37.5935 396.156 35.1733 396.323 32.7651C396.488 30.2713 396.794 27.7906 397.237 25.3367C397.667 22.8862 398.198 20.4949 398.753 18.2271C399.309 15.9593 399.894 13.8151 400.431 11.8289C400.593 11.6489 400.723 11.4388 400.816 11.2089H400.818Z" fill="#134A36"/>
    <path d="M384.621 56.027C384.303 56.0777 383.98 55.9974 383.715 55.8022C383.365 55.402 384.058 54.9475 384.63 54.782C388.31 53.7133 392.074 53.0104 395.873 52.6822L397.654 52.5339C398.126 49.3922 397.787 46.1706 396.675 43.2232C393.236 30.9209 395.221 18.1097 397.219 5.60486C386.548 5.37265 317.183 5.14537 306.505 5.03174C302.616 5.98035 298.301 6.41019 295.319 8.57174C294.735 9.0804 294.085 9.49479 293.39 9.80197C292.475 10.0437 291.527 10.0923 290.595 9.94525L286.089 9.54752C273.646 21.2174 257.592 30.3527 241.825 39.241C239.24 40.8814 236.426 42.0577 233.493 42.7242C230.025 43.1238 226.52 42.9069 223.116 42.0819C189.933 35.9975 88.2819 29.4585 55.3792 22.4649C47.4154 20.7728 12.7224 19.0485 4.63734 17.7713C4.71966 18.9274 4.81111 20.0811 4.882 21.2347C7.7767 21.1441 10.6729 21.1211 13.5707 21.1655C13.3422 22.1367 12.9317 23.0469 12.3645 23.8398C11.7974 24.6326 11.0857 25.2914 10.2736 25.7752C8.85782 26.4795 7.49679 27.3056 6.20359 28.2455C5.86976 28.5593 5.58624 28.9125 5.25927 29.2312C5.67269 41.2462 5.38784 53.2773 4.40641 65.2537C4.22576 66.03 4.23489 66.8436 4.4329 67.6149C4.63091 68.3862 5.01101 69.0886 5.53593 69.6534C6.62231 70.3993 7.86093 70.8471 9.14402 70.9578C15.1161 71.8859 21.1472 72.2981 27.1799 72.1905C28.9862 70.3921 57.4759 68.6011 59.328 66.8348C59.5751 66.5601 59.8864 66.3629 60.2289 66.2641C60.5808 66.2321 60.9342 66.3011 61.2535 66.4642C61.5727 66.6273 61.8463 66.8788 62.0466 67.193C63.3019 68.816 64.3926 70.8985 66.7248 71.2764C67.3193 71.3728 68.1219 71.4988 68.3185 71.8792C83.3934 71.5037 98.4819 71.5111 113.564 71.5333C131.92 71.5556 218.868 71.5803 237.224 71.6025L248.005 71.6173C247.415 70.6704 246.728 69.7986 245.956 69.0185C244.936 67.9835 243.667 66.8866 243.8 65.5724L249.763 68.1292C250.89 68.6432 252.048 69.0765 253.227 69.4261C254.078 69.6608 254.965 69.814 255.788 70.103C256.753 70.4515 257.659 70.9671 258.47 71.6297L262.707 71.6346C288.247 71.6692 372.486 71.7013 397.999 72.6401C399.157 67.5472 399.468 62.2726 398.918 57.0621L394.837 56.2222C394.862 56.2073 394.883 56.1901 394.905 56.1728C391.479 56.0204 388.05 55.9718 384.621 56.027Z" fill="#1E8B63"/>
    <path d="M384.621 56.027C384.303 56.0777 383.98 55.9974 383.715 55.8022C383.365 55.402 384.058 54.9475 384.63 54.782C388.31 53.7133 392.074 53.0104 395.873 52.6822L397.654 52.5339C398.126 49.3922 397.787 46.1706 396.675 43.2232C393.236 30.9209 395.221 18.1097 397.219 5.60486C386.548 5.37265 317.183 5.14537 306.505 5.03174C302.616 5.98035 298.301 6.41019 295.319 8.57174C294.734 9.0804 294.085 9.49479 293.39 9.80197C292.475 10.0437 291.527 10.0923 290.595 9.94525L286.089 9.54752C273.646 21.2174 257.592 30.3527 241.825 39.241C239.24 40.8814 236.426 42.0577 233.493 42.7242C230.025 43.1238 226.519 42.9069 223.116 42.0819C189.933 35.9975 88.2819 29.4585 55.3792 22.4649C47.4154 20.7728 12.7224 19.0485 4.63734 17.7713C4.71966 18.9274 4.81111 20.0811 4.882 21.2347C7.7767 21.1441 10.6729 21.1211 13.5707 21.1655C13.3422 22.1367 12.9317 23.0469 12.3645 23.8398C11.7974 24.6326 11.0857 25.2914 10.2736 25.7752C8.85782 26.4795 7.49679 27.3056 6.20359 28.2455C5.86976 28.5593 5.58624 28.9125 5.25927 29.2312C5.67269 41.2462 5.38784 53.2773 4.40641 65.2537C4.22576 66.03 4.23489 66.8436 4.4329 67.6149C4.63091 68.3862 5.01101 69.0886 5.53593 69.6534C6.62231 70.3993 7.86093 70.847 9.14402 70.9578C15.1161 71.8859 21.1472 72.2981 27.1799 72.1905C28.9862 70.392 57.4759 68.601 59.328 66.8348C59.5751 66.5601 59.8864 66.3629 60.2289 66.2641C60.5808 66.2321 60.9342 66.3011 61.2535 66.4642C61.5727 66.6273 61.8463 66.8787 62.0466 67.193C63.3019 68.816 64.3926 70.8985 66.7248 71.2764C67.3193 71.3728 68.1219 71.4988 68.3185 71.8792C83.3933 71.5037 98.4819 71.5111 113.564 71.5333C131.92 71.5556 218.868 71.5803 237.224 71.6025L248.005 71.6173C247.415 70.6704 246.728 69.7986 245.956 69.0185C244.936 67.9835 243.667 66.8866 243.8 65.5724L249.763 68.1292C250.89 68.6432 252.048 69.0765 253.227 69.4261C254.078 69.6608 254.965 69.814 255.788 70.103C256.753 70.4515 257.659 70.9671 258.47 71.6297L262.707 71.6346C288.247 71.6692 372.486 71.7013 397.999 72.6401C399.157 67.5472 399.468 62.2726 398.918 57.0621L394.837 56.2222C394.862 56.2073 394.883 56.1901 394.905 56.1728C391.479 56.0204 388.05 55.9718 384.621 56.027Z" fill="#1E8B63"/>
    <path d="M10.2763 25.7775C11.0885 25.2936 11.8002 24.6349 12.3673 23.842C12.9344 23.0491 13.3449 22.139 13.5734 21.1678C10.6772 21.1217 7.78099 21.1448 4.88477 21.237C5.04482 23.9 6.11719 25.5823 6.20865 28.2478C5.87253 28.5615 6.53333 27.9267 6.20865 28.2478C7.50111 27.308 8.86138 26.4819 10.2763 25.7775ZM66.7276 71.2787C64.3954 70.9007 63.3047 68.8182 62.0494 67.1952C61.8491 66.881 61.5755 66.6296 61.2562 66.4665C60.937 66.3034 60.5835 66.2343 60.2316 66.2664C59.89 66.3656 59.5795 66.5627 59.3331 66.837C57.481 68.6033 56.635 69.4284 54.8287 71.2268C59.0015 71.2095 62.214 72.0346 66.3732 71.921C67.0225 71.9037 67.6719 71.8963 68.3213 71.8815C68.1246 71.501 67.3244 71.375 66.7276 71.2787ZM253.23 69.4284C252.05 69.0787 250.893 68.6455 249.766 68.1315L243.803 65.5747C243.67 66.8889 244.939 67.9857 245.959 69.0208C246.533 69.4898 247.032 70.0572 247.436 70.7006C250.925 70.7056 254.982 71.6295 258.473 71.632C257.661 70.9694 256.756 70.4538 255.791 70.1053C254.968 69.8162 254.081 69.6606 253.23 69.4284ZM397.656 52.5337C397.06 52.5881 396.463 52.6326 395.875 52.6844C392.076 53.0126 388.312 53.7154 384.63 54.7842C384.059 54.9497 383.368 55.4043 383.716 55.8045C383.981 56.0003 384.305 56.0806 384.623 56.0293C388.053 55.97 391.483 56.0293 394.91 56.1775C395.568 55.7958 396.148 55.2773 396.619 54.6519C397.09 54.0265 397.444 53.3066 397.656 52.5337ZM290.676 4.96731C289.197 6.55167 287.668 8.08009 286.092 9.54979L290.596 9.94505C291.528 10.0932 292.477 10.0454 293.392 9.80424C294.087 9.49706 294.737 9.08267 295.322 8.57401C298.304 6.41246 302.618 5.98262 306.508 5.03401C301.229 4.97801 295.952 4.95578 290.676 4.96731Z" fill="#005C37"/>
    <path d="M223.117 42.0797C226.522 42.9059 230.028 43.1238 233.498 42.7244C236.431 42.0577 239.244 40.8813 241.828 39.2412C257.595 30.3529 273.649 21.2176 286.092 9.54772L281.718 9.16235C274.968 8.56947 268.214 7.97165 261.498 7.16137C258.626 6.80933 255.757 6.42229 252.892 6.00031C247.857 6.38908 242.806 6.4798 237.762 6.27205C232.481 5.94597 227.29 4.93807 222.006 4.64657C215.22 4.2686 139.836 5.06899 133.055 5.48154C131.565 5.57212 130.075 5.64458 128.585 5.69893L128.555 5.72858C127.562 6.89952 128.162 8.66828 126.993 9.73053C126.359 10.1509 125.631 10.3779 124.887 10.3875C124.143 10.3971 123.411 10.1888 122.768 9.78488C121.672 9.03339 120.781 7.98152 120.184 6.73648L119.681 5.8595C114.728 5.86691 109.769 5.75822 104.81 5.62235C104.618 5.74252 104.426 5.85947 104.231 5.97314L98.6932 9.22411C99.1309 7.86786 99.7908 6.6077 100.641 5.50377C87.1871 4.79498 73.7039 5.07395 60.2847 6.33875C53.3063 7.16631 19.329 8.50277 12.6913 6.59072C9.72113 5.73599 5.87753 4.42424 3.89514 6.3931L3.7168 7.11197C4.09407 10.6618 4.38674 14.2167 4.64054 17.7715C12.7256 19.0487 47.4186 20.773 55.3824 22.4651C88.2851 29.4562 189.933 35.9977 223.117 42.0797Z" fill="#2A9F75"/>
    <path d="M120.129 7.0908C120.148 7.0908 120.166 6.92776 120.184 6.95987C120.785 8.17296 121.678 9.18852 122.768 9.89958C123.398 10.3266 124.123 10.5623 124.866 10.5819C125.61 10.6015 126.345 10.4042 126.993 10.0107C127.885 9.198 127.752 7.08833 128.079 7.08833L120.129 7.0908ZM100.694 5.50978L100.641 5.50484C99.7909 6.60877 99.1311 7.86893 98.6934 9.22518L103.342 6.49545C102.416 6.32063 101.522 5.98951 100.694 5.50978ZM254.038 5.93468L252.892 5.99891C255.755 6.41887 258.622 6.81412 261.499 7.16244C268.214 7.97271 274.966 8.57054 281.718 9.16342L286.092 9.54879C287.669 8.07909 289.198 6.55067 290.677 4.96631C278.451 5.00089 266.234 5.26522 254.038 5.93468Z" fill="#005C37"/>
</svg>
