<svg width="256" height="104" viewBox="0 0 256 104" fill="none" xmlns="http://www.w3.org/2000/svg">
<path d="M242.071 51.3203C242.037 51.1952 248.324 50.7327 249.038 50.6528C250.113 50.538 252.085 50.465 252.987 50.1104C253.992 49.7036 253.705 49.1403 253.692 48.4902C253.644 45.4931 252.059 42.496 251.315 39.5233C251.119 38.7479 249.573 36.9956 250.143 36.4462C250.522 36.0673 251.916 35.8899 252.416 35.4518C253.069 34.8782 253.039 34.082 253.113 33.4213C253.256 32.0862 253.222 30.8485 253.592 29.5133C254.027 28.0009 253.2 27.9626 250.64 27.4272C252.634 26.3563 254.737 25.421 255.207 23.8147C255.46 22.949 254.941 22.0763 255.024 21.2001C255.098 20.383 255.277 19.5764 255.277 18.7489C255.28 16.6974 255.122 14.6478 254.802 12.6122C254.515 10.7868 254.04 8.99277 254.645 7.17784C254.926 6.26874 255.013 5.32844 254.902 4.39633C254.854 3.52364 255.416 2.83174 255.773 1.99728C256.539 0.158014 255.338 0.439642 252.59 0.606532C250.532 0.703855 248.468 0.710819 246.408 0.627393C244.954 0.592624 242.772 0.25189 241.375 0.41878C238.889 0.717792 238.288 3.29764 236.812 4.27464C236.028 3.57927 235.645 2.68223 234.74 2.03205C233.542 1.16979 232.036 1.25671 230.198 1.26366C225.409 1.288 220.716 1.71218 215.944 1.77824C206.801 1.90689 197.727 2.16418 188.567 2.04944C179.641 1.93818 170.503 2.14331 161.625 1.62874C159.448 1.50357 157.158 1.44098 155.034 1.15936C153.205 0.919451 152.238 0.321428 151.507 1.41665C150.967 2.22676 150.963 3.30807 149.643 3.87828C148.773 4.2503 146.091 4.92134 145.242 4.36504C144.393 3.80874 144.972 1.86169 143.3 1.51748C142.603 1.37492 141.101 1.76433 140.335 1.80953C139.029 1.8895 137.644 1.85821 136.316 1.83387C133.782 1.78867 132.289 1.39231 131.44 2.78306C130.817 3.80179 130.426 4.94916 129.032 5.73841C128.382 4.7927 127.759 3.84003 127.164 2.88041C126.52 1.83735 126.459 1.7539 124.374 1.72609C120.333 1.67393 116.08 1.59397 112.087 1.91732C103.14 2.64399 94.5454 2.04248 85.6069 1.75043C81.6884 1.62178 77.77 1.44794 73.8515 1.36102C69.6587 1.26366 65.0698 0.856868 61.1121 1.59049C59.4794 1.841 57.8238 1.98519 56.1618 2.02162C55.1998 2.09691 54.2324 2.12015 53.2665 2.09116C52.6526 2.05292 51.6294 1.74347 51.0504 1.7991C49.5396 1.96252 48.3902 3.61404 46.9752 3.61404C45.7038 3.61404 44.0407 2.08073 43.0872 1.62874C40.3921 0.349243 34.8279 0.735177 31.4537 0.634347C27.0127 0.505702 22.5587 0.425734 18.1178 0.286659C14.3343 0.171922 10.7075 0.279705 6.93275 0.220598C5.5308 0.199737 2.17398 -0.200105 0.937486 0.130199C-0.438333 0.509179 0.110253 1.94165 0.0971917 2.82826C0.0623609 5.02913 0.785101 7.22652 0.907009 9.43434C1.05069 11.9864 0.584824 14.5523 0.393254 17.1043C0.0492993 21.7842 0.867824 26.5545 1.05939 31.2518C1.11164 32.42 0.867824 33.3136 2.1435 34.2454C3.34952 35.1285 3.11441 35.9212 3.14489 37.0269C3.17101 37.9656 3.16666 38.9113 3.26244 39.8501C3.30163 40.2534 3.63688 40.8932 3.47578 41.2721C3.14489 42.0475 3.18408 41.592 2.13915 41.9084C1.59056 42.0753 1.49913 41.7902 1.07681 42.117C0.728501 42.3848 1.02021 43.2853 1.02456 43.5947C0.99942 44.5768 1.05031 45.5591 1.17695 46.5361C1.33369 47.4853 1.20307 48.2989 2.56147 48.9004C4.12886 49.5958 6.59314 50.0826 8.36081 50.6806C9.91514 51.2056 10.7206 51.376 8.7483 51.828C7.00371 52.1569 5.22631 52.3628 3.4366 52.4434C1.69506 52.5755 1.58621 52.4434 1.12035 53.2604C0.471623 54.3904 1.02892 56.0906 0.959255 57.2832C0.698024 61.7197 0.837347 66.1527 0.166853 70.5823C0.0495139 71.7085 0.0146236 72.8393 0.0623609 73.9688C0.0623609 75.4117 0.08413 75.5229 2.53535 76.1348C3.40612 76.3539 5.8051 76.7989 5.88347 77.4804C5.94877 78.0576 3.04475 78.7216 2.40038 79.2814C0.867824 80.5853 1.4077 82.7514 1.20742 84.2742C0.867824 86.8436 1.20742 89.4305 0.911363 92.0103C0.671901 94.0964 0.2757 96.1826 0.262638 98.2687C0.262638 99.4195 0.123315 100.567 0.0536532 101.714C-0.0203624 103.042 0.689316 102.848 2.97509 102.83C7.26364 102.799 11.452 102.278 15.7319 102.135C20.3992 101.984 25.0709 101.863 29.747 101.77C32.2577 101.719 34.7669 101.695 37.2748 101.697C38.9162 101.697 41.0321 101.992 42.6039 101.888C44.5022 101.763 45.6777 100.445 47.502 100.087C49.6789 99.6594 50.4713 100.4 51.882 101.196C53.5625 102.145 53.9892 102.49 56.3229 102.413C58.6565 102.337 60.9815 102.577 63.2891 102.663C68.1175 102.841 72.9807 102.73 77.8222 102.73C87.8666 102.73 97.85 103.143 107.886 103.112C112.684 103.098 117.48 103.098 122.275 103.112C123.05 103.112 124.887 103.286 125.58 103.112C126.816 102.806 126.681 102.437 126.925 101.721C127.13 101.113 127.308 98.8111 128.427 98.519C129.894 99.0475 129.677 100.772 130.822 101.467C131.967 102.163 132.563 101.972 134.357 101.641C136.408 101.262 136.416 100.734 138.41 101.37C139.337 101.705 140.293 101.987 141.271 102.211C142.368 102.431 144.031 102.278 144.976 102.559C146.805 103.119 145.977 103.512 148.307 103.512C150.527 103.512 152.695 103.884 154.92 103.96C159.548 104.117 164.063 103.769 168.674 103.634C172.636 103.515 176.607 103.428 180.556 103.195C184.958 102.935 189.285 103.119 193.678 102.997C195.903 102.935 196.778 102.65 198.468 101.954C199.996 101.346 201.659 101.172 203.509 101.047C205.732 100.881 207.969 100.895 210.188 101.088C211.264 101.182 212.335 101.318 213.432 101.328C214.272 101.328 215.735 101.047 216.453 101.328C217.803 101.832 217.159 102.761 218.935 103.067C220.803 103.39 223.232 102.956 225.139 102.959C229.833 102.959 234.23 104.065 239.002 103.901C243.09 103.762 246.956 103.599 251.058 103.804C252.799 103.891 254.436 104.291 254.976 103.289C255.581 102.208 254.476 100.463 254.397 99.3257C254.232 97.0205 255.333 94.8057 255.743 92.5318C256.178 90.018 255.864 87.4764 255.477 84.9626C254.767 80.255 254.341 75.5055 254.21 70.7422C254.166 69.414 254.105 68.0963 253.984 66.7716C253.91 65.9615 254.38 64.4769 253.235 63.8719C251.929 63.1765 248.846 63.6598 249.212 62.3455C249.477 61.3894 251.763 60.4193 252.899 59.7692C254.493 58.8547 254.149 57.996 254.031 56.7999C253.927 55.729 254.467 54.0184 253.805 53.0136C253.191 52.0818 250.352 52.1757 248.602 51.9983C246.417 51.7665 244.225 51.5475 242.028 51.3412C242.071 51.296 243.247 51.4351 242.071 51.3203Z" fill="url(#paint0_linear_1531_6381)" fill-opacity="0.2"/>
<defs>
<linearGradient id="paint0_linear_1531_6381" x1="128" y1="104" x2="128" y2="-90" gradientUnits="userSpaceOnUse">
<stop stop-color="#32D499"/>
<stop offset="1" stop-color="#32D499" stop-opacity="0.33"/>
</linearGradient>
</defs>
</svg>
