<svg width="256" height="78" viewBox="0 0 256 78" fill="none" xmlns="http://www.w3.org/2000/svg">
<path d="M242.071 38.4903C242.037 38.3964 248.324 38.0496 249.038 37.9896C250.113 37.9035 252.085 37.8488 252.987 37.5828C253.992 37.2777 253.705 36.8553 253.692 36.3676C253.644 34.1198 252.059 31.872 251.315 29.6425C251.119 29.0609 249.573 27.7467 250.143 27.3347C250.522 27.0504 251.916 26.9175 252.416 26.5889C253.069 26.1586 253.039 25.5615 253.113 25.066C253.256 24.0647 253.222 23.1363 253.592 22.135C254.027 21.0007 253.2 20.972 250.64 20.5704C252.634 19.7672 254.737 19.0658 255.207 17.861C255.46 17.2117 254.941 16.5572 255.024 15.9001C255.098 15.2873 255.277 14.6823 255.277 14.0617C255.28 12.523 255.122 10.9858 254.802 9.45916C254.515 8.09013 254.04 6.74458 254.645 5.38338C254.926 4.70156 255.013 3.99633 254.902 3.29725C254.854 2.64273 255.416 2.1238 255.773 1.49796C256.539 0.118511 255.338 0.329731 252.59 0.454899C250.532 0.527891 248.468 0.533114 246.408 0.470545C244.954 0.444468 242.772 0.188918 241.375 0.314085C238.889 0.538344 238.288 2.47323 236.812 3.20598C236.028 2.68445 235.645 2.01167 234.74 1.52404C233.542 0.87734 232.036 0.942532 230.198 0.947747C225.409 0.966001 220.716 1.28414 215.944 1.33368C206.801 1.43016 197.727 1.62313 188.567 1.53708C179.641 1.45363 170.503 1.60749 161.625 1.22155C159.448 1.12768 157.158 1.08074 155.034 0.869517C153.205 0.689589 152.238 0.241071 151.507 1.06248C150.967 1.67007 150.963 2.48105 149.643 2.90871C148.773 3.18773 146.091 3.69101 145.242 3.27378C144.393 2.85656 144.972 1.39626 143.3 1.13811C142.603 1.03119 141.101 1.32325 140.335 1.35715C139.029 1.41713 137.644 1.39366 136.316 1.3754C133.782 1.3415 132.289 1.04423 131.44 2.0873C130.817 2.85134 130.426 3.71187 129.032 4.30381C128.382 3.59452 127.759 2.88002 127.164 2.16031C126.52 1.37801 126.459 1.31543 124.374 1.29457C120.333 1.25545 116.08 1.19547 112.087 1.43799C103.14 1.98299 94.5454 1.53186 85.6069 1.31282C81.6884 1.21634 77.77 1.08595 73.8515 1.02076C69.6587 0.947747 65.0698 0.642651 61.1121 1.19287C59.4794 1.38075 57.8238 1.48889 56.1618 1.51622C55.1998 1.57268 54.2324 1.59011 53.2665 1.56837C52.6526 1.53969 51.6294 1.3076 51.0504 1.34933C49.5396 1.47189 48.3902 2.71053 46.9752 2.71053C45.7038 2.71053 44.0407 1.56055 43.0872 1.22155C40.3921 0.261932 34.8279 0.551383 31.4537 0.47576C27.0127 0.379277 22.5587 0.319301 18.1178 0.214994C14.3343 0.128941 10.7075 0.209779 6.93275 0.165449C5.5308 0.149803 2.17398 -0.150079 0.937486 0.0976494C-0.438333 0.381885 0.110253 1.45624 0.0971917 2.12119C0.0623609 3.77184 0.785101 5.41989 0.907009 7.07575C1.05069 8.98978 0.584824 10.9142 0.393254 12.8283C0.0492993 16.3382 0.867824 19.9159 1.05939 23.4388C1.11164 24.315 0.867824 24.9852 2.1435 25.684C3.34952 26.3464 3.11441 26.9409 3.14489 27.7702C3.17101 28.4742 3.16666 29.1835 3.26244 29.8876C3.30163 30.1901 3.63688 30.6699 3.47578 30.9541C3.14489 31.5356 3.18408 31.194 2.13915 31.4313C1.59056 31.5565 1.49913 31.3427 1.07681 31.5878C0.728501 31.7886 1.02021 32.4639 1.02456 32.696C0.99942 33.4326 1.05031 34.1693 1.17695 34.9021C1.33369 35.614 1.20307 36.2242 2.56147 36.6753C4.12886 37.1969 6.59314 37.5619 8.36081 38.0104C9.91514 38.4042 10.7206 38.532 8.7483 38.871C7.0037 39.1176 5.22631 39.2721 3.4366 39.3325C1.69506 39.4316 1.58621 39.3325 1.12035 39.9453C0.471623 40.7928 1.02892 42.068 0.959255 42.9624C0.698024 46.2898 0.837347 49.6145 0.166853 52.9367C0.0495139 53.7814 0.0146236 54.6294 0.0623609 55.4766C0.0623609 56.5587 0.08413 56.6422 2.53535 57.1011C3.40612 57.2654 5.8051 57.5992 5.88347 58.1103C5.94877 58.5432 3.04475 59.0412 2.40038 59.4611C0.867824 60.4389 1.4077 62.0635 1.20742 63.2057C0.867824 65.1327 1.20742 67.0728 0.911363 69.0077C0.671901 70.5723 0.2757 72.1369 0.262638 73.7015C0.262638 74.5647 0.123315 75.4252 0.0536532 76.2857C-0.0203624 77.2818 0.689316 77.1358 2.97509 77.1228C7.26364 77.0993 11.452 76.7081 15.7319 76.6012C20.3992 76.4882 25.0709 76.397 29.747 76.3274C32.2577 76.2892 34.7669 76.2709 37.2748 76.2727C38.9162 76.2727 41.0321 76.4943 42.6039 76.4161C44.5022 76.3222 45.6777 75.3339 47.502 75.0653C49.6789 74.7446 50.4713 75.3 51.882 75.8972C53.5625 76.6091 53.9892 76.8672 56.3229 76.8098C58.6565 76.7525 60.9815 76.9324 63.2891 76.9976C68.1175 77.1306 72.9807 77.0471 77.8222 77.0471C87.8666 77.0471 97.85 77.3575 107.886 77.334C112.684 77.3236 117.48 77.3236 122.275 77.334C123.05 77.334 124.887 77.4644 125.58 77.334C126.816 77.1045 126.681 76.8281 126.925 76.2909C127.13 75.8346 127.308 74.1083 128.427 73.8893C129.894 74.2856 129.677 75.579 130.822 76.1006C131.967 76.6221 132.563 76.4787 134.357 76.2309C136.408 75.9467 136.416 75.5503 138.41 76.0275C139.337 76.2791 140.293 76.49 141.271 76.6586C142.368 76.8229 144.031 76.7081 144.976 76.9194C146.805 77.3392 145.977 77.6339 148.307 77.6339C150.527 77.6339 152.695 77.9129 154.92 77.9703C159.548 78.0876 164.063 77.8268 168.674 77.7251C172.636 77.6365 176.607 77.5713 180.556 77.3966C184.958 77.201 189.285 77.3392 193.678 77.2479C195.903 77.201 196.778 76.9872 198.468 76.4656C199.996 76.0093 201.659 75.8789 203.509 75.785C205.732 75.6611 207.969 75.6716 210.188 75.8163C211.264 75.8867 212.335 75.9884 213.432 75.9963C214.272 75.9963 215.735 75.785 216.453 75.9963C217.803 76.3744 217.159 77.0706 218.935 77.3001C220.803 77.5426 223.232 77.2166 225.139 77.2192C229.833 77.2192 234.23 78.0485 239.002 77.9259C243.09 77.8216 246.956 77.6991 251.058 77.8529C252.799 77.9181 254.436 78.218 254.976 77.467C255.581 76.656 254.476 75.347 254.397 74.4942C254.232 72.7654 255.333 71.1043 255.743 69.3989C256.178 67.5135 255.864 65.6073 255.477 63.722C254.767 60.1912 254.341 56.6292 254.21 53.0567C254.166 52.0605 254.105 51.0722 253.984 50.0787C253.91 49.4711 254.38 48.3576 253.235 47.9039C251.929 47.3824 248.846 47.7448 249.212 46.7591C249.477 46.042 251.763 45.3145 252.899 44.8269C254.493 44.1411 254.149 43.497 254.031 42.5999C253.927 41.7968 254.467 40.5138 253.805 39.7602C253.191 39.0613 250.352 39.1317 248.602 38.9987C246.417 38.8249 244.225 38.6606 242.028 38.5059C242.071 38.472 243.247 38.5763 242.071 38.4903Z" fill="url(#paint0_linear_3023_2014)" fill-opacity="0.2"/>
<defs>
<linearGradient id="paint0_linear_3023_2014" x1="128" y1="78" x2="128" y2="-67.5" gradientUnits="userSpaceOnUse">
<stop stop-color="#32D499"/>
<stop offset="1" stop-color="#32D499" stop-opacity="0.33"/>
</linearGradient>
</defs>
</svg>
