<svg xmlns="http://www.w3.org/2000/svg" width="928" height="431" viewBox="0 0 928 431" fill="none">
    <path d="M877.509 212.683C877.383 212.165 900.173 210.248 902.761 209.917C906.66 209.441 913.809 209.139 917.076 207.669C920.722 205.983 919.68 203.649 919.633 200.954C919.459 188.534 913.715 176.113 911.016 163.794C910.305 160.58 904.703 153.318 906.77 151.042C908.143 149.471 913.194 148.736 915.009 146.921C917.376 144.543 917.266 141.243 917.534 138.506C918.055 132.973 917.929 127.843 919.27 122.31C920.848 116.042 917.85 115.884 908.569 113.665C915.798 109.227 923.421 105.351 925.125 98.6937C926.041 95.1059 924.163 91.4892 924.463 87.8581C924.731 84.472 925.378 81.1291 925.378 77.6998C925.392 69.1979 924.817 60.7037 923.658 52.2679C922.616 44.7032 920.896 37.2681 923.089 29.7466C924.106 25.9791 924.421 22.0823 924.021 18.2194C923.847 14.6028 925.883 11.7354 927.177 8.27721C929.955 0.654847 925.599 1.82198 915.64 2.51361C908.177 2.91694 900.695 2.9458 893.229 2.60006C887.957 2.45597 880.05 1.04389 874.984 1.73552C865.972 2.9747 863.794 13.6662 858.443 17.7151C855.602 14.8333 854.214 11.1158 850.931 8.4213C846.591 4.84787 841.13 5.20809 834.469 5.23691C817.108 5.33777 800.095 7.09567 782.797 7.36944C749.653 7.90258 716.762 8.96884 683.555 8.49334C651.2 8.03226 618.073 8.88239 585.892 6.74985C578 6.23113 569.698 5.97177 561.996 4.80464C555.368 3.81042 551.864 1.33207 549.212 5.87091C547.255 9.2282 547.24 13.7094 542.457 16.0725C539.301 17.6142 529.579 20.3952 526.501 18.0897C523.423 15.7843 525.523 7.71526 519.462 6.28877C516.937 5.698 511.492 7.31181 508.714 7.49912C503.979 7.83053 498.96 7.70085 494.146 7.59999C484.961 7.41267 479.547 5.77004 476.47 11.5336C474.213 15.7555 472.792 20.5105 467.742 23.7813C465.385 19.862 463.128 15.914 460.971 11.9371C458.635 7.6144 458.414 7.26858 450.854 7.15331C436.208 6.93717 420.788 6.60576 406.316 7.9458C373.882 10.9573 342.727 8.46453 310.325 7.25417C296.121 6.72104 281.916 6.00059 267.712 5.64036C252.513 5.23691 235.878 3.55106 221.531 6.59136C215.613 7.62953 209.611 8.22707 203.586 8.37807C200.099 8.69009 196.593 8.78637 193.091 8.66625C190.866 8.50775 187.157 7.22535 185.058 7.4559C179.581 8.13312 175.414 14.9774 170.285 14.9774C165.676 14.9774 159.647 8.62302 156.191 6.74985C146.421 1.44734 126.251 3.04674 114.02 2.62888C97.9211 2.09575 81.7754 1.76434 65.677 1.18798C51.9618 0.712483 38.8148 1.15916 25.1312 0.914209C20.0492 0.827755 7.88068 -0.82928 3.39839 0.539575C-1.58896 2.11016 0.399668 8.04667 0.35232 11.721C0.226058 20.8419 2.84599 29.9483 3.28791 39.0981C3.80874 49.6743 2.11999 60.3081 1.42555 70.8843C0.17871 90.2788 3.14586 110.048 3.8403 129.515C4.0297 134.356 3.14586 138.059 7.7702 141.921C12.142 145.581 11.2897 148.866 11.4002 153.448C11.4949 157.338 11.4791 161.258 11.8264 165.148C11.9684 166.819 13.1837 169.471 12.5997 171.041C11.4002 174.254 11.5423 172.367 7.75442 173.678C5.7658 174.37 5.43436 173.188 3.90343 174.543C2.64082 175.652 3.69826 179.384 3.71404 180.667C3.6229 184.736 3.80738 188.807 4.26644 192.857C4.83461 196.79 4.36113 200.162 9.28534 202.655C14.9671 205.536 23.9001 207.554 30.3079 210.032C35.9424 212.208 38.8622 212.914 31.7126 214.787C25.3884 216.15 18.9454 217.003 12.4577 217.337C6.14458 217.885 5.75001 217.337 4.06126 220.724C1.70963 225.406 3.72982 232.452 3.4773 237.395C2.53034 255.781 3.03538 274.152 0.604844 292.509C0.179488 297.177 0.0530108 301.863 0.226058 306.544C0.226058 312.523 0.304972 312.984 9.19065 315.52C12.3472 316.428 21.0435 318.272 21.3276 321.097C21.5643 323.489 11.0372 326.241 8.70138 328.56C3.14586 333.964 5.10292 342.941 4.37692 349.252C3.14586 359.9 4.37692 370.62 3.30369 381.312C2.43564 389.957 0.999412 398.603 0.952064 407.248C0.952064 412.017 0.447016 416.772 0.194493 421.527C-0.0738136 427.032 2.49877 426.225 10.7847 426.153C26.3307 426.023 41.5137 423.862 57.0281 423.271C73.9472 422.646 90.882 422.142 107.833 421.758C116.934 421.547 126.03 421.446 135.121 421.455C141.071 421.455 148.742 422.68 154.439 422.248C161.32 421.729 165.582 416.268 172.195 414.784C180.086 413.012 182.958 416.081 188.072 419.38C194.164 423.314 195.711 424.741 204.17 424.424C212.63 424.107 221.058 425.101 229.423 425.461C246.926 426.196 264.555 425.735 282.106 425.735C318.516 425.735 354.706 427.449 391.085 427.32C408.478 427.262 425.865 427.262 443.247 427.32C446.057 427.32 452.717 428.04 455.226 427.32C459.709 426.052 459.219 424.524 460.103 421.556C460.845 419.035 461.492 409.496 465.548 408.286C470.867 410.476 470.078 417.623 474.229 420.504C478.38 423.386 480.542 422.594 487.044 421.225C494.478 419.654 494.509 417.464 501.738 420.101C505.097 421.491 508.563 422.656 512.107 423.588C516.084 424.496 522.113 423.862 525.538 425.029C532.167 427.349 529.168 428.977 537.612 428.977C545.661 428.977 553.521 430.519 561.586 430.836C578.363 431.484 594.73 430.043 611.444 429.481C625.806 428.991 640.2 428.631 654.515 427.666C670.471 426.585 686.159 427.349 702.084 426.844C710.149 426.585 713.321 425.403 719.445 422.522C724.985 420 731.014 419.28 737.721 418.761C745.777 418.076 753.889 418.134 761.932 418.934C765.83 419.323 769.713 419.885 773.69 419.928C776.736 419.928 782.039 418.761 784.643 419.928C789.536 422.017 787.2 425.865 793.64 427.132C800.41 428.473 809.217 426.671 816.13 426.686C833.144 426.686 849.084 431.268 866.382 430.591C881.202 430.014 895.217 429.337 910.084 430.187C916.398 430.547 922.332 432.204 924.289 428.055C926.483 423.573 922.474 416.34 922.19 411.628C921.59 402.075 925.583 392.897 927.067 383.473C928.645 373.056 927.509 362.523 926.104 352.105C923.531 332.595 921.985 312.912 921.511 293.172C921.353 287.668 921.132 282.207 920.69 276.717C920.422 273.36 922.127 267.207 917.976 264.7C913.241 261.818 902.067 263.821 903.393 258.374C904.355 254.412 912.641 250.392 916.761 247.697C922.537 243.908 921.29 240.349 920.864 235.392C920.485 230.954 922.442 223.865 920.043 219.7C917.818 215.839 907.528 216.228 901.183 215.493C893.26 214.532 885.316 213.625 877.351 212.77C877.509 212.582 881.77 213.159 877.509 212.683Z" fill="#222631"/>
</svg>