<svg xmlns="http://www.w3.org/2000/svg" width="100" height="5" viewBox="0 0 100 5" fill="none">
    <path d="M22.5912 0.656905C25.8747 0.732756 41.9425 1.75843 43.6679 1.61309C48.0943 1.2395 53.9261 1.55956 60.4105 2.14601C66.4098 2.68854 71.5474 2.84507 75.7392 2.5716C79.7963 2.307 85.0072 2.47201 90.4169 2.7163C92.0132 2.78847 93.5948 2.85894 95.205 2.94004C98.2775 3.09495 100.502 3.64841 99.8387 4.11249C99.2564 4.52226 97.6849 4.74905 95.3802 4.76375C92.2281 4.78316 88.8758 4.73534 85.496 4.66724C75.3718 4.4622 65.1907 4.23589 55.0239 4.01368L31.9031 4.02977C26.6331 3.99007 21.4909 4.00185 16.4206 4.03419C12.9708 4.05829 9.66556 3.73208 6.25266 2.92359C4.63292 2.54039 2.95454 2.1504 1.55919 1.75402C-0.195429 1.25244 -0.31591 0.881237 1.30442 0.745745C2.72968 0.626829 4.40223 0.553663 6.24346 0.563634C10.4748 0.590818 14.8771 0.681824 19.2226 0.749141C19.4896 0.75312 19.8429 0.781768 20.067 0.770999C20.9325 0.739015 21.7548 0.694697 22.5912 0.656905Z" fill="#32D499" fill-opacity="0.5"/>
</svg>