<svg xmlns="http://www.w3.org/2000/svg" width="442" height="548" viewBox="0 0 442 548" fill="none">
    <path d="M417.951 270.419C417.891 269.759 428.746 267.323 429.979 266.901C431.836 266.297 435.241 265.912 436.797 264.043C438.534 261.9 438.037 258.932 438.015 255.506C437.932 239.714 435.196 223.921 433.91 208.257C433.572 204.172 430.904 194.938 431.888 192.044C432.542 190.047 434.948 189.112 435.812 186.804C436.94 183.781 436.887 179.586 437.015 176.105C437.263 169.07 437.203 162.548 437.842 155.513C438.594 147.543 437.165 147.342 432.745 144.52C436.188 138.878 439.819 133.949 440.631 125.485C441.067 120.923 440.172 116.325 440.315 111.708C440.443 107.403 440.751 103.153 440.751 98.7923C440.758 87.9824 440.484 77.1824 439.932 66.4566C439.436 56.8384 438.616 47.385 439.661 37.8217C440.145 33.0315 440.295 28.0768 440.105 23.1653C440.022 18.5669 440.992 14.9211 441.608 10.5242C442.931 0.832613 440.856 2.31657 436.113 3.19596C432.558 3.70877 428.995 3.74547 425.439 3.30588C422.928 3.12267 419.162 1.32727 416.749 2.20665C412.456 3.78221 411.419 17.376 408.871 22.5241C407.518 18.86 406.856 14.1333 405.292 10.7074C403.225 6.16388 400.624 6.62189 397.452 6.65853C389.183 6.78677 381.08 9.02187 372.841 9.36996C357.055 10.0478 341.389 11.4035 325.573 10.799C310.162 10.2127 294.384 11.2936 279.056 8.58218C275.297 7.92264 271.343 7.59288 267.675 6.10892C264.518 4.8448 262.849 1.69368 261.586 7.46463C260.654 11.7333 260.646 17.431 258.369 20.4355C256.865 22.3958 252.235 25.9317 250.769 23.0004C249.303 20.0691 250.303 9.80965 247.416 7.99593C246.213 7.24479 243.62 9.29668 242.297 9.53485C240.042 9.95622 237.651 9.79133 235.359 9.66309C230.984 9.42492 228.405 7.33639 226.939 14.6646C225.864 20.0325 225.188 26.0783 222.782 30.237C221.66 25.2538 220.585 20.234 219.557 15.1776C218.445 9.68141 218.34 9.24172 214.739 9.09516C207.763 8.82035 200.419 8.39898 193.525 10.1028C178.077 13.9318 163.239 10.7623 147.806 9.2234C141.04 8.54554 134.275 7.62952 127.509 7.1715C120.27 6.65853 112.347 4.51503 105.514 8.38066C102.695 9.70065 99.8364 10.4604 96.9668 10.6524C95.3058 11.0491 93.6357 11.1715 91.9679 11.0188C90.908 10.8173 89.1414 9.18676 88.1416 9.47989C85.5332 10.3409 83.5486 19.0432 81.1055 19.0432C78.9105 19.0432 76.0389 10.9638 74.3927 8.58218C69.7395 1.84024 60.1325 3.87382 54.3067 3.34252C46.6392 2.66466 38.9491 2.24329 31.2815 1.51047C24.7491 0.905895 18.4872 1.47383 11.9698 1.16238C9.54928 1.05246 3.75351 -1.0544 1.61863 0.686049C-0.756809 2.68298 0.190359 10.231 0.167808 14.9028C0.10767 26.4996 1.35553 38.0782 1.56601 49.7117C1.81408 63.1589 1.00973 76.6795 0.678978 90.1267C0.0851184 114.786 1.49835 139.922 1.82911 164.673C1.91932 170.828 1.49835 175.537 3.70089 180.447C5.78316 185.1 5.37723 189.277 5.42985 195.103C5.47495 200.05 5.46744 205.033 5.63282 209.979C5.70047 212.105 6.27929 215.476 6.00116 217.472C5.42985 221.558 5.49751 219.158 3.69338 220.825C2.74621 221.704 2.58835 220.202 1.85918 221.924C1.2578 223.335 1.76145 228.08 1.76897 229.711C1.72556 234.885 1.81343 240.061 2.03207 245.21C2.30269 250.211 2.07718 254.498 4.42255 257.668C7.12874 261.332 11.3835 263.897 14.4355 267.048C17.1191 269.814 18.5098 270.712 15.1045 273.093C12.0923 274.827 9.02355 275.912 5.9335 276.336C2.92662 277.032 2.73869 276.336 1.93435 280.642C0.814287 286.596 1.77649 295.554 1.65621 301.838C1.20518 325.215 1.44573 348.574 0.288083 371.914C0.0854888 377.849 0.0252487 383.807 0.10767 389.758C0.10767 397.361 0.145256 397.948 4.37744 401.172C5.88088 402.326 10.0229 404.671 10.1582 408.262C10.2709 411.303 5.25695 414.802 4.14441 417.752C1.49835 424.622 2.43049 436.036 2.08469 444.06C1.49835 457.599 2.08469 471.23 1.57352 484.823C1.16008 495.816 0.476013 506.808 0.453461 517.8C0.453461 523.864 0.212911 529.91 0.0926356 535.956C-0.0351569 542.954 1.19015 541.928 5.13668 541.837C12.5411 541.672 19.7727 538.924 27.1621 538.173C35.2205 537.379 43.2865 536.738 51.36 536.249C55.6949 535.98 60.0273 535.852 64.3572 535.864C67.1912 535.864 70.8446 537.422 73.5583 536.872C76.8358 536.212 78.8654 529.269 82.0151 527.382C85.7737 525.128 87.1419 529.031 89.5774 533.226C92.4791 538.228 93.2158 540.041 97.245 539.638C101.274 539.235 105.288 540.499 109.272 540.957C117.609 541.892 126.006 541.305 134.365 541.305C151.707 541.305 168.944 543.486 186.271 543.321C194.555 543.247 202.837 543.247 211.116 543.321C212.454 543.321 215.626 544.237 216.821 543.321C218.956 541.709 218.723 539.767 219.144 535.993C219.497 532.786 219.805 520.658 221.737 519.119C224.271 521.904 223.895 530.991 225.872 534.655C227.849 538.319 228.879 537.312 231.976 535.571C235.516 533.574 235.531 530.789 238.974 534.142C240.574 535.909 242.225 537.391 243.913 538.576C245.807 539.73 248.679 538.924 250.31 540.408C253.468 543.357 252.039 545.428 256.061 545.428C259.895 545.428 263.638 547.388 267.48 547.791C275.47 548.615 283.266 546.783 291.226 546.069C298.067 545.446 304.923 544.988 311.741 543.76C319.341 542.386 326.813 543.357 334.398 542.716C338.239 542.386 339.75 540.884 342.667 537.22C345.305 534.014 348.177 533.098 351.372 532.438C355.209 531.568 359.072 531.641 362.903 532.658C364.76 533.153 366.609 533.867 368.503 533.922C369.954 533.922 372.48 532.438 373.72 533.922C376.051 536.579 374.938 541.47 378.005 543.083C381.23 544.786 385.424 542.496 388.717 542.515C396.821 542.515 404.413 548.341 412.652 547.479C419.711 546.747 426.386 545.886 433.467 546.967C436.474 547.425 439.3 549.531 440.232 544.255C441.277 538.557 439.368 529.361 439.233 523.37C438.947 511.223 440.849 499.553 441.555 487.572C442.307 474.326 441.766 460.934 441.097 447.688C439.872 422.882 439.135 397.856 438.909 372.757C438.834 365.759 438.729 358.815 438.518 351.835C438.391 347.566 439.203 339.743 437.226 336.556C434.97 332.892 429.648 335.438 430.28 328.513C430.738 323.475 434.685 318.363 436.647 314.937C439.398 310.119 438.804 305.594 438.601 299.292C438.421 293.649 439.353 284.635 438.21 279.341C437.15 274.431 432.249 274.926 429.227 273.991C425.454 272.77 421.67 271.616 417.876 270.529C417.951 270.29 419.981 271.023 417.951 270.419Z" fill="#222631"/>
</svg>