<svg xmlns="http://www.w3.org/2000/svg" width="37" height="39" viewBox="0 0 37 39" fill="none">
    <path d="M20.7397 37.7569L19.8633 37.8341L19.0156 37.7915L18.1679 37.7385L17.3198 37.7341L16.5037 37.8051L16.3813 38.9417L17.2915 38.8936L18.1576 38.8984L19.0237 38.8962L19.8901 38.8855L20.7706 38.9197L20.7397 37.7565V37.7569ZM35.6865 15.0328L36.0357 14.1969L36.5453 13.4245L36.038 13.0437L35.399 12.9165L35.3274 12.9948L35.2248 13.1731L35.1682 13.9671L35.0461 14.7498L34.9403 15.535L34.8384 16.2978L35.399 16.3368L36.0482 16.2074L36.5647 15.8067L37 15.0222L36.3438 14.9998L35.6861 15.0328H35.6865ZM19.2567 2.76042L19.2336 2.10202L19.2222 1.40318L19.1542 0.706187L19.0869 0.0433785L18.0646 0L18.0381 0.705819L18.0061 1.40392L18.023 2.10422L17.9896 2.8435L17.1169 2.80269L16.278 2.80416L15.4391 2.8196L14.5998 2.83982L13.7609 2.85636L12.9213 2.76703L12.0702 2.78982L12.1533 3.53718L12.2735 4.26616L12.4015 4.99477L12.5202 5.72449L12.5099 5.73405L12.7889 6.56228L13.0558 7.39456L13.2359 8.25147L13.5036 9.10728L12.926 8.26838L13.0393 8.98633L13.1694 9.6995L13.3003 10.413L13.4117 11.0953L14.1682 11.0931L14.9564 11.085L15.7445 11.1383L16.5323 11.163L17.3205 11.1203L18.1087 11.0975L18.8968 11.1843L19.685 11.1512L20.4728 11.1251L21.2613 11.181L22.0506 11.1457L22.8399 11.1343L22.9127 10.4825L22.916 9.8267L23.4262 10.2487L23.8537 10.745L23.9754 9.95205L24.0732 9.15396L24.1953 8.35918L24.4088 7.57873L24.4794 6.77587L24.6305 5.9855L24.7103 5.18446L24.8901 4.39814L24.9989 3.60041L25.0808 2.81813L24.2607 2.80673L23.4218 2.76887L22.5825 2.83173L21.7429 2.81372L20.9036 2.80196L20.0647 2.75894L19.2564 2.76078L19.2567 2.76042ZM14.5472 9.79287L14.3675 9.00618L14.3061 8.18861L14.1866 7.37986L14.0307 6.57662L13.9465 5.76235L13.7352 4.9672L13.6414 4.13272L14.8012 4.11985L14.8722 4.96426L15.0784 5.75904L15.1056 6.58177L15.2417 7.38794L15.4398 8.1842L15.4729 9.00655L15.6398 9.79986L14.5469 9.79361L14.5472 9.79287ZM17.6378 9.82853L16.8573 9.80317L16.729 8.99956L16.6066 8.19192L16.5368 7.37581L16.3202 6.58213L16.2408 5.7675L16.0669 4.96684L16.0059 4.16691L16.918 4.09706L17.8631 4.13198L17.7679 4.95728L17.7374 5.76493L17.8006 6.57662L17.6661 7.38059L17.6767 8.19008L17.6793 8.99956L17.637 9.8289L17.6378 9.82853ZM20.2886 9.76604L19.5277 9.84508L19.521 8.99993L19.4685 8.19302L19.5144 7.38206L19.4902 6.57368L19.4361 5.76676L19.3655 4.95985L19.3273 4.14191L20.2636 4.18051L21.1683 4.17426L21.0349 4.95397L20.965 5.76971L20.7757 6.56743L20.689 7.38096L20.5629 8.18824L20.5 9.00728L20.2886 9.76604ZM22.6237 9.77596L21.5014 9.84912L21.6473 8.99773L21.823 8.19816L21.9506 7.39088L21.9885 6.56963L22.2065 5.77632L22.2598 4.95728L22.3929 4.14191L23.5332 4.14081L23.4229 4.96242L23.256 5.76346L23.1318 6.57147L23.0523 7.38684L22.9369 8.19633L22.7708 8.99846L22.6233 9.7756L22.6237 9.77596ZM2.24061 16.3533L2.07224 15.5405L2.00607 14.7502L1.94064 13.9583L1.81748 13.1749L1.72631 12.9948L1.65463 12.9069L1.01792 13.1036L0.474591 13.4602L0.115063 14.0024L0 14.6402L0.0985181 15.3166L0.511716 15.8835L1.11424 15.2251L1.86527 14.6943L1.75903 15.5295L1.5914 16.368L2.24097 16.3526L2.24061 16.3533Z" fill="#32D496"/>
    <path d="M34.164 36.5353L34.0262 35.8001L33.8953 35.0524L33.8244 34.2954L33.7192 33.5444L33.5769 32.7971L33.4795 32.0438L33.4413 31.284L33.4237 30.5075L32.8483 29.8955L32.4252 29.1922L31.9738 28.5085L31.6308 27.7615L31.2511 27.038L30.8687 26.3156L30.4949 25.587L30.171 24.8349L29.9203 24.0548L29.6593 23.2803L29.4214 22.4983L29.1667 21.6988L29.8104 22.2745L30.4923 22.77L31.1474 23.2994L31.8407 23.7817L32.4804 24.3302L33.113 24.8941L33.1086 23.9004L33.1196 23.1398L33.1924 22.3814L33.1252 21.6186L33.2046 20.8614L33.1968 20.0993L33.3178 19.3453L33.3016 18.5818L33.3983 17.8271L33.5457 17.0786L33.6284 16.3243L33.6369 15.4747L33.8519 14.652L33.9332 13.8112L34.0324 12.9727L34.082 12.9639L33.549 12.4162L32.7619 12.3507L31.9749 12.3445L31.1878 12.375L30.4011 12.3327L29.6148 12.4191L28.8281 12.3952L28.041 12.4088L27.2544 12.3386L26.4677 12.4224L25.6806 12.325L24.8939 12.3375L24.1068 12.4128L23.3198 12.3213L22.5327 12.3617L21.7457 12.3191L20.9582 12.3331L20.1712 12.3162L19.3837 12.3555L18.5963 12.4132L17.8089 12.3614L17.0214 12.368L16.234 12.3647L15.4466 12.4103L14.6595 12.4257L13.8721 12.3728L13.0847 12.3742L12.2972 12.3897L11.5098 12.4099L10.7227 12.4264L9.93495 12.3371L9.14641 12.3551L8.34354 12.3312L8.50823 13.1639L8.69719 13.9473L8.86776 14.7347L9.01223 15.5273L9.17619 16.3165L9.32471 17.1183L8.7799 16.4489L8.16378 15.8544L7.64471 15.1762L7.12122 14.5024L6.60767 13.8204L6.11948 13.119L5.69157 12.4202L4.97252 12.4132L4.23913 12.4213L3.50574 12.368L2.96094 12.9661L3.00505 12.976L3.16202 13.8057L3.20025 14.6531L3.3473 15.4846L3.47706 16.3191L3.50684 17.0797L3.6186 17.8318L3.69837 18.5877L3.75131 19.3457L3.80976 20.1026L3.84541 20.8614L3.89688 21.6201L3.92519 22.3792L3.97004 23.1395L3.98217 23.9004L3.89321 24.7022L3.93989 25.504L3.89578 26.3046L3.91416 27.1075L3.82226 27.9059L3.79321 28.7066L3.78807 29.5095L3.70536 30.3072L3.59544 31.1016L3.57669 31.9052L3.46824 32.6996L3.35685 33.4929L3.22415 34.3219L3.88806 33.8304L4.54499 33.4021L5.20448 32.9779L5.88788 32.5871L6.48967 32.0802L7.15946 31.6648L7.75021 31.1465L8.35825 30.6094L8.99495 30.1021L9.52763 29.4867L10.1048 28.915L10.6224 28.2894L11.0966 27.6306L11.5396 26.952L11.9395 26.2484L12.3976 25.5778L11.9855 26.2318L11.6421 26.924L11.3389 27.6365L10.9974 28.3298L10.6349 29.0125L10.2809 29.6995L9.94524 30.3962L9.52358 31.0476L9.15781 31.7284L8.87769 32.4541L8.48691 33.1217L8.15091 33.8179L7.80462 34.509L7.43149 35.1862L7.09108 35.8799L6.71244 36.5085L7.49913 36.5864L8.29906 36.5905L9.09862 36.4967L9.89855 36.5243L10.6985 36.5633L11.4984 36.5938L12.2983 36.5559L13.0986 36.5805L13.8986 36.5963L14.6989 36.5372L15.4992 36.596L16.2995 36.5103L17.0997 36.4986L17.9 36.5724L18.7003 36.6019L19.5003 36.5658L20.3006 36.5158L21.1009 36.518L21.9012 36.5191L22.7018 36.5794L23.5025 36.5658L24.3031 36.5857L25.1042 36.5504L25.9155 36.5761L25.5655 35.8442L25.317 35.1049L25.0762 34.3638L24.9119 33.6014L24.7307 32.8459L24.5233 32.1214L24.8233 32.8004L25.206 33.4661L25.6585 34.0863L26.0651 34.7388L26.5099 35.3656L27.0011 35.9563L27.4966 36.5247L28.3263 36.5743L29.1604 36.4949L29.9945 36.496L30.829 36.5566L31.6635 36.5761L32.498 36.593L33.3332 36.6008L34.1644 36.5361L34.164 36.5353ZM21.3887 21.2995L21.5699 22.1686L21.7203 23.0439L21.7909 23.9526L21.9081 24.8551L22.118 25.7403L22.321 26.4693L22.5018 27.2071L22.661 27.9501L22.9408 28.664L22.9941 29.4257L22.9628 30.2153L22.6754 29.4955L22.286 28.8617L21.8313 28.2754L21.349 27.7133L20.8638 27.0909L20.4336 26.4285L19.9896 25.7775L19.5642 25.1143L19.1157 24.4632L18.8018 23.7372L18.4298 23.042L18.1316 22.3123L18.0173 22.0065L18.1732 21.758L18.7103 21.1257L19.2235 20.475L19.7539 19.8383L20.3373 19.2483L20.8251 18.5722L21.4317 18.005L21.9883 17.3881L22.6467 16.8794L23.229 16.2842L23.8944 15.8L24.352 15.1582L24.1219 15.8375L23.9638 16.5849L23.5653 17.2378L23.2529 17.9274L22.8937 18.5965L22.4357 19.2023L22.0464 19.8559L21.5398 20.4235L21.3137 20.8103L21.388 21.3007L21.3887 21.2995Z" fill="#32D496"/>
</svg>