<?xml version="1.0" encoding="UTF-8"?>
<svg id="Calque_1" data-name="Calque 1" xmlns="http://www.w3.org/2000/svg" version="1.1" viewBox="0 0 1080 1080">
    <defs>
        <style>
            .cls-1 {
            fill: #343635;
            }

            .cls-1, .cls-2, .cls-3, .cls-4, .cls-5, .cls-6, .cls-7, .cls-8, .cls-9, .cls-10, .cls-11, .cls-12, .cls-13,
            .cls-14, .cls-15 {
            stroke-width: 0px;
            }

            .cls-2 {
            fill: #004940;
            }

            .cls-3 {
            fill: #000;
            }

            .cls-4 {
            fill: #b5bcb7;
            }

            .cls-5 {
            fill: #181918;
            }

            .cls-6 {
            fill: #b6bdb8;
            }

            .cls-7 {
            fill: #4e514f;
            }

            .cls-8 {
            fill: #333534;
            }

            .cls-9 {
            fill: #534741;
            }

            .cls-10 {
            fill: #696d6a;
            }

            .cls-11 {
            fill: #2a2421;
            }

            .cls-12 {
            fill: #3e3531;
            }

            .cls-13 {
            fill: #828783;
            }

            .cls-14 {
            fill: #1a1b1a;
            }

            .cls-15 {
            fill: #151210;
            }
        </style>
    </defs>
    <path class="cls-3"
          d="M177.6,955.8c-4.98,3.91-9.15,6.41-14.86,5.96-13.24-1.04-26.61,1.73-39.79-2.35-49.78-15.42-68.31-58.42-62.44-98.08.69-4.73,2.58-8.92,5.34-12.74,3.91-5.44,7.19-11.22,9.53-17.53q3.53-9.51,13.53-15.75c-2.92,9.12-6.46,16.86-12.02,23.24-12.39,14.21-13.2,30.11-8.36,47.27,9.71,34.42,32.06,56.74,65.3,68.8,5.16,1.88,10.41,1.05,15.63,1.14,9.01.16,18.05.04,28.15.04Z"/>
    <path class="cls-3"
          d="M183.8,777.29c-1.21-12.05.24-23.79,1.73-35.62.22-1.73.55-3.63,3.33-4.9-5.63,22.19,2.62,42.19,7.78,62.57,4.12,16.29,15.2,28.83,23.92,42.62,1.81,2.87,1.9,4.29-1.12,6.04-1.94,1.12-2.81.67-3.92-.91-14.77-21.35-29.01-42.84-31.72-69.81Z"/>
    <path class="cls-3"
          d="M176.43,795.56c2.64-2.34,3.89-3.85,5.19,1.25,3.39,13.22,9.35,25.31,17.45,36.38,3.81,5.21,7.24,10.73,10.49,16.31,5.59,9.56,15.85,12.79,24.43,18.22,6.15,3.9,6.33,3.47.33,7.98-4.68,3.51-9.38,7.02-13.78,10.88-8.77,7.7-19.31,9.44-32.8,9.7-16.25-1.05-33-6.26-44.74-21.91-8.04-10.72-8.26-22.81-5.02-35.25,2.8-10.73,8.7-19.21,17.74-25.88,7.28-5.38,13.93-11.63,20.71-17.67Z"/>
    <path class="cls-3"
          d="M250.34,881.17c-1.94,28.95-27.26,60.05-55.31,67.76-2.1.58-4.4.61-6.59.62-14.6.05-29.21-.09-43.8.09-4.57.06-8.82-.74-13.01-2.42-33.9-13.65-53.68-38.66-59.48-74.62-1.5-9.27.27-18.19,6.42-25.79,8.39-10.37,14.41-22,18-34.84.83-2.97,2.58-4.9,4.9-6.65,18.79-14.31,39.96-21.94,63.58-22.66,4.31-.13,8.21,1.4,12.78,3.43-10.95,9.49-21.38,18.73-32.05,27.69-21.16,17.77-21.01,55.88.54,73.3,19.96,16.13,42.5,18.71,66.48,11.62,6.93-2.05,11.56-8.04,17.32-12.11,4.3-3.03,8.37-6.39,12.49-9.68,1.73-1.39,3.31-1.95,5.52-.82,2.31,1.18,2.36,2.95,2.22,5.07Z"/>
    <path class="cls-3"
          d="M273.25,878.07c-1.63,3.9-3.96,3.47-6.86,1.75-10.73-6.38-21.54-12.64-32.3-18.98-2.42-1.43-4.9-2.8-7.17-4.46-1.33-.97-4.84-.95-3.18-3.7,1.36-2.25,3.84-2.97,6.77-1.17,10.13,6.2,20.46,12.1,30.68,18.16,3.29,1.95,6.52,4,9.73,6.08.95.61,2.19,1.08,2.33,2.31Z"/>
    <path class="cls-3" d="M279.56,881.19h32.94c-10.88,2.29-21.89,1.29-32.86,1.61-.02-.54-.05-1.07-.07-1.61Z"/>
    <path class="cls-3"
          d="M247.1,733.71c-1.64,1.01-3.01,2.64-5.75,2.53,4.71-12.16,9.68-23.39,21.49-30.55,27.93-16.94,52.47-38.42,77.48-59.25,2.16-1.8,4.45-3.44,7.36-5.69,2.51,8.38,4.97,16.2,7.13,24.11.79,2.94-2.29,3.57-3.98,4.63-18.51,11.6-37.1,23.08-55.68,34.57-16.01,9.9-32.02,19.77-48.04,29.65Z"/>
    <path class="cls-3"
          d="M237.28,761.97c-1.75-9.98,1.84-16.7,11.68-22.51,34.85-20.57,68.99-42.33,103.35-63.7,3.12-1.94,5.02-2.86,6.22,1.91,2.23,8.81,4.81,17.54,7.63,26.19,1.14,3.48.12,5.54-2.33,7.84-13.63,12.8-28.5,23.89-44.47,33.61-20.39,12.41-38.37,28.45-59.4,39.93-1.78.97-3.5,2.05-5.32,2.91-12.53,5.94-10.65,8.19-15.4-7.03-.9-2.87-1.58-5.88-1.89-8.87-.32-3.22-.07-6.48-.07-10.28Z"/>
    <path class="cls-3"
          d="M362.01,829.39c8.94-6.52,18.36-12.39,28.97-19.5-2.86,11.32-3.17,21.52-11.75,28.87-5.06,4.31-9.39,9.53-13.74,14.59-12.69,14.79-28.82,21.38-48.14,20.98-11.95-.26-24.34,1.74-35.76-.77-11.45-2.5-20.21-12.56-31.11-17.25-17.56-7.55-28.11-21.3-37.81-36.88-10.5-16.85-13.91-35.66-18.11-54.37-6.6-29.31,11.29-63.53,37.76-79.69,6.48-3.97,14.95-4.73,22.55-6.82,7.02-1.92,14.25-3.22,21.11-5.59,6.98-2.42,13.47-1.44,21.11,1.04-8.38,7.86-17.77,12.79-26.19,19.03-2.77,2.05-5.59,4.06-8.55,5.79-21.91,12.84-29.37,34.01-31.17,57.27-3.89,50.01,33.14,81.99,76.36,86.9,20.11,2.29,38.09-1.62,54.48-13.58Z"/>
    <path class="cls-3"
          d="M248.69,802.79c-1.45-2.23-2.29-3.85.76-5.23,27.1-12.31,49.23-32.34,74.28-47.83,16.03-9.93,30.9-21.23,46.07-35.17.11,14.01,11.45,16.87,19.35,22.98,4.24,3.28,12.03,4.96,12.1,9.74.05,4.14-7.6,6.27-11.85,9.26-33.05,23.18-66.03,46.42-97.82,71.29-3.78,2.96-6.86,3.68-11.34,1.51-12.79-6.24-23.7-14.49-31.54-26.57Z"/>
    <path class="cls-3"
          d="M337.34,582.06c-.37-1.35-1.96-3.65,1.46-3.81,10.48,2.35,20.93,4.69,31.37,7.06,2.24.51,2.28,2.73,2.81,4.34,11.51,34.9,22.9,69.84,34.52,104.7,1.21,3.62.49,5.31-2.55,7.31-7.77,5.12-15.46,10.38-22.83,16.04-4.06,3.12-5.1,2.22-6.39-2.3-10.78-37.88-21.77-75.7-32.69-113.54-1.91-6.6-3.9-13.18-5.7-19.81Z"/>
    <path class="cls-3"
          d="M338.46,566.98c7.56-14.3,15.14-28.59,22.73-42.86,6.44-12.14,13.03-24.22,19.28-36.46,1.61-3.15,2.83-3.53,5.8-1.71,7.22,4.45,14.63,8.64,22.05,12.75,2.42,1.35,2.97,2.58,1.64,5.21-12.13,24.01-24.14,48.06-36.15,72.13-.96,1.92-1.77,3.9-3.87,2.78-10.51-2.3-20.38-4.49-30.26-6.6-4.3-.91-2.31-3.19-1.22-5.25Z"/>
    <path class="cls-3"
          d="M411.75,493.72c-5.35-3.14-10.69-6.27-16.03-9.42.12-.61.26-1.22.38-1.84h31.33c-4.02,4.09-7.59,7.77-11.23,11.36-1.43,1.39-2.98.74-4.45-.11Z"/>
    <path class="cls-3"
          d="M434.94,773.66c-28.54,18.73-56.86,37.81-85.45,56.48-9.4,6.14-20.37,7.31-31.35,7.72-6.71.02-13.2-1.51-19.77-2.5-1.21-.18-2.69-.09-3.12-1.4-.55-1.72,1.1-2.38,2.18-3.19,17.3-12.89,34.43-26.02,51.95-38.6,18.03-12.95,36.51-25.29,54.61-38.13,3.79-2.69,6.57-2.67,10.21.04,6.64,4.93,13.58,9.46,20.41,14.14,2.5,1.71,4.26,2.86.33,5.43Z"/>
    <path class="cls-3"
          d="M499.03,763.76c-2.03,11.68-3.54,23.47-5.43,36.51-13.72-9.12-26.49-17.56-39.21-26.1-22.67-15.2-45.23-30.56-67.98-45.62-4.24-2.79-4.12-4.02.01-6.67,7.82-5.01,15.41-10.41,22.88-15.94,2.75-2.03,4.88-2.05,7.61-.24,26.48,17.48,52.99,34.93,79.56,52.3,2.33,1.52,3.09,2.74,2.56,5.77Z"/>
    <path class="cls-3"
          d="M398.81,542.8c9.57-19.28,16.43-39.66,32.1-55.8,29.27-30.15,56.88-61.91,85.25-92.94,11.74-12.84,23.75-25.43,35.49-38.26,3.09-3.37,5.16-4.41,6.47,1.1,1.57,6.59,7.89,12.95,5.36,19.23-2.31,5.72-8.92,9.7-13.53,14.52-48.77,50.91-99.41,99.98-148.94,150.14-.69.71-1.46,1.34-2.19,2.01Z"/>
    <path class="cls-3"
          d="M602.64,741.77c4.31-.79,7.56-3.81,12.97-4.79-3.57,10.76-5.96,21.12-10.48,30.44-2.73,5.6-7.76,10.39-15.01,12.27-28.71,7.44-57.3,15.34-85.87,23.28-3.95,1.1-5.04.62-4.37-3.57,1.78-11.12,2.57-22.47,5.27-33.35,1.45-5.79,8.67-7.22,13.85-8.28,27.8-5.74,55.71-10.88,83.63-15.99Z"/>
    <path class="cls-3"
          d="M457.34,662.58c-13.58,9.2-27.1,18.48-40.48,27.97-2.9,2.05-3.69,1.88-4.81-1.55-11.16-34.24-22.5-68.43-33.75-102.65-.49-1.49-1.36-2.94-.39-4.64,4.07-7.16,6.64-15.04,12.68-21.24,56.64-58.04,114.38-114.98,171.47-172.57,1.55-1.57,2.66-3.58,4.95-6.72,3.68,9.9,6.58,17.74,9.49,25.57,15.66,42.32,31.29,84.66,47.08,126.93,1.38,3.69.68,5.74-2.42,8.06-45.34,34-90.62,68.08-135.79,102.32-3.09,2.35-4.98,2.27-7.73.05-4.56-3.67-9.31-7.09-15.02-11.41-.6,8.47-1.25,15.65-1.52,22.86-.12,3.13-1.06,5.21-3.74,7.03Z"/>
    <path class="cls-3"
          d="M580.03,253.76c-7.86,6.36-15.47,12.98-24.11,18.89,4.69-10.63,9.38-21.28,14.08-31.93,10.04-22.74,20.17-45.45,30.09-68.25,2.46-5.65,5.54-10.6,10.01-14.95,7.31-7.13,14.15-14.73,21.67-22.61,1.27,3.5-.13,4.99-.82,6.58-14.91,34.74-29.89,69.44-44.82,104.18-1.39,3.24-3.31,5.82-6.1,8.08Z"/>
    <path class="cls-3"
          d="M547.91,292.37c-.6-3.06,1.8-5.14,4.04-7.02,10.26-8.58,20.48-17.2,30.7-25.81,7.21-6.09,11.3-4.86,14.68,4.4,5.12,14.07,10.26,28.11,15.36,42.18,22.29,61.57,44.47,123.18,66.99,184.68,2.01,5.49.94,8.05-3.7,11.17-15.26,10.23-30.2,20.97-45.76,31.88-6.16-16.52-12.19-32.57-18.14-48.65-18.94-51.17-37.89-102.35-56.75-153.55-4.67-12.66-4.86-26.2-7.42-39.28Z"/>
    <path class="cls-3"
          d="M421.92,694.32c12.47-8.61,24.69-17.64,37.55-25.62,6.54-4.06,8.39-8.97,7.75-15.98-.19-2.2-1.35-5.35,1.22-6.67,2.42-1.24,3.78,1.75,5.48,2.96,7.58,5.3,7.54,5.37,15.13-.32,36.82-27.61,73.66-55.21,110.44-82.88,7.92-5.94,15.75-11.99,23.45-18.21,3.67-2.97,6.75-3.41,10.54-.13,10.97,9.53,22.14,18.83,33.25,28.22,14.02,11.86,28.03,23.75,42.1,35.57,10.67,8.94,21.41,17.8,32.16,26.65,3.19,2.63.74,3.48-1.3,4.56-14.86,7.83-29.71,15.7-44.58,23.51-9.85,5.18-19.74,10.28-29.64,15.41-1.78.93-3.52,2.06-6.46,1.78-3.72-1.07-8.23-2.2-12.61-3.72-2.62-.91-4.43-.56-5.12,2.17-3.26,13.17-14.28,17.59-24.96,22.51-12.33,5.65-24.59,11.43-36.82,17.26-20.46,9.76-40.79,19.82-61.37,29.33-7.99,3.7-15.59,4.59-24.15-1.38-23.55-16.41-47.89-31.66-71.91-47.39-5.37-3.52-5.36-4.02-.15-7.63Z"/>
    <path class="cls-3"
          d="M753.97,662.08c-39.79,19.53-79.47,39.29-119.49,58.31-11.27,5.36-21.83,12.7-34.17,15.43-18.06,3.98-36.3,7.16-54.46,10.66-.68.13-1.44-.12-3.59-.33,14.82-7.15,28.43-13.69,42.02-20.24,17.49-8.43,35.01-16.83,52.47-25.31,4.49-2.18,4.75-7.28,7.16-10.9,1.16-1.74,1.74-4.92,4.73-3.18,11.92,6.98,21.18-.56,30.83-5.51,13.67-7,27.19-14.32,40.77-21.51,6.8-3.59,13.73-6.96,20.33-10.86,5.31-3.14,9.2-3.31,14.36,1.21,8.77,7.67,9.26,7.22-.96,12.24Z"/>
    <path class="cls-3"
          d="M861.71,673.72c-10.4,8.98-20.67,18.12-30.83,27.38-2.25,2.06-3.45,2.17-5.88.1-24.82-21.04-49.82-41.85-74.69-62.84-24.71-20.85-49.32-41.84-74.01-62.73-13.12-11.1-26.19-22.24-39.55-33.03-3.5-2.83-2.79-3.82.34-5.99,14.98-10.33,29.83-20.87,44.73-31.32.97-.68,1.97-1.33,3.17-2.12,1.05.85,2.01,1.55,2.87,2.35,17.2,15.97,34.41,31.91,51.57,47.93,31.79,29.7,63.53,59.45,95.34,89.14,8.87,8.28,17.82,16.48,26.88,24.54,2.74,2.45,3.05,4.01.06,6.59Z"/>
    <path class="cls-3"
          d="M1001.04,604.95c2.07-1.11,4.02-2.72,6.8-2.7-.05,9.57-6.11,13.84-13.28,17.44-32.21,16.24-64.37,32.55-96.52,48.89-13.36,6.78-26.65,13.72-39.99,20.56-1.73.89-3.53,1.64-5.62,1.97,8.61-9.6,18.15-17.87,29.74-23.83,30.09-15.43,60.03-31.15,89.99-46.82,9.68-5.07,19.21-10.41,28.87-15.52Z"/>
    <path class="cls-3"
          d="M674.38,268.7c.23-1.15.79-2.34.62-3.42-3.11-20.51,9.68-35.54,17.94-52.13,2.62-5.25,5.41-10.43,7.88-15.75,1.44-3.11,3.29-4.53,6.93-4.54,16.74-.09,33.47-.73,50.15-2.36,8.31-.8,13.91,4.79,20.21,8.44,26.55,15.38,52.61,31.61,78.22,48.54,4.12,2.73,4.07,4.64,1.34,8.11-5.86,7.44-11.52,15.06-17.14,22.68-2.17,2.96-3.57,4.57-6.58.39-4.14-5.79-9.84-9.94-16.26-13.33-18.42-9.7-36.66-19.72-55.63-28.38-10.41-4.75-21.07-5.38-32.39-4.3-11.53,1.12-22.69,3.12-33.62,6.87-3.13,1.08-4.88,2.95-6.44,5.77-4.45,8.08-9.26,15.94-13.91,23.89-.44-.16-.89-.32-1.33-.48Z"/>
    <path class="cls-3"
          d="M844.01,283.56c6.58-8.17,12.92-16.55,18.95-25.14,2.4-3.42,3.11-2.64,5.27.17,14.77,19.17,29.78,38.17,44.7,57.24.61.77,1.16,1.58,1.56,2.12-.19,1.88-1.4,2.3-2.44,2.9-8.22,4.74-16.48,9.42-24.67,14.24-2.5,1.46-3.72.88-5.2-1.56-10.16-16.7-23.03-31.17-37.39-44.31-2.16-1.97-2.97-2.94-.79-5.65Z"/>
    <path class="cls-3"
          d="M861.05,570.82c-10.33.13-16.75-3.92-23.5-9.43-34.11-27.87-68.1-55.9-102.13-83.85-2.55-2.1-4.36-4.67-5.82-7.65-13.46-27.46-27.32-54.73-40.38-82.37-5.35-11.34-5.98-24.23-9.07-36.33-2.11-8.21-3.26-16.65-5.46-24.82-1.71-6.37-2.31-12.7-1.84-19.6-.91-6.72.83-13.72,1.25-20.77.4-6.42,5.69-10.97,8.5-16.53,2.28-4.51,5.6-8.51,7.55-13.13,3.68-8.68,10.1-12.98,19.12-14.62,13.12-2.38,26.14-4.96,39.62-2.77,3.3.54,6.26,1.69,9.15,2.96,20.77,9.15,40.59,20.17,60.6,30.82,4.31,2.29,6.7,6.37,9.91,9.67,10.56,10.88,22.46,20.34,32.29,32.05,11.19,13.33,19.65,28.09,27,43.73,10.23,21.74,18.76,44.31,31.68,64.79,9.25,14.64,12.01,31.61,15.55,48.2,5.55,26.03,2.2,50.98-9.4,74.9-1.5,3.07-3.53,5.27-6.65,6.69-3.87,1.75-7.82,3.48-11.4,5.74-14.28,9.01-29.57,12.1-46.59,12.33Z"/>
    <path class="cls-3"
          d="M890.15,340.44c8.43-4.8,16.85-9.62,25.25-14.46,1.74-1,3.17-1.64,4.2,1,8.72,22.4,17.53,44.75,26.3,67.13.15.38.23.77.34,1.16.16,2.11-1.61,2.05-2.85,2.45-7.88,2.52-15.8,4.92-23.65,7.53-2.18.72-3.42.27-4.36-1.75-9.03-19.42-18.05-38.84-27.15-58.24-1.18-2.53-.04-3.69,1.92-4.81Z"/>
    <path class="cls-3"
          d="M946.01,403.43c4.21-1.29,3.48,2.52,3.87,4.32,1.92,8.86,3.52,17.77,5.2,26.66,1.63,8.7,2.59,17.76,13.31,21.27-.27.58-.54,1.18-.79,1.78-8.9,1.13-17.8,2.33-26.7,3.4-2.5.29-2.27-2.16-2.5-3.4-2.85-15.49-8.43-29.88-17.03-43.07-1.14-1.75-1.29-2.9.94-3.59,7.89-2.46,15.79-4.95,23.69-7.37Z"/>
    <path class="cls-3"
          d="M971.48,468.03c-5.09,18.47-10.01,36.98-14.48,55.6-2.78,11.52-4.7,23.27-6.87,34.93-.51,2.74-1.02,4.76-4.35,5.62-25.2,6.44-50.33,13.13-75.51,19.7-5.13,1.34-7.8-2.98-10.44-5.75-1.68-1.74,1.66-1.85,2.97-1.88,6.69-.11,13.37-.16,20.05-.04,2.96.06,5.54-.73,8.1-2.1,8.39-4.46,16.53-9.61,25.35-13.02,9.88-3.84,14.96-11.1,18.59-20.22,5.88-14.79,8.56-30.18,9.25-48.05-.74-5.8-1.28-13.68-2.94-21.32-.93-4.32.39-4.59,3.93-4.93,7.41-.73,14.79-1.8,22.14-2.83,4.71-.67,5.6-.77,4.2,4.28Z"/>
    <path class="cls-3"
          d="M1018.86,487.39c-21.22-44.39-42.46-88.76-63.64-133.17-1.33-2.78-2.74-5.44-5.2-7.34-7.64-5.94-12.81-12.73-8.45-23.06.07-.17.04-.4.05-.6.23-1.67-.12-3.18-.96-4.65-7.61-13.31-13.14-27.81-24.4-38.95-7.61-7.54-14.24-16.05-21.4-24.04-24.74-27.59-48.15-56.43-77.19-79.86-5.46-4.41-10.38-9.09-17.65-11.24-48.5-14.32-96.9-29.03-145.2-43.97-5.64-1.74-7.84-1.07-10.2,4.49-16.97,40.07-34.24,80.01-51.63,119.92-1.64,3.78-.74,5.41,2.57,6.88,3.7,1.64,5.66,4.54,7.09,8.48,28.02,77.66,56.21,155.25,84.25,232.9,1.24,3.42,3.18,5.98,5.74,8.34,20.51,18.99,41.04,37.98,61.48,57.04,37.49,34.93,74.96,69.9,112.33,104.97,2.86,2.68,4.9,2.96,8.39,1.11,42.96-22.74,85.91-45.47,129.14-67.68,6.8-3.5,8.97-7.75,9.44-14.86,1.58-23.83,4.09-47.58,5.53-71.41.46-7.69,3.62-15.58-.07-23.3ZM978.39,466.63c-9.14,32.11-17.64,64.39-23.19,97.35-.58,3.51-2.18,4.53-5.31,5.33-25.85,6.66-51.69,13.37-77.44,20.45-4.7,1.29-7.89.34-11.57-2.46-28.32-21.68-55.6-44.63-83.17-67.26-15.03-12.34-30.04-24.7-45.12-36.99-3.67-2.98-6.58-6.36-8.68-10.69-13.39-27.5-27.08-54.85-40.39-82.38-4.71-9.74-5.32-20.69-7.92-31.07-3.03-12.16-5.2-24.54-8.16-36.72-1.38-5.68-.94-11.3-.73-16.92.68-19.22,1.68-38.43,2.46-57.65.1-2.34.86-4.31,1.91-6.3,8.75-16.69,17.47-33.37,26.16-50.09,1.27-2.42,2.55-4.21,5.86-4.31,19.42-.55,38.84-1.34,58.26-2.05,2.73-.71,5.08.15,7.47,1.52,30.16,17.45,59.73,35.86,89.09,54.64,9.61,6.16,15.87,14.87,22.62,23.4,12.57,15.88,24.8,32.05,37.46,47.86,8.34,10.43,11.01,23.31,16.08,35.14,5.66,13.2,10.32,26.85,15.93,40.06,6.18,14.53,8.05,30.06,10.9,45.31,1.64,8.78,4.85,15.68,12.64,20.01,5.87,3.28,6.74,7.16,4.85,13.81Z"/>
    <path class="cls-10"
          d="M674.38,268.7c.23-1.15.79-2.34.62-3.42-3.11-20.51,9.68-35.54,17.94-52.13,2.62-5.25,5.41-10.43,7.88-15.75,1.44-3.11,3.29-4.53,6.93-4.54,16.74-.09,33.47-.73,50.15-2.36,8.31-.8,13.91,4.79,20.21,8.44,26.55,15.38,52.61,31.61,78.22,48.54,4.12,2.73,4.07,4.64,1.34,8.11-5.86,7.44-11.52,15.06-17.14,22.68-2.17,2.96-3.57,4.57-6.58.39-4.14-5.79-9.84-9.94-16.26-13.33-18.42-9.7-36.66-19.72-55.63-28.38-10.41-4.75-21.07-5.38-32.39-4.3-11.53,1.12-22.69,3.12-33.62,6.87-3.13,1.08-4.88,2.95-6.44,5.77-4.45,8.08-9.26,15.94-13.91,23.89-.44-.16-.89-.32-1.33-.48Z"/>
    <path class="cls-10"
          d="M844.01,283.56c6.58-8.17,12.92-16.55,18.95-25.14,2.4-3.42,3.11-2.64,5.27.17,14.77,19.17,29.78,38.17,44.7,57.24.61.77,1.16,1.58,1.56,2.12-.19,1.88-1.4,2.3-2.44,2.9-8.22,4.74-16.48,9.42-24.67,14.24-2.5,1.46-3.72.88-5.2-1.56-10.16-16.7-23.03-31.17-37.39-44.31-2.16-1.97-2.97-2.94-.79-5.65Z"/>
    <path class="cls-10"
          d="M861.05,570.82c-10.33.13-16.75-3.92-23.5-9.43-34.11-27.87-68.1-55.9-102.13-83.85-2.55-2.1-4.36-4.67-5.82-7.65-13.46-27.46-27.32-54.73-40.38-82.37-5.35-11.34-5.98-24.23-9.07-36.33-2.11-8.21-3.26-16.65-5.46-24.82-1.71-6.37-2.31-12.7-1.84-19.6-.91-6.72.83-13.72,1.25-20.77.4-6.42,5.69-10.97,8.5-16.53,2.28-4.51,5.6-8.51,7.55-13.13,3.68-8.68,10.1-12.98,19.12-14.62,13.12-2.38,26.14-4.96,39.62-2.77,3.3.54,6.26,1.69,9.15,2.96,20.77,9.15,40.59,20.17,60.6,30.82,4.31,2.29,6.7,6.37,9.91,9.67,10.56,10.88,22.46,20.34,32.29,32.05,11.19,13.33,19.65,28.09,27,43.73,10.23,21.74,18.76,44.31,31.68,64.79,9.25,14.64,12.01,31.61,15.55,48.2,5.55,26.03,2.2,50.98-9.4,74.9-1.5,3.07-3.53,5.27-6.65,6.69-3.87,1.75-7.82,3.48-11.4,5.74-14.28,9.01-29.57,12.1-46.59,12.33Z"/>
    <path class="cls-10"
          d="M890.15,340.44c8.43-4.8,16.85-9.62,25.25-14.46,1.74-1,3.17-1.64,4.2,1,8.72,22.4,17.53,44.75,26.3,67.13.15.38.23.77.34,1.16.16,2.11-1.61,2.05-2.85,2.45-7.88,2.52-15.8,4.92-23.65,7.53-2.18.72-3.42.27-4.36-1.75-9.03-19.42-18.05-38.84-27.15-58.24-1.18-2.53-.04-3.69,1.92-4.81Z"/>
    <path class="cls-10"
          d="M946.01,403.43c4.21-1.29,3.48,2.52,3.87,4.32,1.92,8.86,3.52,17.77,5.2,26.66,1.63,8.7,2.59,17.76,13.31,21.27-.27.58-.54,1.18-.79,1.78-8.9,1.13-17.8,2.33-26.7,3.4-2.5.29-2.27-2.16-2.5-3.4-2.85-15.49-8.43-29.88-17.03-43.07-1.14-1.75-1.29-2.9.94-3.59,7.89-2.46,15.79-4.95,23.69-7.37Z"/>
    <path class="cls-10"
          d="M971.48,468.03c-5.09,18.47-10.01,36.98-14.48,55.6-2.78,11.52-4.7,23.27-6.87,34.93-.51,2.74-1.02,4.76-4.35,5.62-25.2,6.44-50.33,13.13-75.51,19.7-5.13,1.34-7.8-2.98-10.44-5.75-1.68-1.74,1.66-1.85,2.97-1.88,6.69-.11,13.37-.16,20.05-.04,2.96.06,5.54-.73,8.1-2.1,8.39-4.46,16.53-9.61,25.35-13.02,9.88-3.84,14.96-11.1,18.59-20.22,5.88-14.79,8.56-30.18,9.25-48.05-.74-5.8-1.28-13.68-2.94-21.32-.93-4.32.39-4.59,3.93-4.93,7.41-.73,14.79-1.8,22.14-2.83,4.71-.67,5.6-.77,4.2,4.28Z"/>
    <path class="cls-10"
          d="M1018.86,487.39c-21.22-44.39-42.46-88.76-63.64-133.17-1.33-2.78-2.74-5.44-5.2-7.34-7.64-5.94-12.81-12.73-8.45-23.06.07-.17.04-.4.05-.6.23-1.67-.12-3.18-.96-4.65-7.61-13.31-13.14-27.81-24.4-38.95-7.61-7.54-14.24-16.05-21.4-24.04-24.74-27.59-48.15-56.43-77.19-79.86-5.46-4.41-10.38-9.09-17.65-11.24-48.5-14.32-96.9-29.03-145.2-43.97-5.64-1.74-7.84-1.07-10.2,4.49-16.97,40.07-34.24,80.01-51.63,119.92-1.64,3.78-.74,5.41,2.57,6.88,3.7,1.64,5.66,4.54,7.09,8.48,28.02,77.66,56.21,155.25,84.25,232.9,1.24,3.42,3.18,5.98,5.74,8.34,20.51,18.99,41.04,37.98,61.48,57.04,37.49,34.93,74.96,69.9,112.33,104.97,2.86,2.68,4.9,2.96,8.39,1.11,42.96-22.74,85.91-45.47,129.14-67.68,6.8-3.5,8.97-7.75,9.44-14.86,1.58-23.83,4.09-47.58,5.53-71.41.46-7.69,3.62-15.58-.07-23.3ZM978.39,466.63c-9.14,32.11-17.64,64.39-23.19,97.35-.58,3.51-2.18,4.53-5.31,5.33-25.85,6.66-51.69,13.37-77.44,20.45-4.7,1.29-7.89.34-11.57-2.46-28.32-21.68-55.6-44.63-83.17-67.26-15.03-12.34-30.04-24.7-45.12-36.99-3.67-2.98-6.58-6.36-8.68-10.69-13.39-27.5-27.08-54.85-40.39-82.38-4.71-9.74-5.32-20.69-7.92-31.07-3.03-12.16-5.2-24.54-8.16-36.72-1.38-5.68-.94-11.3-.73-16.92.68-19.22,1.68-38.43,2.46-57.65.1-2.34.86-4.31,1.91-6.3,8.75-16.69,17.47-33.37,26.16-50.09,1.27-2.42,2.55-4.21,5.86-4.31,19.42-.55,38.84-1.34,58.26-2.05,2.73-.71,5.08.15,7.47,1.52,30.16,17.45,59.73,35.86,89.09,54.64,9.61,6.16,15.87,14.87,22.62,23.4,12.57,15.88,24.8,32.05,37.46,47.86,8.34,10.43,11.01,23.31,16.08,35.14,5.66,13.2,10.32,26.85,15.93,40.06,6.18,14.53,8.05,30.06,10.9,45.31,1.64,8.78,4.85,15.68,12.64,20.01,5.87,3.28,6.74,7.16,4.85,13.81Z"/>
    <path class="cls-9"
          d="M621.14,541.73c-45.34,34-90.62,68.08-135.79,102.32-3.09,2.35-4.98,2.27-7.73.05-4.56-3.67-9.31-7.09-15.02-11.41-.6,8.47-1.25,15.65-1.52,22.86-.12,3.13-1.06,5.21-3.74,7.03-13.58,9.2-27.1,18.48-40.48,27.97-2.9,2.05-3.69,1.88-4.81-1.55-11.16-34.24-22.5-68.43-33.75-102.65-.49-1.49-1.36-2.94-.39-4.64,4.07-7.16,6.64-15.04,12.68-21.24,56.64-58.04,114.38-114.98,171.47-172.57,1.55-1.57,2.66-3.58,4.95-6.72,3.68,9.9,6.58,17.74,9.49,25.57,15.66,42.32,31.29,84.66,47.08,126.93,1.38,3.69.68,5.74-2.42,8.06Z"/>
    <path class="cls-11"
          d="M739.67,642.47c-14.86,7.83-29.71,15.7-44.58,23.51-9.85,5.18-19.74,10.28-29.64,15.41-1.78.93-3.52,2.06-6.46,1.78-3.72-1.07-8.23-2.2-12.61-3.72-2.62-.91-4.43-.56-5.12,2.17-3.26,13.17-14.28,17.59-24.96,22.51-12.33,5.65-24.59,11.43-36.82,17.26-20.46,9.76-40.79,19.82-61.37,29.33-7.99,3.7-15.59,4.59-24.15-1.38-23.55-16.41-47.89-31.66-71.91-47.39-5.37-3.52-5.36-4.02-.15-7.63,12.47-8.61,24.69-17.64,37.55-25.62,6.54-4.06,8.39-8.97,7.75-15.98-.19-2.2-1.35-5.35,1.22-6.67,2.42-1.24,3.78,1.75,5.48,2.96,7.58,5.3,7.54,5.37,15.13-.32,36.82-27.61,73.66-55.21,110.44-82.88,7.92-5.94,15.75-11.99,23.45-18.21,3.67-2.97,6.75-3.41,10.54-.13,10.97,9.53,22.14,18.83,33.25,28.22,14.02,11.86,28.03,23.75,42.1,35.57,10.67,8.94,21.41,17.8,32.16,26.65,3.19,2.63.74,3.48-1.3,4.56Z"/>
    <path class="cls-6"
          d="M675.98,501.97c-15.26,10.23-30.2,20.97-45.76,31.88-6.16-16.52-12.19-32.57-18.14-48.65-18.94-51.17-37.89-102.35-56.75-153.55-4.67-12.66-4.86-26.2-7.42-39.28-.6-3.06,1.8-5.14,4.04-7.02,10.26-8.58,20.48-17.2,30.7-25.81,7.21-6.09,11.3-4.86,14.68,4.4,5.12,14.07,10.26,28.11,15.36,42.18,22.29,61.57,44.47,123.18,66.99,184.68,2.01,5.49.94,8.05-3.7,11.17Z"/>
    <path class="cls-1"
          d="M861.71,673.72c-10.4,8.98-20.67,18.12-30.83,27.38-2.25,2.06-3.45,2.17-5.88.1-24.82-21.04-49.82-41.85-74.69-62.84-24.71-20.85-49.32-41.84-74.01-62.73-13.12-11.1-26.19-22.24-39.55-33.03-3.5-2.83-2.79-3.82.34-5.99,14.98-10.33,29.83-20.87,44.73-31.32.97-.68,1.97-1.33,3.17-2.12,1.05.85,2.01,1.55,2.87,2.35,17.2,15.97,34.41,31.91,51.57,47.93,31.79,29.7,63.53,59.45,95.34,89.14,8.87,8.28,17.82,16.48,26.88,24.54,2.74,2.45,3.05,4.01.06,6.59Z"/>
    <path class="cls-10"
          d="M250.34,881.17c-1.94,28.95-27.26,60.05-55.31,67.76-2.1.58-4.4.61-6.59.62-14.6.05-29.21-.09-43.8.09-4.57.06-8.82-.74-13.01-2.42-33.9-13.65-53.68-38.66-59.48-74.62-1.5-9.27.27-18.19,6.42-25.79,8.39-10.37,14.41-22,18-34.84.83-2.97,2.58-4.9,4.9-6.65,18.79-14.31,39.96-21.94,63.58-22.66,4.31-.13,8.21,1.4,12.78,3.43-10.95,9.49-21.38,18.73-32.05,27.69-21.16,17.77-21.01,55.88.54,73.3,19.96,16.13,42.5,18.71,66.48,11.62,6.93-2.05,11.56-8.04,17.32-12.11,4.3-3.03,8.37-6.39,12.49-9.68,1.73-1.39,3.31-1.95,5.52-.82,2.31,1.18,2.36,2.95,2.22,5.07Z"/>
    <path class="cls-10"
          d="M390.98,809.89c-2.86,11.32-3.17,21.52-11.75,28.87-5.06,4.31-9.39,9.53-13.74,14.59-12.69,14.79-28.82,21.38-48.14,20.98-11.95-.26-24.34,1.74-35.76-.77-11.45-2.5-20.21-12.56-31.11-17.25-17.56-7.55-28.11-21.3-37.81-36.88-10.5-16.85-13.91-35.66-18.11-54.37-6.6-29.31,11.29-63.53,37.76-79.69,6.48-3.97,14.95-4.73,22.55-6.82,7.02-1.92,14.25-3.22,21.11-5.59,6.98-2.42,13.47-1.44,21.11,1.04-8.38,7.86-17.77,12.79-26.19,19.03-2.77,2.05-5.59,4.06-8.55,5.79-21.91,12.84-29.37,34.01-31.17,57.27-3.89,50.01,33.14,81.99,76.36,86.9,20.11,2.29,38.09-1.62,54.48-13.58,8.94-6.52,18.36-12.39,28.97-19.5Z"/>
    <path class="cls-11"
          d="M401.23,747.29c.05,4.14-7.6,6.27-11.85,9.26-33.05,23.18-66.03,46.42-97.82,71.29-3.78,2.96-6.86,3.68-11.34,1.51-12.79-6.24-23.7-14.49-31.54-26.57-1.45-2.23-2.29-3.85.76-5.23,27.1-12.31,49.23-32.34,74.28-47.83,16.03-9.93,30.9-21.23,46.07-35.17.11,14.01,11.45,16.87,19.35,22.98,4.24,3.28,12.03,4.96,12.1,9.74Z"/>
    <path class="cls-9"
          d="M363.84,711.7c-13.63,12.8-28.5,23.89-44.47,33.61-20.39,12.41-38.37,28.45-59.4,39.93-1.78.97-3.5,2.05-5.32,2.91-12.53,5.94-10.65,8.19-15.4-7.03-.9-2.87-1.58-5.88-1.89-8.87-.32-3.22-.07-6.48-.07-10.28-1.75-9.98,1.84-16.7,11.68-22.51,34.85-20.57,68.99-42.33,103.35-63.7,3.12-1.94,5.02-2.86,6.22,1.91,2.23,8.81,4.81,17.54,7.63,26.19,1.14,3.48.12,5.54-2.33,7.84Z"/>
    <path class="cls-11"
          d="M234.32,875.71c-4.68,3.51-9.38,7.02-13.78,10.88-8.77,7.7-19.31,9.44-32.8,9.7-16.25-1.05-33-6.26-44.74-21.91-8.04-10.72-8.26-22.81-5.02-35.25,2.8-10.73,8.7-19.21,17.74-25.88,7.28-5.38,13.93-11.63,20.71-17.67,2.64-2.34,3.89-3.85,5.19,1.25,3.39,13.22,9.35,25.31,17.45,36.38,3.81,5.21,7.24,10.73,10.49,16.31,5.59,9.56,15.85,12.79,24.43,18.22,6.15,3.9,6.33,3.47.33,7.98Z"/>
    <path class="cls-6"
          d="M404.95,701.66c-7.77,5.12-15.46,10.38-22.83,16.04-4.06,3.12-5.1,2.22-6.39-2.3-10.78-37.88-21.77-75.7-32.69-113.54-1.91-6.6-3.9-13.18-5.7-19.81-.37-1.35-1.96-3.65,1.46-3.81,10.48,2.35,20.93,4.69,31.37,7.06,2.24.51,2.28,2.73,2.81,4.34,11.51,34.9,22.9,69.84,34.52,104.7,1.21,3.62.49,5.31-2.55,7.31Z"/>
    <path class="cls-1"
          d="M499.03,763.76c-2.03,11.68-3.54,23.47-5.43,36.51-13.72-9.12-26.49-17.56-39.21-26.1-22.67-15.2-45.23-30.56-67.98-45.62-4.24-2.79-4.12-4.02.01-6.67,7.82-5.01,15.41-10.41,22.88-15.94,2.75-2.03,4.88-2.05,7.61-.24,26.48,17.48,52.99,34.93,79.56,52.3,2.33,1.52,3.09,2.74,2.56,5.77Z"/>
    <path class="cls-12"
          d="M563.48,376.14c-2.31,5.72-8.92,9.7-13.53,14.52-48.77,50.91-99.41,99.98-148.94,150.14-.69.71-1.46,1.34-2.19,2.01,9.57-19.28,16.43-39.66,32.1-55.8,29.27-30.15,56.88-61.91,85.25-92.94,11.74-12.84,23.75-25.43,35.49-38.26,3.09-3.37,5.16-4.41,6.47,1.1,1.57,6.59,7.89,12.95,5.36,19.23Z"/>
    <path class="cls-15"
          d="M434.94,773.66c-28.54,18.73-56.86,37.81-85.45,56.48-9.4,6.14-20.37,7.31-31.35,7.72-6.71.02-13.2-1.51-19.77-2.5-1.21-.18-2.69-.09-3.12-1.4-.55-1.72,1.1-2.38,2.18-3.19,17.3-12.89,34.43-26.02,51.95-38.6,18.03-12.95,36.51-25.29,54.61-38.13,3.79-2.69,6.57-2.67,10.21.04,6.64,4.93,13.58,9.46,20.41,14.14,2.5,1.71,4.26,2.86.33,5.43Z"/>
    <path class="cls-14"
          d="M615.61,736.99c-3.57,10.76-5.96,21.12-10.48,30.44-2.73,5.6-7.76,10.39-15.01,12.27-28.71,7.44-57.3,15.34-85.87,23.28-3.95,1.1-5.04.62-4.37-3.57,1.78-11.12,2.57-22.47,5.27-33.35,1.45-5.79,8.67-7.22,13.85-8.28,27.8-5.74,55.71-10.88,83.63-15.99,4.31-.79,7.56-3.81,12.97-4.79Z"/>
    <path class="cls-15"
          d="M753.97,662.08c-39.79,19.53-79.47,39.29-119.49,58.31-11.27,5.36-21.83,12.7-34.17,15.43-18.06,3.98-36.3,7.16-54.46,10.66-.68.13-1.44-.12-3.59-.33,14.82-7.15,28.43-13.69,42.02-20.24,17.49-8.43,35.01-16.83,52.47-25.31,4.49-2.18,4.75-7.28,7.16-10.9,1.16-1.74,1.74-4.92,4.73-3.18,11.92,6.98,21.18-.56,30.83-5.51,13.67-7,27.19-14.32,40.77-21.51,6.8-3.59,13.73-6.96,20.33-10.86,5.31-3.14,9.2-3.31,14.36,1.21,8.77,7.67,9.26,7.22-.96,12.24Z"/>
    <path class="cls-13"
          d="M409.96,503.92c-12.13,24.01-24.14,48.06-36.15,72.13-.96,1.92-1.77,3.9-3.87,2.78-10.51-2.3-20.38-4.49-30.26-6.6-4.3-.91-2.31-3.19-1.22-5.25,7.56-14.3,15.14-28.59,22.73-42.86,6.44-12.14,13.03-24.22,19.28-36.46,1.61-3.15,2.83-3.53,5.8-1.71,7.22,4.45,14.63,8.64,22.05,12.75,2.42,1.35,2.97,2.58,1.64,5.21Z"/>
    <path class="cls-12"
          d="M350.82,669.49c-18.51,11.6-37.1,23.08-55.68,34.57-16.01,9.9-32.02,19.77-48.04,29.65-1.64,1.01-3.01,2.64-5.75,2.53,4.71-12.16,9.68-23.39,21.49-30.55,27.93-16.94,52.47-38.42,77.48-59.25,2.16-1.8,4.45-3.44,7.36-5.69,2.51,8.38,4.97,16.2,7.13,24.11.79,2.94-2.29,3.57-3.98,4.63Z"/>
    <path class="cls-13"
          d="M630.96,141.5c-14.91,34.74-29.89,69.44-44.82,104.18-1.39,3.24-3.31,5.82-6.1,8.08-7.86,6.36-15.47,12.98-24.11,18.89,4.69-10.63,9.38-21.28,14.08-31.93,10.04-22.74,20.17-45.45,30.09-68.25,2.46-5.65,5.54-10.6,10.01-14.95,7.31-7.13,14.15-14.73,21.67-22.61,1.27,3.5-.13,4.99-.82,6.58Z"/>
    <path class="cls-6"
          d="M177.6,955.8c-4.98,3.91-9.15,6.41-14.86,5.96-13.24-1.04-26.61,1.73-39.79-2.35-49.78-15.42-68.31-58.42-62.44-98.08.69-4.73,2.58-8.92,5.34-12.74,3.91-5.44,7.19-11.22,9.53-17.53q3.53-9.51,13.53-15.75c-2.92,9.12-6.46,16.86-12.02,23.24-12.39,14.21-13.2,30.11-8.36,47.27,9.71,34.42,32.06,56.74,65.3,68.8,5.16,1.88,10.41,1.05,15.63,1.14,9.01.16,18.05.04,28.15.04Z"/>
    <path class="cls-14"
          d="M1007.84,602.25c-.05,9.57-6.11,13.84-13.28,17.44-32.21,16.24-64.37,32.55-96.52,48.89-13.36,6.78-26.65,13.72-39.99,20.56-1.73.89-3.53,1.64-5.62,1.97,8.61-9.6,18.15-17.87,29.74-23.83,30.09-15.43,60.03-31.15,89.99-46.82,9.68-5.07,19.21-10.41,28.87-15.52,2.07-1.11,4.02-2.72,6.8-2.7Z"/>
    <path class="cls-4"
          d="M219.44,848.01c-1.94,1.12-2.81.67-3.92-.91-14.77-21.35-29.01-42.84-31.72-69.81-1.21-12.05.24-23.79,1.73-35.62.22-1.73.55-3.63,3.33-4.9-5.63,22.19,2.62,42.19,7.78,62.57,4.12,16.29,15.2,28.83,23.92,42.62,1.81,2.87,1.9,4.29-1.12,6.04Z"/>
    <path class="cls-8"
          d="M273.25,878.07c-1.63,3.9-3.96,3.47-6.86,1.75-10.73-6.38-21.54-12.64-32.3-18.98-2.42-1.43-4.9-2.8-7.17-4.46-1.33-.97-4.84-.95-3.18-3.7,1.36-2.25,3.84-2.97,6.77-1.17,10.13,6.2,20.46,12.1,30.68,18.16,3.29,1.95,6.52,4,9.73,6.08.95.61,2.19,1.08,2.33,2.31Z"/>
    <path class="cls-8"
          d="M427.42,482.46c-4.02,4.09-7.59,7.77-11.23,11.36-1.43,1.39-2.98.74-4.45-.11-5.35-3.14-10.69-6.27-16.03-9.42.12-.61.26-1.22.38-1.84h31.33Z"/>
    <path class="cls-5" d="M312.5,881.19c-10.88,2.29-21.89,1.29-32.86,1.61-.02-.54-.05-1.07-.07-1.61h32.94Z"/>
    <path class="cls-3"
          d="M674.38,268.7c.23-1.15.79-2.34.62-3.42-3.11-20.51,9.68-35.54,17.94-52.13,2.62-5.25,5.41-10.43,7.88-15.75,1.44-3.11,3.29-4.53,6.93-4.54,16.74-.09,33.47-.73,50.15-2.36,8.31-.8,13.91,4.79,20.21,8.44,26.55,15.38,52.61,31.61,78.22,48.54,4.12,2.73,4.07,4.64,1.34,8.11-5.86,7.44-11.52,15.06-17.14,22.68-2.17,2.96-3.57,4.57-6.58.39-4.14-5.79-9.84-9.94-16.26-13.33-18.42-9.7-36.66-19.72-55.63-28.38-10.41-4.75-21.07-5.38-32.39-4.3-11.53,1.12-22.69,3.12-33.62,6.87-3.13,1.08-4.88,2.95-6.44,5.77-4.45,8.08-9.26,15.94-13.91,23.89-.44-.16-.89-.32-1.33-.48Z"/>
    <path class="cls-3"
          d="M844.01,283.56c6.58-8.17,12.92-16.55,18.95-25.14,2.4-3.42,3.11-2.64,5.27.17,14.77,19.17,29.78,38.17,44.7,57.24.61.77,1.16,1.58,1.56,2.12-.19,1.88-1.4,2.3-2.44,2.9-8.22,4.74-16.48,9.42-24.67,14.24-2.5,1.46-3.72.88-5.2-1.56-10.16-16.7-23.03-31.17-37.39-44.31-2.16-1.97-2.97-2.94-.79-5.65Z"/>
    <path class="cls-3"
          d="M861.05,570.82c-10.33.13-16.75-3.92-23.5-9.43-34.11-27.87-68.1-55.9-102.13-83.85-2.55-2.1-4.36-4.67-5.82-7.65-13.46-27.46-27.32-54.73-40.38-82.37-5.35-11.34-5.98-24.23-9.07-36.33-2.11-8.21-3.26-16.65-5.46-24.82-1.71-6.37-2.31-12.7-1.84-19.6-.91-6.72.83-13.72,1.25-20.77.4-6.42,5.69-10.97,8.5-16.53,2.28-4.51,5.6-8.51,7.55-13.13,3.68-8.68,10.1-12.98,19.12-14.62,13.12-2.38,26.14-4.96,39.62-2.77,3.3.54,6.26,1.69,9.15,2.96,20.77,9.15,40.59,20.17,60.6,30.82,4.31,2.29,6.7,6.37,9.91,9.67,10.56,10.88,22.46,20.34,32.29,32.05,11.19,13.33,19.65,28.09,27,43.73,10.23,21.74,18.76,44.31,31.68,64.79,9.25,14.64,12.01,31.61,15.55,48.2,5.55,26.03,2.2,50.98-9.4,74.9-1.5,3.07-3.53,5.27-6.65,6.69-3.87,1.75-7.82,3.48-11.4,5.74-14.28,9.01-29.57,12.1-46.59,12.33Z"/>
    <path class="cls-3"
          d="M890.15,340.44c8.43-4.8,16.85-9.62,25.25-14.46,1.74-1,3.17-1.64,4.2,1,8.72,22.4,17.53,44.75,26.3,67.13.15.38.23.77.34,1.16.16,2.11-1.61,2.05-2.85,2.45-7.88,2.52-15.8,4.92-23.65,7.53-2.18.72-3.42.27-4.36-1.75-9.03-19.42-18.05-38.84-27.15-58.24-1.18-2.53-.04-3.69,1.92-4.81Z"/>
    <path class="cls-3"
          d="M946.01,403.43c4.21-1.29,3.48,2.52,3.87,4.32,1.92,8.86,3.52,17.77,5.2,26.66,1.63,8.7,2.59,17.76,13.31,21.27-.27.58-.54,1.18-.79,1.78-8.9,1.13-17.8,2.33-26.7,3.4-2.5.29-2.27-2.16-2.5-3.4-2.85-15.49-8.43-29.88-17.03-43.07-1.14-1.75-1.29-2.9.94-3.59,7.89-2.46,15.79-4.95,23.69-7.37Z"/>
    <path class="cls-3"
          d="M971.48,468.03c-5.09,18.47-10.01,36.98-14.48,55.6-2.78,11.52-4.7,23.27-6.87,34.93-.51,2.74-1.02,4.76-4.35,5.62-25.2,6.44-50.33,13.13-75.51,19.7-5.13,1.34-7.8-2.98-10.44-5.75-1.68-1.74,1.66-1.85,2.97-1.88,6.69-.11,13.37-.16,20.05-.04,2.96.06,5.54-.73,8.1-2.1,8.39-4.46,16.53-9.61,25.35-13.02,9.88-3.84,14.96-11.1,18.59-20.22,5.88-14.79,8.56-30.18,9.25-48.05-.74-5.8-1.28-13.68-2.94-21.32-.93-4.32.39-4.59,3.93-4.93,7.41-.73,14.79-1.8,22.14-2.83,4.71-.67,5.6-.77,4.2,4.28Z"/>
    <path class="cls-2"
          d="M925.69,546.07c-1.5,3.07-3.53,5.27-6.65,6.69-3.87,1.75-7.82,3.48-11.4,5.74-14.28,9.01-29.57,12.1-46.59,12.33-10.33.13-16.75-3.92-23.5-9.43-34.11-27.87-68.1-55.9-102.13-83.85-2.55-2.1-4.36-4.67-5.82-7.65-13.46-27.46-27.32-54.73-40.38-82.37-5.35-11.34-5.98-24.23-9.07-36.33-2.11-8.21-3.26-16.65-5.46-24.82-1.71-6.37-2.31-12.7-1.84-19.6-.91-6.72.83-13.72,1.25-20.77.4-6.42,5.69-10.97,8.5-16.53,2.28-4.51,5.6-8.51,7.55-13.13,3.68-8.68,10.1-12.98,19.12-14.62,13.12-2.38,26.14-4.96,39.62-2.77,3.3.54,6.26,1.69,9.15,2.96,20.77,9.15,40.59,20.17,60.6,30.82,4.31,2.29,6.7,6.37,9.91,9.67,10.56,10.88,22.46,20.34,32.29,32.05,11.19,13.33,19.65,28.09,27,43.73,10.23,21.74,18.76,44.31,31.68,64.79,9.25,14.64,12.01,31.61,15.55,48.2,5.55,26.03,2.2,50.98-9.4,74.9Z"/>
    <path class="cls-14"
          d="M857.68,255.59c-5.86,7.44-11.52,15.06-17.14,22.68-2.17,2.96-3.57,4.57-6.58.39-4.14-5.79-9.84-9.94-16.26-13.33-18.42-9.7-36.66-19.72-55.63-28.38-10.41-4.75-21.07-5.38-32.39-4.3-11.53,1.12-22.69,3.12-33.62,6.87-3.13,1.08-4.88,2.95-6.44,5.77-4.45,8.08-9.26,15.94-13.91,23.89-.44-.16-.89-.32-1.33-.48.23-1.15.79-2.34.62-3.42-3.11-20.51,9.68-35.54,17.94-52.13,2.62-5.25,5.41-10.43,7.88-15.75,1.44-3.11,3.29-4.53,6.93-4.54,16.74-.09,33.47-.73,50.15-2.36,8.31-.8,13.91,4.79,20.21,8.44,26.55,15.38,52.61,31.61,78.22,48.54,4.12,2.73,4.07,4.64,1.34,8.11Z"/>
    <path class="cls-14"
          d="M971.48,468.03c-5.09,18.47-10.01,36.98-14.48,55.6-2.78,11.52-4.7,23.27-6.87,34.93-.51,2.74-1.02,4.76-4.35,5.62-25.2,6.44-50.33,13.13-75.51,19.7-5.13,1.34-7.8-2.98-10.44-5.75-1.68-1.74,1.66-1.85,2.97-1.88,6.69-.11,13.37-.16,20.05-.04,2.96.06,5.54-.73,8.1-2.1,8.39-4.46,16.53-9.61,25.35-13.02,9.88-3.84,14.96-11.1,18.59-20.22,5.88-14.79,8.56-30.18,9.25-48.05-.74-5.8-1.28-13.68-2.94-21.32-.93-4.32.39-4.59,3.93-4.93,7.41-.73,14.79-1.8,22.14-2.83,4.71-.67,5.6-.77,4.2,4.28Z"/>
    <path class="cls-1"
          d="M914.5,317.95c-.19,1.88-1.4,2.3-2.44,2.9-8.22,4.74-16.48,9.42-24.67,14.24-2.5,1.46-3.72.88-5.2-1.56-10.16-16.7-23.03-31.17-37.39-44.31-2.16-1.97-2.97-2.94-.79-5.65,6.58-8.17,12.92-16.55,18.95-25.14,2.4-3.42,3.11-2.64,5.27.17,14.77,19.17,29.78,38.17,44.7,57.24.61.77,1.16,1.58,1.56,2.12Z"/>
    <path class="cls-7"
          d="M946.24,395.26c.16,2.11-1.61,2.05-2.85,2.45-7.88,2.52-15.8,4.92-23.65,7.53-2.18.72-3.42.27-4.36-1.75-9.03-19.42-18.05-38.84-27.15-58.24-1.18-2.53-.04-3.69,1.92-4.81,8.43-4.8,16.85-9.62,25.25-14.46,1.74-1,3.17-1.64,4.2,1,8.72,22.4,17.53,44.75,26.3,67.13.15.38.23.77.34,1.16Z"/>
    <path class="cls-1"
          d="M968.4,455.69c-.27.58-.54,1.18-.79,1.78-8.9,1.13-17.8,2.33-26.7,3.4-2.5.29-2.27-2.16-2.5-3.4-2.85-15.49-8.43-29.88-17.03-43.07-1.14-1.75-1.29-2.9.94-3.59,7.89-2.46,15.79-4.95,23.69-7.37,4.21-1.29,3.48,2.52,3.87,4.32,1.92,8.86,3.52,17.77,5.2,26.66,1.63,8.7,2.59,17.76,13.31,21.27Z"/>
    <path class="cls-3"
          d="M973.84,452.28h0c-6.79-3.78-10.48-9.64-12.34-19.59-.53-2.84-1.03-5.68-1.52-8.53-2.14-12.3-4.36-25.02-9.42-36.91-2.74-6.45-5.29-13.11-7.76-19.56-2.59-6.76-5.27-13.74-8.17-20.51-1.5-3.5-2.82-7.17-4.09-10.72-3.02-8.44-6.15-17.16-12.08-24.56-7.04-8.8-14.07-17.85-20.86-26.61-5.41-6.98-11.01-14.2-16.59-21.24-.71-.9-1.42-1.8-2.12-2.7-5.88-7.51-11.96-15.27-20.65-20.84-34.43-22.03-62.74-39.4-89.11-54.66-2.14-1.23-4.74-2.38-7.86-1.6-5.01.18-10.03.37-15.04.56-14.14.53-28.77,1.08-43.15,1.49-3.71.11-5.14,2.26-6.38,4.64-8.04,15.46-16.6,31.84-26.16,50.08-.92,1.74-1.87,3.88-1.98,6.56-.32,7.87-.67,15.74-1.03,23.6-.5,11.16-1.03,22.7-1.43,34.05l-.08,1.9c-.2,4.95-.42,10.07.82,15.19,1.41,5.81,2.66,11.76,3.87,17.52,1.33,6.31,2.7,12.84,4.29,19.21.84,3.36,1.48,6.85,2.11,10.23,1.3,7.04,2.64,14.32,5.85,20.97,7.33,15.16,14.9,30.51,22.22,45.36,5.98,12.12,12.15,24.66,18.17,37.02,2.03,4.17,4.84,7.64,8.85,10.9,11.3,9.21,22.76,18.62,33.83,27.72l11.28,9.27c5.65,4.64,11.29,9.29,16.93,13.95,21.5,17.74,43.73,36.08,66.25,53.33,2.82,2.15,5.31,3.16,8.11,3.16,1.25,0,2.56-.2,3.99-.59,26.47-7.28,52.77-14.09,77.43-20.45,3.24-.83,5.12-2.01,5.76-5.82,5.75-34.11,14.54-66.91,23.18-97.28,2.08-7.33.69-11.26-5.14-14.51ZM673.45,306.69c-.6-4.39-.05-8.84.53-13.55.29-2.32.58-4.72.73-7.1.25-4.07,2.54-7.34,4.97-10.8,1.23-1.75,2.5-3.57,3.47-5.49.98-1.94,2.18-3.83,3.35-5.65,1.53-2.39,3.1-4.87,4.22-7.52,3.4-8.04,9.34-12.57,18.67-14.26l1.74-.32c12.24-2.23,24.89-4.53,37.68-2.45,3.29.54,6.27,1.72,9,2.92,17.24,7.6,34.12,16.64,50.44,25.39,3.37,1.81,6.74,3.61,10.11,5.41,2.9,1.54,4.88,3.9,6.97,6.39.89,1.06,1.81,2.15,2.79,3.17,4.13,4.25,8.52,8.35,12.78,12.31,6.64,6.19,13.51,12.59,19.49,19.7,9.94,11.83,18.49,25.69,26.92,43.6,2.86,6.09,5.64,12.34,8.33,18.39,6.91,15.58,14.06,31.68,23.39,46.46,8.17,12.94,11.3,27.98,14.32,42.52.38,1.83.76,3.66,1.15,5.48,5.43,25.45,2.28,50.52-9.35,74.5-1.51,3.08-3.52,5.12-6.35,6.4l-.89.4c-3.56,1.61-7.24,3.27-10.59,5.38-12.81,8.09-27.52,11.98-46.27,12.23-9.63.1-15.77-3.31-23.1-9.29-24.18-19.76-48.7-39.92-72.42-59.43-9.9-8.14-19.81-16.29-29.71-24.42h0c-2.3-1.89-4.1-4.26-5.66-7.45-4.49-9.15-9.02-18.29-13.55-27.42-8.91-17.95-18.12-36.52-26.82-54.94-3.48-7.38-4.98-15.61-6.42-23.56-.76-4.18-1.55-8.5-2.61-12.66-1-3.91-1.81-7.94-2.58-11.85-.85-4.28-1.73-8.7-2.88-12.98-1.69-6.31-2.28-12.66-1.82-19.4v-.06s0-.06,0-.06ZM675.61,265.19c-2.38-15.75,4.89-28.52,11.93-40.86,2.02-3.55,4.12-7.22,5.96-10.91.91-1.82,1.84-3.64,2.77-5.45,1.72-3.36,3.5-6.83,5.12-10.32,1.41-3.04,3.14-4.18,6.38-4.19,18.48-.09,34.9-.87,50.2-2.37,6.21-.6,10.98,2.58,15.6,5.66,1.38.92,2.8,1.87,4.24,2.7,25.73,14.91,52.04,31.23,78.19,48.52,1.88,1.25,2.8,2.26,2.96,3.28.16.99-.37,2.17-1.76,3.95-5.93,7.53-11.75,15.36-17.15,22.7-1.11,1.52-2.03,2.67-2.89,2.67h0c-.7,0-1.61-.77-2.7-2.28-3.78-5.28-9.02-9.58-16.47-13.51-3.57-1.88-7.13-3.77-10.69-5.66-14.58-7.74-29.66-15.75-44.97-22.74-7.13-3.25-14.68-4.81-23.7-4.81-2.84,0-5.83.15-9,.46-13,1.26-23.73,3.46-33.76,6.9-3.02,1.05-4.98,2.8-6.78,6.06-3.14,5.71-6.53,11.42-9.8,16.94-1.29,2.17-2.57,4.33-3.84,6.5l-.34-.12c.05-.17.1-.34.15-.52.25-.85.5-1.73.36-2.61ZM953.45,428.98l1.35,7.22c1.46,8.02,2.97,16.31,12.77,19.84-.13.29-.26.57-.38.86-2.84.36-5.68.73-8.53,1.1-5.84.76-11.88,1.54-17.83,2.25-.5.06-.85,0-1.1-.2-.46-.37-.55-1.22-.63-1.97-.03-.27-.06-.52-.1-.74-2.9-15.75-8.66-30.31-17.12-43.29-.59-.9-.81-1.51-.68-1.86.14-.39.78-.66,1.29-.82l6.29-1.96c5.8-1.81,11.6-3.62,17.4-5.4.51-.16.95-.24,1.32-.24.34,0,.62.07.83.21.62.42.72,1.58.8,2.6.04.47.07.91.16,1.3h0c1.52,7.01,2.86,14.17,4.15,21.09ZM943.97,396.93c-.26.06-.52.12-.76.2-2.93.94-5.86,1.86-8.79,2.78-4.88,1.53-9.93,3.11-14.87,4.75-1.92.63-2.83.27-3.62-1.43l-1.55-3.34c-8.37-18-17.02-36.62-25.6-54.9-.96-2.06-.22-2.94,1.67-4.03,8.43-4.8,16.85-9.62,25.25-14.46.73-.42,1.43-.79,1.96-.79.11,0,.21.02.3.05.39.14.75.62,1.07,1.43,6.07,15.59,12.18,31.15,18.29,46.72l8.01,20.41c.1.25.17.51.23.78l.07.21c.09,1.15-.48,1.34-1.66,1.62ZM913.86,318.11c-.19,1.16-.88,1.53-1.73,2l-.38.21c-2.51,1.45-5.02,2.89-7.54,4.33-5.63,3.23-11.44,6.56-17.13,9.91-2.08,1.22-2.98.94-4.37-1.35-9.35-15.37-21.61-29.9-37.5-44.45-2.1-1.92-2.58-2.52-.73-4.82,6.78-8.42,13.16-16.89,18.98-25.17.35-.49,1.4-1.99,2.05-2.01h0c.54,0,1.37,1.07,2.24,2.2,10.82,14.04,21.94,28.21,32.69,41.92,4.01,5.11,8.01,10.21,12.01,15.32.38.48.74.99,1.05,1.42.12.17.24.33.34.48ZM862.82,576.86c8.03-.13,14.21-.14,20.03-.04,2.88.07,5.52-.63,8.4-2.17,2.38-1.26,4.78-2.61,7.09-3.9,5.85-3.27,11.9-6.66,18.19-9.09,11.27-4.38,16.04-13.29,18.93-20.56,5.62-14.12,8.57-29.46,9.28-48.35-.2-1.58-.39-3.31-.59-5.15-.54-4.98-1.15-10.63-2.36-16.21-.37-1.72-.36-2.76.01-3.27.44-.6,1.57-.75,3.39-.93,6.54-.65,13.15-1.57,19.55-2.46l2.62-.37c1.93-.27,3.6-.51,3.96-.1.43.49-.17,2.68-.43,3.61h0c-5.99,21.73-10.59,39.4-14.49,55.63-2.16,8.96-3.83,18.2-5.45,27.13-.47,2.61-.94,5.22-1.43,7.83-.5,2.69-.96,4.38-3.9,5.14-16.64,4.25-33.53,8.69-49.85,12.98-8.55,2.24-17.1,4.49-25.66,6.72-3.97,1.04-6.33-1.63-8.6-4.21-.42-.48-.83-.95-1.25-1.38-.24-.24-.28-.37-.3-.38.07-.09.5-.42,2.84-.46Z"/>
    <path class="cls-3"
          d="M1025.65,484.88h0c-5.57-11.63-11.1-23.26-16.64-34.91-11.53-24.24-23.46-49.31-35.47-73.84-1.6-3.25-3.07-6.66-4.51-9.95-4.93-11.34-10.02-23.06-20.65-31.22-1.22-.93-1.11-1.89-.82-3.52.09-.48.17-.97.21-1.49.07-1.29.37-2.56.67-3.9.68-2.98,1.39-6.07-.45-9.37l-2.42-4.36c-8.31-15.01-16.91-30.54-29.2-43.68-9.38-10.04-18.65-20.49-27.6-30.61-22.6-25.51-45.95-51.89-73.23-73.73-2.57-2.07-5.01-4.02-8.4-5.04-60.16-18.08-109.93-33.16-156.63-47.47-3.91-1.19-6.26-.57-9,2.34-5.03,5.38-10.21,10.79-15.23,16.03-5.74,5.98-11.67,12.17-17.41,18.36-1.14,1.24-2.39,2.45-3.59,3.63-3.4,3.29-6.89,6.69-8.94,11.32-18.05,40.83-36.13,81.63-54.22,122.45-1.04,2.34-1.92,4.65-1.4,7.36.96,4.81,1.67,9.77,2.35,14.56,1.56,10.99,3.18,22.34,7.94,32.84,1.18,2.58.9,4.24-1.04,6.36-37.72,40.98-76.3,83-114.64,124.9-1.78,1.95-3.48,2.69-6.31,2.75-8.27.17-16.68.44-24.8.71-6.71.22-13.42.44-20.13.6-4.08.09-6.54,1.64-8.48,5.36-16.21,30.93-32.49,61.49-46.26,87.3-1.58,2.97-1.83,5.69-.8,9.1,3.01,10.15,5.99,20.5,8.86,30.5,2.11,7.31,4.2,14.62,6.33,21.91.68,2.35.94,3.65-1.33,5.47-12.62,10.04-25.26,20.63-36.13,29.78-2.22,1.85-4.17,2.28-6.54,1.45-9.89-3.47-20.35-3.11-32.96,1.13-4.71,1.58-9.65,2.8-14.42,4-2.56.63-5.2,1.29-7.78,2-1.3.35-2.62.67-3.93,1-5.65,1.38-11.5,2.81-16.49,6.8-19.27,15.37-32.42,30.68-41.39,48.2-.34.66-.69,1.32-1.05,1.96-1.58,2.92-3.22,5.94-3.5,9.45-.24,3.07-.63,6.2-1.02,9.23-1.08,8.66-2.22,17.6-.2,27.05-1.53-.3-2.98-.68-4.38-1.04-3.19-.83-6.21-1.6-9.45-1.34-15.65,1.27-29.72,4.68-43.01,10.44-9.4,4.07-17.56,10.18-25.46,16.08-4.2,3.15-8.56,6.41-13.03,9.31-5.83,3.78-11.45,8.43-13.01,16.87-.66,3.53-2.41,7.3-4.7,10.07-10.17,12.31-11.94,26.22-11.45,43.31.63,22.36,10.68,44.69,27.56,61.28,16.89,16.6,39.32,26.12,61.54,26.12h.04c3.71,0,7.43-.04,11.15-.07,4.71-.06,9.6-.1,14.4-.07,2.84.05,5.24-.69,7.67-2.28,1.45-.94,2.92-2.01,4.34-3.03,3.87-2.81,7.88-5.72,12.11-6.47,12.96-2.28,24.84-8.44,37.41-19.39,15.64-13.63,25.26-31.96,28.6-54.51,1.77.73,3.37,1.79,4.95,2.81,2.66,1.74,5.41,3.54,8.87,3.7,21.83.95,45.04.95,67.61-10.22,1.04-.51,2.06-1.02,3.08-1.52,11.73-5.75,22.79-11.17,30.99-21.83,2.85-3.7,6.19-7.24,9.94-10.48,7.11-6.15,11.36-13.91,13.02-23.7.29-1.73.69-3.47,1.08-5.16.54-2.4,1.11-4.88,1.39-7.38.26-2.35,1.19-3.78,3.47-5.26,11.89-7.72,25.88-16.86,39.57-26.04,2.35-1.58,3.81-1.56,6.24.1,7.8,5.35,15.77,10.69,23.48,15.87,7.49,5.03,15.24,10.22,22.81,15.4,3.11,2.12,5.76,2.55,9.45,1.52,27.99-7.77,55.4-15.32,83.08-22.45,9.04-2.31,15.94-6.35,21.74-12.69,3.25-3.56,4.65-7.67,6.02-11.64.22-.66.45-1.32.68-1.97l.28-.8c2.75-7.82,5.59-15.9,8.04-23.95.91-2.98,2.4-4.69,5.32-6.1,50.73-24.73,95.25-46.52,136.08-66.64,2.98-1.46,4.69-1.24,7.27.96,8.87,7.6,17.95,15.23,26.75,22.62,8.28,6.97,16.86,14.17,25.24,21.33,2.97,2.55,5.23,2.8,8.6,1,7.03-3.79,14.29-7.45,21.29-11,3.14-1.58,6.29-3.18,9.43-4.77,47.49-24.3,94.97-48.59,142.44-72.94.37-.18.77-.35,1.16-.52,1.47-.62,3.15-1.33,3.84-3.34,1-2.9,2.25-5.81,3.47-8.61,2.45-5.66,4.98-11.52,5.55-17.81,1.96-21.8,3.7-43.98,5.37-65.43.85-10.89,1.71-21.77,2.59-32.66.28-3.41-.79-6.19-1.88-8.45ZM289.05,882.13c-2.9-.01-5.88-.02-8.83.05l-.02-.38h23.51c-4.91.39-9.83.35-14.65.33ZM500.48,799.5c.61-3.79,1.11-7.66,1.6-11.41.93-7.25,1.9-14.74,3.68-21.89,1.34-5.37,8.22-6.78,13.37-7.83,26.7-5.51,52.57-10.3,83.62-15.99,2.11-.39,3.93-1.27,5.87-2.2,1.86-.89,3.78-1.81,6.08-2.36-.95,2.92-1.83,5.83-2.68,8.65-1.11,3.67-2.18,7.24-3.37,10.68-1.18,3.45-2.5,6.8-4.06,10.02-2.94,6.03-8.12,10.27-14.6,11.95-29.01,7.52-58.34,15.62-85.89,23.28-1.33.37-2.91.73-3.45.26-.39-.35-.45-1.38-.17-3.14ZM305.28,873.96c-7.88.33-16.02.66-23.56-1-6.52-1.41-12.05-5.26-17.91-9.34-4.15-2.89-8.45-5.87-13.09-7.87-16.69-7.17-27.08-19.84-37.54-36.64-9.42-15.12-13.18-32.19-16.81-48.71-.4-1.83-.8-3.65-1.22-5.48-6.24-27.69,10.23-62.4,37.48-79.03,4.48-2.75,10.07-3.96,15.47-5.13,2.29-.5,4.67-1.01,6.92-1.63,2.58-.71,5.24-1.34,7.81-1.95,4.42-1.05,8.99-2.14,13.34-3.65,2.78-.96,5.47-1.34,8.1-1.34,4.06,0,7.93.91,11.63,2.07-5.19,4.71-10.78,8.4-16.19,11.97-3.06,2.01-6.21,4.09-9.18,6.3-2.62,1.94-5.47,3.98-8.49,5.75-19.29,11.3-29.29,29.65-31.47,57.75-1.84,23.68,5.31,44.71,20.68,60.83,14.03,14.7,34,24.19,56.21,26.72,21.05,2.4,39-2.08,54.91-13.7,6.04-4.4,12.33-8.53,18.99-12.89,2.8-1.85,5.69-3.74,8.66-5.72-.44,1.83-.82,3.63-1.18,5.38-.9,4.28-1.74,8.27-3.19,11.9-1.44,3.63-3.5,6.89-6.81,9.74-4.68,3.98-8.77,8.76-12.72,13.39l-1.1,1.27c-12.34,14.39-27.89,21.18-47.66,20.77-4-.09-8.11.09-12.08.24ZM76.41,838.15c-11.33,13.01-14.02,28.21-8.48,47.85,9.46,33.53,31.56,56.82,65.68,69.2,3.96,1.44,7.97,1.33,11.86,1.23,1.29-.04,2.64-.07,3.96-.05,6.22.11,12.46.09,19.05.06,2.39-.01,4.82-.02,7.31-.02-4.06,3.03-7.52,4.79-11.75,4.79-.41,0-.83-.01-1.25-.05-2.44-.19-4.91-.26-7.36-.26s-4.64.06-6.92.11c-8.36.21-17,.41-25.38-2.18-53.95-16.71-67.13-62.91-62.02-97.41.66-4.41,2.36-8.49,5.24-12.47,4.24-5.91,7.38-11.68,9.6-17.67,3.28-8.84,3.44-9.26,11.85-14.54-3.15,9.4-6.69,16.05-11.38,21.43ZM144.63,949.03c-4.46.07-8.62-.72-12.77-2.38-33.46-13.48-53.35-38.43-59.11-74.16-1.56-9.7.55-18.21,6.3-25.31,8.42-10.39,14.52-22.19,18.11-35.06.69-2.47,2.1-4.36,4.68-6.32,18.71-14.25,39.99-21.83,63.24-22.53.16-.01.33-.01.49-.01,3.78,0,7.32,1.33,11.15,3.01-3.02,2.61-5.99,5.2-8.94,7.78-7.66,6.67-14.88,12.98-22.38,19.27-10.13,8.51-16.1,22.51-15.97,37.43.15,15.03,6.16,28.44,16.52,36.81,18.97,15.32,41.52,19.27,67.03,11.73,4.79-1.41,8.51-4.67,12.12-7.81,1.73-1.51,3.52-3.07,5.38-4.39,3.54-2.5,6.97-5.26,10.29-7.93l2.22-1.78c1.52-1.22,2.86-1.78,4.86-.76,1.58.82,1.94,1.9,1.94,3.36,0,.35-.02.73-.05,1.13-1.92,28.78-27.05,59.56-54.86,67.21-2.06.57-4.39.58-6.43.6-5.51.01-11.01.01-16.52,0-8.95-.01-18.2-.02-27.3.09ZM220.05,842.3c.97,1.55,1.3,2.47,1.13,3.18-.16.65-.82,1.29-2.05,2.01-1.6.93-2.16.63-3.12-.73-16.32-23.61-29.03-43.7-31.61-69.53-1.22-12.1.28-23.98,1.73-35.48.18-1.47.46-2.73,1.79-3.73-4.08,17.82.6,34.42,5.13,50.49,1.01,3.61,2.06,7.32,3,10.99,3.09,12.29,10.22,22.58,17.1,32.55,2.31,3.34,4.7,6.78,6.89,10.26ZM198.59,833.56c3.28,4.49,6.6,9.66,10.45,16.26,4.23,7.24,11.11,10.94,17.76,14.52,2.29,1.23,4.67,2.51,6.87,3.91l1.07.67c1.95,1.23,3.35,2.11,3.37,2.63.02.55-1.49,1.68-3.58,3.25l-1.01.76c-4.47,3.35-9.1,6.82-13.37,10.57-8.62,7.58-19.2,9.29-32.36,9.55-19.82-1.28-34.31-8.37-44.29-21.67-7.08-9.43-8.64-20.46-4.92-34.73,2.75-10.52,8.48-18.88,17.52-25.55,5.99-4.43,11.64-9.51,17.1-14.43,1.22-1.1,2.42-2.18,3.64-3.28l.46-.4c.91-.83,1.79-1.61,2.27-1.61.04,0,.07.01.11.01.12.04.3.18.54.61.23.43.52,1.14.83,2.34,3.29,12.87,9.2,25.18,17.55,36.59ZM227.28,855.91c-.45-.33-1.04-.54-1.61-.74-.74-.27-1.57-.57-1.73-1.01-.12-.33.11-.8.32-1.15.57-.95,1.36-1.58,2.28-1.8,1.08-.26,2.34.02,3.65.84,6.49,3.97,13.18,7.88,19.65,11.67,3.68,2.16,7.37,4.31,11.05,6.49,3.59,2.13,7.08,4.36,9.71,6.07.17.11.37.22.55.33.82.49,1.35.83,1.47,1.4-.58,1.33-1.25,2.11-2.05,2.36-.91.3-2.11-.02-3.87-1.06-6.81-4.06-13.76-8.12-20.49-12.06-3.95-2.3-7.88-4.6-11.82-6.92l-1.19-.69c-1.99-1.17-4.04-2.36-5.92-3.73ZM630.81,140.41c-.15.29-.29.57-.41.85-8.7,20.26-17.41,40.49-26.13,60.73-6.24,14.48-12.47,28.97-18.7,43.45-1.36,3.19-3.25,5.69-5.92,7.84-1.83,1.47-3.63,2.96-5.43,4.45-5.38,4.42-10.93,8.99-16.87,13.18l3.05-6.88c3.39-7.69,6.77-15.37,10.17-23.06,3.05-6.92,6.11-13.82,9.17-20.74,6.89-15.55,14.01-31.63,20.91-47.5,2.64-6.09,5.79-10.77,9.88-14.75,5.05-4.93,9.82-10.01,14.86-15.38,2-2.14,4.03-4.3,6.1-6.48.49,2.02-.11,3.18-.68,4.3ZM363.43,711.27c-13.09,12.29-28.03,23.58-44.37,33.52-9.04,5.51-17.74,11.82-26.15,17.92-10.58,7.67-21.52,15.62-33.23,22-.58.33-1.17.66-1.74.99-1.16.66-2.34,1.34-3.54,1.91-1.95.91-3.57,1.77-4.87,2.45-2.77,1.44-4.43,2.3-5.35,1.92-1.1-.46-1.9-3.07-3.35-7.81-.29-.97-.62-2.05-.99-3.23-.96-3.05-1.58-5.98-1.86-8.75-.22-2.17-.17-4.41-.12-6.77.02-1.11.05-2.25.04-3.56-1.69-9.62,1.72-16.16,11.39-21.88,26.47-15.62,52.95-32.19,78.56-48.22,8.27-5.16,16.53-10.34,24.8-15.49,1.61-.99,2.9-1.73,3.71-1.4.63.26,1.17,1.25,1.61,2.95,2.11,8.36,4.6,16.93,7.64,26.24,1.08,3.3.02,5.14-2.17,7.21ZM393.6,753.45c-1.6.83-3.24,1.68-4.57,2.61-36.69,25.74-67.2,47.33-97.85,71.32-3.85,3.02-6.65,3.4-10.69,1.44-13.97-6.81-24.22-15.43-31.29-26.35-.77-1.18-1.38-2.22-1.17-2.95.15-.5.69-.95,1.67-1.39,17.13-7.8,32.51-18.81,47.38-29.46,8.71-6.24,17.71-12.69,26.96-18.42,15.79-9.77,30.57-21.01,45.19-34.34.61,10.16,7.31,14.29,13.8,18.3,1.95,1.21,3.96,2.45,5.74,3.84,1.44,1.1,3.24,2.02,4.99,2.91,3.51,1.8,6.83,3.5,6.87,6.36.02,2.51-3.56,4.35-7.03,6.14ZM739.92,641.67l-.52.27c-5.47,2.87-10.93,5.76-16.38,8.64-9.39,4.97-18.79,9.93-28.2,14.87-7.82,4.1-15.68,8.17-23.52,12.24l-6.65,3.45c-1.61.85-3.13,1.67-5.47,1.45-1.04-.3-2.13-.6-3.28-.91-2.89-.8-6.16-1.71-9.31-2.79-1.74-.61-3.08-.65-4.09-.1-.87.46-1.47,1.38-1.81,2.69-3.02,12.22-12.73,16.66-23,21.36l-1.62.74c-11.08,5.08-23.13,10.73-36.83,17.26-7.3,3.48-14.59,7-21.88,10.52-12.91,6.24-26.25,12.69-39.48,18.81-4.14,1.91-7.86,2.87-11.36,2.87-4.21,0-8.15-1.39-12.18-4.2-16.63-11.58-33.93-22.78-50.67-33.59-7.1-4.59-14.19-9.18-21.27-13.81-2.05-1.34-3.75-2.52-3.76-3.28-.01-.76,1.57-1.91,3.63-3.34,3.53-2.44,7.05-4.91,10.56-7.38,8.73-6.15,17.76-12.51,26.97-18.22,6.35-3.92,8.75-8.88,8.04-16.54-.04-.44-.11-.91-.19-1.4-.37-2.3-.49-3.87,1.08-4.69.3-.15.58-.22.84-.22.84,0,1.55.69,2.5,1.72.47.51.97,1.04,1.51,1.43l.21.15c7.61,5.32,7.91,5.32,15.64-.48l20.04-15.03c30.15-22.6,60.29-45.2,90.4-67.85,8.75-6.57,16.42-12.52,23.46-18.22,3.69-3,6.43-3.03,9.76-.15,8.1,7.03,16.44,14.06,24.51,20.84,2.92,2.46,5.83,4.92,8.76,7.38l9.03,7.64c10.82,9.17,22.02,18.65,33.07,27.93,10.83,9.07,21.67,18.02,32.16,26.66,1.21.99,1.34,1.53,1.32,1.77-.06.54-1.08,1.05-1.99,1.51ZM620.78,541.25c-51.79,38.83-94.94,71.34-135.79,102.32-2.81,2.14-4.39,2.16-6.99.06-3.11-2.51-6.38-4.95-9.84-7.53-1.64-1.24-3.37-2.52-5.19-3.9l-.89-.68-.09,1.12c-.17,2.45-.35,4.8-.52,7.06-.41,5.49-.8,10.68-1,15.82-.12,3.11-1.1,4.93-3.47,6.55-15.81,10.69-28.67,19.59-40.49,27.97-.96.68-2.03,1.36-2.55,1.19-.54-.18-1-1.39-1.33-2.42-7.61-23.36-15.44-47.09-23.01-70.03-3.58-10.88-7.17-21.75-10.76-32.63-.09-.26-.18-.52-.28-.78-.44-1.18-.82-2.2-.16-3.36,1.24-2.18,2.35-4.45,3.42-6.64,2.47-5.02,5.02-10.22,9.17-14.48,35.63-36.52,72.3-73.21,107.77-108.69,20.9-20.91,42.52-42.53,63.69-63.89,1.02-1.05,1.88-2.28,2.94-3.84.41-.62.88-1.29,1.4-2.02l18.58,50.11c12.28,33.22,24.99,67.57,37.59,101.31.41,1.12.63,2.06.63,2.91,0,1.69-.89,2.98-2.85,4.46ZM591.14,256.54c2.14.57,3.93,3,5.62,7.61,2.18,6.01,4.37,12.01,6.57,18.02,2.94,8.05,5.87,16.1,8.79,24.17,5.49,15.19,10.99,30.38,16.48,45.58,16.49,45.6,33.55,92.78,50.51,139.1,1.85,5.05,1.07,7.41-3.47,10.46-11.01,7.38-21.64,14.87-32.89,22.81-4.04,2.85-8.12,5.72-12.24,8.61l-5.05-13.53c-4.32-11.56-8.59-22.96-12.8-34.37l-3.74-10.09c-17.39-47.02-35.4-95.63-53.01-143.46-3.03-8.22-4.19-16.99-5.3-25.48-.6-4.51-1.21-9.17-2.1-13.72-.5-2.56,1.35-4.35,3.84-6.43,8.93-7.45,17.83-14.96,26.72-22.46l3.97-3.35c3.46-2.91,6.02-4.02,8.1-3.47ZM555.76,353.67c.48.12,1.16.8,1.77,3.39.58,2.41,1.77,4.77,2.92,7.08,2.06,4.1,4,7.99,2.47,11.78-1.52,3.76-5.09,6.85-8.54,9.84-1.66,1.44-3.37,2.92-4.87,4.48-30.67,32.02-62.6,63.83-93.47,94.58-18.16,18.09-36.93,36.79-55.25,55.34,1.69-3.51,3.33-7.06,4.91-10.54,6.72-14.67,13.67-29.84,25.65-42.18,20.1-20.71,39.75-42.52,58.73-63.63,8.67-9.64,17.64-19.6,26.53-29.32,5.94-6.5,12.06-13.05,17.97-19.37,5.76-6.18,11.73-12.56,17.53-18.89,1.11-1.22,2.7-2.8,3.65-2.56ZM409.41,503.65c-11.78,23.33-23.34,46.47-36.15,72.15l-.17.35c-.52,1.06-1.07,2.14-1.74,2.36-.3.1-.68.02-1.13-.21l-8.58-1.91c-7.44-1.63-14.64-3.22-21.84-4.75-1.17-.24-1.89-.62-2.08-1.06-.27-.6.29-1.58.84-2.53.16-.26.3-.51.44-.77h0c7.56-14.31,15.14-28.6,22.73-42.88,1.94-3.63,3.87-7.27,5.82-10.9,4.47-8.34,9.09-16.98,13.47-25.55.77-1.51,1.38-2.24,2.03-2.42.12-.04.24-.05.38-.05.61,0,1.41.33,2.52,1.01,7.53,4.63,15.38,9.05,22.07,12.77,2.24,1.24,2.53,2.16,1.39,4.4ZM337.33,579.33c.17-.26.67-.41,1.41-.46l4.39.99c8.98,2.01,17.94,4.02,26.89,6.07,1.34.3,1.67,1.29,2.07,2.87.1.37.18.72.3,1.06,3.98,12.07,7.95,24.17,11.92,36.25,7.37,22.45,14.99,45.67,22.59,68.45,1.08,3.28.6,4.69-2.31,6.6-9.43,6.21-16.48,11.17-22.85,16.07-1.77,1.35-2.9,1.89-3.56,1.67-.82-.27-1.39-1.91-1.89-3.65-8.34-29.31-16.94-59.08-25.27-87.86l-7.42-25.68c-.56-1.92-1.12-3.86-1.69-5.79-1.34-4.58-2.73-9.33-4.01-14.01-.06-.24-.17-.52-.28-.82-.24-.63-.54-1.41-.3-1.77ZM354.22,665.03c.46,1.72-.63,2.39-2.47,3.29-.45.22-.88.44-1.25.67-17.55,10.99-35.46,22.06-52.78,32.78l-2.89,1.79c-12.47,7.71-24.93,15.4-37.41,23.08l-10.63,6.55c-.4.24-.78.52-1.16.8-1.01.74-1.97,1.45-3.37,1.61,4.71-12.06,9.67-22.57,20.9-29.38,24.53-14.88,46.81-33.55,68.35-51.6,3.07-2.57,6.14-5.14,9.21-7.71,1.36-1.13,2.78-2.2,4.4-3.44.71-.52,1.45-1.08,2.24-1.69.6,1.97,1.18,3.91,1.77,5.82,1.81,5.99,3.53,11.66,5.1,17.42ZM318.14,837.26c-4.91-.02-9.82-.83-14.56-1.64-1.71-.29-3.41-.58-5.12-.84-.22-.04-.44-.06-.66-.09-1.19-.13-1.77-.26-1.97-.9-.29-.89.18-1.32,1.33-2.08.22-.15.44-.29.63-.44,5.25-3.91,10.49-7.84,15.73-11.78,11.82-8.88,24.02-18.05,36.21-26.81,9.85-7.08,20.01-14.09,29.83-20.88,8.15-5.62,16.57-11.43,24.78-17.25,1.78-1.27,3.29-1.9,4.77-1.9s2.98.65,4.71,1.92c4.9,3.63,10.02,7.1,14.99,10.46,1.82,1.23,3.63,2.46,5.52,3.74,1.18.82,2.3,1.58,2.3,2.24,0,.18-.1.44-.39.79-.3.35-.8.79-1.64,1.34-13.02,8.55-26.21,17.31-38.97,25.77-15.21,10.11-30.94,20.55-46.48,30.71-9.68,6.32-21.11,7.25-31.02,7.63ZM383.89,725.19c0-.85,1.53-1.95,2.86-2.8,6.78-4.34,14.07-9.42,22.91-15.97,1.29-.96,2.42-1.44,3.57-1.44,1.06,0,2.12.41,3.34,1.22,21.75,14.35,50.45,33.27,79.58,52.3,1.68,1.1,2.45,1.95,2.45,3.64,0,.44-.06.94-.16,1.51-1.49,8.5-2.69,17.05-3.96,26.12-.44,3.08-.88,6.24-1.34,9.46-3.9-2.59-7.71-5.13-11.46-7.63-9.31-6.18-18.09-12.01-26.94-17.94-7.87-5.29-15.73-10.59-23.58-15.87-14.53-9.79-29.55-19.93-44.41-29.76-1.97-1.3-2.85-2.18-2.85-2.85ZM561.19,742.96c-5.15.96-10.31,1.94-15.46,2.92-.29.06-.67.01-1.34-.09,7.65-3.69,14.97-7.21,22.16-10.67l31.99-15.41c12.84-6.18,25.68-12.35,38.49-18.58,3.19-1.55,4.37-4.43,5.51-7.22.57-1.4,1.12-2.72,1.9-3.89.26-.4.49-.85.71-1.29.47-.93.96-1.88,1.64-2.08.4-.12.93.01,1.56.38,10.44,6.11,18.92,1.4,27.13-3.17,1.4-.78,2.85-1.58,4.29-2.31,9.6-4.93,19.29-10.09,28.66-15.08,4.03-2.16,8.08-4.3,12.11-6.44,2.01-1.06,4.02-2.1,6.03-3.13,4.75-2.45,9.66-4.98,14.32-7.75,5.44-3.22,9.01-2.92,13.65,1.14l1.47,1.28c3.17,2.75,5.08,4.42,4.96,5.42-.13,1.04-2.62,2.25-6.74,4.28l-.52.26c-9.78,4.8-19.56,9.62-29.34,14.43-29.48,14.52-59.96,29.54-90.14,43.87-3.37,1.6-6.74,3.41-9.98,5.15-7.61,4.1-15.48,8.33-24.07,10.23-12.94,2.85-26.18,5.34-38.99,7.73ZM637.12,542.13c-1.45-1.18-2.12-2-2.1-2.59.02-.65.9-1.38,2.4-2.42,10.76-7.41,21.62-15.06,32.12-22.45,4.2-2.96,8.4-5.92,12.62-8.87.72-.51,1.46-1,2.29-1.55l.49-.32c.23.18.45.35.66.52.66.51,1.28,1,1.84,1.52l12.16,11.28c13.16,12.2,26.3,24.4,39.42,36.65,14.28,13.33,28.53,26.66,42.79,40.01,17.52,16.38,35.02,32.77,52.55,49.11,9.48,8.87,18.28,16.89,26.89,24.56,1.39,1.24,1.97,2.12,1.97,2.9-.01.78-.61,1.66-1.91,2.78-9.91,8.56-20,17.53-30.84,27.39-2.07,1.9-2.92,1.91-5.08.09-14.15-12-28.61-24.13-42.58-35.86-10.71-8.98-21.43-17.97-32.11-26.98-14.18-11.96-28.55-24.18-42.46-35.98-10.51-8.92-21.01-17.84-31.55-26.75l-5.12-4.34c-11.22-9.5-22.81-19.32-34.45-28.71ZM874.55,664.11c-3.28,1.73-5.01,1.5-7.7-1.01-41.13-38.61-81.63-76.38-112.33-104.98-19.06-17.77-38.5-35.77-57.32-53.19l-4.15-3.85c-2.74-2.53-4.46-5.03-5.58-8.1-13-36.01-26.03-71.99-39.06-107.98-14.84-40.94-30.16-83.27-45.19-124.92-1.67-4.63-3.89-7.26-7.42-8.83-3.18-1.41-3.69-2.78-2.25-6.08,20.44-46.91,36.85-85.01,51.63-119.93,1.49-3.51,2.79-4.97,5.27-4.97,1.12,0,2.47.29,4.18.83,52.15,16.13,99.65,30.51,145.22,43.97,6.15,1.83,10.55,5.46,15.21,9.31.73.61,1.47,1.22,2.23,1.83,23.48,18.95,43.64,41.85,63.13,64.01,4.57,5.18,9.29,10.55,13.98,15.77,2.51,2.8,4.99,5.71,7.39,8.54,4.46,5.23,9.07,10.62,14.03,15.54,8.2,8.11,13.45,18.23,18.51,28.03,1.85,3.56,3.75,7.25,5.79,10.79.79,1.4,1.08,2.8.88,4.31v.4c-4.77,11.3,1.69,18.36,8.64,23.78,2.38,1.81,3.73,4.41,5.03,7.11,15.31,32.12,30.66,64.2,46.01,96.3l17.64,36.88c2.57,5.38,1.69,11,.83,16.43-.33,2.16-.68,4.38-.82,6.57-.77,12.78-1.86,25.75-2.92,38.3-.93,10.84-1.88,22.06-2.61,33.12-.5,7.39-2.87,11.15-9.11,14.36-43.58,22.39-87.08,45.41-129.14,67.68ZM424.41,484.66c-2.98,3.05-5.81,5.93-8.65,8.73-1.06,1.04-2.16.71-3.72-.19l-6.39-3.76c-3.09-1.8-6.18-3.62-9.26-5.43l.09-.38c.04-.18.07-.37.11-.55h29.38l-1.56,1.58ZM882.46,667.84c26.4-13.54,53.12-27.54,78.97-41.06l11.02-5.77c5.2-2.72,10.44-5.57,15.51-8.32,4.37-2.38,8.89-4.84,13.37-7.2.44-.24.89-.5,1.34-.77,1.45-.86,2.83-1.68,4.54-1.84-.13,4.13-1.44,7.21-3.67,9.76-2.23,2.56-5.38,4.56-9.27,6.5-29.32,14.79-60.89,30.78-96.52,48.89-8.33,4.24-16.79,8.6-24.95,12.81-5.02,2.59-10.02,5.18-15.04,7.76-.97.5-2.18,1.07-3.58,1.49,9.2-10,18.22-17.1,28.27-22.25Z"/>
</svg>