<?xml version="1.0" encoding="UTF-8"?>
<svg id="Calque_1" data-name="Calque 1" xmlns="http://www.w3.org/2000/svg" version="1.1" viewBox="0 0 1080 1080">
    <defs>
        <style>
            .cls-1 {
            fill: #000;
            }

            .cls-1, .cls-2, .cls-3, .cls-4, .cls-5, .cls-6, .cls-7, .cls-8, .cls-9, .cls-10, .cls-11, .cls-12, .cls-13,
            .cls-14, .cls-15, .cls-16, .cls-17 {
            stroke-width: 0px;
            }

            .cls-2 {
            fill: #403c39;
            }

            .cls-3 {
            fill: #424443;
            }

            .cls-4 {
            fill: #b5bcb7;
            }

            .cls-5 {
            fill: #8e8e8e;
            }

            .cls-6 {
            fill: #b6bdb8;
            }

            .cls-7 {
            fill: #444745;
            }

            .cls-8 {
            fill: #9b0005;
            }

            .cls-9 {
            fill: #340005;
            }

            .cls-10 {
            fill: #2a2421;
            }

            .cls-11 {
            fill: #e4d7cc;
            }

            .cls-12 {
            fill: #3c3e3c;
            }

            .cls-13 {
            fill: #1a1b1a;
            }

            .cls-14 {
            fill: #111;
            }

            .cls-15 {
            fill: #151210;
            }

            .cls-16 {
            fill: #680005;
            }

            .cls-17 {
            fill: #cf0005;
            }
        </style>
    </defs>
    <path class="cls-5" d="M79.5,894.17c.29.34.58.67.87,1.01.02.54-.31,1.33-.66,1.09-.63-.45-.33-1.36-.2-2.09Z"/>
    <g>
        <path class="cls-1"
              d="M967.6,937.65c1.31-7.52,2.45-15.08,3.97-22.56,4.32-21.24-2.23-38.53-18.34-52.7-12.58-11.07-27.29-19.02-40.95-28.49-6.46-4.48-12.7-9.25-18.25-14.84-1.44-1.45-2.74-2.52-4.85-1.72-3.85,1.47-7.28.04-10.77-1.43-14.63-6.18-26.53-15.7-36.38-28.17-4.96-6.28-7.27-12.9-6.11-20.66.42-2.83-.5-4.39-2.62-6.11-20.77-16.86-41.47-33.79-62.11-50.81-2.14-1.76-3.72-2.46-6.29-.71-8.62,5.86-16.98,4.73-26.09.03-18.07-9.33-32.62-22.2-43.73-39.16-4.07-6.21-2.89-12.97-2.21-19.55.4-3.88-.79-6.02-3.65-8.4-114.8-95.05-228.13-191.77-336.01-294.72-73.94-70.56-146.1-142.88-216.09-217.35-1.53-1.62-3.25-3.07-4.92-4.56-3.4-3.03-6.05-6.55-7.46-10.96-2.25-7.02-2.21-13.84,3-19.47,5.18-5.61,12.01-6.33,19.17-4.77,3.91.85,7.29,2.78,10.38,5.31,98.91,81.17,200.3,159.13,303.17,235.21,56.88,42.07,110.21,88.45,162.3,136.31,40.9,37.58,83.82,72.87,126.37,108.57,2.08,1.74,3.96,2.59,6.53,1.64.7-.26,1.46-.31,2.19-.48,9.41-2.15,18.06-1.8,26.53,4.26,15.13,10.81,30.1,21.5,39.34,38.34,3.06,5.57,4.64,10.96,1.78,16.93-1.45,3.03-.36,4.89,1.98,7,20.81,18.79,41.19,38.03,60.96,57.92,2.27,2.29,4.35,3.47,7.77,2.74,4.52-.96,8.63.41,12.64,3.01,14.06,9.1,28.46,18.32,35,34.36,3.1,7.62,7.94,10.64,14.39,13.98,28.01,14.53,45.39,49.43,42,83.2-.56,5.56-1.11,11.13-1.66,16.7-2.05,1.11-1.36-1.35-2.26-1.73l-1.48-7.06c-.77,33.01-11.72,62.95-25.73,92.06-1.08.37-1.72.14-1.54-1.17Z"/>
        <path class="cls-10"
              d="M131.1,110.79c-1.93-9.6,4.05-15.28,13.29-13.45,6.29,1.25,10.33,5.89,14.93,9.56,22.74,18.11,45.29,36.45,67.96,54.64,19.33,15.51,38.65,31.04,58.16,46.32,17.32,13.56,34.91,26.78,52.39,40.13,20,15.27,39.94,30.63,60.07,45.73,16.27,12.2,32.96,23.84,49.14,36.14,19.28,14.66,38.43,29.51,57.33,44.68,24.72,19.84,49.2,39.96,72.67,61.25,27.48,24.93,54.78,50.06,82.97,74.19,25.76,22.06,51.76,43.84,77.74,65.64,6.42,5.39,6.54,5.16-.47,8.64-20.71,10.26-34.28,26.57-40.84,48.68-.96,3.23-1.12,5.25-5.08,1.89-30.54-25.93-61.17-51.76-92.03-77.32-40.63-33.65-80.35-68.37-119.8-103.38-29.85-26.49-59.18-53.55-88.35-80.79-36.83-34.4-73.24-69.22-109.07-104.65-48.05-47.51-95.21-95.89-141.48-145.14-3.8-4.04-8.88-7.02-9.56-12.75Z"/>
        <path class="cls-10"
              d="M838.01,755.32c-9.9-7.97-19.22-15.37-28.42-22.91-16.27-13.35-32.42-26.86-48.77-40.1-2.26-1.83-2.87-3.2-2.13-6,6.39-24.17,21.7-40.33,44.44-49.88,2.53-1.07,4.64-.85,7.06,1.3,23.88,21.16,47.03,43.08,69.73,65.49,2.3,2.27,3.71,3.92-.57,5.42-21.15,7.39-34.41,22.11-40.3,43.62-.19.71-.47,1.4-1.03,3.07Z"/>
        <path class="cls-6"
              d="M742.84,642.83c6.04,4.36,12.06,8.75,18.14,13.05,1.8,1.28,3.24,2.15,1.49,4.78-8.93,13.44-12.84,28.47-13.38,45.08-11.83-4.42-21.86-10.92-30.88-19.09-4.3-3.89-7.81-8.55-11.77-12.75-7.21-7.66-7.67-16.51-6.19-26.11.43-2.81,1.15-3.53,3.89-2.45,3.56,1.39,7.27,2.38,11.49,2.74-3.38-3.6-6.66-7.31-10.18-10.78-2.02-1.99-2.27-3.84-1.32-6.47,9.99-27.69,33.64-45.22,64.64-47.81,1.63-.14,3.3-.19,4.89.74,16.19,9.57,31.43,20.16,41.92,36.37,2.85,4.4,1.92,5.38-2.88,6.42-14.29,3.1-27.2,9.29-37.81,19.55-2.68,2.6-4.99,3.02-8.4,1.94-7.58-2.4-15.28-4.41-22.93-6.57-.24.45-.48.9-.73,1.35Z"/>
        <path class="cls-11"
              d="M973.58,801.54c4.42,11.48,10.29,22.45,11.91,34.92,2.46,18.84-.79,37.03-5.78,55.26-6.33-28.01-28.69-41.2-50.11-55.11-9.59-6.22-19.14-12.43-27.69-20.04-12.35-11-13.96-19.99-6.24-34.54,6.36-11.99,15.89-20.59,28.26-26.12,2.14-.95,4.26-1.06,6.56-.87,27.86,2.4,44.92,18.99,56.2,42.97,3.3,7.02,5.54,14.46,5.91,23.4-5.8-8.68-12.3-15.36-18.48-22.31-2.15.39-1.08,1.47-.53,2.44Z"/>
        <path class="cls-6"
              d="M904.62,728.43l-3.62-17.27c14.88,8.79,27.96,18.03,36.78,33.11-6.67,1.92-12.92,3.47-18.76,6.32-11.94,5.83-21.46,14.24-27.97,25.81-1.85,3.29-3.5,3.81-6.94,2.36-6.12-2.57-12.49-4.55-19.39-5.67,5.7,4.8,11.33,9.68,17.12,14.36,2.1,1.7,2.98,3.14,2.22,6.09-1.27,4.97-1.72,10.16-2.58,15.67-16.04-6.6-28.42-17.2-37.46-31.75-.65-1.04-.88-2.46-.96-3.72-1.71-27.25,15.39-51.75,41.46-59.86,3.72-1.16,5.64-.31,7.63,2.93,4.09,6.67,8.65,13.07,13.01,19.57,2.36-2.83.17-5.34-.55-7.96Z"/>
        <path class="cls-3"
              d="M756.32,704.87c.43-2.19-1.49-4.99,1.55-5.74,1.18-.29,3.1,1.19,3.12,2.65.06,3.25-3.04,1.98-4.67,3.09Z"/>
        <path class="cls-12"
              d="M904.62,728.43c2.24,2.91,1.81,6.61,3.23,10.05-1.81.07-2.31-.93-2.68-2.09,1.23-2.75-.91-5.27-.55-7.96Z"/>
        <path class="cls-7"
              d="M817.75,635.31c-.57-.78-1.12-1.27-1.32-1.86-.21-.64.44-.92.95-.76.45.15,1.05.54,1.14.93.09.38-.38.89-.77,1.69Z"/>
        <path class="cls-2"
              d="M973.58,801.54c-1.14-1.18-2.39-2.53-1.21-4.11.37-.5,1.32.87,1.74,1.67-.18.81-.35,1.63-.53,2.44Z"/>
    </g>
    <g>
        <path class="cls-1"
              d="M595.45,876.55c-5.45,8.6-12.67,15.92-22.07,22.4-25.1,17.29-53.71,28.48-87.47,34.22-10.96,1.87-22.77,3.52-34.8,3.05-11.3-.45-20.62-1.53-29.36-5.32-8.26-3.59-13.12-8.24-14.45-13.83-1.82-7.69,3.25-15.82,7.83-21.3,12.94-15.46,30.39-24.76,47.33-32.5,17.33-7.92,36.08-13.55,57.36-17.22,10.12-1.74,19.08-2.86,31-2.86,1.45,0,2.95.02,4.49.06,1.11.09,2.29.16,3.52.25,9.45.62,21.18,1.41,31.59,8.29,8.61,5.7,10.68,15.89,5.05,24.76Z"/>
        <path class="cls-1"
              d="M703.07,767.94c-35.35-87.68-70.88-175.29-105.45-263.29-4.81-12.27-10.31-18.37-23.61-16.71-6.7.83-12.48-1.2-16.82-7.39-2.82-4.03-7.12-7.14-11.09-10.23-31.56-24.6-68.3-33.31-104.62-34.69-48.76-.02-90,10.33-125.42,31.63-29.52,17.74-53.52,40.66-65.5,74.02-.92,2.6-2.82,3.25-4.86,4.05-19.46,7.56-38.87,15.28-58.47,22.5-4.71,1.73-5.05,3.63-3.87,8.1,27.23,102.45,54.24,204.94,81.45,307.39,2,7.5,2.93,15.36,7.41,22.16,17.72,27.02,35.32,54.12,52.77,81.32,2.1,3.27,3.96,3.9,7.66,2.96,105.56-27.19,211.15-54.27,316.78-81.2,3.45-.88,4.89-2.54,6.02-5.54,15.81-42.07,31.68-84.12,47.64-126.12,1.19-3.16,1.29-5.71-.02-8.96ZM450.83,942.95c-10.43-.42-21.51-1.41-31.78-5.87-10.32-4.48-16.48-10.69-18.33-18.46-1.95-8.24,1.24-17.63,9.22-27.18,13.8-16.5,32.04-26.23,49.7-34.31,17.86-8.15,37.16-13.95,59.01-17.72,11.44-1.98,22.08-3.23,36.87-2.9h.2c1.11.1,2.29.18,3.53.26,9.69.64,22.97,1.53,34.87,9.4,11.66,7.72,14.62,22.03,7.02,34-5.95,9.38-13.79,17.34-23.94,24.33-25.93,17.86-55.42,29.42-90.17,35.31-9.55,1.63-20.61,3.23-31.81,3.23-1.46,0-2.93-.03-4.4-.09Z"/>
        <path class="cls-8"
              d="M694.79,771.4c-139.14,41.62-277.53,83.01-416.47,124.56.46-5.56,2.5-10.14,3.92-14.84,20.36-67.77,40.84-135.5,61.17-203.28,1.18-3.93,3.03-4.68,6.85-3.96,60.44,11.36,116.99,1.32,169.33-31.23,3.02-1.88,4.88-1.77,7.68.37,55.24,42.22,110.57,84.34,165.87,126.48.42.32.72.82,1.65,1.89Z"/>
        <path class="cls-4"
              d="M546.72,593.85c.53,1.02.67,1.36.87,1.68q5.98,9.55-1.88,17.49c-31.19,31.79-69.88,48.6-113.07,55.92-37.53,6.36-74.47,4.11-110.27-9.89-12.25-4.79-23.53-11.25-34.15-19.03-4.01-2.94-5.67-5.9-3.99-10.78,1.01-2.94,1.25-6.15,2.08-10.54-3.61,2-6.43,3.23-8.87,5-3.2,2.32-5.11,1.41-7.29-1.51-21.79-29.2-23.8-60.2-7.35-92.15,15.72-30.52,41.76-50.27,71.86-65.13,16.13-7.96,33.19-13.3,50.73-17.39,5.62-1.31,7.91-.02,8.74,5.29.16,1.02.77,1.97,1.24,3.13.37-.48.69-.71.71-.95.54-9.38.5-9.64,11.13-10.87,41.63-4.82,81.69-.04,118.83,20.73,18.33,10.25,33.54,24.02,42.63,43.26,14.35,30.37,9.32,59.19-8.3,86.68-1.32,2.07-2.58,2.83-5.01,1.8-2.55-1.07-5.28-1.7-8.64-2.74Z"/>
        <path class="cls-10"
              d="M595.45,876.55c-5.45,8.6-12.67,15.92-22.07,22.4-25.1,17.29-53.71,28.48-87.47,34.22-10.96,1.87-22.77,3.52-34.8,3.05-11.3-.45-20.62-1.53-29.36-5.32-8.26-3.59-13.12-8.24-14.45-13.83-1.82-7.69,3.25-15.82,7.83-21.3,12.94-15.46,30.39-24.76,47.33-32.5,17.33-7.92,36.08-13.55,57.36-17.22,10.12-1.74,19.08-2.86,31-2.86,1.45,0,2.95.02,4.49.06,1.11.09,2.29.16,3.52.25,9.45.62,21.18,1.41,31.59,8.29,8.61,5.7,10.68,15.89,5.05,24.76Z"/>
        <path class="cls-10"
              d="M656.41,789.42c-2.28.66-3.14,2.2-3.5,4.49-1.29,8.25-2.81,16.48-4.21,24.73-2.77,16.42-5.51,32.83-8.26,49.25-.37-10.68-.72-21.24.12-31.89.96-12.28.04-24.7.43-37.04.13-4.23-.99-4.67-4.59-3.59-40.9,12.3-81.83,24.49-122.72,36.77-34.3,10.29-68.55,20.71-102.85,30.97-41.98,12.55-84.01,24.95-125.99,37.48-6.5,1.95-6.42,2.06-2.81,7.61,15.54,23.96,31.1,47.91,46.51,71.96,1.69,2.63,3.47,2.9,6.05,2.2,6.47-1.78,12.93-3.55,19.42-5.24,9.51-2.49,9.28-2.43,7.68-11.87-1.56-9.19-2.51-18.46-3.73-27.71,3.62,9.86,6.9,19.78,9.05,29.93,1.27,5.98,3.88,5.66,8.51,4.44,36.95-9.69,73.93-19.24,110.94-28.73,52.51-13.47,105.05-26.91,157.6-40.21,3.32-.84,5.03-2.23,6.23-5.42,12.49-33.37,25.15-66.69,37.76-100.03,2.33-6.14,4.61-12.28,7.33-19.51-13.95,4.08-26.46,7.76-38.96,11.4ZM601.15,880.17c-5.95,9.38-13.79,17.34-23.94,24.33-25.93,17.86-55.42,29.42-90.17,35.31-9.55,1.63-20.61,3.23-31.81,3.23-1.46,0-2.93-.03-4.4-.09-10.43-.42-21.51-1.41-31.78-5.87-10.32-4.48-16.48-10.69-18.33-18.46-1.95-8.24,1.24-17.63,9.22-27.18,13.8-16.5,32.04-26.23,49.7-34.31,17.86-8.15,37.16-13.95,59.01-17.72,11.44-1.98,22.08-3.23,36.87-2.9h.2c1.11.1,2.29.18,3.53.26,9.69.64,22.97,1.53,34.87,9.4,11.66,7.72,14.62,22.03,7.02,34Z"/>
        <path class="cls-17"
              d="M273.03,888.21c-20.99-79.33-41.68-157.49-62.36-235.65-6.54-24.73-13.03-49.48-19.67-74.19-.74-2.77-.77-4.45,2.33-5.63,17.46-6.66,34.85-13.47,52.28-20.2.45-.17,1.03-.02,2.08-.02-2.83,13.15-2.74,26.13.52,38.96,7.38,29.05,26.25,48.92,51.39,63.62,10.52,6.15,21.62,11.2,33.39,14.36,5.14,1.38,5.56,3.44,4.16,8.05-15.42,50.55-30.65,101.16-45.93,151.76-5.51,18.23-11.02,36.46-16.54,54.69-.32,1.04-.78,2.04-1.64,4.26Z"/>
        <path class="cls-16"
              d="M692.01,760.66c-22.36-16.99-44.5-33.76-66.57-50.59-30.86-23.53-61.62-47.19-92.57-70.6-3.64-2.75-3.16-3.88.05-6.39,20.53-16.08,36.94-35.42,45.44-60.47,7.91-23.31,6.74-46.2-4.65-68.3-1.53-2.97-3.02-5.96-4.69-9.25,4.87,0,9.41.07,13.94-.02,3.79-.08,4.46,2.93,5.47,5.44,10.08,25.11,20.05,50.27,30.13,75.38,23.91,59.58,47.86,119.15,71.79,178.73.74,1.84,1.83,3.6,1.67,6.08Z"/>
        <path class="cls-1"
              d="M553.35,522.8c-4.44,1.94-8.61.94-12.65,1.21-2.21.15-3.3.45-2.94,3.2,3.3,25.41-8.04,45.1-25.54,61.7-26.35,24.99-58.78,36.96-94.19,41.93-14.32,2.01-28.71,2.13-43.09.81-2.89-.27-4.46.68-6.11,2.76-3,3.78-6.26,7.35-10.31,10.71.77-3.58,1.34-7.23,2.38-10.73,1.05-3.55-.18-4.93-3.64-5.61-13.11-2.56-25.57-7.02-37.11-13.79-16.16-9.46-28.88-22-34.13-40.57-5.16-18.27-1.23-35.2,8.85-50.83,14.32-22.19,35.03-36.64,58.95-46.54,41.03-16.99,83.13-21.12,126-7.72,19.84,6.2,37.99,16.06,48.81,34.54,5.22,8.91,11.38,14.55,20.98,17.11,1.17.31,2.22,1.06,3.72,1.81Z"/>
        <g>
            <path class="cls-15"
                  d="M595.45,876.55c-5.45,8.6-12.67,15.92-22.07,22.4-25.1,17.29-53.71,28.48-87.47,34.22-10.96,1.87-22.77,3.52-34.8,3.05-11.3-.45-20.62-1.53-29.36-5.32-8.26-3.59-13.12-8.24-14.45-13.83-1.82-7.69,3.25-15.82,7.83-21.3,12.94-15.46,30.39-24.76,47.33-32.5,17.33-7.92,36.08-13.55,57.36-17.22,10.12-1.74,19.08-2.86,31-2.86,1.45,0,2.95.02,4.49.06,1.11.09,2.29.16,3.52.25,9.45.62,21.18,1.41,31.59,8.29,8.61,5.7,10.68,15.89,5.05,24.76Z"/>
            <path class="cls-1"
                  d="M594.13,846.17c-11.9-7.87-25.18-8.76-34.87-9.4-1.24-.08-2.42-.16-3.53-.25h-.2c-14.79-.34-25.43.91-36.87,2.89-21.85,3.77-41.15,9.57-59.01,17.72-17.66,8.07-35.9,17.81-49.7,34.31-7.98,9.55-11.17,18.94-9.22,27.18,1.84,7.77,8.01,13.99,18.33,18.46,10.27,4.46,21.34,5.45,31.78,5.87,1.46.06,2.93.09,4.4.09,11.2,0,22.26-1.6,31.81-3.23,34.75-5.89,64.24-17.45,90.17-35.31,10.15-6.99,17.99-14.96,23.94-24.33,7.6-11.98,4.64-26.28-7.02-34ZM595.45,876.55c-5.45,8.6-12.67,15.92-22.07,22.4-25.1,17.29-53.71,28.48-87.47,34.22-10.96,1.87-22.77,3.52-34.8,3.05-11.3-.45-20.62-1.53-29.36-5.32-8.26-3.59-13.12-8.24-14.45-13.83-1.82-7.69,3.25-15.82,7.83-21.3,12.94-15.46,30.39-24.76,47.33-32.5,17.33-7.92,36.08-13.55,57.36-17.22,10.12-1.74,19.08-2.86,31-2.86,1.45,0,2.95.02,4.49.06,1.11.09,2.29.16,3.52.25,9.45.62,21.18,1.41,31.59,8.29,8.61,5.7,10.68,15.89,5.05,24.76Z"/>
        </g>
        <path class="cls-9"
              d="M426.93,510.64c20.36.43,40.28,2.92,57.69,14.67,22.12,14.93,24.27,40.67,5.83,60.08-19.36,20.38-43.99,29.37-70.74,34.25-21.14,3.86-41.92,2.42-62.24-4.48-11.28-3.83-21.68-9.22-28.68-19.43-9.66-14.08-9.17-29.45,1.2-43.16,15.58-20.61,37.5-30.78,61.61-37.17,11.54-3.06,23.31-4.96,35.34-4.76Z"/>
        <path class="cls-13"
              d="M484.72,599.42c11.85-9.92,21.48-21.28,24.18-37.15,2.01-11.84-1.43-22.31-8.98-31.22-13.32-15.7-31.39-22.07-51.12-24.93-25.37-3.68-50.07-.91-74.07,7.83-18.87,6.88-35.59,16.98-48.33,33.05-18.64,23.53-11.87,53.86,15.2,67.92,2.47,1.28,4.95,2.53,7.25,4.17-10.99-2.09-20.98-6.72-30.13-12.92-13.68-9.28-23.96-21.17-27.27-38.09-3.29-16.82,1.91-31.55,11.67-44.61,18.53-24.78,44.25-38.99,73.42-47.52,18.51-5.41,37.47-8.52,56.76-7.8,24.28.9,47.95,5.19,68.72,18.78,18.07,11.82,30.58,27.6,29.73,50.55-.52,14.06-6.34,26.55-15.31,37.13-8.7,10.26-18.52,19.52-30.61,25.95-1.16.41-1.42-.09-1.13-1.13Z"/>
        <path class="cls-14"
              d="M484.72,599.42c.38.38.75.76,1.13,1.13-2.23,1.46-4.45,2.91-6.68,4.36.8-3.12,3.56-3.87,5.55-5.5Z"/>
    </g>
</svg>