<svg xmlns="http://www.w3.org/2000/svg" width="39" height="36" viewBox="0 0 39 36" fill="none">
    <path d="M11.5533 29.4358L10.8153 30.1014L10.0809 30.7623L9.32271 31.3971L8.52953 31.9912L7.82466 32.6867L7.09799 33.3581L6.86498 33.4441L5.88936 33.6985L4.90246 33.4997L3.98791 33.0854L3.21262 32.4342L2.66996 31.5679L2.34553 30.6032L2.30273 29.5801L2.7532 28.6691L2.82323 28.4835L3.46158 27.8961L4.13768 27.3523L4.78575 26.7762L5.43461 27.25L6.06947 27.7444L6.65025 28.3131L6.40985 27.5052L6.0967 26.7279L5.612 25.9896L6.44253 25.2653L7.28044 24.5569L7.5967 25.3431L8.05145 26.0273L8.48247 26.7264L8.99595 27.3682L9.62575 27.9L10.191 28.4928L10.8745 28.9441L11.5533 29.4358Z" fill="#32D496"/>
    <path d="M20.9431 22.2452L20.1468 22.9123L19.389 23.5678L18.6721 24.2688L17.9322 24.9453L17.1682 25.6113L16.3388 25.1993L15.5499 24.7414L14.7517 24.3011L13.9717 23.7763L14.323 24.6092L14.7731 25.3619L15.362 26.0112L15.8946 26.6658L15.1426 27.2805L14.3845 27.913L13.5823 27.6905L12.8012 27.3731L12.1465 26.839L11.5144 26.2823L10.9589 25.6494L10.4505 24.9791L9.95097 24.3019L9.51334 23.5807L9.27099 22.775L9.15234 21.9461L9.8261 21.2536L10.5318 20.6032L11.2436 19.9606L11.982 19.3479L12.7569 18.7776L13.4454 18.107L14.1546 17.4608L14.903 16.8602L15.6429 16.2043L16.086 17.1212L16.6656 17.9564L17.2857 18.7597L17.9104 19.5599L18.6017 20.3045L19.3587 20.9805L20.074 21.7084L20.9431 22.2452Z" fill="#32D496"/>
    <path d="M31.8043 15.7523L31.0882 16.2934L30.4522 16.9131L29.7531 17.4612L29.0809 18.0389L28.4764 18.6951L27.7739 19.2394L27.1487 19.8715L26.4092 20.3717L26.3069 20.4064L25.3846 20.2749L24.5226 19.9123L23.6749 19.4953L22.9537 18.8842L22.2138 18.2968L21.5677 17.6067L20.8881 16.9504L20.268 16.2358L19.7176 15.4664L19.2224 14.6612L18.7785 13.8295L18.4105 12.9643L18.123 12.0642L18.1526 11.1204L18.1919 10.9987L18.8162 10.4572L19.4239 9.88885L20.0541 9.34541L20.6831 8.79341L20.9931 9.74569L21.237 10.717L21.6618 11.623L22.0096 12.5613L22.5433 13.4097L22.9545 14.3227L23.5127 15.189L23.2291 14.2383L23.0261 13.3004L22.8281 12.3633L22.6149 11.4293L22.4079 10.493L22.2294 9.5508L22.0742 8.60358L21.994 7.64585L22.7464 6.96392L23.552 6.30884L23.6776 7.24595L23.9293 8.15739L24.232 9.05482L24.5747 9.94525L25.0998 10.7415L25.6386 11.5254L26.2882 12.2198L26.913 12.9328L27.5969 13.5922L28.3383 14.1881L29.1599 14.667L29.9616 15.1855L30.8832 15.4392L31.8043 15.7523Z" fill="#32D496"/>
    <path d="M36.4839 3.28903L35.8949 2.62694L35.2048 2.07067L34.5198 1.50545L33.7441 1.07248L32.942 0.697872L32.1282 0.348936L31.2728 0.117475L30.3932 0.0396745L29.5036 0L28.6859 0.351268L28.2311 0.700593L27.4555 1.24987L26.7311 1.8645L26.0414 2.51725L25.3875 3.20189L24.8806 3.88693L24.5379 4.67039L24.2765 5.48652L24.2676 6.48509L24.3792 7.4685L24.65 8.42428L25.0184 9.35633L25.589 10.1806L26.1543 11.0081L26.7973 11.7756L27.5477 12.4275L28.2498 13.1246L29.0796 13.663L29.8692 14.2695L30.7787 14.6725L31.7275 14.9689L32.7105 15.1346L33.5718 15.0144L34.4179 14.8254L35.1309 14.3321L35.204 14.3294L35.8728 13.6762L36.55 13.0309L37.2662 12.4302L37.9967 11.8456L38.4001 11.4402L38.8179 10.6459L38.9447 9.76324L39 8.8763L38.8786 7.99365L38.6693 7.12734L38.3468 6.29721L37.9854 5.48458L37.5517 4.70812L37.0351 3.98535L36.4839 3.29098V3.28903ZM37.6392 8.3138L37.6552 9.19295L37.507 10.0468L37.0833 10.8011L36.2909 11.18L35.4091 11.1963L34.5587 10.9769L33.7021 10.5941L32.8677 10.1639L32.1107 9.60647L31.4046 8.98678L30.7702 8.29474L30.1299 7.60231L29.6522 6.78929L29.2239 5.95488L28.8271 5.10179L28.6384 4.18141L28.4852 3.31432L28.6594 2.45073L29.1146 1.70617L29.9171 1.37941L30.7815 1.37591L31.6377 1.5354L32.5238 1.85594L33.3201 2.3597L34.1152 2.86657L34.8302 3.48353L35.4935 4.15651L36.0953 4.88668L36.599 5.68763L36.9744 6.55395L37.3774 7.40509L37.6384 8.31419L37.6392 8.3138Z" fill="#32D496"/>
    <path d="M27.0238 21.033L26.0871 21.2104L25.1473 21.0653L24.2522 20.7416L23.422 20.2771L22.6763 19.6897L21.9267 19.1129L21.2078 18.4955L20.5434 17.819L19.9715 17.0616L19.3826 16.3225L18.8411 15.548L18.2992 14.7684L17.881 13.9158L17.5862 13.0136L17.3458 12.0944L17.4181 11.1499L17.7748 10.2537L17.0552 10.908L16.355 11.5401L15.7259 12.2372L15.4844 13.1572L15.5626 14.1204L15.8932 15.0279L16.2877 15.9063L16.7626 16.7438L17.2757 17.5596L17.8993 18.2952L18.4618 19.0775L19.1223 19.787L19.8564 20.4195L20.5589 21.0867L21.3778 21.6064L22.1718 22.1549L23.049 22.5548L23.9771 22.822L24.9465 22.7318L25.7276 22.156L26.3948 21.5297L27.1152 20.9622L27.0238 21.033Z" fill="#32D496"/>
    <path d="M14.8617 28.2262L13.9638 28.3787L13.0999 28.0499L12.2678 27.6434L11.5423 27.0658L10.8884 26.4118L10.3274 25.679L9.76219 24.9535L9.23393 24.1945L8.9095 23.3282L8.63992 22.4417L8.8562 21.5575L8.95734 21.4019L8.38006 21.8893L7.81173 22.388L7.5332 23.1621L7.6604 24.0121L7.9187 24.8488L8.35672 25.6086L8.87254 26.3154L9.42493 26.9926L9.9777 27.6753L10.6386 28.2542L11.3501 28.7696L12.1464 29.1341L12.9715 29.3823L13.7966 29.2205L14.3369 28.6895L14.9422 28.2328L14.8617 28.2262Z" fill="#32D496"/>
    <path d="M7.51207 33.5074L6.73017 33.9777L5.82379 34.1096L4.92402 33.9645L4.0795 33.6171L3.37851 33.0363L2.72342 32.4038L2.23989 31.6274L2.03216 30.7416L1.93102 29.8539L2.05706 28.9537L2.59427 28.2212L2.77711 27.9287L2.07262 28.5978L1.32184 29.2093L0.727437 29.9702L0.231456 30.7832L0 31.7044L0.0680758 32.6687L0.480424 33.5494L1.06821 34.3138L1.7513 34.9934L2.60284 35.4427L3.50649 35.7979L4.46033 35.6162L5.34493 35.2506L6.13927 34.7056L6.86127 34.0645L7.56964 33.4075L7.51207 33.5074Z" fill="#32D496"/>
    <path d="M34.8309 7.80015C34.2847 7.3773 33.7382 6.95368 33.192 6.53083C32.9532 6.34566 32.7139 6.1601 32.4584 5.99867C32.3627 5.93837 32.2635 5.87963 32.1857 5.79755C32.1238 5.73142 32.0775 5.65284 32.0336 5.57387C31.8461 5.23738 31.4182 4.55429 31.578 4.17773C32.0853 4.84293 32.628 5.40777 33.2508 5.97299C33.5526 6.24685 33.8588 6.51916 34.133 6.82219C34.368 7.08205 34.5734 7.60059 34.8309 7.80053V7.80015Z" fill="#32D496"/>
</svg>