<svg xmlns="http://www.w3.org/2000/svg" width="39" height="38" viewBox="0 0 39 38" fill="none">
    <path d="M38.8118 18.3696L38.0144 18.0299L35.1291 18.213L32.286 18.1138L31.324 14.3615L29.1806 11.0055L31.1271 8.91303L33.2886 7.03826L33.2771 5.68469L32.5904 5.3489L31.7685 5.55353L29.9839 7.7964L27.885 9.81387L24.7352 7.67524L23.3971 8.4753L23.6657 7.16174L20.3689 6.72593L20.504 3.87493L20.6434 1.05701L19.4939 0L18.7028 0.283869L18.637 1.05662L18.6193 3.87454L18.3366 6.60707L14.6791 7.79332L11.128 9.76118L9.10154 7.69947L7.13065 5.63853L5.68231 5.65738L5.55866 6.35551L5.57362 7.15943L7.68628 9.0815L9.97771 10.9228L7.90207 13.578L10.4731 15.4655L11.8234 13.2292L13.9415 14.7639L15.7037 16.7321L16.5027 16.9475L16.7961 17.2275L16.1668 18.6119L15.6659 18.8711L15.065 18.1788L12.3944 18.0199L9.70088 18.2634L10.5203 15.4763L7.44213 15.2959L6.78136 18.3065L3.85751 18.293L0.97265 18.0865L0 19.1473L0.309908 19.7947L0.97265 20.2801L3.85751 20.2536L6.77191 20.0312L7.7544 23.8969L9.82137 27.2957L7.69179 29.2185L5.57796 31.1394L5.72799 32.5942L7.21019 32.7338L9.27362 30.7633L11.1122 28.5323L13.2847 30.0621L14.9603 27.7442L13.4036 26.6364L15.2461 24.8043L16.926 22.7561L17.1091 22.0256L17.4506 21.5029L18.1633 22.0668L20.2141 17.9857L19.2033 22.0745L18.383 24.922L18.4827 28.6869L17.6675 28.6039L16.7268 31.4083L18.4177 31.6233L18.6803 34.4209L18.4555 37.2388L19.4939 38L20.048 37.78L20.6713 37.2392L20.3354 34.4213L20.3311 31.5437L24.4083 30.736L27.8575 28.5419L29.7788 30.7013L31.8528 32.6615L33.4161 32.7465L33.4791 31.9407L33.389 31.1614L31.3862 29.1716L29.0782 27.3426L30.7191 24.8282L30.3218 20.8086L29.9571 16.6902L30.7872 19.8851L31.7079 22.788L32.219 20.022L35.1299 20.2301L38.0151 20.1709L39 19.1485L38.8122 18.3696H38.8118ZM16.4846 21.2952L15.7734 21.6314L13.8644 23.4561L11.9104 25.249L10.4447 22.8092L9.71545 20.0728L12.3944 20.0509L15.065 19.9135L15.6647 19.4227L16.1845 19.6654L17.0091 21.0817L16.4842 21.2948L16.4846 21.2952ZM18.8977 15.8555L17.5234 16.654L17.2639 16.2194L16.9946 15.4716L15.0768 13.6557L13.2556 11.7383L15.6903 10.1812L18.5587 9.59347L18.3161 12.2145L18.6162 14.8231L19.0056 15.5047L18.8977 15.8559V15.8555ZM19.8259 16.0986L19.7625 15.4024L20.478 14.8224L20.6689 12.2137L20.5618 9.64155L23.2419 10.3078L25.6192 11.6879L23.7243 13.4742L21.9401 15.4205L21.8538 16.2617L21.4593 16.5329L19.8259 16.0986ZM20.5425 28.6616L20.515 26.0825L20.5496 23.4738L19.8814 22.8353L19.7975 22.1714L21.4569 21.8625L21.7337 22.0737L21.8468 22.9669L23.887 24.6632L25.6165 26.6091L23.2061 27.9034L20.5425 28.6612V28.6616ZM27.1203 25.154L25.3085 23.2746L23.2927 21.5544L22.4591 21.4229L21.8952 21.0763L22.7359 19.5974L23.2597 19.5443L23.922 20.1901L26.5926 20.1224L29.2507 20.1266L28.6348 22.8472L27.1207 25.1543L27.1203 25.154ZM23.9216 18.0926L23.2782 18.7884L22.654 18.7834L22.248 17.2295L22.4059 16.7179L23.273 16.7229L25.2109 14.9262L27.1376 13.1795L28.699 15.4232L29.2448 18.1553L26.5926 18.1834L23.9216 18.0926Z" fill="#32D496"/>
</svg>