<svg xmlns="http://www.w3.org/2000/svg" width="27" height="44" viewBox="0 0 27 44" fill="none">
    <path d="M22.9259 36.9403L25.4641 38.4797L20.8976 40.5069L16.1138 42.1237L11.4354 44L10.0197 43.5277L9.93274 43.3897C9.92663 42.7971 9.94017 42.2033 9.95284 41.6116C9.96551 41.0515 9.97818 40.4905 10.028 39.9321C10.1311 38.785 10.3745 37.5303 9.95372 36.4559C9.64523 37.0653 9.53555 37.7569 9.52463 38.4381C9.5172 38.8871 9.54997 39.3404 9.47744 39.7842C9.39966 40.2608 9.20391 40.7089 9.05447 41.1687C8.99286 41.3586 8.93956 41.5506 8.89237 41.7448L8.1963 40.6436L7.39887 37.3503L5.64714 34.4368L4.88772 31.1285L3.04816 28.2089L4.48398 24.6055L5.3522 21.0683L6.80899 17.5913L7.93064 14.3257L5.67467 16.7176L3.20765 19.3486L0.748932 22.2699L0.413791 20.035L0 16.4879L1.74911 12.9105L2.26515 7.97016L1.41528 4.81401L0.919343 4.64187L0.710917 4.3936L0.0952554 2.6077L0.303243 1.98054L5.85819 0L6.16318 0.193776L7.05761 1.87025L7.24769 2.16134L6.89638 2.63365L8.4292 5.52119L12.4688 8.52941L13.871 8.72318L13.947 8.76989C13.8404 9.95718 13.7333 11.1445 13.6267 12.3313C14.1537 11.4157 14.7095 10.5156 15.2915 9.63322C15.2967 9.625 15.3024 9.61721 15.3077 9.609L16.6495 10.4377L18.594 12.8054L19.609 15.8253L20.8556 18.753L21.9738 21.7318L23.0701 24.7189L24.7239 27.4844L25.9985 30.4022L27 33.4403L22.9508 32.1354L18.9793 30.7141L16.0256 28.1752L18.1876 31.6354L20.7036 34.9027L22.925 36.9403H22.9259Z" fill="#32D496"/>
</svg>