<?xml version="1.0" encoding="UTF-8"?>
<svg id="Calque_1" data-name="Calque 1" xmlns="http://www.w3.org/2000/svg" version="1.1" viewBox="0 0 1080 1080">
    <defs>
        <style>
            .cls-1 {
            fill: #483c31;
            }

            .cls-1, .cls-2, .cls-3, .cls-4, .cls-5, .cls-6, .cls-7, .cls-8, .cls-9, .cls-10, .cls-11, .cls-12, .cls-13, .cls-14, .cls-15, .cls-16, .cls-17, .cls-18, .cls-19, .cls-20, .cls-21, .cls-22, .cls-23, .cls-24, .cls-25, .cls-26, .cls-27, .cls-28, .cls-29, .cls-30, .cls-31 {
            stroke-width: 0px;
            }

            .cls-2 {
            fill: #343635;
            }

            .cls-3 {
            fill: #655444;
            }

            .cls-4 {
            fill: #403732;
            }

            .cls-5, .cls-32 {
            fill: #000;
            }

            .cls-6 {
            fill: #604f41;
            }

            .cls-7 {
            fill: #0c0a08;
            }

            .cls-8 {
            fill: #2c241e;
            }

            .cls-9 {
            fill: #44382e;
            }

            .cls-10 {
            fill: #534741;
            }

            .cls-11 {
            fill: #bf9e81;
            }

            .cls-12 {
            fill: #6e5b4b;
            }

            .cls-13 {
            fill: #fdfdfd;
            }

            .cls-32 {
            stroke: #000;
            stroke-miterlimit: 10;
            stroke-width: 2px;
            }

            .cls-14 {
            fill: #696d6a;
            }

            .cls-15 {
            fill: #28211b;
            }

            .cls-16 {
            fill: #120f0c;
            }

            .cls-17 {
            fill: #2a2421;
            }

            .cls-18 {
            fill: #010101;
            }

            .cls-19 {
            fill: #3e3531;
            }

            .cls-20 {
            fill: #211b16;
            }

            .cls-21 {
            fill: #080705;
            }

            .cls-22 {
            fill: #151210;
            }

            .cls-23 {
            fill: #2b2522;
            }

            .cls-24 {
            fill: #1c1713;
            }

            .cls-25 {
            fill: #665545;
            }

            .cls-26 {
            fill: #453a2f;
            }

            .cls-27 {
            fill: #15120e;
            }

            .cls-28 {
            fill: #241e19;
            }

            .cls-29 {
            fill: #030202;
            }

            .cls-30 {
            fill: #2c251e;
            }

            .cls-31 {
            fill: #6c5a49;
            }
        </style>
    </defs>
    <path class="cls-13" d="M689.3,897.18c-18.63.66-37.28,1.38-55.88,2.46-23.76,1.39-47.53,2.54-71.29,3.69-23.57,1.12-47.15,2.16-70.68,3.69-10.27.67-20.68-.34-30.79,1.98-3.77.58-5.13-1.09-6.01-4.73-14.13-58.56-28.43-117.08-42.7-175.61-10.06-41.2-20.15-82.39-30.22-123.58-15.22-62.37-30.46-124.74-45.67-187.12-6.11-25.02-12.08-50.08-18.33-75.07-1.11-4.47-.77-6.58,4.18-8.75,24.74-10.83,49.19-22.33,73.76-33.58,42.8-19.6,85.62-39.14,128.38-58.85,4.82-2.22,5.55-.03,6.55,3.96,23.67,94.61,47.48,189.17,71.22,283.75,30.07,119.77,60.09,239.55,90.13,359.31.29,1.16.37,2.39.82,3.47,1.53,3.59.56,4.83-3.46,4.97Z"/>
    <path class="cls-13" d="M982.49,857.91c-6.48-22.07-13.15-44.05-19.62-66.12-13.28-45.24-25.73-90.71-37.53-136.37-21.52-83.16-40.87-166.85-58.12-251.01-5.28-25.75-10.15-51.6-14.76-77.49-3.94-22.18-7.23-44.46-10.81-66.7-3.6-22.43-7.18-44.87-10.83-67.31-1.1-6.75-1.24-13.9-10.12-16.23-5.1-1.34-9.78-4.19-14.66-6.36-.24.21-.49.42-.73.63,1.34,1.44,2.99,2.68,3.98,4.33,4,6.66,12.03,10.24,13.37,19.09,4.18,27.56,8.32,55.12,13.41,82.5,8.27,44.51,16.49,89.03,25.69,133.36,11.46,55.23,23.81,110.24,37,165.06,14.13,58.75,29.61,117.14,46.07,175.27,10.04,35.46,20.87,70.7,31.37,106.03.38,1.31.78,2.79,1.65,3.75,1.19,1.3,3.04,2.58,4.75,1.73,2.07-1.04.27-2.88-.11-4.17ZM970.06,858.45c-2.15-6.39-3.82-12.93-5.79-19.38-27.63-90.31-52.4-181.38-74.31-273.24-8.84-37.01-17.26-74.14-25.42-111.3-10.72-48.78-20.49-97.74-29.22-146.92-6-33.73-11.52-67.56-17.58-101.29-1.06-5.88.01-12.57-4.52-17.48-7.81-8.47-15.96-16.64-23.76-25.12-2.41-2.63-4.34-2.98-7.59-1.3-12.71,6.56-25.54,12.94-38.47,19.06-3.88,1.82-4.75,3.61-3.28,7.74,6.26,17.79,12.18,35.69,18.22,53.55.06,1.86.66,3.47,2.27,5.58-.18-3.67.81-6.59-1.1-9.18v-.03c-.2-3.36-.27-6.74-.62-10.1-1.4-13.59-2.79-27.2-4.44-40.77-.38-3.13.43-4.1,3.45-4.52,6.35-.9,12.7-.38,19.05-.61,1.58-.05,2.68.59,3.31,2.01,4.87,10.86,12.09,20.73,14.69,32.49,11.81,53.42,23.31,106.89,35,160.34,10.12,46.28,19.5,92.74,30.71,138.75,19.34,79.39,39.84,158.48,59.83,237.7,10.2,40.38,20.3,80.79,30.6,121.14.93,3.65-.15,4.99-3.41,6.01-9.09,2.85-18.13,5.92-27.16,8.94q-13.04,4.36-19.1-7.6c-.39-1.04-1.09-2.99-1.63-2.61-1.45,1.02-.71,2.56.34,3.76.44,2.13,1.15,4.24,1.28,6.4.32,5.63,3.27,7.01,8.57,6.77,10.12-.47,20.34-.9,30.41-.11,9.01.68,15.41-2.22,21.16-8.99,5.68-6.69,12.32-12.56,18.54-18.78.23-.62.44-1.22.67-1.83-9.21,2.13-9.1-4.41-10.68-9.09ZM942.92,869.7c-27.46-108.14-55.18-216.22-81.94-324.55-23.77-96.2-42.77-193.47-64.62-290.12-4.37-19.26-6.32-39.23-16.61-56.87-4.91-8.39-4.44-8.39-14.19-8.17-4.08.09-4.41,1.45-3.99,4.92,1.65,13.62,3.06,27.27,4.48,40.9,2.25,21.35,4.44,42.69,6.65,64.04-.4.49-.82.98-1.24,1.48-.45-1.1-.96-2.17-1.34-3.29-13.03-38.55-26.03-77.1-39.04-115.65-.63-1.84-.62-4.23-2.47-5.24-9.13-4.94-18.34-9.68-28.45-14.98.53,2.84.73,4.39,1.1,5.91,28.73,118.25,57.47,236.52,86.2,354.78,30.55,125.79,61.08,251.59,91.59,377.39,3.38,13.9,3.24,13.8,15.24,5.89,3.03-2.01,3.56-3.75,2.65-7.23-4.06-15.35-7.75-30.8-11.55-46.23-2.07-8.42-4.08-16.86-6.11-25.3,2.17,1.51,3.22,3.36,4.17,5.26,8.32,16.7,16.69,33.39,24.87,50.16,1.48,3.03,2.7,4.13,6.27,2.8,7.8-2.9,15.74-5.54,23.79-7.61,5.09-1.31,5.77-3.43,4.53-8.31ZM886.79,958.57c-1.69-6.93-3.32-13.86-5-20.79-10.31-42.53-20.64-85.04-30.98-127.57-10.38-42.72-20.8-85.41-31.17-128.12-9.91-40.8-19.74-81.61-29.65-122.39-13.61-55.98-27.25-111.97-40.87-167.95-11.71-48.09-23.4-96.2-35.1-144.29-13.05-53.67-26.13-107.35-39.14-161.03-.48-1.97-.66-4.05-2.59-5.11-10.69-5.88-21.42-11.7-32.64-17.81.2,3.7,2.47,5.33,3.61,7.54,4.29,8.44,11.41,15.36,13.66,24.89,6.16,26.19,12.21,52.42,18.28,78.64,10.28,44.34,20.5,88.7,30.8,133.05,11.95,51.48,23.98,102.93,35.94,154.4,11.56,49.73,23.07,99.48,34.64,149.22,12.19,52.44,24.44,104.86,36.62,157.3,13.94,59.95,27.88,119.91,41.73,179.88,3.89,16.85,9.69,33.48,7.31,51.25-.06.52.27,1.1.91,3.55,8.27-13.8,15.78-26.32,23.26-38.85,1.09-1.83.87-3.8.39-5.78ZM851.11,958.8c-14.67-61.66-28.82-123.47-43.17-185.21-13.14-56.54-26.27-113.08-39.42-169.6-13.37-57.5-26.8-115-40.15-172.49-16.35-70.44-32.66-140.87-48.98-211.31-7.69-33.2-15.17-66.45-23.16-99.56-2.36-9.78-2.88-20.23-7.93-29.15-6.16-10.87-13.06-21.33-19.86-31.84-6.25-9.67-14.44-11.08-23.45-4.33-1.91,1.43-3.81,2.87-5.74,4.25-32.39,23.29-64.76,46.59-97.17,69.84-16.28,11.69-31.68,25.01-49.13,34.59-55.39,30.4-111.37,59.73-167.49,88.78-25.12,13-48.77,28.28-72.68,43.21-2.9,1.82-3.65,3.57-2.78,7.21,12.72,53.38,25.2,106.82,37.74,160.25,12.69,53.99,25.37,107.99,38.08,161.99,13.12,55.73,26.26,111.46,39.41,167.19,12.19,51.68,24.44,103.33,36.63,155.01,5.59,23.72,11.13,47.45,16.69,71.17.54,2.31.75,4.8,4.06,4.96,4.94.24,9.87.93,14.81.96,25.86.1,51.73.05,77.61.05,34.78,0,69.58.39,104.34-1,17.07-.68,34.16-.34,51.24-.93,28.57-.97,57.16-1.41,85.74-2.55,19.43-.77,38.85-1.6,58.27-2.34,25.38-.95,50.72-2.34,76.08-3.69,4-.21,5.35-1.12,5.52-5.36.64-16.98-1.15-33.54-5.09-50.11ZM748.56,941.78c-11.47,16.7-11.35,16.91-31.66,17.36-27.81.59-55.64.58-83.44,1.5-31.17,1.05-62.33,1.57-93.49,2.56-15.08.48-30.18.23-45.25,1-6.93.37-13.82,1.29-21.98.85-14.69,3.86-24.43-8.18-36.37-14.55-1.34-.72-1.43-2.22-1.77-3.61-13.63-56.63-27.3-113.25-41-169.87-9.87-40.84-19.75-81.66-29.65-122.48-12.11-49.87-24.27-99.72-36.35-149.6-11.83-48.91-23.58-97.85-35.37-146.78-2.79-11.55-5.43-23.15-8.48-34.64-.92-3.46-.45-5.35,2.64-7.37,19.1-12.53,38.1-25.22,57.02-38.01,2.55-1.73,5.09-2.03,7.88-1.83,11.85.83,23.73,1.48,35.55,2.7,3.41.35,3.77-.73,3.6-3.36-.08-.98.21-2.07-.1-2.97-3.66-10.51,1.3-15.65,10.38-20.66,33.36-18.43,66.23-37.78,99.28-56.78,11.88-6.83,23.82-13.56,35.58-20.58,2.89-1.73,5-1.53,8.16-.48,13.78,4.58,19.54,13.82,22.94,28.09,15.75,66.13,32.96,131.91,49.63,197.8,15.53,61.3,31.04,122.58,46.57,183.87,15.53,61.3,31.03,122.58,46.58,183.87,13.7,53.99,27.4,107.96,41.25,161.9,1.19,4.59.57,8.13-2.13,12.07ZM206.09,409.98c-5.36-7.13-10.48-14.47-15.67-21.74-.91-1.29-1.55-2.87-3.37-3.11-6.27-.83-12.56-1.63-18.87-2.44-1.96-.54-3.33.71-4.83,1.68-3.33,2.17-6.63,4.42-10.09,6.34-3.53,1.97-4.63,4.89-5.15,8.74-1.28,9.25,3.14,17.04,5.98,25.2,3.88,11.17,7.59,22.04,18.2,29.74,11.23,8.15,10.48,8.97,21.8-.04,3.94-3.13,7.71-5.87,8.57-11.44,1.36-8.79,3.31-17.5,4.94-26.24.45-2.4.1-4.53-1.51-6.69ZM261.15,653.36c-.32-2.8-1.63-5-4.37-6.6-6.84-3.99-13.54-8.27-20.13-12.67-2.59-1.72-4.1-1.1-6.06.92-6.22,6.41-12.64,12.65-18.97,18.97-1.1,1.1-2.54,2.07-2.12,3.98,1.34,6.08.13,12.29.9,18.38.48,3.79.06,7.9,3.18,11.11,6.1,6.25,12.11,12.59,17.92,19.09,2.4,2.66,5.02,3.65,8.43,3.07,4.48-.77,8.96-1.54,13.44-2.23,1.4-.21,2.85-.19,3.34-1.89,2.36-8.32,7.16-15.96,7.35-23.81-1.03-10.2-1.87-19.26-2.92-28.3ZM261.15,653.36c-.32-2.8-1.63-5-4.37-6.6-6.84-3.99-13.54-8.27-20.13-12.67-2.59-1.72-4.1-1.1-6.06.92-6.22,6.41-12.64,12.65-18.97,18.97-1.1,1.1-2.54,2.07-2.12,3.98,1.34,6.08.13,12.29.9,18.38.48,3.79.06,7.9,3.18,11.11,6.1,6.25,12.11,12.59,17.92,19.09,2.4,2.66,5.02,3.65,8.43,3.07,4.48-.77,8.96-1.54,13.44-2.23,1.4-.21,2.85-.19,3.34-1.89,2.36-8.32,7.16-15.96,7.35-23.81-1.03-10.2-1.87-19.26-2.92-28.3ZM206.09,409.98c-5.36-7.13-10.48-14.47-15.67-21.74-.91-1.29-1.55-2.87-3.37-3.11-6.27-.83-12.56-1.63-18.87-2.44-1.96-.54-3.33.71-4.83,1.68-3.33,2.17-6.63,4.42-10.09,6.34-3.53,1.97-4.63,4.89-5.15,8.74-1.28,9.25,3.14,17.04,5.98,25.2,3.88,11.17,7.59,22.04,18.2,29.74,11.23,8.15,10.48,8.97,21.8-.04,3.94-3.13,7.71-5.87,8.57-11.44,1.36-8.79,3.31-17.5,4.94-26.24.45-2.4.1-4.53-1.51-6.69ZM371.92,1018.36c-11.64-49.02-23.02-98.07-34.54-147.11-14.64-62.33-29.31-124.67-44-187-15.39-65.24-30.81-130.46-46.21-195.68-14.21-60.2-28.45-120.39-42.5-180.62-1.09-4.66-2.07-5.66-6.29-2.71-7.65,5.34-15.51,10.43-23.54,15.19-7.47,4.43-14.13,10.28-22.73,12.86-16.91,5.07-33.7,10.58-50.62,15.65-4.15,1.25-5.07,2.79-3.93,7.2,23.5,89.38,46.19,178.98,67.82,268.83,18.06,74.98,35.47,150.11,51.94,225.45,9.78,44.74,18.93,89.61,29.01,134.27,3.02,13.34,2.64,27.95,14.24,38.73,5.58,5.2,9.68,7.94,17.81,5.98,12.83-3.09,25.68-7.65,39.12-6.63,9.53.71,19.05.57,30.75.97,4.99,0,12.16-.2,19.3.08,4.41.16,5.44-.93,4.37-5.45ZM180.19,469.41c-7.47-6.51-15.22-12.72-22.9-19.01-1.14-.93-1.7-2.08-2.2-3.42-4.24-11.55-8.56-23.06-12.81-34.61-.53-1.45-.78-3.02-.83-3.23.24-2.73.68-4.17.43-5.47-2.01-10.87,4.18-16.04,12.24-22.13,10.02-7.56,19.67-4.27,29.83-3.64,6.64.4,10.72,3.71,14.15,9.03,4.73,7.33,9.92,14.38,15.07,21.43,1.53,2.1,2.05,4.14,1.56,6.65-2.04,10.7-3.99,21.42-5.97,32.13-.59,3.19-1.83,5.82-4.61,7.91-6.02,4.53-11.89,9.28-17.58,14.2-2.36,2.04-3.84,2.37-6.39.15ZM257.93,713.44c-7.04,1.07-14.09,2.18-21.13,3.32-2.74.44-4.94-.16-6.94-2.31-7.85-8.43-15.84-16.74-23.81-25.07-1.17-1.22-1.74-2.56-1.8-4.25-.4-9.32-.82-18.63-1.34-27.95-.15-2.78.62-4.9,2.65-6.88,8.13-7.91,16.17-15.91,24.12-23.98,1.98-2.02,3.42-2.49,6.03-.78,9.14,5.97,18.51,11.6,27.76,17.42,1.63,1.02,3.64,1.77,3.88,4.18,1.17,12.03,2.37,24.06,3.69,37.31-2.03,8.5-5.89,17.63-9.18,26.98-.67,1.92-2.36,1.78-3.93,2.02ZM334.73,948.48c-4.87,5.74-9.73,11.49-14.55,17.28-1.75,2.11-3.67,3.64-5.6,3.17-10.64-1.24-20.26-2.5-29.89-3.42-2.81-.27-4.19-1.48-5.24-3.9-5.53-12.72-11.08-25.44-16.83-38.06-1.16-2.54-.64-4.03,1.36-5.54,9.64-7.28,19.3-14.57,28.88-21.94,1.93-1.48,3.37-1.29,5.28.06,8.75,6.17,17.6,12.21,26.39,18.29,1.98,1.38,3.43,3.03,4.19,5.53,2.17,7.2,4.51,14.37,7.11,21.42,1.03,2.8.74,4.94-1.1,7.11ZM319.86,919.31c-7.22-4.88-14.45-9.77-21.6-14.78-1.88-1.33-3.31-1.62-5.26-.06-6.69,5.28-13.51,10.39-20.28,15.54-2.11,1.62-2.97,3.19-1.64,6.03,4.61,9.88,8.89,19.92,13.32,29.88.72,1.62,1.48,3.12,3.72,3.33,7.08.67,14.15,1.55,22.37,2.49,3.55.91,5.58-2.51,8.71-5.09,10.67-8.74,10.41-18.54,4.68-29.6-1.34-2.58-1.24-5.86-4.01-7.74ZM256.78,646.75c-6.84-3.99-13.54-8.27-20.13-12.67-2.59-1.72-4.1-1.1-6.06.92-6.22,6.41-12.64,12.65-18.97,18.97-1.1,1.1-2.54,2.07-2.12,3.98,1.34,6.08.13,12.29.9,18.38.48,3.79.06,7.9,3.18,11.11,6.1,6.25,12.11,12.59,17.92,19.09,2.4,2.66,5.02,3.65,8.43,3.07,4.48-.77,8.96-1.54,13.44-2.23,1.4-.21,2.85-.19,3.34-1.89,2.36-8.32,7.16-15.96,7.35-23.81-1.03-10.2-1.87-19.26-2.92-28.3-.32-2.8-1.63-5-4.37-6.6ZM206.09,409.98c-5.36-7.13-10.48-14.47-15.67-21.74-.91-1.29-1.55-2.87-3.37-3.11-6.27-.83-12.56-1.63-18.87-2.44-1.96-.54-3.33.71-4.83,1.68-3.33,2.17-6.63,4.42-10.09,6.34-3.53,1.97-4.63,4.89-5.15,8.74-1.28,9.25,3.14,17.04,5.98,25.2,3.88,11.17,7.59,22.04,18.2,29.74,11.23,8.15,10.48,8.97,21.8-.04,3.94-3.13,7.71-5.87,8.57-11.44,1.36-8.79,3.31-17.5,4.94-26.24.45-2.4.1-4.53-1.51-6.69ZM261.15,653.36c-.32-2.8-1.63-5-4.37-6.6-6.84-3.99-13.54-8.27-20.13-12.67-2.59-1.72-4.1-1.1-6.06.92-6.22,6.41-12.64,12.65-18.97,18.97-1.1,1.1-2.54,2.07-2.12,3.98,1.34,6.08.13,12.29.9,18.38.48,3.79.06,7.9,3.18,11.11,6.1,6.25,12.11,12.59,17.92,19.09,2.4,2.66,5.02,3.65,8.43,3.07,4.48-.77,8.96-1.54,13.44-2.23,1.4-.21,2.85-.19,3.34-1.89,2.36-8.32,7.16-15.96,7.35-23.81-1.03-10.2-1.87-19.26-2.92-28.3ZM261.15,653.36c-.32-2.8-1.63-5-4.37-6.6-6.84-3.99-13.54-8.27-20.13-12.67-2.59-1.72-4.1-1.1-6.06.92-6.22,6.41-12.64,12.65-18.97,18.97-1.1,1.1-2.54,2.07-2.12,3.98,1.34,6.08.13,12.29.9,18.38.48,3.79.06,7.9,3.18,11.11,6.1,6.25,12.11,12.59,17.92,19.09,2.4,2.66,5.02,3.65,8.43,3.07,4.48-.77,8.96-1.54,13.44-2.23,1.4-.21,2.85-.19,3.34-1.89,2.36-8.32,7.16-15.96,7.35-23.81-1.03-10.2-1.87-19.26-2.92-28.3Z"/>
    <path class="cls-5" d="M689.3,897.18c-18.63.66-37.28,1.38-55.88,2.46-23.76,1.39-47.53,2.54-71.29,3.69-23.57,1.12-47.15,2.16-70.68,3.69-10.27.67-20.68-.34-30.79,1.98-3.77.58-5.13-1.09-6.01-4.73-14.13-58.56-28.43-117.08-42.7-175.61-10.06-41.2-20.15-82.39-30.22-123.58-15.22-62.37-30.46-124.74-45.67-187.12-6.11-25.02-12.08-50.08-18.33-75.07-1.11-4.47-.77-6.58,4.18-8.75,24.74-10.83,49.19-22.33,73.76-33.58,42.8-19.6,85.62-39.14,128.38-58.85,4.82-2.22,5.55-.03,6.55,3.96,23.67,94.61,47.48,189.17,71.22,283.75,30.07,119.77,60.09,239.55,90.13,359.31.29,1.16.37,2.39.82,3.47,1.53,3.59.56,4.83-3.46,4.97Z"/>
    <path class="cls-5" d="M982.49,857.91c-6.48-22.07-13.15-44.05-19.62-66.12-13.28-45.24-25.73-90.71-37.53-136.37-21.52-83.16-40.87-166.85-58.12-251.01-5.28-25.75-10.15-51.6-14.76-77.49-3.94-22.18-7.23-44.46-10.81-66.7-3.6-22.43-7.18-44.87-10.83-67.31-1.1-6.75-1.24-13.9-10.12-16.23-5.1-1.34-9.78-4.19-14.66-6.36-.24.21-.49.42-.73.63,1.34,1.44,2.99,2.68,3.98,4.33,4,6.66,12.03,10.24,13.37,19.09,4.18,27.56,8.32,55.12,13.41,82.5,8.27,44.51,16.49,89.03,25.69,133.36,11.46,55.23,23.81,110.24,37,165.06,14.13,58.75,29.61,117.14,46.07,175.27,10.04,35.46,20.87,70.7,31.37,106.03.38,1.31.78,2.79,1.65,3.75,1.19,1.3,3.04,2.58,4.75,1.73,2.07-1.04.27-2.88-.11-4.17ZM970.06,858.45c-2.15-6.39-3.82-12.93-5.79-19.38-27.63-90.31-52.4-181.38-74.31-273.24-8.84-37.01-17.26-74.14-25.42-111.3-10.72-48.78-20.49-97.74-29.22-146.92-6-33.73-11.52-67.56-17.58-101.29-1.06-5.88.01-12.57-4.52-17.48-7.81-8.47-15.96-16.64-23.76-25.12-2.41-2.63-4.34-2.98-7.59-1.3-12.71,6.56-25.54,12.94-38.47,19.06-3.88,1.82-4.75,3.61-3.28,7.74,6.26,17.79,12.18,35.69,18.22,53.55.06,1.86.66,3.47,2.27,5.58-.18-3.67.81-6.59-1.1-9.18v-.03c-.2-3.36-.27-6.74-.62-10.1-1.4-13.59-2.79-27.2-4.44-40.77-.38-3.13.43-4.1,3.45-4.52,6.35-.9,12.7-.38,19.05-.61,1.58-.05,2.68.59,3.31,2.01,4.87,10.86,12.09,20.73,14.69,32.49,11.81,53.42,23.31,106.89,35,160.34,10.12,46.28,19.5,92.74,30.71,138.75,19.34,79.39,39.84,158.48,59.83,237.7,10.2,40.38,20.3,80.79,30.6,121.14.93,3.65-.15,4.99-3.41,6.01-9.09,2.85-18.13,5.92-27.16,8.94q-13.04,4.36-19.1-7.6c-.39-1.04-1.09-2.99-1.63-2.61-1.45,1.02-.71,2.56.34,3.76.44,2.13,1.15,4.24,1.28,6.4.32,5.63,3.27,7.01,8.57,6.77,10.12-.47,20.34-.9,30.41-.11,9.01.68,15.41-2.22,21.16-8.99,5.68-6.69,12.32-12.56,18.54-18.78.23-.62.44-1.22.67-1.83-9.21,2.13-9.1-4.41-10.68-9.09ZM942.92,869.7c-27.46-108.14-55.18-216.22-81.94-324.55-23.77-96.2-42.77-193.47-64.62-290.12-4.37-19.26-6.32-39.23-16.61-56.87-4.91-8.39-4.44-8.39-14.19-8.17-4.08.09-4.41,1.45-3.99,4.92,1.65,13.62,3.06,27.27,4.48,40.9,2.25,21.35,4.44,42.69,6.65,64.04-.4.49-.82.98-1.24,1.48-.45-1.1-.96-2.17-1.34-3.29-13.03-38.55-26.03-77.1-39.04-115.65-.63-1.84-.62-4.23-2.47-5.24-9.13-4.94-18.34-9.68-28.45-14.98.53,2.84.73,4.39,1.1,5.91,28.73,118.25,57.47,236.52,86.2,354.78,30.55,125.79,61.08,251.59,91.59,377.39,3.38,13.9,3.24,13.8,15.24,5.89,3.03-2.01,3.56-3.75,2.65-7.23-4.06-15.35-7.75-30.8-11.55-46.23-2.07-8.42-4.08-16.86-6.11-25.3,2.17,1.51,3.22,3.36,4.17,5.26,8.32,16.7,16.69,33.39,24.87,50.16,1.48,3.03,2.7,4.13,6.27,2.8,7.8-2.9,15.74-5.54,23.79-7.61,5.09-1.31,5.77-3.43,4.53-8.31ZM886.79,958.57c-1.69-6.93-3.32-13.86-5-20.79-10.31-42.53-20.64-85.04-30.98-127.57-10.38-42.72-20.8-85.41-31.17-128.12-9.91-40.8-19.74-81.61-29.65-122.39-13.61-55.98-27.25-111.97-40.87-167.95-11.71-48.09-23.4-96.2-35.1-144.29-13.05-53.67-26.13-107.35-39.14-161.03-.48-1.97-.66-4.05-2.59-5.11-10.69-5.88-21.42-11.7-32.64-17.81.2,3.7,2.47,5.33,3.61,7.54,4.29,8.44,11.41,15.36,13.66,24.89,6.16,26.19,12.21,52.42,18.28,78.64,10.28,44.34,20.5,88.7,30.8,133.05,11.95,51.48,23.98,102.93,35.94,154.4,11.56,49.73,23.07,99.48,34.64,149.22,12.19,52.44,24.44,104.86,36.62,157.3,13.94,59.95,27.88,119.91,41.73,179.88,3.89,16.85,9.69,33.48,7.31,51.25-.06.52.27,1.1.91,3.55,8.27-13.8,15.78-26.32,23.26-38.85,1.09-1.83.87-3.8.39-5.78ZM851.11,958.8c-14.67-61.66-28.82-123.47-43.17-185.21-13.14-56.54-26.27-113.08-39.42-169.6-13.37-57.5-26.8-115-40.15-172.49-16.35-70.44-32.66-140.87-48.98-211.31-7.69-33.2-15.17-66.45-23.16-99.56-2.36-9.78-2.88-20.23-7.93-29.15-6.16-10.87-13.06-21.33-19.86-31.84-6.25-9.67-14.44-11.08-23.45-4.33-1.91,1.43-3.81,2.87-5.74,4.25-32.39,23.29-64.76,46.59-97.17,69.84-16.28,11.69-31.68,25.01-49.13,34.59-55.39,30.4-111.37,59.73-167.49,88.78-25.12,13-48.77,28.28-72.68,43.21-2.9,1.82-3.65,3.57-2.78,7.21,12.72,53.38,25.2,106.82,37.74,160.25,12.69,53.99,25.37,107.99,38.08,161.99,13.12,55.73,26.26,111.46,39.41,167.19,12.19,51.68,24.44,103.33,36.63,155.01,5.59,23.72,11.13,47.45,16.69,71.17.54,2.31.75,4.8,4.06,4.96,4.94.24,9.87.93,14.81.96,25.86.1,51.73.05,77.61.05,34.78,0,69.58.39,104.34-1,17.07-.68,34.16-.34,51.24-.93,28.57-.97,57.16-1.41,85.74-2.55,19.43-.77,38.85-1.6,58.27-2.34,25.38-.95,50.72-2.34,76.08-3.69,4-.21,5.35-1.12,5.52-5.36.64-16.98-1.15-33.54-5.09-50.11ZM748.56,941.78c-11.47,16.7-11.35,16.91-31.66,17.36-27.81.59-55.64.58-83.44,1.5-31.17,1.05-62.33,1.57-93.49,2.56-15.08.48-30.18.23-45.25,1-6.93.37-13.82,1.29-21.98.85-14.69,3.86-24.43-8.18-36.37-14.55-1.34-.72-1.43-2.22-1.77-3.61-13.63-56.63-27.3-113.25-41-169.87-9.87-40.84-19.75-81.66-29.65-122.48-12.11-49.87-24.27-99.72-36.35-149.6-11.83-48.91-23.58-97.85-35.37-146.78-2.79-11.55-5.43-23.15-8.48-34.64-.92-3.46-.45-5.35,2.64-7.37,19.1-12.53,38.1-25.22,57.02-38.01,2.55-1.73,5.09-2.03,7.88-1.83,11.85.83,23.73,1.48,35.55,2.7,3.41.35,3.77-.73,3.6-3.36-.08-.98.21-2.07-.1-2.97-3.66-10.51,1.3-15.65,10.38-20.66,33.36-18.43,66.23-37.78,99.28-56.78,11.88-6.83,23.82-13.56,35.58-20.58,2.89-1.73,5-1.53,8.16-.48,13.78,4.58,19.54,13.82,22.94,28.09,15.75,66.13,32.96,131.91,49.63,197.8,15.53,61.3,31.04,122.58,46.57,183.87,15.53,61.3,31.03,122.58,46.58,183.87,13.7,53.99,27.4,107.96,41.25,161.9,1.19,4.59.57,8.13-2.13,12.07ZM206.09,409.98c-5.36-7.13-10.48-14.47-15.67-21.74-.91-1.29-1.55-2.87-3.37-3.11-6.27-.83-12.56-1.63-18.87-2.44-1.96-.54-3.33.71-4.83,1.68-3.33,2.17-6.63,4.42-10.09,6.34-3.53,1.97-4.63,4.89-5.15,8.74-1.28,9.25,3.14,17.04,5.98,25.2,3.88,11.17,7.59,22.04,18.2,29.74,11.23,8.15,10.48,8.97,21.8-.04,3.94-3.13,7.71-5.87,8.57-11.44,1.36-8.79,3.31-17.5,4.94-26.24.45-2.4.1-4.53-1.51-6.69ZM261.15,653.36c-.32-2.8-1.63-5-4.37-6.6-6.84-3.99-13.54-8.27-20.13-12.67-2.59-1.72-4.1-1.1-6.06.92-6.22,6.41-12.64,12.65-18.97,18.97-1.1,1.1-2.54,2.07-2.12,3.98,1.34,6.08.13,12.29.9,18.38.48,3.79.06,7.9,3.18,11.11,6.1,6.25,12.11,12.59,17.92,19.09,2.4,2.66,5.02,3.65,8.43,3.07,4.48-.77,8.96-1.54,13.44-2.23,1.4-.21,2.85-.19,3.34-1.89,2.36-8.32,7.16-15.96,7.35-23.81-1.03-10.2-1.87-19.26-2.92-28.3ZM261.15,653.36c-.32-2.8-1.63-5-4.37-6.6-6.84-3.99-13.54-8.27-20.13-12.67-2.59-1.72-4.1-1.1-6.06.92-6.22,6.41-12.64,12.65-18.97,18.97-1.1,1.1-2.54,2.07-2.12,3.98,1.34,6.08.13,12.29.9,18.38.48,3.79.06,7.9,3.18,11.11,6.1,6.25,12.11,12.59,17.92,19.09,2.4,2.66,5.02,3.65,8.43,3.07,4.48-.77,8.96-1.54,13.44-2.23,1.4-.21,2.85-.19,3.34-1.89,2.36-8.32,7.16-15.96,7.35-23.81-1.03-10.2-1.87-19.26-2.92-28.3ZM206.09,409.98c-5.36-7.13-10.48-14.47-15.67-21.74-.91-1.29-1.55-2.87-3.37-3.11-6.27-.83-12.56-1.63-18.87-2.44-1.96-.54-3.33.71-4.83,1.68-3.33,2.17-6.63,4.42-10.09,6.34-3.53,1.97-4.63,4.89-5.15,8.74-1.28,9.25,3.14,17.04,5.98,25.2,3.88,11.17,7.59,22.04,18.2,29.74,11.23,8.15,10.48,8.97,21.8-.04,3.94-3.13,7.71-5.87,8.57-11.44,1.36-8.79,3.31-17.5,4.94-26.24.45-2.4.1-4.53-1.51-6.69ZM371.92,1018.36c-11.64-49.02-23.02-98.07-34.54-147.11-14.64-62.33-29.31-124.67-44-187-15.39-65.24-30.81-130.46-46.21-195.68-14.21-60.2-28.45-120.39-42.5-180.62-1.09-4.66-2.07-5.66-6.29-2.71-7.65,5.34-15.51,10.43-23.54,15.19-7.47,4.43-14.13,10.28-22.73,12.86-16.91,5.07-33.7,10.58-50.62,15.65-4.15,1.25-5.07,2.79-3.93,7.2,23.5,89.38,46.19,178.98,67.82,268.83,18.06,74.98,35.47,150.11,51.94,225.45,9.78,44.74,18.93,89.61,29.01,134.27,3.02,13.34,2.64,27.95,14.24,38.73,5.58,5.2,9.68,7.94,17.81,5.98,12.83-3.09,25.68-7.65,39.12-6.63,9.53.71,19.05.57,30.75.97,4.99,0,12.16-.2,19.3.08,4.41.16,5.44-.93,4.37-5.45ZM180.19,469.41c-7.47-6.51-15.22-12.72-22.9-19.01-1.14-.93-1.7-2.08-2.2-3.42-4.24-11.55-8.56-23.06-12.81-34.61-.53-1.45-.78-3.02-.83-3.23.24-2.73.68-4.17.43-5.47-2.01-10.87,4.18-16.04,12.24-22.13,10.02-7.56,19.67-4.27,29.83-3.64,6.64.4,10.72,3.71,14.15,9.03,4.73,7.33,9.92,14.38,15.07,21.43,1.53,2.1,2.05,4.14,1.56,6.65-2.04,10.7-3.99,21.42-5.97,32.13-.59,3.19-1.83,5.82-4.61,7.91-6.02,4.53-11.89,9.28-17.58,14.2-2.36,2.04-3.84,2.37-6.39.15ZM257.93,713.44c-7.04,1.07-14.09,2.18-21.13,3.32-2.74.44-4.94-.16-6.94-2.31-7.85-8.43-15.84-16.74-23.81-25.07-1.17-1.22-1.74-2.56-1.8-4.25-.4-9.32-.82-18.63-1.34-27.95-.15-2.78.62-4.9,2.65-6.88,8.13-7.91,16.17-15.91,24.12-23.98,1.98-2.02,3.42-2.49,6.03-.78,9.14,5.97,18.51,11.6,27.76,17.42,1.63,1.02,3.64,1.77,3.88,4.18,1.17,12.03,2.37,24.06,3.69,37.31-2.03,8.5-5.89,17.63-9.18,26.98-.67,1.92-2.36,1.78-3.93,2.02ZM334.73,948.48c-4.87,5.74-9.73,11.49-14.55,17.28-1.75,2.11-3.67,3.64-5.6,3.17-10.64-1.24-20.26-2.5-29.89-3.42-2.81-.27-4.19-1.48-5.24-3.9-5.53-12.72-11.08-25.44-16.83-38.06-1.16-2.54-.64-4.03,1.36-5.54,9.64-7.28,19.3-14.57,28.88-21.94,1.93-1.48,3.37-1.29,5.28.06,8.75,6.17,17.6,12.21,26.39,18.29,1.98,1.38,3.43,3.03,4.19,5.53,2.17,7.2,4.51,14.37,7.11,21.42,1.03,2.8.74,4.94-1.1,7.11ZM319.86,919.31c-7.22-4.88-14.45-9.77-21.6-14.78-1.88-1.33-3.31-1.62-5.26-.06-6.69,5.28-13.51,10.39-20.28,15.54-2.11,1.62-2.97,3.19-1.64,6.03,4.61,9.88,8.89,19.92,13.32,29.88.72,1.62,1.48,3.12,3.72,3.33,7.08.67,14.15,1.55,22.37,2.49,3.55.91,5.58-2.51,8.71-5.09,10.67-8.74,10.41-18.54,4.68-29.6-1.34-2.58-1.24-5.86-4.01-7.74ZM256.78,646.75c-6.84-3.99-13.54-8.27-20.13-12.67-2.59-1.72-4.1-1.1-6.06.92-6.22,6.41-12.64,12.65-18.97,18.97-1.1,1.1-2.54,2.07-2.12,3.98,1.34,6.08.13,12.29.9,18.38.48,3.79.06,7.9,3.18,11.11,6.1,6.25,12.11,12.59,17.92,19.09,2.4,2.66,5.02,3.65,8.43,3.07,4.48-.77,8.96-1.54,13.44-2.23,1.4-.21,2.85-.19,3.34-1.89,2.36-8.32,7.16-15.96,7.35-23.81-1.03-10.2-1.87-19.26-2.92-28.3-.32-2.8-1.63-5-4.37-6.6ZM206.09,409.98c-5.36-7.13-10.48-14.47-15.67-21.74-.91-1.29-1.55-2.87-3.37-3.11-6.27-.83-12.56-1.63-18.87-2.44-1.96-.54-3.33.71-4.83,1.68-3.33,2.17-6.63,4.42-10.09,6.34-3.53,1.97-4.63,4.89-5.15,8.74-1.28,9.25,3.14,17.04,5.98,25.2,3.88,11.17,7.59,22.04,18.2,29.74,11.23,8.15,10.48,8.97,21.8-.04,3.94-3.13,7.71-5.87,8.57-11.44,1.36-8.79,3.31-17.5,4.94-26.24.45-2.4.1-4.53-1.51-6.69ZM261.15,653.36c-.32-2.8-1.63-5-4.37-6.6-6.84-3.99-13.54-8.27-20.13-12.67-2.59-1.72-4.1-1.1-6.06.92-6.22,6.41-12.64,12.65-18.97,18.97-1.1,1.1-2.54,2.07-2.12,3.98,1.34,6.08.13,12.29.9,18.38.48,3.79.06,7.9,3.18,11.11,6.1,6.25,12.11,12.59,17.92,19.09,2.4,2.66,5.02,3.65,8.43,3.07,4.48-.77,8.96-1.54,13.44-2.23,1.4-.21,2.85-.19,3.34-1.89,2.36-8.32,7.16-15.96,7.35-23.81-1.03-10.2-1.87-19.26-2.92-28.3ZM261.15,653.36c-.32-2.8-1.63-5-4.37-6.6-6.84-3.99-13.54-8.27-20.13-12.67-2.59-1.72-4.1-1.1-6.06.92-6.22,6.41-12.64,12.65-18.97,18.97-1.1,1.1-2.54,2.07-2.12,3.98,1.34,6.08.13,12.29.9,18.38.48,3.79.06,7.9,3.18,11.11,6.1,6.25,12.11,12.59,17.92,19.09,2.4,2.66,5.02,3.65,8.43,3.07,4.48-.77,8.96-1.54,13.44-2.23,1.4-.21,2.85-.19,3.34-1.89,2.36-8.32,7.16-15.96,7.35-23.81-1.03-10.2-1.87-19.26-2.92-28.3Z"/>
    <path class="cls-19" d="M689.3,897.18c-18.63.66-37.28,1.38-55.88,2.46-23.76,1.39-47.53,2.54-71.29,3.69-23.57,1.12-47.15,2.16-70.68,3.69-10.27.67-20.68-.34-30.79,1.98-3.77.58-5.13-1.09-6.01-4.73-14.13-58.56-28.43-117.08-42.7-175.61-10.06-41.2-20.15-82.39-30.22-123.58-15.22-62.37-30.46-124.74-45.67-187.12-6.11-25.02-12.08-50.08-18.33-75.07-1.11-4.47-.77-6.58,4.18-8.75,24.74-10.83,49.19-22.33,73.76-33.58,42.8-19.6,85.62-39.14,128.38-58.85,4.82-2.22,5.55-.03,6.55,3.96,23.67,94.61,47.48,189.17,71.22,283.75,30.07,119.77,60.09,239.55,90.13,359.31.29,1.16.37,2.39.82,3.47,1.53,3.59.56,4.83-3.46,4.97Z"/>
    <path class="cls-19" d="M851.11,958.8c-14.67-61.66-28.82-123.47-43.17-185.21-13.14-56.54-26.27-113.08-39.42-169.6-13.37-57.5-26.8-115-40.15-172.49-16.35-70.44-32.66-140.87-48.98-211.31-7.69-33.2-15.17-66.45-23.16-99.56-2.36-9.78-2.88-20.23-7.93-29.15-6.16-10.87-13.06-21.33-19.86-31.84-6.25-9.67-14.44-11.08-23.45-4.33-1.91,1.43-3.81,2.87-5.74,4.25-32.39,23.29-64.76,46.59-97.17,69.84-16.28,11.69-31.68,25.01-49.13,34.59-55.39,30.4-111.37,59.73-167.49,88.78-25.12,13-48.77,28.28-72.68,43.21-2.9,1.82-3.65,3.57-2.78,7.21,12.72,53.38,25.2,106.82,37.74,160.25,12.69,53.99,25.37,107.99,38.08,161.99,13.12,55.73,26.26,111.46,39.41,167.19,12.19,51.68,24.44,103.33,36.63,155.01,5.59,23.72,11.13,47.45,16.69,71.17.54,2.31.75,4.8,4.06,4.96,4.94.24,9.87.93,14.81.96,25.86.1,51.73.05,77.61.05,34.78,0,69.58.39,104.34-1,17.07-.68,34.16-.34,51.24-.93,28.57-.97,57.16-1.41,85.74-2.55,19.43-.77,38.85-1.6,58.27-2.34,25.38-.95,50.72-2.34,76.08-3.69,4-.21,5.35-1.12,5.52-5.36.64-16.98-1.15-33.54-5.09-50.11ZM748.56,941.78c-11.47,16.7-11.35,16.91-31.66,17.36-27.81.59-55.64.58-83.44,1.5-31.17,1.05-62.33,1.57-93.49,2.56-15.08.48-30.18.23-45.25,1-6.93.37-13.82,1.29-21.98.85-14.69,3.86-24.43-8.18-36.37-14.55-1.34-.72-1.43-2.22-1.77-3.61-13.63-56.63-27.3-113.25-41-169.87-9.87-40.84-19.75-81.66-29.65-122.48-12.11-49.87-24.27-99.72-36.35-149.6-11.83-48.91-23.58-97.85-35.37-146.78-2.79-11.55-5.43-23.15-8.48-34.64-.92-3.46-.45-5.35,2.64-7.37,19.1-12.53,38.1-25.22,57.02-38.01,2.55-1.73,5.09-2.03,7.88-1.83,11.85.83,23.73,1.48,35.55,2.7,3.41.35,3.77-.73,3.6-3.36-.08-.98.21-2.07-.1-2.97-3.66-10.51,1.3-15.65,10.38-20.66,33.36-18.43,66.23-37.78,99.28-56.78,11.88-6.83,23.82-13.56,35.58-20.58,2.89-1.73,5-1.53,8.16-.48,13.78,4.58,19.54,13.82,22.94,28.09,15.75,66.13,32.96,131.91,49.63,197.8,15.53,61.3,31.04,122.58,46.57,183.87,15.53,61.3,31.03,122.58,46.58,183.87,13.7,53.99,27.4,107.96,41.25,161.9,1.19,4.59.57,8.13-2.13,12.07Z"/>
    <path class="cls-10" d="M261.15,653.36c1.05,9.04,1.88,18.1,2.92,28.3-.19,7.85-4.99,15.49-7.35,23.81-.49,1.7-1.94,1.68-3.34,1.89-4.48.69-8.96,1.46-13.44,2.23-3.41.58-6.03-.4-8.43-3.07-5.82-6.5-11.83-12.84-17.92-19.09-3.12-3.21-2.7-7.32-3.18-11.11-.77-6.08.44-12.29-.9-18.38-.42-1.91,1.02-2.88,2.12-3.98,6.34-6.32,12.75-12.56,18.97-18.97,1.96-2.02,3.47-2.64,6.06-.92,6.59,4.41,13.29,8.68,20.13,12.67,2.74,1.6,4.05,3.8,4.37,6.6Z"/>
    <path class="cls-10" d="M206.09,409.98c-5.36-7.13-10.48-14.47-15.67-21.74-.91-1.29-1.55-2.87-3.37-3.11-6.27-.83-12.56-1.63-18.87-2.44-1.96-.54-3.33.71-4.83,1.68-3.33,2.17-6.63,4.42-10.09,6.34-3.53,1.97-4.63,4.89-5.15,8.74-1.28,9.25,3.14,17.04,5.98,25.2,3.88,11.17,7.59,22.04,18.2,29.74,11.23,8.15,10.48,8.97,21.8-.04,3.94-3.13,7.71-5.87,8.57-11.44,1.36-8.79,3.31-17.5,4.94-26.24.45-2.4.1-4.53-1.51-6.69ZM206.09,409.98c-5.36-7.13-10.48-14.47-15.67-21.74-.91-1.29-1.55-2.87-3.37-3.11-6.27-.83-12.56-1.63-18.87-2.44-1.96-.54-3.33.71-4.83,1.68-3.33,2.17-6.63,4.42-10.09,6.34-3.53,1.97-4.63,4.89-5.15,8.74-1.28,9.25,3.14,17.04,5.98,25.2,3.88,11.17,7.59,22.04,18.2,29.74,11.23,8.15,10.48,8.97,21.8-.04,3.94-3.13,7.71-5.87,8.57-11.44,1.36-8.79,3.31-17.5,4.94-26.24.45-2.4.1-4.53-1.51-6.69ZM371.92,1018.36c-11.64-49.02-23.02-98.07-34.54-147.11-14.64-62.33-29.31-124.67-44-187-15.39-65.24-30.81-130.46-46.21-195.68-14.21-60.2-28.45-120.39-42.5-180.62-1.09-4.66-2.07-5.66-6.29-2.71-7.65,5.34-15.51,10.43-23.54,15.19-7.47,4.43-14.13,10.28-22.73,12.86-16.91,5.07-33.7,10.58-50.62,15.65-4.15,1.25-5.07,2.79-3.93,7.2,23.5,89.38,46.19,178.98,67.82,268.83,18.06,74.98,35.47,150.11,51.94,225.45,9.78,44.74,18.93,89.61,29.01,134.27,3.02,13.34,2.64,27.95,14.24,38.73,5.58,5.2,9.68,7.94,17.81,5.98,12.83-3.09,25.68-7.65,39.12-6.63,9.53.71,19.05.57,30.75.97,4.99,0,12.16-.2,19.3.08,4.41.16,5.44-.93,4.37-5.45ZM180.19,469.41c-7.47-6.51-15.22-12.72-22.9-19.01-1.14-.93-1.7-2.08-2.2-3.42-4.24-11.55-8.56-23.06-12.81-34.61-.53-1.45-.78-3.02-.83-3.23.24-2.73.68-4.17.43-5.47-2.01-10.87,4.18-16.04,12.24-22.13,10.02-7.56,19.67-4.27,29.83-3.64,6.64.4,10.72,3.71,14.15,9.03,4.73,7.33,9.92,14.38,15.07,21.43,1.53,2.1,2.05,4.14,1.56,6.65-2.04,10.7-3.99,21.42-5.97,32.13-.59,3.19-1.83,5.82-4.61,7.91-6.02,4.53-11.89,9.28-17.58,14.2-2.36,2.04-3.84,2.37-6.39.15ZM257.93,713.44c-7.04,1.07-14.09,2.18-21.13,3.32-2.74.44-4.94-.16-6.94-2.31-7.85-8.43-15.84-16.74-23.81-25.07-1.17-1.22-1.74-2.56-1.8-4.25-.4-9.32-.82-18.63-1.34-27.95-.15-2.78.62-4.9,2.65-6.88,8.13-7.91,16.17-15.91,24.12-23.98,1.98-2.02,3.42-2.49,6.03-.78,9.14,5.97,18.51,11.6,27.76,17.42,1.63,1.02,3.64,1.77,3.88,4.18,1.17,12.03,2.37,24.06,3.69,37.31-2.03,8.5-5.89,17.63-9.18,26.98-.67,1.92-2.36,1.78-3.93,2.02ZM334.73,948.48c-4.87,5.74-9.73,11.49-14.55,17.28-1.75,2.11-3.67,3.64-5.6,3.17-10.64-1.24-20.26-2.5-29.89-3.42-2.81-.27-4.19-1.48-5.24-3.9-5.53-12.72-11.08-25.44-16.83-38.06-1.16-2.54-.64-4.03,1.36-5.54,9.64-7.28,19.3-14.57,28.88-21.94,1.93-1.48,3.37-1.29,5.28.06,8.75,6.17,17.6,12.21,26.39,18.29,1.98,1.38,3.43,3.03,4.19,5.53,2.17,7.2,4.51,14.37,7.11,21.42,1.03,2.8.74,4.94-1.1,7.11ZM319.86,919.31c-7.22-4.88-14.45-9.77-21.6-14.78-1.88-1.33-3.31-1.62-5.26-.06-6.69,5.28-13.51,10.39-20.28,15.54-2.11,1.62-2.97,3.19-1.64,6.03,4.61,9.88,8.89,19.92,13.32,29.88.72,1.62,1.48,3.12,3.72,3.33,7.08.67,14.15,1.55,22.37,2.49,3.55.91,5.58-2.51,8.71-5.09,10.67-8.74,10.41-18.54,4.68-29.6-1.34-2.58-1.24-5.86-4.01-7.74ZM206.09,409.98c-5.36-7.13-10.48-14.47-15.67-21.74-.91-1.29-1.55-2.87-3.37-3.11-6.27-.83-12.56-1.63-18.87-2.44-1.96-.54-3.33.71-4.83,1.68-3.33,2.17-6.63,4.42-10.09,6.34-3.53,1.97-4.63,4.89-5.15,8.74-1.28,9.25,3.14,17.04,5.98,25.2,3.88,11.17,7.59,22.04,18.2,29.74,11.23,8.15,10.48,8.97,21.8-.04,3.94-3.13,7.71-5.87,8.57-11.44,1.36-8.79,3.31-17.5,4.94-26.24.45-2.4.1-4.53-1.51-6.69Z"/>
    <path class="cls-11" d="M938.39,878.01c-8.05,2.07-15.99,4.71-23.79,7.61-3.57,1.33-4.8.23-6.27-2.8-8.18-16.78-16.55-33.46-24.87-50.16-.95-1.91-1.99-3.75-4.17-5.26,2.03,8.43,4.04,16.88,6.11,25.3,3.8,15.43,7.49,30.88,11.55,46.23.91,3.48.38,5.23-2.65,7.23-11.99,7.9-11.85,8-15.24-5.89-30.51-125.8-61.05-251.6-91.59-377.39-28.73-118.27-57.47-236.53-86.2-354.78-.37-1.51-.57-3.07-1.1-5.91,10.11,5.3,19.33,10.05,28.45,14.98,1.86,1.01,1.84,3.4,2.47,5.24,13.01,38.55,26.02,77.1,39.04,115.65.38,1.12.88,2.2,1.34,3.29.44.4.73,1.31,1.05,1.34.66.05.14-.71.3-1.11.19-.45.18-.97,0-1.45-.03-.09-.08-.16-.11-.25-2.21-21.35-4.41-42.69-6.65-64.04-1.43-13.63-2.83-27.28-4.48-40.9-.42-3.47-.09-4.83,3.99-4.92,9.75-.23,9.28-.23,14.19,8.17,10.29,17.63,12.24,37.6,16.61,56.87,21.85,96.64,40.85,193.92,64.62,290.12,26.76,108.33,54.48,216.41,81.94,324.55,1.24,4.87.56,6.99-4.53,8.31Z"/>
    <path class="cls-17" d="M886.39,964.35c-7.49,12.53-15,25.06-23.26,38.85-.64-2.45-.97-3.03-.91-3.55,2.39-17.77-3.42-34.4-7.31-51.25-13.85-59.97-27.8-119.93-41.73-179.88-12.18-52.44-24.43-104.86-36.62-157.3-11.56-49.73-23.07-99.48-34.64-149.22-11.95-51.48-23.98-102.93-35.94-154.4-10.3-44.34-20.52-88.7-30.8-133.05-6.07-26.22-12.12-52.45-18.28-78.64-2.25-9.53-9.37-16.45-13.66-24.89-1.14-2.21-3.41-3.84-3.61-7.54,11.22,6.11,21.95,11.93,32.64,17.81,1.93,1.06,2.11,3.14,2.59,5.11,13.01,53.69,26.09,107.36,39.14,161.03,11.7,48.09,23.39,96.2,35.1,144.29,13.62,55.98,27.27,111.97,40.87,167.95,9.91,40.78,19.74,81.6,29.65,122.39,10.36,42.72,20.79,85.41,31.17,128.12,10.34,42.53,20.66,85.04,30.98,127.57,1.68,6.93,3.31,13.86,5,20.79.48,1.98.69,3.95-.39,5.78Z"/>
    <path class="cls-10" d="M980.74,867.54c-.23.61-.44,1.21-.67,1.83-6.22,6.22-12.86,12.09-18.54,18.78-5.74,6.77-12.14,9.67-21.16,8.99-10.07-.78-20.28-.35-30.41.11-5.3.24-8.26-1.14-8.57-6.77-.13-2.16-.83-4.27-1.28-6.4-.29-1.2.18-1.53,1.29-1.15q6.06,11.98,19.1,7.6c9.04-3.02,18.08-6.08,27.16-8.94,3.26-1.02,4.34-2.36,3.41-6.01-10.3-40.36-20.4-80.76-30.6-121.14-20-79.22-40.49-158.32-59.83-237.7-11.21-46.01-20.59-92.48-30.71-138.75-11.69-53.45-23.19-106.92-35-160.34-2.6-11.76-9.82-21.64-14.69-32.49-.63-1.41-1.73-2.06-3.31-2.01-6.35.23-12.7-.29-19.05.61-3.02.42-3.83,1.39-3.45,4.52,1.65,13.57,3.04,27.18,4.44,40.77.35,3.36.42,6.74.62,10.1v.03c.28,1.43,1.69,3.19-1.17,3.6-6.03-17.86-11.95-35.76-18.22-53.55-1.46-4.13-.59-5.92,3.28-7.74,12.94-6.12,25.76-12.5,38.47-19.06,3.24-1.68,5.18-1.33,7.59,1.3,7.8,8.48,15.94,16.65,23.76,25.12,4.53,4.91,3.46,11.6,4.52,17.48,6.06,33.73,11.59,67.56,17.58,101.29,8.74,49.18,18.51,98.14,29.22,146.92,8.17,37.16,16.59,74.29,25.42,111.3,21.91,91.86,46.68,182.93,74.31,273.24,1.97,6.45,3.65,12.99,5.79,19.38,1.58,4.68,1.46,11.22,10.68,9.09Z"/>
    <path class="cls-17" d="M982.61,862.08c-1.7.85-3.56-.43-4.75-1.73-.87-.96-1.28-2.44-1.65-3.75-10.5-35.33-21.33-70.58-31.37-106.03-16.46-58.13-31.95-116.52-46.07-175.27-13.19-54.82-25.54-109.83-37-165.06-9.2-44.33-17.42-88.85-25.69-133.36-5.09-27.38-9.23-54.95-13.41-82.5-1.34-8.85-9.37-12.42-13.37-19.09-.98-1.65-2.64-2.89-3.98-4.33.24-.21.49-.42.73-.63,4.87,2.17,9.56,5.02,14.66,6.36,8.89,2.34,9.03,9.48,10.12,16.23,3.65,22.43,7.23,44.87,10.83,67.31,3.57,22.24,6.87,44.52,10.81,66.7,4.61,25.89,9.48,51.74,14.76,77.49,17.24,84.16,36.59,167.85,58.12,251.01,11.8,45.66,24.25,91.13,37.53,136.37,6.46,22.07,13.14,44.05,19.62,66.12.38,1.29,2.18,3.13.11,4.17Z"/>
    <path class="cls-4" d="M760.59,248.36c-1.62-2.11-2.21-3.72-2.27-5.58,1.38-.88.97-2.34,1.17-3.6,1.91,2.59.92,5.5,1.1,9.18Z"/>
    <path class="cls-7" d="M773.47,305.62c-1.59-1.11-1.93-2.63-1.99-4.28.42-.49.83-.98,1.24-1.48.04.09.09.16.11.25.82,1.69.88,3.48.64,5.5Z"/>
    <path class="cls-23" d="M901.4,882.94c-.43.39-.86.77-1.29,1.15-1.05-1.2-1.79-2.74-.34-3.76.54-.38,1.24,1.58,1.63,2.61Z"/>
    <path class="cls-5" d="M689.3,897.18c-18.63.66-37.28,1.38-55.88,2.46-23.76,1.39-47.53,2.54-71.29,3.69-23.57,1.12-47.15,2.16-70.68,3.69-10.27.67-20.68-.34-30.79,1.98-3.77.58-5.13-1.09-6.01-4.73-14.13-58.56-28.43-117.08-42.7-175.61-10.06-41.2-20.15-82.39-30.22-123.58-15.22-62.37-30.46-124.74-45.67-187.12-6.11-25.02-12.08-50.08-18.33-75.07-1.11-4.47-.77-6.58,4.18-8.75,24.74-10.83,49.19-22.33,73.76-33.58,42.8-19.6,85.62-39.14,128.38-58.85,4.82-2.22,5.55-.03,6.55,3.96,23.67,94.61,47.48,189.17,71.22,283.75,30.07,119.77,60.09,239.55,90.13,359.31.29,1.16.37,2.39.82,3.47,1.53,3.59.56,4.83-3.46,4.97Z"/>
    <path class="cls-5" d="M207.6,416.67c-1.63,8.75-3.57,17.46-4.94,26.24-.86,5.57-4.63,8.31-8.57,11.44-11.32,9.01-10.57,8.19-21.8.04-10.62-7.7-14.33-18.57-18.2-29.74-2.84-8.15-7.26-15.94-5.98-25.2.52-3.85,1.62-6.77,5.15-8.74,3.46-1.92,6.75-4.17,10.09-6.34,1.5-.97,2.88-2.22,4.83-1.68,6.31.81,12.6,1.6,18.87,2.44,1.82.24,2.46,1.82,3.37,3.11,5.19,7.27,10.3,14.6,15.67,21.74,1.62,2.16,1.97,4.29,1.51,6.69Z"/>
    <path class="cls-5" d="M264.07,681.66c-.19,7.85-4.99,15.49-7.35,23.81-.49,1.7-1.94,1.68-3.34,1.89-4.48.69-8.96,1.46-13.44,2.23-3.41.58-6.03-.4-8.43-3.07-5.82-6.5-11.83-12.84-17.92-19.09-3.12-3.21-2.7-7.32-3.18-11.11-.77-6.08.44-12.29-.9-18.38-.42-1.91,1.02-2.88,2.12-3.98,6.34-6.32,12.75-12.56,18.97-18.97,1.96-2.02,3.47-2.64,6.06-.92,6.59,4.41,13.29,8.68,20.13,12.67,2.74,1.6,4.05,3.8,4.37,6.6,1.05,9.04,1.88,18.1,2.92,28.3Z"/>
    <path class="cls-5" d="M319.19,956.65c-3.13,2.58-5.16,6-8.71,5.09-8.22-.93-15.29-1.82-22.37-2.49-2.25-.21-3-1.72-3.72-3.33-4.43-9.96-8.71-19.99-13.32-29.88-1.33-2.84-.47-4.42,1.64-6.03,6.78-5.15,13.6-10.26,20.28-15.54,1.96-1.55,3.38-1.26,5.26.06,7.14,5.01,14.38,9.9,21.6,14.78,2.78,1.88,2.68,5.16,4.01,7.74,5.73,11.06,5.98,20.87-4.68,29.6Z"/>
    <path class="cls-18" d="M876.59,842.21c-8.09-26.95-14.68-54.3-21.37-81.62-11.97-48.9-22.4-98.14-32.15-147.52-.3-1.54-.3-3.15-.44-4.72-.7-1.26.02-1.4,1.03-1.3,12.85,46.22,24.37,92.77,34.74,139.6,6.56,29.6,12.45,59.35,18.6,89.04.44,2.12.56,4.31.84,6.47-.4.4-.81.41-1.23.04Z"/>
    <path class="cls-18" d="M892.21,772.91c-12.89-42.17-24.11-84.79-34.74-127.57-8.34-33.54-16.1-67.21-23.28-101.01-.37-1.74-.53-3.52-.79-5.28-.7-1.26.04-1.35,1.01-1.25,11.8,38.76,22.15,77.92,32.18,117.16,9.54,37.33,18.16,74.88,26.2,112.57.29,1.35.28,2.76.42,4.14.73,1.26-.04,1.33-.99,1.24Z"/>
    <path class="cls-18" d="M824.15,479.21c-7.81-32.44-14.18-65.19-20.41-97.96-8.02-42.15-14.86-84.51-21.34-126.92-.27-1.76-.25-3.56-.37-5.35-.53-1.25-1.06-2.5,1.14-2.5,6.74,28.39,12.34,57.03,17.97,85.66,9,45.8,16.71,91.82,23.58,137.98.32,2.15.31,4.35.45,6.52.45,1.17,1.13,2.44-1.02,2.57Z"/>
    <path class="cls-18" d="M811,552.04c-10.67-34.87-19.99-70.1-29.07-105.41-10.76-41.85-20.32-83.97-29.56-126.18-.25-1.16-.28-2.36-.42-3.55.45-.38.9-.39,1.35.02,18.34,62.05,34.76,124.6,49.09,187.69,3.47,15.28,7.37,30.47,9.71,45.99.59,1.21,0,1.51-1.09,1.43Z"/>
    <path class="cls-27" d="M783.17,246.48c-.38.83-.76,1.67-1.14,2.5-1.51-2.66-1.14-5.61-1.27-8.48.39-.4.79-.4,1.2-.02.4,2,.8,4,1.21,6Z"/>
    <path class="cls-29" d="M824.15,479.21c.34-.86.68-1.71,1.02-2.57,1.35,2.26.99,4.82,1.28,7.26.45,1.23-.1,1.49-1.19,1.22-.37-1.97-.74-3.94-1.12-5.91Z"/>
    <path class="cls-25" d="M779.75,233.3c-1.9-1.75-1.32-3.87-.75-7.47.78,3.45,1.25,5.52,1.72,7.6-.39.46-.71.41-.97-.12Z"/>
    <path class="cls-20" d="M779.75,233.3c.32.06.64.1.97.12.42,2.35.83,4.7,1.25,7.05-.4,0-.8.01-1.2.02-1.46-2.24-1.04-4.75-1.02-7.2Z"/>
    <path class="cls-26" d="M825.26,485.11c.4-.41.79-.81,1.19-1.22,1.33,1.68,1,3.57.95,5.73-1.99-1.2-2.25-2.78-2.14-4.52Z"/>
    <path class="cls-31" d="M826.97,491.24c2.32,1.69,1.5,3.37,1.64,5.77-1.32-2.13-2.18-3.48-1.64-5.77Z"/>
    <path class="cls-21" d="M834.41,537.8c-.34.42-.68.83-1.01,1.25-1.29-1.86-1.39-3.93-1.1-6.07.27.01.54.02.8.03.44,1.6.87,3.19,1.31,4.79Z"/>
    <path class="cls-1" d="M814.35,560.45c1.23,1.9,1.61,3.9.6,6.7-.66-2.61-1.19-4.68-1.72-6.74.39-.52.76-.48,1.11.04Z"/>
    <path class="cls-21" d="M823.65,607.06c-.34.43-.69.87-1.03,1.3-1.34-1.85-1.23-3.99-1.22-6.11.37-.36.72-.36,1.06.05.4,1.59.79,3.17,1.19,4.76Z"/>
    <path class="cls-7" d="M892.21,772.91c.33-.41.66-.83.99-1.24,1.43,2.03,1.42,4.27.83,8.35-.88-3.43-1.35-5.27-1.83-7.11Z"/>
    <path class="cls-30" d="M822.47,602.3h-.53s-.53-.05-.53-.05c-1.5-1.3-1.06-3.08-1.17-4.73-.54-1.16,0-1.28.95-.99.43,1.92.85,3.85,1.28,5.77Z"/>
    <path class="cls-24" d="M814.35,560.45l-.56.02-.55-.06c-.39-1.59-.78-3.17-1.16-4.76.38-.55.76-.58,1.14,0,1.17,1.41,1.21,3.09,1.13,4.8Z"/>
    <path class="cls-3" d="M821.19,596.52c-.32.33-.64.66-.95.99-1.38-1.58-1.61-3.3-.36-5.91.55,2.05.93,3.48,1.31,4.91Z"/>
    <path class="cls-15" d="M753.3,316.92c-.45,0-.9-.01-1.35-.02-1.33-1.38-.99-3.12-1-4.78.36-.48.73-.48,1.11-.02.41,1.6.83,3.21,1.24,4.81Z"/>
    <path class="cls-8" d="M752.06,312.11c-.37,0-.74,0-1.11.02-1.26-1.43-1.37-3.05-.57-5.62.7,2.33,1.19,3.97,1.68,5.61Z"/>
    <path class="cls-21" d="M876.59,842.21c.41-.01.82-.03,1.23-.04,1.09,1.45,1.08,3.13,1,4.83-.37.58-.73.54-1.08-.03-.38-1.59-.77-3.17-1.15-4.76Z"/>
    <path class="cls-28" d="M877.74,846.97c.36.02.72.03,1.08.03,1.04,1.86,1.47,3.83,1.09,5.95-.38.47-.69.4-.92-.13-.42-1.95-.83-3.9-1.25-5.85Z"/>
    <path class="cls-12" d="M879,852.82c.31.05.61.09.92.13,1.72,1.27,1.48,2.94.8,5.51-.71-2.35-1.22-4-1.72-5.65Z"/>
    <path class="cls-6" d="M896.13,787.15c-.7-2.21-1.13-3.58-1.54-4.85.36-.25.58-.47.63-.43,1.71,1.14,1.76,2.71.91,5.29Z"/>
    <path class="cls-9" d="M831.28,528.2c-1.7-1.02-1.62-2.48-.81-4.77.59,2.02,1.02,3.46,1.44,4.9-.21-.04-.42-.08-.63-.12Z"/>
    <path class="cls-16" d="M831.28,528.2c.19.14.4.18.63.12.4,1.56.79,3.13,1.19,4.69h-.4s-.4-.03-.4-.03c-1.61-1.32-1.35-3.04-1.01-4.78Z"/>
    <path class="cls-21" d="M813.22,555.65c-.38,0-.76,0-1.14,0-.36-1.2-.72-2.41-1.08-3.61.36-.48.73-.96,1.09-1.43,1.26,1.48,1.08,3.29,1.12,5.04Z"/>
    <path class="cls-14" d="M743.93,930.56c-2.85-10.3-5.57-20.64-8.18-31-15.63-61.79-31.18-123.59-46.82-185.38-15.41-60.82-30.94-121.61-46.34-182.44-16.07-63.51-32.02-127.05-48.07-190.57-11.73-46.44-23.71-92.82-35.08-139.35-2.2-8.96-4.73-16.18-14.48-19.36-3.5-1.14-5.81-1.87-9.23.11-23.16,13.43-46.52,26.53-69.73,39.89-22,12.65-43.87,25.55-65.9,38.15-2.88,1.64-3.6,3.48-3.77,6.58-.3,5.23,1.45,10.2,1.35,15.37-.06,2.79-.16,3.98-3.93,3.6-12.59-1.29-25.25-1.82-38.74-2.69-3.45.08-7.57-.3-11.63,2.51-15.98,11.07-32.15,21.88-48.47,32.44-3.48,2.26-4.32,4.37-3.37,8.18,6.7,27.28,13.28,54.58,19.86,81.89,8.61,35.77,17.14,71.57,25.79,107.35,12.05,49.8,24.24,99.57,36.29,149.37,9.04,37.31,17.9,74.65,26.94,111.95,12.88,53.07,25.98,106.08,38.6,159.21,1.55,6.51,3.99,11.18,10.02,14.19,4.42,2.2,8.52,5.06,12.72,7.67,1.06.67,2.15,1.07,3.37.87,17.72-2.8,35.63-.08,53.45-2.04,14.55-1.59,29.3.16,44.02-1.17,15.97-1.44,32.1.21,48.19-1.25,15-1.35,30.12-.3,45.22-1.03,19.59-.95,39.31-1.67,58.91-1.2,12.37.3,21.91-1.41,27.56-13.62,1.31-2.85,2.32-5.09,1.45-8.22ZM697.26,903.2c-25.13,1.14-50.23,2.71-75.37,3.69-15.41.61-30.84,1.59-46.26,2.34-24.12,1.16-48.23,2.85-72.38,3.57-13.44.39-26.86,1.72-39.8,2.58-4.67-1.12-9.99,1.88-12.72-.96-2.5-2.58-2.28-7.78-3.28-11.8-10.52-42.67-21.09-85.31-31.54-127.97-7.47-30.56-14.74-61.18-22.19-91.74-11.25-46.15-22.58-92.26-33.83-138.4-11.47-47.11-22.91-94.23-34.35-141.34-5.28-21.72-10.51-43.46-15.83-65.17-.88-3.62-.16-5.54,3.69-7.27,26.43-11.89,52.65-24.25,79.02-36.28,38.46-17.55,76.99-34.93,115.46-52.42,7.23-3.28,14.48-6.56,21.55-10.2,3.45-1.77,4.66-1.21,5.61,2.58,10.24,41.52,20.64,83,30.99,124.48,12.8,51.29,25.54,102.57,38.4,153.85,27.35,109.05,54.78,218.1,82.19,327.15,4.82,19.2,9.57,38.41,14.67,57.55,1.12,4.23.66,5.59-4,5.79Z"/>
    <path class="cls-22" d="M689.3,897.18c-18.63.66-37.28,1.38-55.88,2.46-23.76,1.39-47.53,2.54-71.29,3.69-23.57,1.12-47.15,2.16-70.68,3.69-10.27.67-20.68-.34-30.79,1.98-3.77.58-5.13-1.09-6.01-4.73-14.13-58.56-28.43-117.08-42.7-175.61-10.06-41.2-20.15-82.39-30.22-123.58-15.22-62.37-30.46-124.74-45.67-187.12-6.11-25.02-12.08-50.08-18.33-75.07-1.11-4.47-.77-6.58,4.18-8.75,24.74-10.83,49.19-22.33,73.76-33.58,42.8-19.6,85.62-39.14,128.38-58.85,4.82-2.22,5.55-.03,6.55,3.96,23.67,94.61,47.48,189.17,71.22,283.75,30.07,119.77,60.09,239.55,90.13,359.31.29,1.16.37,2.39.82,3.47,1.53,3.59.56,4.83-3.46,4.97Z"/>
    <path class="cls-2" d="M207.6,416.67c-1.63,8.75-3.57,17.46-4.94,26.24-.86,5.57-4.63,8.31-8.57,11.44-11.32,9.01-10.57,8.19-21.8.04-10.62-7.7-14.33-18.57-18.2-29.74-2.84-8.15-7.26-15.94-5.98-25.2.52-3.85,1.62-6.77,5.15-8.74,3.46-1.92,6.75-4.17,10.09-6.34,1.5-.97,2.88-2.22,4.83-1.68,6.31.81,12.6,1.6,18.87,2.44,1.82.24,2.46,1.82,3.37,3.11,5.19,7.27,10.3,14.6,15.67,21.74,1.62,2.16,1.97,4.29,1.51,6.69Z"/>
    <path class="cls-2" d="M264.07,681.66c-.19,7.85-4.99,15.49-7.35,23.81-.49,1.7-1.94,1.68-3.34,1.89-4.48.69-8.96,1.46-13.44,2.23-3.41.58-6.03-.4-8.43-3.07-5.82-6.5-11.83-12.84-17.92-19.09-3.12-3.21-2.7-7.32-3.18-11.11-.77-6.08.44-12.29-.9-18.38-.42-1.91,1.02-2.88,2.12-3.98,6.34-6.32,12.75-12.56,18.97-18.97,1.96-2.02,3.47-2.64,6.06-.92,6.59,4.41,13.29,8.68,20.13,12.67,2.74,1.6,4.05,3.8,4.37,6.6,1.05,9.04,1.88,18.1,2.92,28.3Z"/>
    <path class="cls-2" d="M319.19,956.65c-3.13,2.58-5.16,6-8.71,5.09-8.22-.93-15.29-1.82-22.37-2.49-2.25-.21-3-1.72-3.72-3.33-4.43-9.96-8.71-19.99-13.32-29.88-1.33-2.84-.47-4.42,1.64-6.03,6.78-5.15,13.6-10.26,20.28-15.54,1.96-1.55,3.38-1.26,5.26.06,7.14,5.01,14.38,9.9,21.6,14.78,2.78,1.88,2.68,5.16,4.01,7.74,5.73,11.06,5.98,20.87-4.68,29.6Z"/>
    <path class="cls-5" d="M689.3,897.18c-18.63.66-37.28,1.38-55.88,2.46-23.76,1.39-47.53,2.54-71.29,3.69-23.57,1.12-47.15,2.16-70.68,3.69-10.27.67-20.68-.34-30.79,1.98-3.77.58-5.13-1.09-6.01-4.73-14.13-58.56-28.43-117.08-42.7-175.61-10.06-41.2-20.15-82.39-30.22-123.58-15.22-62.37-30.46-124.74-45.67-187.12-6.11-25.02-12.08-50.08-18.33-75.07-1.11-4.47-.77-6.58,4.18-8.75,24.74-10.83,49.19-22.33,73.76-33.58,42.8-19.6,85.62-39.14,128.38-58.85,4.82-2.22,5.55-.03,6.55,3.96,23.67,94.61,47.48,189.17,71.22,283.75,30.07,119.77,60.09,239.55,90.13,359.31.29,1.16.37,2.39.82,3.47,1.53,3.59.56,4.83-3.46,4.97Z"/>
    <path class="cls-19" d="M689.3,897.18c-18.63.66-37.28,1.38-55.88,2.46-23.76,1.39-47.53,2.54-71.29,3.69-23.57,1.12-47.15,2.16-70.68,3.69-10.27.67-20.68-.34-30.79,1.98-3.77.58-5.13-1.09-6.01-4.73-14.13-58.56-28.43-117.08-42.7-175.61-10.06-41.2-20.15-82.39-30.22-123.58-15.22-62.37-30.46-124.74-45.67-187.12-6.11-25.02-12.08-50.08-18.33-75.07-1.11-4.47-.77-6.58,4.18-8.75,24.74-10.83,49.19-22.33,73.76-33.58,42.8-19.6,85.62-39.14,128.38-58.85,4.82-2.22,5.55-.03,6.55,3.96,23.67,94.61,47.48,189.17,71.22,283.75,30.07,119.77,60.09,239.55,90.13,359.31.29,1.16.37,2.39.82,3.47,1.53,3.59.56,4.83-3.46,4.97Z"/>
    <path class="cls-5" d="M991.9,860.68c-19.25-62.19-37.52-126.39-55.83-196.25-20.75-79.13-39.85-160.41-56.75-241.59l-.73-3.52c-7.57-36.29-15.4-73.83-21.3-111.08-4.65-29.36-9.44-59.21-14.07-88.08-2.15-13.39-4.29-26.79-6.44-40.18-.53-3.31-1.98-5.24-5-6.65-12.62-5.77-26.12-12.23-41.28-19.73-3.62-1.78-6.37-1.14-9.39.38-9.16,4.59-18.54,9.15-27.62,13.57-4.32,2.1-8.63,4.2-12.95,6.31-.37.19-.73.39-1.09.58-.73.4-1.73.97-2.08.81-.09-.04-.56-.32-.98-2.02-.4-1.74-2.47-2.74-4.29-3.64-.35-.18-.71-.34-1.03-.52-9.03-4.73-18.72-9.8-28.54-14.76-2.42-1.24-3.56-2.66-4.19-5.3-2.55-10.75-5.21-21.69-7.8-32.24-2.79-11.42-5.69-23.24-8.43-34.89-.86-3.6-2.5-5.76-5.64-7.46-18.48-10.04-38.35-20.88-58.39-32.13-3.65-2.04-6.27-1.87-9.71.62-31.25,22.61-72.49,52.36-114.2,82.15-4.82,3.45-9.62,7.08-14.26,10.59-10.77,8.15-21.9,16.59-33.91,23.13-25.26,13.76-51.16,27.37-76.21,40.53-14.48,7.61-29.45,15.48-44.14,23.29-7.99,4.24-16.17,8.44-24.1,12.52-17.95,9.21-36.52,18.75-54.04,29.46-21.65,13.22-43.28,27.23-64.23,40.77-8.05,5.21-16.11,10.43-24.19,15.61-3.07,1.96-6.31,3.45-9.88,4.54-10,3.09-20.13,6.29-29.94,9.38-8.94,2.81-17.87,5.64-26.84,8.42-3.52,1.09-6.08,2.37-4.59,8.02,25.59,96.36,50.14,193.65,72.99,289.13,30.36,126.97,56.13,242.36,78.79,352.75,3.02,14.68,7.64,29.93,21.02,42.09,2.98,2.68,5.35,3.82,8.39,3.82.91,0,1.87-.1,2.93-.3,4.95-.88,9.92-2.07,14.73-3.21,9.93-2.37,20.25-4.82,30.66-4.66,12,.19,24,.42,35.99.64,23.59.44,47.99.91,71.98,1.06,62.82.4,111.25-.06,156.98-1.51,3.45,0,6.89.01,10.34.01,7.75.03,15.77.04,23.66-.04,49.48-.53,98.69-2.46,144.84-4.39,17.28-.72,34.84-1.57,51.8-2.39,13.48-.64,27.4-1.31,41.11-1.92,5.18-.23,8.32-2.11,10.83-6.46,9.39-16.2,19.33-32.26,28.68-47.32,2.05-3.27,2.54-6.32,1.63-9.91-1.03-4.04-2.01-8.17-2.95-12.17-1.62-6.84-3.28-13.91-5.28-20.78-1.1-3.8-.39-5.47,3.14-7.46.93-.52,1.89-1.04,2.85-1.55,4.29-2.31,8.74-4.68,11.73-8.33,2.42-2.98,4.53-3.02,7.73-3.08h.49c2.84-.08,5.69-.14,8.53-.21,9.71-.23,19.73-.45,29.59-.48,3.79,0,6.53-1.16,9.18-3.89,7.75-7.97,18.01-18.43,28.71-28.64,3.7-3.53,4.52-6.64,3.02-11.45ZM858.47,957.63c-.78-3.12-1.6-6.34-2.34-9.52-12.45-53.94-25.2-108.76-37.52-161.78l-4.22-18.1c-6.72-28.92-13.46-57.84-20.2-86.76-5.47-23.52-10.94-47.02-16.42-70.54-5.77-24.83-11.53-49.67-17.29-74.5-5.77-24.91-11.55-49.81-17.34-74.72-5.97-25.74-11.97-51.46-17.96-77.2-6-25.73-11.99-51.46-17.98-77.2-6.13-26.43-12.24-52.88-18.37-79.32-4.14-17.91-8.28-35.81-12.43-53.72l-3.46-14.98c-4.83-20.87-9.83-42.45-14.82-63.66-1.46-6.25-4.96-11.41-8.34-16.41-1.91-2.81-3.88-5.73-5.42-8.77-.39-.76-.88-1.43-1.36-2.08-.57-.78-1.11-1.54-1.52-2.42l4.63,2.51c8.69,4.73,17.13,9.33,25.55,13.96,1.1.59,1.39,1.69,1.77,3.42.06.3.13.59.2.88,9.4,38.82,18.86,77.64,28.3,116.46l22.6,92.91c7.78,31.99,15.56,63.97,23.35,95.96,5.53,22.73,11.06,45.46,16.6,68.19,8.09,33.25,16.2,66.51,24.27,99.76,5.09,20.94,10.16,41.9,15.22,62.85,4.81,19.84,9.61,39.7,14.43,59.54,5.68,23.42,11.37,46.82,17.08,70.23,4.7,19.29,9.39,38.59,14.09,57.89,10.34,42.53,20.66,85.04,30.98,127.57.74,3.07,1.48,6.13,2.21,9.2.92,3.86,1.84,7.73,2.79,11.59.39,1.63.63,3.33-.25,4.83-6.08,10.2-12.19,20.39-18.72,31.27l-3.05,5.1c-.04-.13-.06-.21-.06-.25,1.97-14.66-1.56-28.65-5-42.19ZM493.83,1023.54c-6.27-.01-12.53-.03-18.81-.03h-19.41c-19.07.01-38.79.03-58.19-.05-2.88-.01-5.84-.27-8.71-.52-1.98-.16-4.01-.34-6.03-.44-1.96-.1-2.26-1.09-2.75-3.31l-4-17.14c-4.27-18.23-8.53-36.47-12.84-54.71-6.11-25.9-12.23-51.8-18.37-77.71-6.08-25.76-12.18-51.53-18.27-77.3-13.15-55.73-26.29-111.46-39.41-167.19-10.87-46.21-21.74-92.43-32.59-138.64l-13.81-58.82c-9.59-40.91-19.52-83.21-29.42-124.78-.73-3.04-.25-4.3,2.22-5.84,3.23-2.02,6.45-4.04,9.68-6.06,20.27-12.72,41.23-25.88,62.91-37.1,49.7-25.73,108.46-56.39,167.52-88.79,12.24-6.73,23.63-15.39,34.65-23.77,4.76-3.62,9.69-7.37,14.6-10.91,24.02-17.23,48.02-34.49,72.01-51.74l25.16-18.1c1.67-1.2,3.31-2.42,4.96-3.66l.81-.61c4.19-3.14,8.15-4.41,11.75-3.76,3.65.64,6.97,3.26,9.88,7.76l2.47,3.82c5.87,9.06,11.95,18.43,17.34,27.95,3.48,6.15,4.78,13.25,6.03,20.13.53,2.87,1.07,5.82,1.77,8.68,5.72,23.71,11.27,47.88,16.64,71.26,2.17,9.43,4.34,18.87,6.53,28.3l11.97,51.68c12.33,53.21,24.65,106.41,37.01,159.63,7.27,31.34,14.58,62.69,21.88,94.03,6.1,26.15,12.19,52.31,18.28,78.46,9.08,39.03,18.15,78.07,27.23,117.13l12.19,52.47c4.04,17.37,8.05,34.75,12.08,52.13,10.1,43.64,20.55,88.77,31.09,133.07,4.03,16.95,5.68,33.24,5.05,49.77-.13,3.38-.73,3.96-4.32,4.15l-6.22.33c-22.87,1.22-46.54,2.49-69.84,3.36-11.85.45-23.71.93-35.57,1.41-7.56.32-15.13.62-22.7.92-16.18.64-32.64,1.07-48.57,1.49-12.18.32-24.77.64-37.15,1.06-8.14.28-16.42.35-24.44.43-8.79.08-17.87.15-26.81.5-28.47,1.14-57.45,1.07-85.48,1.02ZM317.6,1021.51c-10.94-.83-21.51,1.97-31.75,4.67-2.55.67-5.19,1.36-7.76,1.99-7.22,1.74-10.83-.25-16.66-5.68-8.71-8.09-10.39-18.24-12.18-28.98-.49-3-1.01-6.1-1.68-9.1-6-26.53-11.75-53.6-17.31-79.76-3.81-17.86-7.74-36.34-11.7-54.49-15.67-71.65-32.67-145.4-51.96-225.47-20.68-85.87-43.5-176.33-67.82-268.86-.97-3.7-.48-4.61,3.07-5.67,8.47-2.55,17.05-5.24,25.35-7.84,8.27-2.6,16.83-5.29,25.27-7.81,6.2-1.87,11.42-5.38,16.47-8.77,2.13-1.43,4.32-2.9,6.54-4.22,7.9-4.68,15.84-9.81,23.62-15.24,1.78-1.24,2.55-1.44,2.85-1.44.08,0,.11.01.15.03.27.1.73.78,1.34,3.38,12.28,52.65,24.91,106.15,37.12,157.88l23.42,99.13c9.39,39.76,18.78,79.53,28.17,119.3,14.69,62.33,29.36,124.67,44,187,3.8,16.22,7.6,32.44,11.39,48.66,7.55,32.28,15.36,65.64,23.15,98.45.53,2.27.37,3.09.13,3.38-.29.35-1.14.53-2.51.53-.23,0-.45,0-.71-.01-5.23-.2-10.55-.15-14.82-.1-1.65.01-3.17.03-4.49.03-4.37-.15-8.41-.23-12.31-.3-6.4-.11-12.45-.23-18.38-.67ZM880.37,900.29l-.09-.34c-30.51-125.8-61.04-251.6-91.59-377.39l-86.2-354.78c-.21-.88-.37-1.79-.58-3.04-.01-.08-.04-.16-.05-.25,1.96,1.02,3.88,2.02,5.76,3.02,7.08,3.69,13.76,7.17,20.4,10.77.82.44,1.1,1.39,1.44,2.9.13.53.27,1.1.44,1.63l13.56,40.15c8.5,25.17,16.99,50.33,25.49,75.5.29.83.63,1.64.96,2.42.14.32.28.63.42.95l.78,1.92,1.34-1.58c.43-.5.85-1,1.25-1.49l.34-.42-1.38-13.33c-1.77-17.08-3.53-34.16-5.34-51.22l-.42-4.09c-1.26-12.08-2.57-24.56-4.06-36.83-.14-1.2-.24-2.49.15-2.93.2-.24.83-.54,2.65-.58q8.52-.19,12.4,6.45l.64,1.09c7.86,13.49,10.86,28.69,13.76,43.41.85,4.3,1.72,8.75,2.7,13.1,8.18,36.14,16.08,72.96,23.72,108.58,12.8,59.64,26.03,121.31,40.91,181.56,20.99,84.99,42.94,171.24,64.16,254.66,5.93,23.3,11.85,46.6,17.77,69.91,1.15,4.51.5,5.71-3.62,6.77-7.32,1.88-15.14,4.38-23.92,7.65-2.78,1.04-3.41.48-4.7-2.17-6.59-13.52-13.42-27.2-20.02-40.44l-4.85-9.72c-.98-1.98-2.15-4.04-4.58-5.74l-2.73-1.91,2.58,10.7c1.43,5.95,2.85,11.89,4.32,17.84.86,3.51,1.72,7.01,2.58,10.51,2.87,11.73,5.83,23.86,8.98,35.72.8,3.05.38,4.2-2.12,5.87l-.42.27c-4.86,3.21-8.07,5.31-9.29,4.83-1.24-.49-2.15-4.24-3.52-9.91ZM920.91,891.74l4.82-1.62c7.31-2.45,14.86-4.97,22.32-7.32,3.43-1.07,5.47-2.76,4.25-7.52-6.89-27.01-13.82-54.51-20.51-81.1-3.36-13.34-6.72-26.69-10.09-40.03-6.05-23.97-12.14-47.92-18.24-71.86-13.81-54.3-28.1-110.46-41.59-165.84-7.97-32.68-15.12-66.14-22.04-98.52-2.81-13.18-5.73-26.81-8.66-40.19-4.36-19.92-8.69-39.84-13.01-59.76-7.17-32.97-14.58-67.07-21.99-100.59-1.77-7.95-5.62-15.11-9.34-22.04-1.88-3.47-3.81-7.07-5.44-10.69-.83-1.87-2.41-2.81-4.51-2.75-2.16.08-4.37.06-6.51.06-4.13-.03-8.41-.05-12.66.56-3.76.52-4.99,2.12-4.52,5.92,1.57,12.85,2.92,25.95,4.22,38.63l.23,2.12c.23,2.25.34,4.54.44,6.78.04.83.08,1.67.13,2.47-1.06-3.12-2.11-6.25-3.16-9.37-4.44-13.22-9.04-26.87-13.75-40.25-1.22-3.45-.73-4.61,2.64-6.19,12.41-5.87,25.36-12.28,38.51-19.07,2.73-1.41,4.04-1.19,6.07,1.04,3.99,4.33,8.14,8.66,12.14,12.84,3.84,4,7.8,8.14,11.61,12.28,2.99,3.23,3.31,7.35,3.64,11.71.14,1.69.27,3.45.58,5.14,3.21,17.89,6.32,36.1,9.34,53.71,2.66,15.6,5.42,31.73,8.24,47.56,8.56,48.23,18.39,97.68,29.22,146.98,8.96,40.73,17.28,77.15,25.44,111.31,21.83,91.52,46.84,183.48,74.32,273.31.76,2.46,1.46,4.94,2.17,7.41,1.14,3.95,2.31,8.03,3.64,12,.24.71.44,1.48.64,2.23.97,3.69,2.27,8.6,8.97,8.09-1.65,1.63-3.32,3.24-5,4.85-4.38,4.23-8.91,8.58-12.91,13.3-5.63,6.64-11.64,9.19-20.1,8.55-10.49-.81-21.16-.32-30.56.11-5.28.24-7.02-1.12-7.26-5.58-.06-1.14-.28-2.23-.53-3.32,4.78,8.98,6.54,8.74,18.78,4.65ZM978.79,859.5c-.64-.71-1.01-1.99-1.34-3.12l-.04-.15c-3.07-10.31-6.16-20.61-9.25-30.93-7.38-24.58-15.01-49.99-22.12-75.08-17.53-61.93-32.59-119.24-46.06-175.22-13.23-55.01-25.68-110.53-36.99-165.02-8.75-42.14-16.74-85.15-24.46-126.75l-1.22-6.59c-4.88-26.32-8.96-53.24-12.91-79.3l-.48-3.17c-.91-5.96-4.57-9.63-8.12-13.19-2.06-2.06-4-4-5.41-6.35-.28-.47-.59-.9-.93-1.3.18.09.37.18.54.27,3.32,1.64,6.75,3.35,10.4,4.3,7.21,1.89,7.99,7.14,8.89,13.22.1.67.2,1.34.3,1.99,2.94,18.05,5.83,36.11,8.74,54.18l2.1,13.13c1.07,6.69,2.13,13.38,3.18,20.08,2.4,15.3,4.87,31.12,7.64,46.64,4.99,28.02,9.81,53.38,14.76,77.52,17.27,84.27,36.82,168.74,58.13,251.07,12.24,47.35,24.87,93.25,37.54,136.4,3.32,11.32,6.75,22.82,10.06,33.94,3.21,10.72,6.4,21.43,9.56,32.18.13.44.34.86.56,1.26.18.35.53,1.02.49,1.22,0,0-.06.08-.29.2-1.25.62-2.93-1.11-3.24-1.45Z"/>
    <path class="cls-32" d="M750.7,929.71c-13.85-53.94-27.56-107.91-41.25-161.9-15.55-61.28-31.05-122.57-46.58-183.87-15.53-61.28-31.04-122.57-46.57-183.87-16.67-65.89-33.88-131.67-49.63-197.8-3.4-14.26-9.15-23.5-22.94-28.09-3.16-1.05-5.26-1.25-8.16.48-11.76,7.02-23.71,13.75-35.58,20.58-33.05,19-65.92,38.35-99.28,56.78-9.08,5.01-14.04,10.15-10.38,20.66.32.9.03,1.98.1,2.97.18,2.63-.19,3.71-3.6,3.36-11.81-1.22-23.69-1.87-35.55-2.7-2.79-.2-5.33.1-7.88,1.83-18.92,12.79-37.92,25.47-57.02,38.01-3.09,2.02-3.56,3.91-2.64,7.37,3.05,11.49,5.69,23.09,8.48,34.64,11.79,48.93,23.54,97.87,35.37,146.78,12.08,49.87,24.25,99.72,36.35,149.6,9.9,40.82,19.78,81.65,29.65,122.48,13.7,56.61,27.37,113.24,41,169.87.34,1.39.43,2.89,1.77,3.61,11.94,6.37,21.67,18.42,36.37,14.55,8.15.44,15.05-.48,21.98-.85,15.07-.77,30.17-.52,45.25-1,31.15-1,62.32-1.51,93.49-2.56,27.8-.92,55.63-.91,83.44-1.5,20.31-.44,20.18-.66,31.66-17.36,2.7-3.94,3.32-7.47,2.13-12.07ZM742.48,938.77c-5.64,12.21-15.19,13.92-27.56,13.62-19.6-.47-39.32.25-58.91,1.2-15.1.73-30.22-.32-45.22,1.03-16.09,1.46-32.23-.19-48.19,1.25-14.72,1.34-29.46-.42-44.02,1.17-17.81,1.97-35.72-.76-53.45,2.04-1.22.2-2.31-.2-3.37-.87-4.2-2.61-8.31-5.48-12.72-7.67-6.03-3-8.47-7.67-10.02-14.19-12.62-53.13-25.73-106.15-38.6-159.21-9.04-37.3-17.9-74.64-26.94-111.95-12.06-49.8-24.24-99.57-36.29-149.37-8.65-35.77-17.18-71.57-25.79-107.35-6.58-27.3-13.15-54.61-19.86-81.89-.95-3.81-.11-5.92,3.37-8.18,16.32-10.57,32.49-21.37,48.47-32.44,4.05-2.81,8.18-2.44,11.63-2.51,13.49.87,26.15,1.4,38.74,2.69,3.76.38,3.86-.81,3.93-3.6.1-5.18-1.65-10.15-1.35-15.37.18-3.09.9-4.94,3.77-6.58,22.04-12.6,43.9-25.5,65.9-38.15,23.21-13.36,46.57-26.46,69.73-39.89,3.42-1.98,5.73-1.25,9.23-.11,9.74,3.18,12.28,10.4,14.48,19.36,11.37,46.53,23.35,92.91,35.08,139.35,16.04,63.52,32,127.06,48.07,190.57,15.4,60.83,30.93,121.62,46.34,182.44,15.64,61.79,31.19,123.59,46.82,185.38,2.61,10.36,5.33,20.7,8.18,31,.87,3.13-.14,5.36-1.45,8.22Z"/>
    <g>
        <path class="cls-5" d="M213.17,408.37c-5.15-7.06-10.34-14.1-15.07-21.43-3.43-5.31-7.51-8.62-14.15-9.03-10.16-.63-19.81-3.93-29.83,3.64-8.07,6.08-14.25,11.26-12.24,22.13.25,1.3-.19,2.74-.43,5.47.05.21.3,1.78.83,3.23,4.25,11.55,8.57,23.06,12.81,34.61.49,1.34,1.06,2.49,2.2,3.42,7.67,6.29,15.42,12.5,22.9,19.01,2.55,2.22,4.03,1.89,6.39-.15,5.69-4.92,11.56-9.67,17.58-14.2,2.78-2.1,4.01-4.72,4.61-7.91,1.98-10.7,3.93-21.42,5.97-32.13.48-2.51-.04-4.56-1.56-6.65ZM207.6,416.67c-1.63,8.75-3.57,17.46-4.94,26.24-.86,5.57-4.63,8.31-8.57,11.44-11.32,9.01-10.57,8.19-21.8.04-10.62-7.7-14.33-18.57-18.2-29.74-2.84-8.15-7.26-15.94-5.98-25.2.52-3.85,1.62-6.77,5.15-8.74,3.46-1.92,6.75-4.17,10.09-6.34,1.5-.97,2.88-2.22,4.83-1.68,6.31.81,12.6,1.6,18.87,2.44,1.82.24,2.46,1.82,3.37,3.11,5.19,7.27,10.3,14.6,15.67,21.74,1.62,2.16,1.97,4.29,1.51,6.69Z"/>
        <path class="cls-5" d="M183.3,472.2c-1.18,0-2.45-.54-3.94-1.84-5.92-5.16-12.12-10.22-18.12-15.11-1.58-1.29-3.17-2.58-4.75-3.88-1.42-1.17-2.08-2.59-2.58-3.96-2.26-6.16-4.54-12.3-6.83-18.45-2-5.38-4-10.77-5.98-16.16-.48-1.32-.75-2.7-.85-3.23l-.07-.35v-.21c.1-1.01.22-1.84.32-2.56.16-1.16.27-1.93.14-2.55-2.23-12.09,5.37-17.83,12.72-23.38,8.42-6.35,16.69-5.4,24.69-4.47,1.95.23,3.97.46,5.97.58,6.43.39,11.1,3.35,15.13,9.6,4.4,6.82,9.29,13.51,14.01,19.98l1.02,1.4c1.75,2.41,2.32,4.83,1.78,7.63-1.46,7.65-2.87,15.3-4.28,22.95l-1.69,9.17c-.73,3.91-2.3,6.59-5.09,8.69-5.93,4.46-11.82,9.22-17.52,14.15-1.39,1.2-2.68,1.98-4.1,1.98ZM142.72,409.07v.03c.1.47.34,1.71.75,2.83,1.98,5.39,3.98,10.77,5.98,16.15,2.28,6.15,4.57,12.3,6.83,18.46.45,1.23.91,2.14,1.81,2.88,1.58,1.29,3.16,2.58,4.74,3.87,6.02,4.9,12.23,9.98,18.19,15.16,2,1.74,2.76,1.55,4.73-.15,5.74-4.96,11.68-9.76,17.65-14.26,2.28-1.72,3.52-3.86,4.13-7.14l1.69-9.16c1.41-7.66,2.82-15.32,4.28-22.97.41-2.12,0-3.82-1.34-5.67l-1.02-1.4c-4.75-6.5-9.65-13.22-14.09-20.1-3.61-5.58-7.54-8.11-13.17-8.45-2.07-.13-4.12-.37-6.11-.6-7.85-.91-15.27-1.76-22.88,3.98-8.53,6.44-13.58,11.05-11.76,20.89.2,1.03.06,2.06-.12,3.37-.09.64-.19,1.38-.27,2.26ZM183.36,462.07c-2.56,0-5.08-1.71-9.52-4.98-.71-.52-1.46-1.08-2.29-1.68-10.86-7.88-14.78-19.17-18.57-30.1l-.09-.25c-.6-1.73-1.3-3.49-1.96-5.19-2.52-6.39-5.12-13.01-4.08-20.59.49-3.61,1.52-7.29,5.79-9.67,2.77-1.54,5.5-3.33,8.14-5.06l1.87-1.23c.21-.14.41-.27.62-.41,1.32-.9,2.96-2.02,5.15-1.45l3.34.43c5.16.66,10.31,1.32,15.45,2,2.07.27,3.02,1.76,3.79,2.95.15.23.29.46.45.67,1.21,1.7,2.42,3.4,3.63,5.11,3.89,5.48,7.91,11.15,12.01,16.6,1.74,2.33,2.3,4.77,1.75,7.68-.57,3.07-1.18,6.13-1.79,9.2-1.11,5.57-2.26,11.32-3.14,17.01-.89,5.79-4.74,8.83-8.46,11.78l-.57.45c-5.73,4.56-8.65,6.73-11.52,6.73ZM167.24,383.84c-.79,0-1.5.45-2.54,1.16-.22.15-.44.3-.66.44l-1.86,1.22c-2.68,1.76-5.44,3.58-8.3,5.16-3.12,1.74-4.04,4.27-4.51,7.8-.96,6.94,1.42,12.95,3.92,19.33.68,1.72,1.38,3.51,2,5.29l.09.25c3.83,11.04,7.45,21.47,17.66,28.88.83.6,1.59,1.16,2.3,1.68,4.21,3.1,6.33,4.66,8.3,4.48,2.05-.17,4.58-2.12,9.67-6.17l.57-.45c3.65-2.89,6.79-5.38,7.54-10.19.89-5.74,2.04-11.52,3.16-17.11.61-3.06,1.22-6.11,1.79-9.17h0c.42-2.2.02-3.96-1.29-5.7-4.12-5.47-8.15-11.16-12.05-16.65-1.21-1.7-2.42-3.41-3.63-5.11-.18-.25-.35-.51-.51-.77-.7-1.08-1.13-1.7-2-1.82-5.14-.68-10.28-1.34-15.44-2l-3.6-.47c-.21-.06-.41-.09-.6-.09Z"/>
    </g>
    <g>
        <path class="cls-5" d="M267.35,647.13c-.24-2.41-2.25-3.16-3.88-4.18-9.25-5.82-18.62-11.45-27.76-17.42-2.61-1.7-4.05-1.24-6.03.78-7.95,8.08-15.99,16.07-24.12,23.98-2.03,1.98-2.8,4.1-2.65,6.88.52,9.32.93,18.63,1.34,27.95.06,1.69.63,3.03,1.8,4.25,7.97,8.33,15.96,16.64,23.81,25.07,2.01,2.15,4.2,2.75,6.94,2.31,7.04-1.14,14.09-2.25,21.13-3.32,1.56-.24,3.26-.1,3.93-2.02,3.28-9.34,7.14-18.48,9.18-26.98-1.31-13.25-2.51-25.28-3.69-37.31ZM256.72,705.46c-.49,1.7-1.94,1.68-3.34,1.89-4.48.69-8.96,1.46-13.44,2.23-3.41.58-6.03-.4-8.43-3.07-5.82-6.5-11.83-12.84-17.92-19.09-3.12-3.21-2.7-7.32-3.18-11.11-.77-6.08.44-12.29-.9-18.38-.42-1.91,1.02-2.88,2.12-3.98,6.34-6.32,12.75-12.56,18.97-18.97,1.96-2.02,3.47-2.64,6.06-.92,6.59,4.41,13.29,8.68,20.13,12.67,2.74,1.6,4.05,3.8,4.37,6.6,1.05,9.04,1.88,18.1,2.92,28.3-.19,7.85-4.99,15.49-7.35,23.81Z"/>
        <path class="cls-5" d="M235.21,718.16c-2.45,0-4.47-.93-6.27-2.85-6.62-7.11-13.45-14.25-20.06-21.15l-3.74-3.91c-1.39-1.46-2.08-3.07-2.15-5.08-.39-8.9-.81-18.4-1.34-27.92-.18-3.22.76-5.64,3.03-7.85,8.18-7.97,16.29-16.03,24.1-23.97,2.13-2.17,4.24-3.16,7.62-.95,5.93,3.87,12.06,7.67,17.98,11.33,3.26,2.02,6.51,4.03,9.76,6.07.24.15.49.3.74.44,1.54.89,3.45,2,3.72,4.68h0c.96,9.81,1.93,19.61,2.97,30.08l.74,7.45-.05.21c-1.46,6.09-3.79,12.37-6.26,19.01-.99,2.67-2,5.37-2.95,8.09-.83,2.37-2.89,2.61-4.25,2.76-.23.03-.45.05-.68.09-6.58,1-13.48,2.09-21.12,3.32-.62.1-1.22.15-1.8.15ZM232.94,625.75c-.77,0-1.43.5-2.36,1.45-7.83,7.95-15.95,16.02-24.14,24-1.72,1.68-2.41,3.45-2.27,5.91.53,9.53.95,19.04,1.34,27.96.05,1.38.5,2.44,1.45,3.44l3.74,3.91c6.61,6.91,13.45,14.05,20.08,21.17,1.63,1.74,3.38,2.32,5.82,1.92,7.64-1.23,14.56-2.32,21.14-3.32.25-.04.51-.07.77-.1,1.4-.16,1.87-.28,2.15-1.09.96-2.73,1.97-5.45,2.97-8.14,2.41-6.49,4.7-12.63,6.12-18.51l-.7-7.02c-1.04-10.47-2.01-20.27-2.97-30.08h0c-.13-1.33-.98-1.88-2.47-2.75-.28-.16-.55-.32-.82-.49-3.24-2.04-6.49-4.05-9.74-6.06-5.94-3.68-12.08-7.48-18.03-11.37-.87-.57-1.51-.84-2.08-.84ZM238.11,711.02c-2.9,0-5.33-1.19-7.55-3.65-5.22-5.83-11.07-12.06-17.89-19.05-2.8-2.88-3.08-6.42-3.32-9.55-.06-.77-.12-1.53-.21-2.28-.35-2.75-.3-5.53-.26-8.21.06-3.48.11-6.78-.61-10.06-.51-2.33.94-3.7,2-4.7.16-.15.31-.29.46-.44,1.97-1.97,3.95-3.93,5.93-5.89,4.3-4.26,8.75-8.66,13.03-13.07,1.89-1.95,4.13-3.44,7.66-1.1,7.34,4.91,13.9,9.04,20.07,12.64,2.98,1.74,4.61,4.21,4.99,7.55.74,6.42,1.38,12.88,2.06,19.71.28,2.79.56,5.65.86,8.61v.08s0,.08,0,.08c-.13,5.21-2.11,10.13-4.21,15.34-1.15,2.85-2.34,5.8-3.18,8.78h0c-.66,2.3-2.61,2.56-3.9,2.73l-.47.06c-4.52.7-9.04,1.48-13.42,2.23-.7.12-1.38.18-2.04.18ZM233.99,634.34c-.77,0-1.47.49-2.49,1.55-4.3,4.43-8.75,8.84-13.06,13.11-1.98,1.96-3.95,3.91-5.92,5.88-.16.17-.34.33-.51.49-1.07,1.01-1.45,1.47-1.27,2.32.78,3.57.73,7.16.67,10.64-.04,2.72-.08,5.28.24,7.85.1.79.16,1.6.23,2.41.23,2.96.45,5.75,2.61,7.98,6.85,7.02,12.72,13.27,17.96,19.12,2.14,2.37,4.32,3.17,7.28,2.67,4.39-.75,8.92-1.53,13.46-2.24l.52-.07c1.37-.18,1.63-.31,1.8-.92.88-3.11,2.1-6.12,3.27-9.03,2-4.97,3.89-9.66,4.03-14.38-.3-2.93-.58-5.77-.85-8.53-.67-6.82-1.31-13.26-2.05-19.67-.28-2.53-1.48-4.33-3.75-5.66-6.21-3.62-12.82-7.78-20.2-12.71-.79-.52-1.39-.79-1.96-.79Z"/>
    </g>
    <g>
        <path class="cls-5" d="M335.83,941.38c-2.6-7.06-4.94-14.23-7.11-21.42-.76-2.5-2.21-4.15-4.19-5.53-8.8-6.08-17.65-12.12-26.39-18.29-1.91-1.35-3.35-1.54-5.28-.06-9.58,7.37-19.24,14.66-28.88,21.94-2.01,1.51-2.52,3-1.36,5.54,5.74,12.62,11.3,25.33,16.83,38.06,1.05,2.42,2.42,3.64,5.24,3.9,9.63.92,19.25,2.18,29.89,3.42,1.93.47,3.85-1.06,5.6-3.17,4.82-5.79,9.68-11.54,14.55-17.28,1.84-2.17,2.13-4.3,1.1-7.11ZM319.19,956.65c-3.13,2.58-5.16,6-8.71,5.09-8.22-.93-15.29-1.82-22.37-2.49-2.25-.21-3-1.72-3.72-3.33-4.43-9.96-8.71-19.99-13.32-29.88-1.33-2.84-.47-4.42,1.64-6.03,6.78-5.15,13.6-10.26,20.28-15.54,1.96-1.55,3.38-1.26,5.26.06,7.14,5.01,14.38,9.9,21.6,14.78,2.78,1.88,2.68,5.16,4.01,7.74,5.73,11.06,5.98,20.87-4.68,29.6Z"/>
        <path class="cls-5" d="M315.27,970.28c-.3,0-.6-.03-.91-.1-3.18-.37-6.28-.74-9.31-1.11-7.09-.85-13.78-1.66-20.49-2.3-3.12-.29-4.99-1.69-6.28-4.66-5.28-12.14-10.92-25.08-16.82-38.04-1.35-2.95-.81-5.14,1.75-7.07l1.75-1.32c8.91-6.73,18.13-13.69,27.12-20.61,2.27-1.74,4.29-1.73,6.78.03,6.19,4.37,12.55,8.75,18.69,12.98,2.57,1.77,5.13,3.53,7.69,5.3,2.42,1.68,3.91,3.65,4.68,6.2,2.39,7.93,4.71,14.91,7.08,21.35,1.21,3.28.8,5.86-1.32,8.36-5.43,6.41-9.99,11.8-14.54,17.27-.81.97-3.09,3.71-5.88,3.71ZM295.39,896.3c-.56,0-1.1.26-1.77.77-9,6.93-18.22,13.89-27.14,20.62l-1.75,1.32c-1.62,1.22-1.84,2.12-.98,4.01,5.9,12.98,11.55,25.93,16.84,38.08.93,2.14,1.99,2.94,4.2,3.15,6.75.64,13.45,1.45,20.55,2.31,3.05.37,6.16.74,9.36,1.11l.15.03c1.14.28,2.59-.65,4.34-2.75,4.56-5.48,9.12-10.88,14.56-17.29,1.52-1.79,1.77-3.43.88-5.85h0c-2.39-6.49-4.73-13.52-7.13-21.49-.61-2-1.75-3.5-3.7-4.86-2.56-1.77-5.12-3.53-7.69-5.3-6.15-4.24-12.51-8.62-18.72-13-.82-.58-1.43-.86-2.02-.86ZM311.64,963.15c-.44,0-.9-.05-1.38-.17-2.24-.26-4.4-.51-6.5-.75-5.48-.64-10.65-1.24-15.76-1.72-3.08-.29-4.09-2.57-4.76-4.08-1.42-3.19-2.82-6.39-4.23-9.59-2.93-6.67-5.95-13.56-9.08-20.27-1.82-3.91,0-6.02,2.02-7.57l4.22-3.2c5.29-4.01,10.76-8.15,16.05-12.33,2.8-2.22,4.99-1.23,6.77.02,6.88,4.82,13.96,9.61,20.8,14.24l.78.52c2.22,1.5,2.9,3.72,3.49,5.68.28.91.54,1.76.93,2.52,6.72,12.96,5.13,22.86-5,31.16-.73.61-1.42,1.27-2.09,1.92-1.82,1.78-3.7,3.61-6.26,3.61ZM295.5,904.67c-.55,0-1.07.26-1.72.78-5.32,4.19-10.8,8.35-16.09,12.36l-4.21,3.2c-1.92,1.47-2.2,2.48-1.26,4.49,3.14,6.73,6.17,13.64,9.1,20.32,1.4,3.2,2.81,6.39,4.22,9.58.74,1.66,1.24,2.45,2.69,2.59,5.14.49,10.32,1.09,15.82,1.73,2.12.25,4.3.5,6.58.76l.17.03c1.89.48,3.2-.68,5.35-2.78.7-.68,1.43-1.39,2.24-2.06h0c9.18-7.52,10.52-16.16,4.36-28.05-.5-.96-.81-1.97-1.11-2.95-.54-1.78-1.01-3.32-2.5-4.33l-.78-.52c-6.85-4.64-13.94-9.43-20.84-14.27-.84-.59-1.46-.89-2.04-.89Z"/>
    </g>
    <g>
        <path class="cls-5" d="M701.27,897.41c-5.1-19.14-9.85-38.35-14.67-57.55-27.4-109.05-54.83-218.1-82.19-327.15-12.86-51.27-25.6-102.56-38.4-153.85-10.35-41.48-20.75-82.96-30.99-124.48-.95-3.79-2.16-4.34-5.61-2.58-7.07,3.64-14.31,6.92-21.55,10.2-38.47,17.5-77,34.88-115.46,52.42-26.37,12.03-52.59,24.39-79.02,36.28-3.85,1.73-4.57,3.65-3.69,7.27,5.31,21.71,10.55,43.45,15.83,65.17,11.44,47.11,22.87,94.23,34.35,141.34,11.25,46.14,22.58,92.25,33.83,138.4,7.45,30.56,14.72,61.18,22.19,91.74,10.45,42.67,21.03,85.31,31.54,127.97,1,4.03.78,9.23,3.28,11.8,2.74,2.84,8.05-.16,12.72.96,12.94-.86,26.36-2.18,39.8-2.58,24.15-.72,48.26-2.41,72.38-3.57,15.42-.74,30.85-1.73,46.26-2.34,25.14-.97,50.24-2.55,75.37-3.69,4.66-.2,5.13-1.57,4-5.79ZM689.3,897.18c-18.63.66-37.28,1.38-55.88,2.46-23.76,1.39-47.53,2.54-71.29,3.69-23.57,1.12-47.15,2.16-70.68,3.69-10.27.67-20.68-.34-30.79,1.98-3.77.58-5.13-1.09-6.01-4.73-14.13-58.56-28.43-117.08-42.7-175.61-10.06-41.2-20.15-82.39-30.22-123.58-15.22-62.37-30.46-124.74-45.67-187.12-6.11-25.02-12.08-50.08-18.33-75.07-1.11-4.47-.77-6.58,4.18-8.75,24.74-10.83,49.19-22.33,73.76-33.58,42.8-19.6,85.62-39.14,128.38-58.85,4.82-2.22,5.55-.03,6.55,3.96,23.67,94.61,47.48,189.17,71.22,283.75,30.07,119.77,60.09,239.55,90.13,359.31.29,1.16.37,2.39.82,3.47,1.53,3.59.56,4.83-3.46,4.97Z"/>
        <path class="cls-5" d="M454.34,916.93c-1.69,0-3.28-.36-4.52-1.65-2.01-2.07-2.48-5.37-2.93-8.55-.18-1.3-.37-2.64-.67-3.82-3.62-14.68-7.24-29.35-10.87-44.02-6.8-27.51-13.82-55.96-20.68-83.95-3.96-16.2-7.93-32.68-11.77-48.62-3.46-14.38-6.92-28.76-10.43-43.12-5.68-23.3-11.38-46.6-17.08-69.89-5.59-22.83-11.18-45.67-16.75-68.51-10.72-44-21.4-88-32.08-132l-2.27-9.34c-1.74-7.18-3.48-14.35-5.22-21.53-3.52-14.55-7.05-29.1-10.61-43.64-1.07-4.38.17-6.82,4.4-8.72,15.51-6.98,31.2-14.23,46.38-21.25,10.69-4.94,21.74-10.05,32.63-15.02,22.5-10.27,45.41-20.65,67.56-30.69,15.97-7.24,31.94-14.48,47.91-21.74l.28-.13c7.01-3.18,14.27-6.47,21.22-10.05,1.62-.83,3.33-1.51,4.83-.83,1.51.68,2.13,2.43,2.58,4.22,7.96,32.29,16.16,65.09,24.08,96.81l6.91,27.66c4.16,16.68,8.32,33.36,12.47,50.04,8.48,34.03,17.25,69.21,25.92,103.81,20.18,80.45,40.4,160.89,60.62,241.34l24.1,95.91c3.9,15.56,7.93,31.66,12.13,47.43h0c.65,2.47.86,4.26-.12,5.6-1.04,1.42-3.04,1.7-5.05,1.78-10.58.48-21.33,1.04-31.73,1.59-14.3.75-29.08,1.53-43.65,2.09-9.41.37-18.99.89-28.26,1.39-6,.33-11.99.65-17.99.94-8.51.41-17.16.89-25.52,1.36-15.36.86-31.24,1.75-46.88,2.21-9.18.27-18.44.98-27.4,1.67-4.16.32-8.28.64-12.36.91h-.19s-.19-.03-.19-.03c-1.75-.42-3.7-.18-5.58.06-1.08.14-2.18.27-3.24.27ZM532.33,232.11c-.39,0-1.08.18-2.34.82-7,3.6-14.28,6.91-21.33,10.1l-.28.13c-15.96,7.26-31.94,14.5-47.91,21.74-22.15,10.04-45.05,20.42-67.55,30.68-10.89,4.97-21.94,10.08-32.62,15.02-15.18,7.02-30.88,14.28-46.4,21.26-3.36,1.51-3.7,2.84-2.98,5.82,3.56,14.54,7.08,29.09,10.61,43.64,1.74,7.18,3.48,14.36,5.22,21.53l2.27,9.34c10.68,44,21.36,88,32.08,132,5.57,22.84,11.16,45.67,16.75,68.5,5.7,23.29,11.4,46.59,17.08,69.9,3.5,14.37,6.96,28.75,10.43,43.13,3.84,15.94,7.81,32.42,11.77,48.61,6.86,27.99,13.88,56.44,20.68,83.95,3.63,14.67,7.25,29.35,10.87,44.02.32,1.3.52,2.71.72,4.07.39,2.78.8,5.66,2.25,7.15,1.15,1.19,3.23.92,5.63.62,1.95-.25,4.15-.52,6.29-.05,4.01-.27,8.06-.58,12.15-.89,8.98-.69,18.27-1.4,27.51-1.67,15.61-.47,31.47-1.35,46.82-2.21,8.37-.47,17.02-.95,25.54-1.36,5.99-.29,11.98-.61,17.98-.94,9.27-.5,18.87-1.02,28.3-1.4,14.54-.56,29.32-1.34,43.61-2.09,10.41-.55,21.16-1.11,31.75-1.59,1.76-.08,2.82-.33,3.13-.76.41-.56.03-2.24-.29-3.45h0c-4.21-15.79-8.24-31.89-12.14-47.46l-24.1-95.91c-20.22-80.45-40.44-160.89-60.62-241.34-8.68-34.6-17.45-69.79-25.93-103.82-4.16-16.68-8.31-33.36-12.47-50.04l-6.91-27.66c-7.92-31.72-16.12-64.53-24.08-96.82-.47-1.86-.89-2.4-1.17-2.53-.07-.03-.17-.05-.3-.05ZM459.35,910.36c-3.94,0-5.19-2.75-5.93-5.8-12.24-50.74-24.82-102.3-36.98-152.16l-5.72-23.45c-7.06-28.93-14.14-57.85-21.22-86.77l-23.59-96.57c-10.36-42.45-20.73-84.9-31.08-127.36-2.05-8.39-4.08-16.79-6.12-25.18-3.96-16.36-8.06-33.27-12.21-49.88-1.2-4.82-.77-7.72,4.89-10.21,17.93-7.85,36-16.19,53.48-24.25,6.75-3.11,13.5-6.23,20.25-9.32,11.32-5.18,22.64-10.37,33.97-15.55,30.95-14.16,62.96-28.81,94.41-43.3,2.35-1.08,3.99-1.28,5.31-.64,1.85.89,2.43,3.21,2.99,5.45,16.17,64.62,32.67,130.31,48.63,193.83,7.53,29.97,15.06,59.95,22.59,89.92,19.8,78.86,39.58,157.73,59.35,236.59l30.78,122.72c.11.45.19.9.28,1.35.13.71.25,1.37.48,1.94.63,1.49,1.24,3.39.3,4.87-.97,1.52-3.12,1.79-4.88,1.85h0c-20.73.73-38.16,1.43-55.85,2.46-23.7,1.39-47.81,2.55-71.13,3.68l-11,.52c-19.63.92-39.92,1.88-59.84,3.17-3.48.23-7.01.26-10.42.3-6.67.07-13.57.14-20.17,1.65-.57.09-1.1.13-1.59.13ZM527.16,242.08c-.51,0-1.32.18-2.6.77-31.45,14.49-63.46,29.14-94.41,43.3-11.32,5.18-22.64,10.36-33.97,15.55-6.76,3.09-13.5,6.2-20.25,9.32-17.49,8.07-35.58,16.41-53.53,24.27-4.16,1.83-4.48,3.19-3.46,7.29,4.15,16.61,8.25,33.53,12.21,49.9,2.03,8.39,4.07,16.79,6.12,25.18,10.35,42.46,20.72,84.91,31.08,127.36l23.59,96.57c7.08,28.92,14.15,57.84,21.22,86.77l5.72,23.45c12.17,49.87,24.75,101.43,36.98,152.17.83,3.39,1.81,4.21,4.59,3.78,6.77-1.56,13.81-1.63,20.61-1.7,3.38-.03,6.88-.07,10.28-.29,19.94-1.29,40.25-2.25,59.89-3.18l10.99-.52c23.31-1.13,47.41-2.29,71.1-3.68,17.72-1.03,35.16-1.73,55.91-2.46h0c2.21-.08,2.72-.5,2.83-.68.11-.17.27-.74-.49-2.53-.35-.83-.5-1.67-.64-2.47-.07-.4-.14-.79-.24-1.18l-30.78-122.72c-19.78-78.86-39.55-157.73-59.35-236.59-7.53-29.98-15.06-59.95-22.59-89.92-15.96-63.52-32.46-129.2-48.63-193.83-.48-1.93-.91-3.44-1.63-3.79-.13-.06-.31-.11-.57-.11Z"/>
    </g>
</svg>