<svg width="288" height="105" viewBox="0 0 288 105" fill="none" xmlns="http://www.w3.org/2000/svg">
    <path fill-rule="evenodd" clip-rule="evenodd" d="M48.9955 6.73181C21.9379 6.73181 0 28.7658 0 55.9481C0 77.692 14.0387 96.1368 33.5099 102.648C35.9615 103.098 36.8549 101.578 36.8549 100.273C36.8549 99.1067 36.8128 96.0099 36.7887 91.904C23.1591 94.877 20.2834 85.3056 20.2834 85.3056C18.0545 79.6226 14.8418 78.109 14.8418 78.109C10.3929 75.0545 15.1787 75.1149 15.1787 75.1149C20.0969 75.4654 22.6839 80.1876 22.6839 80.1876C27.0546 87.7075 34.1537 85.5352 36.9451 84.2784C37.3903 81.097 38.6537 78.9277 40.0555 77.6981C29.1753 76.4564 17.7356 72.2326 17.7356 53.374C17.7356 48.0022 19.6457 43.6093 22.7801 40.1681C22.2748 38.9233 20.5933 33.9201 23.2584 27.1434C23.2584 27.1434 27.3735 25.8201 36.7346 32.1889C40.6421 31.0982 44.8353 30.5514 49.0015 30.5333C53.1617 30.5514 57.3549 31.0982 61.2684 32.1889C70.6235 25.8201 74.7295 27.1434 74.7295 27.1434C77.4037 33.9201 75.7222 38.9233 75.2169 40.1681C78.3573 43.6093 80.2554 48.0022 80.2554 53.374C80.2554 72.281 68.7976 76.4412 57.8813 77.6588C59.6411 79.1785 61.2083 82.1816 61.2083 86.774C61.2083 93.3512 61.1481 98.6596 61.1481 100.273C61.1481 101.59 62.0295 103.122 64.5171 102.642C83.9733 96.1187 98 77.686 98 55.9481C98 28.7658 76.0591 6.73181 48.9955 6.73181Z" fill="white"/>
    <path d="M237.589 59.6563C239.107 61.3297 239.803 63.1922 239.803 65.5287V66.8864L238.269 67.6125C236.751 68.3228 231.155 70.7224 231.028 70.7224C230.997 70.7224 231.345 69.9175 231.819 68.9386C232.277 67.9756 232.989 66.2076 233.4 65.0396C234.143 62.8613 235.218 58.9144 235.218 58.3144C235.218 58.141 235.265 57.9356 235.313 57.8883C235.471 57.7307 236.767 58.7253 237.589 59.6563Z" fill="#32D499"/>
    <path d="M231.74 57.6038C231.74 58.4566 231.629 59.7827 231.502 60.5561C231.218 62.1344 230.364 64.8024 229.779 65.9389L229.384 66.6971L229.368 61.361V56.0411H230.554H231.74V57.6038Z" fill="#32D499"/>
    <path d="M215.061 54.4627C217.654 54.6205 219.678 54.731 223.25 54.8889L225.574 54.9836V61.8194V68.6386L225.069 68.5125C224.784 68.4337 224.246 68.307 223.899 68.2125C222.745 67.9125 220.468 67.8337 218.84 68.0391C217.559 68.1967 215.14 68.7968 214.002 69.2228C213.781 69.3016 213.812 69.1756 214.128 68.3543C215.14 65.8602 214.824 62.34 213.322 59.3562C212.595 57.9198 211.536 56.5621 210.113 55.2362L208.896 54.1154L210.793 54.2101C211.836 54.2732 213.765 54.3837 215.061 54.4627Z" fill="#32D499"/>
    <path d="M215.931 33.7037C217.369 33.83 218.792 33.9721 219.093 34.0194C219.63 34.0826 220.753 34.1773 222.887 34.3352C227.772 34.6982 240.356 35.7717 241.083 35.8822C241.415 35.9296 241.479 36.0559 241.574 36.7189C241.621 37.1451 241.747 37.9818 241.842 38.5975C241.937 39.1973 242.016 40.9496 242.016 42.4967C242.016 46.8537 241.431 49.6163 239.882 52.521C239.487 53.2629 239.171 53.8944 239.171 53.9101C239.171 53.9417 239.503 53.8628 239.914 53.7365C240.309 53.6102 240.91 53.5155 241.257 53.5155H241.858V55.4256C241.858 57.5882 241.953 57.5094 240.672 56.3415C234.649 50.9897 221.116 48.4323 211.393 50.8161C210.761 50.9739 210.239 51.0686 210.239 51.037C210.239 50.9921 210.524 50.5772 210.878 50.0626L210.935 49.9793C211.899 48.6533 213.006 46.2854 213.417 44.7541C213.828 43.1913 213.986 40.4444 213.733 39.1026C213.433 37.524 212.816 35.8348 212.057 34.5088L211.362 33.2775L212.342 33.3722C212.879 33.4195 214.492 33.5774 215.931 33.7037Z" fill="#32D499"/>
    <path d="M223.519 15.3126C227.756 15.7546 233.969 16.5439 234.095 16.6702C234.143 16.7176 234.175 17.8068 234.175 19.0697C234.159 20.9009 234.08 21.6587 233.811 22.6532C233.4 24.2161 232.151 26.7577 231.202 28.0048C230.807 28.5257 230.507 28.9677 230.538 28.9993C230.57 29.0309 231.36 28.952 232.309 28.8099C233.258 28.6836 234.918 28.5099 236.008 28.4152L237.985 28.2574L238.743 29.0625C239.455 29.8202 240.593 31.7777 240.593 32.2513C240.593 32.3776 239.977 32.1566 238.902 31.6198C234.001 29.2203 227.408 28.7309 221.069 30.3096C220.025 30.5621 219.124 30.7832 219.061 30.7832C219.013 30.7832 219.266 30.2622 219.661 29.6307C221.985 25.7631 222.27 21.1062 220.436 17.2859C220.152 16.6702 219.63 15.8651 219.314 15.4863L218.713 14.7916L219.488 14.8864C219.93 14.9495 221.732 15.139 223.519 15.3126Z" fill="#32D499"/>
    <path d="M239.961 9.70853C241.921 9.92951 244.308 10.2137 245.257 10.34C246.221 10.4663 248.213 10.7346 249.684 10.9241L252.371 11.2713L253.493 12.3922C255.533 14.4444 256.829 16.6861 257.525 19.3382C257.999 21.1536 258.047 24.5634 257.604 26.2052C257.303 27.326 256.419 29.3625 256.245 29.3625C256.181 29.3625 255.786 29.0941 255.375 28.7468C253.241 26.9787 248.798 25.337 245.178 24.9738C243.565 24.816 238.854 24.8318 237.589 25.0054C236.593 25.1317 236.577 25.1317 236.815 24.8475C237.4 24.1688 238.174 22.0692 238.554 20.0959C238.791 18.8488 238.664 16.0388 238.317 14.7601C237.921 13.3709 236.973 11.4292 236.135 10.2926C235.708 9.74011 235.376 9.2665 235.376 9.21917C235.376 9.17177 235.613 9.18759 235.898 9.23493C236.146 9.27866 237.727 9.45681 239.51 9.65776L239.961 9.70853Z" fill="#32D499"/>
    <path d="M231.741 10.0086V13.5605L230.602 13.5289L229.448 13.4973L229.433 12.3923C229.417 11.3188 229.401 11.2872 228.816 10.8136C228.247 10.3558 228.199 10.34 226.682 10.3874C225.417 10.4189 224.943 10.3559 224.247 10.1032C223.204 9.7086 222.081 8.55617 221.733 7.49853L221.48 6.78813L222.002 7.18276C223.125 8.03523 224.579 8.25627 226.207 7.81425C227.314 7.51429 227.899 7.51429 228.721 7.81425L229.369 8.03523V7.26173V6.47241H230.555H231.741V10.0086Z" fill="#32D499"/>
    <path d="M247.391 3.915V7.82997L246.49 7.71948C245.984 7.65633 245.447 7.59317 245.304 7.59317C245.067 7.57741 245.02 7.41953 245.02 6.42498V5.27262L244.182 5.00424C243.613 4.81481 242.87 4.75165 241.779 4.76744C240.356 4.78323 240.119 4.75167 239.392 4.3728C238.475 3.91499 237.589 2.96781 237.02 1.86277C236.53 0.899805 236.546 0.789313 237.084 1.31026C237.7 1.89435 238.996 2.36794 239.977 2.36794C240.419 2.36794 241.273 2.21007 241.89 2.03642C242.965 1.70491 244.056 1.68913 244.751 1.97328C244.988 2.068 245.02 1.97328 245.02 1.04189V0H246.206H247.391V3.915Z" fill="#32D499"/>
    <path d="M247.423 31.0988C251.692 31.9829 256.102 33.5457 260.434 35.7242C265.066 38.0448 270.378 42.2913 273.73 46.3642C274.473 47.264 275.073 48.0375 275.042 48.0533C275.01 48.0849 274.315 48.5427 273.493 49.0636L272.006 50.0266L271.517 49.553C270.805 48.8584 268.497 47.4692 266.726 46.6641C264.133 45.5117 261.699 44.8645 258.284 44.4382C257.209 44.312 256.308 44.2014 256.292 44.2014C256.26 44.2014 256.245 44.0436 256.245 43.8384C256.245 43.349 255.707 41.9914 254.932 40.4917C253.288 37.3187 250.411 34.335 246.379 31.5882C245.589 31.0515 245.004 30.6252 245.067 30.6252C245.115 30.6252 246.174 30.8305 247.423 31.0988Z" fill="#32D499"/>
    <path d="M248.166 37.5397C250.632 40.7917 252.213 44.17 252.719 47.201L252.972 48.7796H255.77C257.32 48.7796 258.806 48.827 259.074 48.8743L259.58 48.9848L259.485 49.8688C259.359 50.9265 258.885 52.4578 258.458 53.1524L258.158 53.6733L257.557 53.105C255.233 50.9581 251.454 49.9636 246.87 50.295C245.747 50.374 244.799 50.4056 244.767 50.374C244.735 50.3424 244.767 50.2319 244.846 50.1372C245.178 49.6952 245.795 47.7535 246.048 46.3327C246.585 43.3175 246.127 37.6187 245.099 34.7456C244.973 34.3667 244.862 34.0194 244.862 33.972C244.862 33.7037 247.091 36.119 248.166 37.5397Z" fill="#32D499"/>
    <path d="M246.885 53.0419H247.549V56.0887V59.1356L246.49 59.5774C245.889 59.8302 245.32 60.0508 245.225 60.0986C245.067 60.1617 245.02 59.3877 245.02 56.5148V52.8367L245.62 52.9472C245.936 52.9946 246.506 53.0419 246.885 53.0419Z" fill="#32D499"/>
    <path d="M282.757 47.0746C283.169 47.4535 283.247 48.2428 282.931 48.669C282.726 48.9374 275.691 53.5628 268.418 58.2355C264.229 60.935 264.576 60.5404 264.387 62.5927C264.213 64.3922 264.134 64.9764 263.817 66.6972C263.075 70.7859 261.999 74.1479 260.261 77.779L259.264 79.8785H257.668H256.055L256.498 79.1209C258.427 75.8844 259.976 71.4326 260.972 66.3026C261.272 64.8183 261.936 60.5247 261.936 60.1301C261.936 60.0507 261.415 59.9877 260.766 59.9877C257.857 59.9877 252.862 61.2981 247.676 63.3976C246.317 63.9503 245.162 64.4079 245.099 64.4079C245.052 64.4079 245.036 63.7291 245.052 62.8927L245.099 61.3926L246.364 60.8404C249.668 59.3877 254.711 57.699 257.272 57.1778C258.964 56.8305 260.245 56.799 261.747 57.0517C262.553 57.1936 263.47 57.4148 263.77 57.5409L264.308 57.7621L265.968 56.7044C272.576 52.4893 275.533 50.595 278.22 48.7953C281.572 46.5537 282.03 46.3958 282.757 47.0746Z" fill="#32D499"/>
    <path d="M253.62 55.2519C254.221 55.6466 254.742 56.0412 254.774 56.1202C254.79 56.2149 254.063 56.5463 253.114 56.8936C252.181 57.2251 251.328 57.5409 251.233 57.5724C251.075 57.6355 251.027 57.2094 251.027 55.7413V53.8312L251.786 54.1785C252.197 54.3679 253.019 54.8573 253.62 55.2519Z" fill="#32D499"/>
    <path d="M251.992 65.4971C251.818 65.7341 251.012 66.6021 250.206 67.4075C245.7 71.9066 240.562 74.9219 233.463 77.2421C230.855 78.0948 227.345 78.8209 224.373 79.1052C220.579 79.484 214.603 78.947 211.378 77.9524C210.935 77.8263 210.761 77.5894 210.05 76.2002C209.291 74.6849 205.971 67.5651 205.971 67.4548C205.971 67.4233 206.666 67.4075 207.52 67.4075H209.085L210.287 69.8859C210.935 71.2593 211.804 73.0588 212.184 73.8958L212.879 75.4111L214.049 75.6007C215.915 75.9002 220.278 76.1214 222.254 76.0111C226.049 75.7899 229.464 75.111 233.084 73.88C235.708 72.98 237.684 72.0957 242.095 69.8859C246.111 67.8809 251.96 65.0711 252.182 65.0553C252.261 65.0395 252.166 65.2444 251.992 65.4971Z" fill="#32D499"/>
    <path d="M255.043 70.7381C254.126 72.3958 252.245 73.6588 249.462 74.4322C247.849 74.8741 247.407 74.8741 248.592 74.4165C250.142 73.8322 253.92 71.3224 254.964 70.1859C255.517 69.5859 255.549 69.7913 255.043 70.7381Z" fill="#32D499"/>
    <path d="M210.524 81.2994C211.251 81.4733 212.69 81.9624 213.733 82.4043C215.883 83.2886 217.48 83.6674 219.045 83.6674C220.484 83.6674 221.685 83.3674 223.946 82.4358C227.06 81.1575 227.424 81.0624 229.922 81.0624C232.42 81.0624 233.274 81.2521 235.787 82.4043C239.423 84.0777 241.494 84.0777 245.573 82.3728C248.561 81.126 248.83 81.0624 251.739 81.0624H251.743C254.237 81.0782 254.285 81.0787 255.849 81.6467C256.719 81.9467 258.031 82.4673 258.774 82.7674C260.276 83.3989 261.62 83.6674 263.28 83.6674C264.734 83.6674 265.904 83.3674 268.323 82.4043C271.548 81.126 272.528 80.9206 275.295 80.9206C278.172 80.9048 279.184 81.126 282.646 82.4201C284.749 83.194 286.836 83.825 287.927 84.0147C288.148 84.0462 287.895 84.3935 286.789 85.5615L285.366 87.0615L283.658 86.4773C282.71 86.1615 281.081 85.6093 280.038 85.2463C278.236 84.6305 278.014 84.5832 275.848 84.5038C273.003 84.3935 271.801 84.6147 268.956 85.7354C266.284 86.793 264.687 87.1403 262.648 87.0615C260.703 86.9985 259.517 86.73 257.272 85.8142C254.584 84.7408 253.763 84.5517 251.502 84.5517C249.257 84.5353 248.656 84.6777 246.095 85.8142C242.538 87.3931 239.36 87.4876 236.009 86.0984C231.092 84.0462 229.179 83.9674 225.068 85.6251C222.634 86.6197 221.543 86.9191 219.867 87.0615C218.207 87.2034 216.373 86.9034 214.192 86.1615C210.223 84.7881 209.623 84.6305 207.899 84.4408C206.556 84.2989 205.734 84.2989 204.358 84.4408C202.271 84.6462 201.75 84.7881 198.714 85.893L196.453 86.73L195.189 85.4196C194.493 84.7093 193.955 84.0935 194.003 84.0462C194.035 83.9989 194.809 83.7777 195.71 83.5255C196.611 83.2728 197.86 82.8782 198.461 82.6413C200.88 81.7097 202.303 81.2521 203.362 81.0466C204.975 80.763 208.848 80.889 210.524 81.2994Z" fill="#32D499"/>
    <path d="M232.831 88.1665C233.447 88.2926 234.744 88.7192 235.692 89.1138C238.206 90.1557 239.202 90.3448 241.384 90.2502C243.312 90.1557 243.818 90.029 246.775 88.8926C248.956 88.0562 250.316 87.8507 252.039 88.0719C252.766 88.1665 253.731 88.3877 254.205 88.5295L255.027 88.8138L254.49 89.1453C253.684 89.6345 248.735 91.9552 247.486 92.4128C245.605 93.1232 243.549 93.4547 241.115 93.4547C239.898 93.4547 238.49 93.3759 237.969 93.2813C235.629 92.871 232.957 91.8606 229.131 89.9345L226.918 88.8295L227.471 88.5926C229.036 87.9453 231.044 87.7877 232.831 88.1665Z" fill="#32D499"/>
    <path d="M212.057 88.3403C213.922 88.6082 219.25 89.9028 222.333 90.8501C228.135 92.6024 235.454 95.8226 240.245 98.7118L241.715 99.5955L242.616 98.9955C244.735 97.5906 250.474 94.7176 254.505 93.0285C257.666 91.7181 260.892 90.6447 264.939 89.5871C269.666 88.3403 271.69 88.0403 275.136 88.0245C278.029 88.0245 279.215 88.1506 281.776 88.7506L283.199 89.0822L281.713 90.4871C280.717 91.4338 280.148 91.8605 279.974 91.7975C279.42 91.5762 276.148 91.3708 274.741 91.4659C273.27 91.5605 269.903 92.0339 268.654 92.3339C261.698 94.0073 257.509 95.5068 251.738 98.4276C248.608 100.006 245.636 101.806 243.217 103.558L241.652 104.695L240.925 104.173C234.664 99.7537 229.368 97.0541 222.016 94.5916C217.574 93.0915 213.875 92.2236 209.448 91.6078C208.167 91.4338 203.488 91.4817 202.571 91.6866L201.78 91.8605L200.326 90.4083C198.95 89.0506 198.887 88.9555 199.219 88.8294C199.567 88.7033 202.35 88.1664 203.44 88.0245C204.531 87.8821 210.349 88.1033 212.057 88.3403Z" fill="#32D499"/>
    <path d="M156.54 69.0318C156.26 68.7118 156 68.5518 155.76 68.5518C155.6 68.5518 155.5 68.5718 155.46 68.6118C155.46 68.6918 155.38 68.7318 155.22 68.7318C155.1 68.7318 154.94 68.6718 154.74 68.5518C154.54 68.4318 154.38 68.3718 154.26 68.3718C154.18 68.3718 153.66 68.1718 152.7 67.7718C151.74 67.3718 150.88 67.1118 150.12 66.9918C149.4 66.5118 148.96 65.8118 148.8 64.8918C148.68 64.0918 148.58 63.2718 148.5 62.4318C148.46 62.3918 147.66 61.0718 146.1 58.4718H145.62C145.06 59.2318 144.1 60.5718 142.74 62.4918C142.66 62.7318 142.54 63.0718 142.38 63.5118C142.22 63.9518 141.34 65.3518 139.74 67.7118C137.98 70.2718 136.98 71.5518 136.74 71.5518C136.66 71.5518 136.46 71.4918 136.14 71.3718C135.82 71.2518 135.56 71.1918 135.36 71.1918C135 70.1118 134.82 69.6118 134.82 69.6918C134.82 69.4118 135.32 68.5118 136.32 66.9918C137.32 65.4718 137.96 64.6118 138.24 64.4118C138.36 63.7718 138.58 63.1718 138.9 62.6118C139.18 62.3318 139.54 61.9318 139.98 61.4118C139.98 59.8518 140.66 58.3918 142.02 57.0318C142.02 57.0718 141.86 56.9318 141.54 56.6118C141.78 56.3318 142.02 55.9718 142.26 55.5318C142.9 54.2518 143.22 53.3118 143.22 52.7118C143.22 52.4718 142.3 50.4918 140.46 46.7718C140.22 46.4918 139.92 46.1518 139.56 45.7518C139.2 44.9918 138.86 44.2318 138.54 43.4718C137.98 42.3118 137.36 41.6318 136.68 41.4318C136.8 40.2318 137.32 39.6318 138.24 39.6318C138.36 39.6318 138.5 39.6918 138.66 39.8118C138.86 39.8918 139.04 39.9318 139.2 39.9318C139.32 39.9318 139.56 39.7918 139.92 39.5118C140.28 39.2318 140.54 39.0918 140.7 39.0918C141.22 39.0918 141.66 39.1718 142.02 39.3318C142.02 39.8918 142.28 40.6118 142.8 41.4918C143.76 43.0918 144.26 43.9318 144.3 44.0118C144.7 44.8918 145.42 46.2118 146.46 47.9718C146.98 47.2918 147.6 46.0318 148.32 44.1918C148.24 43.9518 148.22 43.6118 148.26 43.1718C149.06 41.5718 149.84 40.1718 150.6 38.9718C151.52 38.9718 153 39.0718 155.04 39.2718C155.16 39.4718 155.22 39.8718 155.22 40.4718C155.22 40.8718 155.2 41.1318 155.16 41.2518C154.52 41.9318 153.72 42.9318 152.76 44.2518C149.96 49.7718 148.56 52.5718 148.56 52.6518C148.56 52.2918 149.02 53.5318 149.94 56.3718C150.1 56.4918 150.28 56.6718 150.48 56.9118C150.44 57.2318 150.56 57.7118 150.84 58.3518C151.12 58.9518 151.26 59.2918 151.26 59.3718C151.42 59.4918 152.1 60.2918 153.3 61.7718C153.94 62.5318 154.26 63.2318 154.26 63.8718C154.58 64.0318 155.16 65.0118 156 66.8118C156.04 66.8918 156.22 67.6318 156.54 69.0318Z" fill="white"/>
</svg>
