<svg xmlns="http://www.w3.org/2000/svg" width="119" height="4" viewBox="0 0 119 4" fill="none">
    <path d="M26.6199 0.398964C30.5054 0.445241 49.5504 1.32096 51.5833 1.16156C56.7981 0.751918 63.708 1.01797 71.4023 1.54252C78.5209 2.02778 84.6022 2.13774 89.5447 1.82948C94.3283 1.53121 100.497 1.64892 106.904 1.84354C108.795 1.90105 110.668 1.957 112.575 2.02325C116.215 2.14981 118.871 2.67922 118.11 3.14543C117.441 3.55706 115.594 3.79589 112.87 3.8308C109.145 3.87786 105.179 3.86 101.18 3.82225C89.2015 3.70817 77.1542 3.57348 65.1241 3.44274L37.7912 3.66266C31.559 3.66977 25.4804 3.72681 19.4878 3.80362C15.4105 3.85797 11.4872 3.56352 7.41348 2.79162C5.48012 2.42578 3.4771 2.05372 1.80839 1.67282C-0.290133 1.19074 -0.450464 0.823573 1.45859 0.674872C3.13782 0.544337 5.11161 0.457003 7.28881 0.450652C12.2925 0.440291 17.5013 0.491733 22.642 0.520177C22.9578 0.521769 23.3768 0.547072 23.6413 0.534411C24.6629 0.495049 25.6329 0.443831 26.6199 0.398964Z" fill="#D49332"/>
</svg>