<svg width="332" height="98" viewBox="0 0 332 98" fill="none" xmlns="http://www.w3.org/2000/svg">
    <path d="M146.46 78.3288C154.318 78.1698 192.933 78.1851 197.017 77.8771C207.494 77.086 221.497 77.0283 237.122 77.2436C251.579 77.4428 263.884 77.2399 273.826 76.5881C283.448 75.9573 295.93 75.7591 308.906 75.6418C312.735 75.6073 316.529 75.5719 320.393 75.5471C327.767 75.5001 333.212 76.001 331.743 76.6141C330.452 77.1553 326.755 77.5503 321.256 77.7442C313.735 78.0086 305.719 78.2069 297.633 78.3826C273.41 78.9077 249.046 79.4114 224.717 79.919L169.517 81.7054C156.924 82.06 144.649 82.4672 132.551 82.8939C124.32 83.1867 116.349 83.0439 108.003 82.3247C104.042 81.984 99.9392 81.6396 96.5109 81.2658C92.1991 80.7919 91.8208 80.3512 95.6565 80.0631C99.0305 79.8101 103.006 79.5936 107.405 79.465C117.514 79.1746 128.048 78.9485 138.44 78.698C139.078 78.6824 139.929 78.6901 140.461 78.6599C142.52 78.555 144.472 78.4385 146.46 78.3288Z" fill="#32D499" fill-opacity="0.8"/>
    <path d="M134.047 51.7044C134.047 53.8189 133.45 55.6143 132.256 57.0905C131.459 58.048 130.026 59.1651 127.955 60.4418C125.566 61.9578 123.933 63.1148 123.057 63.9127C122.978 63.9925 121.883 64.4514 119.772 65.2892L119.354 64.8703C119.275 64.9501 119.275 65.0897 119.354 65.2892C119.434 65.5286 119.474 65.6482 119.474 65.6482C118.478 66.2866 116.905 67.1244 114.755 68.1617C114.158 68.2814 113.381 68.4809 112.426 68.7602C111.51 69.0394 110.435 69.5581 109.2 70.3161C109.041 70.356 108.504 70.5356 107.588 70.8547C106.871 71.0941 106.393 71.2138 106.154 71.2138C105.318 71.2138 104.781 71.2936 104.542 71.4532C104.462 71.2138 104.323 70.8547 104.124 70.376C104.004 70.5755 103.805 70.8547 103.526 71.2138C102.809 71.0941 102.212 70.6752 101.734 69.9571C101.257 69.2389 100.759 68.8799 100.241 68.8799C100.321 68.6804 100.381 68.5008 100.42 68.3413C100.5 68.1418 100.44 68.042 100.241 68.042C100.042 68.042 99.8828 68.0819 99.7633 68.1617C99.6837 68.2415 99.5642 68.2814 99.405 68.2814C99.0864 68.2814 98.7679 68.1617 98.4493 67.9223C98.4493 67.8027 98.29 67.5034 97.9715 67.0247C97.6529 66.5459 97.4937 66.2068 97.4937 66.0073C97.4937 65.8477 97.5733 65.5884 97.7326 65.2293C97.8919 64.8304 97.9914 64.5311 98.0312 64.3317C98.2303 63.2146 98.3299 61.7384 98.3299 59.9032C98.3299 59.7835 98.2303 58.9656 98.0312 57.4495C97.8719 55.9335 97.7724 54.9161 97.7326 54.3974C97.7326 54.198 97.8321 53.2604 98.0312 51.5847C97.9118 51.2656 97.8122 50.727 97.7326 49.9689C97.1751 49.4104 96.319 48.6324 95.1643 47.635C95.1244 47.3956 95.2638 46.9767 95.5824 46.3782C94.786 46.0192 94.4276 45.5404 94.5072 44.942C94.5869 43.9845 94.5869 43.4259 94.5072 43.2663C95.0249 43.0269 95.662 42.608 96.4186 42.0096C96.976 41.3313 97.2547 40.6332 97.2547 39.915V34.7085C97.2547 34.5888 97.1751 34.1899 97.0158 33.5116C96.8964 32.7935 96.8366 32.2748 96.8366 31.9557C96.757 31.9158 96.5778 31.7961 96.2991 31.5966C95.7018 32.0355 94.8656 32.8134 93.7905 33.9305C93.5516 33.771 93.1932 33.6912 92.7154 33.6912H91.9987C91.8394 32.973 91.2023 32.0554 90.0874 30.9383C88.5344 29.3823 87.6186 28.4248 87.3398 28.0658C87.5389 27.8663 87.8376 27.7665 88.2358 27.7665C88.4747 27.5272 88.4946 27.3476 88.2955 27.2279C88.2557 27.0285 88.395 26.9287 88.7136 26.9287C88.9127 26.9287 89.0521 26.8489 89.1317 26.6893C89.2113 26.4899 89.2711 26.3901 89.3109 26.3901C89.8683 26.1507 90.8439 25.7917 92.2376 25.3129C93.5118 24.9139 95.3833 24.5748 97.852 24.2955C99.7633 24.0562 101.018 23.9365 101.615 23.9365C101.734 23.9365 102.451 24.0163 103.765 24.1759C105.119 24.3354 106.035 24.4352 106.513 24.4751C106.752 24.5948 106.971 24.9139 107.17 25.4326C107.488 25.4326 107.647 25.1533 107.647 24.5948C109.32 25.0336 110.992 25.4725 112.665 25.9114C114.616 26.4699 116.348 27.3875 117.861 28.6642C117.821 28.6642 117.762 28.744 117.682 28.9036C117.762 28.9435 118 29.2028 118.399 29.6816C118.677 29.9608 118.896 30.1005 119.056 30.1005C119.255 30.1005 119.394 30.0805 119.474 30.0406C119.553 29.9608 119.613 29.9209 119.653 29.9209C119.693 30.0406 119.733 30.5194 119.772 31.3572C119.812 31.9158 119.932 32.195 120.131 32.195C120.33 32.195 120.429 32.0953 120.429 31.8958C120.429 31.9357 120.469 32.0953 120.549 32.3746C120.668 32.614 120.728 32.8134 120.728 32.973C120.728 33.8109 120.29 35.0077 119.414 36.5637C118.498 38.2394 117.642 39.0772 116.846 39.0772C116.726 39.0772 116.587 39.0572 116.428 39.0173C116.189 39.6557 115.651 40.3738 114.815 41.1718C114.019 41.9697 113.421 42.3687 113.023 42.3687L112.605 42.1891C112.486 42.1891 112.167 42.4484 111.649 42.9671C111.649 43.2065 111.828 43.5057 112.187 43.8648C112.585 43.5855 113.919 43.4459 116.189 43.4459C116.029 43.4459 116.666 43.5456 118.1 43.7451C118.1 43.8648 118.16 44.0443 118.279 44.2837C118.399 44.164 118.458 44.0443 118.458 43.9246C122.082 44.164 125.208 44.7026 127.836 45.5404C131.977 46.9767 134.047 49.0314 134.047 51.7044ZM118.697 30.2202L118.399 30.1005L118.16 30.6391L118.458 30.7588L118.697 30.2202ZM115.173 31.9557C115.333 31.3971 115.273 30.8585 114.994 30.3399C114.954 30.3399 114.914 30.3798 114.875 30.4596C114.835 30.4994 114.715 30.5194 114.516 30.5194C114.198 30.5194 114.058 30.3997 114.098 30.1603C112.028 30.1603 110.714 29.8212 110.156 29.143C110.315 29.0233 110.335 28.9235 110.216 28.8437C110.136 29.0831 109.997 29.3624 109.798 29.6816C108.962 29.522 107.608 29.4422 105.736 29.4422C105.059 29.522 104.183 29.6417 103.108 29.8013C102.073 29.9209 101.217 30.0207 100.54 30.1005C100.341 30.1005 100.102 30.0406 99.8231 29.9209C99.5842 29.7614 99.4647 29.6816 99.4647 29.6816C99.0267 30.3199 98.8077 30.9583 98.8077 31.5966C99.0864 31.3173 99.4846 31.1777 100.002 31.1777C100.201 31.1777 100.5 31.3173 100.898 31.5966C101.336 31.8759 101.635 32.0155 101.794 32.0155C101.914 32.0155 102.133 31.9756 102.451 31.8958C102.65 31.8559 102.829 31.8759 102.989 31.9557C102.71 32.3546 102.451 33.0528 102.212 34.0502C102.531 34.6088 102.61 35.1474 102.451 35.666C102.252 36.5438 102.152 36.9228 102.152 36.8031L102.332 37.0425C102.332 37.2021 102.352 37.5212 102.391 38C102.471 38.4787 102.511 38.8378 102.511 39.0772C102.391 39.1969 102.292 39.3365 102.212 39.4961C102.411 40.294 102.471 40.8925 102.391 41.2914C102.431 41.2914 102.551 41.3313 102.75 41.4111C102.989 41.4909 103.208 41.5308 103.407 41.5308C104.323 41.5308 104.741 41.1119 104.661 40.2741C104.9 40.314 105.199 40.294 105.557 40.2142C105.915 40.0946 106.154 40.0347 106.274 40.0347C106.433 40.0347 106.592 39.935 106.752 39.7355C106.951 39.536 107.07 39.4562 107.11 39.4961C107.667 38.7381 108.782 37.8603 110.455 36.8629C110.614 37.0225 110.694 37.1622 110.694 37.2818C110.773 37.0026 110.972 36.5837 111.291 36.0251C111.371 36.2246 111.53 36.5039 111.769 36.8629L112.306 36.3842C112.306 36.2645 112.227 36.1448 112.067 36.0251C111.908 35.8655 111.828 35.7059 111.828 35.5464C112.147 35.4666 112.585 35.3269 113.143 35.1274C113.143 34.8083 113.322 34.4691 113.68 34.1101C113.879 33.8707 114.078 33.6513 114.277 33.4518C114.556 33.0528 114.636 32.6539 114.516 32.2549C114.715 32.215 114.934 32.1153 115.173 31.9557ZM109.738 38.7181C109.499 38.2394 109.499 37.8404 109.738 37.5212C109.698 37.5611 109.419 38.0399 108.902 38.9575C109.3 38.9575 109.579 38.8777 109.738 38.7181ZM131.957 50.1485C131.957 49.55 131.001 48.8119 129.09 47.9342C127.378 47.1363 126.263 46.7573 125.745 46.7972C125.427 46.5578 125.267 46.3184 125.267 46.079C125.267 46.3184 125.128 46.4381 124.849 46.4381C124.531 46.4381 124.431 46.3982 124.551 46.3184C124.67 46.3184 124.73 46.1389 124.73 45.7798C124.332 46.2187 123.993 46.4381 123.714 46.4381C123.555 46.4381 123.336 46.3782 123.057 46.2586C122.819 46.099 122.619 46.0192 122.46 46.0192C122.261 46.0192 122.201 46.099 122.281 46.2586C122.361 46.3782 122.301 46.4381 122.102 46.4381C121.903 46.4381 119.772 46.2386 115.711 45.8396C115.711 45.9593 115.671 46.079 115.591 46.1987C115.313 45.6801 115.074 45.4207 114.875 45.4207C114.875 45.8995 114.735 46.2386 114.457 46.4381C114.257 46.4381 114.019 46.3782 113.74 46.2586C113.461 46.099 113.222 46.0192 113.023 46.0192C112.864 46.0192 112.446 46.1987 111.769 46.5578C111.132 46.877 110.733 47.0365 110.574 47.0365C110.415 47.0365 110.335 47.0166 110.335 46.9767C110.335 46.8969 110.236 46.857 110.037 46.857C109.917 46.857 109.658 47.0565 109.26 47.4555C109.021 47.256 108.723 46.9767 108.364 46.6176C108.086 47.256 107.647 47.6749 107.05 47.8744C105.856 48.1137 104.163 48.6324 101.973 49.4303C101.973 50.6671 101.894 52.7218 101.734 55.5943C101.615 58.3073 101.555 60.3819 101.555 61.8182C101.555 63.2146 101.396 64.2718 101.077 64.99C101.276 65.0697 101.595 65.2892 102.033 65.6482C102.471 65.9674 102.79 66.127 102.989 66.127C103.148 66.127 103.407 66.0273 103.765 65.8278C104.163 65.5884 104.422 65.4687 104.542 65.4687C104.701 65.4687 104.94 65.5086 105.258 65.5884C105.617 65.6682 105.876 65.7081 106.035 65.7081C106.712 65.7081 107.867 65.3889 109.499 64.7506C111.171 64.1122 111.968 63.7931 111.888 63.7931C112.047 63.7931 112.147 63.833 112.187 63.9127C112.227 63.9925 112.326 64.0324 112.486 64.0324C112.685 64.0324 112.924 63.8529 113.202 63.4938C113.481 63.1348 113.66 62.9552 113.74 62.9552C113.939 62.9552 114.019 62.9951 113.979 63.0749C113.939 63.1547 114.019 63.1946 114.218 63.1946C114.337 63.1946 115.671 62.5563 118.219 61.2796C120.768 59.963 122.619 58.9656 123.774 58.2873L123.894 58.048C124.093 58.048 124.192 58.0879 124.192 58.1677C124.192 58.2475 124.272 58.2873 124.431 58.2873C124.551 58.2873 125.267 57.7088 126.581 56.5518C127.935 55.355 128.851 54.5171 129.329 54.0384C129.608 54.3176 129.906 54.4573 130.225 54.4573C130.344 54.0184 130.683 53.1806 131.24 51.9438C131.718 50.9065 131.957 50.3081 131.957 50.1485ZM99.3452 60.5614C99.3452 59.7635 99.3452 59.3646 99.3452 59.3646C99.186 59.3646 98.9869 59.4643 98.748 59.6638C99.0665 60.2622 99.2656 60.5614 99.3452 60.5614ZM148.553 53.2604C148.553 53.5796 148.414 53.9187 148.135 54.2777C145.866 55.2353 144.353 55.8537 143.596 56.1329C141.685 56.891 140.072 57.4096 138.758 57.6889C138.559 57.8086 138.459 58.0081 138.459 58.2873C138.42 58.4469 138.42 58.7063 138.459 59.0653C138.499 59.4643 138.519 59.7436 138.519 59.9032C138.519 61.5788 138.997 63.0949 139.953 64.4514C141.067 66.0073 142.521 66.7853 144.313 66.7853C144.472 66.7853 145.308 66.2068 146.821 65.0498C147.14 65.369 147.279 65.748 147.239 66.1868C147.001 66.6257 146.742 67.0646 146.463 67.5034C146.224 67.9423 145.886 68.1617 145.448 68.1617C145.288 68.1617 145.209 68.1418 145.209 68.1019C145.209 68.0221 145.149 67.9822 145.029 67.9822C144.83 67.9822 144.711 68.042 144.671 68.1617C144.671 68.3213 144.631 68.4011 144.552 68.4011C144.512 68.441 144.313 68.5008 143.954 68.5806C143.636 68.6604 143.397 68.7003 143.238 68.7003C142.919 68.7003 142.68 68.5208 142.521 68.1617C142.441 68.3213 142.282 68.5407 142.043 68.82C141.963 68.82 141.784 68.8001 141.506 68.7602C141.267 68.7203 141.067 68.7003 140.908 68.7003C140.51 68.7003 140.191 68.4609 139.953 67.9822C139.913 68.062 139.893 68.2216 139.893 68.4609C139.495 68.3812 138.937 68.2016 138.221 67.9223C137.822 67.7229 136.867 66.8252 135.354 65.2293C135.274 64.7905 135.075 64.2319 134.756 63.5537C134.478 63.2744 134.159 62.8555 133.801 62.2969C133.323 60.9006 133.084 59.185 133.084 57.1503C133.084 52.4824 134.478 47.3158 137.265 41.6505C138.141 41.0521 139.296 40.5534 140.729 40.1544C142.163 39.7155 143.397 39.4961 144.432 39.4961C144.552 39.4961 144.89 39.5759 145.448 39.7355C146.045 39.8552 146.463 39.935 146.702 39.9749C146.941 40.2541 147.259 40.8127 147.658 41.6505C147.817 42.1692 147.936 44.5031 148.016 48.6523C148.016 49.171 148.096 50.0487 148.255 51.2855C148.454 52.5223 148.553 53.1806 148.553 53.2604ZM144.313 47.4555C144.313 46.4979 144.034 44.8821 143.477 42.608C142.999 42.5282 142.62 42.6479 142.342 42.9671C141.904 43.5256 141.446 44.2039 140.968 45.0018C140.769 45.3609 140.291 46.857 139.534 49.4902C138.818 52.1233 138.459 53.5796 138.459 53.8588C138.459 54.3376 138.499 54.6169 138.579 54.6967H139.116C139.355 54.6967 140.172 54.4972 141.565 54.0982C141.924 54.0184 142.282 53.9586 142.64 53.9187C143.039 53.8389 143.297 53.6793 143.417 53.4399C143.417 52.8016 143.457 51.9039 143.536 50.7469C143.536 50.707 143.656 50.6272 143.895 50.5075C143.855 50.1884 143.835 49.6897 143.835 49.0114C143.875 48.8518 143.954 48.5925 144.074 48.2334C144.233 47.8345 144.313 47.5751 144.313 47.4555ZM166.731 39.915C166.453 40.3539 166.015 40.673 165.417 40.8725C165.218 41.1119 164.92 41.4311 164.521 41.83C163.964 42.1093 162.929 42.4085 161.416 42.7277C160.261 42.9671 159.086 43.1865 157.892 43.386C157.613 45.7 157.553 47.635 157.712 49.191C157.832 50.3081 157.892 50.8866 157.892 50.9264C157.892 50.727 157.832 50.4277 157.712 50.0288H157.593C157.553 50.2682 157.573 50.6073 157.653 51.0461C157.772 51.485 157.832 51.7244 157.832 51.7643C157.872 52.1233 157.792 52.7816 157.593 53.7391C157.434 54.8163 157.354 55.4746 157.354 55.714C157.314 56.512 157.354 57.3897 157.473 58.3472C157.593 59.2648 157.653 59.8633 157.653 60.1425C157.653 60.5814 157.593 61.0203 157.473 61.4591C157.593 61.6187 157.692 62.3767 157.772 63.7332C157.772 63.6534 157.752 64.97 157.712 67.683C157.712 68.4011 157.712 69.199 157.712 70.0768C157.752 70.9545 157.852 72.1314 158.011 73.6076C158.21 75.363 158.449 76.4602 158.728 76.8991C158.768 76.9788 158.668 77.1584 158.429 77.4377C158.469 77.8366 158.489 78.3553 158.489 78.9936C158.011 79.0734 157.473 78.7143 156.876 77.9164C156.319 77.1584 155.98 76.4801 155.861 75.8817C155.901 75.6423 155.881 75.2832 155.801 74.8045C155.562 74.4853 155.303 73.9467 155.025 73.1887C154.268 69.9172 153.75 66.7653 153.472 63.7332C153.432 61.9778 153.332 59.4643 153.173 56.1928C153.093 55.4347 153.133 52.6021 153.292 47.6948C153.213 47.3757 153.113 46.9169 152.994 46.3184C153.193 45.6402 153.233 44.6826 153.113 43.4459C153.073 43.3661 151.959 42.5881 149.768 41.1119C149.768 40.9922 149.609 40.6132 149.291 39.9749C150.127 39.8552 151.301 39.7953 152.815 39.7953C152.854 39.7953 152.914 39.7155 152.994 39.5559C152.994 39.3964 152.934 38.8777 152.815 38C152.735 37.1223 152.715 36.5438 152.755 36.2645C152.874 35.8655 152.994 35.3469 153.113 34.7085C153.193 31.0779 153.213 28.9036 153.173 28.1855C153.531 28.1855 154.129 28.1256 154.965 28.0059C155.841 27.8463 156.299 27.7665 156.339 27.7665C157.016 27.7665 157.593 27.9261 158.071 28.2453C158.549 28.5246 158.787 28.8836 158.787 29.3225C158.668 29.6816 158.549 30.1603 158.429 30.7588C158.349 31.3173 158.27 32.195 158.19 33.3919C158.15 33.8308 158.111 34.4093 158.071 35.1274C158.031 37.3616 158.15 38.7979 158.429 39.4363L162.968 39.5559C162.65 39.5559 163.904 39.6756 166.731 39.915ZM155.92 73.6674H155.682L155.622 74.5053H155.92V73.6674ZM156.518 75.5825L156.339 75.4029L155.92 75.762L156.1 75.9415L156.518 75.5825ZM180.205 39.915C179.927 40.3539 179.489 40.673 178.891 40.8725C178.692 41.1119 178.394 41.4311 177.995 41.83C177.438 42.1093 176.403 42.4085 174.89 42.7277C173.735 42.9671 172.56 43.1865 171.366 43.386C171.087 45.7 171.027 47.635 171.186 49.191C171.306 50.3081 171.366 50.8866 171.366 50.9264C171.366 50.727 171.306 50.4277 171.186 50.0288H171.067C171.027 50.2682 171.047 50.6073 171.127 51.0461C171.246 51.485 171.306 51.7244 171.306 51.7643C171.346 52.1233 171.266 52.7816 171.067 53.7391C170.908 54.8163 170.828 55.4746 170.828 55.714C170.788 56.512 170.828 57.3897 170.947 58.3472C171.067 59.2648 171.127 59.8633 171.127 60.1425C171.127 60.5814 171.067 61.0203 170.947 61.4591C171.067 61.6187 171.166 62.3767 171.246 63.7332C171.246 63.6534 171.226 64.97 171.186 67.683C171.186 68.4011 171.186 69.199 171.186 70.0768C171.226 70.9545 171.326 72.1314 171.485 73.6076C171.684 75.363 171.923 76.4602 172.202 76.8991C172.242 76.9788 172.142 77.1584 171.903 77.4377C171.943 77.8366 171.963 78.3553 171.963 78.9936C171.485 79.0734 170.947 78.7143 170.35 77.9164C169.793 77.1584 169.454 76.4801 169.335 75.8817C169.375 75.6423 169.355 75.2832 169.275 74.8045C169.036 74.4853 168.777 73.9467 168.499 73.1887C167.742 69.9172 167.224 66.7653 166.946 63.7332C166.906 61.9778 166.806 59.4643 166.647 56.1928C166.567 55.4347 166.607 52.6021 166.766 47.6948C166.687 47.3757 166.587 46.9169 166.468 46.3184C166.667 45.6402 166.707 44.6826 166.587 43.4459C166.547 43.3661 165.433 42.5881 163.242 41.1119C163.242 40.9922 163.083 40.6132 162.765 39.9749C163.601 39.8552 164.775 39.7953 166.289 39.7953C166.328 39.7953 166.388 39.7155 166.468 39.5559C166.468 39.3964 166.408 38.8777 166.289 38C166.209 37.1223 166.189 36.5438 166.229 36.2645C166.348 35.8655 166.468 35.3469 166.587 34.7085C166.667 31.0779 166.687 28.9036 166.647 28.1855C167.005 28.1855 167.603 28.1256 168.439 28.0059C169.315 27.8463 169.773 27.7665 169.813 27.7665C170.49 27.7665 171.067 27.9261 171.545 28.2453C172.023 28.5246 172.261 28.8836 172.261 29.3225C172.142 29.6816 172.023 30.1603 171.903 30.7588C171.823 31.3173 171.744 32.195 171.664 33.3919C171.624 33.8308 171.585 34.4093 171.545 35.1274C171.505 37.3616 171.624 38.7979 171.903 39.4363L176.442 39.5559C176.124 39.5559 177.378 39.6756 180.205 39.915ZM169.394 73.6674H169.156L169.096 74.5053H169.394V73.6674ZM169.992 75.5825L169.813 75.4029L169.394 75.762L169.574 75.9415L169.992 75.5825ZM192.009 53.2604C192.009 53.5796 191.869 53.9187 191.59 54.2777C189.321 55.2353 187.808 55.8537 187.051 56.1329C185.14 56.891 183.527 57.4096 182.213 57.6889C182.014 57.8086 181.914 58.0081 181.914 58.2873C181.875 58.4469 181.875 58.7063 181.914 59.0653C181.954 59.4643 181.974 59.7436 181.974 59.9032C181.974 61.5788 182.452 63.0949 183.408 64.4514C184.523 66.0073 185.976 66.7853 187.768 66.7853C187.927 66.7853 188.763 66.2068 190.276 65.0498C190.595 65.369 190.734 65.748 190.694 66.1868C190.456 66.6257 190.197 67.0646 189.918 67.5034C189.679 67.9423 189.341 68.1617 188.903 68.1617C188.743 68.1617 188.664 68.1418 188.664 68.1019C188.664 68.0221 188.604 67.9822 188.485 67.9822C188.285 67.9822 188.166 68.042 188.126 68.1617C188.126 68.3213 188.086 68.4011 188.007 68.4011C187.967 68.441 187.768 68.5008 187.409 68.5806C187.091 68.6604 186.852 68.7003 186.693 68.7003C186.374 68.7003 186.135 68.5208 185.976 68.1617C185.896 68.3213 185.737 68.5407 185.498 68.82C185.418 68.82 185.239 68.8001 184.961 68.7602C184.722 68.7203 184.523 68.7003 184.363 68.7003C183.965 68.7003 183.647 68.4609 183.408 67.9822C183.368 68.062 183.348 68.2216 183.348 68.4609C182.95 68.3812 182.392 68.2016 181.675 67.9223C181.277 67.7229 180.322 66.8252 178.809 65.2293C178.729 64.7905 178.53 64.2319 178.211 63.5537C177.933 63.2744 177.614 62.8555 177.256 62.2969C176.778 60.9006 176.539 59.185 176.539 57.1503C176.539 52.4824 177.933 47.3158 180.72 41.6505C181.596 41.0521 182.751 40.5534 184.184 40.1544C185.618 39.7155 186.852 39.4961 187.887 39.4961C188.007 39.4961 188.345 39.5759 188.903 39.7355C189.5 39.8552 189.918 39.935 190.157 39.9749C190.396 40.2541 190.714 40.8127 191.113 41.6505C191.272 42.1692 191.391 44.5031 191.471 48.6523C191.471 49.171 191.551 50.0487 191.71 51.2855C191.909 52.5223 192.009 53.1806 192.009 53.2604ZM187.768 47.4555C187.768 46.4979 187.489 44.8821 186.932 42.608C186.454 42.5282 186.075 42.6479 185.797 42.9671C185.359 43.5256 184.901 44.2039 184.423 45.0018C184.224 45.3609 183.746 46.857 182.99 49.4902C182.273 52.1233 181.914 53.5796 181.914 53.8588C181.914 54.3376 181.954 54.6169 182.034 54.6967H182.571C182.81 54.6967 183.627 54.4972 185.02 54.0982C185.379 54.0184 185.737 53.9586 186.095 53.9187C186.494 53.8389 186.752 53.6793 186.872 53.4399C186.872 52.8016 186.912 51.9039 186.991 50.7469C186.991 50.707 187.111 50.6272 187.35 50.5075C187.31 50.1884 187.29 49.6897 187.29 49.0114C187.33 48.8518 187.409 48.5925 187.529 48.2334C187.688 47.8345 187.768 47.5751 187.768 47.4555ZM210.882 39.137C210.683 40.3738 210.384 42.2689 209.986 44.8223C209.986 44.942 209.907 46.3782 209.747 49.1311C209.668 50.8467 209.349 52.1233 208.792 52.9612C208.712 53.2404 208.792 53.3801 209.031 53.3801C208.632 54.0184 208.194 54.4573 207.717 54.6967C207.279 53.2205 206.96 51.3853 206.761 49.191C206.602 47.3158 206.442 45.4606 206.283 43.6254C206.243 43.5855 206.124 43.5057 205.925 43.386C205.686 43.785 205.387 44.5231 205.029 45.6003C204.432 45.8396 204.193 46.3782 204.312 47.2161C204.193 47.0964 204.073 47.0365 203.954 47.0365C203.755 47.4754 203.715 47.8345 203.834 48.1137C203.715 47.9941 203.555 47.9342 203.356 47.9342C203.317 48.0938 203.376 48.413 203.536 48.8917H203.655C203.217 49.57 202.839 50.3081 202.52 51.106C202.48 51.2257 202.421 51.7044 202.341 52.5423C202.301 53.1008 202.102 53.4599 201.744 53.6195C201.704 53.7391 201.803 53.799 202.042 53.799V54.3376C202.042 54.2977 201.943 54.3974 201.744 54.6368C201.744 54.9959 201.644 55.6143 201.445 56.492C201.286 57.3298 201.206 57.9283 201.206 58.2873C201.206 58.7661 201.206 59.0254 201.206 59.0653C201.166 59.2249 201.127 60.6213 201.087 63.2545C201.087 64.97 200.908 66.127 200.549 66.7254C200.509 67.0845 200.47 67.4236 200.43 67.7428C200.35 68.3014 200.091 68.5806 199.653 68.5806C199.852 68.5806 199.195 68.4211 197.682 68.1019C197.603 67.9024 197.463 67.6032 197.264 67.2042C196.746 67.0047 196.468 66.6856 196.428 66.2467C196.428 65.8078 196.428 65.5286 196.428 65.4089C196.308 65.0099 196.109 64.7306 195.831 64.571C195.95 64.0923 196.01 63.5337 196.01 62.8954C196.01 62.7757 195.95 62.5962 195.831 62.3568C195.711 62.1174 195.651 61.9778 195.651 61.9379V57.6889C195.651 57.1702 195.393 56.8311 194.875 56.6715C194.875 56.6316 194.975 56.3923 195.174 55.9534C195.174 55.7938 195.154 55.6741 195.114 55.5943C194.915 55.7938 194.775 55.8936 194.696 55.8936V48.6523L195.174 42.9671C195.094 42.9272 195.751 42.9073 197.145 42.9073C197.702 42.9073 198.24 43.1865 198.757 43.7451C199.315 44.2637 199.593 44.7624 199.593 45.2412C199.593 45.321 199.494 45.6601 199.295 46.2586C199.096 46.857 198.996 47.2161 198.996 47.3358C198.996 47.615 199.016 47.7746 199.056 47.8145C200.37 47.0964 201.027 46.0391 201.027 44.6427C201.266 44.3236 201.505 44.144 201.744 44.1041C202.301 43.3461 202.779 42.5681 203.177 41.7702C203.297 41.7702 203.456 41.7104 203.655 41.5907C203.735 40.6332 204.412 39.8153 205.686 39.137C206.761 38.6184 207.796 38.3591 208.792 38.3591C209.07 38.3591 209.767 38.6184 210.882 39.137ZM195.233 58.048H194.935V57.3298H195.233V58.048ZM205.746 42.7277L205.566 42.5482L205.208 42.9671L205.327 43.0868L205.746 42.7277ZM204.372 43.8049V43.2663H204.133V43.8049H204.372ZM203.595 45.1814L203.416 44.7624L203.177 44.8223L203.356 45.1814H203.595ZM207.896 52.6021L207.657 52.5423L207.478 52.9013L207.657 53.021L207.896 52.6021ZM207.896 54.0384V53.4998H207.597V54.0384H207.896ZM201.146 46.6775L200.967 46.5578L200.609 47.2759L200.788 47.3956L201.146 46.6775ZM250.287 42.4883H249.809V42.1891H250.287V42.4883ZM265.876 32.973C265.677 33.0129 265.518 32.973 265.399 32.8533L265.16 33.1526C265.16 33.1526 265.339 33.3321 265.697 33.6912C264.941 33.4917 263.706 33.2523 261.994 32.973L256.2 32.4344C256.081 32.4344 255.942 32.3546 255.782 32.195C255.623 32.0355 255.464 31.9557 255.304 31.9557C254.667 31.9557 254.13 32.1352 253.692 32.4943C253.373 32.2948 253.134 32.0754 252.975 31.836C252.856 31.5567 252.716 31.3572 252.557 31.2375C252.238 31.3572 252.079 31.6564 252.079 32.1352L251.661 31.7761C251.621 31.7761 251.522 31.836 251.362 31.9557C251.203 32.0355 251.044 32.0754 250.885 32.0754C250.885 31.7163 250.845 31.4969 250.765 31.4171C250.646 31.457 250.486 31.5966 250.287 31.836C250.088 32.0754 249.929 32.2349 249.809 32.3147C249.889 31.9557 249.79 31.6564 249.511 31.4171C249.272 31.6564 249.073 31.7761 248.913 31.7761C248.794 31.7761 248.754 31.836 248.794 31.9557C248.834 32.0754 248.774 32.1352 248.615 32.1352C248.456 32.1352 248.217 32.1153 247.898 32.0754C247.619 31.9956 247.4 31.9557 247.241 31.9557C247.122 31.9557 246.863 32.0754 246.465 32.3147C246.106 32.5142 245.867 32.614 245.748 32.614C244.673 32.7337 243.618 32.8533 242.582 32.973C241.109 33.1725 239.934 33.5116 239.058 33.9904C238.899 34.2697 238.72 34.7085 238.521 35.307C238.202 35.4267 237.983 35.5663 237.864 35.7259C237.904 35.7658 238.142 35.7857 238.58 35.7857C237.983 36.6635 237.685 37.3816 237.685 37.9401C237.685 37.9002 237.764 38 237.923 38.2394C238.043 38.3989 238.023 38.778 237.864 39.3764C239.337 39.6557 241.547 40.0946 244.494 40.693C244.772 40.7728 245.37 40.9723 246.285 41.2914C247.082 41.5707 247.54 41.7104 247.659 41.7104C247.818 41.7104 248.117 41.7702 248.555 41.8899C249.033 42.0096 249.371 42.0694 249.57 42.0694C249.73 42.5482 249.989 42.8873 250.347 43.0868C250.267 43.0868 250.088 43.1865 249.809 43.386C249.57 43.5855 249.351 43.6852 249.152 43.6852C248.993 43.6852 248.854 43.6054 248.734 43.4459C248.655 43.2464 248.615 43.1466 248.615 43.1466C248.456 43.4259 248.276 43.7052 248.077 43.9845C247.878 44.2637 247.58 44.4034 247.181 44.4034C247.022 44.4034 246.624 44.4632 245.987 44.5829C245.35 44.7026 244.971 44.7624 244.852 44.7624C244.693 44.7624 244.653 44.7026 244.732 44.5829C244.812 44.4632 244.792 44.4034 244.673 44.4034C244.553 44.4034 244.215 44.6228 243.657 45.0617C243.1 45.5005 242.742 45.72 242.582 45.72H241.925C241.766 45.72 241.627 45.6003 241.507 45.3609C241.428 45.1215 241.388 44.9819 241.388 44.942C241.268 45.1016 241.089 45.3409 240.85 45.6601C239.695 46.2985 238.68 46.6176 237.804 46.6176C237.446 46.6176 236.848 46.7573 236.012 47.0365C235.893 47.1163 235.833 47.2759 235.833 47.5153C235.833 47.4355 235.753 47.3158 235.594 47.1562C235.435 47.3158 235.455 47.615 235.654 48.0539C235.534 47.7746 235.236 47.5352 234.758 47.3358C234.837 48.2135 234.738 49.57 234.459 51.4052C234.499 51.4451 234.539 51.5249 234.579 51.6446C234.618 51.7244 234.678 51.7842 234.758 51.8241C235.037 51.7044 235.236 51.2057 235.355 50.328C235.514 49.4104 235.674 48.8319 235.833 48.5925V51.2257C235.514 51.4252 235.116 51.8042 234.638 52.3627C234.599 52.5223 234.618 53.2404 234.698 54.5171C234.539 54.4373 234.459 54.5371 234.459 54.8164C234.459 55.0557 234.658 55.2951 235.056 55.5345C234.977 56.492 235.037 57.8684 235.236 59.6638C235.833 61.499 236.132 62.8355 236.132 63.6734C236.132 64.1122 236.052 64.4115 235.893 64.571C236.052 64.7306 236.311 65.0099 236.669 65.4089C236.789 65.4887 236.809 65.6283 236.729 65.8278C236.888 65.9475 237.107 66.1869 237.386 66.5459C237.386 66.5858 237.446 67.0047 237.565 67.8027C238.361 68.84 238.76 69.5781 238.76 70.0169C238.76 70.2563 238.66 70.4757 238.461 70.6752C238.461 70.5156 238.361 70.3361 238.162 70.1366C238.043 70.2164 237.983 70.3959 237.983 70.6752C237.744 70.4358 237.605 70.1964 237.565 69.9571C237.565 69.7177 237.446 69.4185 237.207 69.0594C236.968 69.2988 236.888 69.4584 236.968 69.5382C236.848 69.5382 236.669 69.4384 236.43 69.2389C236.191 69.0793 236.012 68.9995 235.893 68.9995C235.893 68.441 235.893 68.1617 235.893 68.1617C235.893 68.1617 235.674 68.5806 235.236 69.4185C235.156 69.1392 235.056 68.4809 234.937 67.4436C234.857 66.6856 234.718 66.3065 234.519 66.3065C234.36 66.3065 234.26 66.3265 234.22 66.3664C234.18 66.4462 234.141 66.4861 234.101 66.4861C234.3 66.0871 234.32 65.728 234.161 65.4089C233.961 65.6482 233.862 65.8876 233.862 66.127C233.742 65.9674 233.543 65.3091 233.265 64.1521L232.906 64.5112C232.747 63.9925 232.508 63.2545 232.19 62.2969C232.19 60.0627 231.871 57.4495 231.234 54.4573C231.274 53.8987 231.274 53.0609 231.234 51.9438C231.035 50.5873 230.756 48.5526 230.398 45.8396C229.88 45.4008 228.904 44.563 227.471 43.3262C227.391 43.3262 227.352 43.4459 227.352 43.6852C227.033 43.2065 226.854 42.8275 226.814 42.5482C226.535 42.4285 226.097 42.1293 225.5 41.6505C225.46 41.4909 225.46 41.2914 225.5 41.0521C225.58 40.7728 225.619 40.5933 225.619 40.5135C225.619 40.1544 225.44 39.7754 225.082 39.3764C225.241 39.4562 225.739 39.4961 226.575 39.4961C227.451 39.4961 227.889 39.6956 227.889 40.0945C227.929 40.0547 227.949 39.8751 227.949 39.5559C228.028 39.5559 228.228 39.7355 228.546 40.0945C228.904 39.7355 229.402 39.1969 230.039 38.4787C230.079 38.5186 230.139 38.4987 230.218 38.4189C230.338 38.3391 230.378 38.2593 230.338 38.1795C230.298 38.0598 230.159 38.0199 229.92 38.0598C230.278 37.7008 230.457 37.4015 230.457 37.1622C230.457 36.843 230.238 36.5238 229.8 36.2046C229.8 36.1647 229.84 36.0451 229.92 35.8456C230.039 35.6461 230.099 35.4466 230.099 35.2471V34.5888C229.701 34.3495 229.342 34.2298 229.024 34.2298C229.064 34.1101 229.044 33.8109 228.964 33.3321C228.247 32.9331 227.809 32.4943 227.65 32.0155C227.252 32.1352 226.814 31.9557 226.336 31.4769C226.694 31.1976 226.874 30.9782 226.874 30.8186C226.316 30.4596 225.48 29.9209 224.365 29.2028C224.405 28.2054 224.345 27.587 224.186 27.3476V26.6893C224.345 26.6893 224.664 26.7492 225.142 26.8689C225.619 26.9886 225.958 27.0484 226.157 27.0484C226.276 27.0484 226.655 26.8888 227.292 26.5696C227.969 26.2505 228.466 26.051 228.785 25.9712C228.904 26.051 229.143 26.4699 229.502 27.2279C229.581 27.188 229.741 27.0683 229.98 26.8689C230.258 26.6295 230.477 26.5098 230.637 26.5098C230.796 26.5098 230.856 26.5497 230.816 26.6295C230.816 26.6694 230.875 26.6893 230.995 26.6893C231.154 26.6893 231.274 26.6095 231.353 26.45C231.473 26.2505 231.592 26.1507 231.712 26.1507C231.871 26.1507 231.971 26.2106 232.01 26.3303C232.05 26.45 232.15 26.5098 232.309 26.5098C232.428 26.5098 233.066 26.3901 234.22 26.1507C235.375 25.9114 236.032 25.7917 236.191 25.7917C236.51 25.7917 236.749 25.9712 236.908 26.3303C237.067 26.2904 237.306 26.1707 237.625 25.9712C237.943 25.7318 238.182 25.6121 238.342 25.6121C238.501 25.6121 238.62 25.672 238.7 25.7917C238.78 25.9114 238.899 25.9712 239.058 25.9712C239.218 25.9712 239.934 25.8914 241.209 25.7318C242.523 25.5323 243.239 25.4326 243.359 25.4326C243.996 25.4326 244.334 25.4924 244.374 25.6121C244.494 25.8515 244.593 26.0909 244.673 26.3303C244.792 26.1707 245.091 25.9911 245.569 25.7917L245.927 26.1507C246.405 25.9114 246.763 25.7917 247.002 25.7917C248.117 25.7917 250.168 26.1108 253.154 26.7492C253.274 26.9088 253.453 27.1282 253.692 27.4075C253.732 27.4075 253.831 27.3476 253.99 27.2279C254.189 27.1082 254.349 27.0484 254.468 27.0484C255.066 27.0484 255.603 27.4075 256.081 28.1256C256.121 28.1256 256.22 28.0658 256.38 27.9461C256.539 27.8264 256.698 27.7665 256.857 27.7665C256.977 27.7665 257.216 27.8463 257.574 28.0059C257.972 28.1256 258.271 28.1855 258.47 28.1855V28.9036C258.749 29.0233 258.968 29.0831 259.127 29.0831C259.286 29.0831 259.386 29.0233 259.426 28.9036C259.505 28.744 259.585 28.6642 259.665 28.6642C259.704 28.6642 260.322 29.143 261.516 30.1005C261.835 30.1404 262.253 30.2401 262.77 30.3997C263.208 30.679 263.507 31.058 263.666 31.5368C263.905 31.5767 264.383 31.7761 265.1 32.1352L265.876 32.973ZM235.415 53.9785H235.116V53.4998H235.415V53.9785ZM251.601 27.1082C251.442 26.9487 251.223 26.8689 250.944 26.8689C250.825 26.8689 250.765 27.1082 250.765 27.587C251.323 27.3077 251.601 27.1481 251.601 27.1082ZM235.236 34.3495H234.937L234.758 35.3668H235.056L235.236 34.3495ZM234.877 37.0425H234.579L234.399 37.6409L234.638 37.7606L234.877 37.0425ZM232.727 48.9516V48.2334H232.369V48.9516H232.727ZM234.161 53.4399V52.6021H233.862V53.4399H234.161ZM233.981 55.0557V54.3974H233.683V55.0557H233.981ZM234.34 55.7739V55.1156H234.041V55.7739H234.34ZM232.727 54.3376V53.4998H232.369V54.3376H232.727ZM236.848 67.0247V66.3664H236.55V67.0247H236.848ZM237.087 67.5633C236.968 67.683 236.809 67.7628 236.609 67.8027C236.609 67.9223 236.689 68.1019 236.848 68.3413C237.167 68.0221 237.247 67.7628 237.087 67.5633ZM238.282 69.8972V69.4185H237.983V69.8972H238.282ZM265.357 19.867C265.357 19.9468 265.277 20.0865 265.118 20.2859C264.998 20.4854 264.939 20.645 264.939 20.7647C264.66 22.4005 264.501 23.737 264.461 24.7743C264.461 25.5323 264.142 29.143 263.505 35.6062C263.465 35.6461 263.266 35.8456 262.908 36.2046C262.908 36.2445 262.967 36.3243 263.087 36.444C263.246 36.5637 263.326 36.6635 263.326 36.7432C263.326 36.9427 263.326 37.1821 263.326 37.4614C263.366 37.7806 263.386 38 263.386 38.1197C263.386 38.7979 263.366 39.2368 263.326 39.4363C263.286 39.6357 263.147 39.935 262.908 40.3339C262.709 40.7329 262.609 40.9922 262.609 41.1119C262.609 41.2316 262.709 41.4909 262.908 41.8899C263.107 42.249 263.206 42.4883 263.206 42.608C263.206 42.7277 263.147 42.987 263.027 43.386C262.908 43.785 262.848 44.0842 262.848 44.2837C262.848 45.2013 262.808 46.5378 262.729 48.2933C262.609 49.2508 262.549 50.4676 262.549 51.9438C262.589 54.0583 262.609 55.2552 262.609 55.5345C262.569 55.7739 262.43 56.6316 262.191 58.1078C261.992 59.584 261.892 60.362 261.892 60.4418C261.892 60.5614 261.952 60.7809 262.072 61.1C262.191 61.3793 262.271 61.6187 262.31 61.8182C262.271 62.4964 262.271 63.5337 262.31 64.9301C262.31 65.5286 262.41 66.4262 262.609 67.6231C262.808 68.8599 262.908 69.5182 262.908 69.598C262.908 69.7177 262.848 69.9172 262.729 70.1964C262.649 70.4757 262.609 70.6952 262.609 70.8547C260.26 70.2962 259.085 68.3612 259.085 65.0498C259.085 64.2519 259.165 63.5337 259.324 62.8954C259.045 62.6161 258.906 62.0775 258.906 61.2796C258.946 60.0428 258.966 59.4244 258.966 59.4244C259.125 59.3446 259.205 59.2449 259.205 59.1252C258.926 58.7262 258.786 58.1677 258.786 57.4495C258.786 53.3402 258.786 51.3454 258.786 51.465C258.866 51.4252 259.005 51.3055 259.205 51.106V47.4555C258.926 47.1762 258.786 47.0565 258.786 47.0964C258.786 47.0964 258.747 47.0166 258.667 46.857C258.627 46.6974 258.607 46.5578 258.607 46.4381C258.607 46.2785 258.627 46.1788 258.667 46.1389C258.747 46.099 258.786 46.079 258.786 46.079C258.707 45.2811 258.707 44.5829 258.786 43.9845C258.786 43.9047 258.806 43.7451 258.846 43.5057C258.926 43.2264 258.966 43.0269 258.966 42.9073C258.966 42.7477 258.926 42.4484 258.846 42.0096C258.806 41.5308 258.806 41.1718 258.846 40.9324C258.846 40.8127 258.906 40.5933 259.025 40.2741C259.145 39.9549 259.205 39.7355 259.205 39.6158C259.205 39.4961 259.105 39.0373 258.906 38.2394C258.707 37.4015 258.607 36.9028 258.607 36.7432C258.607 35.4267 258.727 33.6712 258.966 31.4769C259.085 31.2774 259.165 31.0979 259.205 30.9383C258.966 30.1404 258.926 28.744 259.085 26.7492C259.125 26.1906 259.145 25.0935 259.145 23.4577C259.145 23.1385 259.145 22.6398 259.145 21.9616C259.185 21.2834 259.205 20.9243 259.205 20.8844V20.1064C259.404 19.9069 259.563 19.7872 259.682 19.7473L260.041 20.0466C260.24 19.8471 260.539 19.7473 260.937 19.7473L261.235 20.0466C261.235 20.0466 261.255 19.9468 261.295 19.7473C261.335 19.6676 261.434 19.6277 261.594 19.6277C261.713 19.6277 261.753 19.6476 261.713 19.6875C261.713 19.7274 261.773 19.7473 261.892 19.7473C261.972 19.7473 262.35 19.5878 263.027 19.2686C263.704 18.9095 264.142 18.73 264.341 18.73C264.461 18.73 264.501 18.7898 264.461 18.9095C264.461 18.9893 264.52 19.0292 264.64 19.0292C264.958 19.0292 265.197 19.0891 265.357 19.2087V19.867ZM262.251 53.0809H262.012L261.833 53.5596L262.072 53.6195L262.251 53.0809ZM259.384 56.1928H259.145L258.966 57.0306H259.264L259.384 56.1928ZM259.563 64.4514H259.264L259.205 64.99H259.443L259.563 64.4514ZM281.776 53.2604C281.776 53.5796 281.637 53.9187 281.358 54.2777C279.088 55.2353 277.575 55.8537 276.819 56.1329C274.907 56.891 273.295 57.4096 271.981 57.6889C271.782 57.8086 271.682 58.0081 271.682 58.2873C271.642 58.4469 271.642 58.7063 271.682 59.0653C271.722 59.4643 271.742 59.7436 271.742 59.9032C271.742 61.5788 272.22 63.0949 273.175 64.4514C274.29 66.0073 275.744 66.7853 277.535 66.7853C277.695 66.7853 278.531 66.2068 280.044 65.0498C280.363 65.369 280.502 65.748 280.462 66.1868C280.223 66.6257 279.964 67.0646 279.686 67.5034C279.447 67.9423 279.108 68.1617 278.67 68.1617C278.511 68.1617 278.431 68.1418 278.431 68.1019C278.431 68.0221 278.372 67.9822 278.252 67.9822C278.053 67.9822 277.934 68.042 277.894 68.1617C277.894 68.3213 277.854 68.4011 277.774 68.4011C277.735 68.441 277.535 68.5008 277.177 68.5806C276.859 68.6604 276.62 68.7003 276.46 68.7003C276.142 68.7003 275.903 68.5208 275.744 68.1617C275.664 68.3213 275.505 68.5407 275.266 68.82C275.186 68.82 275.007 68.8001 274.728 68.7602C274.489 68.7203 274.29 68.7003 274.131 68.7003C273.733 68.7003 273.414 68.4609 273.175 67.9822C273.135 68.062 273.116 68.2216 273.116 68.4609C272.717 68.3812 272.16 68.2016 271.443 67.9223C271.045 67.7229 270.089 66.8252 268.576 65.2293C268.497 64.7905 268.297 64.2319 267.979 63.5537C267.7 63.2744 267.382 62.8555 267.023 62.2969C266.545 60.9006 266.307 59.185 266.307 57.1503C266.307 52.4824 267.7 47.3158 270.488 41.6505C271.364 41.0521 272.518 40.5534 273.952 40.1544C275.385 39.7155 276.62 39.4961 277.655 39.4961C277.774 39.4961 278.113 39.5759 278.67 39.7355C279.268 39.8552 279.686 39.935 279.925 39.9749C280.163 40.2541 280.482 40.8127 280.88 41.6505C281.04 42.1692 281.159 44.5031 281.239 48.6523C281.239 49.171 281.318 50.0487 281.478 51.2855C281.677 52.5223 281.776 53.1806 281.776 53.2604ZM277.535 47.4555C277.535 46.4979 277.257 44.8821 276.699 42.608C276.221 42.5282 275.843 42.6479 275.564 42.9671C275.126 43.5256 274.668 44.2039 274.191 45.0018C273.992 45.3609 273.514 46.857 272.757 49.4902C272.04 52.1233 271.682 53.5796 271.682 53.8588C271.682 54.3376 271.722 54.6169 271.802 54.6967H272.339C272.578 54.6967 273.394 54.4972 274.788 54.0982C275.146 54.0184 275.505 53.9586 275.863 53.9187C276.261 53.8389 276.52 53.6793 276.64 53.4399C276.64 52.8016 276.679 51.9039 276.759 50.7469C276.759 50.707 276.878 50.6272 277.117 50.5075C277.078 50.1884 277.058 49.6897 277.058 49.0114C277.097 48.8518 277.177 48.5925 277.297 48.2334C277.456 47.8345 277.535 47.5751 277.535 47.4555ZM298.341 53.2604C298.341 53.5796 298.202 53.9187 297.923 54.2777C295.654 55.2353 294.14 55.8537 293.384 56.1329C291.473 56.891 289.86 57.4096 288.546 57.6889C288.347 57.8086 288.247 58.0081 288.247 58.2873C288.207 58.4469 288.207 58.7063 288.247 59.0653C288.287 59.4643 288.307 59.7436 288.307 59.9032C288.307 61.5788 288.785 63.0949 289.74 64.4514C290.855 66.0073 292.309 66.7853 294.101 66.7853C294.26 66.7853 295.096 66.2068 296.609 65.0498C296.928 65.369 297.067 65.748 297.027 66.1868C296.788 66.6257 296.53 67.0646 296.251 67.5034C296.012 67.9423 295.674 68.1617 295.235 68.1617C295.076 68.1617 294.997 68.1418 294.997 68.1019C294.997 68.0221 294.937 67.9822 294.817 67.9822C294.618 67.9822 294.499 68.042 294.459 68.1617C294.459 68.3213 294.419 68.4011 294.34 68.4011C294.3 68.441 294.101 68.5008 293.742 68.5806C293.424 68.6604 293.185 68.7003 293.026 68.7003C292.707 68.7003 292.468 68.5208 292.309 68.1617C292.229 68.3213 292.07 68.5407 291.831 68.82C291.751 68.82 291.572 68.8001 291.293 68.7602C291.055 68.7203 290.855 68.7003 290.696 68.7003C290.298 68.7003 289.979 68.4609 289.74 67.9822C289.701 68.062 289.681 68.2216 289.681 68.4609C289.283 68.3812 288.725 68.2016 288.008 67.9223C287.61 67.7229 286.655 66.8252 285.141 65.2293C285.062 64.7905 284.863 64.2319 284.544 63.5537C284.265 63.2744 283.947 62.8555 283.588 62.2969C283.111 60.9006 282.872 59.185 282.872 57.1503C282.872 52.4824 284.265 47.3158 287.053 41.6505C287.929 41.0521 289.083 40.5534 290.517 40.1544C291.95 39.7155 293.185 39.4961 294.22 39.4961C294.34 39.4961 294.678 39.5759 295.235 39.7355C295.833 39.8552 296.251 39.935 296.49 39.9749C296.729 40.2541 297.047 40.8127 297.445 41.6505C297.605 42.1692 297.724 44.5031 297.804 48.6523C297.804 49.171 297.883 50.0487 298.043 51.2855C298.242 52.5223 298.341 53.1806 298.341 53.2604ZM294.101 47.4555C294.101 46.4979 293.822 44.8821 293.264 42.608C292.787 42.5282 292.408 42.6479 292.13 42.9671C291.692 43.5256 291.234 44.2039 290.756 45.0018C290.557 45.3609 290.079 46.857 289.322 49.4902C288.606 52.1233 288.247 53.5796 288.247 53.8588C288.247 54.3376 288.287 54.6169 288.367 54.6967H288.904C289.143 54.6967 289.96 54.4972 291.353 54.0982C291.712 54.0184 292.07 53.9586 292.428 53.9187C292.826 53.8389 293.085 53.6793 293.205 53.4399C293.205 52.8016 293.245 51.9039 293.324 50.7469C293.324 50.707 293.444 50.6272 293.683 50.5075C293.643 50.1884 293.623 49.6897 293.623 49.0114C293.663 48.8518 293.742 48.5925 293.862 48.2334C294.021 47.8345 294.101 47.5751 294.101 47.4555ZM316.519 39.915C316.241 40.3539 315.803 40.673 315.205 40.8725C315.006 41.1119 314.708 41.4311 314.309 41.83C313.752 42.1093 312.717 42.4085 311.203 42.7277C310.049 42.9671 308.874 43.1865 307.679 43.386C307.401 45.7 307.341 47.635 307.5 49.191C307.62 50.3081 307.679 50.8866 307.679 50.9264C307.679 50.727 307.62 50.4277 307.5 50.0288H307.381C307.341 50.2682 307.361 50.6073 307.441 51.0461C307.56 51.485 307.62 51.7244 307.62 51.7643C307.66 52.1233 307.58 52.7816 307.381 53.7391C307.222 54.8163 307.142 55.4746 307.142 55.714C307.102 56.512 307.142 57.3897 307.261 58.3472C307.381 59.2648 307.441 59.8633 307.441 60.1425C307.441 60.5814 307.381 61.0203 307.261 61.4591C307.381 61.6187 307.48 62.3767 307.56 63.7332C307.56 63.6534 307.54 64.97 307.5 67.683C307.5 68.4011 307.5 69.199 307.5 70.0768C307.54 70.9545 307.64 72.1314 307.799 73.6076C307.998 75.363 308.237 76.4602 308.516 76.8991C308.555 76.9788 308.456 77.1584 308.217 77.4377C308.257 77.8366 308.277 78.3553 308.277 78.9936C307.799 79.0734 307.261 78.7143 306.664 77.9164C306.107 77.1584 305.768 76.4801 305.649 75.8817C305.688 75.6423 305.669 75.2832 305.589 74.8045C305.35 74.4853 305.091 73.9467 304.812 73.1887C304.056 69.9172 303.538 66.7653 303.26 63.7332C303.22 61.9778 303.12 59.4643 302.961 56.1928C302.881 55.4347 302.921 52.6021 303.08 47.6948C303.001 47.3757 302.901 46.9169 302.782 46.3184C302.981 45.6402 303.021 44.6826 302.901 43.4459C302.861 43.3661 301.746 42.5881 299.556 41.1119C299.556 40.9922 299.397 40.6132 299.079 39.9749C299.915 39.8552 301.089 39.7953 302.603 39.7953C302.642 39.7953 302.702 39.7155 302.782 39.5559C302.782 39.3964 302.722 38.8777 302.603 38C302.523 37.1223 302.503 36.5438 302.543 36.2645C302.662 35.8655 302.782 35.3469 302.901 34.7085C302.981 31.0779 303.001 28.9036 302.961 28.1855C303.319 28.1855 303.917 28.1256 304.753 28.0059C305.629 27.8463 306.087 27.7665 306.127 27.7665C306.803 27.7665 307.381 27.9261 307.859 28.2453C308.336 28.5246 308.575 28.8836 308.575 29.3225C308.456 29.6816 308.336 30.1603 308.217 30.7588C308.137 31.3173 308.058 32.195 307.978 33.3919C307.938 33.8308 307.898 34.4093 307.859 35.1274C307.819 37.3616 307.938 38.7979 308.217 39.4363L312.756 39.5559C312.438 39.5559 313.692 39.6756 316.519 39.915ZM305.708 73.6674H305.469L305.41 74.5053H305.708V73.6674ZM306.306 75.5825L306.127 75.4029L305.708 75.762L305.888 75.9415L306.306 75.5825Z" fill="white"/>
    <path d="M40.5495 55.496C41.9614 57.0528 42.6085 58.7854 42.6085 60.9589V62.2219L41.1819 62.8974C39.7701 63.5582 34.5639 65.7903 34.4462 65.7903C34.4168 65.7903 34.7403 65.0416 35.1815 64.131C35.608 63.2351 36.2698 61.5904 36.6522 60.5039C37.3434 58.4775 38.3435 54.8059 38.3435 54.2477C38.3435 54.0865 38.3876 53.8953 38.4317 53.8514C38.5788 53.7047 39.7848 54.63 40.5495 55.496Z" fill="white"/>
    <path d="M35.1079 53.587C35.1079 54.3803 35.0049 55.6139 34.8873 56.3334C34.6225 57.8016 33.8283 60.2836 33.2842 61.3407L32.9165 62.0461L32.9019 57.0822V52.1333H34.0049H35.1079V53.587Z" fill="white"/>
    <path d="M19.5921 50.6646C22.004 50.8115 23.8865 50.9143 27.2102 51.0612L29.3722 51.1493V57.5082V63.8519L28.9015 63.7346C28.6368 63.6613 28.1368 63.5435 27.8132 63.4555C26.7396 63.1764 24.6219 63.1031 23.107 63.2942C21.9158 63.4408 19.6657 63.999 18.6067 64.3954C18.4009 64.4687 18.4303 64.3514 18.7244 63.5874C19.6657 61.2673 19.3715 57.9926 17.9744 55.2169C17.2979 53.8806 16.3125 52.6177 14.9889 51.3842L13.8564 50.3416L15.6212 50.4297C16.5919 50.4884 18.3861 50.5912 19.5921 50.6646Z" fill="white"/>
    <path d="M20.4004 31.3536C21.7387 31.471 23.0624 31.6032 23.3418 31.6473C23.8418 31.706 24.886 31.7941 26.8714 31.941C31.4158 32.2787 43.1224 33.2773 43.799 33.3801C44.1078 33.4242 44.1666 33.5417 44.2549 34.1584C44.299 34.5549 44.4167 35.3333 44.5049 35.906C44.5931 36.464 44.6666 38.0941 44.6666 39.5332C44.6666 43.5864 44.1225 46.1563 42.6812 48.8584C42.3136 49.5486 42.0194 50.136 42.0194 50.1507C42.0194 50.18 42.3283 50.1066 42.7107 49.9891C43.0783 49.8717 43.6372 49.7836 43.9608 49.7836H44.5196V51.5605C44.5196 53.5723 44.6078 53.4989 43.4166 52.4124C37.8133 47.4339 25.2242 45.0549 16.1796 47.2724C15.5913 47.4192 15.106 47.5074 15.106 47.478C15.106 47.4361 15.3711 47.0502 15.6999 46.5715L15.753 46.4941C16.6502 45.2605 17.6796 43.0577 18.062 41.6332C18.4444 40.1794 18.5915 37.6241 18.3562 36.3759C18.0768 34.9074 17.5032 33.336 16.7972 32.1025L16.1502 30.957L17.062 31.0452C17.562 31.0892 19.0621 31.2361 20.4004 31.3536Z" fill="white"/>
    <path d="M27.4606 14.2454C31.4021 14.6566 37.1819 15.3908 37.2995 15.5083C37.3436 15.5523 37.373 16.5657 37.373 17.7405C37.3583 19.444 37.2848 20.1489 37.0348 21.074C36.6524 22.5279 35.4906 24.8922 34.6081 26.0523C34.2405 26.5369 33.961 26.9481 33.9905 26.9775C34.0199 27.0069 34.7552 26.9335 35.6376 26.8013C36.52 26.6838 38.0643 26.5223 39.079 26.4342L40.9174 26.2873L41.6233 27.0363C42.2851 27.7412 43.344 29.5621 43.344 30.0027C43.344 30.1202 42.7704 29.9146 41.7704 29.4153C37.2112 27.1831 31.0785 26.7278 25.1811 28.1964C24.2104 28.4313 23.3721 28.637 23.3133 28.637C23.2692 28.637 23.5045 28.1523 23.8721 27.5649C26.0341 23.967 26.2988 19.6349 24.5928 16.081C24.3281 15.5083 23.8428 14.7594 23.5486 14.4069L22.9897 13.7607L23.7104 13.8489C24.1222 13.9076 25.7987 14.0839 27.4606 14.2454Z" fill="white"/>
    <path d="M42.7557 9.0319C44.5793 9.23747 46.8001 9.50185 47.6825 9.61929C48.5796 9.73679 50.4326 9.9864 51.8004 10.1626L54.3004 10.4857L55.3445 11.5284C57.2421 13.4375 58.448 15.5228 59.0951 17.9899C59.536 19.6787 59.5805 22.8507 59.1685 24.378C58.8888 25.4206 58.0657 27.3151 57.9039 27.3151C57.8448 27.3151 57.4772 27.0654 57.0949 26.7423C55.1094 25.0976 50.9768 23.5703 47.6089 23.2325C46.1089 23.0857 41.7262 23.1004 40.5497 23.2619C39.6232 23.3794 39.6084 23.3794 39.829 23.115C40.3732 22.4836 41.0938 20.5305 41.4468 18.6948C41.6674 17.5347 41.5497 14.9207 41.2262 13.7312C40.8585 12.4389 39.9761 10.6326 39.1967 9.57526C38.7996 9.06127 38.4907 8.6207 38.4907 8.57667C38.4907 8.53258 38.7113 8.54729 38.9761 8.59133C39.2068 8.63201 40.6777 8.79774 42.3366 8.98467L42.7557 9.0319Z" fill="white"/>
    <path d="M35.1077 9.311V12.6152L34.0488 12.5858L32.9752 12.5564L32.9605 11.5285C32.9458 10.5299 32.9311 10.5005 32.3869 10.0599C31.8575 9.63407 31.8133 9.61936 30.4015 9.6634C29.225 9.69277 28.7838 9.63407 28.1367 9.39907C27.166 9.03197 26.1218 7.95991 25.7982 6.97604L25.563 6.31518L26.0483 6.68229C27.0925 7.47531 28.4455 7.68093 29.9603 7.26973C30.9898 6.9907 31.5339 6.9907 32.2987 7.26973L32.9017 7.47531V6.75575V6.02148H34.0047H35.1077V9.311Z" fill="white"/>
    <path d="M49.6677 3.64244V7.28436L48.8294 7.18158C48.3588 7.12283 47.8588 7.06408 47.7264 7.06408C47.5058 7.04942 47.4617 6.90254 47.4617 5.97736V4.90537L46.6822 4.65571C46.1528 4.47949 45.4615 4.42074 44.4468 4.43543C43.1232 4.45011 42.9026 4.42075 42.226 4.06831C41.373 3.64243 40.5495 2.76131 40.02 1.73334C39.5641 0.837537 39.5788 0.734751 40.0789 1.21936C40.6524 1.76272 41.8584 2.20328 42.7702 2.20328C43.182 2.20328 43.9761 2.05642 44.5497 1.89488C45.5498 1.58649 46.5646 1.57181 47.2117 1.83614C47.4323 1.92426 47.4617 1.83614 47.4617 0.969708V0.000488281H48.5647H49.6677V3.64244Z" fill="white"/>
    <path d="M49.6967 28.9306C53.6677 29.753 57.7708 31.2068 61.8005 33.2333C66.1094 35.3921 71.0508 39.3424 74.1689 43.1312C74.8601 43.9683 75.4188 44.6879 75.3894 44.7025C75.3601 44.7319 74.7129 45.1578 73.9485 45.6424L72.5656 46.5382L72.11 46.0976C71.4482 45.4515 69.3008 44.1592 67.6535 43.4102C65.2417 42.3382 62.9771 41.7361 59.8003 41.3396C58.8002 41.2221 57.9619 41.1193 57.9472 41.1193C57.9179 41.1193 57.9033 40.9725 57.9033 40.7816C57.9033 40.3263 57.4032 39.0634 56.6822 37.6683C55.1527 34.7166 52.4765 31.941 48.726 29.3858C47.9907 28.8865 47.4465 28.49 47.5053 28.49C47.5495 28.49 48.5348 28.6809 49.6967 28.9306Z" fill="white"/>
    <path d="M50.3881 34.922C52.6825 37.9472 54.1528 41.0899 54.6235 43.9095L54.8591 45.3779H57.462C58.9036 45.3779 60.2859 45.422 60.5357 45.4661L61.0064 45.5689L60.9179 46.3912C60.8006 47.3752 60.3592 48.7996 59.9623 49.4458L59.6827 49.9304L59.124 49.4017C56.962 47.4045 53.447 46.4794 49.1821 46.7877C48.1379 46.8612 47.2555 46.8906 47.2261 46.8612C47.1967 46.8318 47.2261 46.729 47.2996 46.6409C47.6085 46.2297 48.182 44.4234 48.4173 43.1017C48.9174 40.2969 48.4909 34.9955 47.535 32.3228C47.4173 31.9703 47.3144 31.6472 47.3144 31.6032C47.3144 31.3535 49.388 33.6004 50.3881 34.922Z" fill="white"/>
    <path d="M49.1968 49.3428H49.8145V52.177V55.0114L48.8292 55.4225C48.2703 55.6576 47.7408 55.8628 47.6526 55.9074C47.5055 55.966 47.4614 55.246 47.4614 52.5735V49.1519L48.0203 49.2546C48.3144 49.2987 48.8438 49.3428 49.1968 49.3428Z" fill="white"/>
    <path d="M82.5664 43.7921C82.9492 44.1446 83.0225 44.8788 82.7282 45.2753C82.5371 45.525 75.9929 49.8278 69.2278 54.1746C65.3305 56.6858 65.6536 56.3188 65.4771 58.2279C65.3153 59.9019 65.242 60.4454 64.9477 62.0461C64.2566 65.8496 63.2565 68.9772 61.639 72.3551L60.7122 74.3082H59.2267H57.7271L58.1386 73.6034C59.9331 70.5926 61.374 66.4513 62.3008 61.679C62.5799 60.2983 63.1978 56.3041 63.1978 55.9371C63.1978 55.8632 62.7124 55.8046 62.1092 55.8046C59.4032 55.8046 54.7561 57.0236 49.9322 58.9767C48.6674 59.4908 47.5938 59.9165 47.535 59.9165C47.4909 59.9165 47.4762 59.2851 47.4909 58.507L47.535 57.1115L48.7116 56.5979C51.7853 55.2464 56.4767 53.6756 58.8591 53.1907C60.4331 52.8676 61.6243 52.8383 63.0213 53.0734C63.7712 53.2053 64.6241 53.4111 64.9037 53.5284L65.4038 53.7342L66.9479 52.7503C73.0952 48.8292 75.8458 47.0669 78.346 45.3928C81.4637 43.3075 81.8899 43.1606 82.5664 43.7921Z" fill="#32D499"/>
    <path d="M55.4621 51.3991C56.0208 51.7662 56.5062 52.1333 56.536 52.2068C56.5507 52.2949 55.8742 52.6032 54.9913 52.9262C54.1237 53.2346 53.3299 53.5284 53.2414 53.5577C53.0943 53.6164 53.0503 53.22 53.0503 51.8543V50.0774L53.7561 50.4005C54.1384 50.5767 54.9034 51.0319 55.4621 51.3991Z" fill="white"/>
    <path d="M53.9477 60.9297C53.7859 61.1501 53.036 61.9575 52.2859 62.7068C48.0945 66.8921 43.3147 69.6971 36.7114 71.8554C34.2848 72.6487 31.0198 73.3242 28.255 73.5886C24.7253 73.941 19.1662 73.4415 16.166 72.5162C15.7542 72.399 15.5924 72.1785 14.9306 70.8862C14.2247 69.4767 11.1362 62.8534 11.1362 62.7508C11.1362 62.7215 11.7833 62.7068 12.5775 62.7068H14.0335L15.1512 65.0123C15.7542 66.2899 16.563 67.9639 16.916 68.7425L17.5631 70.1521L18.6514 70.3286C20.3868 70.6071 24.4459 70.8129 26.2843 70.7103C29.8139 70.5045 32.9906 69.873 36.3584 68.7279C38.7997 67.8906 40.6381 67.068 44.7413 65.0123C48.4769 63.1472 53.9183 60.5333 54.1241 60.5186C54.198 60.504 54.1095 60.6945 53.9477 60.9297Z" fill="#32D499"/>
    <path d="M56.7857 65.805C55.9328 67.347 54.1828 68.522 51.5942 69.2415C50.0941 69.6525 49.6824 69.6525 50.7854 69.2268C52.2266 68.6833 55.7417 66.3485 56.7124 65.2913C57.2272 64.7332 57.2565 64.9243 56.7857 65.805Z" fill="#32D499"/>
    <path d="M15.3713 75.6296C16.0479 75.7914 17.3862 76.2464 18.3568 76.6575C20.357 77.4801 21.8423 77.8325 23.2983 77.8325C24.6366 77.8325 25.7544 77.5534 27.8574 76.6868C30.7547 75.4977 31.0929 75.4092 33.4166 75.4092C35.7402 75.4092 36.5344 75.5856 38.8728 76.6575C42.2554 78.2142 44.182 78.2142 47.9763 76.6281C50.7559 75.4683 51.0059 75.4092 53.7121 75.4092H53.7158C56.0359 75.4238 56.0804 75.4243 57.5355 75.9527C58.3445 76.2318 59.5651 76.7161 60.2568 76.9952C61.6538 77.5827 62.9037 77.8325 64.4478 77.8325C65.8008 77.8325 66.8894 77.5534 69.1394 76.6575C72.1397 75.4683 73.0513 75.2772 75.6249 75.2772C78.3017 75.2625 79.2431 75.4683 82.4639 76.6721C84.4196 77.3921 86.3612 77.9791 87.3759 78.1555C87.5817 78.1848 87.3466 78.5079 86.3172 79.5944L84.9935 80.9899L83.4048 80.4464C82.5225 80.1526 81.0077 79.6389 80.0374 79.3012C78.3608 78.7284 78.1545 78.6844 76.1396 78.6106C73.4928 78.5079 72.3748 78.7137 69.728 79.7562C67.2423 80.7401 65.7568 81.0632 63.8598 80.9899C62.0507 80.9312 60.9479 80.6815 58.8592 79.8295C56.359 78.831 55.5945 78.6551 53.4916 78.6551C51.403 78.6399 50.8442 78.7724 48.4617 79.8295C45.1526 81.2983 42.1965 81.3862 39.0787 80.094C34.5049 78.1849 32.7254 78.1115 28.9016 79.6536C26.6368 80.5788 25.622 80.8574 24.0631 80.9899C22.5188 81.1218 20.8128 80.8427 18.7833 80.1526C15.0919 78.875 14.533 78.7284 12.93 78.5519C11.6799 78.42 10.9152 78.42 9.63565 78.5519C7.69439 78.743 7.20905 78.875 4.38534 79.9028L2.28227 80.6815L1.10572 79.4625C0.458621 78.8017 -0.0414104 78.2288 0.00271006 78.1848C0.0321237 78.1409 0.752757 77.9351 1.59105 77.7005C2.42934 77.4654 3.59117 77.0984 4.15003 76.8779C6.40017 76.0113 7.72377 75.5856 8.70916 75.3945C10.2092 75.1306 13.8124 75.2479 15.3713 75.6296Z" fill="white"/>
    <path d="M36.1229 82.0179C36.6965 82.1352 37.9024 82.5321 38.7848 82.8992C41.1232 83.8684 42.0497 84.0443 44.0792 83.9564C45.8735 83.8684 46.3441 83.7506 49.0943 82.6934C51.1238 81.9153 52.3886 81.7242 53.9914 81.93C54.6679 82.0179 55.5654 82.2237 56.0063 82.3557L56.7713 82.6201L56.2712 82.9285C55.5214 83.3835 50.9179 85.5424 49.7561 85.9681C48.006 86.6289 46.0941 86.9373 43.8293 86.9373C42.6968 86.9373 41.3879 86.864 40.9026 86.7761C38.726 86.3943 36.2405 85.4544 32.6815 83.6626L30.6226 82.6348L31.1373 82.4143C32.5932 81.8122 34.461 81.6656 36.1229 82.0179Z" fill="white"/>
    <path d="M16.7975 82.1795C18.5329 82.4288 23.4891 83.6331 26.3569 84.5143C31.7543 86.1443 38.5635 89.1399 43.0197 91.8277L44.3874 92.6497L45.2257 92.0916C47.1964 90.7846 52.5351 88.1121 56.2852 86.5407C59.2264 85.3217 62.2267 84.3232 65.9915 83.3393C70.3888 82.1795 72.2718 81.9004 75.4779 81.8858C78.1687 81.8858 79.272 82.003 81.6545 82.5612L82.9782 82.8696L81.5958 84.1766C80.669 85.0573 80.1396 85.4542 79.9778 85.3956C79.4631 85.1898 76.4188 84.9987 75.1098 85.0872C73.7421 85.1751 70.6098 85.6155 69.4479 85.8946C62.9771 87.4513 59.0798 88.8462 53.7117 91.5632C50.7996 93.0315 48.0347 94.706 45.7846 96.336L44.3286 97.3932L43.6521 96.9083C37.8282 92.7969 32.9014 90.2856 26.0627 87.9948C21.9302 86.5994 18.4887 85.7919 14.3709 85.2191C13.1796 85.0573 8.82638 85.1018 7.97336 85.2924L7.23804 85.4542L5.88502 84.1033C4.60551 82.8403 4.54668 82.7518 4.85552 82.6345C5.17907 82.5172 7.76747 82.0177 8.78224 81.8858C9.79701 81.7533 15.2091 81.9591 16.7975 82.1795Z" fill="white"/>
</svg>
