<svg xmlns="http://www.w3.org/2000/svg" width="82" height="96" viewBox="0 0 82 96" fill="none">
    <path d="M49.484 1.69611C56.8895 1.20378 64.2951 0.697784 71.7006 0.219125C73.54 0.102879 75.3931 -0.00653348 77.2325 0.000304506C80.9387 0.0139805 82.8191 2.79703 81.178 6.14764C79.7079 9.15635 77.9368 12.0283 76.1521 14.8592C72.0562 21.3485 66.8251 26.9146 61.7855 32.6653C57.4229 37.6365 53.6278 43.1069 49.5934 48.3653C48.7045 49.5278 48.8686 50.745 49.6139 51.8869C52.226 55.8871 54.7971 59.9215 57.5255 63.8397C61.1154 69.0024 65.0814 73.9257 68.4115 79.2457C71.0031 83.3826 72.8904 87.9709 75.058 92.3746C75.6735 93.6259 75.311 94.5354 73.9503 94.8978C72.6647 95.2329 71.304 95.4722 69.9842 95.4585C63.8232 95.3696 57.6554 94.9867 51.4944 95.0688C42.9811 95.1782 34.4746 95.6842 25.9613 95.8688C20.9354 95.9782 15.9027 95.8073 10.8699 95.7662C10.8289 95.7662 10.7879 95.7594 10.7468 95.7526C6.28847 95.1918 4.79095 92.819 6.17906 88.5385C6.94491 86.1657 8.15523 84.0938 10.0972 82.5005C17.3386 76.5447 22.9937 69.2075 28.2315 61.5148C30.5018 58.1847 32.6899 54.7999 34.8986 51.4356C36.0063 49.7466 35.8627 49.1859 34.5362 47.6884C32.9019 45.8353 31.2197 43.9822 29.8727 41.9308C23.1099 31.6533 14.4667 23.2221 4.53794 16.0901C2.01473 14.278 0.612941 12.1309 0.2095 9.10166C-0.193941 6.07243 -0.28967 6.12029 2.54125 5.07408C6.28847 3.6928 10.1998 3.17996 14.1316 2.94063C23.5954 2.36624 33.066 1.86708 42.5366 1.39526C44.841 1.27901 47.1522 1.37475 49.4635 1.37475C49.4703 1.48415 49.4771 1.59354 49.484 1.69611ZM42.1879 37.2741C43.2751 36.6792 44.3145 36.2963 45.1077 35.6262C46.5163 34.4364 47.8087 33.1098 49.0874 31.7764C54.5509 26.1009 59.4196 19.9672 63.3036 13.0882C64.425 11.0983 64.001 10.2573 61.8607 10.3257C54.6945 10.5582 47.5215 10.7017 40.3621 11.1257C34.714 11.4608 29.0863 12.1446 23.4518 12.7121C21.6739 12.8899 21.4756 13.3344 22.3987 14.8661C24.5732 18.4697 26.9939 21.875 30.1052 24.7675C31.8557 26.3949 33.531 28.1181 35.1174 29.9028C36.6765 31.6533 38.0235 33.5953 39.5826 35.3527C40.239 36.098 41.2032 36.5698 42.1879 37.2741Z" fill="#32D499"/>
</svg>