<svg width="26" height="26" viewBox="0 0 26 26" fill="none" xmlns="http://www.w3.org/2000/svg">
    <path d="M23.25 2.74999C22.6481 2.14416 21.9324 1.66335 21.1441 1.33524C20.3557 1.00714 19.5102 0.838226 18.6562 0.838226C17.8023 0.838226 16.9568 1.00714 16.1684 1.33524C15.38 1.66335 14.6643 2.14416 14.0625 2.74999L11.5875 5.22499C11.4151 5.41522 11.3225 5.66444 11.3288 5.92106C11.3351 6.17768 11.4399 6.42204 11.6214 6.60355C11.8029 6.78506 12.0473 6.88982 12.3039 6.89614C12.5605 6.90246 12.8097 6.80985 13 6.63749L15.475 4.16249C16.3204 3.32207 17.4641 2.85035 18.6562 2.85035C19.8483 2.85035 20.992 3.32207 21.8375 4.16249C22.2566 4.57949 22.5892 5.07521 22.8162 5.62115C23.0431 6.16709 23.1599 6.75251 23.1599 7.34374C23.1599 7.93498 23.0431 8.52039 22.8162 9.06634C22.5892 9.61228 22.2566 10.108 21.8375 10.525L18.3 14.0625C17.4545 14.9029 16.3108 15.3746 15.1187 15.3746C13.9266 15.3746 12.7829 14.9029 11.9375 14.0625C11.8465 13.9621 11.7361 13.8812 11.6129 13.8248C11.4898 13.7684 11.3565 13.7376 11.221 13.7342C11.0856 13.7309 10.9509 13.7551 10.8251 13.8054C10.6993 13.8557 10.5851 13.931 10.4893 14.0268C10.3935 14.1226 10.3182 14.2369 10.2679 14.3627C10.2176 14.4884 10.1934 14.6231 10.1967 14.7586C10.2 14.894 10.2309 15.0273 10.2873 15.1505C10.3437 15.2736 10.4246 15.384 10.525 15.475C11.7437 16.6925 13.396 17.3764 15.1187 17.3764C16.8414 17.3764 18.4937 16.6925 19.7125 15.475L23.25 11.9375C23.8558 11.3357 24.3366 10.62 24.6647 9.83158C24.9928 9.04319 25.1617 8.19769 25.1617 7.34374C25.1617 6.4898 24.9928 5.6443 24.6647 4.8559C24.3366 4.06751 23.8558 3.35181 23.25 2.74999Z"
          fill="white"/>
    <path d="M13 19.3625L10.525 21.8375C9.67522 22.6516 8.54039 23.1004 7.36368 23.0878C6.18698 23.0752 5.06202 22.6021 4.22992 21.77C3.39781 20.9379 2.92476 19.813 2.91216 18.6363C2.89955 17.4596 3.34838 16.3247 4.16247 15.475L7.69997 11.9375C8.54543 11.0971 9.68911 10.6253 10.8812 10.6253C12.0733 10.6253 13.217 11.0971 14.0625 11.9375C14.2527 12.1098 14.5019 12.2025 14.7585 12.1961C15.0152 12.1898 15.2595 12.0851 15.441 11.9035C15.6225 11.722 15.7273 11.4777 15.7336 11.2211C15.7399 10.9644 15.6473 10.7152 15.475 10.525C14.2562 9.3075 12.6039 8.62363 10.8812 8.62363C9.15851 8.62363 7.50626 9.3075 6.28747 10.525L2.74997 14.0625C2.11401 14.6583 1.60434 15.3758 1.25126 16.1725C0.89819 16.9692 0.708921 17.8288 0.694712 18.7001C0.680502 19.5714 0.841642 20.4367 1.16855 21.2445C1.49546 22.0523 1.98146 22.7861 2.59765 23.4023C3.21385 24.0185 3.94766 24.5045 4.75545 24.8314C5.56324 25.1583 6.42852 25.3195 7.29984 25.3052C8.17115 25.291 9.03072 25.1018 9.82742 24.7487C10.6241 24.3956 11.3417 23.8859 11.9375 23.25L14.4125 20.775C14.5848 20.5848 14.6774 20.3355 14.6711 20.0789C14.6648 19.8223 14.56 19.5779 14.3785 19.3964C14.197 19.2149 13.9527 19.1102 13.696 19.1038C13.4394 19.0975 13.1902 19.1901 13 19.3625Z"
          fill="white"/>
</svg>
