<svg xmlns="http://www.w3.org/2000/svg" width="30" height="34" viewBox="0 0 30 34" fill="none">
    <path d="M9.77577 33.8482C9.84882 30.3366 8.02779 27.6494 6.31634 24.9153C5.82586 24.1326 5.38756 23.3186 4.95969 22.4942C4.8449 22.275 4.77707 21.962 4.8449 21.7376C5.81542 18.4138 6.81725 15.0953 7.83473 11.688C7.98083 11.8602 8.0904 11.9802 8.18954 12.1106C8.86265 13.029 9.55141 13.9369 10.2036 14.8709C10.4124 15.1683 10.5898 15.1631 10.8611 14.9961C11.5446 14.5839 11.936 13.9891 11.8786 13.1907C11.7742 11.6984 11.6333 10.2113 11.5029 8.72426C11.3777 7.32588 11.195 5.92749 11.1324 4.52911C11.0959 3.63685 11.2316 2.73938 11.2942 1.84713C11.3463 1.8367 11.3933 1.83148 11.4455 1.82104C11.8577 2.36892 12.2803 2.91157 12.6717 3.4751C14.1327 5.59877 15.6615 7.68069 17.0182 9.87219C18.4583 12.1994 18.3591 12.3141 17.9782 15.0066C17.5817 17.8033 17.2843 20.6157 16.9347 23.423C16.7677 24.7639 16.6007 26.1049 16.4181 27.4407C16.3972 27.6024 16.3137 27.7851 16.1989 27.8946C14.1431 29.8409 12.0768 31.7715 10.0158 33.7073C9.98448 33.7386 9.93231 33.7595 9.77577 33.8482Z" fill="white"/>
    <path d="M2.6429 0C3.49341 2.3689 4.41175 4.71172 5.15268 7.11193C5.38227 7.85808 5.28836 8.79208 5.06921 9.56954C4.53699 11.4636 3.85344 13.316 3.22729 15.1839C3.20642 15.2466 3.15946 15.304 3.09685 15.4135C2.30895 14.6309 1.72457 13.7386 1.41671 12.7159C1.0045 11.3593 0.701864 9.97131 0.352268 8.5938C0.336614 8.52597 0.336616 8.4477 0.305309 8.38509C-0.242565 7.39891 0.0391937 6.47013 0.430533 5.50483C1.15581 3.69424 1.80805 1.85233 2.48637 0.0260869C2.53333 0.0156512 2.5855 0.00521785 2.6429 0Z" fill="white"/>
    <path d="M23.9942 26.6006C23.7907 25.1396 23.5976 23.7882 23.4254 22.4315C23.4046 22.275 23.4619 22.0715 23.5559 21.9463C25.2778 19.6556 27.2501 17.6259 29.6764 16.0657C29.7442 16.024 29.8225 15.9875 29.9999 15.8936C29.4468 17.2241 28.925 18.4399 28.445 19.6713C28.3406 19.9322 28.3093 20.2557 28.3615 20.5322C28.5389 21.508 28.7685 22.4785 28.9616 23.4542C28.9929 23.6055 28.972 23.856 28.8781 23.9238C27.6832 24.8109 26.5822 25.8492 25.116 26.3136C24.7664 26.4232 24.4064 26.4962 23.9942 26.6006Z" fill="white"/>
</svg>