<svg width="28" height="28" viewBox="0 0 28 28" fill="none" xmlns="http://www.w3.org/2000/svg">
<path d="M27.6875 11.0375C27.6565 10.8977 27.5957 10.7662 27.5095 10.6519C27.4232 10.5376 27.3134 10.4432 27.1875 10.375L24.2125 8.72501C24.0542 8.40001 23.8792 8.08751 23.6875 7.78751L23.7375 4.38751C23.7386 4.2449 23.7104 4.10359 23.6545 3.97239C23.5985 3.8412 23.5162 3.72294 23.4125 3.62501C21.9312 2.28197 20.1794 1.2718 18.275 0.662507C18.1382 0.619863 17.994 0.606727 17.8518 0.623965C17.7096 0.641203 17.5726 0.688424 17.45 0.762507L14.5375 2.51251C14.175 2.50001 13.825 2.50001 13.4625 2.51251L10.55 0.762507C10.4274 0.688424 10.2904 0.641203 10.1482 0.623965C10.006 0.606727 9.86176 0.619863 9.725 0.662507C7.81808 1.27227 6.06554 2.28712 4.5875 3.63751C4.48293 3.73207 4.39982 3.84794 4.34376 3.9773C4.2877 4.10667 4.25999 4.24654 4.2625 4.38751L4.325 7.78751C4.125 8.08751 3.95 8.40001 3.775 8.72501L0.812501 10.375C0.685012 10.4411 0.573937 10.535 0.48742 10.6496C0.400902 10.7642 0.341136 10.8968 0.312501 11.0375C-0.112539 12.9896 -0.112539 15.0104 0.312501 16.9625C0.34355 17.1023 0.404259 17.2338 0.490521 17.3481C0.576783 17.4624 0.686585 17.5568 0.812501 17.625L3.7875 19.275C3.94698 19.5984 4.1265 19.9115 4.325 20.2125L4.2625 23.6125C4.26136 23.7551 4.28963 23.8964 4.34555 24.0276C4.40147 24.1588 4.48383 24.2771 4.5875 24.375C6.07084 25.7152 7.822 26.725 9.725 27.3375C9.86176 27.3802 10.006 27.3933 10.1482 27.3761C10.2904 27.3588 10.4274 27.3116 10.55 27.2375L13.4625 25.4875H14.5375L17.4625 27.2375C17.6146 27.3375 17.793 27.3897 17.975 27.3875C18.0767 27.3831 18.1774 27.3663 18.275 27.3375C20.1819 26.7277 21.9345 25.7129 23.4125 24.3625C23.5171 24.2679 23.6002 24.1521 23.6562 24.0227C23.7123 23.8933 23.74 23.7535 23.7375 23.6125L23.6875 20.2125C23.875 19.9125 24.05 19.6 24.225 19.275L27.2 17.625C27.3241 17.5561 27.4319 17.4613 27.516 17.3469C27.6001 17.2326 27.6586 17.1015 27.6875 16.9625C28.1125 15.0104 28.1125 12.9896 27.6875 11.0375ZM19.5 14C19.5 15.0878 19.1774 16.1512 18.5731 17.0556C17.9687 17.9601 17.1098 18.6651 16.1048 19.0813C15.0998 19.4976 13.9939 19.6065 12.927 19.3943C11.8601 19.1821 10.8801 18.6583 10.1109 17.8891C9.34172 17.1199 8.8179 16.1399 8.60568 15.073C8.39346 14.0061 8.50238 12.9002 8.91866 11.8952C9.33495 10.8903 10.0399 10.0313 10.9444 9.42692C11.8488 8.82258 12.9122 8.50001 14 8.50001C15.4587 8.50001 16.8576 9.07947 17.8891 10.1109C18.9205 11.1424 19.5 12.5413 19.5 14Z" fill="#80d5ad"/>
</svg>
