<svg xmlns="http://www.w3.org/2000/svg" width="49" height="46" viewBox="0 0 49 46" fill="none">
    <path fill-rule="evenodd" clip-rule="evenodd" d="M26.3163 0.32782C8.8772 1.01636 8.4511 1.04904 6.18914 2.26197C-3.05483 7.17881 -1.57968 20.9137 8.1889 20.9137C11.0406 20.9137 11.5653 19.5698 8.94281 18.9798C1.96059 17.4064 3.89475 7.37564 6.91036 4.95003C9.33622 2.98319 19.0389 2.88465 38.2153 2.58978C46.607 2.45856 48.1478 17.5703 38.0187 17.4391L33.8229 17.3735C26.3819 17.2752 12.3518 18.5537 11.4996 19.4059C9.99183 20.9137 29.8565 21.2415 38.2809 20.291C52.5075 18.7176 50.3441 1.04904 39.9856 0.0656246C37.5926 -0.0982782 33.6919 0.0656253 26.3163 0.32782ZM9.59842 5.60564C4.35353 7.44125 4.68133 16.2261 10.0245 17.2096C17.6294 18.652 22.6121 11.8337 17.5967 6.81832C15.8267 5.04832 13.7614 6.19564 15.2365 8.12955C17.8916 11.6042 14.417 16.423 10.8111 14.194C8.2872 12.6205 9.40183 6.5232 12.2209 6.5232C12.8765 6.5232 13.1714 5.8349 12.647 5.5071C12.0896 5.14661 10.844 5.17929 9.59842 5.60564ZM24.9394 23.4049C11.5979 23.5362 10.7457 23.6345 6.28768 25.6996C-2.16966 29.6006 -1.38297 41.5326 7.56597 44.8433C12.3192 46.6135 38.0187 45.2038 36.9697 43.2369C36.2814 41.9586 34.6097 41.8274 25.595 42.3191C18.1867 42.7126 13.6631 42.8765 10.7457 42.5486C2.58353 41.6308 -0.563411 27.3059 14.8433 26.683C29.627 26.0603 35.7241 25.6342 38.707 25.8308C47.1644 26.4208 44.7387 38.7462 40.2151 40.1557C38.0187 40.844 38.6743 42.8765 41.0999 42.9747C50.9012 43.3355 53.0975 23.3723 38.9039 23.143C36.1831 23.0774 32.1182 23.3396 24.9394 23.4049ZM33.1672 27.8303C30.3482 28.5189 28.1192 31.4035 28.1192 34.3864C28.0865 40.7457 39.4612 41.434 42.0507 35.2059C43.0014 32.944 41.3624 29.535 39.5921 29.994C38.8382 30.1906 38.8053 30.2889 39.297 32.223C40.1495 35.5994 36.3797 39.0084 33.659 37.4023C29.1026 34.7142 32.2824 27.273 37.1336 29.3054C38.3465 29.8298 39.9199 29.6989 39.9199 29.1089C39.9199 27.9942 35.8553 27.2076 33.1672 27.8303Z" fill="white"/>
</svg>