<svg xmlns="http://www.w3.org/2000/svg" width="11" height="11" viewBox="0 0 11 11" fill="none">
    <path opacity="0.5" fill-rule="evenodd" clip-rule="evenodd" d="M10.3189 0.772971C10.6118 1.06586 10.6118 1.54074 10.3189 1.83363L6.60656 5.54594L10.3189 9.25825C10.6118 9.55115 10.6118 10.026 10.3189 10.3189C10.026 10.6118 9.5511 10.6118 9.25821 10.3189L5.5459 6.6066L1.83359 10.3189C1.54069 10.6118 1.06582 10.6118 0.772926 10.3189C0.480033 10.026 0.480033 9.55115 0.772926 9.25825L4.48524 5.54594L0.772929 1.83363C0.480035 1.54074 0.480035 1.06586 0.772929 0.77297C1.06582 0.480076 1.5407 0.480077 1.83359 0.77297L5.5459 4.48528L9.25821 0.772971C9.5511 0.480077 10.026 0.480077 10.3189 0.772971Z" fill="#32D499"/>
</svg>