<svg xmlns="http://www.w3.org/2000/svg" width="363" height="359" viewBox="0 0 363 359" fill="none">
    <path d="M-29.04 -72.9917C-25.2295 -80.2514 -21.8837 -87.7888 -17.0524 -94.4793C-15.9862 -94.7201 -14.943 -94.9286 -14.0313 -95.0859L-13.9734 -95.0958C-13.9926 -95.0925 -14.012 -95.0892 -14.0313 -95.0859C-12.135 -94.9642 -10.2965 -94.8325 -8.40027 -94.7108L-8.41023 -94.7687L-4.30054 -94.7581L-4.38221 -94.7144C-2.51579 -94.7661 -0.639459 -94.76 1.22696 -94.8117L1.21699 -94.8696C2.05647 -94.8348 2.88597 -94.8578 3.72545 -94.823L3.63374 -94.837C4.73481 -94.9664 5.81217 -95.0624 6.88946 -95.1582C7.42251 -95.2762 7.96416 -95.3404 8.47339 -95.4276L8.39155 -95.3838L10.91 -95.2794L10.8522 -95.2695C11.913 -95.3321 12.9639 -95.4525 14.0486 -95.549L13.9809 -95.5969C14.5014 -95.686 15.0558 -95.7512 15.6101 -95.8164L15.63 -95.7007C16.6469 -95.8451 17.64 -95.9556 18.657 -96.1C18.6909 -96.076 18.7866 -96.2115 18.7866 -96.2115C19.3071 -96.3007 19.7936 -96.4137 20.3141 -96.5028L20.4058 -96.4888C22.3919 -98.9393 24.388 -101.332 26.3841 -103.725L26.3918 -103.734L26.3778 -103.642C26.7191 -104.772 27.0504 -105.96 27.3917 -107.09L27.4015 -107.032C27.579 -107.839 27.7249 -108.668 27.8697 -109.498C27.7529 -110.015 27.6879 -110.54 27.5759 -111.057C27.5766 -111.045 27.5773 -111.033 27.578 -111.021L27.5582 -111.136C27.5643 -111.11 27.5701 -111.083 27.5759 -111.057C27.5136 -112.106 27.4742 -113.188 27.4114 -114.236L27.4453 -114.212C27.4815 -115.558 27.4599 -116.893 27.4962 -118.239L27.4763 -118.355C26.8425 -119.615 26.2665 -120.886 25.6666 -122.122C25.6668 -122.985 25.6771 -123.791 25.6533 -124.62C26.3083 -128.423 26.9973 -132.201 27.6523 -136.004L27.5944 -135.994C27.5287 -136.548 27.4053 -137.093 27.3157 -137.613L27.4313 -137.633C24.6779 -139.275 24.2378 -141.312 26.4339 -143.772C26.4578 -143.806 26.3322 -143.844 26.3322 -143.844L26.0633 -145.405L26.1691 -145.483C21.6352 -147.266 17.159 -149.059 12.625 -150.842L12.6929 -150.794C11.8534 -150.829 11.0239 -150.806 10.1844 -150.841L10.2422 -150.851C8.66091 -150.699 7.10351 -150.581 5.52221 -150.429L5.56618 -150.347C4.73666 -150.324 3.87316 -150.325 3.06758 -150.336L3.12547 -150.346C1.54714 -150.105 -0.00778698 -149.898 -1.58562 -149.658C-2.37281 -149.404 -3.12645 -149.126 -3.91383 -148.873L-3.93779 -148.839C-4.4483 -148.692 -4.93489 -148.579 -5.4454 -148.432L-5.45533 -148.49C-8.74442 -145.489 -12.3276 -143.507 -16.9416 -145.442L-19.239 -144.522C-19.2729 -144.546 -19.2251 -144.614 -19.2251 -144.614C-21.5463 -143.919 -23.8336 -143.2 -26.1549 -142.505C-26.1309 -142.539 -26.0491 -142.582 -26.0491 -142.582L-27.622 -142.313L-27.4211 -142.08L-27.6683 -142.305L-27.622 -142.313L-27.6444 -142.339C-28.1648 -142.25 -28.7092 -142.127 -29.2297 -142.038L-29.148 -142.082C-32.2371 -140.66 -35.2086 -138.901 -38.4252 -137.874C-40.0046 -137.365 -42.0444 -138.147 -43.8688 -138.37C-49.7992 -137.89 -54.7788 -135.52 -58.5547 -130.826C-61.5629 -125.995 -64.7984 -121.274 -67.5115 -116.286C-69.317 -112.941 -70.4066 -109.242 -71.6897 -105.63C-73.5674 -100.457 -75.2956 -95.2797 -77.0815 -90.0928L-77.0238 -90.1028C-77.2155 -88.9687 -77.3832 -87.8686 -77.5749 -86.7345C-79.4704 -82.1837 -81.3559 -77.575 -83.2753 -72.9903C-83.6144 -72.3667 -83.9437 -71.6854 -84.3068 -71.028C-84.315 -69.8658 -83.9464 -68.5896 -84.3076 -67.5754C-85.3771 -64.6243 -86.9252 -61.8591 -87.8692 -58.87C-89.4198 -53.8723 -92.1766 -49.8288 -95.1827 -45.5044C-99.1702 -39.7918 -100.853 -32.4498 -103.108 -25.6648C-106.037 -16.9189 -108.488 -7.98729 -111.258 0.820514C-112.061 3.24959 -113.365 5.5267 -114.419 7.87976C-114.644 8.1267 -114.768 8.44541 -114.766 8.80225C-114.721 13.5566 -114.667 18.3688 -114.622 23.1231L-114.251 23.0298L-114.612 23.181C-114.498 23.6675 -114.443 24.1639 -114.329 24.6505L-114.319 24.7082C-114.206 25.1947 -114.126 25.6573 -114.036 26.1777C-114.06 26.2116 -114.05 26.2694 -114.05 26.2694C-113.937 26.755 -113.858 27.2166 -113.768 27.7358L-113.768 27.7389L-113.792 27.7726C-110.986 35.5959 -108.147 43.4432 -105.341 51.2665L-105.351 51.2087C-105.072 51.9645 -104.759 52.7443 -104.446 53.5241L-104.49 53.4423C-104.13 55.0175 -103.745 56.5588 -103.384 58.134L-103.428 58.0523L-102.544 61.1151C-102.448 62.1852 -102.328 63.2223 -102.209 64.259C-101.956 65.0431 -101.736 65.8039 -101.482 66.5883L-101.526 66.5065C-99.344 71.4008 -94.9802 75.6536 -96.9539 81.825L-96.9299 81.7911C-96.0432 84.3477 -95.1326 86.8704 -94.2459 89.4269L-94.2319 89.3351C-94.1084 89.8794 -94.0189 90.3999 -93.8954 90.9443L-93.6465 92.3898L-93.6266 92.5053L-93.3578 94.0666L-93.4256 94.0186C-90.4889 96.6008 -89.9272 99.4715 -92.4712 102.667C-87.7134 109.381 -81.8457 115.46 -80.9985 124.183C-80.911 125.21 -81.2044 126.272 -81.3483 127.338L-81.3343 127.246C-80.7965 129.505 -80.2248 131.789 -79.687 134.048C-79.7448 134.058 -79.723 134.53 -79.723 134.53C-79.2428 135.936 -78.7287 137.366 -78.2146 138.796L-78.2246 138.738C-77.9117 139.518 -77.6568 140.307 -77.3439 141.087L-77.4355 141.073C-77.1089 142.624 -76.8161 144.152 -76.4895 145.703L-76.4416 145.635C-76.0811 147.21 -75.7785 148.795 -75.418 150.371L-75.428 150.313C-75.139 151.126 -74.86 151.882 -74.605 152.672C-74.5154 153.192 -74.3679 153.703 -74.2783 154.223L-74.2494 154.218C-74.2511 154.209 -74.2528 154.199 -74.2544 154.189L-73.8736 154.154L-74.2494 154.218C-74.1635 154.711 -74.0483 155.225 -73.9614 155.719L-73.9617 155.716L-73.6726 155.667L-73.9517 155.774C-73.9549 155.756 -73.9581 155.737 -73.9614 155.719C-73.8956 156.272 -73.7725 156.816 -73.683 157.336L-73.7986 157.355C-73.3245 159.417 -72.9083 161.489 -72.4343 163.55L-72.4442 163.493C-72.1892 164.282 -71.9102 165.038 -71.6551 165.828C-71.5416 166.314 -71.4181 166.859 -71.3046 167.345L-71.4203 167.365C-70.5677 170.761 -69.7052 174.214 -68.8526 177.61C-69.0979 177.741 -69.1259 177.925 -69.0282 178.146C-69.1941 179.603 -69.4178 181.07 -69.6077 182.561L-69.7792 182.947C-69.7953 183.545 -69.7874 184.109 -69.8035 184.707L-69.9052 184.636C-68.1895 196.5 -66.989 208.303 -72.3609 219.661L-72.1698 221.274L-72.2137 221.192C-71.9449 222.753 -71.6422 224.338 -71.3395 225.924L-71.3495 225.866C-69.6591 228.076 -67.9109 230.277 -66.1867 232.512C-60.927 234.706 -55.6433 236.867 -50.3836 239.062C-49.893 238.799 -49.2549 238.184 -48.9937 238.318C-41.559 242.253 -35.0836 247.186 -31.616 255.223L-31.5822 255.247C-28.2053 258.955 -31.5799 262.003 -33.0561 264.666C-38.4784 274.494 -37.9304 275.948 -31.6036 284.686C-26.4529 291.78 -22.9455 300.049 -18.8618 307.861C-18.4572 308.655 -18.9181 309.955 -18.9802 310.977L-18.6314 311.275C-17.5513 313.917 -16.529 316.569 -15.4828 319.188C-10.1573 322.881 -12.536 328.188 -12.5631 333.033C-12.7468 333.868 -12.9543 334.737 -13.138 335.572L-13.114 335.538C-12.2013 337.555 -10.8937 339.444 -10.4096 341.564C-9.18873 347.099 -8.28095 352.717 -7.23351 358.282C-6.62534 358.356 -6.00722 358.489 -5.39905 358.563C-4.36787 357.464 -3.32673 356.422 -2.26166 355.347C-2.57855 354.717 -3.37395 353.901 -3.20237 353.514C0.17038 345.796 3.66869 338.116 7.16703 330.436L7.17046 330.428L7.15643 330.52C8.29375 327.617 9.3733 324.723 10.5106 321.82L10.4967 321.912C11.2951 318.769 12.1273 315.65 12.9257 312.508L13.9432 310.637C15.1222 308.322 16.3252 305.973 17.5043 303.658C19.2998 300.255 21.7812 297.033 22.7891 293.378C27.7307 275.746 38.3246 261.55 50.2981 248.28C53.29 244.91 57.255 241.314 61.4029 240.336C72.5262 237.687 83.9085 235.679 95.2827 234.832C104.719 234.139 114.09 234.975 122.821 229.67C126.601 227.416 131.747 227.398 136.252 226.418C138.035 226.053 139.871 225.828 141.664 225.521C147.876 224.428 154.053 223.31 160.231 222.193L161.751 222.2C164.907 221.69 168.088 221.145 171.245 220.634C171.731 220.521 172.194 220.442 172.656 220.363C173.201 220.24 173.779 220.141 174.357 220.042C174.854 219.986 175.317 219.907 175.779 219.828C177.398 219.551 178.994 219.307 180.613 219.03C181.409 218.983 182.194 218.878 182.99 218.831C184.007 218.687 185.014 218.485 186.031 218.34C186.547 218.401 187.122 218.451 187.638 218.512C191.584 220.336 195.735 221.798 199.346 224.096C206.726 228.755 214.443 228.624 222.147 225.996C230.187 223.25 237.843 218.962 245.899 226.333C247.237 227.532 251.385 226.554 253.762 225.492C256.081 224.44 257.897 222.016 259.869 220.161C265.633 214.739 271.644 209.543 271.118 200.437C271.059 199.226 272.296 197.765 273.177 196.661C278.118 190.607 283.184 184.59 288.217 178.55C290.925 175.437 293.576 172.335 296.285 169.222C296.554 169.057 296.78 168.81 296.971 168.539C299.157 166.022 301.648 163.72 303.505 161.021C309.464 152.233 315.195 143.334 321.018 134.45C321.113 134.315 321.315 134.102 321.295 133.986C319.438 121.298 328.854 112.364 332.085 101.394C332.668 99.4192 333.777 97.5624 335.49 95.9297C335.309 109.919 328.72 122.477 326.8 136.05L326.794 137.56C327.405 138.588 327.989 139.599 328.731 140.868C331.694 139.408 334.542 137.968 337.366 136.562C337.641 136.604 337.869 136.714 338.082 136.915C338.523 136.364 338.93 135.788 339.371 135.236C339.903 134.699 340.412 134.195 340.944 133.657C352.952 126.809 357.98 115.383 361.69 102.872C363.628 96.3199 362.668 90.0556 361.448 83.6574C361.506 82.7843 361.554 81.8534 361.612 80.9804L361.598 81.072C361.69 80.2229 361.839 79.3641 361.931 78.515L361.941 78.5727C361.852 78.0524 361.786 77.4981 361.72 76.9439L361.74 77.0595C361.675 76.5053 361.551 75.9608 361.485 75.4066L361.505 75.5224C361.573 74.7071 361.584 73.9018 361.618 73.0626C361.486 72.8173 361.273 72.6156 361.036 72.4479C360.846 71.3493 360.691 70.2747 360.502 69.1761L360.488 69.2678L360.118 67.6348L360.127 67.6926C359.747 66.9829 359.357 66.2196 358.976 65.5061C357.286 62.7936 350.439 63.5767 353.556 57.5771L352.807 55.2555C352.809 55.2515 352.807 55.2483 352.801 55.2458C352.806 55.2683 352.811 55.2908 352.817 55.3133L352.508 55.2472C352.508 55.2472 352.758 55.2274 352.801 55.2458C352.688 54.7353 352.603 54.2452 352.519 53.7554L352.051 53.8075L352.514 53.7283L352.514 53.7309C352.516 53.739 352.517 53.7472 352.519 53.7554L352.548 53.7521C352.4 53.2417 352.311 52.7213 352.187 52.177C352.191 52.1963 352.194 52.2156 352.197 52.2348L351.898 52.2266L352.187 52.177C352.099 51.6768 351.981 51.1554 351.862 50.634L351.86 50.6257L351.928 50.6737C351.657 49.6189 351.397 48.622 351.126 47.5671L351.136 47.6248C350.823 46.845 350.476 46.0414 350.163 45.2616L350.265 45.3334C349.713 44.0291 349.195 42.7488 348.643 41.4445C348.449 33.2334 348.709 24.8853 343.63 17.6894C342.233 14.4166 340.86 11.1101 339.463 7.8373L339.473 7.89517C338.199 5.16677 336.916 2.38038 335.642 -0.34802L335.652 -0.29015C333.185 -5.28441 330.751 -10.2547 328.318 -15.225C327.156 -17.8237 326.076 -20.4661 324.751 -22.9773C322.265 -27.7304 318.943 -33.0246 313.295 -31.9385C299.861 -29.4 286.723 -25.4837 273.442 -22.2273C267.821 -20.8183 263.349 -15.4987 256.173 -18.7939C253.466 -19.9969 248.661 -17.2992 245.052 -15.7883C240.196 -13.7365 235.712 -10.5579 230.739 -8.84317C221.129 -5.53086 211.264 -3.0083 201.556 0.082635C196.168 1.80891 190.883 3.96391 185.535 5.92146C185.106 6.02465 184.667 6.07003 184.238 6.17322C183.66 6.27224 183.092 6.42908 182.547 6.55208C182.051 6.60735 181.564 6.72038 181.068 6.77565L181.01 6.78565C176.938 7.51269 174.005 6.55651 173.801 1.74019C173.745 1.24532 173.656 0.726615 173.567 0.207861L173.566 0.203012L173.556 0.145139C173.466 -0.375232 173.411 -0.871667 173.321 -1.39204L173.311 -1.44983L173.052 -2.95311L173.042 -3.01099C172.929 -3.4975 172.839 -4.01787 172.726 -4.50438L170.801 -9.9784C170.992 -10.7447 171.239 -11.5207 171.454 -12.3198C171.52 -13.1185 171.577 -13.9696 171.644 -14.7656L171.924 -18.8084C170.723 -22.3407 169.579 -25.8829 168.401 -29.4488L167.391 -31.6866C166.352 -32.8778 165.323 -34.0111 164.285 -35.2024C163.818 -35.8368 163.318 -36.4952 162.852 -37.1296C161.631 -37.9921 160.469 -38.8645 159.249 -39.727C158.581 -40.1484 157.923 -40.512 157.289 -40.9093C154.582 -41.6054 151.865 -42.3592 149.158 -43.0554C146.916 -42.5194 144.722 -41.7054 142.478 -41.5278C135.694 -40.9912 129.937 -38.8148 126.318 -32.6891L126.366 -32.7569C127.29 -28.934 128.223 -25.0543 129.157 -21.1741L129.178 -21.0867C129.184 -21.1156 129.196 -21.158 129.196 -21.158L129.567 -19.525L129.499 -19.573C129.794 -18.552 130.123 -17.507 130.418 -16.4861L130.408 -16.544C131.26 -14.0114 132.123 -11.4208 133.01 -8.86429L133.014 -9.01393C133.137 -8.46959 133.295 -7.90124 133.418 -7.3569L133.374 -7.43869C134.409 -4.37166 135.5 -1.31447 136.592 1.74265L136.549 1.66079C137.043 2.975 137.527 4.2314 137.987 5.52165L138.001 5.42999C143.028 11.98 146.929 18.9014 144.414 27.6357C146.583 31.7585 146.02 35.5754 143.058 39.1184L165.153 64.2341L167.462 63.1243L167.38 63.1682C168.174 62.7644 168.91 62.3705 169.67 61.9428L169.588 61.9865C170.348 61.5587 171.118 61.1888 171.878 60.7611L171.796 60.8048C172.791 60.1879 173.81 59.5373 174.805 58.9205L174.771 58.8965C175.733 58.2557 176.684 57.5571 177.645 56.9163L177.745 56.6312L177.679 56.9402C178.439 56.5124 179.141 56.0945 179.877 55.7007L179.877 55.6825C179.858 55.6919 179.839 55.7012 179.819 55.7106L179.885 55.4017L179.877 55.6825C180.625 55.3224 181.32 54.9713 182.071 54.6108C182.104 54.6347 182.081 54.6686 182.081 54.6686C185.094 53.4979 188.097 52.2692 191.077 51.0745L191.019 51.0845C192.491 50.2967 194.02 49.499 195.492 48.7113L195.434 48.7212C197.199 47.7344 198.93 46.7237 200.661 45.713L200.657 45.8624C201.913 45.3794 203.16 44.8386 204.416 44.3556L204.392 44.3895C206.183 43.7257 207.916 43.0718 209.673 42.384L209.615 42.3939C211.881 41.2024 214.088 40.0207 216.354 38.8292C217.09 38.4353 217.792 38.0176 218.528 37.6237C219.23 37.2058 219.989 36.7781 220.691 36.3602L220.634 36.3701C222.66 35.5172 224.676 34.6065 226.702 33.7535L226.61 33.7395C227.164 33.6744 227.708 33.5516 228.262 33.4864C231.202 31.8922 234.12 30.3306 237.06 28.7358L237.037 28.7697C238.042 28.2107 239.023 27.6854 240.028 27.1263L240.038 27.1842C244.486 22.7618 249.551 21.061 255.528 23.9661L255.47 23.976C256.035 23.9687 256.589 23.9035 257.153 23.8962L257.072 23.9399C264.73 24.682 272.399 25.482 280.058 26.2241C284.84 26.5065 289.679 26.779 294.518 27.0515L301.83 22.3173C302.494 22.8882 303.124 23.4351 303.788 24.0059C299.896 31.811 295.97 39.5921 292.044 47.3732L292.037 47.3875L291.969 47.3396C292.567 49.9456 293.106 52.5618 293.67 55.1439L293.66 55.086C293.915 55.8756 294.194 56.6314 294.449 57.4211L294.367 57.4648C295.36 59.9437 296.386 62.4467 297.378 64.9256L297.45 64.824C301.405 70.1588 305.499 75.4399 309.243 80.93C310.128 82.2666 309.912 84.2976 310.234 85.9984L310.224 85.9406C310.874 87.4663 311.581 88.982 312.231 90.5077L312.235 90.3583C312.283 91.1514 312.306 91.9781 312.33 92.8049L312.33 92.8122C312.924 93.8415 314.178 95.591 314.001 95.7702C311.216 98.2709 308.277 100.56 305.347 102.907C300.989 107.85 296.752 112.98 292.18 117.721C286.093 124.032 279.613 129.963 273.492 136.249C270.283 139.567 267.5 143.287 264.538 146.83C260.78 149.557 257.286 152.775 253.202 154.813C249.444 156.677 245.02 157.256 240.902 158.408L240.994 158.422C240.439 158.487 239.919 158.576 239.398 158.665L239.197 158.878L239.364 158.641C238.878 158.754 238.357 158.843 237.837 158.932L237.825 159.381L237.803 158.909C237.283 158.998 236.772 159.145 236.252 159.234L236.252 159.237C236.271 159.232 236.29 159.228 236.309 159.224L236.335 159.547L236.252 159.237C235.729 159.353 235.225 159.44 234.7 159.559L234.714 159.467C233.659 159.737 232.662 159.997 231.607 160.267L231.665 160.257C230.895 160.627 230.115 160.939 229.312 161.285L229.36 161.217C227.579 161.939 225.822 162.627 224.041 163.349C223.8 163.33 223.67 163.442 223.686 163.707C222.82 164.212 221.945 164.66 221.103 165.131L221.112 165.139C221.128 165.133 221.145 165.127 221.161 165.121L221.317 165.333L221.112 165.139C218.885 165.935 216.668 166.787 214.441 167.582L214.383 167.592L212.671 167.763C208.22 168.209 203.807 168.651 199.375 169.12L199.433 169.11L196.235 169.569C196.263 169.576 196.3 169.587 196.3 169.587L194.739 169.854C194.213 169.973 193.677 170.038 193.12 170.132L193.09 170.137L193.062 170.141L191.616 170.389L191.501 170.409L189.939 170.676L190.045 170.599C188.98 170.811 187.939 170.989 186.875 171.201L186.966 171.215L185.405 171.482C184.793 171.557 184.238 171.623 183.626 171.698C182.653 171.924 181.704 172.116 180.731 172.342C179.893 172.664 179.113 172.976 178.3 173.265L178.415 173.245C177.871 173.368 177.293 173.467 176.772 173.556L176.844 173.454C176.353 173.717 175.839 174.013 175.348 174.276C174.294 174.338 173.217 174.434 172.163 174.496C170.403 174.916 168.666 175.302 166.905 175.722L166.65 175.795C163.101 180.599 157.98 182.667 152.415 181.983C148.583 181.508 145 179.026 141.301 177.428C137.682 177.154 134.091 176.698 130.444 176.608C120.492 176.378 110.49 176.721 100.598 175.975C92.1873 175.361 84.052 173.927 75.5051 175.807C66.9822 177.654 58.1466 177.857 49.4504 178.87C43.2369 179.607 36.7444 179.587 30.8356 181.403C21.792 184.201 14.8611 190.627 9.08851 198.074C5.74942 202.366 2.7592 206.955 -1.23826 212.61C-4.0292 202.105 -6.33408 193.214 -8.83632 184.387C-10.4102 178.704 -12.3548 173.114 -14.1261 167.495C-14.2256 166.916 -14.2674 166.328 -14.367 165.75L-14.2174 165.754L-15.3707 161.13L-15.3607 161.188C-15.6736 160.408 -15.9626 159.595 -16.2754 158.815L-16.2894 158.906C-16.4368 158.396 -16.5604 157.852 -16.6839 157.307L-16.6639 157.423C-16.7973 156.821 -16.8969 156.243 -16.9965 155.664C-17.1 155.236 -17.1797 154.773 -17.2833 154.344C-17.6301 153.541 -17.9429 152.761 -18.2896 151.957L-18.174 151.937C-21.9294 146.896 -24.0855 141.461 -21.8765 135.101C-22.0998 134.841 -22.3231 134.582 -22.5703 134.357C-25.9514 131.662 -26.6625 128.569 -24.1013 124.946C-26.7928 123.145 -28.198 121.034 -25.7107 118.019L-25.7686 118.029C-27.6076 112.362 -30.3918 106.737 -27.4291 100.605L-27.4192 100.662C-27.4488 99.6259 -27.5123 98.5653 -27.542 97.5287L-27.5999 97.5386C-27.5319 96.7234 -27.4398 95.8743 -27.3718 95.059L-27.338 95.0829C-27.5487 92.6487 -27.8173 90.2245 -28.052 87.8242L-28.032 87.9398C-27.8823 87.0808 -27.7664 86.1978 -27.6505 85.3149L-27.8894 83.9272L-27.8113 82.3067L-27.7634 82.2389L-26.5419 77.9226L-26.556 78.0142C-26.2166 76.8904 -25.8535 75.7332 -25.4902 74.5757C-25.3993 73.7641 -25.2587 72.944 -25.1691 72.1326C-25.1723 72.1494 -25.1754 72.1662 -25.1786 72.183L-25.1646 72.0914C-25.1661 72.1051 -25.1676 72.1189 -25.1691 72.1326C-24.8616 70.489 -24.4986 68.836 -24.1923 67.1927L-24.1245 67.2405C-24.0326 66.3914 -23.9067 65.5663 -23.8148 64.7172L-23.7809 64.7412C-23.5971 63.0439 -23.4372 61.3805 -23.2774 59.7171L-23.2771 59.7143L-23.2671 59.7722C-23.2049 57.8865 -23.1086 56.0247 -23.0463 54.139L-23.1142 54.0911C-23.1798 53.5368 -23.2694 53.0165 -23.359 52.4961L-23.2912 52.544C-23.3381 51.762 -23.3618 50.9472 -23.3851 50.1318C-25.5209 46.1879 -27.7142 42.2538 -29.8499 38.3097L-29.7104 38.2561C-30.306 37.0283 -30.9252 35.834 -31.5211 34.6068C-31.9366 33.8647 -32.2997 33.1137 -32.7178 32.3721L-32.6739 32.4539L-42.8148 14.0115L-42.8388 14.0454C-43.3152 13.3532 -43.8016 12.6031 -44.278 11.9108L-44.2341 11.9927L-47.2717 6.7984L-47.3096 6.92388C-47.491 6.38944 -47.6144 5.84512 -47.7717 5.27682C-47.9092 4.82417 -48.0566 4.31368 -48.1941 3.86103C-48.483 3.04739 -48.8298 2.24361 -49.1188 1.42997C-47.8874 -2.82858 -46.5882 -7.03913 -45.4724 -11.2779C-43.8377 -17.6889 -40.837 -23.9469 -43.1942 -30.8946C-43.5907 -31.9874 -43.2953 -33.5559 -42.7706 -34.6577C-36.9708 -46.9605 -35.4958 -60.6955 -29.04 -72.9917Z" fill="#32D499"/>
</svg>