<svg xmlns="http://www.w3.org/2000/svg" width="27" height="14" viewBox="0 0 27 14" fill="none">
    <path d="M6.32726 2.57188C5.79105 3.15213 5.27207 3.71324 4.7531 4.27434C4.28009 4.78566 3.80708 5.29888 3.33215 5.80828C3.11192 6.04574 3.11001 6.04383 3.29959 6.2947C3.32258 6.32534 3.33981 6.35789 3.37428 6.41151C2.95489 6.89984 2.53167 7.3901 2.1027 7.888C1.40563 7.25987 0.714306 6.63749 -3.19097e-07 5.99404C2.00121 3.99666 3.99283 2.00695 6.00362 -4.07712e-06C6.48812 0.367682 6.94198 0.752599 7.43606 1.07433C7.84013 1.3386 8.01823 1.62777 7.82481 2.09121C7.79034 2.17547 7.79608 2.27697 7.77502 2.41868C8.02206 2.29037 8.22505 2.17164 8.43762 2.08163C8.50848 2.05099 8.6387 2.05865 8.69232 2.10461C9.63068 2.91084 10.5595 3.72664 11.4978 4.53287C11.5802 4.60372 11.7066 4.66118 11.8138 4.66501C12.5703 4.69756 13.3267 4.71288 14.0831 4.73778C14.5063 4.75118 14.5044 4.7531 14.5695 5.15334C14.5868 5.25292 14.6232 5.34867 14.65 5.44634C14.673 5.44826 14.6959 5.45017 14.7189 5.45209C14.7706 5.29505 14.83 5.13993 14.874 4.97907C14.9123 4.83928 14.9774 4.77991 15.1421 4.77416C16.4252 4.73012 17.7064 4.65352 18.9894 4.62096C20.2208 4.59032 21.4522 4.59415 22.6854 4.59798C23.6564 4.60181 24.6292 4.61905 25.6001 4.64969C25.8165 4.65543 26.0367 4.71863 26.2455 4.78565C26.4983 4.868 26.7396 4.9829 27 5.08823C26.9866 5.37931 26.9751 5.66848 26.956 5.95957C26.8813 7.15838 26.8066 8.35718 26.7319 9.55599C26.7147 9.82601 26.7051 10.096 26.6802 10.3641C26.6744 10.4254 26.6247 10.5135 26.573 10.5327C25.9946 10.7625 25.4105 10.9808 24.8035 11.2106C24.7805 10.9559 24.7537 10.728 24.7383 10.5001C24.6866 9.76664 24.6311 9.03319 24.589 8.29973C24.5756 8.07376 24.5009 7.94354 24.2558 7.91098C24.0758 7.88609 23.8938 7.83821 23.7272 7.76927C23.5376 7.69076 23.4495 7.76927 23.3634 7.91673C22.9976 8.54103 22.9784 9.2132 23.0397 9.90453C23.0991 10.569 23.1699 11.2336 23.1929 11.8981C23.2082 12.3711 23.0742 12.8269 22.8635 13.2941C22.5399 12.8307 22.2354 12.3941 21.9175 11.9402C21.4368 12.3041 20.9772 12.6507 20.5042 13.0069C20.2706 12.8058 20.0829 12.6105 20.0867 12.2466C20.1078 10.8046 20.0867 9.36066 20.0963 7.91864C20.0982 7.68884 20.0599 7.595 19.7957 7.5816C19.2269 7.55287 18.66 7.47818 18.0626 7.41882C17.9649 8.21739 17.8691 8.9968 17.7676 9.81835C17.3674 9.78771 16.9672 9.7609 16.5688 9.72068C16.5305 9.71685 16.4827 9.62876 16.4712 9.57323C16.3601 9.00638 16.2471 8.44145 16.1514 7.87077C16.1207 7.68884 16.0556 7.59692 15.8507 7.59309C14.5217 7.55862 13.1907 7.51649 11.8617 7.46669C11.6587 7.45903 11.5246 7.52797 11.3868 7.66969C9.82793 9.25533 8.1676 10.7318 6.3962 12.0857C6.34258 12.126 6.28513 12.1604 6.2181 12.2064C4.88716 10.8142 3.56387 9.43151 2.20994 8.01631C2.82084 7.69267 3.41067 7.37861 4.02922 7.05114C4.23413 7.27136 4.46776 7.52606 4.70714 7.77502C5.11121 8.19441 5.52294 8.60997 5.92893 9.02936C6.01319 9.11554 6.07064 9.15384 6.19512 9.07149C7.40733 8.25952 8.53146 7.35179 9.46024 6.22384C9.53876 6.12809 9.59621 6.06681 9.48131 5.94425C8.46251 4.8546 7.44946 3.7592 6.43641 2.6638C6.40769 2.63891 6.37705 2.61593 6.32726 2.57188Z" fill="#D49332"/>
</svg>