<svg width="65" height="65" viewBox="0 0 65 65" fill="none" xmlns="http://www.w3.org/2000/svg">
<path d="M44.3046 61.8738C44.2769 61.8877 44.2492 61.8923 44.2215 61.8877C44.1153 61.9246 44.0045 61.9661 43.8983 62.0031L43.9075 61.9938C43.7736 61.9984 43.6305 61.98 43.5013 62.0031C41.5024 62.3724 39.5081 62.7325 37.5138 63.1249C37.1352 63.1987 36.7752 63.3926 36.4105 63.5311L36.4197 63.5265C36.1381 63.5311 35.8242 63.4896 35.7503 63.8866L35.7365 63.8912C35.6903 63.9097 35.6441 63.9327 35.598 63.9512L35.6072 63.942C35.5703 63.9373 35.5287 63.9373 35.4918 63.9327C35.4595 63.9697 35.4272 64.0112 35.3948 64.0481L35.4041 64.0389C35.3672 64.0758 35.3256 64.1128 35.2887 64.1497L35.2979 64.1451C35.2287 64.182 35.1548 64.2236 35.0856 64.2605L35.0994 64.2466C35.0625 64.2882 35.0255 64.3297 34.9932 64.3667L35.0071 64.3528C34.9655 64.3898 34.924 64.4221 34.8824 64.459L34.8917 64.4498C34.8547 64.4867 34.8132 64.519 34.7763 64.556L34.7809 64.5513C34.3931 64.5929 34.0099 64.6298 33.6222 64.6714L33.6314 64.6806C33.6037 64.3297 33.576 63.9743 33.5437 63.6234L33.5391 63.628C33.6314 63.5773 33.7237 63.5219 33.816 63.4711L33.8022 63.4849C33.8437 63.448 33.8807 63.4111 33.9176 63.3788L33.9037 63.3926C33.9361 63.3511 33.9638 63.3141 33.9961 63.2726H34.0376L33.9961 63.268C34.4577 63.0187 34.4346 62.5894 34.4254 62.16L34.4116 62.1693C34.4624 62.0723 34.5131 61.9754 34.5639 61.883C34.5639 61.883 34.5593 61.8923 34.5593 61.8877C34.5777 61.8369 34.5962 61.7907 34.6147 61.7399H34.6101C34.9932 61.643 34.9747 61.3429 34.9609 61.0475L34.9517 61.0567C34.9886 60.9828 35.0255 60.909 35.0625 60.8397L35.0532 60.8536C35.0902 60.7797 35.1271 60.7105 35.1686 60.6366L35.164 60.6458C35.3487 60.2904 35.5333 59.9349 35.718 59.5795L35.7365 59.5471C35.8565 59.3625 35.9765 59.1778 36.0965 58.9932L36.0919 59.0024C36.1612 58.8962 36.235 58.7947 36.3043 58.6885L36.2997 58.6977C36.3735 58.5962 36.4428 58.49 36.5167 58.3884L36.512 58.3976C36.5444 58.3561 36.5813 58.3145 36.6136 58.273L36.6044 58.2822C36.7105 58.1484 36.8213 58.0099 36.9275 57.876L36.9229 57.8852C36.9598 57.8437 36.9921 57.8067 37.0291 57.7652L37.0152 57.779C37.0521 57.7375 37.0891 57.7006 37.126 57.659L37.1122 57.6729C37.1491 57.6313 37.186 57.5944 37.223 57.5528L37.2091 57.5667C37.2461 57.5251 37.283 57.4882 37.3199 57.4467L37.306 57.4605C37.343 57.419 37.3845 57.382 37.4215 57.3451L37.4076 57.3589C37.4446 57.322 37.4861 57.2805 37.523 57.2435L37.5092 57.2574C37.5507 57.2205 37.5877 57.1835 37.6292 57.1466L37.6153 57.1604C37.6569 57.1235 37.6938 57.0866 37.7354 57.0497L37.7215 57.0635C37.7631 57.0266 37.8 56.9896 37.8416 56.9527L37.8323 56.9619C37.9062 56.8973 37.98 56.8327 38.0585 56.7727H38.0631C38.1232 56.7265 38.1832 56.6803 38.2432 56.6342L38.2293 56.648C38.2709 56.6157 38.3171 56.5834 38.3586 56.5557L38.3494 56.5603C38.4186 56.5188 38.4832 56.4772 38.5525 56.4357L38.5386 56.4449C38.9218 56.3849 39.3004 56.311 39.6835 56.2649C40.6253 56.1541 41.567 56.0617 42.5041 55.9463C42.6334 55.9325 42.7442 55.8078 42.8642 55.734L42.8596 55.7432C42.9335 55.7478 43.0027 55.7478 43.0766 55.7524C44.4292 55.2585 45.7864 54.7691 47.139 54.266C47.1852 54.2475 47.1944 54.1275 47.2221 54.0536L47.236 54.0444C47.2821 54.0213 47.3237 54.0028 47.3698 53.9797L47.3606 53.989C47.6838 53.989 47.9792 53.9474 48.0346 53.5412L48.0485 53.5273C48.1823 53.4304 48.3162 53.3334 48.4501 53.2319L48.4593 53.2226C48.5378 53.1672 48.6163 53.1118 48.6947 53.0518L48.6855 53.0611C48.7271 53.0287 48.7686 52.9918 48.8102 52.9595L48.8009 52.9641C49.2672 52.8903 50.1582 52.0039 50.2459 51.5284L50.2413 51.533C50.2782 51.4961 50.3105 51.4545 50.3474 51.4176L50.3382 51.4269C50.3751 51.3853 50.4074 51.3438 50.4444 51.3068L50.4351 51.3161C50.5413 51.1822 50.6521 51.0437 50.7583 50.9098L50.7537 50.919C50.786 50.8775 50.8183 50.836 50.8506 50.7944L50.8414 50.8036C50.9152 50.7021 50.9891 50.6005 51.063 50.5036L51.0584 50.5128C51.0907 50.4713 51.123 50.4297 51.1553 50.3882L51.1461 50.3974C51.2199 50.2958 51.2892 50.1896 51.363 50.0881L51.3584 50.0973C51.4969 49.8896 51.6354 49.6818 51.7739 49.4741L51.7693 49.4833C51.8385 49.3772 51.9078 49.271 51.9724 49.1648L51.9632 49.174C52.0047 49.1048 52.0463 49.0402 52.0878 48.9709L52.0832 48.9755C52.1525 48.8694 52.2171 48.7632 52.2863 48.6524L52.2817 48.6616C52.3463 48.5508 52.411 48.4446 52.4802 48.3339L52.471 48.3431C52.5125 48.2738 52.5541 48.2092 52.5956 48.14L52.591 48.1492C52.6187 48.103 52.6418 48.0569 52.6695 48.0107L52.6603 48.0153C52.7387 47.8861 52.8218 47.7522 52.9003 47.6229L52.8911 47.6368C52.9326 47.5675 52.9696 47.4983 53.0111 47.429L53.0065 47.4383C53.0711 47.3275 53.1357 47.2213 53.2004 47.1105L53.1957 47.1151C53.2742 46.9812 53.3481 46.852 53.4266 46.7181L53.422 46.7227C53.4866 46.6119 53.5512 46.5011 53.6112 46.395L53.6066 46.3996C53.7497 46.1595 53.8882 45.9195 54.0313 45.684L54.0267 45.6933C54.1329 45.5178 54.2345 45.347 54.3406 45.1716L54.336 45.1808C54.4006 45.0747 54.4699 44.9639 54.5345 44.8577L54.5299 44.8623C54.6361 44.6915 54.7423 44.5207 54.8484 44.3499L54.8438 44.3591C54.9823 44.0452 55.1162 43.7359 55.2547 43.422L55.2501 43.4266C55.624 43.3297 55.9656 43.0481 56.3995 43.2189C56.4503 43.2373 56.5981 43.0204 56.6996 42.9142L56.695 42.9234C56.7089 42.6049 56.8335 42.2402 56.7227 41.9724C56.3719 41.123 56.3303 40.2736 56.4965 39.3872C56.5934 38.861 56.6396 38.3208 56.7042 37.7853L56.6996 37.79C57.0182 37.7576 57.3367 37.7253 57.6552 37.693C57.6829 37.6884 57.7106 37.693 57.7383 37.7069C57.7845 37.7299 57.826 37.753 57.8722 37.7761L57.863 37.7669C57.8953 37.8084 57.9322 37.85 57.9645 37.8915L57.9553 37.8823C57.9922 37.9192 58.0292 37.9562 58.0707 37.9977L58.0615 37.9885C58.0984 38.0254 58.1399 38.0623 58.1769 38.0993L58.1676 38.09C58.2046 38.127 58.2415 38.1685 58.2784 38.2054L58.2692 38.1962C58.3108 38.2331 58.3477 38.2701 58.3892 38.307L58.38 38.2931C58.4123 38.3347 58.4492 38.3762 58.4816 38.4178L58.4769 38.4132C58.5277 38.4732 58.5739 38.5286 58.6247 38.5886L58.6108 38.5794C58.6431 38.6255 58.6801 38.6671 58.7124 38.7132C58.7447 38.704 58.7678 38.7132 58.7816 38.7456C59.1002 38.8333 59.4141 38.921 59.7326 39.0087L59.7234 39.0041C59.7557 39.0456 59.788 39.0918 59.8203 39.1333L59.8065 39.1195C59.848 39.1564 59.8896 39.1887 59.9311 39.2257L59.9219 39.2164C59.9911 39.3226 60.0557 39.4334 60.125 39.5396L60.1204 39.5303C60.2219 39.7381 60.3235 39.9504 60.4251 40.1582L60.4205 40.1536C60.462 40.2228 60.4989 40.2921 60.5405 40.3567L60.5312 40.3475C60.5682 40.4213 60.6051 40.4952 60.642 40.5644L60.6328 40.5552C60.7067 40.6567 60.7805 40.7583 60.8544 40.8645L60.8498 40.8553C60.9883 41.2707 61.1222 41.6862 61.2606 42.1017L61.2514 42.0925C61.2468 42.1294 61.2422 42.1709 61.2422 42.2079C61.293 42.2263 61.3437 42.2402 61.3945 42.2586C61.3945 42.2586 61.3991 42.2679 61.3991 42.2725C61.4176 43.1819 61.4361 44.0914 61.4545 45.0008C61.4591 45.0285 61.4545 45.0562 61.4361 45.0793C61.4084 45.1208 61.3807 45.1578 61.353 45.1993L61.3622 45.1901C61.3253 45.2593 61.2883 45.3332 61.2514 45.4024L61.256 45.3932C61.2237 45.4347 61.1914 45.4763 61.1545 45.5178L61.1637 45.504C61.1221 45.5409 61.0852 45.5779 61.0437 45.6148L61.0575 45.6009C61.016 45.7025 60.9744 45.8041 60.9329 45.901C60.8359 46.3534 60.739 46.8012 60.6374 47.2536L60.6467 47.2398C60.6051 47.3459 60.5682 47.4475 60.5266 47.5537L60.5359 47.5444C60.4989 47.6506 60.462 47.7568 60.4297 47.863L60.4343 47.8537C60.4205 47.8999 60.4066 47.9415 60.3928 47.9876L60.3743 48.0199C60.3235 48.1077 60.2681 48.1954 60.2173 48.2831C60.2219 48.3108 60.2173 48.3385 60.1989 48.3616C60.1712 48.4031 60.1435 48.4447 60.1158 48.4862L60.1296 48.4723C60.0881 48.5462 60.0511 48.6201 60.0096 48.6939C60.0142 48.7216 60.0096 48.7493 59.9911 48.7724C59.9311 48.8832 59.8757 48.994 59.8157 49.1048L59.8203 49.1002C59.7465 49.2064 59.6726 49.3079 59.5987 49.4141C59.6034 49.4418 59.5987 49.4695 59.5803 49.4926C59.5572 49.5341 59.5295 49.5757 59.5064 49.6172L59.5156 49.608C59.4094 49.7788 59.2987 49.945 59.1925 50.1158L59.1971 50.1112C59.1278 50.2174 59.0586 50.3189 58.9848 50.4205L58.9894 50.4159C58.9571 50.4574 58.9247 50.499 58.897 50.5405L58.9063 50.5313C58.8324 50.6328 58.7632 50.739 58.6893 50.8406L58.6985 50.8313C58.6616 50.8683 58.6201 50.9052 58.5831 50.9421L58.597 50.9283C58.56 50.9975 58.5185 51.0668 58.4816 51.136L58.4862 51.1314C58.4539 51.1729 58.4215 51.2145 58.3892 51.2561L58.3985 51.2468C58.3246 51.3484 58.2507 51.4499 58.1769 51.5515L58.1815 51.5423C58.1492 51.5838 58.1169 51.6254 58.0845 51.6669L58.0938 51.6577C58.043 51.7362 57.9922 51.81 57.9414 51.8885L57.9137 51.9254C57.5675 51.8931 57.5583 52.1285 57.5629 52.3732L57.5721 52.364C57.5352 52.4009 57.4983 52.4379 57.4613 52.4794L57.4752 52.4656C57.4336 52.5348 57.3967 52.604 57.3551 52.6733L57.3598 52.6687C57.2813 52.7841 57.2028 52.8995 57.1243 53.0149L57.1012 53.0472C57.0505 53.0934 56.9997 53.1442 56.9535 53.1903L56.9628 53.1811C56.9258 53.2503 56.8889 53.3242 56.8474 53.3934L56.852 53.3842C56.815 53.4211 56.7781 53.4627 56.7458 53.4996L56.755 53.4858C56.7181 53.5596 56.6812 53.6289 56.6442 53.7027L56.6488 53.6935C56.6119 53.7351 56.575 53.772 56.5381 53.8135C56.5104 53.8782 56.4827 53.9382 56.455 54.0028C56.0626 54.1921 55.9102 54.5106 55.9287 54.9307L55.9379 54.9215C55.9148 55 55.8918 55.0831 55.8687 55.1615L55.8548 55.1292L55.8733 55.1615C55.8225 55.2585 55.7717 55.3554 55.7209 55.4524C55.7256 55.4847 55.7209 55.5124 55.7071 55.5401C55.684 55.614 55.6609 55.6924 55.6332 55.7663L55.6425 55.7571C55.5686 55.9325 55.4993 56.1033 55.4255 56.2787L55.4347 56.2695C55.3286 56.5465 55.2224 56.8188 55.1162 57.0958L55.1254 57.0866C55.0193 57.3312 54.9177 57.5713 54.8115 57.816L54.8207 57.8067C54.7838 57.8437 54.7423 57.8806 54.7053 57.9175L54.7146 57.9083C54.6638 57.9914 54.6084 58.0699 54.5576 58.153L54.5391 58.1622C54.493 58.1807 54.4468 58.2038 54.4007 58.2222L54.4099 58.213C53.722 58.1576 53.0619 58.2314 52.4202 58.4992C52.1571 58.6054 51.8662 58.6469 51.5892 58.7162C50.4905 58.9839 49.3918 59.2425 48.2931 59.5194C48.1639 59.5518 48.0531 59.6764 47.9377 59.7595L47.9469 59.7549C47.7438 59.861 47.5407 59.9718 47.3375 60.078L47.3468 60.0734C47.2729 60.1057 47.199 60.1426 47.1252 60.175L47.139 60.1657C47.0975 60.1934 47.0559 60.2211 47.0144 60.2488C46.9913 60.2627 46.9636 60.2673 46.9359 60.2673C46.9036 60.3088 46.8667 60.3504 46.8343 60.3966L46.839 60.3919C46.7651 60.4242 46.6866 60.4566 46.6128 60.4889C46.1696 60.7613 45.731 61.029 45.2879 61.3014C45.2509 61.3383 45.214 61.3798 45.177 61.4168L45.1863 61.4076C45.1493 61.4491 45.1124 61.486 45.0801 61.5276L45.0893 61.5183C45.0155 61.5507 44.9416 61.5876 44.8631 61.6199L44.8724 61.6107C44.8031 61.6476 44.7292 61.6845 44.66 61.7215L44.6692 61.7122C44.6 61.7492 44.5261 61.7861 44.4569 61.823L44.4707 61.8138C44.3876 61.8138 44.3461 61.8415 44.3046 61.8738Z" fill="#32D499"/>
<path d="M61.3254 37.8777C61.2931 37.8454 61.2654 37.8131 61.2331 37.7808C61.1823 37.73 61.1315 37.6838 61.0761 37.633L61.0623 37.6146C61.0715 37.1529 60.7668 36.9775 60.3883 36.8713L60.3975 36.8806C60.3606 36.839 60.3236 36.8021 60.2867 36.7605L60.2959 36.7698C60.1944 36.6636 60.0974 36.5528 59.9959 36.4466L60.0005 36.4512C60.0097 36.1512 59.9036 35.9527 59.5712 35.948L59.5804 35.9573C59.5435 35.9157 59.5065 35.8788 59.4742 35.8372L59.4835 35.8511C59.4511 35.8095 59.4142 35.7726 59.3819 35.7311L59.3865 35.7357C59.3357 35.6803 59.2849 35.6203 59.2388 35.5649L59.2665 35.551L59.2434 35.5741C59.1834 35.4956 59.1234 35.4172 59.0633 35.3387L59.0726 35.3479C59.0403 35.3064 59.0033 35.2648 58.971 35.2233L58.9756 35.2325C58.9895 35.0017 59.0033 34.7709 58.6571 34.8216L58.6617 34.8263C58.6109 34.7709 58.5648 34.7155 58.514 34.6601L58.5048 34.6508C58.454 34.5677 58.3986 34.4846 58.3478 34.4062L58.3524 34.4154C58.2786 34.3138 58.2047 34.2123 58.1308 34.1107L58.1354 34.1153C58.0893 34.0599 58.0431 34.0045 58.0016 33.9491L57.9877 33.9307C57.9923 33.8476 58.0339 33.7506 58.0016 33.6906C57.7523 33.2105 57.8862 32.8135 58.1262 32.3519C58.3663 31.8856 58.5002 31.3362 58.5509 30.81C58.6063 30.2791 58.5555 29.7205 58.4586 29.1896C58.1955 27.7447 58.02 26.2628 57.5676 24.8733C56.7551 22.3712 55.7718 19.9198 54.8486 17.4547C54.7932 17.3116 54.6501 17.1962 54.5485 17.0715L54.5531 17.0807C54.5716 16.7668 54.5623 16.4668 54.1884 16.3467C53.7499 15.7281 53.3621 15.0726 52.8681 14.5048C52.1018 13.623 51.2662 12.7967 50.4537 11.9565C49.909 11.3933 49.175 11.2779 48.4548 11.1117C47.8962 10.9825 47.3977 11.1994 46.8852 11.3241C46.4328 11.2271 45.9758 11.1256 45.5188 11.0286L45.528 11.0379C45.4911 11.0009 45.4495 10.9594 45.4126 10.9224L45.4218 10.9317C45.4218 10.6455 45.4265 10.3592 45.4265 10.073L45.4172 10.0823C45.4541 10.0453 45.4911 10.0038 45.528 9.96685L45.5188 9.97608C45.8235 9.9807 46.1328 10.0038 46.4375 9.97608C46.5483 9.96685 46.6498 9.83759 46.7606 9.76373L46.756 9.77296C46.7929 9.77757 46.8345 9.78218 46.8714 9.78218C47.6839 9.72217 48.0301 9.48212 48.0855 8.93739L48.0763 8.94661C48.1132 8.90507 48.1455 8.86352 48.1824 8.82198L48.1732 8.8312C48.2517 8.8035 48.3302 8.78043 48.4086 8.75273C48.4086 8.71118 48.4041 8.67425 48.4041 8.6327C48.4364 8.605 48.464 8.57269 48.4964 8.54499C49.2812 8.32802 50.066 8.11567 50.8508 7.88946C51.991 7.5617 53.1312 7.22931 54.2715 6.89692L54.2623 6.8877C54.4054 6.95233 54.5485 7.02157 54.6962 7.0862L54.687 7.07697C54.7239 7.11852 54.7608 7.16007 54.7932 7.197L54.7839 7.18776C54.8209 7.26162 54.8532 7.33549 54.8901 7.40935L54.8809 7.40012C54.9501 7.57555 55.0194 7.75097 55.0886 7.92639L55.084 7.91716C55.1486 8.19415 55.2086 8.47113 55.2733 8.74811C55.2871 8.77581 55.2917 8.8035 55.2871 8.8312C55.361 9.00663 55.4302 9.18206 55.5041 9.35748L55.4949 9.34824C55.5318 9.41749 55.5687 9.49136 55.6057 9.56061L55.5964 9.55136C55.6333 9.62523 55.6703 9.69447 55.7072 9.76834L55.698 9.75911C55.758 9.83297 55.8134 9.90222 55.8734 9.97608C55.9057 9.98993 55.915 10.0176 55.9057 10.0499C55.9796 10.1561 56.0535 10.2623 56.1273 10.3685L56.1181 10.3592C56.1504 10.4008 56.1827 10.4423 56.215 10.4885L56.2104 10.4793C56.2566 10.5393 56.3073 10.5993 56.3535 10.6593L56.3443 10.6501C56.3766 10.6962 56.4043 10.7378 56.4366 10.784L56.4228 10.7701C56.4551 10.8117 56.4874 10.8532 56.5243 10.8947L56.5197 10.8855C56.5705 10.9409 56.6213 11.0009 56.6674 11.0563V11.084L56.6628 11.0563C56.6859 11.1025 56.709 11.1533 56.7367 11.1994L56.7228 11.1856C56.7644 11.2225 56.8059 11.2548 56.8429 11.2918C56.8429 11.2918 56.829 11.2779 56.829 11.2825C56.8613 11.3241 56.8983 11.3656 56.9306 11.4072L56.9259 11.3979C56.9998 11.5041 57.0737 11.6103 57.1476 11.7119C57.2445 11.8411 57.3414 11.975 57.4384 12.1042C57.4799 12.1412 57.5215 12.1781 57.563 12.215L57.5492 12.2012C57.5815 12.2427 57.6184 12.2843 57.6507 12.3258L57.6461 12.3166C57.7246 12.4136 57.7984 12.5151 57.8769 12.6121L57.8631 12.6028C57.8954 12.6444 57.9323 12.6905 57.9646 12.7321L57.9554 12.7229C58.0247 12.829 58.0939 12.9352 58.1631 13.0414L58.1539 13.0321C58.1955 13.0645 58.237 13.1014 58.2786 13.1337L58.2693 13.1245C58.3017 13.166 58.334 13.2076 58.3709 13.2537L58.3663 13.2445C58.417 13.2999 58.4678 13.3553 58.5186 13.4107V13.4199C58.5417 13.4661 58.5602 13.5169 58.5833 13.563L58.5694 13.5492C58.6109 13.5861 58.6525 13.6184 58.694 13.6507L58.6848 13.6415C58.7217 13.6831 58.7541 13.7246 58.791 13.7662L58.7771 13.7523C58.8141 13.7939 58.8464 13.8354 58.8833 13.8723L58.8787 13.8631C58.9526 13.9647 59.0218 14.0708 59.0957 14.1724L59.0864 14.1632C59.1234 14.2001 59.1649 14.237 59.2018 14.2786L59.188 14.2647C59.2295 14.2971 59.2711 14.334 59.3126 14.3663L59.2988 14.3524C59.3357 14.394 59.3726 14.4309 59.4096 14.4725L59.3957 14.4586C59.4327 14.5002 59.4696 14.5371 59.5065 14.5786L59.4927 14.5648C59.5296 14.6063 59.5665 14.6433 59.6035 14.6848L59.5896 14.671C59.6266 14.7079 59.6635 14.7495 59.7004 14.7864L59.6866 14.7725C59.7235 14.8095 59.7651 14.8464 59.802 14.8879L59.7881 14.8741C59.8251 14.911 59.862 14.9526 59.8989 14.9895L59.8897 14.9803C59.9266 15.0172 59.9682 15.0541 60.0051 15.0911L59.9913 15.0818C60.0282 15.1188 60.0697 15.1557 60.1067 15.1972L60.0928 15.1834C60.1343 15.2203 60.1713 15.2573 60.2128 15.2942L60.199 15.2803C60.2405 15.3173 60.2775 15.3542 60.319 15.3911L60.3052 15.3773C60.3421 15.4188 60.3744 15.4604 60.4113 15.5019L60.3975 15.4881C60.4344 15.525 60.4714 15.5666 60.5129 15.6035L60.5037 15.5943C60.6098 15.6635 60.7114 15.7374 60.8176 15.8066L60.8084 15.7974C60.8499 15.8297 60.8914 15.862 60.9376 15.8989L60.9238 15.8851C60.9607 15.9266 60.993 15.9682 61.0299 16.0097L61.0161 15.9959C61.0899 16.0328 61.1592 16.0744 61.2331 16.1113L61.2238 16.1021C61.2608 16.139 61.2977 16.1759 61.3346 16.2175L61.3208 16.2036C61.3946 16.2406 61.4639 16.2775 61.5377 16.3144L61.5285 16.3098C61.5655 16.3467 61.6024 16.3837 61.6439 16.4206L61.6301 16.4067C61.7039 16.4391 61.7824 16.476 61.8563 16.5083L61.8424 16.4991C61.9117 16.5406 61.9855 16.5775 62.0548 16.6191L62.0409 16.6099C62.1102 16.6468 62.1841 16.6837 62.2533 16.7253L62.2441 16.7207C62.3872 16.7899 62.5257 16.8545 62.6688 16.9238L62.6549 16.9146C62.7242 16.9561 62.7934 16.993 62.8626 17.0346L62.8534 17.0253C63.0612 17.0992 63.2689 17.1685 63.472 17.2423L63.4628 17.2377C63.6428 17.3023 63.8183 17.3716 63.9983 17.4362L63.9891 17.427C64.026 17.4685 64.0583 17.5101 64.0953 17.5516L64.086 17.5424C64.1229 17.5793 64.1599 17.6163 64.2014 17.6532L64.1922 17.6439C64.2291 17.6809 64.266 17.7178 64.3076 17.7547L64.2984 17.7455C64.3353 17.7824 64.3722 17.8194 64.4138 17.8609L64.3999 17.8517C64.4415 17.884 64.4877 17.9163 64.5292 17.9486L64.52 17.9394C64.5569 17.9809 64.5938 18.0179 64.6307 18.0594L64.6169 18.0456C64.6538 18.0871 64.6908 18.1241 64.7277 18.1656L64.7185 18.1564C64.6861 18.378 64.6492 18.5949 64.6169 18.8165L64.6261 18.8073C64.5892 18.8488 64.5523 18.8858 64.5153 18.9273L64.5292 18.9135C64.4923 18.9504 64.4507 18.9919 64.4138 19.0289C64.4138 19.0289 64.423 19.015 64.423 19.0196C64.3815 19.0566 64.3399 19.0889 64.2984 19.1258L64.3122 19.1166C63.9337 19.3613 64.1137 19.4998 64.4092 19.6152L64.4045 19.6105C64.4184 19.7629 64.4368 19.9198 64.4507 20.0722V20.0814C64.3999 20.1322 64.3492 20.183 64.2984 20.2338C64.2661 20.3076 64.2337 20.3815 64.2014 20.46L64.2107 20.4507C64.1737 20.5246 64.1368 20.5938 64.0999 20.6677L64.1091 20.6585C64.0029 20.9031 63.8967 21.1478 63.7906 21.3879C63.7952 21.4156 63.7906 21.4433 63.7767 21.471C63.6475 21.9511 63.4074 22.4312 63.4259 22.9067C63.4489 23.5622 63.6705 24.2085 63.8044 24.8548L63.7952 24.8456C63.8136 24.9979 63.7952 25.1641 63.8552 25.2934C64.2384 26.0781 64.1553 26.9137 64.2107 27.7447C64.2707 28.631 64.46 29.5128 64.5892 30.3945C64.6031 30.4222 64.6077 30.4499 64.6077 30.4822C64.6261 30.6992 64.64 30.9161 64.6631 31.1377C64.7785 32.2918 64.9493 33.4459 64.9955 34.6093C65.0278 35.3618 64.88 36.1188 64.8154 36.8759L64.8246 36.8667C64.7508 37.1806 64.6815 37.4899 64.6077 37.8038C64.6123 37.8362 64.6077 37.8639 64.5938 37.8916C64.5661 37.9977 64.5384 38.1039 64.5107 38.2101L64.52 38.2008C64.483 38.307 64.4507 38.4178 64.4138 38.524L64.423 38.5148C64.3491 38.7225 64.2753 38.9256 64.2014 39.1334L64.206 39.1241C64.1645 39.5673 64.1276 40.0059 64.086 40.4491L64.0445 40.4629H64.0029C63.6844 40.4306 63.3659 40.3983 63.0473 40.366L63.0566 40.3752C63.015 40.3383 62.9735 40.3059 62.9319 40.269L62.9458 40.2829C62.9135 40.2413 62.8811 40.1951 62.8488 40.1536L62.8534 40.1628C62.8027 40.1074 62.7519 40.052 62.7011 39.9966C62.7103 39.9874 62.7196 39.9828 62.7288 39.9736C62.7196 39.9782 62.7103 39.9874 62.6965 39.992C62.6041 39.8812 62.5118 39.7704 62.4195 39.655L62.4241 39.6596C62.2949 39.3088 62.5718 38.801 62.0225 38.6117C61.9579 38.5471 61.8932 38.4825 61.8286 38.4178C61.7547 38.344 61.6855 38.2701 61.6116 38.2008C61.547 38.1362 61.4824 38.0716 61.4177 38.007C61.4039 37.9516 61.3623 37.9146 61.3254 37.8777Z" fill="#32D499"/>
<path d="M39.6052 1.55574C39.6375 1.55113 39.6652 1.55573 39.6929 1.5742C39.9376 1.63883 40.1822 1.69885 40.4269 1.76347C40.4592 1.75886 40.4869 1.76348 40.5146 1.77272C40.787 1.83735 41.0594 1.9389 41.3364 1.9666C41.9273 2.03123 42.5228 2.02661 43.109 2.10971C43.6261 2.18819 44.1247 2.34976 44.6325 2.47441L44.6232 2.46518C45.0387 2.57136 45.4496 2.67753 45.8651 2.77909L45.8558 2.76985C46.3729 2.90834 46.8899 3.04684 47.4023 3.18995L47.3931 3.18072C47.5362 3.21765 47.6747 3.25458 47.8178 3.29613C47.8501 3.29151 47.8778 3.29613 47.9055 3.3146C48.0579 3.37923 48.2056 3.4854 48.3579 3.49925C49.5766 3.61005 50.8 3.70238 52.0233 3.80394L52.0141 3.7947C52.051 3.83163 52.088 3.86856 52.1295 3.91011L52.1203 3.90088C52.148 3.94243 52.1757 3.97936 52.2034 4.02091C52.2172 4.04861 52.2219 4.0763 52.2219 4.104C52.1849 4.24711 52.148 4.39022 52.1157 4.53333C52.1157 4.60719 52.1203 4.67643 52.1203 4.7503L52.1295 4.74107C52.0926 4.81032 52.0557 4.88417 52.0187 4.95342L52.0233 4.94419C51.9864 4.98574 51.9541 5.02728 51.9172 5.06421L51.931 5.05036C51.8941 5.08729 51.8525 5.12423 51.8156 5.16117L51.8295 5.14732C51.7879 5.18425 51.751 5.21655 51.7094 5.25349L51.7187 5.24888C51.6494 5.28581 51.5756 5.32274 51.5063 5.36429L51.5156 5.35505C51.414 5.42891 51.3124 5.50278 51.2109 5.57664L51.2201 5.56741C51.1462 5.60434 51.077 5.64589 51.0031 5.68282L51.017 5.67358C50.9385 5.7059 50.8646 5.73821 50.7862 5.77052L50.8 5.76129C50.7262 5.82131 50.6523 5.88593 50.5738 5.94595C50.5507 5.9598 50.523 5.96442 50.4953 5.96442C50.3891 6.03828 50.283 6.10753 50.1722 6.18139L50.1814 6.17216C50.0752 6.24141 49.9737 6.31065 49.8675 6.38451L49.8721 6.37989C49.0827 6.71689 48.2887 7.05851 47.4993 7.39551C46.1882 7.66326 44.891 8.0418 43.5707 8.16644C42.7028 8.24954 41.8072 8.53114 40.9209 8.22646L40.9255 8.2357C40.8147 8.10183 40.7039 7.96794 40.5977 7.83406L40.6116 7.8433C40.5746 7.80637 40.5331 7.76482 40.4962 7.72789L40.5054 7.74174C40.4084 7.66326 40.3115 7.58478 40.2145 7.51092L40.2192 7.51554C40.1084 7.45091 40.0022 7.38627 39.8914 7.31702L39.9006 7.32165C39.7714 7.21547 39.6514 7.04928 39.5082 7.01696C38.5019 6.79999 37.4909 6.6061 36.4845 6.40759C35.2104 6.1583 33.9362 5.89979 32.6529 5.6782C32.4959 5.6505 32.3066 5.80746 32.1312 5.88133L32.1404 5.8767C31.9004 6.0152 31.6557 6.15369 31.4157 6.29218L31.4249 6.28757C31.3233 6.28757 31.2079 6.25525 31.1202 6.29218C29.883 6.8323 28.5766 6.64303 27.2932 6.6892C26.4807 6.72151 25.6682 6.79999 24.8696 6.9154C24.5741 6.95695 24.3064 7.17392 24.0248 7.3078L24.034 7.30318C23.9278 7.34011 23.8263 7.38166 23.7201 7.41859L23.7293 7.40936C23.6739 7.46014 23.6185 7.51091 23.5631 7.56169L23.5493 7.56632C23.4662 7.58016 23.3877 7.59401 23.3046 7.60324C23.1061 7.74635 22.903 7.89408 22.7045 8.03718L22.7091 8.03258C22.6352 8.06489 22.5614 8.10182 22.4875 8.13414L22.4967 8.1249C22.3259 8.23108 22.1505 8.33265 21.9797 8.43882L21.9843 8.4342C21.8689 8.5173 21.7489 8.60039 21.6335 8.6881L21.6012 8.70657C21.3473 8.64656 21.1395 8.66502 21.121 8.99279L21.0887 9.01126C20.941 9.09435 20.7933 9.17745 20.6456 9.26055L20.6548 9.25593C20.5809 9.29286 20.5117 9.32978 20.4378 9.36672L20.4471 9.35749C20.3778 9.39442 20.3039 9.43135 20.2347 9.46828L20.2439 9.45905C20.1701 9.52368 20.0962 9.59292 20.0223 9.65755H20.027C19.9623 9.6991 19.8931 9.74064 19.8285 9.78219L19.8377 9.77296C19.7315 9.84221 19.63 9.91607 19.5238 9.98531L19.533 9.98071C19.4268 10.05 19.3253 10.1238 19.2191 10.1931L19.2237 10.1884C18.8544 10.1838 18.5497 10.2669 18.4989 10.7055L18.5082 10.6962C18.4666 10.7286 18.4251 10.7609 18.3835 10.7978L18.3928 10.7932C18.2543 10.8994 18.1204 11.0055 17.9819 11.1117L17.9911 11.1025C17.9496 11.1348 17.908 11.1717 17.8711 11.2041L17.8803 11.1994C17.7741 11.2733 17.6726 11.3425 17.5664 11.4164C17.2802 11.7211 16.9986 12.0212 16.7124 12.3258C16.657 12.3997 16.6016 12.4736 16.5462 12.5474L16.5554 12.5382C16.5277 12.5844 16.5 12.6305 16.4677 12.6767L16.4816 12.6628C16.4354 12.7275 16.3892 12.7921 16.3431 12.8567L16.3523 12.8429C16.3153 12.9121 16.2738 12.986 16.2369 13.0552L16.2415 13.046C16.2046 13.1152 16.1676 13.1891 16.1307 13.2584L16.1353 13.2491C16.103 13.2953 16.0707 13.3368 16.0384 13.383L16.0476 13.3738C15.8676 13.263 15.5537 13.1753 15.5306 13.0368C15.3828 12.1504 15.2397 11.2594 15.212 10.3639C15.1705 9.02972 15.4752 7.73713 15.9183 6.47685C16.0476 6.15831 16.1769 5.84439 16.3061 5.52585L16.3015 5.53509C16.3754 5.43353 16.4538 5.33659 16.5277 5.23503L16.5231 5.24426C16.56 5.20733 16.597 5.17039 16.6385 5.13807L16.6339 5.1427C17.0263 5.16578 17.4233 5.23041 17.8111 5.19809C18.1435 5.17039 18.4712 5.03651 18.799 4.9488C18.8129 4.9211 18.8359 4.9165 18.8636 4.93034C18.9421 4.89341 19.0206 4.85647 19.0991 4.81954L19.0898 4.82878C19.1637 4.79185 19.2329 4.75491 19.3068 4.71798L19.293 4.72722C19.3345 4.69952 19.376 4.67183 19.413 4.64413C19.436 4.63028 19.4638 4.62104 19.4915 4.62566C19.5653 4.58873 19.6392 4.54718 19.713 4.51025L19.7038 4.51948C19.7777 4.52409 19.8469 4.5241 19.9208 4.52872C20.2255 4.35329 20.5301 4.17786 20.8348 3.99782L20.8256 4.00244C21.0056 3.97013 21.1949 3.96089 21.3657 3.90088C22.0074 3.67467 22.626 3.37461 23.2769 3.20842C24.6664 2.85757 26.0883 2.6129 27.4732 2.23897C28.1242 2.06354 28.7243 1.70347 29.3475 1.42649L29.3383 1.43109C29.5322 1.348 29.7261 1.26491 29.9246 1.18182H29.9384C30.0215 1.20028 30.1138 1.25105 30.1831 1.22797C30.8063 1.02023 31.4295 0.803257 32.0481 0.577052C32.0896 0.563203 32.0989 0.461654 32.122 0.40164L32.1174 0.410868C32.2235 0.272375 32.3297 0.138493 32.4359 0L32.4313 0.00462093C33.5346 0.0738672 34.6379 0.143115 35.7366 0.207744C35.7643 0.203128 35.792 0.207744 35.8197 0.221593C36.2029 0.350853 36.5814 0.480115 36.9646 0.613991L36.9554 0.604764C37.8186 0.932529 38.7096 1.24644 39.6052 1.55574Z" fill="#32D499"/>
<path d="M19.9854 60.4658C19.9161 60.4335 19.8515 60.4012 19.7823 60.3689C19.4037 60.1935 19.0205 60.0227 18.642 59.8472L18.6512 59.8519C18.3419 59.6764 18.0326 59.5056 17.7233 59.3302L17.7326 59.3348C17.6264 59.2656 17.5202 59.201 17.4094 59.1317L17.4186 59.1409C17.354 59.0994 17.2894 59.0532 17.2201 59.0117H17.2248C17.1832 58.9794 17.1371 58.9517 17.0955 58.9193L17.1093 58.9332C17.0355 58.8963 16.9662 58.8547 16.8924 58.8178L16.9062 58.827C16.6292 58.4762 16.283 58.5916 15.9322 58.6701C15.4244 58.7901 14.9166 58.9517 14.4041 58.9932C13.7163 59.0486 13.5039 58.8178 13.6563 58.1623C13.804 57.5206 13.6239 56.9574 13.4162 56.3896C13.3516 56.2141 13.1438 56.0849 13.0053 55.9371L13.01 55.9464C12.9638 55.8864 12.913 55.8217 12.8669 55.7617L12.8807 55.771C12.8484 55.7248 12.8161 55.6832 12.7838 55.6371L12.7976 55.6509C12.7653 55.6094 12.7284 55.5678 12.696 55.5217L12.7099 55.5355C12.673 55.494 12.636 55.457 12.6037 55.4155L12.613 55.4247C12.576 55.3878 12.5391 55.3509 12.5068 55.3093L12.5114 55.3139C12.4606 55.2678 12.4098 55.217 12.3591 55.1708L12.336 55.1477C12.3267 55.097 12.3175 55.0462 12.3083 54.9954C12.2344 54.9631 12.1605 54.9308 12.0913 54.8984C12.059 54.8708 12.0313 54.8384 11.999 54.8107C11.962 54.7738 11.9251 54.7323 11.8882 54.6953L11.8974 54.7046C11.8605 54.6676 11.8236 54.6307 11.782 54.5938L11.7912 54.603C11.7543 54.5661 11.7128 54.5291 11.6758 54.4922L11.6851 54.5014C11.6481 54.4645 11.6066 54.4276 11.5696 54.3906L11.5789 54.3999C11.542 54.363 11.5004 54.326 11.4635 54.2845L11.4727 54.2937C11.4358 54.2568 11.3989 54.2198 11.3573 54.1783L11.3665 54.1875C11.3296 54.1506 11.2927 54.1137 11.2511 54.0721L11.2603 54.0813C11.2234 54.0444 11.1865 54.0075 11.1449 53.9659L11.1542 53.9752C11.1172 53.9382 11.0803 53.9013 11.0388 53.8598L11.048 53.869C11.0111 53.8321 10.9741 53.7951 10.9326 53.7536L10.9418 53.7628C10.9049 53.7259 10.868 53.689 10.8264 53.6474L10.8356 53.6566C10.7987 53.6197 10.7618 53.5828 10.7202 53.5412L10.7294 53.5504C10.6925 53.5135 10.6556 53.4766 10.614 53.435L10.6233 53.4443C10.5863 53.4073 10.5448 53.3704 10.5079 53.3335L10.5217 53.3473C10.4848 53.3104 10.4433 53.2689 10.4063 53.2319L10.4202 53.2458C10.3832 53.2088 10.3463 53.1673 10.3047 53.1304C10.3047 53.1304 10.3186 53.1396 10.314 53.1396C10.2771 53.1027 10.2355 53.0657 10.1986 53.0242L10.2124 53.0334C10.1755 52.9965 10.1339 52.9595 10.097 52.918L10.1109 52.9319C10.0739 52.8949 10.0324 52.858 9.99545 52.8164L10.0093 52.8303C9.96774 52.7934 9.93081 52.7564 9.88926 52.7195L9.90312 52.7333C9.86157 52.6964 9.82464 52.6595 9.78309 52.6179L9.79695 52.6318C9.7554 52.5949 9.71847 52.5579 9.67692 52.521L9.69076 52.5348C9.65382 52.4979 9.61228 52.4564 9.57535 52.4194C9.57535 52.4194 9.58459 52.4333 9.58459 52.4287C9.56151 52.3917 9.53843 52.3594 9.51074 52.3225C9.42303 52.2625 9.33531 52.2025 9.2476 52.1424C9.25683 52.1332 9.26607 52.124 9.27992 52.1147C9.27068 52.124 9.26145 52.1332 9.2476 52.1424C9.17835 52.0824 9.1091 52.027 9.04447 51.967L9.01678 51.9439C8.966 51.8932 8.91983 51.847 8.86905 51.7962L8.87826 51.8054C8.83671 51.7731 8.79519 51.7362 8.75826 51.7039L8.76747 51.7131C8.67053 51.6346 8.56899 51.5562 8.47204 51.4823H8.47664C8.4397 51.45 8.39816 51.4177 8.36123 51.3807L8.37047 51.39C8.32892 51.3577 8.28737 51.3207 8.25044 51.2884C8.25044 51.2884 8.26429 51.2976 8.25968 51.2976C8.21813 51.2607 8.18119 51.2238 8.13965 51.1868L8.15351 51.2007C8.11658 51.1638 8.07503 51.1222 8.0381 51.0853L8.05193 51.0945C8.015 51.053 7.97808 51.016 7.94114 50.9745L7.95039 50.9883C7.91807 50.9468 7.88575 50.9053 7.85343 50.8637L7.85805 50.8683C7.65031 50.2266 7.45643 49.5803 7.23023 48.9479C7.18406 48.8186 7.02246 48.7263 6.91628 48.6201L6.92091 48.6247C6.85166 48.5186 6.78243 48.4124 6.71319 48.3062L6.71778 48.3108C6.64392 48.2093 6.56544 48.1123 6.49158 48.0107L6.50082 48.02C6.46851 47.9784 6.43156 47.9369 6.39925 47.8953L6.41311 47.9092C6.37618 47.8677 6.34387 47.8307 6.30694 47.7892L6.31153 47.7984C6.26075 47.7476 6.20999 47.6922 6.15921 47.6414L6.18691 47.623L6.15459 47.6322C6.12228 47.5953 6.08996 47.563 6.06226 47.526L6.08071 47.4799L6.06688 47.526C6.02995 47.4891 5.99764 47.4522 5.96071 47.4152H6.00224L5.96071 47.4198C5.99764 47.1059 5.88222 46.9536 5.54984 47.0321L5.5406 47.0228C5.48982 46.9721 5.43444 46.9167 5.38366 46.8659C5.31903 46.8059 5.24976 46.7412 5.18513 46.6812C5.14358 46.6443 5.10667 46.6028 5.06512 46.5658L5.07896 46.5797C5.03741 46.5427 4.99585 46.5058 4.95431 46.4735L4.96355 46.4827C4.94508 46.2057 4.84352 46.0303 4.52498 46.1088L4.51577 46.0996C4.48345 46.0719 4.45113 46.0395 4.41881 46.0118L4.40036 46.0026C4.34958 45.9518 4.29879 45.901 4.24339 45.8503L4.25263 45.8595C4.21108 45.8272 4.16953 45.7903 4.12798 45.7579L4.13722 45.7672C3.97103 45.6564 3.80483 45.5456 3.63402 45.4348L3.63864 45.4394C3.25086 45.2455 2.86307 45.0563 2.47529 44.8624L2.48453 44.8716C2.38759 44.8208 2.29064 44.7746 2.1937 44.7239L2.20294 44.7285C2.05983 44.6592 1.92135 44.5946 1.77824 44.5254L1.79207 44.5346C1.71821 44.4977 1.64436 44.4607 1.57511 44.4238L1.58895 44.433C1.5197 44.3961 1.44583 44.3545 1.37658 44.3176L1.38582 44.3269C1.33966 44.3084 1.2935 44.2853 1.24734 44.2668H1.2381C1.11345 44.1837 0.98419 44.1006 0.859547 44.0175L0.868788 44.0222C0.785693 43.9714 0.707228 43.9252 0.624133 43.8744L0.596436 43.8467C0.762627 43.7083 0.910332 43.5051 1.09499 43.4497C1.56586 43.3205 2.0552 43.1866 2.53531 43.1958C3.53245 43.2097 4.525 43.3805 5.52215 43.362C6.47774 43.3482 7.43332 43.1774 8.38892 43.0712C8.41662 43.0666 8.44434 43.0712 8.47204 43.085C8.71671 43.182 8.96599 43.2789 9.21066 43.3759C9.23836 43.3713 9.26605 43.3759 9.28913 43.3943C9.46455 43.5236 9.6446 43.6529 9.82003 43.7821L9.81079 43.7729C9.84772 43.8098 9.88465 43.8467 9.9262 43.8883L9.91696 43.8791C9.95389 43.916 9.99082 43.9529 10.0324 43.9899L10.0232 43.9806C10.0601 44.0176 10.1016 44.0545 10.1386 44.0914L10.1293 44.0822C10.1663 44.156 10.2032 44.2299 10.2355 44.2992L10.2263 44.2899C10.4017 44.6685 10.5725 45.047 10.7479 45.4256L10.7387 45.4163C10.7756 45.4902 10.8125 45.5594 10.8495 45.6333L10.8356 45.6194C10.8726 45.6564 10.9049 45.6979 10.9418 45.7349L10.9372 45.7256C10.9741 45.7949 11.0157 45.8641 11.0526 45.9334L11.0434 45.9241C11.0803 45.998 11.1126 46.0719 11.1496 46.1457L11.1403 46.1365C11.2142 46.238 11.2834 46.3442 11.3573 46.4458L11.3527 46.4366C11.3896 46.5104 11.4265 46.5797 11.4635 46.6535L11.4496 46.6397C11.4865 46.6766 11.5235 46.7182 11.5604 46.7551L11.5558 46.7459C11.5927 46.8151 11.6297 46.889 11.6666 46.9582L11.6527 46.9444C11.6897 46.9813 11.7312 47.0182 11.7681 47.0552L11.7589 47.0459C11.8605 47.1844 11.9667 47.3275 12.0682 47.466L12.0636 47.4614C12.1698 47.5953 12.2806 47.7338 12.3868 47.8676L12.3775 47.8584C12.4144 47.9 12.4468 47.9415 12.4837 47.9784C12.4837 47.9784 12.4745 47.9646 12.4745 47.9692C12.5114 48.0107 12.5437 48.0477 12.576 48.0892L12.5714 48.0846C12.6083 48.1585 12.6407 48.2277 12.6776 48.3016C12.7145 48.3339 12.7515 48.3616 12.7884 48.3939L12.7745 48.3847C12.8115 48.4216 12.8484 48.4632 12.8899 48.5001L12.8761 48.4863C12.9176 48.5186 12.9638 48.5555 13.0053 48.5878L12.9915 48.574C13.0284 48.6155 13.0654 48.6524 13.1023 48.694L13.0885 48.6801C13.1254 48.7217 13.1623 48.7586 13.1993 48.8002L13.1854 48.7863C13.2223 48.8232 13.2639 48.8648 13.3008 48.9017L13.287 48.8879C13.3239 48.9248 13.3654 48.9664 13.4024 49.0033L13.3885 48.9894C13.4254 49.0264 13.467 49.0679 13.5039 49.1049L13.4901 49.091C13.527 49.1279 13.5686 49.1695 13.6055 49.2064L13.5916 49.1926C13.6286 49.2295 13.6701 49.271 13.707 49.308L13.6932 49.2941C13.7348 49.3311 13.7717 49.368 13.8132 49.4095L13.7994 49.3957C13.8409 49.4326 13.8779 49.4695 13.9194 49.5111L13.9055 49.4972C13.9471 49.5342 13.984 49.5757 14.0256 49.6126L14.0071 49.5988C14.0533 49.6403 14.0994 49.6773 14.1456 49.7188C14.7827 50.2636 15.4151 50.8037 16.0522 51.3484C16.0984 51.3669 16.1445 51.3854 16.1861 51.4038L16.2184 51.4177C16.2692 51.4638 16.3246 51.5146 16.3753 51.5608L16.3707 51.5562C16.5092 51.6623 16.6477 51.7639 16.7862 51.8701L16.777 51.8609C16.8231 51.8932 16.8647 51.9209 16.9108 51.9532L16.9016 51.9439C16.9616 51.9901 17.0263 52.0409 17.0863 52.0871L17.077 52.0824C17.114 52.1194 17.1509 52.1563 17.1924 52.1932L17.1786 52.184C17.2248 52.2025 17.2709 52.2255 17.3171 52.244H17.3263C17.3863 52.2948 17.4417 52.341 17.5018 52.3871L17.4925 52.3825C17.5941 52.4564 17.7002 52.5256 17.8018 52.5995L17.7926 52.5949C17.8295 52.6318 17.8664 52.6687 17.9034 52.7057L17.8941 52.6964C17.9772 52.7426 18.0557 52.7934 18.1388 52.8395L18.1619 52.858C18.2081 52.9088 18.2588 52.9596 18.305 53.0103L18.3004 53.0057C18.3742 53.1073 18.4435 53.2135 18.5173 53.315L18.5128 53.3104C18.6189 53.4812 18.7251 53.652 18.8313 53.8228L18.822 53.8136C18.8636 53.8505 18.9005 53.8875 18.9421 53.9198L18.9328 53.9105C18.9651 53.9521 19.0021 53.9936 19.0344 54.0352L19.0205 54.0213C19.0898 54.0629 19.1544 54.1044 19.2237 54.146C19.256 54.1737 19.2929 54.2014 19.3252 54.2337C19.3668 54.2706 19.4083 54.3029 19.4499 54.3399C19.4499 54.3399 19.436 54.3306 19.4406 54.3306C19.4776 54.3722 19.5099 54.4091 19.5468 54.4507L19.533 54.4414C19.5791 54.4599 19.6253 54.4784 19.6714 54.4968L19.6899 54.5061C19.7453 54.5522 19.8053 54.5984 19.8607 54.6492L19.8561 54.6446C19.9577 54.7184 20.0638 54.7877 20.1654 54.8615L20.1562 54.8569C20.2624 54.9261 20.3686 54.9954 20.4747 55.0646L20.4701 55.06C20.5717 55.1339 20.6732 55.2077 20.7748 55.2816L20.7655 55.2724C20.8394 55.3047 20.9179 55.337 20.9918 55.3739L20.9871 55.3693C21.3241 55.8864 21.8458 56.0433 22.4136 56.1079L22.4044 56.1033C23.0553 56.3434 23.7108 56.5881 24.3617 56.8281L24.3525 56.8189C25.1419 57.0266 25.9313 57.2344 26.7207 57.4421L26.7115 57.4329C27.6994 57.8022 28.715 58.1576 29.7583 57.8253C30.3723 57.6267 30.9171 57.2067 31.4941 56.8881L31.5218 56.8927L31.4941 56.8974C32.4774 56.7358 33.4561 56.5788 34.4163 56.4219C34.4163 56.5188 34.4163 56.6388 34.4163 56.7542L34.4255 56.745C34.3886 56.8189 34.3517 56.8881 34.3147 56.962L34.3194 56.9528C34.2824 56.9897 34.2455 57.0312 34.2086 57.0682L34.2224 57.0543C34.1855 57.1282 34.1485 57.202 34.1116 57.2713L34.1209 57.2621C34.0839 57.299 34.0424 57.3359 34.0054 57.3729L34.0193 57.359C33.9823 57.4329 33.9454 57.5021 33.9085 57.576L33.9177 57.5667C33.8808 57.6037 33.8393 57.6406 33.8023 57.6775L33.8115 57.6683C33.7746 57.7052 33.7377 57.7422 33.6961 57.7837L33.71 57.7699C33.6731 57.8437 33.6361 57.9176 33.6038 57.9915L33.613 57.9822C33.5761 58.0191 33.5346 58.0561 33.4976 58.093L33.5069 58.0838C33.4699 58.1207 33.4284 58.1576 33.3915 58.1946L33.4053 58.1807C33.3684 58.25 33.3268 58.3238 33.2899 58.3931L33.2945 58.3838C33.2576 58.4254 33.2253 58.4623 33.1883 58.5039L33.2022 58.49C33.1652 58.5316 33.1329 58.5731 33.096 58.6101L33.1052 58.6008C33.0637 58.6331 33.0221 58.6701 32.9806 58.7024L32.9898 58.6931C32.9021 58.8086 32.819 58.924 32.7313 59.0394L32.7221 59.0486C32.2235 59.1779 32.5513 59.5703 32.4728 59.8334L32.482 59.8242C32.4451 59.8657 32.4081 59.9026 32.3712 59.9442L32.3805 59.935C32.3389 59.9673 32.2974 60.0042 32.2558 60.0365L32.265 60.0273C32.2235 60.0596 32.1866 60.0965 32.145 60.1288L32.1496 60.1242C32.085 60.1981 32.0158 60.272 31.9511 60.3458L31.9558 60.3366C31.8865 60.4428 31.8173 60.5489 31.748 60.6551L31.7573 60.6459C31.7157 60.6828 31.6788 60.7198 31.6372 60.7567L31.6511 60.7475C31.6095 60.8029 31.568 60.8629 31.531 60.9183C31.1479 61.3014 30.7601 61.6892 30.3769 62.0724C30.3308 62.1231 30.2892 62.1739 30.2431 62.2247C30.2338 62.2155 30.2292 62.2062 30.22 62.2016C30.2292 62.2109 30.2338 62.2201 30.2431 62.2293C30.1323 62.3216 30.0169 62.414 29.9061 62.5063L29.9153 62.4971C29.8737 62.534 29.8368 62.5709 29.7953 62.6079L29.8091 62.594C29.7676 62.631 29.7306 62.6633 29.6891 62.7002L29.6983 62.691C29.6614 62.7279 29.6198 62.7648 29.5829 62.8018C29.5183 62.8664 29.449 62.931 29.3844 62.9956C29.3336 63.0464 29.2828 63.1018 29.2367 63.1526L29.2182 63.1665C29.1397 63.2219 29.0613 63.2772 28.9874 63.3326L28.992 63.328C28.9181 63.3603 28.8397 63.3927 28.7658 63.425L28.775 63.4157C28.438 63.4388 28.2165 63.3834 28.2257 62.9403C28.2303 62.7417 28.0041 62.534 27.8841 62.3309C27.8933 62.3217 27.9025 62.3124 27.9118 62.3032C27.9025 62.3124 27.8933 62.3216 27.8841 62.3263C27.9764 61.98 27.7548 61.9662 27.5148 61.98L27.524 61.9847C27.2885 61.5045 26.79 61.6015 26.4206 61.5738C24.3617 61.4214 22.3398 61.1214 20.387 60.4289C20.3039 60.4012 20.1377 60.4566 19.9854 60.4658Z" fill="#32D499"/>
<path d="M10.3463 8.72504C10.374 8.69273 10.3971 8.66041 10.4248 8.63271C10.4663 8.56346 10.5079 8.49422 10.5494 8.42036L10.5448 8.42958C10.614 8.29109 10.6833 8.14798 10.7525 8.00949L10.7479 8.01873C10.8356 7.93102 10.9556 7.86177 11.0018 7.76021C11.3157 6.99389 11.6158 6.22294 11.9205 5.43353C12.4791 6.55532 12.0497 7.69557 12.082 8.81736C12.1282 10.3592 12.1282 11.9011 12.1882 13.4384C12.2205 14.2417 12.6499 15.008 12.4191 15.8389L12.4283 15.8297C12.4006 15.8759 12.3729 15.922 12.3452 15.9682L12.3498 15.959C12.3036 15.9867 12.2575 16.0144 12.2113 16.0421L12.2251 16.0282C12.1928 16.0698 12.1559 16.1113 12.1236 16.1529L12.1375 16.139C12.0959 16.1759 12.0544 16.2082 12.0128 16.2452L12.0266 16.2313C11.9851 16.2683 11.9482 16.3006 11.9066 16.3375L11.9158 16.3329C11.8651 16.3837 11.8143 16.4345 11.7635 16.4852L11.7497 16.4945C11.7173 16.5222 11.685 16.5545 11.6527 16.5822L11.6435 16.5914C11.3065 16.4898 11.2926 16.7161 11.288 16.9469C11.2603 16.9792 11.228 17.0115 11.2003 17.0438C11.1634 17.0854 11.1265 17.1223 11.0895 17.1639L11.0988 17.15C11.0618 17.1916 11.0295 17.2331 10.9926 17.2746L11.0064 17.2608C10.9649 17.2977 10.9233 17.33 10.8818 17.367L10.891 17.3577C10.8218 17.4639 10.7525 17.5701 10.6833 17.6763L10.6925 17.667C10.6556 17.704 10.614 17.7409 10.5771 17.7778L10.5863 17.7686C10.4478 17.9763 10.3093 18.1841 10.1662 18.3872L10.1709 18.3826C10.0693 18.558 9.97234 18.738 9.87078 18.9135L9.88002 18.9042C9.83847 18.9735 9.79692 19.0427 9.75999 19.112L9.76461 19.1027C9.65843 19.2735 9.55225 19.449 9.44608 19.6198L9.45529 19.6105C9.38604 19.7537 9.31682 19.8968 9.25219 20.0399L9.25679 20.0306C9.04443 20.4046 8.83669 20.7831 8.62434 21.1571L8.63358 21.1478C8.60127 21.2217 8.56894 21.3002 8.53663 21.374L8.54125 21.3694C8.46739 21.471 8.39353 21.5725 8.31967 21.6741L8.32891 21.6649C8.29198 21.7341 8.25505 21.808 8.2135 21.8772L8.21809 21.8726C8.11192 22.0249 7.93651 22.168 7.91804 22.3342C7.87188 22.7035 7.81186 23.1098 7.91342 23.456C8.17194 24.3147 8.1904 25.1456 7.9088 25.9904L7.91804 25.9812C7.88111 26.0505 7.83956 26.1243 7.80263 26.1936L7.81185 26.1843C7.77953 26.2582 7.74723 26.3367 7.7103 26.4105L7.71954 26.3967C7.64106 26.5259 7.50257 26.6552 7.48872 26.7891C7.37331 27.8832 7.26711 28.9773 7.1794 30.076C7.11939 30.8192 7.15171 31.5763 7.04553 32.3103C6.80548 33.9584 6.85626 35.5834 7.27635 37.1945C7.30867 37.3237 7.42407 37.4392 7.49793 37.5592L7.49331 37.55C7.56256 37.7577 7.63643 37.9654 7.70568 38.1732L7.70106 38.1639C7.73799 38.2701 7.77954 38.3717 7.81647 38.4778L7.80725 38.464C7.84418 38.5379 7.87649 38.6117 7.91342 38.6856L7.9088 38.6764C8.10269 39.4612 8.34737 40.2413 8.11655 41.063L8.12117 41.0538C8.08424 41.0907 8.04731 41.1277 8.01038 41.1692L8.01959 41.16C7.98266 41.1969 7.94573 41.2339 7.90418 41.2708L7.91342 41.2615C7.87649 41.2985 7.83956 41.3354 7.80263 41.3723L7.81185 41.3677C7.49331 41.3723 7.17018 41.3723 6.85165 41.377L6.86549 41.3862C6.79624 41.3446 6.72239 41.3077 6.65315 41.2662L6.66236 41.2754C6.38538 40.7722 5.8868 40.8091 5.41592 40.763L5.42979 40.7722C5.30053 40.6891 5.18051 40.5691 5.0374 40.5275C3.76789 40.1859 2.49375 39.8535 1.22424 39.5212C0.951868 39.4519 0.67487 39.3827 0.402501 39.318L0.411743 39.3273C0.328648 39.2626 0.250155 39.2026 0.167059 39.138L0.180922 39.1472C0.125525 39.0965 0.0747558 39.0457 0.0193588 38.9949C-0.100668 38.5471 0.3702 38.5933 0.531774 38.3809C0.610254 38.3255 0.69333 38.2747 0.771809 38.2193L0.785672 38.2147C0.831836 38.1916 0.873374 38.1685 0.919538 38.1455L0.910324 38.1547C1.15499 38.1916 1.33964 38.1501 1.33041 37.8408L1.32116 37.85C1.3581 37.8131 1.39964 37.7762 1.43657 37.7346L1.42736 37.7438C1.87515 37.5684 1.87054 37.2083 1.80591 36.8252C1.65818 35.9758 1.44583 35.1309 1.37197 34.2723C1.3258 33.7276 1.49659 33.1643 1.55198 32.6058C1.60277 32.0703 1.53354 31.5024 1.6905 31.0085C2.23524 29.2958 2.16136 27.5785 1.85206 25.8566C1.69972 24.9979 1.32117 24.1669 1.64432 23.2714L1.63511 23.2806C1.67204 23.2391 1.70896 23.2021 1.74589 23.1606L1.73203 23.1744C1.77358 23.1421 1.81514 23.1052 1.85668 23.0729L1.84744 23.0775C2.12443 22.9344 2.39681 22.7913 2.6738 22.6482C2.70611 22.6205 2.73841 22.5974 2.7661 22.5697C2.79842 22.5281 2.83537 22.4866 2.86768 22.445L2.85844 22.4543C2.9323 22.3527 3.00616 22.2511 3.08002 22.145L3.07543 22.1542C3.14005 22.048 3.2093 21.9372 3.27393 21.831L3.26469 21.8403C3.31085 21.8126 3.35239 21.7849 3.39855 21.7572C3.39394 21.7156 3.38933 21.6787 3.38472 21.6372L3.37548 21.6464C3.41241 21.5771 3.44933 21.5033 3.48626 21.434L3.48167 21.4433C3.5186 21.374 3.55553 21.3002 3.59246 21.2309L3.58784 21.2401C3.69863 21.1109 3.85098 21.0001 3.911 20.8524C4.28954 19.9106 4.64962 18.9643 5.00508 18.0179C5.12973 17.6901 5.22206 17.3531 5.32824 17.0207L5.319 17.0346C5.35593 16.9607 5.39286 16.8915 5.43441 16.8176L5.42517 16.8268C5.43901 16.7853 5.4575 16.7438 5.47135 16.7022L5.4898 16.6653C5.54058 16.5822 5.59137 16.4945 5.63753 16.4114L5.62829 16.4206C6.20534 15.8482 6.45 15.1095 6.65774 14.3525C6.65774 14.3525 6.64853 14.3663 6.64853 14.3617C6.69008 14.2924 6.7316 14.2232 6.77315 14.1586L6.76856 14.1678C6.82396 14.0847 6.87935 14.0016 6.93936 13.9231C6.94398 13.9324 6.94859 13.9462 6.95782 13.9554C6.9532 13.9462 6.9486 13.9324 6.94399 13.9231C7.38254 13.9647 7.81648 14.0016 8.29659 14.0478C8.26889 14.0893 8.31042 14.0524 8.30118 14.0339C7.92726 13.0506 8.05191 12.1042 8.51355 11.181L8.50893 11.1902C8.56894 11.1117 8.62896 11.0286 8.68898 10.9501L8.68436 10.9594C8.71205 10.9225 8.73975 10.8855 8.76745 10.8486L8.78131 10.8301C8.83209 10.7793 8.88288 10.7286 8.93366 10.6778L8.92904 10.687C8.96597 10.6455 9.00289 10.6085 9.03521 10.567L9.02137 10.5808C9.0583 10.5393 9.09523 10.4977 9.12754 10.4608L9.1183 10.47C9.21524 10.3593 9.31219 10.2485 9.40914 10.133L9.39989 10.1423C9.45068 10.0823 9.50146 10.0269 9.54762 9.96686L9.543 9.97147C9.57532 9.92992 9.61226 9.893 9.64458 9.85145L9.63534 9.86068C9.66765 9.81913 9.69998 9.77759 9.73229 9.73604L9.72305 9.74527C9.79691 9.6437 9.87077 9.54215 9.94925 9.4452L9.94004 9.45443C9.96773 9.40826 9.99543 9.36211 10.0231 9.31594L10.0093 9.32517C10.0554 9.26054 10.1016 9.19592 10.1478 9.13129L10.1385 9.14052C10.1662 9.09435 10.1893 9.04818 10.217 9.00201L10.2216 9.03895L10.2124 9.00664C10.2493 8.91431 10.3001 8.81737 10.3463 8.72504Z" fill="#32D499"/>
<path d="M49.9598 32.3334C49.9321 32.315 49.9275 32.2919 49.9413 32.2596C49.8998 32.1857 49.8629 32.1119 49.8213 32.038L49.8305 32.0518C49.7475 31.9272 49.669 31.7979 49.5859 31.6733L49.6136 31.6687L49.5859 31.6641C49.5628 31.6179 49.5351 31.5763 49.512 31.5302L49.5213 31.544C49.4936 31.5025 49.4612 31.4563 49.4335 31.4148V31.4194C49.392 31.3548 49.3504 31.2855 49.3089 31.2209L49.3181 31.2301C49.235 31.1101 49.1565 30.9854 49.0734 30.8654L49.0596 30.8423C48.9673 30.1499 48.6026 29.619 48.0856 29.1712L48.0901 29.1804C48.0486 28.8619 48.0625 28.5064 47.6377 28.4095L47.6239 28.3818C47.6054 28.3402 47.587 28.2941 47.5639 28.2525L47.5731 28.2617C47.4762 28.0817 47.3746 27.9063 47.2777 27.7263L47.2823 27.7309C47.2453 27.6616 47.2038 27.5924 47.1669 27.5231L47.1761 27.5324C47.1346 27.4631 47.0976 27.3939 47.0561 27.3246L47.0653 27.3385C47.0007 27.2277 46.9407 27.1169 46.8761 27.0061C46.7653 26.8076 46.6545 26.6045 46.5437 26.406L46.5483 26.4152C46.4698 26.2813 46.3913 26.1474 46.3128 26.0136L46.3175 26.0182C46.2759 25.9535 46.239 25.8889 46.1974 25.8243V25.8151C46.1651 25.7597 46.1328 25.7043 46.0959 25.6442L46.0774 25.6165C45.9574 25.3996 45.842 25.1826 45.722 24.9703L45.7265 24.9795C45.6804 24.9149 45.6342 24.8502 45.5881 24.7902L45.5927 24.7994C45.6665 24.4717 45.4542 24.4486 45.2188 24.4486L45.228 24.4532C45.1864 24.4163 45.1495 24.384 45.108 24.347L45.1218 24.3609C45.0849 24.324 45.0433 24.287 45.0064 24.2501L45.0156 24.2593C44.9602 23.6915 45.1403 23.3499 45.5604 23.3268C45.9666 23.3083 46.3729 23.3314 46.7791 23.3776C47.3331 23.4376 47.8824 23.5392 48.4318 23.6223C48.4595 23.6176 48.4872 23.6223 48.5149 23.6407C48.8657 23.7654 49.2166 23.89 49.5674 24.0193L49.5536 24.01C49.6228 24.0516 49.6921 24.0931 49.7613 24.1347L49.7475 24.1254C49.8213 24.1624 49.8952 24.2039 49.969 24.2409C50.0013 24.2362 50.029 24.2409 50.0521 24.2593C50.0937 24.287 50.1352 24.3147 50.1722 24.347C50.9154 24.8041 51.6633 25.2518 52.3927 25.7227C52.6281 25.8751 52.8174 26.092 53.0297 26.2813C53.1359 26.3552 53.2421 26.429 53.3483 26.4983L53.339 26.4937C53.3806 26.526 53.4221 26.5629 53.4637 26.5952L53.4498 26.5814C53.4868 26.6229 53.5191 26.6645 53.556 26.706L53.5421 26.6922C53.5883 26.7153 53.6391 26.7383 53.6853 26.766L53.653 26.7753L53.6807 26.7614C53.736 26.8122 53.7961 26.863 53.8515 26.9138L53.8468 26.9091C53.8838 26.9461 53.9253 26.9784 53.9622 27.0153L53.953 27.0061C53.9946 27.0384 54.0361 27.0753 54.0777 27.1076L54.0684 27.0984C54.1053 27.14 54.1377 27.1815 54.1746 27.2231L54.1654 27.2138C54.2023 27.2508 54.2438 27.2877 54.2808 27.3246L54.2715 27.3154C54.3408 27.3846 54.41 27.4585 54.4839 27.5277L54.4793 27.5231C54.5439 27.9755 54.6178 28.4233 54.6732 28.8757C54.8347 30.1822 54.9686 31.4932 55.1533 32.7997C55.3333 34.06 55.8088 35.3018 55.2964 36.5851C55.2733 36.6452 55.2964 36.719 55.2964 36.7883C55.301 36.816 55.2964 36.8437 55.2779 36.8714C55.2502 36.9129 55.2225 36.9498 55.1948 36.9914L55.2041 36.9775C55.1671 37.0514 55.1256 37.1253 55.0887 37.1945C55.0933 37.2222 55.0887 37.2499 55.0702 37.273C55.0102 37.3838 54.9502 37.49 54.8902 37.6008L54.8948 37.5915C54.8209 37.6977 54.7516 37.8039 54.6778 37.9101C54.6824 37.9378 54.6778 37.9655 54.6593 37.9885C54.6316 38.0301 54.6039 38.067 54.5762 38.1086L54.5855 38.0947C54.5531 38.1686 54.5208 38.2471 54.4839 38.3209L54.4885 38.3163C54.4147 38.4225 54.3408 38.5241 54.2669 38.6302C54.2762 38.6579 54.2669 38.6856 54.2531 38.7087C54.2254 38.7502 54.1977 38.7918 54.1654 38.8287L54.1792 38.8149C54.1469 38.8887 54.1146 38.9672 54.0777 39.0411L54.0869 39.0319C54.0454 39.1011 54.0038 39.1704 53.9622 39.235L53.9715 39.2257C53.9484 39.2719 53.9253 39.3181 53.9022 39.3689L53.8976 39.3273L53.9069 39.3689C53.8561 39.4289 53.8053 39.4843 53.7591 39.5443L53.7684 39.535C53.7314 39.6089 53.6991 39.6828 53.6622 39.7566L53.6668 39.7474C53.5929 39.8536 53.5191 39.9551 53.4452 40.0613C53.4498 40.089 53.4406 40.1167 53.4221 40.1398C53.3991 40.1813 53.3713 40.2229 53.3483 40.2644L53.3575 40.2506C53.3206 40.2875 53.279 40.3291 53.2421 40.366C53.2467 40.3937 53.2421 40.4214 53.2236 40.4445C53.2006 40.4906 53.1775 40.5322 53.1544 40.5784L53.1636 40.5645C53.1405 40.6107 53.1128 40.6522 53.0897 40.6984V40.7076C53.0436 40.7676 52.9974 40.8276 52.9513 40.8877L52.9605 40.8784C52.9374 40.92 52.9143 40.9661 52.8912 41.0077L52.8866 41.0215C52.8358 41.0769 52.785 41.1277 52.7343 41.1831L52.7389 41.1785C52.6696 41.2847 52.6004 41.3909 52.5358 41.5016L52.545 41.4924C52.5035 41.5247 52.4573 41.557 52.4158 41.5894C52.3881 41.6586 52.3557 41.7325 52.328 41.8017L52.3326 41.7925C52.2957 41.8294 52.2588 41.871 52.2218 41.9079L52.2357 41.894C52.208 41.9402 52.1849 41.9864 52.1572 42.0371L52.1665 42.0325C52.1157 42.0925 52.0695 42.1525 52.0187 42.2126L52.028 42.2033C51.9957 42.2449 51.9633 42.291 51.931 42.3326L51.9449 42.3187C51.8987 42.3834 51.8571 42.4526 51.811 42.5172L51.8156 42.5126C51.6771 42.7204 51.4648 42.9143 51.414 43.1451C51.2709 43.8191 51.2109 44.5069 51.0816 45.1855C50.9847 45.6749 50.8277 46.155 50.7031 46.6397L50.7123 46.6305C50.6892 46.6766 50.6661 46.7182 50.643 46.7644V46.7736C50.5923 46.829 50.5461 46.889 50.4953 46.9444L50.5046 46.9305C50.4676 46.9767 50.4307 47.0229 50.3891 47.069C50.3568 47.0921 50.3245 47.1106 50.2968 47.1337C50.2553 47.1706 50.2183 47.2121 50.1768 47.2491L50.186 47.2398C50.1491 47.2768 50.1122 47.3137 50.0706 47.3553L50.0798 47.346C50.0475 47.3876 50.0106 47.4291 49.9783 47.4707L49.9875 47.4614C49.946 47.4845 49.8998 47.5122 49.8582 47.5353C49.8352 47.5491 49.8075 47.5538 49.7752 47.5491C49.6644 47.5491 49.5582 47.5445 49.4474 47.5445C49.3089 47.5445 49.1658 47.5491 49.0273 47.5491L49.0319 47.5538C48.9811 47.4984 48.9303 47.443 48.8796 47.3922L48.8749 47.383C48.7595 46.9305 48.5518 46.4781 48.5518 46.0257C48.5518 45.2917 48.3671 44.6223 48.1317 43.9483C47.7855 42.965 47.5039 41.9771 48.0024 40.9569C48.0163 40.9292 47.9978 40.8923 47.9932 40.8553L47.9886 40.8646C48.0994 40.7307 48.2056 40.5968 48.3164 40.4629L48.3118 40.4676C48.381 40.3937 48.4503 40.3244 48.5149 40.2506L48.5103 40.2598C48.5472 40.2183 48.5795 40.1813 48.6164 40.1398L48.6072 40.149C48.6811 40.0521 48.7596 39.9551 48.8334 39.8582C48.8611 39.8213 48.8888 39.7843 48.9165 39.752C48.9673 39.6689 49.0227 39.5858 49.0734 39.5073L49.0827 39.4981C49.1658 39.3735 49.2489 39.2534 49.3366 39.1288L49.332 39.138C49.355 39.0919 49.3828 39.0457 49.4058 38.9995C49.4058 38.9995 49.3966 39.0042 49.4012 39.0042C49.4982 38.9257 49.6459 38.8657 49.6828 38.7641C49.9921 37.8916 50.343 37.0283 50.5599 36.1327C50.7631 35.3018 50.8139 34.4339 50.4769 33.5983C50.3799 33.3583 50.283 33.1182 50.186 32.8828C50.1629 32.8597 50.1583 32.8366 50.1629 32.8043C50.0891 32.6243 50.0245 32.4812 49.9598 32.3334Z" fill="#32D499"/>
<path d="M45.9296 41.9817C45.9573 41.9956 45.9711 42.0187 45.9619 42.051C45.9896 42.0971 46.0126 42.1433 46.0403 42.1895C46.0588 42.2125 46.0634 42.2402 46.0588 42.2679C46.1235 42.4111 46.1835 42.5541 46.2481 42.7019C46.2619 42.7296 46.2712 42.7573 46.2666 42.785C46.2481 43.4405 46.2573 44.1006 46.2019 44.7516C46.1604 45.2732 46.045 45.7903 45.9572 46.3073C45.9619 46.335 45.9573 46.3673 45.9434 46.395C45.8095 47.0505 45.6803 47.7015 45.5464 48.357L45.5556 48.3478C45.334 48.874 45.1171 49.4003 45.3202 49.9912C45.2971 50.0235 45.2694 50.0604 45.2463 50.0928C45.2048 50.162 45.1678 50.2266 45.1263 50.2959C44.7847 50.439 44.4477 50.5821 44.1061 50.7252L44.1153 50.716C44.0461 50.7529 43.9768 50.7945 43.9076 50.8314L43.9168 50.8222C43.806 50.8545 43.6998 50.8914 43.589 50.9237L43.5983 50.9145C43.3536 51.0207 43.1135 51.1222 42.8689 51.2284L42.8781 51.2192C42.4903 51.1915 42.1395 51.233 42.001 51.6808L41.9779 51.6854C41.8671 51.7408 41.7563 51.7962 41.6455 51.847L41.6502 51.8424C41.5394 51.9024 41.4285 51.9624 41.3178 52.0178C41.2947 52.0317 41.267 52.0409 41.2393 52.0363C41.1654 52.0732 41.0916 52.1147 41.0177 52.1517L41.0315 52.1378C40.9992 52.1794 40.9623 52.2209 40.93 52.2625L40.9392 52.2532C40.8653 52.2856 40.7869 52.3225 40.713 52.3548L40.7269 52.341C40.6899 52.3779 40.653 52.4194 40.6161 52.4564L40.6253 52.4471C40.5514 52.4841 40.4776 52.5164 40.4037 52.5533L40.4175 52.5395C40.3806 52.581 40.3483 52.6226 40.3114 52.6641L40.3206 52.6549C40.2468 52.6872 40.1729 52.7241 40.099 52.7564L40.1083 52.7472C40.0344 52.8211 39.9652 52.8903 39.8913 52.9642C39.859 52.9919 39.8267 53.0196 39.7943 53.0473C39.7343 53.098 39.6697 53.1442 39.6097 53.195L39.6189 53.1811C39.5774 53.2135 39.5358 53.2458 39.4897 53.2827L39.5035 53.2689C39.462 53.3058 39.4204 53.3427 39.3835 53.3796L39.3973 53.3658C39.3558 53.3981 39.3142 53.435 39.2727 53.4674L39.2819 53.4581C39.2404 53.4858 39.2034 53.5135 39.1619 53.5412C39.1388 53.5597 39.1157 53.5689 39.0834 53.5643C39.0465 53.6059 39.0095 53.6474 38.9772 53.6936L38.9865 53.6843C38.9126 53.7166 38.8341 53.749 38.7603 53.7813L38.7741 53.7674C38.7418 53.809 38.7049 53.8505 38.6726 53.8921L38.6818 53.8828C38.6356 53.9059 38.5941 53.929 38.5479 53.9567C38.5248 53.9752 38.4971 53.9798 38.4648 53.9752C38.391 54.0121 38.3171 54.049 38.2432 54.0906L38.2524 54.0814C37.8739 54.1783 37.4954 54.2799 37.1168 54.3768C37.0707 54.109 37.0291 53.8367 36.9829 53.5689C36.9552 53.5366 36.9275 53.5089 36.8998 53.4766C36.7106 53.4027 36.5259 53.2642 36.3367 53.2642C34.5547 53.2504 32.7682 53.3196 30.9908 53.2319C29.8829 53.1765 28.7703 52.9596 27.6947 52.678C26.3652 52.3271 25.0772 51.8378 23.7707 51.4038C23.6092 51.3761 23.4476 51.353 23.286 51.3254L23.263 51.3207C23.2306 51.233 23.1983 51.1499 23.1614 51.0622C23.2029 51.0576 23.2445 51.053 23.2907 51.053C23.383 50.9607 23.4661 50.8637 23.5538 50.7668L23.5399 50.7806C23.5815 50.7483 23.623 50.7114 23.6646 50.6791C23.6969 50.6467 23.7246 50.619 23.7569 50.5867C23.8262 50.5498 23.9 50.5129 23.9693 50.4759L23.96 50.4805C24.0662 50.4113 24.1724 50.342 24.2786 50.2774L24.2739 50.282C24.3432 50.2451 24.4124 50.2082 24.4817 50.1666L24.4725 50.1712C24.5417 50.1297 24.611 50.0928 24.6802 50.0512L24.6663 50.0604C25.3219 49.7927 25.982 49.5249 26.6376 49.2572C26.8037 49.1464 26.9746 49.031 27.1408 48.9202C27.21 48.8879 27.2746 48.8602 27.3439 48.8279C27.4916 48.8325 27.6578 48.874 27.787 48.8279C28.6734 48.5324 29.5413 48.1954 30.4322 47.9138C30.8616 47.7799 31.0232 47.9784 31.0001 48.4355C30.9862 48.6709 31.0416 48.911 31.0647 49.151L31.0508 49.1372C31.0878 49.1741 31.1247 49.211 31.1663 49.248L31.157 49.2387C31.2955 49.308 31.434 49.3818 31.5725 49.4511L31.5633 49.4418C31.8402 49.548 32.1218 49.6542 32.3988 49.7604C32.4311 49.7558 32.4588 49.7604 32.4865 49.7788C32.9251 49.8758 33.3637 50.0651 33.7976 50.0558C35.4549 50.0189 37.0522 49.6542 38.5664 48.971C38.7095 48.9063 38.8064 48.7355 38.9265 48.6109L38.9172 48.6201C38.9588 48.5878 39.0003 48.5555 39.0465 48.5232L39.0372 48.5278C39.088 48.477 39.1434 48.4262 39.1942 48.3755L39.2127 48.4124L39.1988 48.3708C39.2311 48.3385 39.2588 48.3062 39.2911 48.2785L39.3004 48.2693C39.3281 48.2416 39.3558 48.2093 39.3835 48.1816L39.3973 48.1631C39.4481 48.1123 39.4989 48.0569 39.5451 48.0061L39.5358 48.0154C39.5866 47.9323 39.6374 47.8492 39.6882 47.7707L39.6974 47.7569C39.7528 47.6738 39.8082 47.5907 39.859 47.5076V47.5122C39.9559 47.3368 40.0575 47.1567 40.1544 46.9813L40.1452 46.9951C40.1821 46.9259 40.2237 46.852 40.2606 46.7828L40.256 46.792C40.2745 46.7459 40.2929 46.6997 40.3114 46.6535V46.6443C40.3622 46.5566 40.4176 46.4643 40.4683 46.3766L40.4637 46.3812C40.7684 45.6564 41.0731 44.9316 41.3778 44.2068L41.3731 44.2161C41.4793 44.0453 41.5855 43.8698 41.6917 43.699L41.6871 43.7036C41.7609 43.5975 41.8302 43.4959 41.904 43.3897L41.8994 43.399C41.9733 43.2974 42.0425 43.1912 42.1164 43.0897L42.1118 43.0943C42.1857 42.9927 42.2595 42.8912 42.3334 42.7942C42.3611 42.7573 42.3888 42.725 42.4165 42.688C42.4488 42.6465 42.4857 42.6049 42.518 42.5588L42.5042 42.5726C42.5827 42.4711 42.6565 42.3741 42.735 42.2725L42.7304 42.2772C42.7627 42.2356 42.7996 42.1987 42.832 42.1571L42.8227 42.1664C42.9289 42.0279 43.0351 41.894 43.1412 41.7555L43.1366 41.7601C43.1689 41.7186 43.2059 41.6816 43.2382 41.6401L43.229 41.6493C43.5752 41.5062 43.8937 41.34 43.9076 40.8969L43.9491 40.9246L43.9122 40.8922C43.963 40.8368 44.0091 40.7768 44.0599 40.7214L44.0553 40.7307C44.1292 40.6291 44.1984 40.5276 44.2723 40.4214L44.2677 40.426C44.7154 40.3429 44.9324 40.546 44.9971 40.98C45.0109 41.0815 45.1355 41.1646 45.2094 41.2523C45.2417 41.2846 45.274 41.3169 45.3063 41.3493C45.3433 41.3862 45.3848 41.4185 45.4218 41.4554L45.4125 41.4462C45.4494 41.4832 45.491 41.5201 45.5279 41.557L45.5187 41.5478C45.5556 41.5847 45.5926 41.6262 45.6295 41.6632L45.6203 41.6539C45.6572 41.6909 45.6941 41.7324 45.731 41.7694L45.7264 41.7601C45.8095 41.834 45.8695 41.9078 45.9296 41.9817Z" fill="#32D499"/>
<path d="M53.025 21.3464C53.0019 21.3648 52.9742 21.3695 52.9419 21.3648C51.6678 21.5495 50.4121 21.4525 49.1611 21.1617C48.2239 20.9447 47.2822 20.7508 46.3405 20.5477L46.3497 20.557C46.3081 20.5246 46.262 20.4923 46.2204 20.46L46.2297 20.4692C46.1604 20.4 46.0865 20.3261 46.0173 20.2569L46.0265 20.2661C45.9896 20.2246 45.9527 20.183 45.9204 20.1415L45.9342 20.1553C45.8973 20.1138 45.865 20.0722 45.828 20.0307C45.828 20.0307 45.8373 20.0399 45.8327 20.0399C45.7819 19.9845 45.7311 19.9337 45.6803 19.8783L45.6988 19.8506L45.6757 19.8737C45.6203 19.7952 45.5649 19.7122 45.5095 19.6337L45.5187 19.6429C45.4864 19.6014 45.4495 19.5598 45.4172 19.5183L45.4264 19.5275C45.3895 19.4906 45.3571 19.449 45.3202 19.4121L45.3248 19.4167C45.2741 19.3613 45.2233 19.3105 45.1725 19.2551C45.1356 19.2043 45.094 19.1536 45.0571 19.1074C44.734 18.7612 44.4154 18.4149 44.0923 18.0687C44.0507 18.041 44.0092 18.0179 43.9676 17.9902L43.9815 17.9995C43.9399 17.9625 43.903 17.9256 43.8614 17.8887L43.8707 17.8979C43.7599 17.8102 43.6537 17.7179 43.5429 17.6301L43.5198 17.6117C43.469 17.5609 43.4183 17.5101 43.3675 17.464L43.3767 17.4686C43.3352 17.4363 43.2936 17.3993 43.2521 17.367L43.2613 17.3762C43.1644 17.2978 43.0628 17.2239 42.9659 17.1454C42.9335 17.1177 42.8966 17.09 42.8643 17.0623C42.8228 17.03 42.7766 16.9931 42.735 16.9608L42.7443 16.97C42.6427 16.8961 42.5411 16.8223 42.4396 16.7484L42.4488 16.753C42.3703 16.7022 42.2919 16.6561 42.2134 16.6053L42.1811 16.5822C42.0656 16.4991 41.9502 16.4114 41.8348 16.3283L41.8441 16.3329C41.7379 16.2637 41.6271 16.1991 41.5209 16.1298L41.5302 16.139C41.484 16.116 41.4424 16.0975 41.3963 16.0744L41.3778 16.0652C41.1839 15.9498 40.9946 15.8344 40.8008 15.719L40.8146 15.7282C40.7454 15.6866 40.6715 15.6497 40.6023 15.6082L40.6115 15.6128C40.473 15.5435 40.3299 15.4743 40.1914 15.4004L40.2052 15.4096C40.1314 15.3727 40.0575 15.3404 39.9836 15.3035L39.9975 15.3127C39.9236 15.2758 39.8498 15.2435 39.7713 15.2065L39.7805 15.2158C39.6743 15.1142 39.5866 14.9757 39.462 14.9203C38.1371 14.3479 36.7522 14.1078 35.3303 14.3848C34.7856 14.491 34.2777 14.7818 33.7515 14.9895L33.7607 14.9803C33.7192 15.008 33.6822 15.0403 33.6407 15.068C33.613 15.0819 33.5899 15.0865 33.5576 15.0819C33.4837 15.1188 33.4099 15.1557 33.336 15.1927L33.3452 15.1834C33.3037 15.2111 33.2668 15.2388 33.2252 15.2665C33.1975 15.2804 33.1698 15.285 33.1421 15.2804C33.1006 15.3081 33.059 15.3404 33.0175 15.3681C32.9898 15.3819 32.9621 15.3866 32.9344 15.3819C32.8928 15.4096 32.8513 15.442 32.8097 15.4697C32.7867 15.4881 32.759 15.4927 32.7313 15.4881C32.6805 15.5389 32.6297 15.5897 32.5789 15.6451L32.5512 15.6589C32.5097 15.6774 32.4635 15.6959 32.4219 15.7143L32.4312 15.7051C32.3573 15.7374 32.2788 15.7697 32.205 15.8067L32.2142 15.7974C32.0434 15.9036 31.8726 16.0098 31.7018 16.116L31.711 16.1113C31.6048 16.1806 31.5033 16.2545 31.3971 16.3237L31.4064 16.3191C31.3463 16.3652 31.2817 16.4114 31.2217 16.4622L31.2263 16.453C31.1801 16.4807 31.134 16.5084 31.0924 16.5361L31.1017 16.5268C31.037 16.573 30.977 16.6191 30.9124 16.6653L30.9216 16.6561C30.8754 16.6838 30.8293 16.7161 30.7877 16.7438L30.797 16.7346C30.6954 16.8084 30.5893 16.8777 30.4877 16.9515L30.4923 16.9469C30.3907 17.0208 30.2846 17.09 30.183 17.1639L30.1922 17.1546C30.1461 17.187 30.1045 17.2193 30.0583 17.247L30.0676 17.2424C30.0076 17.2885 29.9429 17.3393 29.8829 17.3855L29.8922 17.3716C29.846 17.4039 29.8045 17.4316 29.7583 17.464L29.7721 17.4501C29.7306 17.4824 29.689 17.5147 29.6475 17.547L29.6567 17.5424C29.5552 17.6209 29.4536 17.6994 29.352 17.7779C29.3197 17.801 29.292 17.824 29.2597 17.8517C29.2182 17.8887 29.1766 17.921 29.1305 17.9579L29.1397 17.9533C29.0012 18.0595 28.8673 18.1657 28.7288 18.2718L28.7381 18.2626C28.7011 18.2995 28.6642 18.3365 28.6226 18.3734L28.6319 18.3642C28.595 18.4011 28.558 18.438 28.5211 18.4796L28.5303 18.4703C28.4934 18.5073 28.4564 18.5442 28.4149 18.5811L28.4241 18.5719C28.3872 18.6088 28.3503 18.6458 28.3133 18.6873L28.3226 18.6781C28.2857 18.715 28.2487 18.7566 28.2118 18.7935L28.221 18.7842C28.1841 18.8212 28.1472 18.8627 28.1056 18.8997L28.1195 18.8858C28.0964 18.932 28.0687 18.9781 28.0456 19.0289L28.0363 19.0012L28.0502 19.0243C27.9994 19.0797 27.9486 19.1397 27.8979 19.1951L27.9025 19.1859C27.8702 19.2274 27.8332 19.2644 27.8009 19.3059L27.8148 19.2921C27.7825 19.3336 27.7455 19.3752 27.7132 19.4167L27.7224 19.4075C27.6486 19.509 27.5747 19.6106 27.4962 19.7121L27.5009 19.7029C27.4639 19.6983 27.4224 19.6983 27.3854 19.6937C27.3162 19.5598 27.1916 19.4306 27.1916 19.2967C27.1592 17.8564 27.2008 16.4206 27.7871 15.0634L27.7778 15.068C27.9533 14.9619 28.1241 14.8603 28.2995 14.7541L28.2903 14.7587C28.4057 14.6756 28.5211 14.5925 28.6411 14.5048L28.6688 14.4818C28.7473 14.431 28.8258 14.3802 28.9042 14.3294L28.895 14.3386C28.9366 14.3063 28.9781 14.274 29.0243 14.2371L29.0151 14.2463C29.0658 14.1955 29.1166 14.1448 29.1674 14.094L29.1859 14.0801C29.2551 14.0201 29.3243 13.9601 29.3936 13.9001L29.389 13.9093C29.4259 13.8724 29.4628 13.8355 29.4998 13.7985L29.4905 13.8077C29.5275 13.7708 29.5644 13.7339 29.6013 13.697L29.5921 13.7062C29.6244 13.6693 29.6521 13.6323 29.6844 13.5908L29.689 13.5815C29.7398 13.5308 29.7906 13.4754 29.846 13.4246L29.8414 13.4338C29.8737 13.3923 29.9106 13.3507 29.9429 13.3138L29.9337 13.323C30.0076 13.2215 30.0814 13.1199 30.1553 13.0183L30.1507 13.0276C30.183 12.9814 30.2107 12.9399 30.243 12.8937L30.2291 12.9076C30.2522 12.866 30.2753 12.8198 30.2938 12.7783L30.303 12.7552C30.3584 12.709 30.4138 12.6629 30.4646 12.6121C30.5154 12.4644 30.5662 12.3166 30.6216 12.1643L30.6308 12.1874L30.6123 12.1689C31.0832 11.7627 31.1017 11.1949 31.157 10.6363L31.1478 10.6455C31.1709 10.5993 31.194 10.5578 31.2217 10.5116L31.2263 10.5024C31.6833 10.4378 32.145 10.3362 32.602 10.3177C33.4329 10.29 34.2685 10.267 35.0995 10.3224C35.9581 10.3824 36.8122 10.5347 37.6708 10.6501C38.2802 10.784 38.8849 10.9225 39.4943 11.0564C39.8728 11.1625 40.2514 11.2687 40.6299 11.3749L40.6207 11.3703C40.7269 11.4072 40.8331 11.4441 40.9392 11.4765L40.93 11.4718C41.0362 11.5088 41.1424 11.5457 41.2486 11.5826L41.2393 11.578C41.6548 11.7165 42.0657 11.855 42.4811 11.9935L42.4719 11.9843C42.8181 12.1228 43.1644 12.2613 43.5106 12.3997L43.5013 12.3905C43.5752 12.4274 43.6491 12.4598 43.723 12.4967L43.7137 12.4875C43.7506 12.529 43.7829 12.5659 43.8199 12.6075L43.806 12.5936C43.8753 12.6306 43.9445 12.6721 44.0184 12.7091L44.0092 12.7044C44.0507 12.7414 44.0877 12.7737 44.1292 12.8106L44.1153 12.8014C44.1569 12.8383 44.1938 12.8752 44.2354 12.9122L44.2215 12.8983C44.2631 12.9352 44.3 12.9722 44.3415 13.0091L44.3323 12.9999C44.397 13.0737 44.4662 13.1476 44.5308 13.2215L44.5216 13.2122C44.5585 13.2492 44.5954 13.2861 44.6324 13.3276L44.6232 13.3184C44.6601 13.3553 44.697 13.3923 44.7386 13.4292L44.7293 13.42C44.7663 13.4569 44.8032 13.4938 44.8447 13.5354L44.8355 13.5262C44.8724 13.5631 44.9094 13.6 44.9509 13.6416L44.9417 13.6323C44.9786 13.6693 45.0156 13.7062 45.0571 13.7477L45.0479 13.7385C45.0848 13.7754 45.1217 13.8124 45.1633 13.8539L45.154 13.8447C45.191 13.8816 45.2279 13.9232 45.2648 13.9601L45.2556 13.9509C45.2925 13.9878 45.3295 14.0247 45.371 14.0617L45.3618 14.0524C45.3987 14.0893 45.4356 14.1263 45.4772 14.1678L45.4679 14.1586C45.5095 14.1955 45.5464 14.2371 45.588 14.274C45.6157 14.2694 45.6434 14.274 45.6664 14.2925C45.7034 14.3202 45.7449 14.3479 45.7819 14.3756L45.7726 14.3663C45.8142 14.4033 45.8511 14.4356 45.8927 14.4725L45.8834 14.4633C45.9527 14.5371 46.0266 14.611 46.0958 14.6849C46.779 15.2019 47.4715 15.7097 48.1455 16.236C49.3965 17.2193 50.643 18.2118 51.8848 19.209C52.0925 19.3752 52.2587 19.5967 52.4434 19.7952C52.4895 19.8229 52.5357 19.8553 52.5865 19.883L52.5772 19.8737C52.6142 19.906 52.6557 19.943 52.6926 19.9753L52.688 19.966C52.7434 20.0168 52.8034 20.0676 52.8588 20.1184L52.8542 20.1138C52.8958 20.1461 52.9373 20.183 52.9742 20.2153L52.9604 20.2061C52.9973 20.243 53.0343 20.2846 53.0712 20.3215L53.062 20.3123C53.1681 20.3815 53.2743 20.4508 53.3805 20.52L53.3712 20.5108C53.4128 20.5477 53.4497 20.5847 53.4913 20.6216L53.4774 20.6077C53.5144 20.6447 53.5559 20.6862 53.5929 20.7231L53.5836 20.7139C53.3851 20.9263 53.2051 21.1386 53.025 21.3464Z" fill="#32D499"/>
<path d="M10.8403 31.9364C10.808 31.881 10.7803 31.821 10.748 31.7656C10.6788 31.6502 10.6142 31.5347 10.5449 31.4193L10.5495 31.4286C10.508 31.3593 10.4664 31.2901 10.4249 31.2254L10.4341 31.2393C10.3833 30.9762 10.3049 30.713 10.2818 30.4453C10.2079 29.4897 10.1525 28.5341 10.0879 27.5369C10.4064 27.5739 10.5911 27.5969 10.7711 27.62L10.7619 27.6108C10.8311 27.6477 10.9004 27.6893 10.9696 27.7262L10.965 27.7216C11.0019 27.7585 11.0389 27.7954 11.0758 27.8278L11.0666 27.8185C11.1035 27.8555 11.145 27.8924 11.182 27.9293L11.1727 27.9201C11.2097 27.957 11.2466 27.9939 11.2835 28.0355L11.2743 28.0263C11.3112 28.0632 11.3482 28.1001 11.3851 28.1417L11.3759 28.1324C11.4128 28.1694 11.4497 28.2063 11.4867 28.2432L11.482 28.2386C11.5328 28.2848 11.5836 28.3356 11.6344 28.3817L11.6436 28.3956C11.6944 28.4464 11.7406 28.4971 11.7913 28.5525C11.7913 28.5525 11.7821 28.5479 11.7867 28.5479C11.8237 28.5849 11.8606 28.6218 11.9021 28.6587C11.9345 28.691 11.9621 28.7187 11.9944 28.751C12.0452 28.8018 12.1006 28.8526 12.1514 28.8988L12.1699 28.9219C12.0683 29.245 12.2668 29.3281 12.5207 29.3743L12.5115 29.365C12.5577 29.3973 12.5992 29.4296 12.6408 29.462L12.6269 29.4481C12.6639 29.4897 12.7008 29.5312 12.7377 29.5728L12.7238 29.5589C12.7608 29.6005 12.7977 29.6374 12.8346 29.6789L12.8208 29.6651C12.8577 29.7066 12.8947 29.7436 12.9316 29.7851L12.9177 29.7713C12.9547 29.8082 12.9962 29.8451 13.0331 29.8867L13.0193 29.8728C13.0562 29.9098 13.0978 29.9513 13.1347 29.9882L13.1209 29.9744C13.1578 30.0113 13.1993 30.0529 13.2363 30.0898L13.2224 30.076C13.2594 30.1129 13.3009 30.1498 13.3378 30.1914L13.324 30.1775C13.3655 30.2144 13.4025 30.2514 13.444 30.2929L13.4302 30.2791C13.4717 30.316 13.5087 30.3529 13.5502 30.3945L13.5363 30.3806C13.5779 30.4176 13.6194 30.4545 13.6564 30.4914L13.6425 30.4776C13.6841 30.5145 13.721 30.5561 13.7625 30.593L13.7487 30.5791C13.7856 30.6207 13.8272 30.6576 13.8641 30.6946L13.8503 30.6807C13.8826 30.7223 13.9195 30.7684 13.9518 30.81L13.938 30.7961C13.9749 30.833 14.0164 30.87 14.0534 30.9115L14.0395 30.8977C14.0811 30.93 14.1272 30.9623 14.1688 30.9992L14.155 30.9854C14.1919 31.0269 14.2334 31.0639 14.2704 31.1054L14.2565 31.0916C14.2934 31.1331 14.3304 31.17 14.3719 31.2116L14.3581 31.1977C14.395 31.2393 14.4319 31.2808 14.4642 31.3224L14.4504 31.3085C14.4873 31.3501 14.5196 31.387 14.5566 31.4286L14.552 31.4193C14.6258 31.5209 14.7043 31.6178 14.7782 31.7194L14.7735 31.7148C14.8197 31.7748 14.8659 31.8348 14.912 31.8948L14.9166 31.9041C15.0321 32.2272 15.1475 32.5457 15.2629 32.8689C15.2767 32.8966 15.2767 32.9243 15.2721 32.952C15.2398 33.2844 15.1936 33.6167 15.1798 33.9491C15.1521 34.48 14.8612 35.034 15.286 35.5326L15.2767 35.5233C15.3737 35.7357 15.4706 35.9434 15.5676 36.1558C15.586 36.1789 15.5906 36.2019 15.5814 36.2296C15.623 36.2666 15.6645 36.3035 15.7061 36.3404L15.6968 36.3312C15.743 36.3912 15.7891 36.4512 15.8353 36.5066C15.8353 36.5066 15.8399 36.5159 15.8353 36.5159C15.8538 36.562 15.8769 36.6082 15.8999 36.6544L15.8907 36.6405C15.9276 36.6774 15.9692 36.7144 16.0061 36.7513L15.9969 36.7374C16.0338 36.779 16.0661 36.8159 16.1031 36.8575L16.0984 36.8482C16.1492 36.899 16.2 36.9498 16.2508 37.0006L16.26 37.0098C16.2877 37.0467 16.3201 37.0837 16.3478 37.1206L16.3016 37.1344L16.3478 37.116C16.4078 37.1945 16.4632 37.2776 16.5232 37.356L16.5186 37.3514C16.5924 37.4207 16.6663 37.4853 16.7401 37.5545L16.7309 37.5453C16.7678 37.5869 16.8048 37.6238 16.8417 37.6653L16.8278 37.6515C16.8648 37.6884 16.9017 37.73 16.9386 37.7669L16.9248 37.7531C16.9617 37.7946 16.9987 37.8315 17.031 37.8731L17.0264 37.8639C17.0771 37.9146 17.1279 37.9654 17.1741 38.0208L17.1879 38.0439C17.2064 38.09 17.2249 38.1362 17.2433 38.1778L17.2341 38.1639C17.271 38.2008 17.308 38.2378 17.3449 38.2793L17.3403 38.2701C17.3772 38.344 17.4141 38.4132 17.4511 38.4871L17.4418 38.4778C17.4695 38.5194 17.4972 38.5563 17.5249 38.5979C17.5434 38.6209 17.548 38.6486 17.5434 38.6763C17.5803 38.7825 17.6219 38.8933 17.6588 38.9995L17.6496 38.9903C17.7511 39.475 17.8573 39.9551 17.9589 40.4398L17.9543 40.4306C17.9958 40.5321 18.0374 40.6337 18.0789 40.7399L18.0697 40.726C18.0927 40.8045 18.1204 40.8784 18.1435 40.9568C18.162 40.9799 18.1666 41.0076 18.1574 41.0399C18.1943 41.1138 18.2312 41.1877 18.2682 41.2615L18.2543 41.2477C18.2913 41.2846 18.3236 41.3262 18.3605 41.3631L18.3559 41.3585C18.3974 41.4231 18.4436 41.4877 18.4852 41.557L18.4713 41.5431C18.5036 41.5847 18.5359 41.6308 18.5728 41.6724C18.5728 41.6724 18.559 41.6585 18.5636 41.6585C18.6006 41.6955 18.6375 41.737 18.679 41.774C18.7437 41.8386 18.8083 41.8986 18.8729 41.9632C18.9145 42.0002 18.956 42.0371 18.9976 42.074L18.9837 42.0602C19.0206 42.1017 19.0576 42.1433 19.0945 42.1848C19.1268 42.1802 19.1545 42.1848 19.1776 42.2033C19.2192 42.2264 19.2607 42.2541 19.3022 42.2771L19.2884 42.2633C19.3669 42.3048 19.4407 42.3418 19.5192 42.3833C19.5469 42.3695 19.57 42.3741 19.5885 42.4018C19.727 42.4664 19.8701 42.531 20.0086 42.5911L19.9993 42.5864C20.1424 42.6234 20.2855 42.6603 20.424 42.6972C20.4563 42.6926 20.484 42.6972 20.5117 42.7157C20.641 42.7434 20.7657 42.8034 20.8949 42.8034C23.0969 42.808 25.2944 42.8034 27.4964 42.7988L27.4918 42.7942C27.501 42.9788 27.5148 43.1681 27.5241 43.3528L27.5287 43.3574C27.4502 43.422 27.3717 43.482 27.2933 43.5467L27.3025 43.5328C27.261 43.5651 27.2148 43.5928 27.1732 43.6251H27.1778C27.1132 43.6667 27.044 43.7129 26.9793 43.7544L26.9932 43.7405C26.947 43.7729 26.9009 43.8098 26.8547 43.8421L26.8409 43.8467C26.7855 43.8837 26.7255 43.9252 26.6701 43.9621L26.6885 43.9483C26.647 43.9806 26.6008 44.0083 26.5593 44.0406L26.5639 44.036C26.4993 44.0775 26.43 44.1191 26.3654 44.1606L26.3746 44.1514C26.2684 44.2207 26.1576 44.2853 26.0514 44.3545L26.0607 44.3499C25.9868 44.3868 25.9176 44.4238 25.8437 44.4607L25.8576 44.4469C25.8206 44.4838 25.7791 44.5207 25.7422 44.553L25.7514 44.5484C25.6821 44.5853 25.6083 44.6269 25.539 44.6638L25.5483 44.6546C25.5021 44.7054 25.4559 44.7515 25.4052 44.8023C25.3959 44.8208 25.3774 44.83 25.359 44.83C25.3174 44.8439 25.2713 44.8577 25.2297 44.8716L25.2436 44.8577C25.2113 44.8993 25.1743 44.9408 25.142 44.9824L25.1512 44.9731C25.1097 45.0054 25.0682 45.0424 25.0266 45.0747L25.0358 45.0655C24.7311 45.2086 24.4218 45.3517 24.1172 45.4902L24.1264 45.4809C24.0849 45.5133 24.0433 45.5502 24.0018 45.5825L24.011 45.5733C23.9464 45.6471 23.8817 45.721 23.8125 45.7902C23.9187 45.8779 24.0202 45.9657 24.1264 46.0534L24.1172 46.0441C24.1495 46.0857 24.1818 46.1272 24.2187 46.1688L24.2049 46.1549C24.2741 46.1919 24.3434 46.2334 24.4172 46.2703L24.408 46.2657C24.4449 46.3027 24.4865 46.335 24.5234 46.3719L24.5142 46.3627C24.5003 46.5196 24.4911 46.672 24.4773 46.8289L24.4449 46.8659C24.4219 46.8889 24.4034 46.9074 24.3803 46.9305C24.3757 46.949 24.3664 46.9628 24.3434 46.972C24.2603 47.0182 24.1818 47.0644 24.0987 47.1152L24.1033 47.1105C24.0479 47.1613 23.9879 47.2075 23.9325 47.2583H23.9233C23.7756 47.3137 23.6278 47.3644 23.4755 47.4198L23.4847 47.4152C23.3508 47.4291 23.2123 47.4198 23.0831 47.4568C21.9475 47.7522 20.8072 47.9092 19.6346 47.7199C19.3715 47.6784 19.1037 47.6599 18.836 47.6322L18.8452 47.6414C18.776 47.5999 18.7067 47.5629 18.6375 47.5214L18.6467 47.526C18.6098 47.4891 18.5729 47.4521 18.5359 47.4106L18.5406 47.4198C18.4298 47.286 18.319 47.1521 18.2128 47.0182L18.222 47.0274C18.1851 46.9859 18.1528 46.949 18.1158 46.9074C18.1158 46.9074 18.1297 46.9213 18.1251 46.9213C18.0881 46.8797 18.0558 46.8428 18.0189 46.8012L18.0281 46.8105C17.9912 46.7735 17.9589 46.732 17.9219 46.6951L17.9266 46.6997C17.8758 46.6443 17.825 46.5889 17.7742 46.5381C17.7188 46.4504 17.6634 46.3627 17.608 46.275C17.5388 46.2473 17.4741 46.2196 17.4049 46.1873L17.4095 46.1919C17.368 46.1226 17.3218 46.058 17.2802 45.9887L17.2987 46.0072C17.2618 45.9657 17.2203 45.9287 17.1833 45.8872L17.1972 45.901C17.1602 45.8595 17.1187 45.8226 17.0817 45.781L17.0956 45.7949C17.0587 45.7579 17.0171 45.7164 16.9802 45.6794L16.994 45.6933C16.9571 45.6564 16.9156 45.6148 16.8786 45.5779L16.8925 45.5917C16.8556 45.5548 16.814 45.5133 16.7771 45.4763L16.7909 45.4902C16.754 45.4486 16.7124 45.4117 16.6755 45.3702L16.6894 45.384C16.6478 45.3471 16.6109 45.3101 16.5693 45.2686L16.5832 45.2824C16.5416 45.2455 16.5047 45.204 16.4632 45.167L16.477 45.1809C16.4401 45.1439 16.3985 45.1024 16.3616 45.0655L16.3754 45.0793C16.3339 45.0424 16.297 45.0008 16.2554 44.9639L16.2693 44.9778C16.2323 44.9408 16.1908 44.8993 16.1538 44.8623L16.1677 44.8762C16.1308 44.8393 16.0892 44.7977 16.0523 44.7608L16.0661 44.7746C16.0292 44.7377 15.9876 44.6961 15.9507 44.6592L15.96 44.6684C15.7845 44.4976 15.6091 44.3222 15.4337 44.1514L15.4429 44.1606C15.3044 44.0221 15.1659 43.8837 15.0321 43.7452L15.0413 43.7544C15.0044 43.7175 14.9674 43.6759 14.9259 43.639L14.9397 43.6528C14.9028 43.6113 14.8659 43.5744 14.8289 43.5328L14.8428 43.5467C14.8059 43.5097 14.7689 43.4682 14.7274 43.4312L14.7412 43.4451C14.7043 43.4036 14.6674 43.3666 14.6304 43.3251L14.6443 43.3389C14.6074 43.302 14.5704 43.2604 14.5289 43.2235C14.5289 43.2235 14.5381 43.2374 14.5381 43.2327C14.5012 43.1912 14.4642 43.1543 14.4319 43.1127L14.4412 43.1219C14.4042 43.085 14.3673 43.0435 14.335 43.0065L14.3396 43.0112C14.2888 42.9604 14.238 42.905 14.1872 42.8542L14.2057 42.8311L14.1827 42.8496C14.1273 42.7711 14.0719 42.688 14.0118 42.6095L14.0211 42.6188C13.9887 42.5772 13.9564 42.5357 13.9241 42.4941L13.9287 42.5033C13.8225 42.3325 13.7164 42.1617 13.6056 41.9909L13.6102 42.0002C13.5686 41.9309 13.5317 41.8617 13.4902 41.7924L13.4994 41.8017C13.3701 41.3123 13.2086 40.8322 13.1163 40.3336C12.8254 38.7133 12.5854 37.0883 12.2761 35.4725C12.1837 34.9971 11.9298 34.5493 11.7544 34.0922L11.7636 34.1015C11.6667 33.7876 11.5651 33.469 11.4682 33.1551C11.3943 33.0258 11.3205 32.892 11.242 32.7627L11.2466 32.7719C11.2143 32.6981 11.1774 32.6242 11.145 32.5503L11.1497 32.5596C11.0989 32.4719 11.0481 32.3842 10.9973 32.2918L10.9927 32.278C10.9742 32.2318 10.9558 32.1857 10.9373 32.1395L10.9419 32.1487C10.9188 32.0749 10.8773 32.0056 10.8403 31.9364Z" fill="#32D499"/>
<path d="M16.0568 28.2433C15.6321 27.8924 15.175 27.5739 14.7919 27.1815C14.0394 26.4105 13.3285 25.5934 12.5991 24.7994C12.5575 24.7486 12.516 24.7025 12.4744 24.6517L12.4883 24.6655C12.4559 24.624 12.419 24.5824 12.3867 24.5409L12.396 24.5501C12.3452 24.4993 12.2944 24.4439 12.2436 24.3932L12.2344 24.3885C12.179 24.3101 12.1236 24.227 12.0682 24.1485L12.0774 24.1577C12.0451 23.8023 12.0174 23.4468 11.9851 23.0913L11.9805 23.1006C12.0497 23.0267 12.1143 22.9482 12.1836 22.8744L12.1744 22.8836C12.4929 22.8559 12.8114 22.819 13.13 22.8051C13.647 22.782 14.044 22.5835 14.2517 22.085C14.2471 22.0388 14.2425 21.9926 14.2379 21.9465C14.2702 21.8864 14.3025 21.831 14.3348 21.771C14.3718 21.6926 14.4087 21.6141 14.4456 21.5402C14.4364 21.5125 14.441 21.4894 14.4687 21.471C14.5749 21.3509 14.7134 21.2494 14.7826 21.1109C14.9904 20.6677 15.1935 20.2199 15.3643 19.7583C15.6875 18.8904 15.9875 18.0179 16.3014 17.1454L16.2968 17.15C16.3845 17.0346 16.4676 16.9192 16.5553 16.8038L16.5646 16.7945C16.5923 16.7622 16.62 16.7345 16.6523 16.7022L16.6707 16.6837C16.6984 16.656 16.7308 16.6283 16.7584 16.596L16.7723 16.5776C16.8877 16.4899 16.9985 16.4021 17.1139 16.3144L17.1093 16.319C17.1647 16.2729 17.2201 16.2221 17.2755 16.1759L17.2893 16.1713C17.3309 16.1482 17.377 16.1252 17.4186 16.1021L17.4094 16.1113C17.5433 16.0328 17.6725 15.9544 17.8064 15.8759L17.811 15.8805C18.2588 15.8759 18.6697 15.7928 18.9097 15.3588L18.9374 15.3496C18.9836 15.3311 19.0297 15.3173 19.0713 15.2988L19.0621 15.3034C19.1313 15.2665 19.2052 15.2296 19.2744 15.1926L19.2606 15.2019C19.3344 15.1649 19.4037 15.128 19.4775 15.0865L19.4637 15.0957C19.5329 15.0588 19.6068 15.0172 19.676 14.9803L19.6622 14.9895C19.9853 14.9572 20.3362 14.971 20.4331 14.5417L20.4654 14.5233C20.784 14.5556 21.0748 14.5325 21.1395 14.1309L21.1764 14.1078C21.3241 14.0247 21.4672 13.937 21.6149 13.8539L21.6103 13.8585C21.6703 13.8123 21.7303 13.7662 21.795 13.72V13.7246C21.8411 13.7015 21.8873 13.6785 21.9335 13.6508L21.9242 13.66C22.0304 13.5908 22.1412 13.5261 22.2474 13.4569L22.2381 13.4615C22.3443 13.3922 22.4505 13.323 22.5567 13.2538L22.5521 13.2584C22.6767 13.1753 22.7967 13.0876 22.9214 13.0045V13.0368L22.926 13.0045C22.9722 12.9814 23.0183 12.9537 23.0599 12.9306L23.0506 12.9398C23.1568 12.8706 23.2584 12.8013 23.3645 12.7275L23.3599 12.7321C23.4246 12.6859 23.4846 12.6398 23.5492 12.5936L23.5446 12.6028C23.5908 12.5751 23.6369 12.5474 23.6831 12.5197L23.6739 12.529C23.7385 12.4828 23.8031 12.4366 23.8677 12.3951L23.8585 12.4089C23.9047 12.3766 23.9508 12.3489 23.997 12.3166C24.0339 12.2889 24.0709 12.2658 24.1032 12.2381C24.1678 12.1966 24.2371 12.1596 24.3017 12.1181L24.2924 12.1227C24.4079 12.0396 24.5279 11.9565 24.6433 11.8734L24.671 11.8504C24.7679 11.7903 24.8649 11.7303 24.9618 11.6657L24.9803 11.6519C25.0818 11.5872 25.1834 11.5226 25.285 11.4626H25.2942C25.3404 11.4395 25.3866 11.4164 25.4327 11.3933L25.4235 11.4026C25.5297 11.3333 25.6358 11.2641 25.742 11.1948L25.7328 11.1994C25.9036 11.0933 26.0744 10.9871 26.2452 10.8809L26.2406 10.8855C26.3468 10.8163 26.4483 10.747 26.5545 10.6732L26.5499 10.6778C26.8499 10.6224 27.15 10.5716 27.4778 10.5116C27.4455 10.7563 27.427 10.9363 27.4039 11.121L27.4131 11.1117C27.3762 11.1856 27.3393 11.2548 27.3024 11.3287L27.3116 11.3195C27.2747 11.3933 27.2331 11.4672 27.1962 11.541C27.2008 11.5687 27.1962 11.5965 27.1823 11.6195C27.1546 11.6611 27.1269 11.698 27.0946 11.7396L27.1039 11.7257C27.0623 11.7996 27.0208 11.8734 26.9792 11.9473C26.7115 12.4874 26.4437 13.0322 26.1806 13.5723C26.0744 13.817 25.9682 14.057 25.862 14.3017L25.8713 14.2924C25.8344 14.3663 25.7974 14.4356 25.7605 14.5094L25.7697 14.5002C25.6635 14.8141 25.5573 15.1234 25.4512 15.4373C25.4558 15.465 25.4512 15.4973 25.4373 15.525C25.3727 15.6497 25.2665 15.7743 25.248 15.9082C25.1188 16.753 25.1142 16.7345 24.3063 16.5176C23.9462 16.4206 23.5123 16.2637 23.1984 16.6745L23.2076 16.6653C23.1707 16.7022 23.1337 16.7391 23.0968 16.7761L23.106 16.7715C23.0322 16.8269 22.9629 16.8823 22.8891 16.933C22.5382 17.2516 22.1874 17.5701 21.8365 17.8932C21.795 17.944 21.7488 17.9948 21.7073 18.0456L21.7026 18.041C21.6565 18.0641 21.6057 18.0918 21.5595 18.1148L21.5734 18.101C21.5364 18.1379 21.4949 18.1748 21.458 18.2118L21.4718 18.1979C21.4395 18.2441 21.4072 18.2856 21.3749 18.3318L21.3887 18.318C21.3472 18.3549 21.3056 18.3918 21.2687 18.4288L21.2826 18.4149C21.241 18.4518 21.2041 18.4888 21.1625 18.5257L21.1764 18.5118C21.1348 18.5488 21.0979 18.5857 21.0563 18.6226L21.0702 18.6088C21.0286 18.6457 20.9917 18.6827 20.9502 18.7196L20.964 18.7057C20.9271 18.7427 20.8855 18.7796 20.8486 18.8165L20.8578 18.8073C20.8209 18.8442 20.784 18.8812 20.7424 18.9181L20.7517 18.9089C20.7147 18.9458 20.6778 18.9827 20.6409 19.0243C20.507 19.1581 20.3731 19.292 20.2392 19.4213C20.17 19.4951 20.1007 19.5644 20.0269 19.6382L20.0315 19.629C19.9946 19.666 19.9576 19.7075 19.9253 19.7444L19.9345 19.7306C19.8976 19.7721 19.8607 19.8137 19.8284 19.8506L19.8422 19.8368C19.8053 19.8783 19.7684 19.9152 19.7314 19.9568L19.7453 19.9429C19.7037 19.9753 19.6622 20.0122 19.616 20.0445L19.6299 20.0306C19.5929 20.0722 19.556 20.1091 19.5145 20.1507C19.5191 20.183 19.5144 20.2061 19.496 20.2338C19.4683 20.2707 19.4406 20.3123 19.4129 20.3492L19.4221 20.34C19.3898 20.3815 19.3575 20.4277 19.3206 20.4692L19.3344 20.4554C19.2883 20.52 19.2467 20.5846 19.2006 20.6492V20.6446C19.1682 20.6862 19.1359 20.7277 19.1036 20.7647L19.1128 20.7508C19.0851 20.797 19.0574 20.8431 19.0251 20.8893L19.039 20.8754C18.9928 20.9401 18.9466 21.0047 18.9005 21.0693L18.9097 21.0601C18.8682 21.097 18.8312 21.134 18.7897 21.1709L18.8035 21.1571C18.762 21.2309 18.7251 21.3048 18.6835 21.3786C18.6881 21.4063 18.6835 21.434 18.665 21.4571C18.6373 21.4987 18.6096 21.5402 18.5819 21.5818C18.5866 21.6095 18.582 21.6372 18.5635 21.6602C18.5358 21.7018 18.5081 21.7387 18.4804 21.7803L18.4896 21.771C18.4204 21.9465 18.3465 22.1173 18.2773 22.2927L18.2819 22.2835C17.8018 22.7774 17.6864 24.3655 18.0788 25.0441L18.0695 25.0348C18.208 25.4134 18.3465 25.7919 18.485 26.1705L18.4804 26.1613C18.5173 26.2674 18.5543 26.3736 18.5912 26.4798L18.5866 26.4706C18.6373 26.5629 18.6928 26.6506 18.7435 26.7429V26.7522C18.7666 26.8306 18.7851 26.9091 18.8081 26.9876L18.7943 26.9737C18.822 27.0153 18.8451 27.0568 18.8728 27.0984C18.8912 27.1261 18.8958 27.1538 18.8912 27.1815C18.9189 27.3615 18.9512 27.5416 18.9789 27.7262C19.0851 28.4372 19.2006 29.1481 19.2883 29.859C19.3113 30.0437 19.2329 30.2422 19.2006 30.4314C18.9697 30.4176 18.8081 30.4037 18.642 30.3945L18.605 30.3991L18.5773 30.376C18.5219 30.3253 18.4712 30.2791 18.4158 30.2283C18.425 30.2191 18.4296 30.2052 18.4388 30.196C18.4342 30.2098 18.425 30.2191 18.4204 30.2329C18.365 30.1822 18.3096 30.1314 18.2542 30.0806L18.2634 30.0852C18.2219 30.0529 18.1803 30.016 18.1434 29.9836L18.1572 29.9975C18.0741 29.9375 17.9956 29.8729 17.9126 29.8128L17.9264 29.8221C17.8664 29.7713 17.8064 29.7205 17.751 29.6697C17.7187 29.642 17.6864 29.6143 17.654 29.5866C17.6125 29.5497 17.571 29.5128 17.5294 29.4805L17.5386 29.4897C17.4278 29.402 17.3124 29.3143 17.2016 29.2266L17.1878 29.2127C17.137 29.1619 17.0816 29.1111 17.0308 29.0604L17.0401 29.0696C16.9985 29.0327 16.957 29.0004 16.9154 28.9634L16.9247 28.9726C16.9154 28.6403 16.7169 28.5341 16.4168 28.5433L16.4215 28.5479C16.3845 28.511 16.343 28.4787 16.306 28.4418L16.3153 28.451C16.2737 28.4141 16.2322 28.3818 16.1953 28.3448L16.2091 28.3587C16.1445 28.3217 16.1029 28.2848 16.0568 28.2433Z" fill="#32D499"/>
</svg>
