<svg xmlns="http://www.w3.org/2000/svg" width="74" height="59" viewBox="0 0 74 59" fill="none">
    <path d="M49.3333 38.1385C49.3333 40.3722 48.7025 42.2687 47.4408 43.828C46.5996 44.8395 45.0855 46.0195 42.8985 47.3681C40.3751 48.9697 38.6507 50.1918 37.7255 51.0347C37.6413 51.119 36.4848 51.6036 34.2558 52.4887L33.8142 52.0462C33.73 52.1305 33.73 52.2779 33.8142 52.4887C33.8983 52.7416 33.9403 52.868 33.9403 52.868C32.8889 53.5423 31.2276 54.4273 28.9565 55.5231C28.3257 55.6495 27.5055 55.8603 26.4962 56.1553C25.5288 56.4502 24.3933 56.9982 23.0895 57.7989C22.9213 57.841 22.3535 58.0306 21.3862 58.3678C20.6292 58.6207 20.1245 58.7471 19.8721 58.7471C18.9889 58.7471 18.4211 58.8315 18.1688 59C18.0846 58.7471 17.9375 58.3678 17.7272 57.8621C17.601 58.0729 17.3907 58.3678 17.0963 58.7471C16.3393 58.6207 15.7084 58.1782 15.2038 57.4196C14.6991 56.661 14.1733 56.2817 13.6266 56.2817C13.7108 56.0709 13.7738 55.8813 13.8159 55.7127C13.9 55.502 13.8369 55.3967 13.6266 55.3967C13.4163 55.3967 13.2481 55.4388 13.1219 55.5231C13.0378 55.6074 12.9116 55.6495 12.7434 55.6495C12.4069 55.6495 12.0705 55.5231 11.734 55.2702C11.734 55.1438 11.5658 54.8277 11.2293 54.322C10.8929 53.8162 10.7246 53.458 10.7246 53.2473C10.7246 53.0788 10.8088 52.8048 10.977 52.4255C11.1452 52.0041 11.2504 51.688 11.2924 51.4772C11.5027 50.2972 11.6078 48.7378 11.6078 46.7992C11.6078 46.6727 11.5027 45.8088 11.2924 44.2073C11.1242 42.6058 11.019 41.5311 10.977 40.9832C10.977 40.7725 11.0821 39.7821 11.2924 38.0121C11.1662 37.6749 11.0611 37.1059 10.977 36.3052C10.3882 35.7152 9.48395 34.8933 8.26428 33.8398C8.22223 33.5869 8.36942 33.1444 8.70588 32.5122C7.86473 32.1329 7.48621 31.6272 7.57033 30.995C7.65445 29.9836 7.65445 29.3935 7.57033 29.225C8.11707 28.9721 8.79 28.5296 9.58909 27.8974C10.1779 27.1809 10.4723 26.4434 10.4723 25.6848V20.185C10.4723 20.0585 10.3882 19.6371 10.2199 18.9206C10.0938 18.162 10.0307 17.6142 10.0307 17.277C9.94657 17.2349 9.75731 17.1084 9.46292 16.8977C8.83206 17.3613 7.94885 18.1831 6.8133 19.3632C6.56096 19.1946 6.18244 19.1103 5.67775 19.1103H4.92072C4.75249 18.3517 4.07956 17.3824 2.90196 16.2023C1.26172 14.5587 0.294398 13.5472 0 13.1679C0.210291 12.9572 0.525722 12.8518 0.946292 12.8518C1.19864 12.599 1.21967 12.4093 1.00938 12.2829C0.967324 12.0722 1.11452 11.9668 1.45098 11.9668C1.66127 11.9668 1.80846 11.8825 1.89258 11.7139C1.9767 11.5032 2.03979 11.3979 2.08184 11.3979C2.67065 11.145 3.70105 10.7657 5.17306 10.26C6.5189 9.8385 8.49559 9.48028 11.1032 9.18527C13.1219 8.9324 14.4467 8.80597 15.0776 8.80597C15.2038 8.80597 15.9608 8.89026 17.3487 9.05884C18.7786 9.22742 19.7459 9.33278 20.2506 9.37492C20.503 9.50136 20.7343 9.83852 20.9446 10.3864C21.2811 10.3864 21.4493 10.0914 21.4493 9.50136C23.2157 9.96495 24.9821 10.4285 26.7485 10.8921C28.8093 11.4821 30.6388 12.4515 32.237 13.8001C32.195 13.8001 32.1319 13.8844 32.0477 14.053C32.1319 14.0951 32.3842 14.369 32.8048 14.8748C33.0991 15.1698 33.3305 15.3173 33.4987 15.3173C33.709 15.3173 33.8562 15.2962 33.9403 15.2541C34.0245 15.1698 34.0876 15.1276 34.1296 15.1276C34.1716 15.2541 34.2137 15.7598 34.2558 16.6448C34.2978 17.2349 34.4239 17.5299 34.6343 17.5299C34.8446 17.5299 34.9497 17.4245 34.9497 17.2138C34.9497 17.2559 34.9917 17.4245 35.0759 17.7195C35.202 17.9724 35.2651 18.1831 35.2651 18.3517C35.2651 19.2367 34.8025 20.5011 33.8772 22.1447C32.9099 23.9148 32.0057 24.7998 31.1645 24.7998C31.0384 24.7998 30.8911 24.7787 30.7229 24.7366C30.4706 25.4108 29.9028 26.1694 29.0196 27.0124C28.1784 27.8553 27.5476 28.2767 27.127 28.2767L26.6854 28.0871C26.5592 28.0871 26.2227 28.361 25.676 28.9089C25.676 29.1617 25.8653 29.4778 26.2438 29.8571C26.6644 29.5622 28.0733 29.4146 30.4706 29.4146C30.3024 29.4146 30.9753 29.5199 32.4893 29.7307C32.4893 29.8571 32.5524 30.0468 32.6786 30.2996C32.8048 30.1732 32.8679 30.0468 32.8679 29.9203C36.695 30.1732 39.9966 30.7422 42.7724 31.6272C47.1464 33.1444 49.3333 35.3149 49.3333 38.1385ZM33.1202 15.4437L32.8048 15.3173L32.5524 15.8862L32.8679 16.0127L33.1202 15.4437ZM29.3981 17.277C29.5663 16.687 29.5032 16.118 29.2089 15.5702C29.1668 15.5702 29.1247 15.6123 29.0827 15.6966C29.0407 15.7387 28.9145 15.7598 28.7042 15.7598C28.3677 15.7598 28.2206 15.6334 28.2626 15.3805C26.0756 15.3805 24.6877 15.0223 24.0989 14.3058C24.2671 14.1794 24.2882 14.074 24.162 13.9897C24.0778 14.2426 23.9307 14.5376 23.7204 14.8748C22.8372 14.7062 21.4073 14.6219 19.4305 14.6219C18.7155 14.7062 17.7903 14.8326 16.6547 15.0012C15.5612 15.1276 14.657 15.233 13.942 15.3173C13.7317 15.3173 13.4794 15.2541 13.185 15.1276C12.9327 14.9591 12.8065 14.8748 12.8065 14.8748C12.3438 15.5491 12.1125 16.2234 12.1125 16.8977C12.4069 16.6027 12.8275 16.4552 13.3743 16.4552C13.5846 16.4552 13.9 16.6027 14.3205 16.8977C14.7832 17.1927 15.0986 17.3402 15.2668 17.3402C15.393 17.3402 15.6243 17.2981 15.9608 17.2138C16.1711 17.1716 16.3604 17.1927 16.5286 17.277C16.2342 17.6984 15.9608 18.436 15.7084 19.4896C16.0449 20.0796 16.129 20.6486 15.9608 21.1964C15.7505 22.1236 15.6454 22.524 15.6454 22.3976L15.8346 22.6504C15.8346 22.819 15.8557 23.1562 15.8977 23.6619C15.9819 24.1676 16.0239 24.5469 16.0239 24.7998C15.8977 24.9262 15.7926 25.0738 15.7084 25.2423C15.9188 26.0852 15.9819 26.7174 15.8977 27.1388C15.9397 27.1388 16.0659 27.1809 16.2762 27.2652C16.5286 27.3496 16.7598 27.3917 16.9702 27.3917C17.9375 27.3917 18.3791 26.9492 18.295 26.0641C18.5473 26.1062 18.8627 26.0852 19.2413 26.0009C19.6198 25.8745 19.8721 25.8113 19.9983 25.8113C20.1665 25.8113 20.3348 25.7059 20.503 25.4952C20.7133 25.2844 20.8395 25.2002 20.8815 25.2423C21.4703 24.4416 22.6479 23.5143 24.4143 22.4608C24.5825 22.6293 24.6667 22.7769 24.6667 22.9033C24.7508 22.6083 24.961 22.1658 25.2975 21.5757C25.3817 21.7865 25.5499 22.0815 25.8022 22.4608L26.37 21.955C26.37 21.8286 26.2858 21.7022 26.1176 21.5757C25.9495 21.4072 25.8653 21.2385 25.8653 21.07C26.2018 20.9857 26.6643 20.8383 27.2532 20.6275C27.2532 20.2903 27.4425 19.9321 27.821 19.5528C28.0313 19.2999 28.2415 19.0681 28.4518 18.8574C28.7462 18.436 28.8304 18.0145 28.7042 17.5931C28.9145 17.5509 29.1458 17.4456 29.3981 17.277ZM23.6573 24.4205C23.4049 23.9148 23.4049 23.4934 23.6573 23.1562C23.6153 23.1983 23.3208 23.704 22.7741 24.6734C23.1946 24.6734 23.4891 24.589 23.6573 24.4205ZM47.1253 36.4949C47.1253 35.8627 46.1159 35.083 44.0972 34.1559C42.2888 33.3129 41.1111 32.9126 40.5644 32.9547C40.2279 32.7019 40.0597 32.449 40.0597 32.1961C40.0597 32.449 39.9124 32.5754 39.6181 32.5754C39.2816 32.5754 39.1765 32.5333 39.3026 32.449C39.4288 32.449 39.4919 32.2593 39.4919 31.8801C39.0714 32.3437 38.7138 32.5754 38.4194 32.5754C38.2512 32.5754 38.0198 32.5122 37.7255 32.3858C37.4731 32.2173 37.2628 32.1329 37.0946 32.1329C36.8843 32.1329 36.8212 32.2173 36.9054 32.3858C36.9895 32.5122 36.9264 32.5754 36.7161 32.5754C36.5058 32.5754 34.2558 32.3647 29.9659 31.9433C29.9659 32.0697 29.9239 32.1961 29.8397 32.3226C29.5454 31.7747 29.293 31.5008 29.0827 31.5008C29.0827 32.0065 28.9354 32.3647 28.6411 32.5754C28.4308 32.5754 28.1784 32.5122 27.8841 32.3858C27.5897 32.2173 27.3374 32.1329 27.127 32.1329C26.9588 32.1329 26.5172 32.3226 25.8022 32.7019C25.1293 33.0391 24.7087 33.2076 24.5405 33.2076C24.3723 33.2076 24.2882 33.1865 24.2882 33.1444C24.2882 33.0601 24.183 33.018 23.9727 33.018C23.8465 33.018 23.5731 33.2287 23.1526 33.6501C22.9003 33.4394 22.5848 33.1444 22.2063 32.7651C21.9119 33.4394 21.4493 33.8819 20.8184 34.0926C19.5567 34.3455 17.7692 34.8933 15.4561 35.7363C15.4561 37.0427 15.3719 39.2132 15.2038 42.2476C15.0776 45.1134 15.0145 47.3049 15.0145 48.8221C15.0145 50.2972 14.8463 51.414 14.5098 52.1726C14.7201 52.2569 15.0565 52.4887 15.5192 52.868C15.9819 53.2052 16.3182 53.3737 16.5286 53.3737C16.6967 53.3737 16.9702 53.2684 17.3487 53.0576C17.7692 52.8048 18.0426 52.6783 18.1688 52.6783C18.337 52.6783 18.5893 52.7204 18.9258 52.8048C19.3043 52.8891 19.5778 52.9312 19.746 52.9312C20.461 52.9312 21.6805 52.594 23.4049 51.9197C25.1714 51.2455 26.0125 50.9083 25.9284 50.9083C26.0966 50.9083 26.2018 50.9504 26.2438 51.0347C26.2858 51.119 26.3911 51.1611 26.5592 51.1611C26.7696 51.1611 27.0219 50.9715 27.3163 50.5922C27.6106 50.2129 27.7999 50.0232 27.8841 50.0232C28.0944 50.0232 28.1784 50.0653 28.1364 50.1497C28.0944 50.234 28.1784 50.2761 28.3887 50.2761C28.5149 50.2761 29.9239 49.6018 32.6155 48.2532C35.3071 46.8624 37.2628 45.8088 38.4825 45.0923L38.6087 44.8395C38.819 44.8395 38.9241 44.8816 38.9241 44.9659C38.9241 45.0502 39.0083 45.0923 39.1765 45.0923C39.3026 45.0923 40.0597 44.4813 41.4476 43.259C42.8775 41.9947 43.8448 41.1097 44.3495 40.604C44.6439 40.8989 44.9593 41.0465 45.2958 41.0465C45.422 40.5828 45.7794 39.6978 46.3683 38.3914C46.873 37.2956 47.1253 36.6634 47.1253 36.4949ZM12.6803 47.4946C12.6803 46.6516 12.6803 46.2302 12.6803 46.2302C12.5121 46.2302 12.3018 46.3356 12.0494 46.5463C12.3859 47.1785 12.5962 47.4946 12.6803 47.4946Z" fill="white"/>
    <path d="M59.8353 15.2707H59.4012V15.0028H59.8353V15.2707ZM74 6.75124C73.8191 6.78696 73.6744 6.75124 73.5658 6.64408L73.3487 6.91199C73.3487 6.91199 73.5116 7.07273 73.8372 7.39422C73.1498 7.21561 72.0281 7.00129 70.4724 6.75124L65.2081 6.26901C65.0996 6.26901 64.9729 6.19757 64.8282 6.05469C64.6836 5.9118 64.5388 5.84036 64.3941 5.84036C63.8152 5.84036 63.3268 6.00111 62.9288 6.32259C62.6393 6.14399 62.4222 5.94753 62.2775 5.7332C62.169 5.48315 62.0423 5.30455 61.8976 5.19739C61.6082 5.30455 61.4635 5.57246 61.4635 6.00111L61.0836 5.67962C61.0474 5.67962 60.9569 5.7332 60.8122 5.84036C60.6675 5.91181 60.5227 5.94753 60.378 5.94753C60.378 5.62604 60.3419 5.42958 60.2695 5.35813C60.161 5.39385 60.0163 5.51888 59.8353 5.7332C59.6544 5.94753 59.5097 6.0904 59.4012 6.16185C59.4736 5.84036 59.3831 5.57246 59.1298 5.35813C58.9127 5.57246 58.7318 5.67962 58.5871 5.67962C58.4786 5.67962 58.4424 5.7332 58.4786 5.84036C58.5147 5.94753 58.4604 6.00111 58.3158 6.00111C58.1711 6.00111 57.954 5.98324 57.6645 5.94753C57.4113 5.87608 57.2122 5.84036 57.0675 5.84036C56.959 5.84036 56.7238 5.94753 56.362 6.16185C56.0364 6.34046 55.8193 6.42976 55.7108 6.42976C54.7339 6.53692 53.7752 6.64408 52.8344 6.75124C51.4958 6.92985 50.4284 7.23348 49.6325 7.66213C49.4878 7.91217 49.325 8.3051 49.144 8.84091C48.8545 8.94808 48.6556 9.0731 48.547 9.21598C48.5832 9.2517 48.8003 9.26957 49.1983 9.26957C48.6556 10.0554 48.3842 10.6984 48.3842 11.1985C48.3842 11.1628 48.4566 11.2521 48.6013 11.4664C48.7098 11.6092 48.6917 11.9486 48.547 12.4844C49.8857 12.7345 51.8937 13.1274 54.5711 13.6632C54.8243 13.7347 55.367 13.9132 56.1992 14.199C56.9229 14.4491 57.3389 14.5741 57.4474 14.5741C57.5921 14.5741 57.8635 14.6277 58.2615 14.7349C58.6957 14.842 59.0032 14.8956 59.1841 14.8956C59.3288 15.3243 59.564 15.6278 59.8896 15.8065C59.8172 15.8065 59.6544 15.8958 59.4012 16.0744C59.1841 16.253 58.9851 16.3423 58.8042 16.3423C58.6595 16.3423 58.5329 16.2708 58.4243 16.128C58.3519 15.9493 58.3158 15.8601 58.3158 15.8601C58.1711 16.1101 58.0083 16.3602 57.8273 16.6102C57.6464 16.8602 57.375 16.9853 57.0133 16.9853C56.8686 16.9853 56.5067 17.0389 55.9279 17.146C55.349 17.2532 55.0053 17.3068 54.8967 17.3068C54.752 17.3068 54.7158 17.2532 54.7882 17.146C54.8606 17.0389 54.8424 16.9853 54.7339 16.9853C54.6254 16.9853 54.3179 17.1817 53.8113 17.5747C53.3047 17.9676 52.9791 18.1641 52.8344 18.1641H52.2374C52.0928 18.1641 51.9661 18.0569 51.8576 17.8426C51.7852 17.6283 51.749 17.5032 51.749 17.4675C51.6405 17.6104 51.4777 17.8247 51.2606 18.1105C50.2113 18.682 49.2887 18.9678 48.4928 18.9678C48.1671 18.9678 47.6244 19.0928 46.8646 19.3428C46.7561 19.4143 46.7018 19.5572 46.7018 19.7715C46.7018 19.7 46.6295 19.5929 46.4848 19.45C46.34 19.5929 46.3581 19.8608 46.539 20.2537C46.4305 20.0037 46.1591 19.7894 45.725 19.6108C45.7973 20.3966 45.7069 21.6112 45.4536 23.2543C45.4898 23.29 45.526 23.3614 45.5621 23.4686C45.5983 23.5401 45.6526 23.5937 45.725 23.6294C45.9782 23.5222 46.1591 23.0756 46.2677 22.2898C46.4124 21.4682 46.5571 20.9503 46.7018 20.736V23.0935C46.4124 23.2722 46.0506 23.6115 45.6164 24.1116C45.5802 24.2544 45.5983 24.8974 45.6707 26.0405C45.526 25.969 45.4536 26.0584 45.4536 26.3084C45.4536 26.5227 45.6345 26.7371 45.9963 26.9514C45.924 27.8087 45.9782 29.0411 46.1591 30.6485C46.7018 32.2916 46.9732 33.4883 46.9732 34.2385C46.9732 34.6314 46.9008 34.8993 46.7561 35.0422C46.9008 35.185 47.136 35.4351 47.4616 35.7923C47.5702 35.8638 47.5883 35.9887 47.5159 36.1674C47.6606 36.2745 47.8596 36.4889 48.1129 36.8104C48.1129 36.846 48.1671 37.2211 48.2757 37.9356C48.9993 38.8643 49.3611 39.5251 49.3611 39.9181C49.3611 40.1324 49.2707 40.3288 49.0897 40.5075C49.0897 40.3646 48.9993 40.2039 48.8184 40.0252C48.7099 40.0967 48.6556 40.2575 48.6556 40.5075C48.4385 40.2931 48.3118 40.0788 48.2757 39.8645C48.2757 39.6502 48.1671 39.3823 47.9501 39.0608C47.733 39.2751 47.6606 39.4179 47.733 39.4894C47.6244 39.4894 47.4616 39.4002 47.2445 39.2215C47.0275 39.0787 46.8646 39.0072 46.7561 39.0072C46.7561 38.5071 46.7561 38.257 46.7561 38.257C46.7561 38.257 46.5571 38.6321 46.1591 39.3823C46.0868 39.1322 45.9963 38.5429 45.8878 37.6141C45.8154 36.9354 45.6888 36.596 45.5079 36.596C45.3632 36.596 45.2727 36.6139 45.2365 36.6496C45.2003 36.7211 45.1642 36.7568 45.128 36.7568C45.3089 36.3996 45.327 36.0781 45.1823 35.7923C45.0013 36.0066 44.9109 36.221 44.9109 36.4353C44.8024 36.2924 44.6215 35.703 44.3682 34.6671L44.0426 34.9886C43.8979 34.5243 43.6808 33.8634 43.3913 33.0061C43.3913 31.0057 43.1019 28.666 42.523 25.9869C42.5592 25.4868 42.5592 24.7367 42.523 23.7365C42.3421 22.522 42.0888 20.7003 41.7632 18.2712C41.2929 17.8783 40.4064 17.1281 39.1039 16.0208C39.0316 16.0208 38.9954 16.128 38.9954 16.3423C38.7059 15.9136 38.5431 15.5743 38.507 15.3243C38.2537 15.2171 37.8557 14.9492 37.313 14.5205C37.2768 14.3777 37.2768 14.199 37.313 13.9847C37.3854 13.7347 37.4215 13.574 37.4215 13.5025C37.4215 13.181 37.2587 12.8416 36.9331 12.4844C37.0778 12.5559 37.5301 12.5916 38.2899 12.5916C39.0858 12.5916 39.4838 12.7702 39.4838 13.1274C39.52 13.0917 39.5381 12.931 39.5381 12.6452C39.6105 12.6452 39.7914 12.8059 40.0808 13.1274C40.4064 12.8059 40.8587 12.3237 41.4376 11.6807C41.4738 11.7164 41.528 11.6986 41.6004 11.6271C41.7089 11.5557 41.7451 11.4843 41.7089 11.4128C41.6728 11.3057 41.5461 11.27 41.329 11.3057C41.6547 10.9842 41.8175 10.7163 41.8175 10.5019C41.8175 10.2161 41.6185 9.93044 41.2205 9.64464C41.2205 9.60892 41.2567 9.50175 41.329 9.32315C41.4376 9.14454 41.4918 8.96593 41.4918 8.78733V8.19794C41.13 7.98361 40.8044 7.87645 40.515 7.87645C40.5512 7.76929 40.5331 7.50138 40.4607 7.07273C39.8095 6.71552 39.4115 6.32259 39.2667 5.89394C38.9049 6.00111 38.507 5.84036 38.0728 5.41171C38.3984 5.16167 38.5612 4.9652 38.5612 4.82232C38.0547 4.50083 37.2949 4.0186 36.2819 3.37562C36.318 2.48259 36.2638 1.92893 36.119 1.7146V1.12521C36.2638 1.12521 36.5532 1.17879 36.9874 1.28595C37.4215 1.39311 37.7291 1.4467 37.91 1.4467C38.0185 1.4467 38.3622 1.30382 38.9411 1.01805C39.5562 0.732275 40.0084 0.553679 40.2979 0.482233C40.4064 0.553679 40.6235 0.928736 40.9491 1.60744C41.0215 1.57171 41.1662 1.46456 41.3833 1.28595C41.6366 1.07163 41.8356 0.964465 41.9803 0.964465C42.125 0.964465 42.1793 1.00018 42.1431 1.07163C42.1431 1.10734 42.1974 1.12521 42.3059 1.12521C42.4506 1.12521 42.5592 1.05376 42.6315 0.910883C42.7401 0.732275 42.8486 0.642976 42.9572 0.642976C43.1019 0.642976 43.1923 0.696558 43.2285 0.803721C43.2647 0.910883 43.3551 0.964465 43.4999 0.964465C43.6084 0.964465 44.1873 0.857302 45.2365 0.642976C46.2858 0.428651 46.8828 0.321489 47.0275 0.321489C47.3169 0.321489 47.534 0.482233 47.6787 0.803721C47.8234 0.768003 48.0405 0.660841 48.33 0.482233C48.6194 0.267908 48.8365 0.160742 48.9812 0.160742C49.1259 0.160742 49.2344 0.214324 49.3068 0.321489C49.3792 0.428652 49.4878 0.482233 49.6325 0.482233C49.7771 0.482233 50.4284 0.410787 51.5862 0.267907C52.7802 0.0893014 53.4314 0 53.5399 0C54.1188 0 54.4264 0.0535812 54.4625 0.160742C54.5711 0.37507 54.6615 0.589395 54.7339 0.803721C54.8424 0.66083 55.1138 0.500086 55.548 0.321489L55.8736 0.642976C56.3077 0.428651 56.6334 0.321489 56.8505 0.321489C57.8635 0.321489 59.7268 0.607249 62.4403 1.17879C62.5489 1.32167 62.7117 1.51813 62.9288 1.76818C62.9649 1.76818 63.0554 1.7146 63.2001 1.60744C63.3811 1.50028 63.5257 1.4467 63.6343 1.4467C64.177 1.4467 64.6654 1.76818 65.0996 2.41116C65.1357 2.41116 65.2263 2.35758 65.371 2.25042C65.5156 2.14325 65.6604 2.08967 65.8051 2.08967C65.9137 2.08967 66.1308 2.16111 66.4564 2.304C66.8181 2.41116 67.0895 2.46474 67.2704 2.46474V3.10772C67.5237 3.21488 67.7227 3.26846 67.8674 3.26846C68.0121 3.26846 68.1026 3.21488 68.1388 3.10772C68.2112 2.96483 68.2834 2.89339 68.3558 2.89339C68.392 2.89339 68.9528 3.32204 70.0382 4.17934C70.3277 4.21506 70.7076 4.30437 71.1779 4.44725C71.5759 4.69729 71.8473 5.03664 71.992 5.46529C72.2091 5.50101 72.6432 5.67962 73.2945 6.00111L74 6.75124ZM46.3219 25.5583H46.0506V25.1296H46.3219V25.5583ZM61.0293 1.50028C60.8846 1.3574 60.6856 1.28595 60.4323 1.28595C60.3238 1.28595 60.2695 1.50028 60.2695 1.92893C60.7761 1.67889 61.0293 1.53599 61.0293 1.50028ZM46.1591 7.98361H45.8878L45.725 8.8945H45.9963L46.1591 7.98361ZM45.8335 10.3948H45.5621L45.3993 10.9306L45.6164 11.0377L45.8335 10.3948ZM43.8798 21.0575V20.4145H43.5541V21.0575H43.8798ZM45.1823 25.076V24.3259H44.9109V25.076H45.1823ZM45.0194 26.5227V25.9333H44.7481V26.5227H45.0194ZM45.3451 27.1657V26.5763H45.0737V27.1657H45.3451ZM43.8798 25.8798V25.1296H43.5541V25.8798H43.8798ZM47.6244 37.239V36.6496H47.3531V37.239H47.6244ZM47.8415 37.7212C47.733 37.8284 47.5883 37.8999 47.4074 37.9356C47.4074 38.0427 47.4798 38.2035 47.6244 38.4178C47.9139 38.132 47.9862 37.8999 47.8415 37.7212ZM48.9269 39.8109V39.3823H48.6556V39.8109H48.9269Z" fill="white"/>
</svg>