<svg xmlns="http://www.w3.org/2000/svg" width="49" height="67" viewBox="0 0 49 67" fill="none">
    <path d="M19.6062 52.0717C19.4471 52.1964 19.3053 52.2694 19.2107 52.3855C18.8797 52.7982 18.5615 52.7208 18.1531 52.4629C17.5384 52.0717 16.8377 51.8138 16.2401 51.3968C15.6511 50.9884 15.002 50.5456 14.6237 49.9609C12.7967 47.1537 11.047 44.2906 9.27153 41.449C8.64388 40.443 8.5622 39.3167 8.62669 38.1818C8.72986 36.3247 8.83732 34.4718 9.01788 32.6233C9.18554 30.8951 9.87766 29.3174 10.5698 27.744C11.421 25.8094 12.5731 24.1243 14.2024 22.74C16.1283 21.1064 17.9726 19.3782 19.8426 17.6801C21.1409 16.5022 22.6799 15.9348 24.3952 15.7069C26.5103 15.4232 28.6254 15.3071 30.762 15.3028C33.3542 15.2985 35.6499 16.0723 37.636 17.6973C39.1363 18.9268 40.5592 20.2423 42.0166 21.5234C42.0295 21.532 42.0381 21.5492 42.051 21.5578C43.1988 22.1467 43.1343 23.1269 42.8764 24.1586C42.7689 24.5799 42.8678 24.8551 43.3364 24.8637C44.5401 24.8895 45.1376 25.5902 45.6449 26.6176C47.2054 29.786 48.2286 33.0961 48.667 36.5955C48.8046 37.6831 48.9465 38.7708 48.9981 39.8627C49.0196 40.3141 48.8734 40.8085 48.6929 41.2341C47.7299 43.5039 46.3456 45.5201 44.8023 47.4288C44.2219 48.1468 43.6502 48.869 43.1214 49.6213C42.6786 50.2489 42.1542 50.7863 41.4534 51.07C39.7167 51.7665 37.967 52.4199 36.2087 53.0691C35.508 53.327 34.7729 53.4818 34.0807 53.7526C32.8039 54.2513 31.4326 54.2298 30.1214 54.5307C29.4035 54.694 28.6899 54.9348 28.0149 55.2357C27.0649 55.6613 26.1019 55.7258 25.1389 55.412C23.8406 54.9907 22.5338 54.5608 21.3043 53.9847C20.7626 53.7311 20.3886 53.1034 19.9501 52.6306C19.8168 52.4887 19.7395 52.2909 19.6062 52.0717ZM36.802 49.6127C36.802 49.6342 36.802 49.6514 36.802 49.6729C37.2792 49.6729 37.7563 49.6772 38.2335 49.6686C38.5044 49.6643 38.7752 49.6428 39.0417 49.617C40.0348 49.531 40.2239 49.4063 40.4862 48.4606C40.7957 47.3343 41.3761 46.4229 42.296 45.6835C43.388 44.8108 44.4283 43.8736 45.4729 42.945C45.6148 42.8161 45.7266 42.5796 45.7352 42.3905C45.7696 41.7069 45.7395 41.0234 45.7567 40.3399C45.7653 40.0475 45.6621 39.8713 45.4042 39.7337C44.9958 39.5188 44.6003 39.2823 44.222 39.0201C44.0844 38.9255 43.9683 38.745 43.9296 38.5816C43.7878 37.9325 43.6631 37.2747 43.5771 36.617C43.5513 36.4235 43.6287 36.1699 43.7534 36.0194C44.1618 35.5122 44.6089 35.0393 45.0388 34.5492C45.4859 34.0419 45.3827 33.4186 44.7593 33.1176C43.13 32.3309 41.4878 31.5614 39.8456 30.8091C39.7124 30.7489 39.4759 30.7962 39.3427 30.8779C38.7666 31.239 38.2077 31.6302 37.6403 32.0085C36.9696 32.4599 36.2947 32.907 35.6284 33.3627C35.293 33.5862 35.2586 33.8915 35.3231 34.2784C35.71 36.6342 35.9164 39.0029 35.839 41.3931C35.8304 41.6167 35.7702 41.8832 35.6327 42.0466C35.1684 42.6097 34.6826 43.16 34.1581 43.6673C33.4445 44.3551 33.1995 45.159 33.337 46.1305C33.3757 46.3928 33.2768 46.7238 33.1307 46.9516C32.8512 47.3901 32.4686 47.7641 32.1634 48.1897C31.4756 49.1441 31.5143 49.2731 32.3955 50.0297C32.6449 50.2403 32.8083 50.1759 33.0705 50.0856C33.6465 49.8878 34.2441 49.6987 34.846 49.6256C35.4951 49.5525 36.1528 49.6127 36.802 49.6127ZM25.9944 45.9457C25.6376 45.735 25.4098 45.5459 25.1475 45.4556C24.2705 45.1547 23.9051 44.4712 23.6128 43.6544C22.7616 41.2641 21.8674 38.8868 20.9689 36.5138C20.8873 36.3032 20.6422 36.0925 20.4273 36.0151C19.7696 35.7787 19.0774 35.6454 18.424 35.4047C17.9597 35.2327 17.418 35.0522 17.1128 34.6997C16.6055 34.115 16.0166 33.8227 15.2901 33.7066C14.9289 33.6507 14.5807 33.5303 14.2196 33.4917C14.0219 33.4702 13.7682 33.5046 13.6178 33.6163C12.7881 34.2311 11.9713 34.8673 11.1717 35.5208C11.0427 35.6239 10.9352 35.8819 10.9696 36.0366C11.4038 38.07 11.8595 40.0991 12.3324 42.1196C12.3668 42.2615 12.5817 42.4421 12.7322 42.4679C13.2652 42.5538 13.8069 42.5538 14.34 42.6398C14.5291 42.6699 14.7656 42.7989 14.8559 42.9579C15.1396 43.4523 15.3545 43.9854 15.6125 44.497C15.9822 45.2321 16.3519 45.9672 16.756 46.6851C16.8463 46.8442 17.0483 46.9817 17.2289 47.0376C18.9571 47.5664 20.6938 48.078 22.4306 48.581C22.5725 48.6239 22.7874 48.6024 22.9035 48.5208C23.5698 48.0608 24.2361 47.5922 24.8638 47.0849C25.255 46.7539 25.5903 46.3541 25.9944 45.9457ZM35.9981 25.5429C37.0814 25.5429 37.1889 25.4096 36.9008 24.6874C36.4022 23.4321 35.9078 22.1768 35.336 20.9559C35.1727 20.6077 34.7901 20.2552 34.4247 20.1305C32.5202 19.4685 30.5986 18.8709 28.6727 18.282C28.4706 18.2218 28.1697 18.2906 27.9891 18.4153C27.2368 18.9182 26.5232 19.4814 25.7709 19.9844C25.5903 20.1047 25.298 20.1563 25.083 20.109C24.5758 19.9973 24.0728 19.8253 23.587 19.6404C22.3704 19.1762 21.2613 19.361 20.3026 20.2208C19.6879 20.7711 19.1075 21.3686 18.5873 22.0049C18.2434 22.4262 18.0371 22.9635 17.7705 23.4493C17.6244 23.7158 17.7104 23.9179 17.921 24.1243C18.3767 24.5713 18.8152 25.0313 19.2451 25.4999C19.6535 25.947 20.0748 26.3038 20.7497 26.2565C21.1366 26.2264 21.5364 26.3554 21.9276 26.3898C22.7014 26.4543 23.4924 26.6133 24.249 26.5274C25.2765 26.4113 26.1363 25.818 26.9445 25.1861C27.9461 24.408 29.0682 24.0469 30.3364 24.3048C31.2864 24.4983 32.2279 24.7261 33.1737 24.9368C34.2011 25.1517 35.2415 25.3752 35.9981 25.5429ZM29.7087 26.4543C29.0811 26.4844 28.5652 26.6735 28.131 27.1034C27.3142 27.9116 26.9875 28.9133 26.9875 30.031C26.9875 30.1557 27.1723 30.3448 27.3099 30.3878C28.0364 30.6157 28.7673 30.822 29.5067 30.9897C29.6958 31.0327 29.9795 30.9553 30.1214 30.8263C30.8608 30.1557 31.5659 29.442 32.301 28.7628C32.5245 28.5565 32.5632 28.3544 32.4643 28.0879C32.3956 27.9116 32.3268 27.7311 32.301 27.5419C32.2537 27.198 32.0645 27.0002 31.7378 26.9229C31.0586 26.7681 30.3836 26.609 29.7087 26.4543Z" fill="white"/>
    <path d="M18.97 2.01471C19.043 1.88144 19.0989 1.81696 19.1118 1.74387C19.2408 0.892683 19.8039 0.54017 20.5949 0.406902C21.2183 0.303728 21.833 0.148966 22.4564 0.0242964C22.9293 -0.0702804 23.2001 0.110277 23.3936 0.583161C24.2018 2.58217 24.2878 4.62417 23.8923 6.71345C23.5913 8.30406 23.2259 9.89038 23.3764 11.5283C23.385 11.6057 23.3678 11.6873 23.3678 11.7647C23.385 12.4182 23.1743 12.8137 22.4779 13.1017C21.5665 13.48 20.7239 14.0561 19.9114 14.6321C18.0285 15.9605 16.1799 17.3405 14.3185 18.7032C12.917 19.7307 11.5672 20.814 10.428 22.1381C10.4194 22.151 10.4065 22.1639 10.3936 22.1725C8.62239 23.5868 7.60353 25.5213 6.64916 27.5075C6.20207 28.436 5.94415 29.4076 5.85387 30.4307C5.7421 31.7591 5.59164 33.0832 5.50566 34.4159C5.40248 36.071 5.80659 37.6616 6.1849 39.2565C6.75666 41.6639 7.31121 44.0756 7.89587 46.483C7.96465 46.7753 8.12802 47.0763 8.33007 47.2955C9.8476 48.9678 11.3823 50.6229 12.9213 52.2737C14.4905 53.9589 16.4637 54.9992 18.6174 55.7085C21.2398 56.5726 23.9782 56.8864 26.6823 57.3378C27.9204 57.5442 29.1627 57.6947 30.4008 57.8967C31.7034 58.1073 32.9673 57.9096 34.2183 57.5829C35.9551 57.1315 37.679 56.6457 39.4157 56.1986C39.6264 56.1427 39.8886 56.1642 40.0907 56.2459C40.9591 56.6027 41.8017 57.0068 42.67 57.3636C43.057 57.5227 43.2504 57.7591 43.3665 58.1718C44.007 60.3686 44.6905 62.5482 45.344 64.7406C45.5202 65.3296 45.6234 65.9357 45.7825 66.6408C44.51 65.6391 43.3278 64.7062 42.1456 63.7734C41.4835 63.2532 40.8215 62.7287 40.1595 62.2085C39.6049 61.7743 38.9944 61.6325 38.2851 61.7443C35.6671 62.1527 33.0447 62.5439 30.4181 62.9007C29.4594 63.0296 28.4835 63.1328 27.5206 63.0855C26.6952 63.0468 25.8698 62.8233 25.0616 62.604C21.5407 61.6454 18.0285 60.6566 14.5077 59.6894C14.1809 59.5991 13.9574 59.4529 13.7854 59.1477C13.4587 58.5673 13.1019 57.9999 12.7064 57.4625C12.5817 57.2905 12.3195 57.1487 12.1002 57.1229C11.4296 57.0326 10.8148 56.8864 10.2732 56.4222C8.98349 55.313 7.64222 54.2641 6.35254 53.155C6.00862 52.8626 5.7292 52.4757 5.47986 52.0931C4.22457 50.1629 2.9134 48.2628 1.77848 46.2638C1.33569 45.4813 1.2067 44.484 1.08633 43.564C0.910071 42.2142 0.867095 40.8428 0.776817 39.48C0.622055 37.1156 0.484481 34.7555 0.312523 32.3911C0.256637 31.6516 0.0846823 30.9165 0.0201981 30.1771C-0.121667 28.5263 0.505983 27.0604 1.20671 25.6245C1.75698 24.4939 2.35883 23.3934 2.92629 22.2713C3.07675 21.9704 3.2659 21.8242 3.62272 21.8157C4.19018 21.7985 4.76195 21.7254 5.32511 21.6308C5.46697 21.605 5.63463 21.4287 5.69911 21.2826C5.95275 20.685 6.12471 20.0445 6.42133 19.4727C6.64918 19.0385 6.96301 18.6086 7.34132 18.3034C10.1399 16.0508 12.96 13.8282 15.7758 11.5971C16.1756 11.2789 16.554 10.9436 16.9581 10.6298C17.1687 10.4664 17.2031 10.3074 17.1128 10.058C16.4207 8.21379 15.7328 6.36954 15.0665 4.52099C14.9031 4.06101 14.8215 3.57093 14.714 3.09374C14.6409 2.76702 14.7656 2.57357 15.088 2.43601C15.8661 2.11358 16.6184 1.73098 17.4008 1.42145C17.5943 1.34407 17.8823 1.39996 18.0887 1.48594C18.3853 1.60201 18.6518 1.81266 18.97 2.01471Z" fill="white"/>
</svg>