<svg xmlns="http://www.w3.org/2000/svg"  viewBox="0 0 64 64" width="128px" height="128px"><path d="M 36.097656 2.0429688 C 35.924497 2.0253794 35.750294 2.0262148 35.578125 2.046875 A 1.0001 1.0001 0 0 0 35.576172 2.046875 L 26.009766 3.2128906 C 25.201122 3.3115906 24.496344 3.8228438 24.154297 4.5625 L 24.066406 4.7539062 C 24.033696 4.8235563 23.976956 4.8811352 23.908203 4.9179688 L 23.392578 5.1914062 C 23.316258 5.2315882 23.230765 5.2422894 23.148438 5.2246094 L 23.148438 5.2265625 L 22.720703 5.1328125 L 22.71875 5.1328125 C 22.150268 5.0098792 21.556696 5.1021506 21.052734 5.390625 L 14.748047 8.9921875 C 14.470507 9.1507818 14.230488 9.3625385 14.039062 9.609375 A 1.0001 1.0001 0 0 0 14.029297 9.6230469 L 11.46875 13.035156 A 1.0001 1.0001 0 0 0 11.46875 13.037109 C 11.163704 13.444415 10.998047 13.939799 10.998047 14.449219 L 10.998047 16.435547 C 10.998047 16.532587 10.961897 16.622091 10.894531 16.689453 L 7.8046875 19.777344 C 7.2479852 20.334046 7.0058973 21.134955 7.1601562 21.90625 L 7.9472656 25.841797 A 1.0001 1.0001 0 0 0 7.9472656 25.84375 C 7.9589966 25.90141 7.95697 25.965294 7.9375 26.023438 A 1.0001 1.0001 0 0 0 7.9355469 26.023438 L 7.2285156 28.148438 A 1.0001 1.0001 0 0 0 7.2285156 28.150391 C 7.0326169 28.741554 7.0775353 29.387492 7.3574219 29.947266 L 8.6113281 32.458984 C 8.6893301 32.615268 8.6543461 32.789107 8.5332031 32.892578 C 7.9504235 33.390667 7.1831467 34.102143 6.5566406 34.935547 C 5.9301345 35.76895 5.3471618 36.765781 5.578125 37.945312 C 6.0389321 40.292184 8.1043558 41.42581 8.8847656 41.8125 C 8.9204246 41.83013 8.9553406 41.85742 8.9921875 41.90625 A 1.0001 1.0001 0 0 0 8.9941406 41.908203 L 12.46875 46.496094 C 13.09893 47.328831 14.215656 47.647128 15.191406 47.273438 L 16.085938 46.931641 A 1.0001 1.0001 0 0 0 16.087891 46.929688 C 16.207173 46.883907 16.34093 46.907344 16.441406 46.990234 L 17.921875 48.210938 C 18.046778 48.314296 18.088185 48.474325 18.027344 48.623047 L 17.789062 49.205078 C 17.501127 49.907573 17.570414 50.706501 17.970703 51.347656 L 18.466797 52.144531 A 1.0001 1.0001 0 0 0 18.46875 52.144531 C 18.51017 52.210861 18.526984 52.284207 18.521484 52.359375 L 18.318359 55.154297 C 18.273749 55.768627 18.472188 56.375947 18.869141 56.845703 A 1.0001 1.0001 0 0 0 18.869141 56.847656 L 20.830078 59.164062 C 21.27735 59.69277 21.937791 60 22.630859 60 L 23.021484 60 C 24.031876 60 24.93882 59.34664 25.257812 58.386719 L 25.257812 58.384766 L 26.253906 55.398438 C 26.350916 55.107399 26.628901 55.042964 26.845703 55.259766 L 26.984375 55.398438 C 27.037065 55.451127 27.072214 55.520432 27.083984 55.591797 A 1.0001 1.0001 0 0 0 27.083984 55.59375 L 27.824219 60.03125 C 28.012625 61.161693 29.004736 62 30.150391 62 L 32.160156 62 C 33.049338 62 33.868589 61.494772 34.267578 60.699219 L 34.269531 60.697266 L 34.367188 60.501953 A 1.0001 1.0001 0 0 0 34.369141 60.5 C 34.452391 60.333227 34.624608 60.261498 34.800781 60.320312 L 36.474609 60.878906 C 36.71288 60.958456 36.965114 61 37.220703 61 L 40.021484 61 C 41.031875 61 41.938483 60.347877 42.257812 59.388672 L 42.257812 59.386719 L 43.919922 54.402344 L 43.921875 54.396484 C 43.955675 54.295912 43.978604 54.200726 43.996094 54.113281 L 44.927734 49.460938 L 44.927734 49.458984 C 44.937034 49.414114 44.955369 49.367734 44.980469 49.330078 L 45.851562 48.023438 C 45.987493 47.819688 46.21891 47.797593 46.414062 47.980469 C 47.394325 48.899498 48.962674 50 51 50 C 51.502201 50 51.837992 49.72607 52.039062 49.505859 C 52.240133 49.285649 52.369166 49.059378 52.490234 48.816406 C 52.732372 48.330462 52.922263 47.762164 53.099609 47.152344 C 53.454301 45.932703 53.729822 44.567608 53.875 43.789062 L 53.873047 43.789062 C 53.893157 43.681454 53.943147 43.611916 54.037109 43.554688 C 54.60469 43.209967 55.503094 42.625464 56.314453 41.890625 C 57.126266 41.155375 57.962651 40.286996 58 39.029297 C 58.06007 36.999518 56.494027 35.794724 55.826172 35.341797 C 55.794262 35.320067 55.759346 35.284317 55.728516 35.222656 L 55.333984 34.431641 C 55.262964 34.289328 55.289291 34.130627 55.400391 34.019531 L 55.417969 34.001953 C 55.746644 33.673278 55.970794 33.253897 56.0625 32.798828 A 1.0001 1.0001 0 0 0 56.0625 32.796875 L 57.871094 23.751953 A 1.0001 1.0001 0 0 0 57.871094 23.75 C 57.992265 23.138949 57.868094 22.501598 57.519531 21.980469 L 57.521484 21.980469 L 53.902344 16.552734 C 53.892844 16.538474 53.881864 16.518291 53.871094 16.494141 L 53.871094 16.492188 C 53.871094 16.492188 53.869141 16.490234 53.869141 16.490234 L 51.054688 9.921875 C 50.900903 9.5636274 50.660297 9.2522683 50.361328 9.0117188 A 1.0001 1.0001 0 0 0 50.359375 9.0097656 L 45.814453 5.375 C 45.596511 5.2006461 45.351556 5.066327 45.089844 4.9785156 A 1.0001 1.0001 0 0 0 45.087891 4.9785156 L 36.609375 2.1523438 C 36.442931 2.0965719 36.270815 2.0605581 36.097656 2.0429688 z M 53.435547 2.2617188 A 1.0001 1.0001 0 0 0 52.898438 2.4238281 L 51.207031 3.4921875 A 1.000281 1.000281 0 1 0 52.275391 5.1835938 L 53.966797 4.1152344 A 1.0001 1.0001 0 0 0 53.435547 2.2617188 z M 35.816406 4.0332031 C 35.872066 4.0265231 35.923544 4.0323717 35.972656 4.0488281 A 1.0001 1.0001 0 0 0 35.974609 4.0488281 L 44.453125 6.875 C 44.495415 6.889189 44.532395 6.9099009 44.564453 6.9355469 L 48.269531 9.9003906 L 46.720703 9.6992188 L 46.089844 9.2792969 C 46.029844 9.2392969 45.960859 9.2209375 45.880859 9.2109375 L 43.640625 8.9003906 C 43.510625 8.8803906 43.369766 8.92 43.259766 9 C 43.219766 9.06 43.169141 9.1101562 43.119141 9.1601562 L 42.324219 10.277344 L 40.673828 11.621094 L 41.810547 9.3691406 L 39.640625 9.3691406 C 39.460625 9.3691406 39.289219 9.4708594 39.199219 9.6308594 L 38.300781 11.330078 L 36.320312 12.109375 C 36.170313 12.169375 36.049531 12.300703 36.019531 12.470703 L 35.869141 13.179688 L 34.970703 13.910156 L 33.460938 16.240234 L 34.560547 12.910156 L 34.119141 12.439453 C 34.029141 12.329453 33.899766 12.279297 33.759766 12.279297 L 33.470703 12.279297 C 33.220703 12.279297 33.010469 12.459219 32.980469 12.699219 L 32.890625 13.289062 L 31.929688 13.929688 C 31.789687 14.019687 31.710938 14.179609 31.710938 14.349609 L 31.710938 15.779297 L 31.429688 15.990234 L 30.060547 16.160156 C 29.950547 16.180156 29.839766 16.230312 29.759766 16.320312 L 28.929688 17.210938 C 28.859687 17.290937 28.810781 17.39 28.800781 17.5 L 28.730469 18.210938 L 28.130859 19.070312 L 26.769531 19.220703 C 26.619531 19.230703 26.490156 19.309687 26.410156 19.429688 L 25.537109 20.710938 L 24.675781 20.296875 L 26.490234 15.580078 C 26.532234 15.469078 26.542 15.333703 26.5 15.220703 C 26.294 14.589703 25.460547 15.071922 25.060547 15.169922 L 23.869141 15.460938 C 23.729141 15.490937 23.620781 15.569453 23.550781 15.689453 C 23.550781 15.689453 23.389609 15.949844 23.099609 16.089844 C 22.839609 16.199844 22.000469 16.300078 21.480469 16.330078 C 21.290469 16.340078 21.119063 16.460625 21.039062 16.640625 C 20.969062 16.810625 21.010859 17.020156 21.130859 17.160156 C 21.400859 17.460156 22.310078 18.419922 23.080078 18.419922 C 23.080078 18.419922 23.189375 18.420156 23.359375 18.410156 L 24.859375 17.029297 L 24.369141 18.300781 L 24.029297 19.189453 L 23.773438 19.863281 L 20.210938 18.150391 C 20.050937 18.070391 19.860703 18.079687 19.720703 18.179688 C 19.570703 18.279688 19.480234 18.439141 19.490234 18.619141 C 19.540234 19.679141 19.310781 20.509844 19.050781 21.089844 L 21.929688 22.740234 L 18.240234 21.939453 L 16.460938 21.939453 C 16.230937 21.939453 16.030703 22.100078 15.970703 22.330078 C 15.920703 22.550078 16.030234 22.790625 16.240234 22.890625 L 17.859375 23.679688 L 15.769531 26.169922 L 12.300781 28.060547 C 12.190781 28.120547 12.100547 28.219844 12.060547 28.339844 L 11.460938 30.179688 L 11 30.509766 L 11 28.5 C 11 28.31 10.890703 28.140781 10.720703 28.050781 C 10.550703 27.970781 10.349219 27.989609 10.199219 28.099609 L 9.1132812 28.935547 C 9.1077231 28.883412 9.1101623 28.829967 9.1269531 28.779297 L 9.8339844 26.658203 L 9.8339844 26.65625 C 9.9635561 26.268227 9.989382 25.8517 9.9082031 25.449219 L 9.1210938 21.515625 C 9.0973527 21.39692 9.1334523 21.276704 9.21875 21.191406 L 12.308594 18.103516 C 12.322463 18.089646 12.33222 18.072772 12.345703 18.058594 L 12.720703 17.697266 L 14.675781 16.966797 C 14.776781 16.928797 14.863875 16.859531 14.921875 16.769531 L 15.824219 15.369141 L 16.910156 15.242188 C 16.998156 15.231188 17.081344 15.198531 17.152344 15.144531 L 18.720703 13.957031 L 22.666016 13.070312 C 22.705016 13.063313 22.743297 13.050156 22.779297 13.035156 L 25.15625 12.142578 L 28.658203 10.972656 C 28.732203 10.947656 28.799516 10.906563 28.853516 10.851562 L 29.853516 9.8515625 C 30.049516 9.6575625 30.048516 9.3424844 29.853516 9.1464844 C 29.658516 8.9514844 29.341484 8.9514844 29.146484 9.1464844 L 28.230469 10.0625 L 24.978516 11.150391 L 24.320312 10.990234 C 24.153312 10.954234 23.979469 10.999187 23.855469 11.117188 L 23.257812 11.691406 L 22.330078 11.691406 C 22.197078 11.691406 22.070563 11.744891 21.976562 11.837891 L 21.560547 12.253906 L 21.078125 12.341797 L 19.357422 12.529297 C 17.837422 11.660297 17.441016 11.8635 17.291016 11.9375 C 16.938016 12.1145 16.763734 12.505453 16.677734 12.814453 L 16.064453 12.941406 C 15.905453 12.973406 15.772984 13.081469 15.708984 13.230469 L 15.267578 14.246094 L 14.296875 14.40625 C 14.188875 14.42425 14.090625 14.476641 14.015625 14.556641 L 13.552734 15.046875 L 12.998047 14.773438 L 12.998047 14.449219 C 12.998047 14.370639 13.023362 14.299023 13.070312 14.236328 L 13.068359 14.236328 L 15.619141 10.835938 C 15.655711 10.788778 15.695771 10.753918 15.740234 10.728516 L 22.044922 7.1269531 A 1.0001 1.0001 0 0 0 22.044922 7.125 C 22.120382 7.081805 22.210043 7.0694606 22.294922 7.0878906 A 1.0001 1.0001 0 0 0 22.296875 7.0878906 L 22.726562 7.1796875 A 1.0001 1.0001 0 0 0 22.728516 7.1816406 C 23.270187 7.2979611 23.834537 7.2187556 24.324219 6.9609375 A 1.0001 1.0001 0 0 0 24.326172 6.9609375 L 24.84375 6.6875 A 1.0001 1.0001 0 0 0 24.84375 6.6855469 C 25.297974 6.4445621 25.66174 6.063044 25.878906 5.5957031 A 1.0001 1.0001 0 0 0 25.880859 5.59375 L 25.96875 5.4023438 C 26.020467 5.2905081 26.125402 5.2130471 26.25 5.1972656 L 35.816406 4.0332031 z M 56.044922 6.3925781 A 1.0001 1.0001 0 0 0 55.507812 6.5546875 L 53.816406 7.6230469 A 1.000281 1.000281 0 1 0 54.884766 9.3144531 L 56.574219 8.2460938 A 1.0001 1.0001 0 0 0 56.044922 6.3925781 z M 58.654297 10.523438 A 1.0001 1.0001 0 0 0 58.115234 10.685547 L 56.425781 11.753906 A 1.0001 1.0001 0 1 0 57.492188 13.445312 L 59.183594 12.376953 A 1.0001 1.0001 0 0 0 58.654297 10.523438 z M 48.480469 12.259766 L 50.304688 13.248047 L 52.033203 17.283203 A 1.0001 1.0001 0 0 0 52.035156 17.287109 C 52.089626 17.412547 52.156414 17.539309 52.238281 17.662109 L 55.857422 23.089844 A 1.0001 1.0001 0 0 0 55.857422 23.091797 C 55.908842 23.168667 55.928986 23.266379 55.910156 23.361328 L 54.101562 32.404297 C 54.087272 32.475227 54.053236 32.536613 54.003906 32.585938 L 53.986328 32.605469 C 53.271424 33.320373 53.093942 34.422484 53.544922 35.326172 L 53.939453 36.117188 C 54.108622 36.455526 54.363081 36.765826 54.701172 36.996094 A 1.0001 1.0001 0 0 0 54.703125 36.996094 C 55.13527 37.289167 56.025931 38.094482 56 38.970703 C 55.9943 39.161004 55.624093 39.818203 54.972656 40.408203 C 54.321219 40.998203 53.500568 41.539348 52.996094 41.845703 C 52.430051 42.190475 52.030097 42.769485 51.908203 43.421875 C 51.769381 44.166331 51.498745 45.496641 51.179688 46.59375 C 51.020646 47.140625 50.844274 47.633844 50.701172 47.921875 C 50.568309 47.909409 50.44384 47.868908 50.314453 47.84375 C 50.313752 47.779779 50.327407 47.717412 50.310547 47.652344 C 50.164547 47.093344 49.546906 46.728297 49.003906 46.404297 C 48.831906 46.302297 48.676078 46.213812 48.580078 46.132812 C 48.289078 45.886812 47.722297 45.583875 47.404297 45.421875 C 47.342297 45.138875 47.239156 44.663609 47.160156 44.349609 C 47.787156 42.836609 47.726516 41.819266 46.978516 41.322266 C 46.181516 40.796266 45.027734 41.110609 44.677734 41.224609 L 44 41.224609 C 43.806 41.224609 43.628875 41.336672 43.546875 41.513672 C 43.464875 41.689672 43.492187 41.898875 43.617188 42.046875 L 44.251953 42.802734 L 44.207031 43.595703 C 44.201031 43.697703 44.227297 43.797766 44.279297 43.884766 L 44.480469 44.214844 L 44.369141 44.228516 C 44.183141 44.251516 44.026891 44.376734 43.962891 44.552734 C 43.898891 44.728734 43.937453 44.926453 44.064453 45.064453 L 44.349609 45.373047 L 44.021484 45.619141 C 43.930484 45.687141 43.835641 45.791391 43.806641 45.900391 L 42.748047 48.964844 L 41.552734 49.259766 L 41.523438 49.267578 L 39.849609 43.322266 C 39.782609 43.083266 39.554828 42.934844 39.298828 42.964844 C 39.051828 42.998844 38.867188 43.208984 38.867188 43.458984 L 38.867188 45.220703 C 38.867188 45.282703 38.879391 45.342391 38.900391 45.400391 L 40.082031 48.470703 L 40.060547 49.417969 L 39.935547 50.050781 C 39.901547 50.223781 39.96975 50.393484 40.09375 50.521484 C 40.27675 50.708484 41 50.78125 41 50.78125 L 41.146484 51.160156 C 41.222484 51.358156 41.412281 51.480469 41.613281 51.480469 C 41.673281 51.480469 41.732969 51.469266 41.792969 51.447266 C 42.050969 51.347266 42.179078 51.059734 42.080078 50.802734 L 41.955078 50.480469 L 42.732422 50.242188 L 42.035156 53.720703 C 42.031056 53.741413 42.026491 53.754783 42.025391 53.757812 A 1.0001 1.0001 0 0 0 42.023438 53.763672 L 40.359375 58.755859 C 40.310238 58.903717 40.178544 59 40.021484 59 L 39.558594 59 L 39.759766 57.599609 C 39.789766 57.429609 39.719844 57.260391 39.589844 57.150391 L 37.740234 55.609375 L 37.050781 53.529297 C 37.020781 53.449297 36.970156 53.370313 36.910156 53.320312 L 36.630859 53.070312 L 37.449219 53.25 C 37.659219 53.29 37.89 53.2 38 53 C 38.1 52.81 38.070156 52.570156 37.910156 52.410156 L 36.980469 51.480469 L 37.439453 51.009766 C 37.559453 50.889766 37.610312 50.720547 37.570312 50.560547 C 37.560313 50.480547 37.530469 50.409609 37.480469 50.349609 L 38.169922 50.310547 C 38.439922 50.290547 38.650859 50.059297 38.630859 49.779297 C 38.620859 49.499297 38.409375 49.290547 38.109375 49.310547 L 36.369141 49.410156 C 36.329141 49.420156 36.280234 49.429453 36.240234 49.439453 C 36.160234 49.469453 35.549609 49.690937 35.099609 49.960938 C 34.719609 49.900937 34.249922 50.000937 33.919922 50.210938 C 33.599922 50.410938 33.410859 50.710781 33.380859 51.050781 C 33.370859 51.320781 32.919531 52.120937 32.519531 52.710938 C 32.409531 52.870937 32.399766 53.089766 32.509766 53.259766 C 32.619766 53.429766 32.829297 53.520469 33.029297 53.480469 L 33.599609 53.369141 L 33.660156 53.509766 L 32.369141 55.550781 C 32.259141 55.720781 32.260859 55.939375 32.380859 56.109375 L 32.980469 56.939453 L 32.640625 58.109375 C 32.620625 58.179375 32.610859 58.260078 32.630859 58.330078 L 32.785156 59.275391 C 32.709456 59.379118 32.638932 59.487566 32.580078 59.605469 L 32.482422 59.800781 A 1.0001 1.0001 0 0 0 32.480469 59.802734 C 32.419035 59.925656 32.298021 60 32.160156 60 L 30.150391 60 C 29.970045 60 29.826468 59.878729 29.796875 59.701172 L 29.056641 55.263672 C 28.99143 54.870982 28.823571 54.506833 28.580078 54.197266 L 28.595703 53.8125 L 29.246094 53.693359 C 29.398094 53.665359 29.531562 53.566734 29.601562 53.427734 L 30.34375 51.96875 C 30.42375 51.81475 30.417172 51.629469 30.326172 51.480469 C 30.234172 51.333469 30.072438 51.242188 29.898438 51.242188 L 28.841797 51.242188 L 28.550781 50.466797 C 28.500781 50.331797 28.394766 50.226781 28.259766 50.175781 L 27.019531 49.705078 C 26.806531 49.625078 26.563594 49.699672 26.433594 49.888672 L 25.673828 50.980469 L 25.416016 50.980469 L 25.416016 49.857422 C 25.660016 49.717422 25.832031 49.465062 25.832031 49.164062 C 25.832031 48.717062 25.468484 48.355469 25.021484 48.355469 C 24.904484 48.355469 24.795313 48.382734 24.695312 48.427734 C 24.694312 48.427734 24.693406 48.425781 24.691406 48.425781 C 24.491406 48.520781 24.200328 48.774109 24.111328 48.912109 L 23.011719 50.619141 C 22.961719 50.697141 22.933641 50.785906 22.931641 50.878906 L 22.90625 51.933594 L 22.53125 52.570312 L 21.574219 53.589844 C 21.409219 53.765844 21.393156 54.031563 21.535156 54.226562 C 21.677156 54.421563 21.936344 54.485766 22.152344 54.384766 L 24.257812 53.382812 L 24.324219 53.361328 L 23.082031 55.224609 C 23.028031 55.305609 23 55.401 23 55.5 L 23 58 L 22.630859 58 C 22.525928 58 22.426065 57.95419 22.357422 57.873047 L 20.396484 55.554688 C 20.335854 55.482937 20.30566 55.391843 20.3125 55.298828 L 20.515625 52.505859 C 20.552125 52.007028 20.428646 51.507656 20.164062 51.083984 L 19.667969 50.289062 C 19.606259 50.190222 19.594612 50.070396 19.638672 49.962891 L 19.876953 49.380859 C 20.266112 48.429582 19.988362 47.324563 19.197266 46.669922 L 17.714844 45.447266 C 17.06132 44.908152 16.163812 44.758277 15.371094 45.0625 L 14.474609 45.40625 C 14.322359 45.46456 14.16032 45.418331 14.0625 45.289062 L 10.587891 40.701172 C 10.378843 40.424496 10.103358 40.183664 9.7714844 40.019531 C 9.2198942 39.746221 7.7902085 38.829676 7.5410156 37.560547 C 7.5009788 37.356078 7.6782561 36.772565 8.15625 36.136719 C 8.6305441 35.505793 9.3016934 34.866416 9.8183594 34.423828 L 10.130859 35.119141 C 10.370859 35.639141 10.900703 35.980469 11.470703 35.980469 L 12.019531 35.980469 L 12.589844 37 L 10.5 37 C 10.22 37 10 37.22 10 37.5 C 10 37.78 10.22 38 10.5 38 L 26.259766 38 C 26.419766 38 26.570156 37.930781 26.660156 37.800781 L 27.259766 37 L 28.5 37 C 28.78 37 29 36.78 29 36.5 C 29 36.22 28.78 36 28.5 36 L 28 36 L 28.679688 35.089844 L 27.009766 35.089844 L 29.429688 33.75 L 29.869141 32.880859 L 30.759766 32.449219 C 30.809766 32.419219 30.860391 32.389609 30.900391 32.349609 L 31.720703 31.5 L 33.800781 29.900391 C 34.020781 29.730391 34.060391 29.409219 33.900391 29.199219 C 33.730391 28.979219 33.409219 28.939609 33.199219 29.099609 L 31.505859 30.404297 C 30.374859 29.802297 29.540891 28.997203 28.962891 28.283203 C 29.053891 27.216203 29.006 26.517938 29 26.460938 C 28.98 26.260938 28.850156 26.089297 28.660156 26.029297 L 28.189453 25.869141 L 22.580078 24.189453 L 26.380859 24.470703 C 26.607773 23.386561 26.472048 22.430121 26.333984 21.818359 L 27.160156 21.550781 C 27.250156 21.520781 27.330625 21.470391 27.390625 21.400391 L 28.130859 20.509766 L 29.470703 20.039062 C 29.550703 20.009062 29.629453 19.960625 29.689453 19.890625 L 30.410156 19.009766 L 31.560547 19 C 31.670547 18.99 31.790859 18.950859 31.880859 18.880859 L 33.009766 17.900391 L 34.400391 17.900391 C 34.520391 17.900391 34.640469 17.859297 34.730469 17.779297 L 36.019531 16.660156 L 40.240234 15.080078 L 41.210938 14.699219 L 41.689453 13.400391 L 43.189453 13.919922 L 46 12.539062 L 48.480469 12.259766 z M 61.263672 14.654297 A 1.0001 1.0001 0 0 0 60.724609 14.816406 L 59.033203 15.884766 A 1.0002806 1.0002806 0 0 0 60.101562 17.576172 L 61.792969 16.507812 A 1.0001 1.0001 0 0 0 61.263672 14.654297 z M 42.800781 17.308594 C 42.728031 17.309594 42.653437 17.325703 42.585938 17.345703 C 42.450937 17.386703 42.322719 17.519484 42.261719 17.646484 C 42.002719 18.187484 41.298672 18.380219 40.763672 18.074219 C 40.640672 18.003219 40.498281 17.977531 40.363281 18.019531 C 40.228281 18.057531 40.115734 18.150391 40.052734 18.275391 C 39.943734 18.493391 38.807156 20.556891 39.035156 20.712891 C 39.122156 20.772891 40.369266 19.656531 40.697266 19.144531 C 41.101266 19.468531 41.653188 19.701422 41.992188 19.607422 C 42.331187 19.513422 42.758797 18.827938 42.966797 18.460938 C 43.526797 18.732938 45.008094 19.15825 45.121094 18.90625 C 45.235094 18.65425 43.218859 17.484422 43.005859 17.357422 C 42.945359 17.320422 42.873531 17.307594 42.800781 17.308594 z M 48.886719 21.341797 C 48.790469 21.355547 48.696094 21.39875 48.621094 21.46875 L 45.251953 24.548828 C 45.181953 24.608828 45.131563 24.689063 45.101562 24.789062 L 44.912109 25.509766 L 42.392578 26.888672 C 42.272578 26.958672 42.182344 27.078984 42.152344 27.208984 L 41.941406 28.089844 L 41.548828 28.232422 C 41.100828 28.395422 40.746984 28.748266 40.583984 29.197266 L 40.453125 29.554688 C 40.340125 29.864687 40.137188 30.130312 39.867188 30.320312 C 38.827188 31.052312 37.562 31.947 37.5 32 C 37.38 32.04 37.340156 32.050859 36.160156 33.130859 C 36.010156 33.270859 35.959297 33.489688 36.029297 33.679688 C 36.109297 33.869688 36.29 34 36.5 34 L 38.359375 34 L 38.240234 34.070312 C 38.050234 34.190312 37.959531 34.420859 38.019531 34.630859 C 38.079531 34.850859 38.28 35 38.5 35 L 39.925781 34.980469 C 40.053781 34.978469 40.180688 34.991531 40.304688 35.019531 L 42.429688 35.501953 L 40.470703 35.957031 C 40.351703 35.985031 40.228469 36 40.105469 36 L 37.5 36 C 37.22 36 37 36.22 37 36.5 C 37 36.78 37.22 37 37.5 37 L 42.150391 37 L 42.099609 37.140625 L 40.279297 38.050781 C 40.069297 38.160781 39.959766 38.389141 40.009766 38.619141 C 40.069766 38.839141 40.27 39 40.5 39 L 48.5 39 C 48.73 39 48.930234 38.839141 48.990234 38.619141 C 49.040234 38.389141 48.930703 38.160781 48.720703 38.050781 L 47.320312 37.349609 L 47.640625 37 L 50.5 37 C 50.73 37 50.930234 36.839141 50.990234 36.619141 C 51.040234 36.389141 50.930703 36.160781 50.720703 36.050781 L 49.294922 35.337891 C 49.100922 35.240891 48.889828 35.182922 48.673828 35.169922 L 45.630859 34.980469 L 48.164062 34.480469 C 48.334063 34.447469 48.497437 34.387734 48.648438 34.302734 L 49.242188 33.964844 C 49.577188 33.774844 49.969656 33.711156 50.347656 33.785156 L 51.449219 34 L 51.5 34 C 51.7 34 51.880938 33.879453 51.960938 33.689453 C 52.040937 33.499453 51.999609 33.290391 51.849609 33.150391 L 51.261719 32.554688 C 51.057719 32.348687 50.91375 32.092547 50.84375 31.810547 L 50.03125 28.539062 C 50.00025 28.414062 49.954531 28.293688 49.894531 28.179688 L 49.550781 27.525391 C 49.400781 27.240391 49.340953 26.919609 49.376953 26.599609 L 49.611328 24.458984 C 49.621328 24.378984 49.611797 24.308516 49.591797 24.228516 L 49.322266 23.449219 L 49.451172 21.878906 C 49.471172 21.678906 49.361875 21.478672 49.171875 21.388672 C 49.081875 21.343672 48.982969 21.328047 48.886719 21.341797 z M 36.5 22 C 36.375 22 33.929406 23.509047 34.066406 23.748047 C 34.203406 23.990047 36.187547 23.140391 36.435547 23.025391 C 36.509547 23.083391 37.543203 24.253906 38.033203 24.253906 C 38.523203 24.253906 39.544234 23.095109 39.615234 23.037109 C 39.938234 23.174109 41.908 23.909047 42 23.748047 C 42.137 23.509047 39.691406 22 39.566406 22 C 39.272406 22 38.335969 22.716797 38.042969 22.716797 C 37.749969 22.716797 36.794 22 36.5 22 z M 19.390625 26.060547 L 18.890625 28.050781 L 17.380859 30.609375 L 15.720703 31.210938 L 16.5 29.529297 L 15.039062 28.050781 L 16.359375 28.240234 L 17.949219 26.669922 L 19.390625 26.060547 z M 47.25 28.419922 L 45.912109 29.626953 C 45.714109 29.805953 45.562656 30.03025 45.472656 30.28125 L 45.103516 31.316406 C 44.925516 31.813406 44.516812 32.191078 44.007812 32.330078 C 43.563812 32.450078 43.088125 32.377953 42.703125 32.126953 L 42.300781 31.863281 C 42.115781 31.742281 41.907453 31.660047 41.689453 31.623047 L 39.888672 31.320312 L 41.794922 31.058594 C 42.072922 31.020594 42.355234 31.054203 42.615234 31.158203 C 42.615234 31.158203 43.155172 31.356438 43.576172 31.273438 C 43.999172 31.190438 44.399844 30.811859 44.589844 30.380859 L 44.818359 29.863281 C 44.991359 29.471281 45.315797 29.163766 45.716797 29.009766 L 47.25 28.419922 z M 28.792969 29.603516 C 29.291969 30.113516 29.905484 30.623406 30.646484 31.066406 L 30.5 31.179688 L 29.460938 31.179688 C 29.180937 31.179688 28.960938 31.399687 28.960938 31.679688 L 28.960938 32.009766 L 26.160156 33.330078 L 28.449219 31.179688 C 28.601219 30.619688 28.709969 30.095516 28.792969 29.603516 z M 33.148438 34.984375 C 33.084187 34.973375 33.016172 34.974734 32.951172 34.990234 C 32.822172 35.019234 32.711625 35.099891 32.640625 35.212891 L 32.09375 36.085938 L 31.419922 35.789062 C 31.287922 35.730063 31.135906 35.734875 31.003906 35.796875 C 30.872906 35.859875 30.774328 35.975234 30.736328 36.115234 L 30.230469 37.966797 L 29.066406 38.882812 C 29.002406 38.933813 28.950969 38.999219 28.917969 39.074219 L 28.558594 39.904297 L 27.650391 41.472656 C 27.583391 41.589656 27.601562 41.724375 27.601562 41.859375 C 27.601562 42.181375 26.689453 42.330078 26.689453 42.330078 C 26.435453 42.367078 26.251719 42.591656 26.261719 42.847656 C 26.273719 43.103656 26.476422 43.310172 26.732422 43.326172 L 29.652344 43.349609 L 28.302734 43.685547 L 27.072266 43.685547 C 26.821266 43.737547 26.651734 43.969609 26.677734 44.224609 C 26.703734 44.479609 26.917828 44.673828 27.173828 44.673828 L 30.972656 44.673828 C 31.255656 44.673828 31.471656 44.437297 31.472656 44.154297 C 31.479656 41.681297 32.790422 40.389219 33.607422 39.824219 L 33.675781 40.890625 C 33.728781 41.713625 33.955797 42.515141 34.341797 43.244141 L 34.796875 44.103516 C 34.826875 44.160516 34.865156 44.208047 34.910156 44.248047 C 34.997156 44.407047 35.165609 44.509766 35.349609 44.509766 L 37.46875 44.509766 C 37.74475 44.509766 37.96875 44.285766 37.96875 44.009766 C 37.96875 43.733766 37.74475 43.509766 37.46875 43.509766 L 36.542969 43.509766 L 37.410156 42.626953 C 37.547156 42.486953 37.591484 42.280656 37.521484 42.097656 L 35.376953 36.455078 C 35.337953 36.353078 35.265828 36.266984 35.173828 36.208984 L 33.330078 35.052734 C 33.274078 35.018234 33.212688 34.995375 33.148438 34.984375 z M 36.310547 56.039062 C 36.490547 55.959062 37.937 57.336 38 57.5 C 38.063 57.664 37.832453 58.914938 37.689453 58.960938 C 37.546453 59.006937 36.272391 58.066609 36.150391 57.849609 C 36.028391 57.632609 36.130547 56.119063 36.310547 56.039062 z" fill="#80d5ad"/></svg>