<svg width="24" height="24" viewBox="0 0 24 24" fill="none" xmlns="http://www.w3.org/2000/svg">
<path d="M6.0375 10.4625C5.90159 10.3207 5.80931 10.1427 5.77163 9.94994C5.73396 9.75714 5.75248 9.55757 5.825 9.375C5.89957 9.19066 6.0274 9.03274 6.19217 8.92141C6.35693 8.81008 6.55115 8.7504 6.75 8.75H11V1C11 0.734784 11.1054 0.48043 11.2929 0.292893C11.4804 0.105357 11.7348 0 12 0C12.2652 0 12.5196 0.105357 12.7071 0.292893C12.8946 0.48043 13 0.734784 13 1V8.75H17.25C17.4489 8.7504 17.6431 8.81008 17.8078 8.92141C17.9726 9.03274 18.1004 9.19066 18.175 9.375C18.2475 9.55757 18.266 9.75714 18.2284 9.94994C18.1907 10.1427 18.0984 10.3207 17.9625 10.4625L12.7125 15.7125C12.5214 15.8973 12.2659 16.0006 12 16.0006C11.7341 16.0006 11.4786 15.8973 11.2875 15.7125L6.0375 10.4625ZM23 14C22.7348 14 22.4804 14.1054 22.2929 14.2929C22.1054 14.4804 22 14.7348 22 15V22H2V15C2 14.7348 1.89464 14.4804 1.70711 14.2929C1.51957 14.1054 1.26522 14 1 14C0.734784 14 0.48043 14.1054 0.292893 14.2929C0.105357 14.4804 0 14.7348 0 15V22C0 22.5304 0.210714 23.0391 0.585786 23.4142C0.960859 23.7893 1.46957 24 2 24H22C22.5304 24 23.0391 23.7893 23.4142 23.4142C23.7893 23.0391 24 22.5304 24 22V15C24 14.7348 23.8946 14.4804 23.7071 14.2929C23.5196 14.1054 23.2652 14 23 14Z" fill="white"/>
</svg>
