<svg width="27" height="25" viewBox="0 0 295 276" fill="none" xmlns="http://www.w3.org/2000/svg">
<path d="M227.733 226.399C226.848 228.329 225.561 231.627 224.756 233.878C223.952 236.05 217.516 247.953 217.275 248.436C181.861 266.317 99.123 287.523 29.6056 268.22C27.3532 267.336 18.1226 254.427 18.1226 252.658C78.8826 247.939 147.533 243.449 229.281 213.531C229.442 214.013 228.617 224.469 227.733 226.399Z" fill="#80d5ad"/>
<path d="M78.9157 11.6818C78.9157 11.6818 37.2874 18.9201 39.399 15.301C41.5105 11.6818 77.3876 1.52811 77.3876 1.52811C75.8183 3.99432 77.4782 8.86029 78.9157 11.6818Z" fill="#80d5ad"/>
<path d="M80.7663 3.05176e-05C84.2252 1.60855 84.7079 3.05618 86.4776 17.935C87.2016 23.8865 87.9255 28.8729 88.006 28.9533C88.006 28.9533 106.668 27.968 114.511 27.184C122.354 26.3999 121.952 72.5442 121.952 72.5442C121.148 74.2331 119.298 74.8765 108.519 77.5306C104.931 77.5306 91.5254 79.997 85.271 81.2302L73.3657 82.1953C66.8499 82.7583 59.1275 83.08 56.2317 82.9191L51.003 82.6778C56.1379 69.6488 38.494 32.492 47.5436 31.527C56.5933 30.562 80.8467 29.7776 80.8467 29.7776V25.3342C80.6054 22.841 79.7201 16.5074 78.9157 11.6818C77.4782 8.86029 75.8183 3.99432 77.3876 1.52811C77.9842 0.590729 79.0472 3.05176e-05 80.7663 3.05176e-05Z" fill="#80d5ad"/>
<path d="M162.413 1.52811C163.137 2.41278 163.7 6.43408 164.103 12.6269C164.424 17.935 165.229 27.9882 165.712 34.8244L166.757 47.2904C166.757 47.2904 184.193 44.5561 191.131 43.3496C198.069 42.1431 204.103 62.0485 195.656 63.5565C187.21 65.0645 172.79 67.8795 172.79 67.8795V73.9114C172.79 79.2999 172.951 79.9433 174.238 79.5412C174.962 79.2999 179.065 78.3348 183.248 77.3697C194.59 74.7961 200.221 73.5093 203.519 72.705C206.415 72.0616 206.737 72.142 209.391 75.1178C212.528 78.5761 215.666 84.4472 219.848 94.8221C221.457 98.763 223.227 103.026 223.79 104.393C227.732 113.481 227.812 113.963 226.364 122.81C225.64 127.395 224.273 133.346 223.388 136C221.86 140.504 221.457 140.987 217.998 142.434L198.612 149.431L190.729 151.522C183.409 153.453 182.846 153.694 183.006 155.544C183.489 162.058 185.178 172.996 185.822 174.202C186.224 174.926 186.948 178.063 187.511 181.039C188.718 187.634 189.039 187.714 199.256 184.819L269.32 161.093C289.189 154.418 294.418 153.292 294.9 155.544C295.061 156.428 292.487 158.037 285.65 161.254C277.364 165.195 264.576 167.628 259.587 172.594C254.597 177.56 256.449 175.811 254.036 179.35C248.405 187.634 238.833 199.456 234.006 203.96C173.016 230.597 69.4836 242.136 25.3414 244.575L14.6226 245.118C7.58401 235.567 -4.80395 216.006 1.95312 214.174L53.6568 203.196C71.636 198.37 70.1277 205.737 64.9996 206.373C52.0284 207.981 55.0449 207.418 57.5984 218.437C57.5657 219.592 59.3218 221.66 66.6078 220.689C79.2371 219.241 78.5131 219.563 79.5589 214.174C80.122 211.198 80.9264 209.268 81.8112 208.946L95.9689 206.936C96.2102 206.614 95.8885 202.512 95.4058 197.848C94.3601 188.679 94.2796 188.438 89.0509 188.438C82.3801 187.288 65.4999 187.197 57.7999 187.852C56.0292 188.002 54.18 188.418 54.18 188.418C51.1635 184.195 52.9336 148.815 52.9336 132.924C52.9336 118.688 48.7363 104.661 41.1884 93.7766C57.4474 94.1532 94.2584 90.9045 113.67 86.0557C128.26 110.366 127.4 145.368 131.864 164.252C133.567 171.458 136.045 176.317 140.453 177.339C146.572 178.758 144.478 180.586 139.056 182.43C137.036 183.116 134.555 183.805 131.864 184.476C122.937 186.701 111.708 188.725 107.392 189.805L107.955 195.354C108.196 198.411 108.679 202.11 109 203.638L109.483 206.373C126.629 206.42 163.652 203.075 174.577 189.322C175.702 187.152 174.956 183.928 174.077 177.339C173.434 172.111 172.629 165.516 172.388 162.541C172.066 159.565 171.584 156.911 171.262 156.67C170.86 156.509 165.792 156.911 159.839 157.635C150.669 158.761 134.713 160.284 133.828 159.399C133.214 140.859 129.35 100.793 118.814 88.8455C117.527 86.2719 116.481 86.6187 116.481 86.0557C116.481 84.0451 122.273 83.2408 139.407 82.7582C157.265 82.1953 163.7 81.7127 164.264 80.7476C164.827 79.8629 163.138 70.7144 162.172 69.5884C162.172 69.5884 146.185 72.0012 140.453 72.5442C134.722 73.0871 129.594 51.4926 136.833 50.8894C144.073 50.2862 161.77 48.2555 161.77 48.2555L161.207 43.3496C160.242 33.5376 158.794 23.5648 158.311 23.5648C147.499 22.1493 134.822 28.3904 129.835 31.6878C129.432 31.0444 126.939 11.7422 126.939 9.24899C136.913 7.84821 157.152 4.50378 158.311 2.33228C159.47 0.160797 159.598 0.241302 159.598 0.241302C160.563 0.241302 161.85 0.80426 162.413 1.52811Z" fill="#80d5ad"/>
<path d="M140.453 177.339C136.045 176.317 133.567 171.458 131.864 164.252C131.864 164.252 143.721 163.828 148.574 162.541C153.426 161.254 154.173 177.339 149.88 179.35C145.587 181.36 139.056 182.43 139.056 182.43C144.478 180.586 146.572 178.758 140.453 177.339Z" fill="#80d5ad"/>
</svg>
