<svg width="29" height="26" viewBox="0 0 318 289" fill="none" xmlns="http://www.w3.org/2000/svg">
<path d="M27.8847 280.141C48.6997 288.728 138.41 298.021 228.993 267.937C239.2 261.219 250.822 235.245 251.47 224.621C228.993 242.07 131.988 262.036 19.3503 266.012C20.0826 269.982 22.8148 278.367 27.8847 280.141Z" fill="#80d5ad"/>
<path d="M80.2742 195.01C80.7812 195.687 81.6262 198.648 81.9642 201.524C82.9782 208.969 85.4287 215.822 88.6396 219.798C90.9211 222.759 91.9351 223.352 95.3151 223.775C97.512 224.028 100.047 224.451 100.977 224.621C115.088 226.397 200.467 209.146 241.456 200.509C250.646 197.971 252.23 197.21 251.47 199.832C251.132 200.932 250.456 204.401 250.033 207.7C249.442 211.592 248.681 213.876 247.752 214.468C230.338 226.454 159.45 251.778 15.2099 257.192C14.7874 257.192 13.8579 255.331 13.1819 252.962C12.5059 250.678 10.1399 244.587 7.94292 239.426C4.73195 231.727 2.2181 227.159 4.47846 226.651C6.73881 226.144 15.2099 224.621 21.5473 224.621C27.8847 224.621 9.54841 201.189 13.8579 200.373C34.87 196.781 77.5703 190.678 80.2742 195.01Z" fill="#80d5ad"/>
<path d="M44.7001 119.799C45.6296 119.207 50.277 129.444 51.8825 135.62C53.826 142.98 55.2625 157.193 54.5865 161.762C53.995 165.738 45.3761 180.797 43.0101 181.981C41.7426 182.658 28.5607 184.266 21.9698 184.604L18.1673 184.858C24.3358 166.584 8.62596 141.88 0 131.813C0 131.474 2.78848 130.374 6.16844 129.444L6.56544 129.321C10.1087 128.23 18.261 125.719 24.9273 123.522C40.0526 118.615 40.5596 118.53 42.5031 119.461C43.2636 119.884 44.2776 120.053 44.7001 119.799Z" fill="#80d5ad"/>
<path d="M228.317 155.924C226.12 157.955 204.995 167.345 199.587 168.784C196.968 169.376 194.602 170.476 194.264 171.068C193.25 172.591 193.334 186.719 194.264 187.396L204.066 184.858C204.066 184.858 200.263 173.267 205.65 171.956C211.037 170.645 245.301 164.807 245.301 164.807C247.667 164.892 249.273 166.584 249.273 169.037C249.273 170.899 249.526 171.068 252.061 170.645C252.061 170.645 332.399 157.68 315.288 163.39C298.176 169.101 255.441 181.22 255.441 181.22C254.85 181.728 254.089 183.589 253.751 185.45L253.075 188.834C166.801 210.492 100.723 216.689 95.3151 214.468C89.9071 212.248 87.7735 204.316 90.6254 203.999C93.4772 203.682 99.1175 203.216 99.1175 203.216C99.371 202.878 99.7935 198.563 100.132 193.487L100.723 184.435H85.5977C69.6273 184.35 61.1774 183.25 59.6564 180.882C74.1734 163.657 61.8745 119.954 53.9105 100.256C53.657 96.8721 53.657 96.8721 57.4595 95.8569C73.4861 90.1886 107.787 80.104 116.778 85.1125C132.143 94.5315 158.943 127.413 143.226 183.589C141.79 185.112 140.691 185.281 128.27 185.281H114.919V192.218C114.919 196.11 115.257 199.748 115.679 200.425C116.947 202.455 140.184 200.425 158.267 196.702C166.632 195.01 174.237 193.318 175.336 192.895C177.364 192.134 177.364 191.964 176.941 182.997C176.688 178.005 176.35 173.352 176.096 172.76C175.927 172.168 174.237 171.745 171.702 171.745C169.702 171.745 156.535 172.76 156.535 172.76C154.688 173.358 147.217 172.76 152.099 166.88C156.98 161 157.739 107.236 128.65 86.2969C126.622 84.7741 119.778 78.154 119.778 77.731C119.778 77.3926 135.79 73.6067 144.747 73.6067C164.647 70.6667 206.753 65.3833 215.98 67.7691C217.416 67.6845 219.275 69.6304 223.585 75.7217C230.394 97.4079 240.873 143.809 228.317 155.924Z" fill="#80d5ad"/>
<path d="M88.6396 80.2691C104.885 74.4315 143.86 62.82 162.238 65.6753C180.617 68.5306 144.747 33.9497 154 26.3355C163.252 18.7213 87.1398 26.3355 78.9011 41.8811C70.6624 57.4266 72.3947 86.1066 88.6396 80.2691Z" fill="#80d5ad"/>
<path d="M112.025 0.00320435C107.272 0.320465 96.3713 29.1908 102.772 25.0665C109.173 20.9421 110.124 21.5766 116.778 22.2112C123.432 22.8457 116.778 -0.314056 112.025 0.00320435Z" fill="#80d5ad"/>
</svg>
