<svg width="27" height="25" viewBox="0 0 300 280" fill="none" xmlns="http://www.w3.org/2000/svg">
<path d="M299.387 180.054C299.387 182.309 298.582 183.195 285.546 194.629L277.74 201.474C267.388 227.255 267.69 238.126 234.193 259.566C207.087 276.915 206.128 267.517 213.672 262.283C216.187 261.377 220.07 257.21 237.211 246.581C254.351 235.952 261.565 212.256 256.233 203.097L239.607 205.339C224.317 207.674 217.859 208.56 206.11 211.459C189.774 215.405 165.291 218.629 162.957 218.629C161.428 218.629 160.301 217.743 158.531 214.845C157.47 213.289 157.284 211.668 157.324 211.052L161.305 210.262L277.016 187.301C286.028 183.275 294.237 179.49 295.363 179.007C298.502 177.558 299.387 177.799 299.387 180.054Z" fill="#80d5ad"/>
<path d="M111.975 0.777618C110.133 0.475647 98.999 5.91107 91.7565 9.23273C84.514 12.5544 111.673 11.0445 113.182 10.4406C114.691 9.83667 113.817 1.07956 111.975 0.777618Z" fill="#80d5ad"/>
<path fill-rule="evenodd" clip-rule="evenodd" d="M130.073 33.0959C129.59 32.6127 127.336 25.0434 125.083 16.1856C121.542 1.61057 120.979 6.10352e-05 119.45 6.10352e-05C117.036 6.10352e-05 116.714 0.563751 116.714 5.5563C116.714 8.59378 116.815 10.407 116.082 11.772C114.853 14.0618 111.277 15.0902 100.941 18.5208C92.8137 21.2587 86.1345 23.8355 86.1345 24.2381C86.1345 25.2044 87.6635 25.446 102.551 26.976C118.243 28.5865 119.128 28.9086 119.128 32.4517C119.128 34.5862 118.751 35.2119 115.333 37.2728L132.194 34.4553C131.155 34.0313 130.441 33.5014 130.073 33.0959ZM143.247 54.5334C141.609 55.7671 140.283 56.7797 140.212 56.8508C140.051 56.9313 140.534 59.1055 141.258 61.6823L141.619 62.9698C136.78 63.9715 131.777 65.0632 126.75 66.1682L126.532 63.6149C126.371 61.6823 125.486 60.1523 123.876 58.7834H117.623L143.247 54.5334Z" fill="#80d5ad"/>
<path d="M115.333 37.2728L132.194 34.4553C132.194 34.4553 144.287 32.4844 151.217 31.2765C158.146 30.0686 162.069 51.5084 157.845 52.1123C153.62 52.7163 143.247 54.5334 143.247 54.5334L117.623 58.7834C117.623 58.7834 113.182 59.6616 105.046 60.8694C96.9088 62.0773 96.1936 40.3353 100.62 39.7315C105.046 39.1277 115.333 37.2728 115.333 37.2728Z" fill="#80d5ad"/>
<path d="M50.7155 192.226C52.5272 193.434 51.0374 198.817 50.7155 199.22C49.267 198.898 36.4316 199.676 30.195 200.106L41.5416 236.342L49.5889 236.1C98.4089 234.409 205.979 227.114 245.701 211.46C249.402 211.057 249.483 211.057 249.483 213.151C234.354 245.81 170.813 302.936 37.6789 270.162L35.9085 267.988C33.8967 265.411 14.201 239.475 14.201 238.025C14.201 237.462 22.3891 238.194 23.1134 237.308C24.4814 235.859 24.24 234.973 18.446 217.982L12.3301 200.106C1.90081 199.645 -0.223663 196.21 0.0177543 194.549C0.0177543 192.617 0.259171 190.845 0.661534 190.443L50.7155 192.226Z" fill="#80d5ad"/>
<path d="M177.149 180.698C174.252 181.826 168.538 183.839 164.434 185.208C160.411 186.657 156.87 188.268 156.629 188.912C155.904 190.764 158.318 203.97 160.089 207.916C160.563 208.94 160.944 209.7 161.305 210.262L157.324 211.052C157.284 211.668 157.47 213.289 158.531 214.845C160.301 217.743 161.428 218.629 162.957 218.629L74.5465 228.691C68.8329 229.657 64.6483 229.738 64.1655 228.852C63.1998 227.403 59.4176 198.736 60.0614 198.092C61.0271 197.125 79.9696 197.79 88.4193 197.488C96.8689 197.186 87.3906 209.264 92.7333 209.264C98.076 209.264 117.467 204.695 122.106 204.695C126.744 204.695 132.326 211.217 133.211 211.459C136.792 211.737 144.348 211.916 145.926 210.412C144.799 204.775 143.029 196.32 142.385 193.904C141.661 191.167 141.419 191.005 137.396 190.442L123.876 185.208C123.876 185.208 112.673 184.16 88.4193 187.301C72.619 189.348 84.5177 157.444 84.3659 124.122C84.2846 106.295 56.3684 74.1885 67.2637 74.1885C67.2637 74.1885 99.8705 72.0853 124.038 66.765L124.972 66.5594L126.773 66.4333L126.75 66.1682C131.777 65.0632 136.78 63.9715 141.619 62.9698C160.602 59.0408 177.068 56.4962 182.541 59.9634C196.362 68.7205 248.387 159.311 237.825 171.599C233.105 177.091 207.344 178.778 178.975 180.017L177.149 180.698Z" fill="#80d5ad"/>
</svg>
