<svg width="311" height="54" viewBox="0 0 311 54" fill="none" xmlns="http://www.w3.org/2000/svg">
    <path d="M310.085 8.17943C308.547 6.02343 310.814 3.74664 308.654 2.32072C308.315 2.29905 307.975 2.28102 307.636 2.26664C304.869 2.14766 301.885 2.14225 298.865 1.98181C295.867 1.87312 292.883 1.51135 289.943 0.900205C289.571 0.873165 289.182 0.105222 288.804 0.0799847L267.006 0.0078774C265.276 -0.0768486 238.763 0.552287 237.03 0.440521C234.656 0.33236 232.31 0.555893 229.947 0.58113C227.584 0.606368 225.114 0.963299 222.749 1.13816C220.98 1.26795 219.242 1.4987 217.545 1.64291C216.312 1.74566 215.104 1.89529 213.901 1.99083C212.108 2.11882 210.328 2.22157 208.591 2.34235C205.961 2.52622 203.375 2.7101 200.813 2.80924C199.403 2.83629 197.99 2.82727 196.561 2.81646C194.502 2.79843 192.421 2.76238 190.258 2.67945C188.528 2.61636 186.747 2.57129 184.916 2.49918C183.305 2.48804 181.694 2.42251 180.087 2.30269C177.266 2.06303 174.437 1.94935 171.607 1.96198C170.315 2.00345 169.033 2.00885 167.788 1.98001C165.099 1.88627 109.449 1.80335 106.665 1.98362C105.658 2.02868 104.68 2.0377 103.76 2.01066C103.067 1.9746 102.351 1.95117 101.62 1.94396C99.0174 2.02568 96.4784 2.11101 94.0031 2.19994C91.8628 2.23779 89.7631 2.28647 87.7306 2.31531C86.3385 2.33514 84.9534 2.36579 83.5737 2.41446C82.0276 2.47214 80.5117 2.5749 78.9834 2.6452C78.6763 2.64465 78.3694 2.65788 78.0635 2.68486C76.7574 2.80458 75.445 2.83649 74.1348 2.7804C73.0239 2.81886 71.9225 2.87054 70.8305 2.93543C69.548 2.96428 68.2479 2.95526 66.946 2.95346L58.4729 2.83989C56.911 2.86152 55.3826 2.87955 53.849 2.96247C52.3154 3.0472 50.688 3.18781 49.149 3.29417C47.8789 3.41675 46.5664 3.49066 45.2397 3.51409C42.383 3.5213 18.9007 3.61685 16.1094 3.80252C13.5031 3.96041 10.8906 3.98267 8.28201 3.86922C7.95099 3.86871 7.62062 3.89888 7.29496 3.95936C6.51897 4.14658 5.72132 4.22363 4.92463 4.1883C4.32532 4.08522 3.7095 4.16422 3.15396 4.41543C3.12429 4.43646 3.09853 4.46271 3.07789 4.49295C2.73107 4.94185 2.47822 5.45843 2.33495 6.01081C2.37914 7.37685 2.16659 8.7389 1.70876 10.0236C1.24758 10.9808 0.842386 11.965 0.495293 12.971L0.436919 13.1404L2.6622 14.2869L0.0459915 14.5123C0.0434569 14.6055 0.0333992 14.6983 0.0159201 14.7899C0.00884452 15.1144 0.00353781 15.4352 0 15.7525L4.95116 17.4398L0.530671 17.274L0.606734 17.7913C0.69518 18.3628 1.41159 18.945 1.42043 19.4931C1.38214 20.6104 1.18247 21.7159 0.827847 22.7739C0.630818 23.3633 0.607576 23.9985 0.760993 24.6012C0.914411 25.2038 1.23776 25.7474 1.69107 26.1648C2.06524 26.4592 2.39329 26.81 2.66397 27.2049C3.18372 28.346 3.57479 29.5434 3.82968 30.7742C4.00114 32.4163 4.05789 34.0687 3.99949 35.719C3.99242 36.1228 3.92166 36.5248 3.92874 36.9268C3.90259 37.6025 3.92624 38.2792 3.99949 38.9512C4.05256 39.456 4.49832 39.9697 4.49832 40.4745C4.5514 41.8558 4.17702 43.2192 3.42814 44.3719C2.9819 44.9563 2.65746 45.6273 2.4747 46.344C2.18814 47.8691 1.89096 49.414 1.58494 50.9949C1.42928 51.8025 2.52069 52.1901 4.86095 52.3253C5.22004 52.3487 5.55436 52.4064 5.90107 52.4299C7.21906 52.593 8.55045 52.6111 9.87226 52.4839C10.9276 52.2933 11.9913 52.1549 13.0598 52.0693C14.9985 51.9828 16.9496 51.9936 18.8512 51.9918C19.8277 51.9918 41.3234 52.2189 42.2326 52.356C44.9603 52.7886 47.7528 53.1636 50.6101 53.4808C52.964 53.6767 55.3915 53.8089 57.8927 53.8774C59.9818 53.9315 62.1027 53.9892 64.2254 54C65.3872 53.9881 66.5485 53.9478 67.7084 53.8792C68.6849 53.8081 69.6627 53.7576 70.6412 53.7278C72.3093 53.7152 73.9862 53.744 75.6578 53.8107C77.4432 53.9009 79.2434 53.9501 81.0583 53.9585C82.8772 53.966 84.6961 53.933 86.5136 53.8594C89.8321 53.708 93.2602 53.7584 96.6494 53.753C99.2537 53.7732 101.857 53.6595 104.45 53.4123C105.816 53.2428 107.191 53.152 108.567 53.1401C112.334 53.1834 169.178 53.2771 172.937 53.4177C175.67 53.5187 178.394 53.7134 181.111 53.9009C183.935 54.0323 186.764 53.9649 189.579 53.699C190.599 53.6088 191.636 53.5367 192.683 53.4862C195.218 53.3889 197.771 53.3312 200.305 53.2447C201.245 53.1978 202.183 53.1257 203.118 53.0284C204.965 52.8589 206.797 52.6714 208.646 52.5056C208.947 52.4918 209.249 52.505 209.548 52.5452C212.548 52.8643 215.509 53.2411 218.543 53.4934C221.064 53.6827 223.627 53.8125 226.22 53.872C227.813 53.8957 229.406 53.8753 230.998 53.8107C233.398 53.7266 235.803 53.6172 238.213 53.4826C238.885 53.3979 264.304 53.2988 264.941 53.1852C266.792 52.9905 289.281 52.7922 291.156 52.6372C293.819 52.4172 296.516 52.2568 299.187 52.0495C301.072 52.0748 302.938 51.663 304.644 50.8453C304.916 50.7514 305.203 50.7069 305.49 50.7137C305.651 50.7282 305.802 50.8019 305.914 50.921C306.017 51.1433 306.1 51.3743 306.162 51.6114C306.455 51.6977 306.762 51.7231 307.065 51.6859C307.367 51.6487 307.659 51.5498 307.924 51.3951C308.25 51.22 308.527 50.9632 308.729 50.6488C308.844 50.3279 308.959 49.2175 309.033 48.893C308.592 47.4873 308.454 46.0009 308.63 44.5359L304.959 44.5539C306.183 44.5449 307.4 42.7332 308.63 44.0149C311.053 42.7405 308.593 39.3009 311 38.0535C309.814 36.864 308.838 35.4748 308.115 33.947C307.42 32.4398 306.96 30.8319 306.749 29.1807C306.527 27.4331 306.479 25.667 306.608 23.9096C306.736 22.0899 306.972 20.2797 307.315 18.489C307.648 16.7007 308.058 14.9557 308.488 13.3009C308.918 11.646 309.371 10.0813 309.787 8.63191C309.911 8.50052 310.012 8.34724 310.084 8.17943H310.085Z" fill="#294D44"/>
    <path d="M297.557 40.8855C297.311 40.9225 297.061 40.8639 296.856 40.7214C296.586 40.4294 297.122 40.0977 297.564 39.9769C300.411 39.1971 303.323 38.6842 306.262 38.4447L307.639 38.3365C308.005 36.0439 307.743 33.693 306.882 31.5422C304.222 22.5648 305.757 13.2161 307.303 4.09095C299.048 3.9215 245.385 3.75565 237.124 3.67273C234.115 4.36496 230.777 4.67863 228.47 6.25597C228.018 6.62716 227.515 6.92955 226.977 7.15371C226.27 7.33008 225.536 7.36559 224.816 7.25826L221.329 6.96803C211.703 15.4839 199.283 22.1502 187.085 28.6363C185.086 29.8333 182.909 30.6917 180.639 31.178C177.956 31.4697 175.245 31.3113 172.612 30.7094C146.94 26.2693 68.2996 21.4976 42.8451 16.3943C36.684 15.1594 9.84439 13.9011 3.58954 12.9692C3.65322 13.8128 3.72398 14.6547 3.77881 15.4965C6.01825 15.4304 8.25886 15.4136 10.5007 15.446C10.3239 16.1547 10.0063 16.8189 9.56755 17.3975C9.1288 17.9761 8.57823 18.4568 7.94989 18.8098C6.85464 19.3238 5.8017 19.9266 4.80124 20.6125C4.54298 20.8415 4.32364 21.0993 4.07068 21.3318C4.39052 30.0995 4.17015 38.879 3.41088 47.6185C3.27113 48.185 3.27819 48.7787 3.43138 49.3415C3.58457 49.9043 3.87862 50.4169 4.28472 50.8291C5.12518 51.3734 6.08341 51.7001 7.07605 51.7809C11.6962 52.4582 16.3621 52.759 21.0292 52.6804C22.4266 51.3681 44.4672 50.0611 45.9 48.7722C46.0911 48.5718 46.3319 48.4279 46.5969 48.3558C46.8691 48.3324 47.1426 48.3828 47.3896 48.5018C47.6365 48.6209 47.8482 48.8043 48.0032 49.0336C48.9743 50.218 49.8181 51.7376 51.6224 52.0134C52.0823 52.0837 52.7032 52.1757 52.8553 52.4533C64.5177 52.1793 76.1907 52.1847 87.8584 52.2009C102.059 52.2171 169.325 52.2352 183.526 52.2514L191.866 52.2622C191.41 51.5712 190.878 50.935 190.282 50.3658C189.493 49.6105 188.511 48.8101 188.613 47.8511L193.227 49.7168C194.099 50.0919 194.994 50.4081 195.907 50.6632C196.565 50.8345 197.251 50.9463 197.888 51.1572C198.634 51.4115 199.335 51.7877 199.963 52.2712L203.241 52.2748C222.999 52.3001 288.169 52.3235 307.907 53.0085C308.803 49.2921 309.043 45.4431 308.618 41.6408L305.46 41.0279C305.48 41.0171 305.496 41.0045 305.513 40.9918C302.863 40.8807 300.209 40.8452 297.557 40.8855Z" fill="#2E5945"/>
    <path d="M7.94989 18.8099C8.57823 18.4568 9.1288 17.9761 9.56754 17.3975C10.0063 16.819 10.3239 16.1548 10.5006 15.4461C8.26003 15.4124 6.01942 15.4293 3.77881 15.4966C3.90263 17.4399 4.73225 18.6675 4.803 20.6126C4.54298 20.8415 5.05419 20.3782 4.803 20.6126C5.8029 19.9268 6.85524 19.3239 7.94989 18.8099ZM51.6224 52.0135C49.8181 51.7377 48.9743 50.218 48.0032 49.0337C47.8482 48.8044 47.6365 48.6209 47.3896 48.5019C47.1426 48.3828 46.8691 48.3325 46.5969 48.3559C46.3326 48.4282 46.0924 48.5721 45.9017 48.7723C44.4689 50.0612 43.8144 50.6633 42.417 51.9756C45.6452 51.963 48.1306 52.5651 51.3482 52.4822C51.8506 52.4696 52.3529 52.4642 52.8553 52.4533C52.7032 52.1757 52.0841 52.0838 51.6224 52.0135ZM195.907 50.6633C194.994 50.4081 194.099 50.092 193.227 49.7169L188.613 47.8511C188.511 48.8101 189.493 49.6105 190.282 50.3658C190.726 50.7081 191.112 51.1222 191.424 51.5917C194.124 51.5953 197.262 52.2695 199.963 52.2713C199.335 51.7878 198.634 51.4115 197.888 51.1572C197.251 50.9463 196.565 50.8327 195.907 50.6633ZM307.639 38.3347C307.178 38.3744 306.716 38.4068 306.262 38.4447C303.322 38.6841 300.41 39.197 297.562 39.977C297.12 40.0978 296.586 40.4295 296.854 40.7215C297.06 40.8644 297.311 40.923 297.557 40.8855C300.21 40.8423 302.863 40.8855 305.515 40.9937C306.023 40.7151 306.473 40.3368 306.837 39.8804C307.201 39.4241 307.475 38.8988 307.639 38.3347ZM224.876 3.6241C223.732 4.78026 222.549 5.89559 221.329 6.96808L224.814 7.25651C225.535 7.36465 226.27 7.32976 226.977 7.15375C227.515 6.92959 228.018 6.62721 228.47 6.25602C230.777 4.67867 234.115 4.365 237.124 3.67277C233.04 3.63191 228.957 3.61569 224.876 3.6241Z" fill="#2C5148"/>
    <path d="M172.61 30.7075C175.244 31.3105 177.957 31.4694 180.641 31.178C182.91 30.6915 185.086 29.8331 187.085 28.6362C199.284 22.1502 211.703 15.4839 221.329 6.96801L217.946 6.6868C212.724 6.25415 207.498 5.8179 202.303 5.22662C200.081 4.96973 197.861 4.68729 195.645 4.37936C191.75 4.66306 187.842 4.72926 183.94 4.57766C179.854 4.3397 175.839 3.60421 171.751 3.39149C166.5 3.11568 108.181 3.69975 102.935 4.0008C101.783 4.0669 100.63 4.11978 99.4767 4.15944L99.4537 4.18107C98.686 5.03554 99.1494 6.32626 98.2455 7.10141C97.7549 7.40818 97.1919 7.57385 96.6164 7.58084C96.0409 7.58782 95.4742 7.43585 94.9766 7.14107C94.129 6.59269 93.4393 5.82511 92.9777 4.91656L92.5885 4.27661C88.7571 4.28202 84.9203 4.2027 81.0836 4.10355C80.9357 4.19125 80.7865 4.27658 80.6361 4.35953L76.3518 6.73186C76.6904 5.74217 77.2009 4.82259 77.8589 4.01702C67.4503 3.4998 57.0192 3.70337 46.6377 4.62633C41.239 5.23023 14.9531 6.20548 9.81795 4.8102C7.52014 4.18648 4.54661 3.22925 3.01297 4.66599L2.875 5.19057C3.16687 7.78102 3.39329 10.3751 3.58964 12.9691C9.84448 13.9011 36.6841 15.1594 42.8452 16.3942C68.2997 21.4958 146.938 26.2693 172.61 30.7075Z" fill="#336150"/>
    <path d="M92.935 5.17429C92.9492 5.17429 92.9634 5.05531 92.9775 5.07875C93.4424 5.96397 94.1329 6.70505 94.9764 7.22394C95.4638 7.53557 96.0246 7.70757 96.5999 7.72185C97.1752 7.73612 97.7436 7.59215 98.2453 7.30506C98.9352 6.71198 98.8326 5.17249 99.0855 5.17249L92.935 5.17429ZM77.8994 4.02057L77.8587 4.01697C77.2007 4.82254 76.6902 5.74211 76.3516 6.73181L79.9477 4.73984C79.2316 4.61227 78.5401 4.37064 77.8994 4.02057Z" fill="#2C5148"/>
    <path d="M196.531 4.33067L195.645 4.37754C197.86 4.684 200.078 4.97243 202.303 5.22661C207.498 5.81789 212.722 6.25414 217.946 6.68678L221.33 6.968C222.549 5.89551 223.732 4.78018 224.876 3.62402C215.418 3.64926 205.967 3.84215 196.531 4.33067Z" fill="#325C52"/>
</svg>
