<svg width="263" height="54" viewBox="0 0 263 54" fill="none" xmlns="http://www.w3.org/2000/svg">
    <path d="M262.227 8.17943C260.925 6.02343 262.843 3.74664 261.016 2.32072C260.729 2.29905 260.442 2.28102 260.155 2.26664C257.815 2.14766 255.292 2.14225 252.738 1.98181C250.203 1.87312 247.679 1.51135 245.193 0.900205C244.879 0.873165 244.55 0.105222 244.23 0.0799847L225.796 0.0078774C224.333 -0.0768486 201.912 0.552287 200.446 0.440521C198.439 0.33236 196.455 0.555893 194.457 0.58113C192.458 0.606368 190.37 0.963299 188.37 1.13816C186.874 1.26795 185.404 1.4987 183.969 1.64291C182.926 1.74566 181.905 1.89529 180.888 1.99083C179.371 2.11882 177.866 2.22157 176.397 2.34235C174.173 2.52622 171.986 2.7101 169.819 2.80924C168.627 2.83629 167.432 2.82727 166.223 2.81646C164.482 2.79843 162.723 2.76238 160.893 2.67945C159.431 2.61636 157.924 2.57129 156.376 2.49918C155.013 2.48804 153.651 2.42251 152.292 2.30269C149.907 2.06303 147.514 1.94935 145.121 1.96198C144.029 2.00345 142.944 2.00885 141.891 1.98001C139.617 1.88627 92.5567 1.80335 90.2022 1.98362C89.351 2.02868 88.5238 2.0377 87.7459 2.01066C87.1596 1.9746 86.5537 1.95117 85.9359 1.94396C83.735 2.02568 81.5879 2.11101 79.4946 2.19994C77.6846 2.23779 75.909 2.28647 74.1902 2.31531C73.0129 2.33514 71.8416 2.36579 70.6748 2.41446C69.3674 2.47214 68.0855 2.5749 66.793 2.6452C66.5334 2.64465 66.2738 2.65788 66.0151 2.68486C64.9106 2.80458 63.8008 2.83649 62.6928 2.7804C61.7534 2.81886 60.8219 2.87054 59.8984 2.93543C58.8139 2.96428 57.7144 2.95526 56.6135 2.95346L49.4482 2.83989C48.1273 2.86152 46.8348 2.87955 45.5379 2.96247C44.241 3.0472 42.8647 3.18781 41.5633 3.29417C40.4893 3.41675 39.3793 3.49066 38.2574 3.51409C35.8415 3.5213 15.9836 3.61685 13.6231 3.80252C11.419 3.96041 9.2097 3.98267 7.00376 3.86922C6.72383 3.86871 6.44445 3.89888 6.16905 3.95936C5.51283 4.14658 4.83828 4.22363 4.16456 4.1883C3.65775 4.08522 3.13698 4.16422 2.66717 4.41543C2.64208 4.43646 2.6203 4.46271 2.60285 4.49295C2.30955 4.94185 2.09573 5.45843 1.97458 6.01081C2.01194 7.37685 1.8322 8.7389 1.44503 10.0236C1.05503 10.9808 0.712371 11.965 0.418849 12.971L0.369485 13.1404L2.25132 14.2869L0.0388932 14.5123C0.0367497 14.6055 0.0282443 14.6983 0.013463 14.7899C0.00747945 15.1144 0.00299178 15.4352 0 15.7525L4.187 17.4398L0.448767 17.274L0.51309 17.7913C0.587885 18.3628 1.19372 18.945 1.2012 19.4931C1.16882 20.6104 0.999966 21.7159 0.700077 22.7739C0.533457 23.3633 0.513802 23.9985 0.643541 24.6012C0.77328 25.2038 1.04672 25.7474 1.43007 26.1648C1.74649 26.4592 2.0239 26.81 2.25281 27.2049C2.69234 28.346 3.02305 29.5434 3.2386 30.7742C3.3836 32.4163 3.43159 34.0687 3.38221 35.719C3.37622 36.1228 3.31639 36.5248 3.32237 36.9268C3.30026 37.6025 3.32026 38.2792 3.38221 38.9512C3.42708 39.456 3.80405 39.9697 3.80405 40.4745C3.84893 41.8558 3.53234 43.2192 2.89904 44.3719C2.52167 44.9563 2.24731 45.6273 2.09275 46.344C1.85042 47.8691 1.59911 49.414 1.34032 50.9949C1.20868 51.8025 2.13164 52.1901 4.11071 52.3253C4.41437 52.3487 4.6971 52.4064 4.99029 52.4299C6.10487 52.593 7.23077 52.6111 8.34857 52.4839C9.241 52.2933 10.1406 52.1549 11.0442 52.0693C12.6837 51.9828 14.3336 51.9936 15.9417 51.9918C16.7674 51.9918 34.9455 52.2189 35.7144 52.356C38.021 52.7886 40.3826 53.1636 42.7989 53.4808C44.7895 53.6767 46.8423 53.8089 48.9575 53.8774C50.7242 53.9315 52.5177 53.9892 54.3128 54C55.2953 53.9881 56.2773 53.9478 57.2582 53.8792C58.084 53.8081 58.9109 53.7576 59.7384 53.7278C61.149 53.7152 62.5671 53.744 63.9807 53.8107C65.4906 53.9009 67.0129 53.9501 68.5477 53.9585C70.0859 53.966 71.624 53.933 73.161 53.8594C75.9673 53.708 78.8663 53.7584 81.7325 53.753C83.9348 53.7732 86.1365 53.6595 88.3293 53.4123C89.4845 53.2428 90.6466 53.152 91.8103 53.1401C94.9965 53.1834 143.067 53.2771 146.246 53.4177C148.557 53.5187 150.861 53.7134 153.158 53.9009C155.546 54.0323 157.939 53.9649 160.319 53.699C161.182 53.6088 162.059 53.5367 162.944 53.4862C165.088 53.3889 167.247 53.3312 169.39 53.2447C170.184 53.1978 170.978 53.1257 171.769 53.0284C173.33 52.8589 174.88 52.6714 176.443 52.5056C176.698 52.4918 176.953 52.505 177.206 52.5452C179.743 52.8643 182.247 53.2411 184.813 53.4934C186.944 53.6827 189.112 53.8125 191.305 53.872C192.652 53.8957 193.999 53.8753 195.345 53.8107C197.375 53.7266 199.409 53.6172 201.447 53.4826C202.016 53.3979 223.511 53.2988 224.05 53.1852C225.615 52.9905 244.633 52.7922 246.219 52.6372C248.47 52.4172 250.752 52.2568 253.01 52.0495C254.605 52.0748 256.183 51.663 257.625 50.8453C257.855 50.7514 258.097 50.7069 258.34 50.7137C258.477 50.7282 258.604 50.8019 258.699 50.921C258.786 51.1433 258.856 51.3743 258.909 51.6114C259.156 51.6977 259.416 51.7231 259.672 51.6859C259.928 51.6487 260.175 51.5498 260.399 51.3951C260.674 51.22 260.909 50.9632 261.079 50.6488C261.177 50.3279 261.274 49.2175 261.337 48.893C260.963 47.4873 260.847 46.0009 260.996 44.5359L257.892 44.5539C258.927 44.5449 259.956 42.7332 260.996 44.0149C263.045 42.7405 260.964 39.3009 263 38.0535C261.997 36.864 261.171 35.4748 260.56 33.947C259.973 32.4398 259.583 30.8319 259.405 29.1807C259.217 27.4331 259.177 25.667 259.286 23.9096C259.394 22.0899 259.594 20.2797 259.884 18.489C260.165 16.7007 260.512 14.9557 260.876 13.3009C261.239 11.646 261.622 10.0813 261.974 8.63191C262.079 8.50052 262.165 8.34724 262.225 8.17943H262.227Z" fill="#134A36"/>
    <path d="M251.631 40.8848C251.424 40.9217 251.212 40.8632 251.039 40.7207C250.81 40.4287 251.263 40.097 251.637 39.9762C254.045 39.1964 256.507 38.6835 258.993 38.4439L260.158 38.3358C260.467 36.0431 260.245 33.6923 259.518 31.5415C257.268 22.5641 258.566 13.2154 259.874 4.09022C252.892 3.92077 207.512 3.75492 200.526 3.672C197.981 4.36423 195.159 4.67789 193.208 6.25524C192.825 6.62643 192.4 6.92882 191.945 7.15298C191.347 7.32935 190.727 7.36485 190.117 7.25753L187.169 6.9673C179.028 15.4832 168.526 22.1495 158.21 28.6355C156.519 29.8326 154.678 30.691 152.759 31.1773C150.49 31.4689 148.197 31.3106 145.971 30.7086C124.261 26.2686 57.758 21.4969 36.2321 16.3935C31.0219 15.1587 8.32479 13.9004 3.03533 12.9684C3.08918 13.8121 3.14901 14.6539 3.19539 15.4958C5.08918 15.4297 6.98398 15.4129 8.87977 15.4453C8.73028 16.154 8.46171 16.8182 8.09068 17.3968C7.71966 17.9754 7.25406 18.4561 6.7227 18.8091C5.79649 19.3231 4.90606 19.9259 4.06001 20.6118C3.84161 20.8407 3.65612 21.0985 3.44221 21.3311C3.71268 30.0987 3.52633 38.8782 2.88424 47.6178C2.76606 48.1842 2.77203 48.7779 2.90157 49.3408C3.03112 49.9036 3.27979 50.4162 3.62321 50.8284C4.33395 51.3726 5.14429 51.6994 5.98373 51.7802C9.89083 52.4575 13.8365 52.7583 17.7833 52.6797C18.9651 51.3674 37.6039 50.0604 38.8155 48.7715C38.9772 48.5711 39.1808 48.4272 39.4049 48.3551C39.6351 48.3317 39.8664 48.3821 40.0752 48.5011C40.2841 48.6201 40.4631 48.8036 40.5941 49.0329C41.4154 50.2172 42.1289 51.7369 43.6547 52.0127C44.0437 52.083 44.5687 52.175 44.6974 52.4526C54.5598 52.1786 64.4312 52.184 74.2981 52.2002C86.3071 52.2164 143.191 52.2344 155.2 52.2507L162.253 52.2615C161.867 51.5705 161.418 50.9343 160.913 50.3651C160.246 49.6097 159.416 48.8093 159.503 47.8503L163.404 49.7161C164.141 50.0912 164.898 50.4073 165.67 50.6625C166.227 50.8338 166.807 50.9455 167.345 51.1564C167.977 51.4107 168.569 51.787 169.1 52.2705L171.872 52.2741C188.581 52.2993 243.693 52.3228 260.384 53.0078C261.142 49.2914 261.345 45.4423 260.985 41.6401L258.315 41.0272C258.331 41.0164 258.345 41.0037 258.36 40.9911C256.118 40.8799 253.875 40.8445 251.631 40.8848Z" fill="#1E8B63"/>
    <path d="M251.631 40.8848C251.424 40.9217 251.212 40.8632 251.039 40.7207C250.81 40.4287 251.263 40.097 251.637 39.9762C254.045 39.1964 256.507 38.6835 258.993 38.4439L260.158 38.3358C260.467 36.0431 260.245 33.6923 259.518 31.5415C257.268 22.5641 258.566 13.2154 259.874 4.09022C252.892 3.92077 207.512 3.75492 200.526 3.672C197.981 4.36423 195.159 4.67789 193.208 6.25524C192.825 6.62643 192.4 6.92882 191.945 7.15298C191.347 7.32935 190.727 7.36485 190.117 7.25753L187.169 6.9673C179.028 15.4832 168.526 22.1495 158.21 28.6355C156.519 29.8326 154.678 30.691 152.759 31.1773C150.49 31.4689 148.197 31.3106 145.971 30.7086C124.261 26.2686 57.758 21.4969 36.2321 16.3935C31.0219 15.1587 8.32479 13.9004 3.03533 12.9684C3.08918 13.8121 3.14901 14.6539 3.19539 15.4958C5.08918 15.4297 6.98398 15.4129 8.87977 15.4453C8.73028 16.154 8.46171 16.8182 8.09068 17.3968C7.71966 17.9754 7.25406 18.4561 6.7227 18.8091C5.79649 19.3231 4.90606 19.9259 4.06001 20.6118C3.84161 20.8407 3.65612 21.0985 3.44221 21.3311C3.71268 30.0987 3.52633 38.8782 2.88424 47.6178C2.76606 48.1842 2.77203 48.7779 2.90157 49.3408C3.03112 49.9036 3.27979 50.4162 3.62321 50.8284C4.33395 51.3726 5.14429 51.6994 5.98373 51.7802C9.89083 52.4575 13.8365 52.7583 17.7833 52.6797C18.9651 51.3674 37.6039 50.0604 38.8155 48.7715C38.9772 48.5711 39.1808 48.4272 39.4049 48.3551C39.6351 48.3317 39.8664 48.3821 40.0752 48.5011C40.2841 48.6201 40.4631 48.8036 40.5941 49.0329C41.4154 50.2172 42.1289 51.7369 43.6547 52.0127C44.0437 52.083 44.5687 52.175 44.6974 52.4526C54.5598 52.1786 64.4312 52.184 74.2981 52.2002C86.3071 52.2164 143.191 52.2344 155.2 52.2507L162.253 52.2615C161.867 51.5705 161.418 50.9343 160.913 50.3651C160.246 49.6097 159.416 48.8093 159.503 47.8503L163.404 49.7161C164.141 50.0912 164.898 50.4073 165.67 50.6625C166.227 50.8338 166.807 50.9455 167.345 51.1564C167.977 51.4107 168.569 51.787 169.1 52.2705L171.872 52.2741C188.581 52.2993 243.693 52.3228 260.384 53.0078C261.142 49.2914 261.345 45.4423 260.985 41.6401L258.315 41.0272C258.331 41.0164 258.345 41.0037 258.36 40.9911C256.118 40.88 253.875 40.8445 251.631 40.8848Z" fill="#1E8B63"/>
    <path d="M6.72165 18.8103C7.25301 18.4572 7.71861 17.9765 8.08963 17.3979C8.46066 16.8193 8.72923 16.1551 8.87872 15.4465C6.98393 15.4128 5.08913 15.4296 3.19434 15.4969C3.29905 17.4402 4.00062 18.6678 4.06046 20.6129C3.84056 20.8419 4.27287 20.3786 4.06046 20.6129C4.90602 19.9271 5.79595 19.3243 6.72165 18.8103ZM43.6537 52.0139C42.1279 51.738 41.4143 50.2184 40.5931 49.034C40.462 48.8047 40.283 48.6213 40.0742 48.5022C39.8653 48.3832 39.6341 48.3328 39.4039 48.3562C39.1803 48.4286 38.9772 48.5725 38.816 48.7726C37.6043 50.0616 37.0508 50.6637 35.8691 51.976C38.5991 51.9634 40.7008 52.5655 43.4218 52.4826C43.8467 52.4699 44.2715 52.4645 44.6963 52.4537C44.5677 52.1761 44.0441 52.0842 43.6537 52.0139ZM165.669 50.6637C164.897 50.4085 164.14 50.0923 163.403 49.7172L159.501 47.8515C159.415 48.8105 160.245 49.6109 160.912 50.3662C161.288 50.7084 161.614 51.1225 161.878 51.592C164.161 51.5956 166.815 52.2698 169.099 52.2716C168.568 51.7881 167.976 51.4119 167.344 51.1576C166.806 50.9467 166.225 50.8331 165.669 50.6637ZM260.157 38.3351C259.766 38.3748 259.376 38.4072 258.992 38.4451C256.506 38.6845 254.043 39.1974 251.635 39.9774C251.261 40.0981 250.809 40.4298 251.036 40.7219C251.21 40.8648 251.422 40.9233 251.63 40.8859C253.874 40.8426 256.118 40.8859 258.36 40.9941C258.79 40.7155 259.17 40.3372 259.478 39.8808C259.786 39.4245 260.018 38.8991 260.157 38.3351ZM190.167 3.62447C189.2 4.78063 188.199 5.89596 187.168 6.96844L190.115 7.25687C190.724 7.36502 191.346 7.33013 191.944 7.15412C192.399 6.92996 192.824 6.62757 193.207 6.25638C195.157 4.67904 197.98 4.36537 200.525 3.67314C197.071 3.63228 193.619 3.61606 190.167 3.62447Z" fill="#005C37"/>
    <path d="M145.969 30.7069C148.197 31.3099 150.491 31.4688 152.761 31.1774C154.679 30.6909 156.52 29.8325 158.21 28.6356C168.526 22.1496 179.029 15.4833 187.169 6.9674L184.307 6.68619C179.892 6.25354 175.473 5.81729 171.079 5.22601C169.2 4.96912 167.323 4.68668 165.449 4.37875C162.155 4.66245 158.85 4.72865 155.551 4.57705C152.095 4.33909 148.699 3.6036 145.242 3.39088C140.803 3.11507 91.4845 3.69914 87.0477 4.00019C86.0734 4.06629 85.0985 4.11917 84.1232 4.15882L84.1038 4.18046C83.4546 5.03493 83.8465 6.32565 83.0821 7.1008C82.6672 7.40757 82.1911 7.57324 81.7044 7.58023C81.2177 7.58721 80.7385 7.43524 80.3177 7.14046C79.601 6.59208 79.0177 5.8245 78.6273 4.91595L78.2982 4.276C75.0581 4.28141 71.8135 4.20209 68.569 4.10294C68.4439 4.19064 68.3177 4.27597 68.1905 4.35892L64.5674 6.73125C64.8538 5.74156 65.2855 4.82198 65.8419 4.01641C57.0398 3.49919 48.2187 3.70276 39.4395 4.62572C34.874 5.22962 12.6451 6.20487 8.30252 4.80959C6.35936 4.18587 3.84477 3.22864 2.54783 4.66538L2.43115 5.18996C2.67797 7.78041 2.86945 10.3745 3.03549 12.9685C8.32496 13.9005 31.0221 15.1588 36.2323 16.3936C57.7582 21.4952 124.259 26.2687 145.969 30.7069Z" fill="#2A9F75"/>
    <path d="M78.5918 5.17457C78.6038 5.17457 78.6158 5.0556 78.6277 5.07903C79.0209 5.96426 79.6048 6.70534 80.3181 7.22422C80.7303 7.53586 81.2046 7.70786 81.6911 7.72213C82.1775 7.73641 82.6582 7.59243 83.0825 7.30534C83.6659 6.71226 83.5791 5.17277 83.7931 5.17277L78.5918 5.17457ZM65.8768 4.02086L65.8424 4.01725C65.2859 4.82282 64.8542 5.7424 64.5679 6.73209L67.609 4.74013C67.0034 4.61255 66.4186 4.37093 65.8768 4.02086ZM166.199 4.33092L165.449 4.37779C167.322 4.68424 169.198 4.97267 171.08 5.22685C175.473 5.81813 179.891 6.25438 184.308 6.68702L187.17 6.96824C188.201 5.89576 189.201 4.78043 190.169 3.62427C182.17 3.64951 174.178 3.84239 166.199 4.33092Z" fill="#005C37"/>
</svg>
