<svg xmlns="http://www.w3.org/2000/svg" width="684" height="94" viewBox="0 0 684 94" fill="none">
    <path opacity="0.1" d="M646.785 46.3857C646.692 46.2726 663.49 45.8546 665.397 45.7823C668.271 45.6786 673.54 45.6126 675.948 45.2921C678.636 44.9244 677.868 44.4153 677.833 43.8276C677.705 41.1187 673.471 38.4099 671.481 35.723C670.958 35.0222 666.828 33.4383 668.352 32.9418C669.364 32.5992 673.087 32.439 674.425 32.043C676.169 31.5245 676.088 30.8048 676.286 30.2078C676.67 29.001 676.577 27.8823 677.565 26.6755C678.729 25.3085 676.518 25.2739 669.678 24.79C675.006 23.8221 680.625 22.9767 681.881 21.5248C682.556 20.7423 681.172 19.9536 681.393 19.1616C681.59 18.4231 682.067 17.6941 682.067 16.9461C682.077 15.0919 681.654 13.2393 680.799 11.3995C680.032 9.74965 678.764 8.12808 680.381 6.48766C681.13 5.66598 681.362 4.81609 681.067 3.97361C680.939 3.18483 682.44 2.55945 683.394 1.80524C685.441 0.14282 682.23 0.397368 674.89 0.548212C669.389 0.636177 663.874 0.642471 658.371 0.567067C654.486 0.535641 648.658 0.22767 644.923 0.378513C638.281 0.648774 636.676 2.98056 632.732 3.86362C630.638 3.23511 629.614 2.42432 627.195 1.83666C623.996 1.05731 619.971 1.13587 615.062 1.14216C602.265 1.16415 589.725 1.54755 576.975 1.60726C552.546 1.72353 528.303 1.95608 503.827 1.85238C479.98 1.75181 455.562 1.93723 431.842 1.47213C426.026 1.35899 419.907 1.30243 414.23 1.04788C409.344 0.831043 406.762 0.290521 404.807 1.28043C403.365 2.01265 403.353 2.98999 399.829 3.50537C397.502 3.84162 390.336 4.44814 388.068 3.94533C385.799 3.44252 387.346 1.68268 382.879 1.37156C381.018 1.24272 377.005 1.59469 374.957 1.63554C371.467 1.70782 367.768 1.67954 364.22 1.65754C357.45 1.61668 353.46 1.25843 351.191 2.51546C349.528 3.43623 348.481 4.47328 344.758 5.18664C343.021 4.33186 341.357 3.4708 339.768 2.60345C338.046 1.66068 337.883 1.58526 332.311 1.56012C321.515 1.51298 310.15 1.4407 299.483 1.73296C275.577 2.38976 252.613 1.84609 228.731 1.58212C218.261 1.46584 207.792 1.30871 197.322 1.23015C186.119 1.14216 173.858 0.774476 163.284 1.43756C158.921 1.66398 154.498 1.7943 150.057 1.82724C147.487 1.89529 144.902 1.91628 142.321 1.89009C140.681 1.85552 137.947 1.57583 136.4 1.62611C132.364 1.77381 129.292 3.26653 125.512 3.26653C122.115 3.26653 117.671 1.88066 115.124 1.47213C107.923 0.315662 93.0558 0.664487 84.0403 0.573352C72.1746 0.457077 60.2741 0.384798 48.4085 0.259095C38.2995 0.155391 28.6092 0.25281 18.5234 0.199387C14.7776 0.180531 5.80861 -0.180864 2.50485 0.11768C-1.17117 0.46022 0.294583 1.75496 0.259684 2.55631C0.16662 4.54556 2.09769 6.53166 2.42341 8.52719C2.8073 10.8338 1.56258 13.153 1.05073 15.4597C0.131722 19.6896 2.31872 24.0012 2.83057 28.2468C2.97016 29.3027 2.31872 30.1103 5.72717 30.9525C8.9495 31.7508 8.32132 32.4673 8.40276 33.4666C8.47255 34.3151 8.46092 35.1699 8.71684 36.0184C8.82154 36.3829 9.71728 36.9611 9.28686 37.3037C8.40275 38.0045 8.50745 37.5928 5.71554 37.8788C4.24979 38.0296 4.0055 37.7719 2.8771 38.0673C1.94646 38.3093 2.72587 39.1232 2.7375 39.4029C2.67033 40.2905 2.8063 41.1784 3.14466 42.0615C3.56344 42.9194 3.21446 43.6548 6.84394 44.1985C11.0318 44.827 17.6161 45.2669 22.339 45.8075C26.492 46.282 28.6441 46.436 23.3744 46.8445C18.713 47.1418 13.964 47.3279 9.18216 47.4007C4.52898 47.5202 4.23816 47.4007 2.99343 48.1392C1.26012 49.1606 2.74914 50.6973 2.56301 51.7752C1.86503 55.7851 2.23729 59.7919 0.445811 63.7955C0.132295 64.8135 0.0390725 65.8355 0.16662 66.8564C0.16662 68.1605 0.224785 68.2611 6.77414 68.8142C9.10073 69.0122 15.5105 69.4144 15.7199 70.0304C15.8944 70.552 8.1352 71.1523 6.41352 71.6582C2.31872 72.8367 3.7612 74.7945 3.22609 76.1709C2.31872 78.4933 3.22609 80.8314 2.43505 83.1632C1.79523 85.0487 0.736636 86.9342 0.701737 88.8198C0.701737 89.86 0.329482 90.897 0.143355 91.9341C-0.0544057 93.1345 1.84177 92.9585 7.94907 92.9428C19.4075 92.9145 30.5984 92.4432 42.0336 92.3143C54.5042 92.1781 66.9863 92.0681 79.4801 91.9843C86.1885 91.9382 92.8929 91.9162 99.5935 91.9183C103.979 91.9183 109.633 92.1855 113.832 92.0912C118.904 91.9781 122.045 90.787 126.919 90.4633C132.736 90.0768 134.853 90.7462 138.622 91.4658C143.112 92.3237 144.252 92.6348 150.488 92.5657C156.723 92.4966 162.935 92.7134 169.1 92.792C182.001 92.9522 194.995 92.8517 207.931 92.8517C234.768 92.8517 261.443 93.2256 288.257 93.1974C301.076 93.1848 313.892 93.1848 326.704 93.1974C328.774 93.1974 333.684 93.3545 335.533 93.1974C338.837 92.9208 338.476 92.5877 339.128 91.9403C339.675 91.3904 340.151 89.31 343.141 89.046C347.061 89.5237 346.48 91.0824 349.539 91.7109C352.599 92.3394 354.192 92.1666 358.985 91.8681C364.464 91.5255 364.488 91.0478 369.816 91.6229C372.292 91.9261 374.846 92.1802 377.458 92.3834C380.39 92.5814 384.834 92.4432 387.358 92.6977C392.244 93.2037 390.034 93.5588 396.257 93.5588C402.19 93.5588 407.983 93.895 413.928 93.9642C426.294 94.1056 438.357 93.7913 450.676 93.6688C461.262 93.5619 471.871 93.4833 482.423 93.2728C494.183 93.0371 505.747 93.2037 517.484 93.0937C523.429 93.0371 525.767 92.7794 530.281 92.1509C534.364 91.6009 538.807 91.4438 543.751 91.3307C549.689 91.1813 555.668 91.1939 561.596 91.3684C564.47 91.4532 567.332 91.5758 570.263 91.5852C572.508 91.5852 576.417 91.3307 578.336 91.5852C581.943 92.0409 580.221 92.88 584.967 93.1565C589.958 93.4488 596.449 93.056 601.544 93.0591C614.084 93.0591 625.834 94.0584 638.583 93.9107C649.507 93.785 659.837 93.6373 670.795 93.8227C675.448 93.9013 679.822 94.2627 681.265 93.3576C682.882 92.3803 679.927 90.8027 679.718 89.7751C679.275 87.6916 682.219 85.6898 683.312 83.6345C684.475 81.3625 683.638 79.0652 682.602 76.7932C680.706 72.5381 679.566 68.2454 679.217 63.9401C679.101 62.7396 678.938 61.5486 678.612 60.3513C678.415 59.619 679.671 58.2772 676.612 57.7304C673.122 57.1018 664.886 57.5387 665.863 56.3508C666.572 55.4866 672.68 54.6098 675.716 54.0221C679.973 53.1956 679.054 52.4194 678.74 51.3384C678.461 50.3705 679.904 48.8243 678.135 47.9161C676.495 47.0739 668.911 47.1588 664.234 46.9985C658.394 46.789 652.539 46.591 646.668 46.4045C646.785 46.3637 649.926 46.4894 646.785 46.3857Z" fill="#419BED"/>
</svg>