<svg xmlns="http://www.w3.org/2000/svg" width="690" height="304" viewBox="0 0 690 304" fill="none">
    <path opacity="0.1" d="M652.458 150.013C652.364 149.647 669.31 148.296 671.234 148.062C674.133 147.727 679.449 147.513 681.878 146.476C684.589 145.287 683.814 143.641 683.779 141.74C683.65 132.98 679.378 124.219 677.372 115.53C676.843 113.263 672.678 108.141 674.215 106.535C675.236 105.427 678.991 104.909 680.341 103.628C682.101 101.952 682.019 99.6242 682.218 97.6932C682.605 93.7905 682.512 90.1724 683.509 86.2697C684.682 81.8487 682.453 81.7369 675.553 80.1718C680.927 77.0416 686.595 74.3077 687.863 69.6123C688.543 67.0816 687.147 64.5307 687.37 61.9695C687.569 59.5812 688.05 57.2233 688.05 54.8045C688.06 48.8078 687.633 42.8165 686.771 36.8664C685.997 31.5308 684.718 26.2866 686.349 20.9814C687.105 18.324 687.339 15.5755 687.041 12.8508C686.912 10.2999 688.426 8.27738 689.388 5.83822C691.454 0.461887 688.215 1.28511 680.81 1.77294C675.261 2.05742 669.698 2.07778 664.146 1.83392C660.227 1.73229 654.348 0.736294 650.581 1.22413C643.88 2.09816 642.26 9.63925 638.282 12.4951C636.17 10.4625 635.137 7.84037 632.696 5.93985C629.469 3.41938 625.409 3.67346 620.457 3.69378C607.548 3.76493 594.898 5.00484 582.036 5.19794C557.393 5.57397 532.937 6.32605 508.247 5.99066C484.19 5.66544 459.558 6.26507 435.631 4.76092C429.763 4.39504 423.59 4.21211 417.864 3.38889C412.935 2.68763 410.33 0.939558 408.358 4.14096C406.903 6.50899 406.891 9.66974 403.336 11.3365C400.989 12.424 393.76 14.3855 391.472 12.7594C389.183 11.1332 390.744 5.44185 386.238 4.4357C384.36 4.01901 380.312 5.15728 378.246 5.2894C374.726 5.52316 370.994 5.43169 367.415 5.36055C360.585 5.22843 356.56 4.06982 354.272 8.1351C352.594 11.1129 351.537 14.4668 347.782 16.7738C346.03 14.0094 344.352 11.2247 342.748 8.41967C341.011 5.37071 340.847 5.12679 335.226 5.04549C324.336 4.89304 312.871 4.65929 302.11 5.60446C277.994 7.72857 254.829 5.97034 230.737 5.11663C220.176 4.74059 209.614 4.23243 199.053 3.97835C187.752 3.69378 175.383 2.50469 164.716 4.64912C160.315 5.38138 155.853 5.80285 151.374 5.90936C148.781 6.12944 146.173 6.19735 143.57 6.11262C141.915 6.00083 139.157 5.0963 137.597 5.25892C133.525 5.73659 130.427 10.5641 126.613 10.5641C123.186 10.5641 118.703 6.08213 116.133 4.76092C108.869 1.02086 93.8721 2.14898 84.7774 1.85425C72.8077 1.47821 60.8028 1.24445 48.8331 0.837926C38.6354 0.50254 28.8602 0.817599 18.6859 0.644825C14.9072 0.583846 5.85956 -0.584921 2.52682 0.380582C-1.18144 1.48837 0.297167 5.67561 0.261962 8.26722C0.168082 14.7005 2.11609 21.1237 2.44467 27.5773C2.83193 35.0371 1.57628 42.5375 1.05994 49.9973C0.132877 63.677 2.33906 77.6209 2.8554 91.3513C2.99622 94.7662 2.33906 97.3781 5.77741 100.102C9.02801 102.683 8.39432 105 8.47646 108.232C8.54687 110.976 8.53514 113.741 8.79331 116.485C8.89892 117.664 9.80252 119.534 9.36832 120.642C8.47646 122.908 8.58208 121.577 5.76568 122.502C4.28707 122.989 4.04063 122.156 2.90234 123.111C1.96354 123.894 2.74978 126.526 2.76152 127.431C2.69375 130.301 2.83092 133.173 3.17224 136.029C3.5947 138.803 3.24265 141.181 6.90397 142.94C11.1286 144.972 17.7706 146.395 22.535 148.143C26.7244 149.678 28.8954 150.176 23.5794 151.497C18.8772 152.459 14.0865 153.06 9.26271 153.296C4.56871 153.682 4.27533 153.296 3.01969 155.684C1.27117 158.987 2.77325 163.957 2.58549 167.443C1.88139 180.411 2.25691 193.369 0.449722 206.317C0.133455 209.609 0.0394153 212.915 0.168082 216.216C0.168082 220.434 0.226757 220.759 6.83356 222.548C9.18056 223.188 15.6466 224.489 15.8578 226.481C16.0338 228.168 8.20656 230.109 6.46978 231.746C2.33906 235.557 3.7942 241.889 3.25439 246.34C2.33906 253.851 3.25439 261.412 2.45641 268.953C1.81098 275.051 0.743097 281.149 0.707892 287.247C0.707892 290.611 0.332372 293.965 0.144612 297.319C-0.054883 301.201 1.85792 300.632 8.0188 300.581C19.5778 300.49 30.8668 298.965 42.4024 298.548C54.9823 298.108 67.5739 297.752 80.1773 297.481C86.9445 297.332 93.7078 297.261 100.467 297.268C104.891 297.268 110.594 298.132 114.831 297.827C119.947 297.461 123.116 293.609 128.033 292.562C133.9 291.312 136.036 293.477 139.838 295.804C144.368 298.579 145.518 299.585 151.808 299.361C158.098 299.138 164.364 299.839 170.584 300.093C183.598 300.611 196.706 300.286 209.755 300.286C236.828 300.286 263.736 301.496 290.785 301.404C303.717 301.364 316.645 301.364 329.57 301.404C331.658 301.404 336.611 301.912 338.476 301.404C341.809 300.51 341.445 299.433 342.103 297.339C342.654 295.56 343.135 288.832 346.151 287.979C350.106 289.523 349.519 294.564 352.605 296.597C355.692 298.63 357.299 298.071 362.134 297.105C367.661 295.997 367.685 294.453 373.059 296.312C375.557 297.293 378.134 298.115 380.769 298.772C383.727 299.412 388.209 298.965 390.756 299.788C395.685 301.425 393.455 302.573 399.733 302.573C405.718 302.573 411.562 303.66 417.559 303.884C430.033 304.341 442.202 303.325 454.63 302.929C465.308 302.583 476.011 302.329 486.654 301.648C498.518 300.886 510.183 301.425 522.024 301.069C528.02 300.886 530.379 300.053 534.932 298.02C539.051 296.241 543.534 295.733 548.521 295.367C554.511 294.884 560.542 294.925 566.523 295.489C569.421 295.764 572.308 296.16 575.265 296.191C577.53 296.191 581.473 295.367 583.409 296.191C587.047 297.664 585.31 300.378 590.098 301.272C595.133 302.217 601.681 300.947 606.821 300.957C619.471 300.957 631.323 304.189 644.185 303.711C655.204 303.305 665.625 302.827 676.679 303.427C681.373 303.681 685.786 304.85 687.241 301.923C688.872 298.762 685.891 293.66 685.68 290.337C685.234 283.598 688.203 277.124 689.306 270.478C690.48 263.13 689.635 255.7 688.59 248.352C686.677 234.591 685.527 220.708 685.175 206.785C685.058 202.903 684.894 199.051 684.565 195.179C684.366 192.81 685.633 188.471 682.547 186.702C679.026 184.67 670.718 186.082 671.704 182.241C672.419 179.446 678.58 176.61 681.643 174.71C685.938 172.037 685.011 169.527 684.694 166.03C684.413 162.9 685.868 157.9 684.084 154.963C682.429 152.239 674.778 152.513 670.061 151.995C664.17 151.318 658.263 150.677 652.341 150.074C652.458 149.942 655.627 150.349 652.458 150.013Z" fill="#32D499"/>
</svg>