<svg xmlns="http://www.w3.org/2000/svg" width="264" height="304" viewBox="0 0 264 304" fill="none">
    <path opacity="0.1" d="M249.636 150.013C249.6 149.647 256.084 148.296 256.82 148.062C257.929 147.727 259.963 147.513 260.892 146.476C261.93 145.287 261.633 143.641 261.62 141.74C261.57 132.98 259.936 124.219 259.168 115.53C258.966 113.263 257.372 108.141 257.96 106.535C258.351 105.427 259.788 104.909 260.304 103.628C260.978 101.952 260.946 99.6242 261.023 97.6932C261.171 93.7905 261.135 90.1724 261.516 86.2697C261.965 81.8487 261.112 81.7369 258.472 80.1718C260.529 77.0415 262.697 74.3077 263.182 69.6123C263.443 67.0816 262.908 64.5307 262.994 61.9695C263.07 59.5812 263.254 57.2233 263.254 54.8045C263.258 48.8078 263.094 42.8165 262.765 36.8664C262.468 31.5308 261.979 26.2866 262.603 20.9814C262.892 18.324 262.982 15.5755 262.868 12.8508C262.819 10.2999 263.398 8.27738 263.766 5.83822C264.556 0.461887 263.317 1.28511 260.484 1.77294C258.361 2.05742 256.232 2.07778 254.108 1.83392C252.609 1.73229 250.359 0.736294 248.918 1.22413C246.354 2.09816 245.734 9.63925 244.212 12.4951C243.404 10.4625 243.009 7.84037 242.075 5.93985C240.84 3.41938 239.287 3.67346 237.392 3.69378C232.453 3.76493 227.613 5.00484 222.692 5.19794C213.263 5.57397 203.906 6.32605 194.46 5.99066C185.255 5.66544 175.831 6.26507 166.676 4.76092C164.431 4.39504 162.069 4.21211 159.878 3.38889C157.993 2.68763 156.996 0.939558 156.241 4.14096C155.685 6.50899 155.68 9.66974 154.32 11.3365C153.422 12.424 150.656 14.3855 149.78 12.7594C148.905 11.1332 149.502 5.44185 147.778 4.4357C147.06 4.01901 145.511 5.15728 144.72 5.2894C143.373 5.52316 141.946 5.43169 140.576 5.36055C137.963 5.22843 136.423 4.06982 135.547 8.1351C134.905 11.1129 134.501 14.4668 133.065 16.7738C132.394 14.0094 131.752 11.2247 131.138 8.41967C130.474 5.37071 130.411 5.12679 128.26 5.04549C124.094 4.89304 119.707 4.65929 115.59 5.60446C106.363 7.72857 97.4999 5.97034 88.2821 5.11663C84.2412 4.74059 80.2003 4.23243 76.1594 3.97835C71.8356 3.69378 67.1032 2.50469 63.0219 4.64912C61.3381 5.38138 59.6308 5.80285 57.9168 5.90936C56.9247 6.12944 55.9272 6.19735 54.9311 6.11262C54.298 6.00083 53.2429 5.0963 52.6457 5.25891C51.0877 5.73659 49.9024 10.5641 48.4431 10.5641C47.1321 10.5641 45.4169 6.08213 44.4336 4.76092C41.6544 1.02086 35.9163 2.14898 32.4366 1.85425C27.8569 1.47821 23.2637 1.24445 18.684 0.837926C14.7822 0.50254 11.0421 0.817599 7.14939 0.644825C5.70364 0.583846 2.24192 -0.584921 0.966782 0.380582C-0.45203 1.48837 0.113699 5.67561 0.100229 8.26722C0.0643097 14.7005 0.809635 21.1237 0.935353 27.5773C1.08352 35.0371 0.603099 42.5375 0.405543 49.9973C0.0508399 63.677 0.894944 77.6208 1.0925 91.3513C1.14638 94.7662 0.894944 97.3781 2.21049 100.102C3.45419 102.683 3.21174 105 3.24317 108.232C3.27011 110.976 3.26562 113.741 3.3644 116.485C3.40481 117.664 3.75053 119.534 3.5844 120.642C3.24317 122.908 3.28358 121.577 2.206 122.502C1.64027 122.989 1.54598 122.156 1.11046 123.111C0.751266 123.894 1.05209 126.526 1.05658 127.431C1.03065 130.301 1.08313 133.173 1.21373 136.029C1.37536 138.803 1.24067 141.181 2.64152 142.94C4.25789 144.972 6.79918 146.395 8.62208 148.143C10.225 149.678 11.0556 150.176 9.02169 151.497C7.22257 152.459 5.38963 153.06 3.54399 153.296C1.74803 153.682 1.63578 153.296 1.15536 155.684C0.486361 158.987 1.06107 163.957 0.989232 167.443C0.719837 180.411 0.863514 193.369 0.172068 206.317C0.0510612 209.609 0.0150806 212.915 0.0643097 216.216C0.0643097 220.434 0.0867591 220.759 2.61458 222.548C3.51256 223.188 5.98651 224.489 6.06733 226.481C6.13467 228.168 3.1399 230.109 2.47539 231.746C0.894944 235.557 1.45169 241.889 1.24516 246.34C0.894944 253.851 1.24516 261.412 0.939843 268.953C0.692897 275.051 0.284315 281.149 0.270846 287.247C0.270846 290.611 0.127168 293.965 0.0553298 297.319C-0.0209987 301.201 0.710857 300.632 3.06806 300.581C7.49063 300.49 11.8099 298.965 16.2235 298.548C21.0367 298.108 25.8544 297.752 30.6765 297.481C33.2657 297.332 35.8534 297.261 38.4396 297.268C40.1323 297.268 42.3144 298.132 43.9353 297.827C45.8929 297.461 47.1051 293.609 48.9864 292.562C51.2314 291.312 52.0485 293.477 53.5033 295.804C55.2364 298.579 55.6764 299.585 58.083 299.361C60.4896 299.138 62.8872 299.839 65.2668 300.093C70.2461 300.612 75.2614 300.286 80.2542 300.286C90.6124 300.286 100.908 301.496 111.257 301.404C116.205 301.364 121.151 301.364 126.096 301.404C126.895 301.404 128.79 301.912 129.504 301.404C130.779 300.51 130.64 299.433 130.891 297.339C131.102 295.56 131.287 288.832 132.44 287.979C133.954 289.523 133.729 294.564 134.91 296.597C136.091 298.63 136.706 298.071 138.556 297.105C140.67 295.997 140.679 294.453 142.736 296.312C143.692 297.293 144.677 298.115 145.686 298.772C146.817 299.412 148.532 298.965 149.507 299.788C151.392 301.425 150.539 302.573 152.941 302.573C155.231 302.573 157.467 303.66 159.762 303.884C164.534 304.341 169.19 303.325 173.945 302.929C178.031 302.583 182.126 302.329 186.198 301.648C190.737 300.886 195.2 301.425 199.731 301.069C202.025 300.886 202.928 300.053 204.67 298.02C206.246 296.241 207.961 295.733 209.869 295.367C212.161 294.884 214.468 294.925 216.757 295.489C217.866 295.764 218.97 296.16 220.102 296.191C220.968 296.191 222.477 295.367 223.218 296.191C224.609 297.664 223.945 300.378 225.777 301.272C227.703 302.217 230.208 300.947 232.175 300.957C237.015 300.957 241.55 304.189 246.471 303.711C250.687 303.305 254.674 302.827 258.903 303.427C260.699 303.681 262.388 304.85 262.944 301.923C263.568 298.762 262.428 293.66 262.347 290.337C262.176 283.598 263.312 277.124 263.734 270.478C264.184 263.13 263.86 255.7 263.461 248.352C262.729 234.591 262.289 220.708 262.154 206.785C262.109 202.903 262.046 199.051 261.921 195.179C261.844 192.81 262.329 188.471 261.148 186.702C259.801 184.67 256.622 186.082 257 182.241C257.274 179.446 259.631 176.61 260.803 174.71C262.446 172.037 262.091 169.527 261.97 166.03C261.862 162.9 262.419 157.9 261.736 154.963C261.103 152.239 258.176 152.513 256.371 151.995C254.117 151.318 251.857 150.677 249.591 150.074C249.636 149.942 250.848 150.349 249.636 150.013Z" fill="white"/>
</svg>