<svg xmlns="http://www.w3.org/2000/svg" width="684" height="193" viewBox="0 0 684 193" fill="none">
    <path opacity="0.2" d="M646.785 95.2387C646.692 95.0064 663.49 94.1483 665.397 93.9999C668.271 93.7869 673.54 93.6514 675.948 92.9933C678.636 92.2384 677.868 91.1931 677.833 89.9865C677.705 84.4247 673.471 78.8628 671.481 73.3461C670.958 71.9072 666.828 68.6553 668.352 67.6358C669.364 66.9325 673.087 66.6034 674.425 65.7904C676.169 64.7258 676.088 63.2482 676.286 62.0223C676.67 59.5446 676.577 57.2476 677.565 54.7699C678.729 51.9632 676.518 51.8922 669.678 50.8986C675.006 48.9112 680.625 47.1756 681.881 44.1946C682.556 42.588 681.172 40.9685 681.393 39.3425C681.59 37.8262 682.067 36.3293 682.067 34.7936C682.077 30.9865 681.654 27.1829 680.799 23.4053C680.032 20.0179 678.764 16.6885 680.381 13.3204C681.13 11.6333 681.362 9.88836 681.067 8.15858C680.939 6.53906 682.44 5.25505 683.393 3.7065C685.441 0.293238 682.23 0.815873 674.89 1.12558C669.389 1.30619 663.874 1.31912 658.371 1.1643C654.486 1.09977 648.658 0.46745 644.923 0.77716C638.281 1.33206 636.676 6.11966 632.732 7.93275C630.638 6.64229 629.614 4.9776 627.195 3.77102C623.996 2.17085 619.971 2.33216 615.062 2.34507C602.265 2.39023 589.725 3.17741 576.975 3.30001C552.546 3.53874 528.303 4.01621 503.827 3.80328C479.98 3.59681 455.562 3.9775 431.842 3.02256C426.026 2.79027 419.907 2.67413 414.23 2.1515C409.344 1.70629 406.762 0.596496 404.807 2.62897C403.365 4.13235 403.353 6.13901 399.829 7.19719C397.502 7.88758 390.336 9.13288 388.068 8.10051C385.799 7.06814 387.346 3.45486 382.879 2.81608C381.018 2.55154 377.005 3.2742 374.957 3.35808C371.467 3.50648 367.768 3.44841 364.22 3.40324C357.45 3.31936 353.46 2.5838 351.191 5.16472C349.528 7.05524 348.481 9.18449 344.758 10.6492C343.021 8.89414 341.357 7.12621 339.768 5.34538C338.046 3.40969 337.883 3.25484 332.311 3.20322C321.515 3.10644 310.15 2.95803 299.483 3.5581C275.577 4.90663 252.613 3.79038 228.731 3.24839C218.261 3.00965 207.792 2.68704 197.322 2.52573C186.119 2.34507 173.858 1.59015 163.284 2.95158C158.921 3.41647 154.498 3.68405 150.057 3.75167C147.487 3.89139 144.902 3.9345 142.321 3.88071C140.681 3.80974 137.947 3.23548 136.4 3.33872C132.364 3.64198 129.292 6.70682 125.512 6.70682C122.115 6.70682 117.671 3.86135 115.124 3.02256C107.923 0.648114 93.0558 1.36432 84.0403 1.1772C72.1746 0.938467 60.2741 0.790064 48.4085 0.531973C38.2995 0.319047 28.6092 0.519068 18.5234 0.409379C14.7776 0.370665 5.80861 -0.371348 2.50485 0.24162C-1.17117 0.944919 0.294583 3.60326 0.259684 5.2486C0.16662 9.3329 2.09769 13.4107 2.42341 17.5079C2.8073 22.2439 1.56258 27.0057 1.05073 31.7417C0.131722 40.4265 2.31872 49.279 2.83057 57.9961C2.97016 60.164 2.31872 61.8223 5.72717 63.5515C8.9495 65.1904 8.32132 66.6615 8.40275 68.7133C8.47255 70.4555 8.46092 72.2105 8.71684 73.9526C8.82154 74.7011 9.71728 75.8883 9.28686 76.5916C8.40275 78.0304 8.50745 77.1852 5.71554 77.7723C4.24979 78.0821 4.0055 77.553 2.8771 78.1595C1.94646 78.6563 2.72587 80.3275 2.7375 80.9017C2.67033 82.7242 2.8063 84.5472 3.14466 86.3603C3.56344 88.1218 3.21446 89.6317 6.84394 90.7479C11.0318 92.0384 17.6161 92.9417 22.339 94.0515C26.492 95.0258 28.6441 95.3419 23.3744 96.1807C18.713 96.7911 13.964 97.1732 9.18216 97.3228C4.52898 97.568 4.23816 97.3228 2.99343 98.8391C1.26012 100.936 2.74914 104.091 2.56301 106.304C1.86503 114.538 2.23729 122.764 0.445811 130.984C0.132295 133.074 0.0390725 135.173 0.16662 137.269C0.16662 139.947 0.224785 140.153 6.77414 141.289C9.10073 141.695 15.5105 142.521 15.7199 143.786C15.8944 144.857 8.1352 146.089 6.41352 147.128C2.31872 149.548 3.7612 153.567 3.22609 156.394C2.31872 161.162 3.22609 165.962 2.43505 170.75C1.79523 174.621 0.736636 178.493 0.701737 182.364C0.701737 184.5 0.329482 186.629 0.143355 188.758C-0.0544057 191.223 1.84177 190.862 7.94907 190.829C19.4075 190.771 30.5984 189.803 42.0336 189.539C54.5042 189.259 66.9863 189.034 79.4801 188.861C86.1885 188.767 92.8929 188.722 99.5935 188.726C103.979 188.726 109.633 189.274 113.832 189.081C118.904 188.849 122.045 186.403 126.919 185.739C132.736 184.945 134.853 186.319 138.622 187.797C143.112 189.558 144.252 190.197 150.488 190.055C156.723 189.913 162.935 190.358 169.1 190.52C182.001 190.849 194.995 190.642 207.931 190.642C234.768 190.642 261.443 191.41 288.257 191.352C301.076 191.326 313.892 191.326 326.704 191.352C328.774 191.352 333.684 191.675 335.533 191.352C338.837 190.784 338.476 190.1 339.128 188.771C339.674 187.642 340.151 183.371 343.141 182.829C347.061 183.809 346.48 187.01 349.539 188.3C352.599 189.591 354.192 189.236 358.985 188.623C364.464 187.919 364.488 186.939 369.816 188.119C372.292 188.742 374.846 189.264 377.458 189.681C380.39 190.087 384.834 189.803 387.358 190.326C392.244 191.365 390.034 192.094 396.257 192.094C402.19 192.094 407.983 192.784 413.928 192.926C426.294 193.217 438.357 192.572 450.676 192.32C461.262 192.1 471.871 191.939 482.423 191.507C494.183 191.023 505.747 191.365 517.484 191.139C523.429 191.023 525.767 190.494 530.281 189.203C534.364 188.074 538.807 187.752 543.752 187.519C549.689 187.213 555.668 187.239 561.596 187.597C564.47 187.771 567.332 188.023 570.263 188.042C572.508 188.042 576.417 187.519 578.336 188.042C581.943 188.978 580.221 190.7 584.967 191.268C589.958 191.868 596.449 191.062 601.544 191.068C614.084 191.068 625.834 193.12 638.583 192.817C649.507 192.559 659.837 192.255 670.795 192.636C675.448 192.797 679.822 193.539 681.265 191.681C682.882 189.674 679.927 186.435 679.718 184.326C679.275 180.048 682.219 175.938 683.312 171.718C684.475 167.053 683.638 162.336 682.602 157.671C680.706 148.935 679.566 140.121 679.217 131.281C679.101 128.816 678.938 126.371 678.612 123.913C678.415 122.409 679.671 119.654 676.612 118.531C673.122 117.241 664.886 118.138 665.863 115.699C666.572 113.925 672.68 112.124 675.716 110.918C679.973 109.221 679.054 107.627 678.74 105.408C678.461 103.42 679.904 100.246 678.135 98.381C676.495 96.6518 668.911 96.826 664.234 96.4969C658.394 96.0667 652.539 95.6603 646.668 95.2774C646.785 95.1935 649.926 95.4516 646.785 95.2387Z" fill="#D49332"/>
</svg>