<svg xmlns="http://www.w3.org/2000/svg" width="452" height="13" viewBox="0 0 452 13" fill="none">
    <path d="M100.904 7.00571C115.748 6.66111 188.727 5.71645 196.43 5.32551C216.192 4.32183 242.653 3.9198 272.195 3.73404C299.526 3.56213 322.771 3.06585 341.528 2.20634C359.682 1.37456 383.262 0.878261 407.78 0.445735C415.015 0.318196 422.183 0.190654 429.485 0.0714325C443.418 -0.155921 453.735 0.179566 450.988 0.792311C448.577 1.33297 441.61 1.79599 431.226 2.11484C417.025 2.55014 401.885 2.93553 386.612 3.30151C340.858 4.39669 294.837 5.47524 248.883 6.55655L144.648 9.60641C120.867 10.2524 97.6884 10.94 74.8452 11.6415C59.3038 12.1212 44.2313 12.1849 28.4219 11.7164C20.9192 11.4945 13.1484 11.2727 6.65051 11.0066C-1.52214 10.6683 -2.25902 10.2635 4.97579 9.89753C11.3397 9.57591 18.8425 9.2737 27.1491 9.04357C46.241 8.51955 66.1367 8.04544 85.7644 7.55191C86.9702 7.52142 88.578 7.50755 89.5828 7.46596C93.4682 7.31624 97.1526 7.1582 100.904 7.00571Z" fill="#32D499" fill-opacity="0.5"/>
</svg>