<svg xmlns="http://www.w3.org/2000/svg" width="1640" height="589" viewBox="0 0 1640 589" fill="none">
    <path d="M1550.77 290.651C1550.55 289.942 1590.82 287.323 1595.4 286.87C1602.29 286.22 1614.92 285.807 1620.7 283.798C1627.14 281.494 1625.3 278.304 1625.21 274.622C1624.91 257.648 1614.75 240.674 1609.98 223.839C1608.73 219.447 1598.83 209.523 1602.48 206.412C1604.91 204.266 1613.83 203.261 1617.04 200.78C1621.23 197.531 1621.03 193.022 1621.5 189.281C1622.42 181.719 1622.2 174.709 1624.57 167.148C1627.36 158.582 1622.06 158.365 1605.66 155.333C1618.44 149.268 1631.91 143.971 1634.92 134.874C1636.54 129.971 1633.22 125.028 1633.75 120.066C1634.22 115.439 1635.37 110.87 1635.37 106.184C1635.39 94.5651 1634.37 82.957 1632.33 71.4287C1630.49 61.0909 1627.44 50.9302 1631.32 40.6514C1633.12 35.5028 1633.67 30.1774 1632.97 24.8985C1632.66 19.956 1636.26 16.0374 1638.55 11.3115C1643.45 0.894907 1635.76 2.48989 1618.16 3.43507C1604.97 3.98626 1591.75 4.0257 1578.55 3.55322C1569.23 3.35631 1555.26 1.42657 1546.31 2.37175C1530.38 4.06519 1526.53 18.6761 1517.08 24.2093C1512.06 20.271 1509.6 15.1907 1503.8 11.5085C1496.13 6.62504 1486.48 7.11732 1474.71 7.15671C1444.03 7.29454 1413.96 9.69687 1383.39 10.071C1324.82 10.7996 1266.69 12.2567 1208.01 11.6069C1150.83 10.9768 1092.28 12.1386 1035.41 9.22428C1021.47 8.5154 1006.79 8.16096 993.183 6.56597C981.469 5.20728 975.277 1.82039 970.591 8.02312C967.132 12.6112 967.104 18.7351 958.653 21.9645C953.075 24.0714 935.893 27.8718 930.455 24.7212C925.016 21.5707 928.725 10.5436 918.015 8.59416C913.552 7.78682 903.929 9.99224 899.02 10.2482C890.653 10.7011 881.783 10.5239 873.276 10.3861C857.043 10.1301 847.476 7.88528 842.037 15.7618C838.049 21.5313 835.538 28.0294 826.613 32.4993C822.448 27.1433 818.459 21.7479 814.647 16.3131C810.519 10.4058 810.129 9.93316 796.769 9.77563C770.885 9.48027 743.635 9.02737 718.058 10.8586C660.74 14.9741 605.681 11.5675 548.419 9.91347C523.317 9.1849 498.214 8.20034 473.111 7.70806C446.251 7.15671 416.853 4.85284 391.5 9.00768C381.04 10.4264 370.434 11.243 359.786 11.4494C353.623 11.8758 347.427 12.0074 341.238 11.8432C337.306 11.6266 330.751 9.87409 327.041 10.1891C317.363 11.1146 309.999 20.4679 300.935 20.4679C292.79 20.4679 282.135 11.7841 276.027 9.22428C258.762 1.97792 223.116 4.16364 201.5 3.5926C173.05 2.86403 144.517 2.41113 116.067 1.62348C91.8291 0.973672 68.5952 1.5841 44.4129 1.24935C35.4317 1.1312 13.9271 -1.13329 6.00577 0.737378C-2.80807 2.88372 0.70631 10.9965 0.622635 16.0177C0.399499 28.4823 5.02955 40.9271 5.81053 53.431C6.73096 67.8843 3.74653 82.4164 2.51928 96.8698C0.315824 123.374 5.5595 150.39 6.78674 176.993C7.12144 183.609 5.5595 188.67 13.7318 193.947C21.4579 198.949 19.9517 203.438 20.147 209.7C20.3143 215.017 20.2864 220.373 20.9 225.69C21.1511 227.974 23.2987 231.597 22.2667 233.743C20.147 238.134 20.398 235.555 13.7039 237.347C10.1896 238.292 9.60382 236.677 6.89831 238.528C4.66696 240.044 6.53571 245.144 6.56361 246.897C6.40254 252.459 6.72856 258.022 7.53982 263.556C8.54393 268.931 7.70717 273.539 16.4094 276.946C26.4505 280.884 42.2373 283.641 53.5614 287.028C63.5188 290.001 68.6788 290.966 56.0438 293.526C44.8675 295.388 33.4811 296.555 22.0157 297.011C10.859 297.759 10.1617 297.011 7.17723 301.638C3.02134 308.038 6.5915 317.667 6.14523 324.421C4.47171 349.547 5.36426 374.653 1.0689 399.74C0.317198 406.118 0.0936827 412.522 0.399499 418.919C0.399499 427.091 0.538958 427.721 16.2421 431.187C21.8205 432.427 37.1889 434.948 37.691 438.807C38.1093 442.076 19.5054 445.837 15.3774 449.007C5.5595 456.391 9.01809 468.659 7.73507 477.284C5.5595 491.836 7.73507 506.486 5.83842 521.097C4.30436 532.911 1.7662 544.726 1.68253 556.541C1.68253 563.059 0.789986 569.557 0.343716 576.055C-0.130446 583.577 4.41593 582.474 19.0592 582.376C46.5327 582.198 73.3647 579.245 100.782 578.438C130.683 577.584 160.611 576.895 190.566 576.37C206.651 576.081 222.726 575.943 238.791 575.956C249.307 575.956 262.862 577.63 272.931 577.039C285.092 576.331 292.623 568.868 304.31 566.839C318.255 564.417 323.332 568.612 332.369 573.121C343.135 578.497 345.868 580.446 360.818 580.013C375.768 579.58 390.663 580.938 405.445 581.431C436.378 582.435 467.533 581.805 498.549 581.805C562.895 581.805 626.851 584.148 691.142 583.971C721.879 583.892 752.607 583.892 783.325 583.971C788.29 583.971 800.06 584.955 804.495 583.971C812.416 582.238 811.551 580.151 813.113 576.094C814.424 572.648 815.568 559.613 822.736 557.959C832.136 560.952 830.741 570.719 838.077 574.657C845.412 578.595 849.233 577.512 860.725 575.641C873.862 573.495 873.918 570.502 886.692 574.105C892.629 576.005 898.753 577.597 905.017 578.871C912.046 580.111 922.701 579.245 928.753 580.84C940.468 584.01 935.168 586.235 950.09 586.235C964.315 586.235 978.205 588.342 992.458 588.775C1022.11 589.661 1051.03 587.692 1080.57 586.924C1105.95 586.255 1131.39 585.763 1156.69 584.443C1184.88 582.966 1212.61 584.01 1240.75 583.321C1255 582.966 1260.61 581.352 1271.43 577.414C1281.22 573.968 1291.88 572.983 1303.73 572.274C1317.97 571.338 1332.3 571.417 1346.52 572.51C1353.41 573.042 1360.27 573.81 1367.3 573.869C1372.68 573.869 1382.05 572.274 1386.65 573.869C1395.3 576.724 1391.17 581.982 1402.55 583.715C1414.52 585.546 1430.08 583.085 1442.3 583.104C1472.37 583.104 1500.54 589.366 1531.11 588.441C1557.3 587.653 1582.06 586.727 1608.34 587.889C1619.5 588.382 1629.98 590.646 1633.44 584.975C1637.32 578.851 1630.23 568.966 1629.73 562.527C1628.67 549.472 1635.73 536.928 1638.35 524.05C1641.14 509.814 1639.13 495.419 1636.65 481.183C1632.1 454.521 1629.37 427.623 1628.53 400.646C1628.25 393.124 1627.86 385.661 1627.08 378.158C1626.61 373.57 1629.62 365.162 1622.28 361.736C1613.92 357.798 1594.17 360.535 1596.51 353.091C1598.21 347.676 1612.86 342.183 1620.14 338.5C1630.35 333.322 1628.14 328.458 1627.39 321.684C1626.72 315.619 1630.18 305.931 1625.94 300.24C1622.01 294.963 1603.82 295.495 1592.61 294.491C1578.61 293.178 1564.57 291.937 1550.49 290.769C1550.77 290.513 1558.3 291.301 1550.77 290.651Z" fill="#222631"/>
</svg>