<svg xmlns="http://www.w3.org/2000/svg" width="1728" height="426" viewBox="0 0 1728 426" fill="none">
    <path d="M1712.22 210.216C1711.97 209.703 1758.36 207.809 1763.63 207.482C1771.56 207.012 1786.11 206.712 1792.76 205.26C1800.19 203.594 1798.06 201.286 1797.97 198.623C1797.62 186.347 1785.92 174.07 1780.43 161.893C1778.98 158.717 1767.58 151.54 1771.79 149.289C1774.58 147.737 1784.86 147.011 1788.56 145.216C1793.37 142.866 1793.15 139.605 1793.7 136.899C1794.76 131.43 1794.5 126.36 1797.23 120.891C1800.44 114.696 1794.34 114.539 1775.45 112.346C1790.16 107.96 1805.68 104.128 1809.15 97.5488C1811.01 94.0025 1807.19 90.4278 1807.8 86.8389C1808.35 83.4921 1809.66 80.1879 1809.66 76.7984C1809.69 68.3951 1808.52 59.9995 1806.16 51.6615C1804.04 44.1846 1800.54 36.8358 1805 29.4015C1807.07 25.6777 1807.71 21.8261 1806.9 18.0081C1806.55 14.4334 1810.69 11.5992 1813.33 8.18119C1818.98 0.64725 1810.11 1.80084 1789.84 2.48445C1774.65 2.8831 1759.42 2.91162 1744.22 2.5699C1733.49 2.42748 1717.39 1.03178 1707.08 1.71539C1688.74 2.94019 1684.3 13.5076 1673.41 17.5096C1667.63 14.6612 1664.8 10.9868 1658.12 8.3236C1649.29 4.79163 1638.17 5.14767 1624.61 5.17616C1589.27 5.27585 1554.64 7.01335 1519.43 7.28395C1451.96 7.8109 1385.01 8.86479 1317.42 8.39481C1251.56 7.93907 1184.12 8.77934 1118.62 6.67155C1102.55 6.15884 1085.66 5.90249 1069.98 4.7489C1056.48 3.76621 1049.35 1.31662 1043.96 5.8028C1039.97 9.12115 1039.94 13.5504 1030.2 15.886C1023.78 17.4099 1003.99 20.1586 997.725 17.8799C991.46 15.6012 995.733 7.62575 983.396 6.21581C978.256 5.6319 967.172 7.22698 961.518 7.41213C951.88 7.73969 941.664 7.61151 931.865 7.51182C913.167 7.32668 902.148 5.70311 895.883 11.3998C891.289 15.5727 888.398 20.2725 878.117 23.5054C873.319 19.6316 868.725 15.7294 864.335 11.7986C859.58 7.52606 859.13 7.18426 843.742 7.07032C813.928 6.85669 782.54 6.52913 753.08 7.85362C687.06 10.8302 623.642 8.36633 557.685 7.17002C528.771 6.64307 499.857 5.93098 470.943 5.57493C440.005 5.17616 406.144 3.50986 376.941 6.51489C364.893 7.54102 352.676 8.13162 340.413 8.28088C333.314 8.58928 326.176 8.68444 319.048 8.56572C314.518 8.40906 306.969 7.14153 302.696 7.3694C291.548 8.03877 283.066 14.8036 272.625 14.8036C263.244 14.8036 250.972 8.52299 243.936 6.67155C224.05 1.43055 182.992 3.0114 158.094 2.59838C125.324 2.07143 92.4588 1.74387 59.6896 1.1742C31.7715 0.704218 5.00992 1.14571 -22.8439 0.903604C-33.1887 0.818153 -57.9584 -0.81966 -67.0824 0.533316C-77.2344 2.08568 -73.1865 7.95332 -73.2828 11.585C-73.5398 20.6001 -68.2068 29.6009 -67.3073 38.6445C-66.2471 49.098 -69.6846 59.6085 -71.0982 70.062C-73.6362 89.2315 -67.5964 108.771 -66.1828 128.012C-65.7973 132.797 -67.5964 136.457 -58.1833 140.274C-49.2842 143.892 -51.019 147.139 -50.7941 151.668C-50.6014 155.513 -50.6335 159.387 -49.9267 163.232C-49.6376 164.884 -47.1638 167.505 -48.3525 169.057C-50.7941 172.233 -50.505 170.367 -58.2154 171.663C-62.2634 172.347 -62.938 171.179 -66.0543 172.518C-68.6245 173.614 -66.472 177.303 -66.4398 178.571C-66.6254 182.593 -66.2498 186.617 -65.3154 190.619C-64.1589 194.507 -65.1227 197.84 -55.0991 200.304C-43.5335 203.152 -25.3498 205.146 -12.3064 207.595C-0.837142 209.746 5.1063 210.444 -9.44709 212.295C-22.3203 213.643 -35.4355 214.486 -48.6417 214.816C-61.4923 215.357 -62.2955 214.816 -65.7331 218.163C-70.5199 222.792 -66.4077 229.756 -66.9217 234.641C-68.8493 252.813 -67.8213 270.972 -72.7688 289.116C-73.6346 293.729 -73.8921 298.361 -73.5398 302.987C-73.5398 308.898 -73.3792 309.353 -55.2919 311.86C-48.8665 312.757 -31.1647 314.58 -30.5865 317.372C-30.1046 319.736 -51.5331 322.456 -56.2878 324.749C-67.5964 330.09 -63.6127 338.962 -65.0905 345.2C-67.5964 355.725 -65.0905 366.321 -67.2751 376.888C-69.0421 385.433 -71.9656 393.979 -72.062 402.524C-72.062 407.238 -73.0901 411.938 -73.6041 416.637C-74.1503 422.078 -68.9136 421.28 -52.0471 421.209C-20.4023 421.081 10.5036 418.944 42.0841 418.361C76.5239 417.743 110.996 417.245 145.5 416.865C164.026 416.656 182.542 416.557 201.047 416.566C213.159 416.566 228.772 417.777 240.37 417.349C254.377 416.837 263.052 411.439 276.513 409.972C292.576 408.22 298.423 411.254 308.832 414.515C321.233 418.403 324.381 419.813 341.601 419.5C358.821 419.187 375.977 420.169 393.004 420.525C428.632 421.252 464.518 420.796 500.243 420.796C574.359 420.796 648.026 422.491 722.078 422.363C757.481 422.306 792.874 422.306 828.256 422.363C833.975 422.363 847.532 423.075 852.641 422.363C861.765 421.109 860.769 419.6 862.568 416.666C864.078 414.173 865.395 404.745 873.651 403.549C884.478 405.714 882.872 412.778 891.321 415.626C899.77 418.474 904.172 417.691 917.408 416.338C932.54 414.786 932.604 412.621 947.318 415.227C954.156 416.601 961.211 417.753 968.425 418.674C976.521 419.571 988.793 418.944 995.765 420.098C1009.26 422.391 1003.15 424 1020.34 424C1036.73 424 1052.73 425.524 1069.14 425.838C1103.29 426.478 1136.61 425.054 1170.63 424.499C1199.87 424.015 1229.17 423.659 1258.3 422.704C1290.78 421.636 1322.72 422.391 1355.13 421.893C1371.55 421.636 1378.01 420.468 1390.47 417.62C1401.75 415.128 1414.02 414.416 1427.68 413.903C1444.07 413.226 1460.59 413.283 1476.96 414.074C1484.89 414.458 1492.8 415.014 1500.89 415.056C1507.09 415.056 1517.89 413.903 1523.19 415.056C1533.15 417.122 1528.39 420.924 1541.5 422.177C1555.28 423.502 1573.21 421.722 1587.28 421.736C1621.91 421.736 1654.36 426.265 1689.57 425.595C1719.74 425.026 1748.27 424.356 1778.53 425.197C1791.38 425.553 1803.46 427.191 1807.45 423.089C1811.91 418.66 1803.75 411.51 1803.17 406.853C1801.95 397.411 1810.08 388.339 1813.1 379.025C1816.31 368.728 1814 358.317 1811.14 348.02C1805.9 328.737 1802.76 309.282 1801.79 289.771C1801.47 284.331 1801.02 278.933 1800.12 273.507C1799.57 270.188 1803.04 264.107 1794.6 261.629C1784.96 258.781 1762.21 260.76 1764.91 255.377C1766.87 251.46 1783.74 247.487 1792.12 244.824C1803.88 241.078 1801.34 237.56 1800.47 232.661C1799.7 228.275 1803.69 221.268 1798.8 217.152C1794.27 213.335 1773.33 213.719 1760.41 212.993C1744.28 212.044 1728.11 211.146 1711.9 210.301C1712.22 210.116 1720.9 210.686 1712.22 210.216Z" fill="#222631"/>
</svg>