<svg xmlns="http://www.w3.org/2000/svg" width="1728" height="460" viewBox="0 0 1728 460" fill="none">
    <path d="M1728 460.001L1728 0.000485239C1726.42 0.989712 1724.98 1.48434 1723.39 1.97897C1715.33 2.96823 1707.84 0.989709 1699.78 2.96819C1690.27 4.94671 1680.91 5.93593 1671.41 7.91445C1664.21 9.3983 1652.4 3.95744 1646.64 22.2585C1644.62 28.6886 1641.02 50.9468 1638.43 50.9468C1635.41 50.9468 1632.96 27.2048 1629.79 24.7317C1628.5 24.237 1626.34 28.194 1625.04 29.1833C1623.02 29.6779 1620.86 29.1833 1618.85 28.194C1615.25 27.6994 1611.65 25.7209 1608.34 22.2585C1599.98 11.3768 1590.19 17.3123 1581.26 18.7962C1572.91 20.2801 1564.56 22.7532 1556.21 24.237C1537.92 28.194 1520.5 36.6026 1502.35 27.6994C1494 23.7424 1485.65 22.7531 1477.3 23.2478C1469.23 23.7424 1469.52 22.2585 1467.79 40.065C1466.5 53.9144 1465.2 67.7639 1463.76 81.6134C1460.74 70.237 1460.02 53.9145 1458.58 38.5811C1456.7 18.3015 1453.54 24.237 1448.21 24.7316C1445.33 25.2262 1442.45 25.2263 1439.71 24.237C1438.13 23.7424 1434.82 17.8069 1433.38 20.28C1429.78 25.2262 1431.07 53.4198 1429.2 61.3338C1427.33 69.7424 1421.71 59.8499 1419.84 54.4091C1416.96 46.0005 1416.96 30.6671 1415.81 18.7961C1414.22 2.96817 1412.21 11.8714 1408.32 14.8391C1403.71 18.3015 1398.96 20.28 1394.35 21.7639C1375.49 29.1832 1356.05 26.2155 1337.04 27.6993C1317.6 29.1832 1298.3 25.7209 1278.86 23.7424C1268.64 22.7531 1258.7 16.8176 1248.48 16.323C1244.59 16.323 1241.42 14.8391 1238.83 27.6993C1236.96 37.0972 1236.1 49.9574 1234.51 60.3445C1231.34 46.0004 1230.19 8.90363 1224.86 4.452C1221.84 1.97888 1217.38 6.92511 1214.21 7.41974C1211.18 7.91437 1208.02 8.40896 1205.14 8.40896L1205.14 11.8714C1205.14 11.8714 1204.56 12.8606 1203.7 13.3552C1195.06 16.323 1186.99 13.8498 1178.35 11.8714C1168.27 9.89287 1158.91 24.7316 1148.98 24.7316C1144.94 24.7316 1139.62 19.2907 1135.87 23.2477C1131.98 27.2047 1133.42 40.0649 1130.54 46.9896C1128.96 50.9466 1125.94 46.9896 1124.06 46.9896C1121.76 47.4843 1119.46 48.4735 1117.15 50.452C1112.4 52.9251 1107.65 53.4198 1103.04 50.9467C1099.15 48.9681 1095.55 46.9897 1092.38 38.5811C1088.78 29.6778 1086.91 25.2262 1082.16 24.7316C1072.8 23.2477 1063.73 25.7208 1054.37 22.2584C1046.02 19.2907 1037.52 17.8068 1029.17 16.323C1019.38 14.3444 1009.87 9.89285 1000.08 11.8713C995.328 12.8606 990.72 17.8068 986.112 17.8068C981.216 17.8068 982.944 23.2477 979.056 30.667C977.04 34.624 973.584 32.6455 971.136 35.6133C968.976 38.581 966.96 42.538 965.088 46.9896C960.768 55.8928 960.768 48.4735 956.448 43.5273C952.704 39.0756 951.408 36.6025 948.96 46.0004C946.512 55.3982 946.944 78.6456 943.92 85.5703C941.472 81.6133 941.184 50.452 940.752 42.0434C940.176 32.1509 940.464 27.2046 937.872 23.2477C936.432 20.7745 932.544 23.2477 930.816 25.7208L900.72 25.7208C900.72 23.2477 858.384 33.1401 837.072 33.1401C826.848 33.1401 816.48 31.6563 806.256 34.1294C801.36 35.1186 796.464 38.581 791.424 37.5917C786.528 36.6025 785.52 41.0541 782.064 53.9143C779.04 64.3014 777.312 74.1939 772.704 68.7531C768.816 63.8068 766.368 46.495 762.336 44.5165C759.024 43.0326 754.416 46.9896 750.96 46.9896C745.632 46.9896 740.304 46.495 734.976 46.0003C725.04 44.5165 714.96 43.0326 705.168 41.0541C697.68 39.5702 691.344 34.624 682.272 32.6455L682.272 31.6562C679.824 32.1508 674.496 27.6992 670.176 27.6992C661.824 27.6992 654.048 30.667 645.696 32.6455C635.328 34.624 624.96 32.1508 614.736 34.6239C608.688 36.1078 599.904 32.1509 594.72 43.5272C592.416 48.4734 589.824 69.7423 587.52 69.2476C584.784 68.753 583.056 50.9465 582.192 45.0111C579.744 26.71 579.312 26.71 573.552 26.71C569.088 26.71 564.48 26.2153 560.016 27.6992C542.16 32.6455 524.448 31.6562 506.736 33.6347C501.984 34.1293 495.072 29.6777 490.608 34.6239C487.296 38.0863 487.872 39.0756 487.296 51.4412C487.008 64.796 486.144 77.6562 484.848 90.5165C483.12 104.861 482.4 98.925 480.24 87.5487C477.792 74.6885 475.92 56.3874 473.04 45.011C470.592 35.1186 467.424 36.1078 463.536 35.1186C459.648 34.1293 455.616 34.1293 451.728 34.1293C450.432 34.1293 446.832 32.1508 445.824 34.6239C444.528 37.5917 445.68 38.5809 444.96 42.5379C443.664 49.9573 445.536 49.9573 442.368 52.4304C440.784 53.4196 438.336 50.9465 436.752 50.9465C433.008 49.9573 429.264 49.9573 425.376 49.9573C420.912 49.9573 417.888 51.9358 414.288 42.5379C410.544 33.1401 406.944 35.1185 402.336 34.6239C383.472 33.1401 364.464 27.2046 345.744 29.6777C335.52 31.1616 325.44 34.6239 315.216 33.6347C306.864 32.6454 290.448 26.7099 290.448 26.7099L289.44 26.7099L289.44 26.2153C288.864 26.2153 288.144 26.7099 287.568 27.2045C281.808 30.6669 275.904 28.1938 270.144 26.2153C263.808 24.2368 257.328 23.7422 250.848 23.7422C248.256 23.7422 245.952 24.7314 243.216 25.226C240.48 25.7207 237.744 22.7529 235.008 24.2368C229.968 27.2045 227.088 39.0755 223.632 50.4519C222.048 35.6131 221.904 31.1615 217.152 33.6347C212.976 35.6132 209.088 35.6131 204.912 36.6024C202.896 37.097 200.304 37.097 198.576 40.5594C197.28 43.5271 196.704 51.4411 195.408 53.4196C193.68 56.3874 188.208 47.9787 185.76 46.4949C176.4 42.0432 167.04 33.14 157.68 32.6454C155.664 32.6454 153.648 31.6562 152.64 36.6024C151.488 41.5486 151.344 52.925 150.912 59.3551C150.624 63.8067 149.184 99.4196 148.896 99.4196C148.176 87.054 147.6 74.1938 146.88 61.8282C146.304 51.4411 146.592 35.6131 143.712 31.6562C140.544 27.6992 135.216 30.6669 131.76 30.1723C128.016 29.6776 125.28 27.6991 122.4 36.6024C120.384 43.0325 117.36 56.3873 114.336 57.8712C110.16 59.8497 111.744 42.0432 109.584 34.6239C107.712 28.1938 103.104 30.6669 100.512 30.1723C96.3361 29.183 92.1601 28.6884 88.1281 28.6884C73.2961 27.6991 58.1761 25.7207 43.4881 21.269C35.2801 17.312 27.3601 22.2583 19.4401 18.7959C12.2401 15.3335 7.05608 9.39804 8.0429e-05 0.000183105L0 460L1728 460.001Z" fill="#132928"/>
</svg>