<svg xmlns="http://www.w3.org/2000/svg" width="1728" height="147" viewBox="0 0 1728 147" fill="none">
    <path d="M-1.90735e-05 0V147C1.58398 146.684 3.02401 146.526 4.60801 146.368C12.672 146.052 20.16 146.684 28.224 146.052C37.728 145.419 47.0881 145.103 56.5921 144.471C63.7921 143.997 75.6001 145.735 81.3601 139.887C83.3761 137.832 86.976 130.719 89.568 130.719C92.592 130.719 95.04 138.306 98.208 139.097C99.504 139.255 101.664 137.99 102.96 137.674C104.976 137.516 107.136 137.674 109.152 137.99C112.752 138.148 116.352 138.781 119.664 139.887C128.016 143.365 137.808 141.468 146.736 140.994C155.088 140.519 163.44 139.729 171.792 139.255C190.08 137.99 207.504 135.303 225.648 138.148C234 139.413 242.352 139.729 250.704 139.571C258.768 139.413 258.48 139.887 260.208 134.197C261.504 129.771 262.8 125.345 264.24 120.919C267.264 124.555 267.984 129.771 269.424 134.671C271.296 141.152 274.464 139.255 279.792 139.097C282.672 138.939 285.552 138.939 288.288 139.255C289.872 139.413 293.184 141.31 294.624 140.519C298.224 138.939 296.928 129.929 298.8 127.4C300.672 124.713 306.288 127.874 308.16 129.613C311.04 132.3 311.04 137.2 312.192 140.994C313.776 146.052 315.792 143.206 319.68 142.258C324.288 141.152 329.04 140.519 333.648 140.045C352.512 137.674 371.952 138.623 390.96 138.148C410.4 137.674 429.696 138.781 449.136 139.413C459.36 139.729 469.296 141.626 479.52 141.784C483.408 141.784 486.576 142.258 489.168 138.148C491.04 135.145 491.904 131.035 493.488 127.716C496.656 132.3 497.808 144.155 503.136 145.577C506.16 146.368 510.624 144.787 513.792 144.629C516.816 144.471 519.984 144.313 522.864 144.313V143.206C522.864 143.206 523.44 142.89 524.304 142.732C532.944 141.784 541.008 142.574 549.648 143.206C559.728 143.839 569.088 139.097 579.024 139.097C583.056 139.097 588.384 140.836 592.128 139.571C596.016 138.306 594.576 134.197 597.456 131.984C599.04 130.719 602.064 131.984 603.936 131.984C606.24 131.826 608.544 131.51 610.848 130.877C615.6 130.087 620.352 129.929 624.96 130.719C628.848 131.352 632.448 131.984 635.616 134.671C639.216 137.516 641.088 138.939 645.84 139.097C655.2 139.571 664.272 138.781 673.632 139.887C681.984 140.835 690.48 141.31 698.832 141.784C708.624 142.416 718.128 143.839 727.92 143.206C732.672 142.89 737.28 141.31 741.888 141.31C746.784 141.31 745.056 139.571 748.944 137.2C750.96 135.935 754.416 136.568 756.864 135.619C759.024 134.671 761.04 133.406 762.912 131.984C767.232 129.139 767.232 131.51 771.552 133.09C775.296 134.513 776.592 135.303 779.04 132.3C781.488 129.297 781.056 121.868 784.08 119.655C786.528 120.919 786.816 130.877 787.248 133.565C787.824 136.726 787.536 138.306 790.128 139.571C791.568 140.361 795.456 139.571 797.184 138.781H827.28C827.28 139.571 869.616 136.41 890.928 136.41C901.152 136.41 911.52 136.884 921.744 136.094C926.64 135.777 931.536 134.671 936.576 134.987C941.472 135.303 942.48 133.881 945.936 129.771C948.96 126.452 950.688 123.29 955.296 125.029C959.184 126.61 961.632 132.142 965.664 132.774C968.976 133.248 973.584 131.984 977.04 131.984C982.368 131.984 987.696 132.142 993.024 132.3C1002.96 132.774 1013.04 133.248 1022.83 133.881C1030.32 134.355 1036.66 135.935 1045.73 136.568V136.884C1048.18 136.726 1053.5 138.148 1057.82 138.148C1066.18 138.148 1073.95 137.2 1082.3 136.568C1092.67 135.935 1103.04 136.726 1113.26 135.935C1119.31 135.461 1128.1 136.726 1133.28 133.09C1135.58 131.51 1138.18 124.713 1140.48 124.871C1143.22 125.029 1144.94 130.719 1145.81 132.616C1148.26 138.465 1148.69 138.465 1154.45 138.465C1158.91 138.465 1163.52 138.623 1167.98 138.148C1185.84 136.568 1203.55 136.884 1221.26 136.252C1226.02 136.094 1232.93 137.516 1237.39 135.935C1240.7 134.829 1240.13 134.513 1240.7 130.561C1240.99 126.294 1241.86 122.184 1243.15 118.074C1244.88 113.49 1245.6 115.387 1247.76 119.023C1250.21 123.132 1252.08 128.981 1254.96 132.616C1257.41 135.777 1260.58 135.461 1264.46 135.777C1268.35 136.094 1272.38 136.094 1276.27 136.094C1277.57 136.094 1281.17 136.726 1282.18 135.935C1283.47 134.987 1282.32 134.671 1283.04 133.406C1284.34 131.035 1282.46 131.035 1285.63 130.245C1287.22 129.929 1289.66 130.719 1291.25 130.719C1294.99 131.035 1298.74 131.035 1302.62 131.035C1307.09 131.035 1310.11 130.403 1313.71 133.406C1317.46 136.41 1321.06 135.777 1325.66 135.935C1344.53 136.41 1363.54 138.306 1382.26 137.516C1392.48 137.042 1402.56 135.935 1412.78 136.252C1421.14 136.568 1437.55 138.465 1437.55 138.465H1438.56V138.623C1439.14 138.623 1439.86 138.465 1440.43 138.306C1446.19 137.2 1452.1 137.99 1457.86 138.623C1464.19 139.255 1470.67 139.413 1477.15 139.413C1479.74 139.413 1482.05 139.097 1484.78 138.939C1487.52 138.781 1490.26 139.729 1492.99 139.255C1498.03 138.306 1500.91 134.513 1504.37 130.877C1505.95 135.619 1506.1 137.042 1510.85 136.252C1515.02 135.619 1518.91 135.619 1523.09 135.303C1525.1 135.145 1527.7 135.145 1529.42 134.039C1530.72 133.09 1531.3 130.561 1532.59 129.929C1534.32 128.981 1539.79 131.668 1542.24 132.142C1551.6 133.565 1560.96 136.41 1570.32 136.568C1572.34 136.568 1574.35 136.884 1575.36 135.303C1576.51 133.723 1576.66 130.087 1577.09 128.032C1577.38 126.61 1578.82 115.229 1579.1 115.229C1579.82 119.181 1580.4 123.29 1581.12 127.242C1581.7 130.561 1581.41 135.619 1584.29 136.884C1587.46 138.148 1592.78 137.2 1596.24 137.358C1599.98 137.516 1602.72 138.148 1605.6 135.303C1607.62 133.248 1610.64 128.981 1613.66 128.506C1617.84 127.874 1616.26 133.565 1618.42 135.935C1620.29 137.99 1624.9 137.2 1627.49 137.358C1631.66 137.674 1635.84 137.832 1639.87 137.832C1654.7 138.148 1669.82 138.781 1684.51 140.203C1692.72 141.468 1700.64 139.887 1708.56 140.994C1715.76 142.1 1720.94 143.997 1728 147V0H-1.90735e-05Z" fill="#426B5C"/>
</svg>