<svg preserveAspectRatio="none" xmlns="http://www.w3.org/2000/svg" width="2998" height="115" viewBox="0 0 2998 115" fill="none">
    <path d="M2998 0V115C2995.25 114.753 2992.75 114.629 2990.01 114.505C2976.01 114.258 2963.02 114.753 2949.03 114.258C2932.54 113.763 2916.3 113.516 2899.82 113.022C2887.32 112.651 2866.84 114.011 2856.84 109.435C2853.35 107.828 2847.1 102.263 2842.6 102.263C2837.36 102.263 2833.11 108.199 2827.61 108.817C2825.37 108.941 2821.62 107.952 2819.37 107.704C2815.87 107.581 2812.12 107.704 2808.63 107.952C2802.38 108.075 2796.13 108.57 2790.39 109.435C2775.9 112.156 2758.91 110.672 2743.42 110.301C2728.93 109.93 2714.44 109.312 2699.95 108.941C2668.22 107.952 2637.99 105.849 2606.51 108.075C2592.02 109.065 2577.53 109.312 2563.04 109.188C2549.05 109.065 2549.55 109.435 2546.55 104.984C2544.3 101.522 2542.05 98.0591 2539.56 94.5968C2534.31 97.4409 2533.06 101.522 2530.56 105.355C2527.31 110.425 2521.82 108.941 2512.57 108.817C2507.58 108.694 2502.58 108.694 2497.83 108.941C2495.09 109.065 2489.34 110.548 2486.84 109.93C2480.6 108.694 2482.84 101.645 2479.6 99.6667C2476.35 97.5645 2466.6 100.038 2463.36 101.398C2458.36 103.5 2458.36 107.333 2456.36 110.301C2453.61 114.258 2450.12 112.032 2443.37 111.29C2435.38 110.425 2427.13 109.93 2419.14 109.559C2386.41 107.704 2352.68 108.446 2319.7 108.075C2285.97 107.704 2252.5 108.57 2218.77 109.065C2201.03 109.312 2183.79 110.796 2166.05 110.919C2159.31 110.919 2153.81 111.29 2149.32 108.075C2146.07 105.726 2144.57 102.511 2141.82 99.914C2136.32 103.5 2134.33 112.774 2125.08 113.887C2119.84 114.505 2112.09 113.269 2106.59 113.145C2101.35 113.022 2095.85 112.898 2090.86 112.898V112.032C2090.86 112.032 2089.86 111.785 2088.36 111.661C2073.37 110.919 2059.38 111.538 2044.39 112.032C2026.9 112.527 2010.66 108.817 1993.42 108.817C1986.42 108.817 1977.18 110.177 1970.69 109.188C1963.94 108.199 1966.44 104.984 1961.44 103.253C1958.69 102.263 1953.45 103.253 1950.2 103.253C1946.2 103.129 1942.2 102.882 1938.21 102.387C1929.96 101.769 1921.72 101.645 1913.72 102.263C1906.98 102.758 1900.73 103.253 1895.24 105.355C1888.99 107.581 1885.74 108.694 1877.5 108.817C1861.26 109.188 1845.52 108.57 1829.28 109.435C1814.79 110.177 1800.05 110.548 1785.56 110.919C1768.57 111.414 1752.08 112.527 1735.09 112.032C1726.85 111.785 1718.85 110.548 1710.86 110.548C1702.36 110.548 1705.36 109.188 1698.62 107.333C1695.12 106.344 1689.12 106.839 1684.88 106.097C1681.13 105.355 1677.63 104.366 1674.38 103.253C1666.89 101.027 1666.89 102.882 1659.39 104.118C1652.9 105.231 1650.65 105.849 1646.4 103.5C1642.15 101.151 1642.9 95.3387 1637.66 93.6075C1633.41 94.5968 1632.91 102.387 1632.16 104.489C1631.16 106.962 1631.66 108.199 1627.16 109.188C1624.67 109.806 1617.92 109.188 1614.92 108.57H1562.71C1562.71 109.188 1489.26 106.715 1452.28 106.715C1434.54 106.715 1416.55 107.086 1398.82 106.468C1390.32 106.22 1381.83 105.355 1373.08 105.602C1364.59 105.849 1362.84 104.737 1356.84 101.522C1351.6 98.9247 1348.6 96.4516 1340.61 97.8118C1333.86 99.0484 1329.61 103.376 1322.62 103.871C1316.87 104.242 1308.88 103.253 1302.88 103.253C1293.64 103.253 1284.39 103.376 1275.15 103.5C1257.91 103.871 1240.42 104.242 1223.43 104.737C1210.44 105.108 1199.45 106.344 1183.71 106.839V107.086C1179.46 106.962 1170.22 108.075 1162.72 108.075C1148.23 108.075 1134.74 107.333 1120.25 106.839C1102.26 106.344 1084.28 106.962 1066.54 106.344C1056.05 105.973 1040.81 106.962 1031.81 104.118C1027.81 102.882 1023.32 97.5645 1019.32 97.6882C1014.57 97.8118 1011.58 102.263 1010.08 103.747C1005.83 108.323 1005.08 108.323 995.086 108.323C987.341 108.323 979.347 108.446 971.602 108.075C940.622 106.839 909.893 107.086 879.163 106.591C870.919 106.468 858.927 107.581 851.182 106.344C845.436 105.478 846.435 105.231 845.436 102.14C844.936 98.8011 843.437 95.586 841.189 92.371C838.191 88.7849 836.942 90.2688 833.194 93.1129C828.947 96.328 825.699 100.903 820.702 103.747C816.455 106.22 810.959 105.973 804.213 106.22C797.468 106.468 790.473 106.468 783.727 106.468C781.479 106.468 775.233 106.962 773.484 106.344C771.235 105.602 773.234 105.355 771.985 104.366C769.736 102.511 772.984 102.511 767.488 101.892C764.74 101.645 760.493 102.263 757.744 102.263C751.249 102.511 744.753 102.511 738.008 102.511C730.263 102.511 725.016 102.016 718.77 104.366C712.275 106.715 706.029 106.22 698.034 106.344C665.306 106.715 632.328 108.199 599.85 107.581C582.112 107.21 564.623 106.344 546.885 106.591C532.395 106.839 503.914 108.323 503.914 108.323H502.165V108.446C501.166 108.446 499.916 108.323 498.917 108.199C488.924 107.333 478.681 107.952 468.687 108.446C457.695 108.941 446.452 109.065 435.21 109.065C430.713 109.065 426.715 108.817 421.968 108.694C417.222 108.57 412.475 109.312 407.728 108.941C398.984 108.199 393.987 105.231 387.991 102.387C385.243 106.097 384.993 107.21 376.749 106.591C369.503 106.097 362.758 106.097 355.513 105.849C352.015 105.726 347.518 105.726 344.52 104.86C342.272 104.118 341.272 102.14 339.024 101.645C336.026 100.903 326.532 103.005 322.285 103.376C306.046 104.489 289.807 106.715 273.567 106.839C270.07 106.839 266.572 107.086 264.823 105.849C262.825 104.613 262.575 101.769 261.825 100.161C261.326 99.0484 258.827 90.1452 258.328 90.1452C257.078 93.2366 256.079 96.4516 254.83 99.543C253.831 102.14 254.33 106.097 249.334 107.086C243.837 108.075 234.593 107.333 228.597 107.457C222.102 107.581 217.355 108.075 212.358 105.849C208.861 104.242 203.614 100.903 198.368 100.532C191.122 100.038 193.871 104.489 190.123 106.344C186.875 107.952 178.881 107.333 174.384 107.457C167.138 107.704 159.893 107.828 152.898 107.828C127.165 108.075 100.933 108.57 75.4497 109.683C61.2092 110.672 47.4683 109.435 33.7275 110.301C21.2358 111.167 12.2418 112.651 0 115V0H2998Z" fill="#132928"/>
</svg>