<svg width="1728" height="38" viewBox="0 0 1728 38" fill="none" xmlns="http://www.w3.org/2000/svg">
    <g opacity="0.5">
        <path opacity="0.3" fill-rule="evenodd" clip-rule="evenodd" d="M1628.71 22.4L1475.77 12.54L1322.17 14.71L945.732 14.85C945.732 14.85 798.48 27 796.68 27C794.88 27 689.232 17.43 689.232 17.43L324.252 18.01L275.184 22.65L134.064 21.78L11.94 16.75L0 16.41V23.92L109.584 32.92L438.384 21.25L656.016 35.94L854.772 27.24L1164.7 37.64L1405.9 18.12L1497.1 17.91L1614.04 27.67L1728 23.89V17L1628.71 22.4Z" fill="#32D499"/>
        <path opacity="0.3" fill-rule="evenodd" clip-rule="evenodd" d="M1628.71 9.86L1475.77 0L1322.17 2.17L945.732 2.31C945.732 2.31 795.216 17.15 793.416 17.15C791.616 17.15 689.232 4.93 689.232 4.93L324.252 5.51L275.184 10.15L134.064 9.28L11.94 4.2L0 3.87V11.38L109.584 20.38L436.2 16.58H657L854.76 14.69L1164.68 25.09L1405.88 5.57L1497.08 11.36L1614.02 15.12L1728 16.35V4.43L1628.71 9.86Z" fill="#32D499"/>
        <path fill-rule="evenodd" clip-rule="evenodd" d="M1609.79 13.8099L1411.84 3.06995L1268.26 10.4999L946.764 7.59995L793.416 17.1499L681.996 10.9099L495.432 14.4299L323.148 14.1599L268.692 17.6999L148.512 17.5799L90.96 15.2499L0 13.9999V23.9199L141.936 23.3799L307.32 24.8099L336.876 20.5399L692.988 19.9699L795.024 27.9399L921.708 19.9699L1139.87 17.6899L1381.09 19.0499L1470.42 19.3699L1511.33 20.5399L1609.16 30.0899L1728 23.8899V13.9899L1609.79 13.8099Z" fill="#32D499"/>
    </g>
</svg>
