<svg xmlns="http://www.w3.org/2000/svg" width="276" height="9" viewBox="0 0 276 9" fill="none">
    <path d="M61.7375 1.49004C70.7971 1.66023 115.296 3.24531 120.01 3.12189C132.102 2.80443 148.239 3.31973 166.241 4.1577C182.896 4.93292 197.081 5.24272 208.553 5.0344C219.656 4.83287 234.045 5.15426 249.001 5.57181C253.415 5.69512 257.787 5.81609 262.241 5.95002C270.74 6.20574 277.003 6.89808 275.296 7.41469C273.796 7.87093 269.527 8.09184 263.186 8.05047C254.512 7.99308 245.27 7.85336 235.947 7.68964C208.021 7.198 179.932 6.68048 151.884 6.16805L88.2303 5.60196C73.7106 5.42308 59.5557 5.30661 45.6041 5.21559C36.1119 5.15607 26.929 4.69757 17.3275 3.68207C12.7708 3.2007 8.05095 2.71005 4.10875 2.2192C-0.849285 1.59836 -1.27506 1.16869 3.15181 1.05393C7.04579 0.953299 11.6322 0.911496 16.7041 0.969509C28.361 1.10774 40.5047 1.32363 52.4863 1.51088C53.2224 1.5222 54.2023 1.56406 54.8166 1.55735C57.1914 1.54247 59.4442 1.51232 61.7375 1.49004Z" fill="#32D499" fill-opacity="0.5"/>
</svg>