<svg xmlns="http://www.w3.org/2000/svg" width="326" height="183" viewBox="0 0 326 183" fill="none">
    <path d="M308.263 90.3041C308.218 90.0838 316.225 89.2701 317.134 89.1294C318.503 88.9275 321.015 88.799 322.163 88.175C323.443 87.4592 323.077 86.4681 323.061 85.324C323 80.0503 320.982 74.7766 320.034 69.5458C319.784 68.1814 317.816 65.098 318.542 64.1313C319.024 63.4645 320.799 63.1525 321.436 62.3816C322.268 61.3721 322.229 59.9711 322.323 58.8087C322.506 56.4594 322.462 54.2814 322.933 51.9321C323.488 49.2708 322.434 49.2035 319.174 48.2613C321.713 46.377 324.391 44.7313 324.99 41.9047C325.312 40.3814 324.652 38.8458 324.757 37.304C324.852 35.8663 325.079 34.4469 325.079 32.9909C325.084 29.381 324.882 25.7744 324.475 22.1926C324.109 18.9807 323.504 15.8238 324.275 12.6302C324.632 11.0306 324.743 9.37601 324.602 7.73586C324.541 6.20024 325.256 4.98277 325.711 3.51445C326.687 0.278044 325.156 0.7736 321.658 1.06726C319.036 1.23851 316.408 1.25077 313.785 1.10397C311.933 1.04279 309.155 0.44323 307.376 0.736892C304.21 1.26304 303.445 5.80258 301.565 7.52173C300.567 6.29813 300.079 4.71969 298.926 3.57563C297.401 2.05837 295.483 2.21132 293.143 2.22356C287.045 2.26639 281.068 3.01278 274.991 3.12902C263.348 3.35539 251.793 3.80812 240.128 3.60622C228.762 3.41045 217.125 3.77141 205.82 2.86595C203.047 2.6457 200.131 2.53558 197.425 2.04002C195.097 1.61788 193.866 0.565589 192.935 2.49275C192.247 3.91824 192.241 5.82093 190.562 6.82428C189.453 7.4789 186.037 8.65967 184.956 7.68079C183.875 6.70192 184.612 3.27585 182.483 2.67017C181.596 2.41934 179.684 3.10455 178.708 3.18408C177.044 3.3248 175.281 3.26973 173.59 3.22691C170.363 3.14737 168.462 2.44993 167.381 4.89712C166.588 6.68968 166.089 8.70861 164.315 10.0974C163.487 8.4333 162.694 6.75698 161.936 5.06842C161.115 3.23303 161.038 3.08619 158.382 3.03725C153.237 2.94548 147.82 2.80477 142.736 3.37374C131.342 4.6524 120.398 3.59399 109.015 3.08008C104.025 2.85371 99.0352 2.54781 94.0453 2.39486C88.7061 2.22356 82.8623 1.50776 77.8225 2.79865C75.7432 3.23945 73.635 3.49316 71.5185 3.55728C70.2934 3.68976 69.0616 3.73064 67.8315 3.67964C67.0498 3.61234 65.7469 3.06784 65.0095 3.16573C63.0856 3.45327 61.6218 6.35931 59.8199 6.35931C58.201 6.35931 56.083 3.66128 54.8688 2.86595C51.4369 0.614533 44.3512 1.29363 40.0543 1.11621C34.399 0.889842 28.7271 0.749128 23.0719 0.504409C18.2538 0.302516 13.6354 0.492173 8.82842 0.388168C7.04313 0.35146 2.76843 -0.352107 1.19383 0.2291C-0.558189 0.89596 0.140401 3.41657 0.123768 4.97665C0.0794127 8.84933 0.999777 12.7159 1.15502 16.6008C1.33798 21.0914 0.744736 25.6065 0.500784 30.0971C0.0627796 38.3318 1.10512 46.7257 1.34907 54.9911C1.4156 57.0467 1.10512 58.6191 2.72962 60.2587C4.26541 61.8126 3.96601 63.2075 4.00482 65.1531C4.03809 66.8049 4.03254 68.469 4.15452 70.1208C4.20442 70.8305 4.63133 71.9562 4.42619 72.6231C4.00482 73.9874 4.05472 73.186 2.72407 73.7427C2.02548 74.0364 1.90905 73.5347 1.37125 74.1098C0.9277 74.5808 1.29917 76.1654 1.30472 76.7099C1.2727 78.4379 1.33751 80.1665 1.49877 81.8857C1.69837 83.5559 1.53204 84.9875 3.26188 86.0459C5.25785 87.2695 8.39596 88.126 10.647 89.1783C12.6263 90.1021 13.652 90.4019 11.1404 91.1973C8.91878 91.776 6.65538 92.1384 4.37629 92.2802C2.15855 92.5126 2.01994 92.2802 1.42669 93.7179C0.600583 95.7062 1.31026 98.6979 1.22155 100.796C0.88889 108.603 1.06631 116.403 0.212477 124.198C0.0630528 126.179 0.0186223 128.169 0.0794127 130.157C0.0794127 132.695 0.107134 132.891 3.22861 133.968C4.33748 134.353 7.39243 135.137 7.49223 136.336C7.57539 137.351 3.8773 138.52 3.05674 139.505C1.10512 141.799 1.79262 145.611 1.53758 148.29C1.10512 152.811 1.53758 157.363 1.16056 161.903C0.855623 165.574 0.351086 169.244 0.334453 172.915C0.334453 174.94 0.157034 176.959 0.068324 178.978C-0.0259302 181.315 0.877801 180.972 3.78859 180.942C9.24979 180.887 14.5835 179.969 20.0336 179.718C25.9771 179.453 31.9262 179.239 37.8809 179.076C41.0781 178.986 44.2735 178.943 47.4671 178.947C49.5573 178.947 52.2519 179.467 54.2534 179.284C56.6707 179.064 58.1677 176.745 60.4908 176.115C63.263 175.362 64.272 176.665 66.0684 178.066C68.2085 179.737 68.7519 180.342 71.7237 180.208C74.6954 180.073 77.6561 180.495 80.5947 180.648C86.7433 180.96 92.9364 180.764 99.1017 180.764C111.893 180.764 124.606 181.492 137.386 181.437C143.495 181.413 149.604 181.413 155.71 181.437C156.697 181.437 159.036 181.743 159.918 181.437C161.492 180.899 161.321 180.251 161.631 178.99C161.892 177.92 162.119 173.869 163.544 173.356C165.412 174.286 165.135 177.32 166.593 178.544C168.051 179.767 168.811 179.431 171.095 178.85C173.707 178.183 173.718 177.253 176.257 178.372C177.437 178.962 178.655 179.457 179.9 179.853C181.297 180.238 183.415 179.969 184.618 180.465C186.947 181.45 185.893 182.141 188.859 182.141C191.687 182.141 194.448 182.796 197.281 182.93C203.175 183.206 208.924 182.594 214.796 182.355C219.841 182.147 224.898 181.994 229.927 181.584C235.532 181.125 241.043 181.45 246.637 181.236C249.47 181.125 250.585 180.624 252.736 179.4C254.682 178.329 256.8 178.024 259.156 177.803C261.986 177.513 264.836 177.537 267.661 177.877C269.031 178.042 270.395 178.281 271.792 178.299C272.862 178.299 274.725 177.803 275.64 178.299C277.359 179.186 276.538 180.819 278.8 181.358C281.179 181.927 284.272 181.162 286.701 181.168C292.678 181.168 298.277 183.114 304.354 182.826C309.56 182.581 314.484 182.294 319.706 182.655C321.924 182.808 324.009 183.511 324.696 181.749C325.467 179.847 324.059 176.776 323.959 174.775C323.748 170.719 325.151 166.822 325.672 162.82C326.227 158.397 325.827 153.925 325.334 149.502C324.43 141.218 323.887 132.861 323.721 124.479C323.665 122.142 323.587 119.823 323.432 117.492C323.338 116.067 323.937 113.454 322.479 112.39C320.815 111.166 316.89 112.017 317.356 109.704C317.694 108.022 320.605 106.315 322.052 105.171C324.081 103.562 323.643 102.051 323.493 99.946C323.36 98.0616 324.048 95.0516 323.205 93.2835C322.423 91.6439 318.808 91.8091 316.579 91.4971C313.796 91.0892 311.005 90.7038 308.207 90.3408C308.263 90.2612 309.76 90.5059 308.263 90.3041Z" fill="#222631"/>
</svg>