<svg width="341" height="105" viewBox="0 0 341 105" fill="none" xmlns="http://www.w3.org/2000/svg">
<path d="M95.5654 99.343L44.1736 86.5402C45.6938 84.8443 48.3909 83.5654 47.214 82.6896C46.0371 81.8138 41.4766 80.9242 37.9458 80.2152C34.4151 79.5063 29.4132 78.8251 25.196 78.005C2.58951 73.9737 -5.74693 67.3568 5.58083 60.5592C7.62782 59.3912 8.47422 58.0834 8.0233 56.7855C7.57237 55.4876 5.8423 54.2518 3.03086 53.2194C-2.55946 50.5643 0.0395443 48.6599 7.101 47.1308C21.8124 43.8779 19.3605 39.791 12.0048 36.1212C8.85483 34.7401 7.35029 33.1091 7.71217 31.4678C8.07406 29.8264 10.2833 28.2612 14.0153 27.0021C37.6516 17.4799 69.281 7.91599 108.953 8.93076C122.634 9.34779 139.258 7.13753 144.996 4.17661C162.796 -4.97026 168.387 3.05063 193.641 7.92989C212.079 11.4885 229.488 15.3252 252.487 16.1593C256.212 16.4027 259.615 16.9428 262.294 17.7162C285.293 23.638 307.752 29.7962 323.69 37.5391C333.497 42.2932 343.305 47.0613 335.017 52.9831C333.889 53.7894 336.489 55.0266 337.224 56.0691C338.548 57.8346 339.774 59.6 341 61.2959C339.092 61.6548 337.033 61.9443 334.87 62.1578C329.035 62.3663 339.088 64.7712 338.45 67.0926C337.911 68.9832 335.9 67.0926 337.911 68.9832C338.597 69.6087 330.947 70.7625 330.408 71.5271C324.768 79.548 338.597 80.9798 311.332 83.8851C299.269 85.1779 298.288 94.7279 283.528 93.8104C279.788 93.727 276.031 93.8879 272.545 94.2807C269.06 94.6735 265.939 95.2878 263.422 96.0763C261.529 96.9145 258.752 97.5619 255.485 97.9263C252.218 98.2907 248.629 98.3536 245.229 98.1058C232.038 97.1884 222.917 98.9121 214.237 101.345C195.701 106.544 169.564 106.168 154.019 100.399C146.369 97.6193 137.444 96.4933 125.086 97.4664C114.396 98.2865 103.657 98.8287 95.5654 99.343Z" fill="#1A533E"/>
</svg>
