<svg width="512" height="512" viewBox="229 229 512 512" fill="none" xmlns="http://www.w3.org/2000/svg">
<rect x="229" y="229" width="512" height="512" rx="103" fill="white"/>
<rect x="229" y="229" width="512" height="512" rx="103" fill="url(#paint0_radial_1395_2)"/>
<g opacity="0.2" filter="url(#filter0_f_1395_2)">
<circle cx="484.5" cy="484.5" r="228.5" fill="url(#paint1_radial_1395_2)" fill-opacity="0.7"/>
</g>
<path d="M469.036 519.348C476.14 527.212 479.396 535.966 479.396 546.945V553.325L472.218 556.738C465.114 560.076 438.917 571.352 438.325 571.352C438.177 571.352 439.805 567.569 442.026 562.969C444.172 558.444 447.502 550.135 449.426 544.645C452.904 534.408 457.936 515.861 457.936 513.042C457.936 512.226 458.158 511.262 458.38 511.039C459.12 510.297 465.188 514.971 469.036 519.348Z" fill="url(#paint2_radial_1395_2)"/>
<path d="M441.656 509.704C441.656 513.71 441.138 519.942 440.545 523.577C439.213 530.995 435.217 543.533 432.479 548.874L430.629 552.435L430.555 527.36V502.359H436.105H441.656V509.704Z" fill="url(#paint3_radial_1395_2)"/>
<path d="M363.584 494.941C375.72 495.683 385.192 496.202 401.917 496.944L412.795 497.389V529.511V561.56L410.427 560.966C409.095 560.595 406.579 560.002 404.951 559.557C399.549 558.147 388.892 557.776 381.27 558.741C375.276 559.483 363.954 562.302 358.626 564.305C357.59 564.676 357.738 564.082 359.218 560.224C363.954 548.503 362.474 531.96 355.444 517.938C352.04 511.188 347.081 504.808 340.421 498.576L334.723 493.309L343.603 493.754C348.487 494.051 357.516 494.57 363.584 494.941Z" fill="url(#paint4_radial_1395_2)"/>
<path d="M367.654 397.387C374.388 397.98 381.048 398.648 382.454 398.87C384.97 399.167 390.224 399.612 400.215 400.354C423.081 402.06 481.986 407.105 485.39 407.624C486.945 407.847 487.241 408.44 487.685 411.556C487.907 413.559 488.499 417.491 488.943 420.384C489.387 423.203 489.757 431.438 489.757 438.708C489.757 459.183 487.019 472.166 479.766 485.816C477.916 489.303 476.436 492.27 476.436 492.344C476.436 492.493 477.99 492.122 479.914 491.528C481.764 490.935 484.576 490.49 486.204 490.49H489.017V499.466C489.017 509.63 489.461 509.259 483.466 503.769C455.272 478.62 391.926 466.602 346.415 477.804C343.455 478.546 341.013 478.991 341.013 478.843C341.013 478.631 342.347 476.682 344.002 474.263L344.269 473.872C348.783 467.641 353.964 456.513 355.888 449.317C357.812 441.972 358.552 429.064 357.368 422.758C355.962 415.34 353.076 407.402 349.523 401.17L346.267 395.384L350.856 395.829C353.372 396.051 360.92 396.793 367.654 397.387Z" fill="url(#paint5_radial_1395_2)"/>
<path d="M403.175 310.96C423.007 313.037 452.09 316.747 452.682 317.34C452.904 317.563 453.052 322.682 453.052 328.616C452.978 337.222 452.608 340.783 451.35 345.457C449.426 352.801 443.58 364.745 439.139 370.606C437.289 373.054 435.883 375.131 436.031 375.279C436.179 375.428 439.879 375.057 444.32 374.389C448.76 373.796 456.53 372.979 461.636 372.534L470.886 371.793L474.438 375.576C477.768 379.137 483.096 388.336 483.096 390.562C483.096 391.155 480.21 390.116 475.178 387.594C452.238 376.318 421.379 374.018 391.704 381.437C386.82 382.624 382.602 383.662 382.306 383.662C382.084 383.662 383.268 381.214 385.118 378.247C395.996 360.071 397.329 338.186 388.744 320.233C387.412 317.34 384.97 313.557 383.49 311.776L380.678 308.512L384.304 308.957C386.376 309.254 394.812 310.144 403.175 310.96Z" fill="url(#paint6_radial_1395_2)"/>
<path d="M480.136 284.624C489.313 285.663 500.487 286.998 504.927 287.592C509.441 288.185 518.765 289.446 525.647 290.337L538.228 291.969L543.482 297.236C553.028 306.88 559.096 317.414 562.352 329.878C564.572 338.409 564.794 354.433 562.722 362.148C561.316 367.416 557.172 376.986 556.358 376.986C556.062 376.986 554.212 375.724 552.288 374.092C542.298 365.783 521.503 358.068 504.557 356.362C497.009 355.62 474.956 355.694 469.036 356.51C464.374 357.104 464.3 357.104 465.41 355.768C468.148 352.578 471.774 342.712 473.55 333.439C474.66 327.578 474.068 314.373 472.44 308.364C470.59 301.835 466.15 292.711 462.228 287.369C460.23 284.773 458.676 282.547 458.676 282.324C458.676 282.102 459.786 282.176 461.118 282.399C462.279 282.604 469.68 283.441 478.027 284.386L480.136 284.624Z" fill="url(#paint7_radial_1395_2)"/>
<path d="M441.656 286.034V302.726L436.327 302.577L430.925 302.429L430.851 297.236C430.777 292.191 430.703 292.043 427.965 289.817C425.301 287.666 425.079 287.592 417.975 287.814C412.055 287.963 409.835 287.666 406.579 286.479C401.695 284.624 396.441 279.209 394.812 274.238L393.628 270.9L396.07 272.754C401.325 276.761 408.133 277.799 415.755 275.722C420.935 274.312 423.673 274.312 427.521 275.722L430.555 276.761V273.125V269.416H436.105H441.656V286.034Z" fill="url(#paint8_radial_1395_2)"/>
<path d="M514.917 257.398V275.796L510.699 275.277C508.331 274.98 505.815 274.683 505.149 274.683C504.039 274.609 503.817 273.867 503.817 269.194V263.778L499.895 262.517C497.231 261.627 493.753 261.33 488.647 261.404C481.986 261.478 480.876 261.33 477.472 259.549C473.18 257.398 469.036 252.947 466.372 247.754C464.078 243.229 464.152 242.709 466.668 245.157C469.554 247.902 475.622 250.128 480.21 250.128C482.282 250.128 486.278 249.386 489.165 248.57C494.197 247.012 499.303 246.938 502.559 248.273C503.669 248.718 503.817 248.273 503.817 243.896V239H509.367H514.917V257.398Z" fill="url(#paint9_radial_1395_2)"/>
<path d="M515.065 385.146C535.046 389.3 555.692 396.645 575.968 406.882C597.651 417.788 622.515 437.744 638.204 456.884C641.682 461.112 644.494 464.747 644.346 464.821C644.198 464.97 640.942 467.121 637.094 469.569L630.138 474.095L627.844 471.869C624.514 468.605 613.709 462.077 605.421 458.293C593.285 452.878 581.889 449.836 565.904 447.833C560.872 447.239 556.654 446.72 556.58 446.72C556.432 446.72 556.358 445.978 556.358 445.014C556.358 442.714 553.842 436.334 550.216 429.286C542.52 414.375 529.051 400.354 510.181 387.446C506.481 384.923 503.743 382.92 504.039 382.92C504.261 382.92 509.219 383.885 515.065 385.146Z" fill="url(#paint10_radial_1395_2)"/>
<path d="M518.543 415.414C530.087 430.696 537.488 446.572 539.856 460.815L541.04 468.234H554.138C561.39 468.234 568.346 468.457 569.604 468.679L571.972 469.198L571.528 473.353C570.936 478.323 568.716 485.519 566.718 488.783L565.312 491.232L562.5 488.561C551.622 478.472 533.936 473.798 512.475 475.356C507.221 475.727 502.781 475.875 502.633 475.727C502.485 475.578 502.633 475.059 503.003 474.614C504.557 472.537 507.443 463.412 508.627 456.735C511.143 442.566 508.997 415.785 504.187 402.283C503.595 400.502 503.077 398.87 503.077 398.648C503.077 397.387 513.511 408.737 518.543 415.414Z" fill="url(#paint11_radial_1395_2)"/>
<path d="M512.549 488.264H515.657V502.582V516.9L510.699 518.977C507.887 520.164 505.223 521.203 504.779 521.425C504.039 521.722 503.817 518.087 503.817 504.585V487.3L506.629 487.819C508.109 488.042 510.773 488.264 512.549 488.264Z" fill="url(#paint12_radial_1395_2)"/>
<path d="M680.459 460.222C682.383 462.002 682.753 465.712 681.273 467.715C680.311 468.976 647.38 490.712 613.339 512.671C593.729 525.357 595.357 523.502 594.469 533.147C593.655 541.604 593.285 544.349 591.805 552.435C588.327 571.649 583.295 587.451 575.154 604.513L570.492 614.38H563.018H555.47L557.542 610.819C566.57 595.611 573.822 574.691 578.485 550.58C579.891 543.607 582.999 523.428 582.999 521.574C582.999 521.203 580.557 520.906 577.522 520.906C563.906 520.906 540.522 527.063 516.249 536.93C509.885 539.527 504.483 541.678 504.187 541.678C503.965 541.678 503.891 538.488 503.965 534.556L504.187 527.508L510.107 524.912C525.573 518.087 549.18 510.149 561.168 507.701C569.086 506.069 575.08 505.92 582.111 507.107C585.885 507.775 590.177 508.814 591.583 509.407L594.099 510.446L601.869 505.475C632.802 485.668 646.64 476.765 659.22 468.308C674.909 457.774 677.055 457.032 680.459 460.222Z" fill="url(#paint13_radial_1395_2)"/>
<path d="M544.074 498.65C546.886 500.505 549.328 502.359 549.476 502.73C549.55 503.176 546.146 504.733 541.706 506.366C537.34 507.923 533.344 509.407 532.9 509.555C532.16 509.852 531.938 507.849 531.938 500.95V491.973L535.49 493.606C537.414 494.496 541.262 496.796 544.074 498.65Z" fill="url(#paint14_radial_1395_2)"/>
<path d="M536.452 546.797C535.638 547.91 531.863 551.99 528.089 555.773C506.999 576.916 482.948 591.086 449.722 601.991C437.511 605.997 421.083 609.41 407.171 610.745C389.41 612.525 361.438 610.003 346.341 605.329C344.269 604.736 343.455 603.623 340.125 597.095C336.573 589.973 321.033 556.515 321.033 555.996C321.033 555.847 324.289 555.773 328.285 555.773H335.611L341.235 567.42C344.269 573.875 348.339 582.332 350.116 586.264L353.372 593.385L358.848 594.276C367.58 595.685 388.004 596.724 397.255 596.204C415.015 595.166 430.999 591.976 447.946 586.189C460.23 581.961 469.48 577.806 490.127 567.42C508.923 557.999 536.304 544.794 537.34 544.72C537.71 544.645 537.266 545.61 536.452 546.797Z" fill="url(#paint15_radial_1395_2)"/>
<path d="M550.734 571.426C546.442 579.216 537.636 585.151 524.611 588.786C517.063 590.863 514.991 590.863 520.541 588.712C527.793 585.967 545.48 574.171 550.364 568.83C552.954 566.011 553.102 566.975 550.734 571.426Z" fill="url(#paint16_radial_1395_2)"/>
<path d="M342.345 621.057C345.749 621.873 352.484 624.173 357.368 626.25C367.432 630.404 374.906 632.185 382.232 632.185C388.966 632.185 394.59 630.775 405.173 626.398C419.751 620.389 421.453 619.944 433.145 619.944C444.838 619.944 448.834 620.834 460.6 626.25C477.62 634.113 487.315 634.113 506.407 626.101C520.393 620.241 521.651 619.944 535.268 619.944L535.286 619.944C546.96 620.018 547.186 620.02 554.508 622.689C558.578 624.098 564.72 626.546 568.198 627.956C575.228 630.923 581.519 632.185 589.289 632.185C596.097 632.185 601.573 630.775 612.895 626.25C627.992 620.241 632.58 619.276 645.53 619.276C658.998 619.202 663.734 620.241 679.941 626.324C689.783 629.959 699.551 632.926 704.657 633.817C705.693 633.965 704.509 635.597 699.329 641.087L692.669 648.134L684.677 645.39C680.237 643.906 672.615 641.309 667.73 639.603C659.294 636.71 658.258 636.487 648.12 636.116C634.8 635.597 629.176 636.636 615.855 641.903C603.349 646.873 595.875 648.505 586.329 648.134C577.226 647.838 571.676 646.577 561.168 642.274C548.588 637.229 544.74 636.339 534.158 636.339C523.649 636.265 520.837 636.932 508.849 642.274C492.199 649.692 477.324 650.138 461.636 643.609C438.621 633.965 429.667 633.594 410.427 641.384C399.031 646.057 393.924 647.467 386.08 648.134C378.31 648.802 369.726 647.393 359.514 643.906C340.939 637.452 338.127 636.71 330.061 635.82C323.771 635.152 319.923 635.152 313.485 635.82C303.716 636.784 301.274 637.452 287.066 642.645L276.484 646.577L270.564 640.419C267.308 637.081 264.792 634.188 265.014 633.965C265.162 633.742 268.788 632.704 273.006 631.517C277.224 630.33 283.07 628.475 285.882 627.362C297.204 622.986 303.864 620.834 308.823 619.87C316.371 618.534 334.501 619.128 342.345 621.057Z" fill="url(#paint17_radial_1395_2)"/>
<path d="M446.762 653.328C449.648 653.921 455.716 655.924 460.156 657.779C471.922 662.675 476.584 663.565 486.796 663.12C495.825 662.675 498.193 662.081 512.031 656.74C522.243 652.808 528.607 651.844 536.674 652.882C540.078 653.328 544.592 654.366 546.812 655.034L550.66 656.369L548.144 657.927C544.37 660.227 521.207 671.132 515.361 673.283C506.555 676.622 496.935 678.18 485.538 678.18C479.84 678.18 473.254 677.809 470.812 677.364C459.86 675.435 447.354 670.687 429.445 661.636L419.085 656.443L421.675 655.331C429.001 652.289 438.399 651.547 446.762 653.328Z" fill="url(#paint18_radial_1395_2)"/>
<path d="M349.523 654.144C358.256 655.405 383.194 661.488 397.625 665.939C424.783 674.174 459.046 689.308 481.468 702.884L488.351 707.038L492.569 704.219C502.485 697.616 529.347 684.115 548.218 676.177C563.018 670.019 578.114 664.975 597.059 660.004C619.185 654.144 628.658 652.734 644.79 652.66C658.332 652.66 663.882 653.253 675.871 656.072L682.531 657.63L675.575 664.233C670.913 668.684 668.248 670.687 667.434 670.39C664.844 669.352 649.526 668.387 642.94 668.832C636.058 669.277 620.295 671.503 614.449 672.913C581.889 680.776 562.278 687.824 535.268 701.548C520.615 708.967 506.703 717.424 495.381 725.659L488.055 731L484.65 728.552C455.346 707.78 430.555 695.094 396.145 683.521C375.35 676.473 358.034 672.393 337.313 669.5C331.319 668.684 309.415 668.907 305.123 669.871L301.422 670.687L294.614 663.862C288.176 657.482 287.88 657.037 289.434 656.443C291.062 655.85 304.086 653.327 309.193 652.66C314.299 651.992 341.531 653.031 349.523 654.144Z" fill="url(#paint19_radial_1395_2)"/>
<defs>
<filter id="filter0_f_1395_2" x="0.399994" y="0.399994" width="968.2" height="968.2" filterUnits="userSpaceOnUse" color-interpolation-filters="sRGB">
<feFlood flood-opacity="0" result="BackgroundImageFix"/>
<feBlend mode="normal" in="SourceGraphic" in2="BackgroundImageFix" result="shape"/>
<feGaussianBlur stdDeviation="127.8" result="effect1_foregroundBlur_1395_2"/>
</filter>
<radialGradient id="paint0_radial_1395_2" cx="0" cy="0" r="1" gradientUnits="userSpaceOnUse" gradientTransform="translate(485 485) rotate(90) scale(502.518 1051.87)">
<stop stop-color="#171A21"/>
<stop offset="1" stop-color="#0A0C10"/>
</radialGradient>
<radialGradient id="paint1_radial_1395_2" cx="0" cy="0" r="1" gradientUnits="userSpaceOnUse" gradientTransform="translate(484.5 484.5) rotate(89.9631) scale(254.783 257.689)">
<stop stop-color="white"/>
<stop offset="0.73" stop-color="#58957F"/>
<stop offset="1" stop-color="#1A6E4F"/>
<stop offset="1" stop-color="#1A6E4F"/>
</radialGradient>
<radialGradient id="paint2_radial_1395_2" cx="0" cy="0" r="1" gradientUnits="userSpaceOnUse" gradientTransform="translate(464.767 561.425) rotate(89.6386) scale(301.131 181.998)">
<stop stop-color="#45FFBB"/>
<stop offset="1" stop-color="#13553D"/>
</radialGradient>
<radialGradient id="paint3_radial_1395_2" cx="0" cy="0" r="1" gradientUnits="userSpaceOnUse" gradientTransform="translate(464.767 561.425) rotate(89.6386) scale(301.131 181.998)">
<stop stop-color="#45FFBB"/>
<stop offset="1" stop-color="#13553D"/>
</radialGradient>
<radialGradient id="paint4_radial_1395_2" cx="0" cy="0" r="1" gradientUnits="userSpaceOnUse" gradientTransform="translate(464.767 561.425) rotate(89.6386) scale(301.131 181.998)">
<stop stop-color="#45FFBB"/>
<stop offset="1" stop-color="#13553D"/>
</radialGradient>
<radialGradient id="paint5_radial_1395_2" cx="0" cy="0" r="1" gradientUnits="userSpaceOnUse" gradientTransform="translate(464.767 561.425) rotate(89.6386) scale(301.131 181.998)">
<stop stop-color="#45FFBB"/>
<stop offset="1" stop-color="#13553D"/>
</radialGradient>
<radialGradient id="paint6_radial_1395_2" cx="0" cy="0" r="1" gradientUnits="userSpaceOnUse" gradientTransform="translate(464.767 561.425) rotate(89.6386) scale(301.131 181.998)">
<stop stop-color="#45FFBB"/>
<stop offset="1" stop-color="#13553D"/>
</radialGradient>
<radialGradient id="paint7_radial_1395_2" cx="0" cy="0" r="1" gradientUnits="userSpaceOnUse" gradientTransform="translate(464.767 561.425) rotate(89.6386) scale(301.131 181.998)">
<stop stop-color="#45FFBB"/>
<stop offset="1" stop-color="#13553D"/>
</radialGradient>
<radialGradient id="paint8_radial_1395_2" cx="0" cy="0" r="1" gradientUnits="userSpaceOnUse" gradientTransform="translate(464.767 561.425) rotate(89.6386) scale(301.131 181.998)">
<stop stop-color="#45FFBB"/>
<stop offset="1" stop-color="#13553D"/>
</radialGradient>
<radialGradient id="paint9_radial_1395_2" cx="0" cy="0" r="1" gradientUnits="userSpaceOnUse" gradientTransform="translate(464.767 561.425) rotate(89.6386) scale(301.131 181.998)">
<stop stop-color="#45FFBB"/>
<stop offset="1" stop-color="#13553D"/>
</radialGradient>
<radialGradient id="paint10_radial_1395_2" cx="0" cy="0" r="1" gradientUnits="userSpaceOnUse" gradientTransform="translate(464.767 561.425) rotate(89.6386) scale(301.131 181.998)">
<stop stop-color="#45FFBB"/>
<stop offset="1" stop-color="#13553D"/>
</radialGradient>
<radialGradient id="paint11_radial_1395_2" cx="0" cy="0" r="1" gradientUnits="userSpaceOnUse" gradientTransform="translate(464.767 561.425) rotate(89.6386) scale(301.131 181.998)">
<stop stop-color="#45FFBB"/>
<stop offset="1" stop-color="#13553D"/>
</radialGradient>
<radialGradient id="paint12_radial_1395_2" cx="0" cy="0" r="1" gradientUnits="userSpaceOnUse" gradientTransform="translate(464.767 561.425) rotate(89.6386) scale(301.131 181.998)">
<stop stop-color="#45FFBB"/>
<stop offset="1" stop-color="#13553D"/>
</radialGradient>
<radialGradient id="paint13_radial_1395_2" cx="0" cy="0" r="1" gradientUnits="userSpaceOnUse" gradientTransform="translate(464.767 561.425) rotate(89.6386) scale(301.131 181.998)">
<stop stop-color="#45FFBB"/>
<stop offset="1" stop-color="#13553D"/>
</radialGradient>
<radialGradient id="paint14_radial_1395_2" cx="0" cy="0" r="1" gradientUnits="userSpaceOnUse" gradientTransform="translate(464.767 561.425) rotate(89.6386) scale(301.131 181.998)">
<stop stop-color="#45FFBB"/>
<stop offset="1" stop-color="#13553D"/>
</radialGradient>
<radialGradient id="paint15_radial_1395_2" cx="0" cy="0" r="1" gradientUnits="userSpaceOnUse" gradientTransform="translate(464.767 561.425) rotate(89.6386) scale(301.131 181.998)">
<stop stop-color="#45FFBB"/>
<stop offset="1" stop-color="#13553D"/>
</radialGradient>
<radialGradient id="paint16_radial_1395_2" cx="0" cy="0" r="1" gradientUnits="userSpaceOnUse" gradientTransform="translate(464.767 561.425) rotate(89.6386) scale(301.131 181.998)">
<stop stop-color="#45FFBB"/>
<stop offset="1" stop-color="#13553D"/>
</radialGradient>
<radialGradient id="paint17_radial_1395_2" cx="0" cy="0" r="1" gradientUnits="userSpaceOnUse" gradientTransform="translate(464.767 561.425) rotate(89.6386) scale(301.131 181.998)">
<stop stop-color="#45FFBB"/>
<stop offset="1" stop-color="#13553D"/>
</radialGradient>
<radialGradient id="paint18_radial_1395_2" cx="0" cy="0" r="1" gradientUnits="userSpaceOnUse" gradientTransform="translate(464.767 561.425) rotate(89.6386) scale(301.131 181.998)">
<stop stop-color="#45FFBB"/>
<stop offset="1" stop-color="#13553D"/>
</radialGradient>
<radialGradient id="paint19_radial_1395_2" cx="0" cy="0" r="1" gradientUnits="userSpaceOnUse" gradientTransform="translate(464.767 561.425) rotate(89.6386) scale(301.131 181.998)">
<stop stop-color="#45FFBB"/>
<stop offset="1" stop-color="#13553D"/>
</radialGradient>
</defs>
</svg>
