<svg width="24" height="24" viewBox="0 0 24 24" fill="none" xmlns="http://www.w3.org/2000/svg">
<g clip-path="url(#clip0_1518_9261)">
<path d="M12 24C18.6274 24 24 18.6274 24 12C24 5.37258 18.6274 0 12 0C5.37258 0 0 5.37258 0 12C0 18.6274 5.37258 24 12 24Z" fill="#F0F0F0"/>
<path d="M20.3982 3.42862C18.2338 1.308 15.2705 0 12.0011 0C10.9576 0 7.9045 1.308 5.74023 3.42862H20.3982Z" fill="#6DA544"/>
<path d="M12.0002 10.286H23.8778C23.7046 9.07545 23.3511 7.92327 22.8448 6.85742H11.4785L12.0002 10.286Z" fill="#6DA544"/>
<path d="M1.15612 17.1425H22.8451C23.3514 16.0767 23.705 14.9244 23.8782 13.7139H0.123047C0.29625 14.9245 0.649734 16.0767 1.15612 17.1425Z" fill="#6DA544"/>
<path d="M3.60352 20.5713C5.76787 22.6919 8.73122 23.9999 12.0006 23.9999C15.27 23.9999 18.2333 22.6919 20.3977 20.5713H3.60352Z" fill="#6DA544"/>
<path d="M12.0006 0C5.95533 0 0.954984 4.47052 0.123047 10.2857H12.0006V0Z" fill="#D80027"/>
<path d="M6.00023 9.20026L5.47852 8.15682V6.06985L6.78286 5.02637L8.0872 6.06985V7.63506L8.60892 7.11334V8.15682L7.56544 9.20026H6.00023Z" fill="#F0F0F0"/>
<path d="M3.19452 6L3.33266 6.42516H3.77966L3.41802 6.68798L3.5562 7.11309L3.19452 6.85031L2.83283 7.11309L2.97102 6.68798L2.60938 6.42516H3.05638L3.19452 6Z" fill="#F0F0F0"/>
<path d="M4.23748 4.95703L4.37563 5.38219H4.82267L4.46098 5.64502L4.59912 6.07013L4.23748 5.80739L3.87584 6.07013L4.01403 5.64502L3.65234 5.38219H4.0993L4.23748 4.95703Z" fill="#F0F0F0"/>
<path d="M5.28241 3.91309L5.42055 4.33824H5.8675L5.50591 4.60107L5.644 5.02618L5.28241 4.76345L4.92072 5.02618L5.05886 4.60107L4.69727 4.33824H5.14422L5.28241 3.91309Z" fill="#F0F0F0"/>
<path d="M10.3722 6L10.2341 6.42516H9.78711L10.1487 6.68798L10.0106 7.11309L10.3722 6.85031L10.7339 7.11309L10.5957 6.68798L10.9573 6.42516H10.5104L10.3722 6Z" fill="#F0F0F0"/>
<path d="M9.32923 4.95703L9.19109 5.38219H8.74414L9.10573 5.64502L8.96759 6.07013L9.32923 5.80739L9.69092 6.07013L9.55273 5.64502L9.91437 5.38219H9.46742L9.32923 4.95703Z" fill="#F0F0F0"/>
<path d="M8.28436 3.91309L8.14617 4.33824H7.69922L8.06081 4.60107L7.92267 5.02618L8.28436 4.76345L8.646 5.02618L8.50786 4.60107L8.86945 4.33824H8.4225L8.28436 3.91309Z" fill="#F0F0F0"/>
<path d="M6.78241 3.3916L6.64422 3.81676H6.19727L6.55886 4.07954L6.42072 4.50465L6.78241 4.24191L7.14405 4.50465L7.00591 4.07954L7.3675 3.81676H6.92055L6.78241 3.3916Z" fill="#F0F0F0"/>
</g>
<defs>
<clipPath id="clip0_1518_9261">
<rect width="24" height="24" fill="white"/>
</clipPath>
</defs>
</svg>
