<svg width="24" height="24" viewBox="0 0 24 24" fill="none" xmlns="http://www.w3.org/2000/svg">
<g clip-path="url(#clip0_1518_9293)">
<path d="M12 24C18.6274 24 24 18.6274 24 12C24 5.37258 18.6274 0 12 0C5.37258 0 0 5.37258 0 12C0 18.6274 5.37258 24 12 24Z" fill="#D80027"/>
<path d="M18.782 8.90651H14.4355C14.7038 8.62554 14.8689 8.24515 14.8689 7.82595C14.8689 6.96152 14.1681 6.26074 13.3037 6.26074C12.7591 6.26074 12.2797 6.53899 11.9994 6.96091C11.719 6.53899 11.2396 6.26074 10.695 6.26074C9.83061 6.26074 9.12983 6.96152 9.12983 7.82595C9.12983 8.24515 9.29497 8.62559 9.56328 8.90651H5.2168C5.2168 10.0591 6.22072 10.9934 7.37323 10.9934H7.30367C7.30367 12.1461 8.23803 13.0804 9.39069 13.0804C9.39069 13.4538 9.48908 13.8037 9.66083 14.1067L7.92973 15.8379L9.25789 17.1659L11.1419 15.282C11.2157 15.309 11.292 15.3307 11.3709 15.3455L10.2324 17.9159L11.9994 19.8259L13.7663 17.9158L12.6279 15.3454C12.7068 15.3306 12.7831 15.309 12.8569 15.2819L14.7409 17.1658L16.069 15.8377L14.3379 14.1066C14.5097 13.8036 14.6081 13.4536 14.6081 13.0803C15.7607 13.0803 16.695 12.146 16.695 10.9933H16.6255C17.778 10.9934 18.782 10.0591 18.782 8.90651Z" fill="black"/>
</g>
<defs>
<clipPath id="clip0_1518_9293">
<rect width="24" height="24" fill="white"/>
</clipPath>
</defs>
</svg>
