<svg width="24" height="24" viewBox="0 0 24 24" fill="none" xmlns="http://www.w3.org/2000/svg">
<g clip-path="url(#clip0_1518_9296)">
<path d="M12.0008 0C18.6281 0 24.0007 5.37262 24.0007 12C24.0007 18.6274 18.6281 24 12.0008 24C12.0008 23.4783 10.4355 12 10.4355 12L12.0008 0Z" fill="#F0F0F0"/>
<path d="M12 24C5.37262 24 0 18.6274 0 12C0 5.37262 5.37262 0 12 0" fill="#496E2D"/>
<path d="M14.5791 9.69824L13.5945 11.055L12 10.5379L12.9862 11.8935L12.0017 13.2503L13.5956 12.7314L14.5818 14.087L14.5807 12.4107L16.1747 11.8917L14.5802 11.3746L14.5791 9.69824Z" fill="#D80027"/>
<path d="M12.9958 15.3914C11.1229 15.3914 9.6045 13.873 9.6045 12.0001C9.6045 10.1272 11.1229 8.6088 12.9958 8.6088C13.5798 8.6088 14.1293 8.75645 14.609 9.01642C13.8564 8.28044 12.8272 7.82617 11.6915 7.82617C9.38625 7.82617 7.51758 9.69489 7.51758 12.0001C7.51758 14.3052 9.3863 16.174 11.6915 16.174C12.8273 16.174 13.8564 15.7197 14.609 14.9837C14.1293 15.2438 13.5798 15.3914 12.9958 15.3914Z" fill="#D80027"/>
</g>
<defs>
<clipPath id="clip0_1518_9296">
<rect width="24" height="24" fill="white"/>
</clipPath>
</defs>
</svg>
