<svg width="24" height="24" viewBox="0 0 24 24" fill="none" xmlns="http://www.w3.org/2000/svg">
<g clip-path="url(#clip0_1518_9325)">
<path d="M24 12C24 18.6274 18.6274 24 12 24C5.37262 24 0 18.6274 0 12C0 12.0029 12 0.0013125 12 0C18.6274 0 24 5.37262 24 12Z" fill="#0052B4"/>
<path d="M11.9688 11.9999H12.0009C12.0009 11.9891 12.0009 11.9786 12.0009 11.9678C11.9902 11.9785 11.9795 11.9892 11.9688 11.9999Z" fill="#F0F0F0"/>
<path d="M12 6.26086C12 4.14937 12 2.76586 12 0H11.998C5.37145 0.001125 0 5.37323 0 12H6.26086V8.47448L9.78638 12H11.9679C11.9786 11.9893 11.9893 11.9786 12 11.9679C12 11.1594 12 10.4381 12 9.78647L8.47444 6.26086H12Z" fill="#F0F0F0"/>
<path d="M6.07027 1.56543C4.19344 2.63413 2.63311 4.19441 1.56445 6.07124V12.0002H4.69491V4.69598V4.69588H11.9993C11.9993 3.70855 11.9993 2.76796 11.9993 1.56543H6.07027Z" fill="#D80027"/>
<path d="M11.9989 10.5242L7.73539 6.26074H6.25977V6.26084L11.9988 11.9998H11.9989C11.9989 11.9998 11.9989 10.9823 11.9989 10.5242Z" fill="#D80027"/>
<path d="M20.2933 13.7564C20.6383 13.2816 20.8688 12.7019 20.8688 11.9998V6.78241C20.4328 7.10998 19.8909 7.30413 19.3036 7.30413C18.4502 7.30413 17.6925 6.8943 17.2166 6.26074C16.7407 6.8943 15.983 7.30413 15.1297 7.30413C14.5423 7.30413 14.0004 7.10993 13.5645 6.78251V11.9998C13.5645 12.7019 13.7949 13.2816 14.14 13.7564H20.2933Z" fill="#F3F3F3"/>
<path d="M19.208 11.0319C19.3741 10.6266 19.5033 10.0343 19.5033 9.73946C19.5033 9.26579 18.8858 8.88184 18.8858 8.88184C18.8858 8.88184 18.2682 9.26579 18.2682 9.73946C18.2682 10.0343 18.3975 10.6267 18.5635 11.0319L18.207 11.8368C18.4166 11.922 18.6456 11.9694 18.8858 11.9694C19.1261 11.9694 19.355 11.922 19.5646 11.8368L19.208 11.0319Z" fill="#FF9811"/>
<path d="M16.7946 8.42598C16.3607 8.48477 15.783 8.66922 15.5278 8.81659C15.1176 9.05345 15.0938 9.78016 15.0938 9.78016C15.0938 9.78016 15.7351 10.123 16.1452 9.88614C16.4006 9.73872 16.8489 9.33072 17.1167 8.98422L17.9922 8.89047C17.9612 8.6665 17.8875 8.44445 17.7675 8.23647C17.6474 8.02848 17.492 7.85373 17.3134 7.71484L16.7946 8.42598Z" fill="#FF9811"/>
<path d="M15.7445 11.8192C16.0123 12.1655 16.4608 12.5735 16.7162 12.721C17.1264 12.9578 17.7677 12.6151 17.7677 12.6151C17.7677 12.6151 17.7437 11.8883 17.3336 11.6514C17.0782 11.504 16.5007 11.3197 16.0667 11.261L15.5479 10.5498C15.3694 10.6886 15.214 10.8635 15.0938 11.0713C14.9738 11.2794 14.9003 11.5013 14.8691 11.7254L15.7445 11.8192Z" fill="#FF9811"/>
<path d="M14.0117 13.5654C14.9862 15.1289 17.2175 15.6523 17.2175 15.6523C17.2175 15.6523 19.4487 15.1289 20.4232 13.5654H14.0117Z" fill="#338AF3"/>
</g>
<defs>
<clipPath id="clip0_1518_9325">
<rect width="24" height="24" fill="white"/>
</clipPath>
</defs>
</svg>
