<svg width="24" height="24" viewBox="0 0 24 24" fill="none" xmlns="http://www.w3.org/2000/svg">
<g clip-path="url(#clip0_1518_9358)">
<path d="M12 24C18.6274 24 24 18.6274 24 12C24 5.37258 18.6274 0 12 0C5.37258 0 0 5.37258 0 12C0 18.6274 5.37258 24 12 24Z" fill="#FFDA44"/>
<path d="M12.0009 24.0001C15.638 24.0001 18.8969 22.3818 21.0975 19.8262H2.9043C5.10494 22.3818 8.36383 24.0001 12.0009 24.0001Z" fill="#338AF3"/>
<path d="M24 12C24 5.37262 18.6274 0 12 0C5.37262 0 0 5.37262 0 12C0 13.0831 0.144375 14.1323 0.413391 15.1305H23.5867C23.8556 14.1323 24 13.0831 24 12Z" fill="#338AF3"/>
<path d="M0.953125 16.6953C1.18445 17.2389 1.45487 17.7616 1.76055 18.2605H22.238C22.5437 17.7616 22.8141 17.2388 23.0455 16.6953H0.953125Z" fill="#338AF3"/>
<path d="M5.4988 7.56819L3.1543 6.53347L5.4988 5.49875L6.53347 3.1543L7.56814 5.49875L9.91259 6.53347L7.56814 7.56819L6.53347 9.91264L5.4988 7.56819Z" fill="#F0F0F0"/>
<path d="M6.53423 4.44727L7.17319 5.89519L8.62116 6.53424L7.17319 7.17323L6.53423 8.62116L5.89519 7.17323L4.44727 6.53424L5.89519 5.89519L6.53423 4.44727Z" fill="#D80027"/>
</g>
<defs>
<clipPath id="clip0_1518_9358">
<rect width="24" height="24" fill="white"/>
</clipPath>
</defs>
</svg>
