<svg width="24" height="24" viewBox="0 0 24 24" fill="none" xmlns="http://www.w3.org/2000/svg">
<g clip-path="url(#clip0_1518_9366)">
<path d="M24 12C24 18.6274 18.6274 24 12 24C5.37262 24 0 18.6274 0 12C0 12.0028 12 0.00135937 12 0C18.6274 0 24 5.37262 24 12Z" fill="#0052B4"/>
<path d="M11.9688 11.9999H12.0009C12.0009 11.989 12.0009 11.9786 12.0009 11.9678C11.9902 11.9785 11.9795 11.9892 11.9688 11.9999Z" fill="#F0F0F0"/>
<path d="M12 6.26086C12 4.14937 12 2.76577 12 0H11.998C5.3715 0.00107812 0 5.37319 0 12H6.26086V8.47439L9.78642 12H11.9679C11.9787 11.9893 11.9894 11.9786 12 11.9678C12 11.1594 12 10.438 12 9.78647L8.47444 6.26086H12Z" fill="#F0F0F0"/>
<path d="M6.07027 1.56543C4.19344 2.63413 2.63316 4.19441 1.56445 6.07124V12.0002H4.69491V4.69593V4.69588H11.9993C11.9993 3.70855 11.9993 2.76796 11.9993 1.56543H6.07027Z" fill="#D80027"/>
<path d="M11.9989 10.5241L7.73544 6.26076H6.25977C6.25977 6.26072 6.25977 6.26076 6.25977 6.26076L11.9988 11.9998H11.9989C11.9989 11.9998 11.9989 10.9824 11.9989 10.5241Z" fill="#D80027"/>
<path d="M7.23631 14.0869L7.89491 15.464L9.38211 15.1203L8.71611 16.4938L9.91208 17.4422L8.423 17.7779L8.42717 19.3043L7.23631 18.3493L6.0455 19.3043L6.04967 17.7779L4.56055 17.4422L5.75656 16.4938L5.09047 15.1203L6.57777 15.464L7.23631 14.0869Z" fill="#F0F0F0"/>
<path d="M17.9648 16.6963L18.2941 17.3848L19.0377 17.2129L18.7047 17.8997L19.3027 18.3739L18.5582 18.5418L18.5602 19.305L17.9648 18.8275L17.3694 19.305L17.3715 18.5418L16.627 18.3739L17.2249 17.8997L16.8919 17.2129L17.6355 17.3848L17.9648 16.6963Z" fill="#F0F0F0"/>
<path d="M14.9024 9.3916L15.2316 10.0802L15.9752 9.90826L15.6422 10.595L16.2402 11.0693L15.4957 11.2371L15.4977 12.0003L14.9024 11.5228L14.307 12.0003L14.309 11.2371L13.5645 11.0693L14.1624 10.595L13.8294 9.90826L14.5731 10.0802L14.9024 9.3916Z" fill="#F0F0F0"/>
<path d="M17.9648 5.21777L18.2941 5.90637L19.0377 5.73448L18.7047 6.42124L19.3027 6.89543L18.5582 7.06329L18.5602 7.82651L17.9648 7.34899L17.3694 7.82651L17.3715 7.06329L16.627 6.89543L17.2249 6.42124L16.8919 5.73448L17.6355 5.90637L17.9648 5.21777Z" fill="#F0F0F0"/>
<path d="M20.6406 8.34863L20.9699 9.03723L21.7135 8.86529L21.3805 9.55205L21.9785 10.0263L21.2339 10.1941L21.236 10.9573L20.6406 10.4799L20.0452 10.9573L20.0473 10.1941L19.3027 10.0263L19.9007 9.55205L19.5677 8.86529L20.3113 9.03723L20.6406 8.34863Z" fill="#F0F0F0"/>
<path d="M18.7281 12L18.987 12.7972H19.8253L19.1471 13.2899L19.4062 14.087L18.7281 13.5943L18.05 14.087L18.309 13.2899L17.6309 12.7972H18.469L18.7281 12Z" fill="#F0F0F0"/>
</g>
<defs>
<clipPath id="clip0_1518_9366">
<rect width="24" height="24" fill="white"/>
</clipPath>
</defs>
</svg>
