<svg width="24" height="24" viewBox="0 0 24 24" fill="none" xmlns="http://www.w3.org/2000/svg">
<g clip-path="url(#clip0_1518_9387)">
<path d="M24 12.0003C24 10.5325 23.736 9.12639 23.2536 7.82645L12 7.30469L0.746391 7.82641C0.264047 9.12639 0 10.5325 0 12.0003C0 13.4682 0.264047 14.8743 0.746391 16.1742L12 16.696L23.2536 16.1743C23.736 14.8743 24 13.4682 24 12.0003Z" fill="#D80027"/>
<path d="M11.9997 23.9999C17.1593 23.9999 21.5578 20.7434 23.2533 16.1738H0.746094C2.44161 20.7434 6.84013 23.9999 11.9997 23.9999Z" fill="#6DA544"/>
<path d="M0.746094 7.82611H23.2534C21.5578 3.2565 17.1593 0 11.9997 0C6.84013 0 2.44161 3.2565 0.746094 7.82611Z" fill="#338AF3"/>
<path d="M12.2614 15.3914C10.3885 15.3914 8.87012 13.873 8.87012 12.0001C8.87012 10.1272 10.3885 8.6088 12.2614 8.6088C12.8454 8.6088 13.3949 8.75645 13.8746 9.01642C13.122 8.28044 12.0928 7.82617 10.9571 7.82617C8.65187 7.82617 6.7832 9.69489 6.7832 12.0001C6.7832 14.3052 8.65192 16.174 10.9571 16.174C12.0929 16.174 13.1221 15.7197 13.8746 14.9837C13.3949 15.2438 12.8454 15.3914 12.2614 15.3914Z" fill="#F0F0F0"/>
<path d="M14.8693 9.65234L15.3185 10.9157L16.5295 10.34L15.9538 11.5509L17.2171 12.0002L15.9538 12.4494L16.5295 13.6604L15.3185 13.0847L14.8693 14.348L14.4202 13.0847L13.2091 13.6604L13.7849 12.4494L12.5215 12.0002L13.7849 11.5509L13.2091 10.34L14.4202 10.9157L14.8693 9.65234Z" fill="#F0F0F0"/>
</g>
<defs>
<clipPath id="clip0_1518_9387">
<rect width="24" height="24" fill="white"/>
</clipPath>
</defs>
</svg>
