<svg width="24" height="24" viewBox="0 0 24 24" fill="none" xmlns="http://www.w3.org/2000/svg">
<g clip-path="url(#clip0_1518_9394)">
<path d="M12 24C18.6274 24 24 18.6274 24 12C24 5.37258 18.6274 0 12 0C5.37258 0 0 5.37258 0 12C0 18.6274 5.37258 24 12 24Z" fill="#F0F0F0"/>
<path d="M0 11.9999C0 16.5484 2.53078 20.5056 6.26086 22.5408V1.45898C2.53078 3.4942 0 7.45139 0 11.9999Z" fill="#D80027"/>
<path d="M0 11.9997C0 17.544 3.76036 22.2093 8.86955 23.5863V0.413086C3.76036 1.79009 0 6.45537 0 11.9997Z" fill="#0052B4"/>
<path d="M4.30469 4.17383V6.13034C4.30469 7.10286 5.09303 7.8912 6.06555 7.8912C7.03806 7.8912 7.82641 7.10286 7.82641 6.13034V4.17383H4.30469Z" fill="#D80027"/>
<path d="M6.06503 6.84818C5.66945 6.84818 5.34766 6.52638 5.34766 6.1308V5.21777H6.78245V6.1308C6.78245 6.52638 6.46061 6.84818 6.06503 6.84818Z" fill="#F0F0F0"/>
<path d="M13.0432 12.522H9.91273C9.91273 11.9457 9.44553 11.4785 8.86925 11.4785C8.29297 11.4785 7.82577 11.9457 7.82577 12.522H4.69531C4.69531 13.0983 5.1973 13.5655 5.77353 13.5655H5.7388C5.7388 14.1418 6.20591 14.609 6.78228 14.609C6.78228 15.1853 7.24939 15.6525 7.82577 15.6525H9.91273C10.489 15.6525 10.9562 15.1853 10.9562 14.609C11.5325 14.609 11.9997 14.1418 11.9997 13.5655H11.965C12.5412 13.5655 13.0432 13.0983 13.0432 12.522Z" fill="#FFDA44"/>
<path d="M13.4721 10.8518L13.1981 11.2904L13.5304 11.6864L13.0287 11.5615L12.7547 11.9999L12.7185 11.4841L12.2168 11.359L12.6964 11.1653L12.6603 10.6494L12.9927 11.0456L13.4721 10.8518Z" fill="#FFDA44"/>
<path d="M11.8732 9.51074L11.7658 10.0166L12.2136 10.2751L11.6993 10.3294L11.5918 10.8351L11.3815 10.3626L10.8672 10.4166L11.2515 10.0706L11.0412 9.5983L11.489 9.85682L11.8732 9.51074Z" fill="#FFDA44"/>
<path d="M9.91412 8.79688L9.98608 9.30898L10.4953 9.39875L10.0306 9.62544L10.1025 10.1375L9.74336 9.76555L9.27855 9.99223L9.52131 9.53562L9.16211 9.16372L9.67141 9.25344L9.91412 8.79688Z" fill="#FFDA44"/>
<path d="M7.82725 8.79688L8.07006 9.25344L8.57927 9.16367L8.22006 9.53572L8.46283 9.99228L7.99811 9.76555L7.63886 10.1375L7.71086 9.62544L7.24609 9.3988L7.7553 9.30898L7.82725 8.79688Z" fill="#FFDA44"/>
<path d="M5.86566 9.51074L6.24994 9.85682L6.69769 9.5983L6.4875 10.0708L6.87164 10.4167L6.35747 10.3626L6.14705 10.8351L6.0397 10.3293L5.52539 10.2753L5.97314 10.0166L5.86566 9.51074Z" fill="#FFDA44"/>
<path d="M4.26725 10.8518L4.74683 11.0456L5.07903 10.6494L5.04313 11.1654L5.52252 11.3591L5.02072 11.4841L4.98453 11.9999L4.71073 11.5615L4.20898 11.6865L4.54138 11.2904L4.26725 10.8518Z" fill="#FFDA44"/>
</g>
<defs>
<clipPath id="clip0_1518_9394">
<rect width="24" height="24" fill="white"/>
</clipPath>
</defs>
</svg>
