<svg width="24" height="24" viewBox="0 0 24 24" fill="none" xmlns="http://www.w3.org/2000/svg">
<g clip-path="url(#clip0_1518_9417)">
<path d="M12 0C18.6273 0 24 5.37261 24 12C24 18.6273 18.6273 24 12 24C5.37261 24 0 18.6273 0 12" fill="#FFDA44"/>
<path d="M11.7383 5.33366H21.9778C21.3036 4.32646 20.4808 3.4274 19.5409 2.66699H11.7383V5.33366Z" fill="#D80027"/>
<path d="M11.7383 10.6666H23.9251C23.8228 9.74197 23.6155 8.84914 23.3154 8H11.7383V10.6666Z" fill="#D80027"/>
<path d="M0.683874 16.0007H23.3163C23.6164 15.1516 23.8237 14.2586 23.926 13.334H0.0742188C0.176406 14.2587 0.383687 15.1516 0.683874 16.0007Z" fill="#D80027"/>
<path d="M4.45828 21.3337H19.5419C20.4817 20.5733 21.3045 19.6741 21.9788 18.667H2.02148C2.69573 19.6741 3.51848 20.5733 4.45828 21.3337Z" fill="#D80027"/>
<path d="M12 0C5.37262 0 -4.68746e-05 5.37261 3.06725e-10 12.0001C2.73871 12 5.37261 12.0001 12 12.0001L12 0Z" fill="#4A1F63"/>
<path d="M9.91375 6.26126V7.30474H9.39203V6.26126H8.34855V7.30474H7.82683V5.21777H5.73987V7.30474H5.2181V6.26126H4.17467V7.30474H3.6529V6.26126H2.60938V9.39166H10.9572V6.26126H9.91375Z" fill="#F0F0F0"/>
</g>
<defs>
<clipPath id="clip0_1518_9417">
<rect width="24" height="24" fill="white"/>
</clipPath>
</defs>
</svg>
