<svg width="24" height="24" viewBox="0 0 24 24" fill="none" xmlns="http://www.w3.org/2000/svg">
<g clip-path="url(#clip0_1518_9429)">
<path d="M17.2165 1.19072C15.6389 0.427875 13.869 0 11.9991 0C10.1293 0 8.35939 0.427875 6.78177 1.19072L5.73828 12L6.78177 22.8093C8.35939 23.5721 10.1293 24 11.9991 24C13.869 24 15.6389 23.5721 17.2165 22.8093L18.26 12L17.2165 1.19072Z" fill="#FFDA44"/>
<path d="M6.78263 1.19141C2.76872 3.13231 0 7.24273 0 12.0003C0 16.7578 2.76872 20.8682 6.78263 22.8091V1.19141Z" fill="#0052B4"/>
<path d="M17.2168 1.19141V22.8091C21.2307 20.8682 23.9994 16.7577 23.9994 12.0003C23.9994 7.24278 21.2307 3.13231 17.2168 1.19141Z" fill="#0052B4"/>
<path d="M15.6528 7.30423L16.3527 7.6542L15.6528 7.30423L14.9527 6.95426C14.9105 7.03868 13.9965 8.89835 13.8472 11.739H12.7832V7.30423L12.0006 6.26074L11.218 7.30423V11.739H10.154C10.0046 8.89835 9.09064 7.03868 9.04841 6.95426L7.64844 7.65424C7.65809 7.67346 8.60933 9.60963 8.60933 12.5216V13.3043H11.218V17.7391H12.7832V13.3043H15.3919V12.5216C15.3919 11.0161 15.6524 9.77463 15.871 8.99829C16.1092 8.15173 16.3512 7.65734 16.3536 7.65241L15.6528 7.30423Z" fill="black"/>
</g>
<defs>
<clipPath id="clip0_1518_9429">
<rect width="24" height="24" fill="white"/>
</clipPath>
</defs>
</svg>
