<svg width="24" height="24" viewBox="0 0 24 24" fill="none" xmlns="http://www.w3.org/2000/svg">
<g clip-path="url(#clip0_1518_9435)">
<path d="M12 24C18.6274 24 24 18.6274 24 12C24 5.37258 18.6274 0 12 0C5.37258 0 0 5.37258 0 12C0 18.6274 5.37258 24 12 24Z" fill="#F0F0F0"/>
<path d="M0.101562 13.5654C0.38075 15.7082 1.22553 17.673 2.4807 19.3059L8.86948 13.5654H0.101562Z" fill="#D80027"/>
<path d="M10.4339 23.8988V15.1309L4.69336 21.5197C6.32634 22.7749 8.29106 23.6197 10.4339 23.8988Z" fill="#D80027"/>
<path d="M10.4339 0.101562C8.29106 0.38075 6.32634 1.22553 4.69336 2.4807L10.4339 8.86958V0.101562Z" fill="#D80027"/>
<path d="M0.101562 10.4348H8.86948L2.48066 4.69434C1.22548 6.32727 0.380703 8.29204 0.101562 10.4348Z" fill="#D80027"/>
<path d="M13.5645 0.101562V8.86953L19.305 2.4807C17.6721 1.22563 15.7073 0.380703 13.5645 0.101562Z" fill="#D80027"/>
<path d="M23.8988 10.4349C23.6196 8.29209 22.7749 6.32732 21.5197 4.69434L15.1309 10.4349H23.8988Z" fill="#D80027"/>
<path d="M15.1309 13.5654L21.5197 19.306C22.7749 17.673 23.6197 15.7082 23.8989 13.5654H15.1309Z" fill="#D80027"/>
<path d="M13.5645 23.8988C15.7073 23.6196 17.6721 22.7749 19.305 21.5196L13.5645 15.1309V23.8988Z" fill="#D80027"/>
<path d="M21.5209 19.3064L14.2143 11.9998L14.2143 11.9997L21.5209 4.69302C21.2058 4.28352 20.8611 3.88959 20.486 3.5144C20.1109 3.1393 19.7169 2.79454 19.3074 2.47949L12.0007 9.78613H12.0007L4.69405 2.47949C4.28455 2.79459 3.89056 3.13926 3.51538 3.5144C3.14028 3.88959 2.79552 4.28352 2.48047 4.69307L9.78711 11.9997L9.78716 11.9997L2.48052 19.3064C2.79561 19.7159 3.14033 20.1098 3.51542 20.485C3.89056 20.8601 4.28455 21.2049 4.69409 21.5199L12.0007 14.2133L19.3074 21.5199C19.7168 21.2048 20.1108 20.8601 20.486 20.485C20.8611 20.1098 21.2058 19.7159 21.5209 19.3064Z" fill="#496E2D"/>
<path d="M13.5652 23.8984V13.5653V13.5653H23.8984C23.9652 13.0529 24 12.5305 24 12C24 11.4696 23.9652 10.9472 23.8984 10.4348H13.5653L13.5653 10.4348V0.101625C13.0529 0.0349219 12.5306 0 12 0C11.4695 4.6875e-05 10.9471 0.0349219 10.4348 0.101625L10.4348 10.4347V10.4348H0.101625C0.034875 10.9471 0 11.4695 0 12C4.6875e-05 12.5306 0.034875 13.0529 0.101625 13.5652H10.4347L10.4348 23.8984C10.9472 23.9651 11.4694 24 12 24C12.5306 24 13.0529 23.9651 13.5652 23.8984Z" fill="#F0F0F0"/>
</g>
<defs>
<clipPath id="clip0_1518_9435">
<rect width="24" height="24" fill="white"/>
</clipPath>
</defs>
</svg>
