<svg width="24" height="24" viewBox="0 0 24 24" fill="none" xmlns="http://www.w3.org/2000/svg">
<g clip-path="url(#clip0_1518_9448)">
<path d="M12 24C18.6274 24 24 18.6274 24 12C24 5.37258 18.6274 0 12 0C5.37258 0 0 5.37258 0 12C0 18.6274 5.37258 24 12 24Z" fill="#FCFCFC"/>
<path d="M4.95669 11.1302L3.65234 8.76384L4.95669 6.43457L6.26103 8.76384L4.95669 11.1302Z" fill="#A2001D"/>
<path d="M2.34731 11.1302L1.04297 8.76384L2.34731 6.43457L3.65166 8.76384L2.34731 11.1302Z" fill="#A2001D"/>
<path d="M4.95669 17.5648L3.65234 15.1984L4.95669 12.8691L6.26103 15.1984L4.95669 17.5648Z" fill="#A2001D"/>
<path d="M2.34731 17.5648L1.04297 15.1984L2.34731 12.8691L3.65166 15.1984L2.34731 17.5648Z" fill="#A2001D"/>
<path d="M6.26041 2.32936L5.89112 1.66992C5.22878 2.06236 4.60755 2.51672 4.03516 3.02503L4.95606 4.6957L6.26041 2.32936Z" fill="#A2001D"/>
<path d="M4.95605 19.3047L4.02539 20.9667C4.59727 21.4757 5.21808 21.9307 5.88014 22.324L6.26044 21.634L4.95605 19.3047Z" fill="#A2001D"/>
<path d="M7.30469 15.1309V23.0463C8.74698 23.6602 10.3338 24.0004 12.0003 24.0004C17.1599 24.0004 21.5584 20.7439 23.254 16.1743L7.30469 15.1309Z" fill="#6DA544"/>
<path d="M23.254 16.1739C23.7363 14.8739 24.0003 13.4678 24.0003 12C24.0003 5.37263 18.6277 0 12.0003 0C10.334 0 8.74698 0.339984 7.30469 0.953813V16.1739H23.254V16.1739Z" fill="#A2001D"/>
</g>
<defs>
<clipPath id="clip0_1518_9448">
<rect width="24" height="24" fill="white"/>
</clipPath>
</defs>
</svg>
