<svg width="24" height="24" viewBox="0 0 24 24" fill="none" xmlns="http://www.w3.org/2000/svg">
<g clip-path="url(#clip0_1518_9493)">
<path d="M20.4853 20.4855C15.799 25.1718 8.20104 25.1718 3.51471 20.4855C-1.17157 15.7992 -1.17157 8.20118 3.51471 3.51485C3.5164 3.51485 14.2987 0.328895 18.985 5.01518C23.6713 9.70146 20.4885 20.4822 20.4853 20.4855Z" fill="#FFDA44"/>
<path d="M20.4862 20.4854C25.1725 15.7991 25.1725 8.20106 20.4862 3.51473C15.7999 -1.1716 8.20195 -1.17155 3.51562 3.51473L20.4862 20.4854Z" fill="#D80027"/>
<path d="M15.1372 15.138C14.6443 15.3316 14.0715 15.3111 13.5746 15.0322C12.6966 14.5395 12.3832 13.4241 12.8761 12.546L12.7265 12.4621C14.2298 12.0996 15.342 10.7351 15.3225 9.12483C15.3104 8.12372 14.8631 7.22808 14.1634 6.61523L13.0678 7.7377C13.482 8.0678 13.7505 8.57414 13.7574 9.14381C13.7696 10.1507 12.9604 10.9798 11.9536 10.9919L11.9557 11.1633C10.8901 10.0427 9.15236 9.76181 7.76762 10.5838C6.90672 11.0949 6.35481 11.9301 6.17383 12.8425L7.6937 13.2301C7.7725 12.7064 8.07667 12.2206 8.56656 11.9298C9.43239 11.4158 10.555 11.7021 11.0689 12.5679L11.2165 12.4804C10.7788 13.9634 11.4043 15.6089 12.8087 16.3971C13.6817 16.8871 14.6809 16.9476 15.5616 16.6481L15.1372 15.138ZM11.9662 12.0352L11.9661 12.0352L11.9662 12.0352Z" fill="#FF9811"/>
<path d="M16.4437 8.12741L15.5955 11.1542L13.0507 10.6843L11.4126 7.30762L6.98727 8.87798L6.63828 7.89454L5.48047 7.7519L6.35286 10.2104L9.39828 9.43157L10.2637 11.8704L8.15848 14.9774L11.7312 18.0245L11.054 18.8184L11.5093 19.8926L13.2024 17.9077L11.0052 15.6597L12.6845 13.6908L16.4279 13.9605L17.2805 9.34288L18.3066 9.5324L19.0092 8.60099L16.4437 8.12741ZM11.9997 12.0818V12.0819V12.0818Z" fill="#FFEACF"/>
</g>
<defs>
<clipPath id="clip0_1518_9493">
<rect width="24" height="24" fill="white"/>
</clipPath>
</defs>
</svg>
