<svg width="24" height="24" viewBox="0 0 24 24" fill="none" xmlns="http://www.w3.org/2000/svg">
<g clip-path="url(#clip0_1518_9607)">
<path d="M12.0002 23.9984C18.6266 23.9984 23.9984 18.6266 23.9984 12.0002C23.9984 5.37375 18.6266 0.00195312 12.0002 0.00195312C5.37375 0.00195312 0.00195312 5.37375 0.00195312 12.0002C0.00195312 18.6266 5.37375 23.9984 12.0002 23.9984Z" fill="#F0F0F0"/>
<path d="M1.6094 6.00098C1.06784 6.93887 0.668365 7.91942 0.402344 8.91821L20.468 20.5032C21.2 19.7734 21.8495 18.9371 22.3909 17.9992L1.6094 6.00098Z" fill="black"/>
<path d="M17.9983 1.6092C13.1974 -1.16253 7.27791 -0.238742 3.53125 3.4969L23.5969 15.0818C24.9588 9.9694 22.799 4.38098 17.9983 1.6092Z" fill="#FFDA44"/>
<path d="M6.0003 22.3906C10.8011 25.1624 16.7207 24.2386 20.4673 20.503L0.401573 8.91797C-0.960222 14.0305 1.19945 19.6189 6.0003 22.3906Z" fill="#FFDA44"/>
<path d="M15.3903 10.696C15.3903 12.5687 13.8722 14.0868 11.9995 14.0868C10.1268 14.0868 8.60867 12.5687 8.60867 10.696C8.60867 10.1121 8.75629 9.56269 9.01626 9.08301C8.28045 9.83551 7.82617 10.8645 7.82617 12.0001C7.82617 14.305 9.6946 16.1735 11.9995 16.1735C14.3044 16.1735 16.1728 14.305 16.1728 12.0001C16.1728 10.8645 15.7186 9.83551 14.9827 9.08301C15.2427 9.56278 15.3903 10.1121 15.3903 10.696Z" fill="#D80027"/>
<path d="M11.2168 6.7832H12.7818V14.6082H11.2168V6.7832Z" fill="#D80027"/>
<path d="M14.6072 8.34863H9.39062C9.39062 8.70878 9.70437 9.00072 10.0645 9.00072H10.0427C10.0427 9.36087 10.3347 9.65282 10.6948 9.65282C10.6948 10.013 10.9868 10.3049 11.3469 10.3049H12.651C13.0112 10.3049 13.3031 10.013 13.3031 9.65282C13.6633 9.65282 13.9552 9.36087 13.9552 9.00072H13.9335C14.2935 9.00068 14.6072 8.70883 14.6072 8.34863Z" fill="#D80027"/>
<path d="M8.34766 15.1299H15.6509V16.6949H8.34766V15.1299Z" fill="#D80027"/>
<path d="M13.5645 15.6514H16.6944V17.2164H13.5645V15.6514Z" fill="#D80027"/>
<path d="M7.30469 15.6514H10.4346V17.2164H7.30469V15.6514Z" fill="#D80027"/>
</g>
<defs>
<clipPath id="clip0_1518_9607">
<rect width="24" height="24" fill="white"/>
</clipPath>
</defs>
</svg>
