<svg width="24" height="24" viewBox="0 0 24 24" fill="none" xmlns="http://www.w3.org/2000/svg">
<g clip-path="url(#clip0_1518_9662)">
<path d="M12 24C18.6274 24 24 18.6274 24 12C24 5.37258 18.6274 0 12 0C5.37258 0 0 5.37258 0 12C0 18.6274 5.37258 24 12 24Z" fill="#F0F0F0"/>
<path d="M12.0009 24.0001C15.638 24.0001 18.8969 22.3818 21.0975 19.8262H2.9043C5.10494 22.3818 8.36383 24.0001 12.0009 24.0001Z" fill="#0052B4"/>
<path d="M24 12C24 5.37262 18.6274 0 12 0C5.37262 0 0 5.37262 0 12C0 13.0831 0.144375 14.1323 0.413391 15.1305H23.5867C23.8556 14.1323 24 13.0831 24 12Z" fill="#0052B4"/>
<path d="M0.953125 16.6953C1.18445 17.2389 1.45488 17.7616 1.76064 18.2605H22.2381C22.5438 17.7616 22.8142 17.2388 23.0456 16.6953H0.953125Z" fill="#D80027"/>
<path d="M8.57675 12.7822L8.771 13.3801H9.39964L8.89109 13.7496L9.08534 14.3474L8.57675 13.9779L8.06816 14.3474L8.26245 13.7496L7.75391 13.3801H8.38255L8.57675 12.7822Z" fill="#FFDA44"/>
<path d="M8.57675 20.6084L8.771 21.2063H9.39964L8.89109 21.5758L9.08534 22.1736L8.57675 21.8041L8.06816 22.1736L8.26245 21.5758L7.75391 21.2063H8.38255L8.57675 20.6084Z" fill="#FFDA44"/>
<path d="M4.93417 17.9619L5.12842 18.5597H5.75706L5.24852 18.9292L5.44277 19.5271L4.93417 19.1576L4.42558 19.5271L4.61992 18.9292L4.11133 18.5597H4.73992L4.93417 17.9619Z" fill="#FFDA44"/>
<path d="M6.32484 13.5645L6.51909 14.1623H7.14769L6.63919 14.5318L6.83344 15.1297L6.32484 14.7602L5.81625 15.1297L6.01059 14.5318L5.50195 14.1623H6.13059L6.32484 13.5645Z" fill="#FFDA44"/>
<path d="M4.11133 16.0266L4.73983 16.0267L4.93413 15.4287L5.12842 16.0266L5.75706 16.0266L5.24847 16.3961L5.44277 16.994L4.93413 16.6245L4.42558 16.9939L4.61983 16.3961L4.11133 16.0266Z" fill="#FFDA44"/>
<path d="M5.81634 21.277L6.01059 20.6793L5.50195 20.3098H6.13059L6.32489 19.7119L6.51919 20.3098H7.14778L6.63919 20.6792L6.83344 21.2772L6.32484 20.9076L5.81634 21.277Z" fill="#FFDA44"/>
<path d="M12.2193 17.9619L12.0251 18.5597H11.3965L11.905 18.9292L11.7107 19.5271L12.2193 19.1576L12.7279 19.5271L12.5336 18.9292L13.0422 18.5597H12.4136L12.2193 17.9619Z" fill="#FFDA44"/>
<path d="M10.8268 13.5645L10.6325 14.1623H10.0039L10.5124 14.5318L10.3182 15.1297L10.8268 14.7602L11.3353 15.1297L11.141 14.5318L11.6496 14.1623H11.021L10.8268 13.5645Z" fill="#FFDA44"/>
<path d="M13.0422 16.0266L12.4137 16.0267L12.2194 15.4287L12.0251 16.0266L11.3965 16.0266L11.905 16.3961L11.7107 16.994L12.2194 16.6245L12.7279 16.9939L12.5337 16.3961L13.0422 16.0266Z" fill="#FFDA44"/>
<path d="M11.3353 21.277L11.1411 20.6793L11.6497 20.3098H11.0211L10.8268 19.7119L10.6325 20.3098H10.0039L10.5125 20.6792L10.3183 21.2772L10.8268 20.9076L11.3353 21.277Z" fill="#FFDA44"/>
</g>
<defs>
<clipPath id="clip0_1518_9662">
<rect width="24" height="24" fill="white"/>
</clipPath>
</defs>
</svg>
