<svg width="24" height="24" viewBox="0 0 24 24" fill="none" xmlns="http://www.w3.org/2000/svg">
<g clip-path="url(#clip0_1518_9713)">
<path d="M12 24C18.6274 24 24 18.6274 24 12C24 5.37258 18.6274 0 12 0C5.37258 0 0 5.37258 0 12C0 18.6274 5.37258 24 12 24Z" fill="#F0F0F0"/>
<path d="M12.0009 0C8.6872 0 5.6872 1.34316 3.51562 3.51469L12.0009 12V0Z" fill="black"/>
<path d="M0 12C0 15.3137 1.34316 18.3137 3.51469 20.4853L12 12H0Z" fill="black"/>
<path d="M12 24C15.3137 24 18.3137 22.6568 20.4853 20.4853L12 12V24Z" fill="black"/>
<path d="M24 12C24 8.68623 22.6568 5.68623 20.4853 3.51465L12 12H24Z" fill="black"/>
<path d="M7.82617 8.34777L12.0001 8.86963L16.174 8.34777V5.84342L14.5044 6.67822L12.0001 4.17383L9.49572 6.67822L7.82617 5.84342V8.34777Z" fill="#FFDA44"/>
<path d="M12.0001 18.2606C9.69855 18.2606 7.82617 16.3882 7.82617 14.0867V9.913L9.39138 8.34766H14.6088L16.174 9.913V14.0867C16.174 16.3882 14.3016 18.2606 12.0001 18.2606Z" fill="#D80027"/>
<path d="M11.9993 16.6956C10.5609 16.6956 9.39062 15.5253 9.39062 14.0869V9.91309H14.608V14.0869C14.608 15.5253 13.4378 16.6956 11.9993 16.6956Z" fill="#F0F0F0"/>
<path d="M7.82617 8.34766H9.39138V9.91286H7.82617V8.34766Z" fill="#FFDA44"/>
<path d="M14.6094 8.34766H16.1746V9.91286H14.6094V8.34766Z" fill="#FFDA44"/>
<path d="M14.6094 11.7393H16.1746V13.3045H14.6094V11.7393Z" fill="#FFDA44"/>
<path d="M7.82617 11.7393H9.39138V13.3045H7.82617V11.7393Z" fill="#FFDA44"/>
<path d="M11.9994 16.6953C11.7268 16.6953 11.464 16.6531 11.2168 16.5752V18.1859C11.4705 18.2342 11.7319 18.2605 11.9994 18.2605C12.267 18.2605 12.5284 18.2342 12.782 18.1859V16.5752C12.5349 16.6531 12.272 16.6953 11.9994 16.6953Z" fill="#FFDA44"/>
<path d="M9.42686 14.5107L8.17773 15.7599C8.3943 16.2529 8.7033 16.6963 9.08308 17.0681L10.1893 15.9618C9.79455 15.5804 9.51953 15.076 9.42686 14.5107Z" fill="#FFDA44"/>
<path d="M15.8221 15.7599L14.573 14.5107C14.4802 15.076 14.2053 15.5803 13.8105 15.9619L14.9168 17.0681C15.2965 16.6963 15.6055 16.2529 15.8221 15.7599Z" fill="#FFDA44"/>
<path d="M11.4766 10.7822V11.6518C11.4766 11.9399 11.7101 12.1735 11.9983 12.1735C12.2864 12.1735 12.52 11.9399 12.52 11.6518V10.7822H11.4766Z" fill="#0052B4"/>
<path d="M11.4766 14.2607V15.1303C11.4766 15.4184 11.7101 15.652 11.9983 15.652C12.2864 15.652 12.52 15.4184 12.52 15.1303V14.2607H11.4766Z" fill="#0052B4"/>
<path d="M13.043 12.5215V13.3911C13.043 13.6792 13.2765 13.9128 13.5647 13.9128C13.8528 13.9128 14.0864 13.6792 14.0864 13.3911V12.5215H13.043Z" fill="#0052B4"/>
<path d="M11.4766 12.5215V13.3911C11.4766 13.6792 11.7101 13.9128 11.9983 13.9128C12.2864 13.9128 12.52 13.6792 12.52 13.3911V12.5215H11.4766Z" fill="#0052B4"/>
<path d="M9.91211 12.5215V13.3911C9.91211 13.6792 10.1457 13.9128 10.4338 13.9128C10.722 13.9128 10.9555 13.6792 10.9555 13.3911V12.5215H9.91211Z" fill="#0052B4"/>
</g>
<defs>
<clipPath id="clip0_1518_9713">
<rect width="24" height="24" fill="white"/>
</clipPath>
</defs>
</svg>
