<svg width="24" height="24" viewBox="0 0 24 24" fill="none" xmlns="http://www.w3.org/2000/svg">
<g clip-path="url(#clip0_1518_9753)">
<path d="M12 24C18.6274 24 24 18.6274 24 12C24 5.37258 18.6274 0 12 0C5.37258 0 0 5.37258 0 12C0 18.6274 5.37258 24 12 24Z" fill="#6DA544"/>
<path d="M18.4218 17.2178L18.7511 17.9063L19.4948 17.7345L19.1618 18.4212L19.7598 18.8954L19.0152 19.0632L19.0173 19.8265L18.4218 19.349L17.8264 19.8265L17.8285 19.0632L17.084 18.8954L17.682 18.4212L17.349 17.7345L18.0925 17.9063L18.4218 17.2178Z" fill="#FFDA44"/>
<path d="M15.3574 9.91309L15.6867 10.6016L16.4304 10.4297L16.0973 11.1166L16.6953 11.5907L15.9508 11.7586L15.9528 12.5218L15.3574 12.0443L14.762 12.5218L14.764 11.7586L14.0195 11.5907L14.6175 11.1166L14.2845 10.4297L15.0281 10.6016L15.3574 9.91309Z" fill="#FFDA44"/>
<path d="M18.4218 5.73926L18.7511 6.4278L19.4947 6.25587L19.1618 6.94268L19.7597 7.41691L19.0151 7.58468L19.0172 8.34795L18.4218 7.87043L17.8264 8.34795L17.8285 7.58468L17.084 7.41691L17.6819 6.94268L17.3489 6.25587L18.0925 6.4278L18.4218 5.73926Z" fill="#FFDA44"/>
<path d="M21.0976 8.87012L21.4269 9.55866L22.1706 9.38677L21.8375 10.0736L22.4355 10.5478L21.691 10.7156L21.6931 11.4789L21.0976 11.0013L20.5022 11.4789L20.5042 10.7156L19.7598 10.5478L20.3577 10.0736L20.0247 9.38677L20.7683 9.55866L21.0976 8.87012Z" fill="#FFDA44"/>
<path d="M19.1831 12.5215L19.4422 13.3187H20.2803L19.6022 13.8113L19.8613 14.6085L19.1831 14.1158L18.505 14.6085L18.764 13.8113L18.0859 13.3187H18.9241L19.1831 12.5215Z" fill="#FFDA44"/>
<path d="M13.3045 15.3914C11.4315 15.3914 9.91309 13.873 9.91309 12.0001C9.91309 10.1272 11.4314 8.6088 13.3045 8.6088C13.8884 8.6088 14.4379 8.7565 14.9177 9.01642C14.1651 8.28039 13.1359 7.82617 12 7.82617C9.69489 7.82617 7.82617 9.69489 7.82617 12.0001C7.82617 14.3052 9.69489 16.174 12 16.174C13.1359 16.174 14.1651 15.7197 14.9176 14.9837C14.4379 15.2437 13.8884 15.3914 13.3045 15.3914Z" fill="#FFDA44"/>
<path d="M7.5458 4.69583C7.18486 4.0722 6.51103 3.65234 5.73872 3.65234C4.96641 3.65234 4.29258 4.0722 3.93164 4.69583H7.5458Z" fill="#FFDA44"/>
<path d="M7.55328 4.70801L5.73927 6.52202L3.92525 4.70801C3.75186 5.01227 3.65234 5.36416 3.65234 5.73945C3.65234 6.89205 4.5867 7.82641 5.73931 7.82641C6.89192 7.82641 7.82628 6.8921 7.82628 5.73945C7.82623 5.36416 7.72667 5.01227 7.55328 4.70801Z" fill="#FFDA44"/>
<path d="M5.2168 6V7.76034C5.38353 7.80323 5.55837 7.82606 5.73852 7.82606C5.91866 7.82606 6.0935 7.80319 6.26023 7.76034V6H5.2168Z" fill="#A2001D"/>
</g>
<defs>
<clipPath id="clip0_1518_9753">
<rect width="24" height="24" fill="white"/>
</clipPath>
</defs>
</svg>
