<svg width="24" height="24" viewBox="0 0 24 24" fill="none" xmlns="http://www.w3.org/2000/svg">
<g clip-path="url(#clip0_1518_9781)">
<path d="M24 12C24 18.6274 18.6274 24 12 24C5.37262 24 0 18.6274 0 12C0 12.0029 12 0.0013125 12 0C18.6274 0 24 5.37262 24 12Z" fill="#0052B4"/>
<path d="M11.9688 11.9999H12.0009C12.0009 11.9891 12.0009 11.9786 12.0009 11.9678C11.9902 11.9785 11.9795 11.9892 11.9688 11.9999Z" fill="#F0F0F0"/>
<path d="M12 6.26086C12 4.14937 12 2.76586 12 0H11.998C5.37145 0.001125 0 5.37323 0 12H6.26086V8.47448L9.78638 12H11.9679C11.9786 11.9893 11.9893 11.9786 12 11.9679C12 11.1594 12 10.4381 12 9.78647L8.47444 6.26086H12Z" fill="#F0F0F0"/>
<path d="M6.07027 1.56543C4.19344 2.63413 2.63311 4.19441 1.56445 6.07124V12.0002H4.69491V4.69598V4.69588H11.9993C11.9993 3.70855 11.9993 2.76796 11.9993 1.56543H6.07027Z" fill="#D80027"/>
<path d="M11.9989 10.5242L7.73539 6.26074H6.25977V6.26084L11.9988 11.9998H11.9989C11.9989 11.9998 11.9989 10.9823 11.9989 10.5242Z" fill="#D80027"/>
<path d="M16.1747 12L16.3968 12.6832H17.1152L16.534 13.1055L16.756 13.7888L16.1747 13.3665L15.5935 13.7888L15.8155 13.1055L15.2344 12.6832H15.9527L16.1747 12Z" fill="#F0F0F0"/>
<path d="M13.2229 13.2229L13.863 13.549L14.371 13.041L14.2586 13.7506L14.8987 14.0768L14.1891 14.1891L14.0768 14.8988L13.7506 14.2586L13.041 14.371L13.5491 13.863L13.2229 13.2229Z" fill="#F0F0F0"/>
<path d="M12 16.1737L12.6832 15.9517L12.6833 15.2334L13.1055 15.8145L13.7888 15.5925L13.3665 16.1737L13.7888 16.755L13.1055 16.533L12.6833 17.1142V16.3958L12 16.1737Z" fill="#F0F0F0"/>
<path d="M13.2229 19.125L13.549 18.4849L13.041 17.977L13.7506 18.0893L14.0768 17.4492L14.1891 18.1588L14.8987 18.2711L14.2586 18.5973L14.371 19.307L13.863 18.7988L13.2229 19.125Z" fill="#F0F0F0"/>
<path d="M16.1748 20.3474L15.9528 19.6641H15.2344L15.8156 19.2418L15.5936 18.5586L16.1748 18.9808L16.7561 18.5586L16.5341 19.2418L17.1152 19.6641H16.3969L16.1748 20.3474Z" fill="#F0F0F0"/>
<path d="M19.125 19.125L18.4849 18.799L17.977 19.307L18.0893 18.5973L17.4492 18.2712L18.1588 18.1588L18.2712 17.4492L18.5973 18.0893L19.3069 17.977L18.7988 18.485L19.125 19.125Z" fill="#F0F0F0"/>
<path d="M20.3474 16.1737L19.6641 16.3958V17.1142L19.2418 16.533L18.5586 16.755L18.9809 16.1737L18.5586 15.5925L19.2418 15.8145L19.6641 15.2334V15.9517L20.3474 16.1737Z" fill="#F0F0F0"/>
<path d="M19.125 13.2229L18.799 13.863L19.3069 14.371L18.5973 14.2585L18.2712 14.8987L18.1588 14.189L17.4492 14.0767L18.0893 13.7506L17.977 13.041L18.485 13.549L19.125 13.2229Z" fill="#F0F0F0"/>
</g>
<defs>
<clipPath id="clip0_1518_9781">
<rect width="24" height="24" fill="white"/>
</clipPath>
</defs>
</svg>
