<svg width="24" height="24" viewBox="0 0 24 24" fill="none" xmlns="http://www.w3.org/2000/svg">
<g clip-path="url(#clip0_1518_9799)">
<path d="M12 24C18.6274 24 24 18.6274 24 12C24 5.37258 18.6274 0 12 0C5.37258 0 0 5.37258 0 12C0 18.6274 5.37258 24 12 24Z" fill="#FCFCFC"/>
<path d="M16.1776 10.1638C16.1776 7.62575 14.1201 5.56836 11.5822 5.56836C9.70934 5.56836 8.09933 6.68914 7.38345 8.2962L6.81669 10.351L7.33841 10.8727L6.29492 12.9597L7.33841 13.4814L6.81669 14.0031V14.5248L7.33841 15.0465V16.09L7.86013 16.6117L9.42533 16.09C9.42533 16.09 9.42533 16.6117 9.94705 17.1335C10.4688 17.6552 10.9906 18.6988 10.9906 18.6988C10.9906 18.6988 12.5558 19.2205 13.5993 17.6553C14.6427 16.0901 15.6862 15.5683 15.6862 15.5683L14.6805 13.5567C15.6003 12.7166 16.1776 11.5078 16.1776 10.1638Z" fill="black"/>
<path d="M16.552 11.9213C18.6721 11.5636 19.0253 7.41211 19.0253 7.41211H16.1036C17.6166 11.0643 16.0329 11.31 16.0329 11.31C15.8184 11.1503 8.14034 7.51303 7.89697 7.42055C7.83833 7.49902 7.62247 7.70512 7.36006 8.34684C7.09761 8.98856 7.0332 9.56588 7.0332 9.56588C7.15611 9.64598 15.3102 12.4932 15.5257 12.5169C15.9534 12.7966 16.4797 13.6329 16.1856 16.1125L18.9978 15.3199C18.9979 15.3199 18.0435 12.781 16.552 11.9213Z" fill="#ACABB1"/>
</g>
<defs>
<clipPath id="clip0_1518_9799">
<rect width="24" height="24" fill="white"/>
</clipPath>
</defs>
</svg>
