<svg width="24" height="24" viewBox="0 0 24 24" fill="none" xmlns="http://www.w3.org/2000/svg">
<g clip-path="url(#clip0_1518_9873)">
<path d="M10.9575 13.0435C10.9575 13.0435 3.52266 3.51305 3.51562 3.51473C5.68716 1.34316 8.6872 0 12.0009 0C18.6283 0 24.0009 5.37262 24.0009 12L10.9575 13.0435Z" fill="#338AF3"/>
<path d="M10.9575 12C10.9575 12 3.52266 20.487 3.51562 20.4853C5.68716 22.6568 8.6872 24 12.0009 24C18.6283 24 24.0009 18.6274 24.0009 12H10.9575Z" fill="#6DA544"/>
<path d="M3.51471 3.51465C-1.17157 8.20093 -1.17157 15.7989 3.51471 20.4853C5.45126 18.5487 7.31374 16.6862 12 12L3.51471 3.51465Z" fill="#F0F0F0"/>
<path d="M4.85597 8.86914L5.63292 11.2605H8.14758L6.1133 12.7386L6.8902 15.13L4.85597 13.652L2.82164 15.13L3.59873 12.7386L1.56445 11.2605H4.07892L4.85597 8.86914Z" fill="#D80027"/>
</g>
<defs>
<clipPath id="clip0_1518_9873">
<rect width="24" height="24" fill="white"/>
</clipPath>
</defs>
</svg>
