<svg width="24" height="24" viewBox="0 0 24 24" fill="none" xmlns="http://www.w3.org/2000/svg">
<g clip-path="url(#clip0_1518_9917)">
<path d="M12 24C18.6274 24 24 18.6274 24 12C24 5.37258 18.6274 0 12 0C5.37258 0 0 5.37258 0 12C0 18.6274 5.37258 24 12 24Z" fill="#FFDA44"/>
<path d="M12.0001 0C9.06209 0 6.37119 1.05642 4.28516 2.80941L17.2175 12L4.28516 21.1906C6.37119 22.9436 9.06209 24 12.0001 24C18.6275 24 24.0001 18.6274 24.0001 12C24.0001 5.37262 18.6275 0 12.0001 0Z" fill="#D80027"/>
<path d="M3.51471 3.51465C-1.17157 8.20093 -1.17157 15.7989 3.51471 20.4853C5.45126 18.5487 7.31374 16.6862 12 12L3.51471 3.51465Z" fill="black"/>
<path d="M3.32659 9.25098L5.15284 10.9794L7.36103 9.77635L6.28173 12.0474L8.10803 13.7759L5.61456 13.4511L4.53513 15.7222L4.07355 13.2504L1.58008 12.9255L3.78817 11.7226L3.32659 9.25098Z" fill="#F0F0F0"/>
</g>
<defs>
<clipPath id="clip0_1518_9917">
<rect width="24" height="24" fill="white"/>
</clipPath>
</defs>
</svg>
