<svg width="24" height="24" viewBox="0 0 24 24" fill="none" xmlns="http://www.w3.org/2000/svg">
<g clip-path="url(#clip0_1518_9945)">
<path d="M12 24C18.6274 24 24 18.6274 24 12C24 5.37258 18.6274 0 12 0C5.37258 0 0 5.37258 0 12C0 18.6274 5.37258 24 12 24Z" fill="#F0F0F0"/>
<path d="M7.30486 7.82611H23.2541C21.5586 3.2565 17.16 0 12.0005 0C8.68673 0 5.68706 1.34339 3.51562 3.51511L7.30486 7.82611Z" fill="#6DA544"/>
<path d="M7.30486 16.1738H23.2541C21.5586 20.7434 17.16 23.9999 12.0005 23.9999C8.68673 23.9999 5.68706 22.6565 3.51562 20.4848L7.30486 16.1738Z" fill="#D80027"/>
<path d="M3.51471 3.51465C-1.17157 8.20093 -1.17157 15.7989 3.51471 20.4853C5.45126 18.5487 7.31374 16.6862 12 12L3.51471 3.51465Z" fill="#0052B4"/>
<path d="M14.0879 9.91309V12.5218C14.0879 14.1193 16.1749 14.6088 16.1749 14.6088C16.1749 14.6088 18.2618 14.1193 18.2618 12.5218V9.91309H14.0879Z" fill="#DEDDE0"/>
<path d="M15.6523 12.0518H16.6958V13.5648H15.6523V12.0518Z" fill="#786145"/>
<path d="M17.2181 11.4781C17.2181 10.9017 16.7509 10.4346 16.1746 10.4346C15.5982 10.4346 15.1311 10.9017 15.1311 11.4781C14.843 11.4781 14.6094 11.7116 14.6094 11.9998C14.6094 12.2879 14.843 12.5215 15.1311 12.5215H17.2181C17.5062 12.5215 17.7398 12.2879 17.7398 11.9998C17.7398 11.7116 17.5062 11.4781 17.2181 11.4781Z" fill="#6DA544"/>
</g>
<defs>
<clipPath id="clip0_1518_9945">
<rect width="24" height="24" fill="white"/>
</clipPath>
</defs>
</svg>
