<svg width="24" height="24" viewBox="0 0 24 24" fill="none" xmlns="http://www.w3.org/2000/svg">
<g clip-path="url(#clip0_1518_9953)">
<path d="M10.9575 10.9561C10.9575 10.9561 3.52266 20.4865 3.51562 20.4848C5.68716 22.6564 8.6872 23.9995 12.0009 23.9995C18.6283 23.9995 24.0009 18.6269 24.0009 11.9995L10.9575 10.9561Z" fill="#338AF3"/>
<path d="M10.9575 12C10.9575 12 3.52266 3.51305 3.51562 3.51473C5.68716 1.34316 8.6872 0 12.0009 0C18.6283 0 24.0009 5.37262 24.0009 12H10.9575Z" fill="#6DA544"/>
<path d="M3.51471 3.51465C-1.17157 8.20093 -1.17157 15.7989 3.51471 20.4853C3.51438 20.4872 24 12 24 12L3.51471 3.51465Z" fill="#D80027"/>
<path d="M6.26178 7.04395C3.96027 7.04395 2.08789 8.91637 2.08789 11.2178V12.783C2.08789 15.0846 3.96031 16.9569 6.26178 16.9569C8.56325 16.9569 10.4357 15.0845 10.4357 12.783V11.2178C10.4357 8.91637 8.5633 7.04395 6.26178 7.04395ZM8.87047 12.7831C8.87047 13.949 8.10162 14.9384 7.04436 15.2717V13.5657L8.15173 12.4583L7.04497 11.3516L7.04436 10.9577V10.4353H5.4792V12.0005L4.37258 13.107L5.4792 14.2136V15.2717C4.42194 14.9385 3.65309 13.949 3.65309 12.7831V11.2179C3.65309 9.77948 4.82337 8.60924 6.26178 8.60924C7.70019 8.60924 8.87047 9.77952 8.87047 11.2179V12.7831Z" fill="#FFDA44"/>
</g>
<defs>
<clipPath id="clip0_1518_9953">
<rect width="24" height="24" fill="white"/>
</clipPath>
</defs>
</svg>
