<svg width="24" height="24" viewBox="0 0 24 24" fill="none" xmlns="http://www.w3.org/2000/svg">
<g clip-path="url(#clip0_1518_9970)">
<path d="M12 24C18.6274 24 24 18.6274 24 12C24 5.37258 18.6274 0 12 0C5.37258 0 0 5.37258 0 12C0 18.6274 5.37258 24 12 24Z" fill="#0052B4"/>
<path d="M11.9993 4.69531L12.3878 5.89105H13.645L12.6279 6.63003L13.0164 7.82577L11.9993 7.08673L10.9821 7.82577L11.3707 6.63003L10.3535 5.89105H11.6107L11.9993 4.69531Z" fill="#FFDA44"/>
<path d="M6.83377 6.83479L7.95408 7.40554L8.84306 6.5166L8.64633 7.75832L9.76659 8.32912L8.52483 8.5258L8.32814 9.76762L7.75734 8.64735L6.51562 8.84409L7.40461 7.9551L6.83377 6.83479Z" fill="#FFDA44"/>
<path d="M4.69531 11.9993L5.89105 11.6107V10.3535L6.62998 11.3707L7.82577 10.9822L7.08669 11.9993L7.82577 13.0164L6.62998 12.6279L5.89105 13.6451V12.3878L4.69531 11.9993Z" fill="#FFDA44"/>
<path d="M6.83377 17.1642L7.40456 16.0439L6.51562 15.1549L7.75739 15.3517L8.32809 14.2314L8.52483 15.4732L9.76655 15.6699L8.64642 16.2407L8.84306 17.4824L7.95408 16.5934L6.83377 17.1642Z" fill="#FFDA44"/>
<path d="M11.9993 19.3042L11.6107 18.1085H10.3535L11.3707 17.3695L10.9821 16.1738L11.9993 16.9128L13.0164 16.1738L12.6279 17.3695L13.645 18.1085H12.3878L11.9993 19.3042Z" fill="#FFDA44"/>
<path d="M17.1652 17.1642L16.0449 16.5935L15.1559 17.4825L15.3526 16.2406L14.2324 15.6699L15.4741 15.4732L15.6708 14.2314L16.2416 15.3517L17.4833 15.1549L16.5943 16.044L17.1652 17.1642Z" fill="#FFDA44"/>
<path d="M19.3042 11.9993L18.1085 12.3878V13.6451L17.3695 12.6279L16.1738 13.0164L16.9128 11.9993L16.1738 10.9822L17.3695 11.3707L18.1085 10.3535V11.6108L19.3042 11.9993Z" fill="#FFDA44"/>
<path d="M17.1652 6.83474L16.5944 7.95506L17.4833 8.84404L16.2415 8.64726L15.6708 9.76752L15.4741 8.52576L14.2324 8.32902L15.3526 7.75827L15.1559 6.5166L16.0449 7.40554L17.1652 6.83474Z" fill="#FFDA44"/>
</g>
<defs>
<clipPath id="clip0_1518_9970">
<rect width="24" height="24" fill="white"/>
</clipPath>
</defs>
</svg>
