<svg width="24" height="24" viewBox="0 0 24 24" fill="none" xmlns="http://www.w3.org/2000/svg">
<g clip-path="url(#clip0_1518_9981)">
<path d="M24 12C24 18.6274 18.6274 24 12 24C5.37262 24 0 18.6274 0 12C0 12.0029 12 0.0013125 12 0C18.6274 0 24 5.37262 24 12Z" fill="#0052B4"/>
<path d="M11.9688 11.9999H12.0009C12.0009 11.9891 12.0009 11.9786 12.0009 11.9678C11.9902 11.9785 11.9795 11.9892 11.9688 11.9999Z" fill="#F0F0F0"/>
<path d="M12 6.26086C12 4.14937 12 2.76586 12 0H11.998C5.3715 0.001125 0 5.37323 0 12H6.26086V8.47448L9.78642 12H11.9679L12 11.9679C12 11.1594 12 10.4381 12 9.78647L8.47444 6.26086H12Z" fill="#F0F0F0"/>
<path d="M6.07027 1.56543C4.19344 2.63413 2.63316 4.19441 1.56445 6.07124V12.0002H4.69491V4.69598V4.69588H11.9993C11.9993 3.70855 11.9993 2.76796 11.9993 1.56543H6.07027Z" fill="#D80027"/>
<path d="M11.9989 10.5242L7.73544 6.26074H6.25977V6.26084L11.9988 11.9998H11.9989C11.9989 11.9998 11.9989 10.9823 11.9989 10.5242Z" fill="#D80027"/>
<path d="M19.3036 14.0869V14.6086H15.1297V14.0869H13.5645V16.1738H14.6079V16.6956H19.8254V16.1738H20.8688V14.0869H19.3036Z" fill="#FFDA44"/>
<path d="M13.5645 6.26074V11.9999C13.5645 14.7955 17.2166 15.6521 17.2166 15.6521C17.2166 15.6521 20.8688 14.7955 20.8688 11.9999V6.26074H13.5645Z" fill="#338AF3"/>
<path d="M17.2164 10.541C16.3034 10.541 16.3034 11.3758 15.3904 11.3758C14.4774 11.3758 14.4774 10.541 13.5645 10.541V12.0019C14.4774 12.0019 14.4774 12.8367 15.3904 12.8367C16.3034 12.8367 16.3034 12.0019 17.2164 12.0019C18.1295 12.0019 18.1295 12.8367 19.0426 12.8367C19.9557 12.8367 19.9557 12.0019 20.8688 12.0019V10.541C19.9557 10.541 19.9557 11.3758 19.0426 11.3758C18.1295 11.3758 18.1295 10.541 17.2164 10.541Z" fill="#F3F3F3"/>
<path d="M17.2164 7.61719C16.3034 7.61719 16.3034 8.45198 15.3904 8.45198C14.4774 8.45198 14.4774 7.61719 13.5645 7.61719V9.07805C14.4774 9.07805 14.4774 9.91284 15.3904 9.91284C16.3034 9.91284 16.3034 9.07805 17.2164 9.07805C18.1295 9.07805 18.1295 9.91284 19.0426 9.91284C19.9557 9.91284 19.9557 9.07805 20.8688 9.07805V7.61719C19.9557 7.61719 19.9557 8.45198 19.0426 8.45198C18.1295 8.45198 18.1295 7.61719 17.2164 7.61719Z" fill="#F3F3F3"/>
</g>
<defs>
<clipPath id="clip0_1518_9981">
<rect width="24" height="24" fill="white"/>
</clipPath>
</defs>
</svg>
