<svg width="24" height="24" viewBox="0 0 24 24" fill="none" xmlns="http://www.w3.org/2000/svg">
<g clip-path="url(#clip0_1518_10061)">
<path d="M12 24C18.6274 24 24 18.6274 24 12C24 5.37258 18.6274 0 12 0C5.37258 0 0 5.37258 0 12C0 18.6274 5.37258 24 12 24Z" fill="#F9F9F9"/>
<path d="M11.9998 23.9999C17.1593 23.9999 21.5578 20.7434 23.2533 16.1738H0.746094C2.44166 20.7434 6.84013 23.9999 11.9998 23.9999Z" fill="#D80027"/>
<path d="M16.6946 9.91329V8.34809H17.2163V7.3046H16.1728V7.82637H15.1294V7.3046H14.0859V8.34809H14.6076V9.91329H13.5641V6.26121H14.0859V5.21777H13.0424V5.7394H12.5206V5.21777H11.4772V5.7394H10.9554V5.21777H9.91194V6.26121H10.4337V9.91329H9.39022V8.34809H9.91194V7.3046H8.86845V7.82637H7.82502V7.3046H6.78153V8.34809H7.30325V9.91329H6.25977V14.0872H17.738V9.91329H16.6946Z" fill="#D80027"/>
<path d="M11.999 13.5654C11.1346 13.5654 10.4338 14.2662 10.4338 15.1306C10.4338 15.812 10.8695 16.3916 11.4773 16.6064V18.7829H9.91211V20.8698H12.5208V16.6065C13.1286 16.3916 13.5643 15.8121 13.5643 15.1307C13.5642 14.2663 12.8635 13.5654 11.999 13.5654ZM11.999 15.6524C11.7109 15.6524 11.4773 15.4188 11.4773 15.1307C11.4773 14.8425 11.7109 14.609 11.999 14.609C12.2872 14.609 12.5208 14.8425 12.5208 15.1307C12.5208 15.4188 12.2872 15.6524 11.999 15.6524Z" fill="#FFDA44"/>
</g>
<defs>
<clipPath id="clip0_1518_10061">
<rect width="24" height="24" fill="white"/>
</clipPath>
</defs>
</svg>
