<svg width="24" height="24" viewBox="0 0 24 24" fill="none" xmlns="http://www.w3.org/2000/svg">
<g clip-path="url(#clip0_1518_10080)">
<path d="M12 24C18.6274 24 24 18.6274 24 12C24 5.37258 18.6274 0 12 0C5.37258 0 0 5.37258 0 12C0 18.6274 5.37258 24 12 24Z" fill="#FFDA44"/>
<path d="M5.23633 2.08697C7.16219 0.770438 9.49084 0 11.9998 0C14.5087 0 16.8374 0.770438 18.7632 2.08697L11.9998 2.60869L5.23633 2.08697Z" fill="#A2001D"/>
<path d="M12.0004 12.0002L11.2346 11.2344L11.0312 11.5986L12.0004 12.0002Z" fill="#0052B4"/>
<path d="M3.51471 3.51465C-1.17157 8.20093 -1.17157 15.7989 3.51471 20.4853C5.45126 18.5487 7.31374 16.6862 12 12L3.51471 3.51465Z" fill="#496E2D"/>
<path d="M20.4853 3.51465C25.1716 8.20093 25.1716 15.7989 20.4853 20.4853C18.5488 18.5487 16.6863 16.6862 12 12L20.4853 3.51465Z" fill="#496E2D"/>
<path d="M12.0001 16.174C14.3052 16.174 16.174 14.3052 16.174 12.0001C16.174 9.69489 14.3052 7.82617 12.0001 7.82617C9.69489 7.82617 7.82617 9.69489 7.82617 12.0001C7.82617 14.3052 9.69489 16.174 12.0001 16.174Z" fill="#A2001D"/>
<path d="M12.0006 7.82617L12.9362 10.7057H15.9642L13.5146 12.4856L14.4502 15.3653L12.0006 13.5856L9.55094 15.3653L10.4867 12.4856L8.03711 10.7057H11.065L12.0006 7.82617Z" fill="#FFDA44"/>
<path d="M12.0043 0H11.9963C8.68444 0.00107812 5.68627 1.34372 3.51562 3.51413H20.485C18.3143 1.34372 15.3161 0.00107812 12.0043 0Z" fill="#A2001D"/>
<path d="M3.51562 20.4863C5.68716 22.6575 8.68688 24.0004 12.0002 24.0004C15.3136 24.0004 18.3133 22.6575 20.4848 20.4863H3.51562Z" fill="#A2001D"/>
<path d="M11.9987 1.30469L12.193 1.90253H12.8216L12.313 2.27205L12.5073 2.86989L11.9987 2.50042L11.4901 2.86989L11.6844 2.27205L11.1758 1.90253H11.8044L11.9987 1.30469Z" fill="#FFDA44"/>
<path d="M9.08852 1.30469L9.28281 1.90253H9.91141L9.40286 2.27205L9.59716 2.86989L9.08852 2.50042L8.58002 2.86989L8.77427 2.27205L8.26562 1.90253H8.89422L9.08852 1.30469Z" fill="#FFDA44"/>
<path d="M14.9088 1.30469L15.1031 1.90253H15.7317L15.2232 2.27205L15.4175 2.86989L14.9088 2.50042L14.4003 2.86989L14.5946 2.27205L14.0859 1.90253H14.7145L14.9088 1.30469Z" fill="#FFDA44"/>
<path d="M11.9987 21.1309L12.193 21.7287H12.8216L12.313 22.0982L12.5073 22.6961L11.9987 22.3265L11.4901 22.6961L11.6844 22.0982L11.1758 21.7287H11.8044L11.9987 21.1309Z" fill="#FFDA44"/>
<path d="M9.08852 21.1309L9.28281 21.7287H9.91141L9.40286 22.0982L9.59716 22.6961L9.08852 22.3265L8.58002 22.6961L8.77427 22.0982L8.26562 21.7287H8.89422L9.08852 21.1309Z" fill="#FFDA44"/>
<path d="M14.9088 21.1309L15.1031 21.7287H15.7317L15.2232 22.0982L15.4175 22.6961L14.9088 22.3265L14.4003 22.6961L14.5946 22.0982L14.0859 21.7287H14.7145L14.9088 21.1309Z" fill="#FFDA44"/>
<path d="M3.65566 11.8019C3.96386 12.2889 3.81902 12.9335 3.33203 13.2417C2.8451 13.55 2.20047 13.4051 1.89222 12.9182C1.33417 12.0365 1.65775 10.5967 1.65775 10.5967C1.65775 10.5967 3.09756 10.9203 3.65566 11.8019Z" fill="#FFDA44"/>
<path d="M3.05297 13.3227C3.34111 13.3227 3.57469 13.0892 3.57469 12.801C3.57469 12.5129 3.34111 12.2793 3.05297 12.2793C2.76483 12.2793 2.53125 12.5129 2.53125 12.801C2.53125 13.0892 2.76483 13.3227 3.05297 13.3227Z" fill="#A2001D"/>
</g>
<defs>
<clipPath id="clip0_1518_10080">
<rect width="24" height="24" fill="white"/>
</clipPath>
</defs>
</svg>
