<svg width="24" height="24" viewBox="0 0 24 24" fill="none" xmlns="http://www.w3.org/2000/svg">
<g clip-path="url(#clip0_1518_10143)">
<path d="M24 12C24 18.6274 18.6274 24 12 24C5.37262 24 0 18.6274 0 12C0 5.37262 12 0 12 0C12 0 24 5.37262 24 12Z" fill="#A2001D"/>
<path d="M0 12C0 5.37262 5.37262 0 12 0C18.6274 0 24 5.37262 24 12" fill="#0052B4"/>
<path d="M16.174 15.13L12.0001 14.6083L7.82617 15.13V8.86914H16.174V15.13Z" fill="#F0F0F0"/>
<path d="M11.9991 14.6085C13.1517 14.6085 14.086 13.6741 14.086 12.5215C14.086 11.3689 13.1517 10.4346 11.9991 10.4346C10.8465 10.4346 9.91211 11.3689 9.91211 12.5215C9.91211 13.6741 10.8465 14.6085 11.9991 14.6085Z" fill="#0052B4"/>
<path d="M12.0005 13.5655C12.5768 13.5655 13.044 13.0983 13.044 12.522C13.044 11.9457 12.5768 11.4785 12.0005 11.4785C11.4242 11.4785 10.957 11.9457 10.957 12.522C10.957 13.0983 11.4242 13.5655 12.0005 13.5655Z" fill="#A2001D"/>
<path d="M10.4355 9.91309H13.566L12.0008 11.4783L10.4355 9.91309Z" fill="#6DA544"/>
<path d="M11.4785 10.9561H12.522V14.0865H11.4785V10.9561Z" fill="#FFDA44"/>
<path d="M13.6696 13.7734H10.3304L7.82617 15.13H16.174L13.6696 13.7734Z" fill="#6DA544"/>
</g>
<defs>
<clipPath id="clip0_1518_10143">
<rect width="24" height="24" fill="white"/>
</clipPath>
</defs>
</svg>
