<svg width="24" height="24" viewBox="0 0 24 24" fill="none" xmlns="http://www.w3.org/2000/svg">
<g clip-path="url(#clip0_1518_10152)">
<path d="M12 24C18.6274 24 24 18.6274 24 12C24 5.37258 18.6274 0 12 0C5.37258 0 0 5.37258 0 12C0 18.6274 5.37258 24 12 24Z" fill="#F0F0F0"/>
<path d="M12.0007 24C15.0437 24 17.8216 22.8668 19.9369 21H4.06445C6.17978 22.8668 8.95769 24 12.0007 24Z" fill="#D80027"/>
<path d="M0.378906 14.9999C0.652891 16.0643 1.06942 17.0714 1.60661 17.9999H22.3951C22.9323 17.0714 23.3488 16.0643 23.6228 14.9999L12.0009 14.0869L0.378906 14.9999Z" fill="#0052B4"/>
<path d="M23.6232 9C23.3492 7.93566 22.9326 6.92859 22.3955 6L12.0012 5.73914C12.0012 3.64322 12.0012 1.66242 12.0012 0C11.1098 0 10.241 0.0972656 9.40498 0.281625C9.38895 0.285188 1.56641 6.45553 1.56641 12C1.76642 12.0348 12.0012 13.0435 12.0012 13.0435C12.0012 13.0435 12.0012 10.7578 12.0012 9H23.6232Z" fill="#0052B4"/>
<path d="M12 7.48677V1.48677H8.19961L9.40416 0.282227C4.45927 1.37282 0.659813 5.51301 0.0782812 10.6303C0.0271875 11.0798 0 11.5366 0 11.9998H6.07828V9.6081L8.49366 11.9998H12.7867L8.19956 7.48677H12Z" fill="#F0F0F0"/>
<path d="M12.0055 12.0004L7.49245 7.48736H6.07828V7.48741L10.5913 12.0004H4.5652V6.00039H22.3942C21.7409 4.87103 20.9085 3.85834 19.9363 3.00039H4.5652V2.58203C3.35452 3.53908 2.33302 4.72445 1.5652 6.07323V12.0004H0C0 13.0363 0.13125 14.0416 0.378047 15.0004H23.622C23.8687 14.0415 24 13.0363 24 12.0004H12.0055Z" fill="#D80027"/>
</g>
<defs>
<clipPath id="clip0_1518_10152">
<rect width="24" height="24" fill="white"/>
</clipPath>
</defs>
</svg>
