<svg width="24" height="24" viewBox="0 0 24 24" fill="none" xmlns="http://www.w3.org/2000/svg">
<g clip-path="url(#clip0_1518_10160)">
<path d="M12 24C18.6274 24 24 18.6274 24 12C24 5.37258 18.6274 0 12 0C5.37258 0 0 5.37258 0 12C0 18.6274 5.37258 24 12 24Z" fill="#F0F0F0"/>
<path d="M12.0007 24.0004C16.7582 24.0004 20.869 21.2317 22.81 17.2178H1.19141C3.13241 21.2317 7.24316 24.0004 12.0007 24.0004Z" fill="#338AF3"/>
<path d="M12.0007 0C7.24316 0 3.13241 2.76867 1.19141 6.78263H22.8099C20.869 2.76867 16.7582 0 12.0007 0Z" fill="#338AF3"/>
<path d="M7.38602 7.82617L7.77452 9.02191H9.03175L8.01466 9.76084L8.4032 10.9566L7.38602 10.2176L6.36883 10.9566L6.75738 9.76084L5.74023 9.02191H6.99747L7.38602 7.82617Z" fill="#338AF3"/>
<path d="M7.38602 13.0439L7.77452 14.2397H9.03175L8.01466 14.9787L8.4032 16.1744L7.38602 15.4354L6.36883 16.1744L6.75738 14.9787L5.74023 14.2397H6.99747L7.38602 13.0439Z" fill="#338AF3"/>
<path d="M16.6165 7.82617L17.005 9.02191H18.2623L17.2451 9.76084L17.6337 10.9566L16.6165 10.2176L15.5993 10.9566L15.9878 9.76084L14.9707 9.02191H16.228L16.6165 7.82617Z" fill="#338AF3"/>
<path d="M16.6165 13.0439L17.005 14.2397H18.2623L17.2451 14.9787L17.6337 16.1744L16.6165 15.4354L15.5993 16.1744L15.9878 14.9787L14.9707 14.2397H16.228L16.6165 13.0439Z" fill="#338AF3"/>
<path d="M12.0013 10.4346L12.3898 11.6304H13.647L12.6299 12.3693L13.0184 13.565L12.0013 12.826L10.9841 13.565L11.3726 12.3693L10.3555 11.6304H11.6127L12.0013 10.4346Z" fill="#338AF3"/>
</g>
<defs>
<clipPath id="clip0_1518_10160">
<rect width="24" height="24" fill="white"/>
</clipPath>
</defs>
</svg>
