<svg width="24" height="24" viewBox="0 0 24 24" fill="none" xmlns="http://www.w3.org/2000/svg">
<g clip-path="url(#clip0_1518_10190)">
<path d="M12 24C18.6274 24 24 18.6274 24 12C24 5.37258 18.6274 0 12 0C5.37258 0 0 5.37258 0 12C0 18.6274 5.37258 24 12 24Z" fill="#F0F0F0"/>
<path d="M12.0007 0C7.24316 0 3.13241 2.76867 1.19141 6.78263H22.8099C20.869 2.76867 16.7582 0 12.0007 0Z" fill="#FF9811"/>
<path d="M12.0007 24.0004C16.7582 24.0004 20.869 21.2317 22.81 17.2178H1.19141C3.13241 21.2317 7.24316 24.0004 12.0007 24.0004Z" fill="#6DA544"/>
<path d="M12.0001 16.174C14.3052 16.174 16.174 14.3052 16.174 12.0001C16.174 9.69489 14.3052 7.82617 12.0001 7.82617C9.69489 7.82617 7.82617 9.69489 7.82617 12.0001C7.82617 14.3052 9.69489 16.174 12.0001 16.174Z" fill="#0052B4"/>
<path d="M11.9993 14.609C13.4401 14.609 14.608 13.441 14.608 12.0003C14.608 10.5596 13.4401 9.3916 11.9993 9.3916C10.5586 9.3916 9.39062 10.5596 9.39062 12.0003C9.39062 13.441 10.5586 14.609 11.9993 14.609Z" fill="#F0F0F0"/>
<path d="M12.0007 8.78125L12.8055 10.6065L14.7885 10.3908L13.6102 12.0003L14.7885 13.6099L12.8055 13.3942L12.0007 15.2194L11.1959 13.3942L9.21289 13.6098L10.3911 12.0003L9.21289 10.3908L11.1959 10.6065L12.0007 8.78125Z" fill="#0052B4"/>
</g>
<defs>
<clipPath id="clip0_1518_10190">
<rect width="24" height="24" fill="white"/>
</clipPath>
</defs>
</svg>
