<svg width="24" height="24" viewBox="0 0 24 24" fill="none" xmlns="http://www.w3.org/2000/svg">
<g clip-path="url(#clip0_1518_10200)">
<path d="M12 24C18.6274 24 24 18.6274 24 12C24 5.37258 18.6274 0 12 0C5.37258 0 0 5.37258 0 12C0 18.6274 5.37258 24 12 24Z" fill="#F0F0F0"/>
<path d="M15.8966 8.86919H14.3265C14.3395 9.04173 14.3469 9.21583 14.3469 9.39091C14.3469 10.5517 14.0567 11.6769 13.5509 12.4778C13.3949 12.7248 13.1326 13.0736 12.7816 13.309V8.86914H11.2164V13.309C10.8655 13.0736 10.6032 12.7248 10.4472 12.4778C9.9413 11.6769 9.65119 10.5517 9.65119 9.39091C9.65119 9.21583 9.65859 9.04169 9.67153 8.86919H8.1015C8.09142 9.04089 8.08594 9.2148 8.08594 9.39091C8.08594 12.6092 9.80475 15.13 11.999 15.13C14.1932 15.13 15.912 12.6092 15.912 9.39091C15.9121 9.2148 15.9066 9.04089 15.8966 8.86919Z" fill="#D80027"/>
<path d="M4.9572 5.73914H6.52241V6.78263H8.08761V5.73914H9.65281V6.78263H11.218V5.73914H12.7832V6.78263H14.3484V5.73914H15.9136V6.78263H17.4788V5.73914H19.044V6.78263H22.8098C20.869 2.76867 16.7582 0 12.0007 0C7.2432 0 3.13241 2.76867 1.19141 6.78263H4.9572V5.73914Z" fill="#6DA544"/>
<path d="M19.0442 17.2178V18.2613H17.479V17.2178H15.9138V18.2613H14.3486V17.2178H12.7834V18.2613H11.2182V17.2178H9.65295V18.2613H8.08775V17.2178H6.52241V18.2613H4.9572V17.2178H1.19141C3.13241 21.2317 7.24316 24.0004 12.0007 24.0004C16.7582 24.0004 20.869 21.2317 22.81 17.2178H19.0442Z" fill="#D80027"/>
</g>
<defs>
<clipPath id="clip0_1518_10200">
<rect width="24" height="24" fill="white"/>
</clipPath>
</defs>
</svg>
