<svg width="24" height="24" viewBox="0 0 24 24" fill="none" xmlns="http://www.w3.org/2000/svg">
<g clip-path="url(#clip0_1518_10217)">
<path d="M12 24C18.6274 24 24 18.6274 24 12C24 5.37258 18.6274 0 12 0C5.37258 0 0 5.37258 0 12C0 18.6274 5.37258 24 12 24Z" fill="#D80027"/>
<path d="M16.4437 8.04441L15.5955 11.0712L13.0507 10.6013L11.4126 7.22461L6.98727 8.79497L6.63828 7.81153L5.48047 7.66889L6.35286 10.1274L9.39828 9.34861L10.2637 11.7875L8.15848 14.8944L11.7312 17.9416L11.054 18.7355L11.5093 19.8096L13.2024 17.8247L11.0052 15.5767L12.6845 13.6079L16.4279 13.8776L17.2805 9.25992L18.3066 9.44944L19.0092 8.51803L16.4437 8.04441Z" fill="#F0F0F0"/>
</g>
<defs>
<clipPath id="clip0_1518_10217">
<rect width="24" height="24" fill="white"/>
</clipPath>
</defs>
</svg>
