<svg width="24" height="24" viewBox="0 0 24 24" fill="none" xmlns="http://www.w3.org/2000/svg">
<g clip-path="url(#clip0_1518_10243)">
<path d="M12 24C18.6274 24 24 18.6274 24 12C24 5.37258 18.6274 0 12 0C5.37258 0 0 5.37258 0 12C0 18.6274 5.37258 24 12 24Z" fill="#F0F0F0"/>
<path d="M21.5209 19.3064L14.2143 11.9998H14.2142L21.5209 4.69302C21.2058 4.28352 20.861 3.88954 20.486 3.5144C20.1109 3.1393 19.7169 2.79454 19.3074 2.47949L12.0007 9.78613L12.0007 9.78618L4.69405 2.47949C4.28459 2.79459 3.89056 3.13926 3.51542 3.5144C3.14028 3.88954 2.79556 4.28352 2.48052 4.69302L9.78716 11.9996L9.7872 11.9997L2.48047 19.3064C2.79561 19.7159 3.14033 20.1099 3.51538 20.485C3.89052 20.8601 4.28445 21.2049 4.694 21.5199L12.0007 14.2133L12.0007 14.2132L19.3074 21.5199C19.7168 21.2048 20.1109 20.8601 20.486 20.485C20.8611 20.1098 21.2058 19.7158 21.5209 19.3064Z" fill="#D80027"/>
<path d="M9.91211 3.65263L11.9991 4.17435L14.086 3.65263V1.87874L13.2513 2.29612L11.9991 1.04395L10.7469 2.29612L9.91211 1.87874V3.65263Z" fill="#FFDA44"/>
<path d="M9.91211 3.65234V4.95678C9.91211 6.55428 11.9991 7.04375 11.9991 7.04375C11.9991 7.04375 14.086 6.55423 14.086 4.95678V3.65234H9.91211Z" fill="#D80027"/>
</g>
<defs>
<clipPath id="clip0_1518_10243">
<rect width="24" height="24" fill="white"/>
</clipPath>
</defs>
</svg>
