<svg width="24" height="24" viewBox="0 0 24 24" fill="none" xmlns="http://www.w3.org/2000/svg">
<g clip-path="url(#clip0_1518_10248)">
<path d="M12 24C18.6274 24 24 18.6274 24 12C24 5.37258 18.6274 0 12 0C5.37258 0 0 5.37258 0 12C0 18.6274 5.37258 24 12 24Z" fill="#F0F0F0"/>
<path d="M7.30486 7.82611H23.2541C21.5586 3.2565 17.16 0 12.0005 0C8.68673 0 5.68706 1.34339 3.51562 3.51511L7.30486 7.82611Z" fill="black"/>
<path d="M7.30486 16.1738H23.2541C21.5586 20.7434 17.16 23.9999 12.0005 23.9999C8.68673 23.9999 5.68706 22.6565 3.51562 20.4848L7.30486 16.1738Z" fill="#6DA544"/>
<path d="M3.51471 3.51465C-1.17157 8.20093 -1.17157 15.7989 3.51471 20.4853C5.45126 18.5487 7.31374 16.6862 12 12L3.51471 3.51465Z" fill="#D80027"/>
<path d="M4.76366 9.3916L5.4222 10.7687L6.9095 10.425L6.24341 11.7985L7.43942 12.747L5.95034 13.0825L5.95447 14.609L4.76366 13.654L3.5728 14.609L3.57697 13.0825L2.08789 12.747L3.28386 11.7985L2.61786 10.425L4.10506 10.7687L4.76366 9.3916Z" fill="#F0F0F0"/>
</g>
<defs>
<clipPath id="clip0_1518_10248">
<rect width="24" height="24" fill="white"/>
</clipPath>
</defs>
</svg>
