<svg width="24" height="24" viewBox="0 0 24 24" fill="none" xmlns="http://www.w3.org/2000/svg">
<g clip-path="url(#clip0_1518_10254)">
<path d="M12 24C18.6274 24 24 18.6274 24 12C24 5.37258 18.6274 0 12 0C5.37258 0 0 5.37258 0 12C0 18.6274 5.37258 24 12 24Z" fill="#338AF3"/>
<path d="M18.782 12.1309H5.2168C5.2168 13.0674 6.03247 13.8265 6.96889 13.8265H6.91245C6.91245 14.763 7.67159 15.5222 8.60811 15.5222C8.60811 16.4587 9.36725 17.2178 10.3038 17.2178H13.6951C14.6316 17.2178 15.3907 16.4587 15.3907 15.5222C16.3272 15.5222 17.0864 14.763 17.0864 13.8265H17.03C17.9663 13.8265 18.782 13.0674 18.782 12.1309Z" fill="#FFDA44"/>
<path d="M16.696 9.91309C16.696 12.5064 14.5937 14.6087 12.0003 14.6087C9.40698 14.6087 7.30469 12.5064 7.30469 9.91309" fill="#338AF3"/>
<path d="M15.5873 9.91287L14.1218 10.6023L14.9022 12.0216L13.3108 11.7172L13.1092 13.3248L12.0007 12.1424L10.8922 13.3248L10.6906 11.7172L9.09919 12.0215L9.87956 10.6022L8.41406 9.91287L9.87961 9.22352L9.09919 7.8042L10.6905 8.1086L10.8922 6.50098L12.0007 7.6834L13.1092 6.50098L13.3108 8.1086L14.9023 7.8042L14.1218 9.22357L15.5873 9.91287Z" fill="#FFDA44"/>
</g>
<defs>
<clipPath id="clip0_1518_10254">
<rect width="24" height="24" fill="white"/>
</clipPath>
</defs>
</svg>
