<svg width="24" height="24" viewBox="0 0 24 24" fill="none" xmlns="http://www.w3.org/2000/svg">
<g clip-path="url(#clip0_1518_10259)">
<path d="M12 24C18.6274 24 24 18.6274 24 12C24 5.37258 18.6274 0 12 0C5.37258 0 0 5.37258 0 12C0 18.6274 5.37258 24 12 24Z" fill="#F0F0F0"/>
<path d="M12.0007 0C7.24316 0 3.13241 2.76867 1.19141 6.78263H22.8099C20.869 2.76867 16.7582 0 12.0007 0Z" fill="black"/>
<path d="M12.0007 24.0004C7.24316 24.0004 3.13241 21.2317 1.19141 17.2178H22.8099C20.869 21.2317 16.7582 24.0004 12.0007 24.0004Z" fill="#496E2D"/>
<path d="M23.4333 8.34766H0.566672C0.199078 9.49933 0 10.7263 0 11.9998C0 13.2734 0.199078 14.5003 0.566672 15.652H23.4333C23.8009 14.5003 24 13.2734 24 11.9998C24 10.7263 23.8009 9.49933 23.4333 8.34766Z" fill="#A2001D"/>
<path d="M15.737 5.54557L14.3158 4.88965L12.0003 10.1327L9.68478 4.88965L8.26367 5.54557L11.1384 12.0002L8.26367 18.4549L9.68478 19.1108L12.0003 13.8678L14.3158 19.1108L15.737 18.4549L12.8622 12.0002L15.737 5.54557Z" fill="#F0F0F0"/>
<path d="M12.9656 6.16395C12.4154 5.56315 12.0004 5.21777 12.0004 5.21777C12.0004 5.21777 11.5853 5.5631 11.0352 6.16395V17.8368C11.5853 18.4376 12.0004 18.783 12.0004 18.783C12.0004 18.783 12.4154 18.4377 12.9656 17.8368V6.16395Z" fill="#F0F0F0"/>
<path d="M9.39062 8.4019V15.5978C9.97197 16.6279 10.6835 17.4722 11.2167 18.0319V5.96777C10.6835 6.52751 9.97192 7.37187 9.39062 8.4019Z" fill="#A2001D"/>
<path d="M14.6074 8.4019C14.026 7.37182 13.3145 6.52751 12.7812 5.96777V18.0319C13.3145 17.4722 14.026 16.6279 14.6074 15.5978V8.4019Z" fill="#A2001D"/>
<path d="M14.6094 8.40234V15.5982C15.1979 14.5553 15.6529 13.3221 15.6529 12.0003C15.6529 10.6786 15.1979 9.44531 14.6094 8.40234Z" fill="black"/>
<path d="M9.39114 8.40234V15.5982C8.80263 14.5553 8.34766 13.3221 8.34766 12.0003C8.34766 10.6786 8.80263 9.44531 9.39114 8.40234Z" fill="black"/>
</g>
<defs>
<clipPath id="clip0_1518_10259">
<rect width="24" height="24" fill="white"/>
</clipPath>
</defs>
</svg>
