<svg width="24" height="24" viewBox="0 0 24 24" fill="none" xmlns="http://www.w3.org/2000/svg">
<g clip-path="url(#clip0_1518_10283)">
<path d="M12 24C18.6274 24 24 18.6274 24 12C24 5.37258 18.6274 0 12 0C5.37258 0 0 5.37258 0 12C0 18.6274 5.37258 24 12 24Z" fill="#0052B4"/>
<path d="M5.27098 7.30469L5.53002 8.10194H6.36814L5.69009 8.59455L5.94908 9.39166L5.27098 8.89905L4.59284 9.39166L4.85192 8.59455L4.17383 8.10194H5.01191L5.27098 7.30469Z" fill="#F0F0F0"/>
<path d="M7.88031 6.52148L8.13934 7.31869H8.97747L8.29942 7.8113L8.55841 8.60841L7.88031 8.1158L7.20222 8.60841L7.46125 7.8113L6.7832 7.31869H7.62133L7.88031 6.52148Z" fill="#F0F0F0"/>
<path d="M10.4877 5.73926L10.7468 6.53646H11.5849L10.9068 7.02912L11.1658 7.82623L10.4877 7.33357L9.80964 7.82623L10.0687 7.02912L9.39062 6.53646H10.2287L10.4877 5.73926Z" fill="#F0F0F0"/>
<path d="M18.728 7.30469L18.469 8.10194H17.6309L18.309 8.59455L18.0499 9.39166L18.728 8.89905L19.4062 9.39166L19.1471 8.59455L19.8252 8.10194H18.987L18.728 7.30469Z" fill="#F0F0F0"/>
<path d="M16.1206 6.52148L15.8616 7.31869H15.0234L15.7015 7.8113L15.4425 8.60841L16.1206 8.1158L16.7987 8.60841L16.5397 7.8113L17.2177 7.31869H16.3796L16.1206 6.52148Z" fill="#F0F0F0"/>
<path d="M13.5112 5.73926L13.2522 6.53646H12.4141L13.0921 7.02912L12.8331 7.82623L13.5112 7.33357L14.1893 7.82623L13.9303 7.02912L14.6083 6.53646H13.7702L13.5112 5.73926Z" fill="#F0F0F0"/>
<path d="M14.0868 12.5218L11.9998 9.91309L10.9563 10.4348V11.4783L9.39114 12.5218H8.34766V13.8699C9.87709 14.4892 10.9563 15.9877 10.9563 17.7392H11.9998V16.6957L13.0433 15.6522L14.0868 16.6957L15.1303 15.6522V14.6087L16.1738 13.0435L14.0868 12.5218Z" fill="#FFDA44"/>
</g>
<defs>
<clipPath id="clip0_1518_10283">
<rect width="24" height="24" fill="white"/>
</clipPath>
</defs>
</svg>
