<svg width="24" height="24" viewBox="0 0 24 24" fill="none" xmlns="http://www.w3.org/2000/svg">
<g clip-path="url(#clip0_1518_10298)">
<path d="M12 24C18.6274 24 24 18.6274 24 12C24 5.37258 18.6274 0 12 0C5.37258 0 0 5.37258 0 12C0 18.6274 5.37258 24 12 24Z" fill="#D80027"/>
<path d="M17.8681 11.9996L15.4702 13.1275L16.7471 15.45L14.1431 14.9518L13.8133 17.5822L11.9994 15.6477L10.1857 17.5822L9.85578 14.9518L7.25197 15.4499L8.52884 13.1274L6.13086 11.9996L8.52884 10.8718L7.25197 8.5492L9.85569 9.04748L10.1858 6.41699L11.9994 8.35157L13.8133 6.41699L14.1431 9.04748L16.7472 8.5492L15.4702 10.8719L17.8681 11.9996Z" fill="#FFDA44"/>
<path d="M11.9998 15.652C14.0169 15.652 15.652 14.0169 15.652 11.9998C15.652 9.98279 14.0169 8.34766 11.9998 8.34766C9.98279 8.34766 8.34766 9.98279 8.34766 11.9998C8.34766 14.0169 9.98279 15.652 11.9998 15.652Z" fill="#D80027"/>
<path d="M10.1746 12C10.0867 12 9.9998 12.0045 9.91406 12.013C9.9172 12.5189 10.1002 12.9818 10.4025 13.3415C10.5637 12.9076 10.8045 12.5119 11.1081 12.1733C10.8181 12.0618 10.5035 12 10.1746 12Z" fill="#FFDA44"/>
<path d="M11.2988 13.9656C11.5182 14.044 11.7544 14.0869 12.0008 14.0869C12.2472 14.0869 12.4834 14.044 12.7027 13.9656C12.5832 13.4963 12.3363 13.0773 12.0008 12.748C11.6653 13.0773 11.4184 13.4963 11.2988 13.9656Z" fill="#FFDA44"/>
<path d="M13.8079 10.9569C13.447 10.3332 12.7731 9.91309 12.0006 9.91309C11.2281 9.91309 10.5542 10.3331 10.1934 10.9569C10.8512 10.9602 11.4681 11.1391 12.0006 11.448C12.5332 11.1391 13.15 10.9602 13.8079 10.9569Z" fill="#FFDA44"/>
<path d="M12.8926 12.1733C13.1962 12.5119 13.4369 12.9075 13.5982 13.3415C13.9004 12.9818 14.0834 12.5189 14.0866 12.013C14.0008 12.0045 13.9139 12 13.826 12C13.4972 12 13.1826 12.0617 12.8926 12.1733Z" fill="#FFDA44"/>
</g>
<defs>
<clipPath id="clip0_1518_10298">
<rect width="24" height="24" fill="white"/>
</clipPath>
</defs>
</svg>
