<svg width="24" height="24" viewBox="0 0 24 24" fill="none" xmlns="http://www.w3.org/2000/svg">
<g clip-path="url(#clip0_1518_10307)">
<path d="M22.81 6.78263C20.869 2.76867 16.7582 0 12.0007 0C7.24316 0 3.13241 2.76867 1.19141 6.78263L12.0007 7.82611L22.81 6.78263Z" fill="#D80027"/>
<path d="M1.19141 17.2173C3.13241 21.2313 7.24316 23.9999 12.0007 23.9999C16.7582 23.9999 20.869 21.2313 22.81 17.2173L12.0007 16.1738L1.19141 17.2173Z" fill="#D80027"/>
<path d="M22.8093 6.78223H1.19072C0.427875 8.3598 0 10.1297 0 11.9996C0 13.8695 0.427875 15.6394 1.19072 17.217H22.8092C23.5722 15.6394 24 13.8695 24 11.9996C24 10.1297 23.5722 8.3598 22.8093 6.78223Z" fill="#0052B4"/>
<path d="M12.0001 16.174C14.3052 16.174 16.174 14.3052 16.174 12.0001C16.174 9.69489 14.3052 7.82617 12.0001 7.82617C9.69489 7.82617 7.82617 9.69489 7.82617 12.0001C7.82617 14.3052 9.69489 16.174 12.0001 16.174Z" fill="#F0F0F0"/>
</g>
<defs>
<clipPath id="clip0_1518_10307">
<rect width="24" height="24" fill="white"/>
</clipPath>
</defs>
</svg>
