<svg width="24" height="24" viewBox="0 0 24 24" fill="none" xmlns="http://www.w3.org/2000/svg">
<g clip-path="url(#clip0_1518_10313)">
<path d="M12 24C18.6274 24 24 18.6274 24 12C24 5.37258 18.6274 0 12 0C5.37258 0 0 5.37258 0 12C0 18.6274 5.37258 24 12 24Z" fill="#F0F0F0"/>
<path d="M12.0007 0C6.45634 0 1.79106 3.76036 0.414062 8.86955H23.5873C22.2103 3.76036 17.545 0 12.0007 0Z" fill="#A2001D"/>
<path d="M12.0007 24.0004C17.545 24.0004 22.2103 20.24 23.5873 15.1309H0.414062C1.79106 20.24 6.45634 24.0004 12.0007 24.0004Z" fill="#A2001D"/>
</g>
<defs>
<clipPath id="clip0_1518_10313">
<rect width="24" height="24" fill="white"/>
</clipPath>
</defs>
</svg>
