<svg width="24" height="24" viewBox="0 0 24 24" fill="none" xmlns="http://www.w3.org/2000/svg">
<g clip-path="url(#clip0_1518_10324)">
<path d="M0 11.9999C0 13.8697 0.427828 15.6396 1.19072 17.2173L12 17.739L22.8093 17.2173C23.5722 15.6396 24 13.8697 24 11.9999C24 10.13 23.5722 8.36013 22.8093 6.78251L12 6.26074L1.19072 6.78246C0.427828 8.36013 0 10.13 0 11.9999H0Z" fill="#F0F0F0"/>
<path d="M12.0007 24.0004C16.7582 24.0004 20.869 21.2317 22.81 17.2178H1.19141C3.13241 21.2317 7.24316 24.0004 12.0007 24.0004Z" fill="#6DA544"/>
<path d="M12.0007 0C7.24316 0 3.13241 2.76867 1.19141 6.78263H22.8099C20.869 2.76867 16.7582 0 12.0007 0Z" fill="#0052B4"/>
<path d="M12.7818 11.7387V8.86914H11.2166V11.7387L9.32617 13.6292C9.87597 14.5292 10.8674 15.13 11.9993 15.13C13.1311 15.13 14.1225 14.5292 14.6724 13.6292L12.7818 11.7387Z" fill="black"/>
</g>
<defs>
<clipPath id="clip0_1518_10324">
<rect width="24" height="24" fill="white"/>
</clipPath>
</defs>
</svg>
