<svg width="24" height="24" viewBox="0 0 24 24" fill="none" xmlns="http://www.w3.org/2000/svg">
<g clip-path="url(#clip0_1518_10329)">
<path d="M12 24C18.6274 24 24 18.6274 24 12C24 5.37258 18.6274 0 12 0C5.37258 0 0 5.37258 0 12C0 18.6274 5.37258 24 12 24Z" fill="#F0F0F0"/>
<path d="M2.74219 4.36344H21.2563C20.5725 3.53539 19.7794 2.80109 18.8996 2.18164H5.09892C4.21913 2.801 3.42605 3.53534 2.74219 4.36344Z" fill="#F0F0F0"/>
<path d="M0 12.0001C0 12.3679 0.0174844 12.7315 0.049875 13.091H23.9501C23.9825 12.7315 24 12.3679 24 12.0001C24 11.6322 23.9825 11.2686 23.9501 10.9092H0.049875C0.0174844 11.2686 0 11.6322 0 12.0001H0Z" fill="#F0F0F0"/>
<path d="M1.30786 17.4542H22.6907C23.0441 16.763 23.3323 16.0331 23.5474 15.2725H0.451172C0.666281 16.0331 0.954563 16.763 1.30786 17.4542Z" fill="#F0F0F0"/>
<path d="M5.09892 21.8185H18.8995C19.7793 21.1991 20.5725 20.4648 21.2563 19.6367H2.74219C3.42605 20.4647 4.21913 21.1991 5.09892 21.8185Z" fill="#F0F0F0"/>
<path d="M0.451172 8.7277H23.5475C23.3324 7.96701 23.0441 7.23707 22.6908 6.5459H1.30791C0.954609 7.23707 0.666328 7.96701 0.451172 8.7277Z" fill="#F0F0F0"/>
<path d="M5.74023 2.1818H18.9014C16.9495 0.807516 14.5697 0 12.0011 0C10.4359 0 7.69211 0.807516 5.74023 2.1818Z" fill="#D80027"/>
<path d="M11.4785 6.54508H22.6917C22.2926 5.76447 21.8107 5.03327 21.2573 4.36328H11.4785V6.54508Z" fill="#D80027"/>
<path d="M11.4785 10.9093H23.9504C23.8829 10.1602 23.7472 9.43062 23.5484 8.72754H11.4785V10.9093Z" fill="#D80027"/>
<path d="M0.452781 15.2726H23.549C23.7479 14.5696 23.8835 13.84 23.951 13.0908H0.0507812C0.118281 13.84 0.253937 14.5695 0.452781 15.2726Z" fill="#D80027"/>
<path d="M2.74297 19.6359H21.2571C21.8105 18.9658 22.2924 18.2347 22.6915 17.4541H1.30859C1.70764 18.2347 2.18961 18.9659 2.74297 19.6359Z" fill="#D80027"/>
<path d="M11.9999 24.0002C14.5685 24.0002 16.9484 23.1926 18.9003 21.8184H5.09961C7.05148 23.1926 9.43133 24.0002 11.9999 24.0002Z" fill="#D80027"/>
<path d="M0.452734 8.72728C0.253891 9.43041 0.118281 10.1599 0.0507812 10.9091H12.0009V0C6.50809 0 1.87736 3.69056 0.452734 8.72728Z" fill="#0052B4"/>
<path d="M7.14308 3.13086L7.92003 5.52219H10.4347L8.40041 7.00025L9.17731 9.39172L7.14308 7.91375L5.10875 9.39172L5.88584 7.00025L3.85156 5.52219H6.36608L7.14308 3.13086Z" fill="#F0F0F0"/>
</g>
<defs>
<clipPath id="clip0_1518_10329">
<rect width="24" height="24" fill="white"/>
</clipPath>
</defs>
</svg>
