<svg width="24" height="24" viewBox="0 0 24 24" fill="none" xmlns="http://www.w3.org/2000/svg">
<g clip-path="url(#clip0_1518_10353)">
<path d="M24 11.9998C24 18.6271 18.6274 23.9998 12 23.9998C5.37262 23.9998 0 18.6271 0 11.9998C0.521719 11.9998 12 10.4346 12 10.4346L24 11.9998Z" fill="#D80027"/>
<path d="M0 12C0 5.37262 5.37262 0 12 0C18.6274 0 24 5.37262 24 12" fill="#0052B4"/>
<path d="M8.87023 8.34748C8.87023 7.48306 8.16945 6.78228 7.30503 6.78228C6.90402 6.78228 6.53853 6.93322 6.26155 7.18114V6.26052H6.78327V5.21703H6.26155V4.69531H5.21806V5.21703H4.69634V6.26052H5.21806V7.18114C4.94108 6.93322 4.57559 6.78228 4.17458 6.78228C3.31016 6.78228 2.60938 7.48306 2.60938 8.34748C2.60938 8.81094 2.81098 9.22719 3.13109 9.51383V10.4345H8.34847V9.51383C8.66867 9.22719 8.87023 8.81094 8.87023 8.34748Z" fill="#FFDA44"/>
</g>
<defs>
<clipPath id="clip0_1518_10353">
<rect width="24" height="24" fill="white"/>
</clipPath>
</defs>
</svg>
