<svg width="24" height="24" viewBox="0 0 24 24" fill="none" xmlns="http://www.w3.org/2000/svg">
<g clip-path="url(#clip0_1518_10381)">
<path d="M17.2165 1.19072C15.6389 0.427875 13.869 0 11.9991 0C10.1293 0 8.35939 0.427875 6.78177 1.19072L5.73828 12L6.78177 22.8093C8.35939 23.5721 10.1293 24 11.9991 24C13.869 24 15.6389 23.5721 17.2165 22.8093L18.26 12L17.2165 1.19072Z" fill="#FFDA44"/>
<path d="M6.78263 1.19141C2.76867 3.13236 0 7.24278 0 12.0003C0 16.7577 2.76867 20.8682 6.78263 22.8091V1.19141Z" fill="#0052B4"/>
<path d="M17.2168 1.19141V22.8091C21.2307 20.8682 23.9994 16.7577 23.9994 12.0003C23.9994 7.24278 21.2307 3.13236 17.2168 1.19141Z" fill="#0052B4"/>
<path d="M15.3914 13.0435L16.174 14.087V9.91309L15.3914 10.9566H13.0435V8.60875L14.087 7.82617H9.91309L10.9566 8.60875V10.9566H8.60875L7.82617 9.91309V14.087L8.60875 13.0435H10.9566V15.3914L9.91309 16.174H14.087L13.0435 15.3914V13.0435H15.3914Z" fill="#D80027"/>
<path d="M15.13 11.4779H12.5213V8.86914H11.4779V11.4779H8.86914V12.5213H11.4779V15.13H12.5213V12.5213H15.13V11.4779Z" fill="#F0F0F0"/>
</g>
<defs>
<clipPath id="clip0_1518_10381">
<rect width="24" height="24" fill="white"/>
</clipPath>
</defs>
</svg>
