<svg width="24" height="24" viewBox="0 0 24 24" fill="none" xmlns="http://www.w3.org/2000/svg">
<g clip-path="url(#clip0_1518_10388)">
<path d="M0 12.0003C0 13.4682 0.264047 14.8743 0.746391 16.1742L12 16.696L23.2536 16.1743C23.736 14.8743 24 13.4682 24 12.0003C24 10.5325 23.736 9.12644 23.2536 7.82645L12 7.30469L0.746391 7.82641C0.264047 9.12644 0 10.5325 0 12.0003H0Z" fill="#D80027"/>
<path d="M11.9997 0C6.84013 0 2.44161 3.2565 0.746094 7.82611H23.2534C21.5578 3.2565 17.1593 0 11.9997 0Z" fill="black"/>
<path d="M23.2533 16.1738H0.746094C2.44161 20.7434 6.84013 23.9999 11.9997 23.9999C17.1593 23.9999 21.5578 20.7434 23.2533 16.1738Z" fill="#496E2D"/>
<path d="M15.5873 5.73909L14.1218 5.04974L14.9023 3.63041L13.3109 3.93487L13.1092 2.32715L12.0007 3.50957L10.8922 2.32715L10.6905 3.93487L9.09919 3.63041L9.87961 5.04974L8.41406 5.73909H15.5873Z" fill="#D80027"/>
</g>
<defs>
<clipPath id="clip0_1518_10388">
<rect width="24" height="24" fill="white"/>
</clipPath>
</defs>
</svg>
