<svg width="24" height="24" viewBox="0 0 24 24" fill="none" xmlns="http://www.w3.org/2000/svg">
<g clip-path="url(#clip0_1518_10404)">
<path d="M12 24C18.6274 24 24 18.6274 24 12C24 5.37258 18.6274 0 12 0C5.37258 0 0 5.37258 0 12C0 18.6274 5.37258 24 12 24Z" fill="#D80027"/>
<path d="M4.17383 6.26074H19.826V17.739H4.17383V6.26074Z" fill="#6DA544"/>
<path d="M13.9333 15.3914C12.0604 15.3914 10.542 13.873 10.542 12.0001C10.542 10.1272 12.0604 8.6088 13.9333 8.6088C14.5173 8.6088 15.0668 8.75645 15.5465 9.01642C14.7939 8.28044 13.7648 7.82617 12.629 7.82617C10.3238 7.82617 8.45508 9.69489 8.45508 12.0001C8.45508 14.3052 10.3238 16.174 12.629 16.174C13.7648 16.174 14.794 15.7197 15.5465 14.9837C15.0668 15.2438 14.5173 15.3914 13.9333 15.3914Z" fill="#F0F0F0"/>
</g>
<defs>
<clipPath id="clip0_1518_10404">
<rect width="24" height="24" fill="white"/>
</clipPath>
</defs>
</svg>
