<svg width="24" height="24" viewBox="0 0 24 24" fill="none" xmlns="http://www.w3.org/2000/svg">
<g clip-path="url(#clip0_1518_10443)">
<path d="M12 24C18.6274 24 24 18.6274 24 12C24 5.37258 18.6274 0 12 0C5.37258 0 0 5.37258 0 12C0 18.6274 5.37258 24 12 24Z" fill="#338AF3"/>
<path d="M5.73828 13.0439H18.26V14.6091H5.73828V13.0439Z" fill="#818085"/>
<path d="M7.82617 8.34777L12.0001 8.86958L16.174 8.34777V5.84342L14.5044 6.67822L12.0001 4.17383L9.49572 6.67822L7.82617 5.84342V8.34777Z" fill="#FFDA44"/>
<path d="M6.78205 16.174H5.2168V13.3044L5.73856 12.5217L5.2168 11.7391V9.91309H6.78205V16.174Z" fill="#F0F0F0"/>
<path d="M18.782 16.174H17.2168V9.91309H18.782V11.7391L18.2603 12.5349L18.782 13.3045V16.174Z" fill="#F0F0F0"/>
<path d="M5.2168 11.7393H18.782V13.3045H5.2168V11.7393Z" fill="#ACABB1"/>
<path d="M12.0001 18.2606C9.69855 18.2606 7.82617 16.3882 7.82617 14.0868V8.34766H16.174V14.0868C16.174 16.3882 14.3016 18.2606 12.0001 18.2606Z" fill="#F0F0F0"/>
<path d="M11.9993 16.6956C10.5609 16.6956 9.39062 15.5253 9.39062 14.0869V9.91309H14.608V14.0869C14.608 15.5253 13.4378 16.6956 11.9993 16.6956Z" fill="#0052B4"/>
<path d="M7.82617 8.34766H9.39138V9.91286H7.82617V8.34766Z" fill="#D80027"/>
<path d="M14.6094 8.34766H16.1746V9.91286H14.6094V8.34766Z" fill="#D80027"/>
<path d="M14.6094 11.7393H16.1746V13.3045H14.6094V11.7393Z" fill="#D80027"/>
<path d="M7.82617 11.7393H9.39138V13.3045H7.82617V11.7393Z" fill="#D80027"/>
<path d="M11.2168 8.34766H12.782V9.91286H11.2168V8.34766Z" fill="#D80027"/>
<path d="M11.9994 16.6953C11.7268 16.6953 11.464 16.6531 11.2168 16.5752V18.1859C11.4705 18.2342 11.7319 18.2605 11.9994 18.2605C12.267 18.2605 12.5284 18.2342 12.782 18.1859V16.5752C12.5349 16.6531 12.272 16.6953 11.9994 16.6953Z" fill="#D80027"/>
<path d="M9.42686 14.5107L8.17773 15.7599C8.3943 16.2529 8.7033 16.6963 9.08308 17.0681L10.1893 15.9618C9.79455 15.5804 9.51953 15.076 9.42686 14.5107Z" fill="#D80027"/>
<path d="M15.8221 15.7599L14.573 14.5107C14.4802 15.076 14.2053 15.5803 13.8105 15.9619L14.9168 17.0681C15.2965 16.6963 15.6055 16.2529 15.8221 15.7599Z" fill="#D80027"/>
</g>
<defs>
<clipPath id="clip0_1518_10443">
<rect width="24" height="24" fill="white"/>
</clipPath>
</defs>
</svg>
