<svg width="24" height="24" viewBox="0 0 24 24" fill="none" xmlns="http://www.w3.org/2000/svg">
<g clip-path="url(#clip0_1518_10469)">
<path d="M12 24C18.6274 24 24 18.6274 24 12C24 5.37258 18.6274 0 12 0C5.37258 0 0 5.37258 0 12C0 18.6274 5.37258 24 12 24Z" fill="#338AF3"/>
<path d="M11.999 5.21777L12.517 6.81209H14.1935L12.8373 7.79745L13.3552 9.39171L11.999 8.4064L10.6428 9.39171L11.1609 7.79745L9.80469 6.81209H11.4811L11.999 5.21777Z" fill="#F0F0F0"/>
<path d="M5.2168 12.0002L6.81111 11.4821V9.80566L7.79647 11.1619L9.39073 10.6439L8.40542 12.0002L9.39073 13.3563L7.79647 12.8382L6.81111 14.1944V12.5181L5.2168 12.0002Z" fill="#F0F0F0"/>
<path d="M11.9991 18.7833L11.4811 17.189H9.80469L11.161 16.2036L10.643 14.6094L11.9991 15.5947L13.3553 14.6094L12.8372 16.2036L14.1935 17.189H12.5171L11.9991 18.7833Z" fill="#F0F0F0"/>
<path d="M18.7814 12L17.187 12.518V14.1944L16.2017 12.8382L14.6074 13.3562L15.5927 12L14.6074 10.6439L16.2017 11.1619L17.187 9.80566V11.4821L18.7814 12Z" fill="#F0F0F0"/>
</g>
<defs>
<clipPath id="clip0_1518_10469">
<rect width="24" height="24" fill="white"/>
</clipPath>
</defs>
</svg>
