<svg width="24" height="24" viewBox="0 0 24 24" fill="none" xmlns="http://www.w3.org/2000/svg">
<g clip-path="url(#clip0_1518_10486)">
<path d="M12.0003 24C13.4682 24 14.8743 23.736 16.1742 23.2536L16.696 12L16.1743 0.746391C14.8743 0.264047 13.4682 0 12.0003 0C10.5325 0 9.12639 0.264047 7.82645 0.746391L7.30469 12L7.82641 23.2536C9.12639 23.736 10.5325 24 12.0003 24Z" fill="#0052B4"/>
<path d="M0 11.9997C0 17.1593 3.2565 21.5578 7.82611 23.2533V0.746094C3.2565 2.44161 0 6.84013 0 11.9997Z" fill="#A2001D"/>
<path d="M16.1738 0.746094V23.2534C20.7434 21.5578 23.9999 17.1593 23.9999 11.9997C23.9999 6.84013 20.7434 2.44161 16.1738 0.746094Z" fill="#A2001D"/>
<path d="M5.73828 12H6.78177V16.1739H5.73828V12Z" fill="#FFDA44"/>
<path d="M1.56445 12H2.60794V16.1739H1.56445V12Z" fill="#FFDA44"/>
<path d="M4.17239 14.6085C4.74869 14.6085 5.21588 14.1413 5.21588 13.565C5.21588 12.9887 4.74869 12.5215 4.17239 12.5215C3.59609 12.5215 3.12891 12.9887 3.12891 13.565C3.12891 14.1413 3.59609 14.6085 4.17239 14.6085Z" fill="#FFDA44"/>
<path d="M4.17406 10.435C4.4622 10.435 4.69578 10.2015 4.69578 9.91332C4.69578 9.62518 4.4622 9.3916 4.17406 9.3916C3.88593 9.3916 3.65234 9.62518 3.65234 9.91332C3.65234 10.2015 3.88593 10.435 4.17406 10.435Z" fill="#FFDA44"/>
<path d="M3.12891 15.1299H5.21588V16.1734H3.12891V15.1299Z" fill="#FFDA44"/>
<path d="M3.12891 10.9561H5.21588V11.9995H3.12891V10.9561Z" fill="#FFDA44"/>
<path d="M4.17262 6.26074L4.54219 7.39793H5.73787L4.77061 8.10077L5.13989 9.23796L4.17262 8.53512L3.20541 9.23796L3.57469 8.10077L2.60742 7.39793H3.80311L4.17262 6.26074Z" fill="#FFDA44"/>
</g>
<defs>
<clipPath id="clip0_1518_10486">
<rect width="24" height="24" fill="white"/>
</clipPath>
</defs>
</svg>
