<svg width="24" height="24" viewBox="0 0 24 24" fill="none" xmlns="http://www.w3.org/2000/svg">
<g clip-path="url(#clip0_1518_10555)">
<path d="M12 24C18.6274 24 24 18.6274 24 12C24 5.37258 18.6274 0 12 0C5.37258 0 0 5.37258 0 12C0 18.6274 5.37258 24 12 24Z" fill="#0052B4"/>
<path d="M12 24C18.6274 24 24 18.6274 24 12C24 5.37258 18.6274 0 12 0C5.37258 0 0 5.37258 0 12C0 18.6274 5.37258 24 12 24Z" fill="#FFDA44"/>
<path d="M11.9992 0C5.72341 0 0.573813 4.81786 0.0449219 10.9565H23.9536C23.4246 4.81786 18.275 0 11.9992 0Z" fill="#0052B4"/>
<path d="M11.9992 24.0005C18.275 24.0005 23.4246 19.1826 23.9536 13.0439H0.0449219C0.573813 19.1826 5.72341 24.0005 11.9992 24.0005Z" fill="#0052B4"/>
<path d="M9.91361 16.1744L8.56895 16.8069L9.28497 18.1091L7.82486 17.8298L7.63984 19.3048L6.6228 18.22L5.6058 19.3048L5.42078 17.8298L3.96063 18.1091L4.67669 16.8068L3.33203 16.1744L4.67673 15.5419L3.96063 14.2397L5.42073 14.519L5.60584 13.0439L6.6228 14.1288L7.63989 13.0439L7.82486 14.519L9.28502 14.2397L8.569 15.5419L9.91361 16.1744Z" fill="#F0F0F0"/>
</g>
<defs>
<clipPath id="clip0_1518_10555">
<rect width="24" height="24" fill="white"/>
</clipPath>
</defs>
</svg>
