<svg width="24" height="24" viewBox="0 0 24 24" fill="none" xmlns="http://www.w3.org/2000/svg">
<g clip-path="url(#clip0_1518_10562)">
<path d="M12 24C18.6274 24 24 18.6274 24 12C24 5.37258 18.6274 0 12 0C5.37258 0 0 5.37258 0 12C0 18.6274 5.37258 24 12 24Z" fill="#F0F0F0"/>
<path d="M23.9308 13.305L23.9299 13.3037L23.9297 13.305H23.9308Z" fill="#0052B4"/>
<path d="M23.9292 13.3045C23.9292 13.3044 23.9293 13.3043 23.9293 13.3041L10.7693 0.0625C10.1757 0.123016 9.59475 0.226797 9.02986 0.370656C3.83897 1.6923 0 12.0001 0 12.0001C0 12.0001 16.7999 23.2424 18.7165 21.9453C19.1 21.6858 19.4677 21.4047 19.8177 21.1038L12.0185 13.3045H23.9292Z" fill="#0052B4"/>
<path d="M20.8695 11.9996L9.19898 0.329102C3.92287 1.59084 0 6.33674 0 11.9996C0 18.627 5.37262 23.9996 12 23.9996C14.5139 23.9996 16.8467 23.2261 18.7748 21.9048L8.86955 11.9996H20.8695Z" fill="#D80027"/>
<path d="M11.4136 17.7186L9.94802 17.0292L10.7284 15.6099L9.13703 15.9144L8.93538 14.3066L7.82692 15.4891L6.71847 14.3066L6.51677 15.9144L4.92541 15.6099L5.70583 17.0292L4.24023 17.7186L5.70583 18.4079L4.92541 19.8273L6.51686 19.5228L6.71842 21.1305L7.82692 19.948L8.93538 21.1305L9.13703 19.5228L10.7284 19.8273L9.94797 18.408L11.4136 17.7186Z" fill="#F0F0F0"/>
<path d="M10.4362 6.65539L9.37023 6.15406L9.93784 5.12173L8.78036 5.34317L8.63369 4.17383L7.82748 5.03384L7.02128 4.17383L6.87456 5.34317L5.71708 5.12173L6.28473 6.15406L5.21875 6.65539L7.82748 7.1772L10.4362 6.65539Z" fill="#F0F0F0"/>
<path d="M10.9582 6.65527C10.9582 8.38416 9.55661 9.78573 7.82772 9.78573C6.09883 9.78573 4.69727 8.38416 4.69727 6.65527" fill="#F0F0F0"/>
</g>
<defs>
<clipPath id="clip0_1518_10562">
<rect width="24" height="24" fill="white"/>
</clipPath>
</defs>
</svg>
