<svg width="24" height="24" viewBox="0 0 24 24" fill="none" xmlns="http://www.w3.org/2000/svg">
<g clip-path="url(#clip0_1518_10609)">
<path d="M24 12C24 18.6274 18.6274 24 12 24C5.37262 24 0 18.6274 0 12C0 12.0029 12 0.0013125 12 0C18.6274 0 24 5.37262 24 12Z" fill="#FFDA44"/>
<path d="M12.0001 5.73926V9.78659L7.82617 5.73926H12.0001Z" fill="#0052B4"/>
<path d="M6.26 12.0003H9.78552L6.26 7.30469L5.73828 10.9569L6.26 12.0003Z" fill="#0052B4"/>
<path d="M11.9688 11.9999H12.0009C12.0009 11.9891 12.0009 11.9786 12.0009 11.9678C11.9902 11.9785 11.9795 11.9892 11.9688 11.9999Z" fill="#F0F0F0"/>
<path d="M12 6.26086C12 4.14937 12 2.76586 12 0H11.998C5.37145 0.001125 0 5.37323 0 12H6.26086V8.47448L9.78638 12H11.9679C11.9786 11.9893 11.9893 11.9786 12 11.9679C12 11.1594 12 10.4381 12 9.78647L8.47444 6.26086H12Z" fill="#F0F0F0"/>
<path d="M11.9989 10.5242L7.73539 6.26074H6.25977V6.26084L11.9988 11.9998H11.9989C11.9989 11.9998 11.9989 10.9823 11.9989 10.5242Z" fill="#D80027"/>
<path d="M6.07027 1.56543C5.60766 1.82887 5.16445 2.12245 4.74295 2.44293H5.23533L3.93398 3.38859L4.43095 4.91845L3.12961 3.97298L2.99114 4.07362C2.45081 4.68721 1.97175 5.35602 1.56445 6.07124V12.0002H4.69491V4.69598V4.69588H11.9993C11.9993 3.70855 11.9993 2.76796 11.9993 1.56543H6.07027Z" fill="#D80027"/>
<path d="M5.12698 2.16309C4.99756 2.2537 4.86997 2.34684 4.7443 2.44241L3.93547 3.38807L3.13109 3.97241L2.99145 4.07385C2.6968 4.40854 2.42047 4.75973 2.16406 5.12596C2.45633 5.2678 2.78441 5.34754 3.13109 5.34754C4.35575 5.34754 5.34847 4.35482 5.34847 3.13016C5.34856 2.78338 5.26887 2.4554 5.12698 2.16309Z" fill="#0052B4"/>
<path d="M2.99023 4.07382L3.12987 3.97238L4.43122 4.9179L3.9342 3.38804L5.23545 2.44238H4.74298C4.10577 2.92702 3.51856 3.47377 2.99023 4.07382Z" fill="#FFDA44"/>
<path d="M8.29452 2.08691L8.55355 2.88402H9.39167L8.71362 3.37673L8.97252 4.17384L8.29452 3.68118L7.61647 4.17384L7.87531 3.37673L7.19727 2.88402H8.03544L8.29452 2.08691Z" fill="#FFDA44"/>
<path d="M3.13041 7.30469L3.38944 8.1018H4.22756L3.54956 8.59455L3.80845 9.39166L3.13041 8.89895L2.45231 9.39166L2.7112 8.59455L2.0332 8.1018H2.87133L3.13041 7.30469Z" fill="#FFDA44"/>
</g>
<defs>
<clipPath id="clip0_1518_10609">
<rect width="24" height="24" fill="white"/>
</clipPath>
</defs>
</svg>
