<svg width="24" height="24" viewBox="0 0 24 24" fill="none" xmlns="http://www.w3.org/2000/svg">
<g clip-path="url(#clip0_1518_10626)">
<path d="M17.2165 1.19072C15.6389 0.427875 13.869 0 11.9991 0C10.1293 0 8.35939 0.427875 6.78177 1.19072L5.73828 12L6.78177 22.8093C8.35939 23.5721 10.1293 24 11.9991 24C13.869 24 15.6389 23.5721 17.2165 22.8093L18.26 12L17.2165 1.19072Z" fill="#F0F0F0"/>
<path d="M6.78263 1.19141C2.76867 3.13231 0 7.24273 0 12.0003C0 16.7578 2.76867 20.8682 6.78263 22.8091V1.19141Z" fill="#6DA544"/>
<path d="M17.2168 1.19141V22.8091C21.2308 20.8682 23.9994 16.7577 23.9994 12.0003C23.9994 7.24278 21.2308 3.13231 17.2168 1.19141Z" fill="#6DA544"/>
<path d="M15.13 15.6523L11.9996 5.73926L8.86914 15.6523H11.217V18.261H12.7822V15.6523H15.13Z" fill="#6DA544"/>
</g>
<defs>
<clipPath id="clip0_1518_10626">
<rect width="24" height="24" fill="white"/>
</clipPath>
</defs>
</svg>
