<svg width="24" height="24" viewBox="0 0 24 24" fill="none" xmlns="http://www.w3.org/2000/svg">
<g clip-path="url(#clip0_1518_10647)">
<path d="M12 24C18.6274 24 24 18.6274 24 12C24 5.37258 18.6274 0 12 0C5.37258 0 0 5.37258 0 12C0 18.6274 5.37258 24 12 24Z" fill="#338AF3"/>
<path d="M11.6225 19.5563C11.2991 19.5406 11.0314 19.3304 10.9265 19.0449C10.7413 19.2865 10.4231 19.4081 10.1095 19.3272C9.7954 19.2464 9.57579 18.9865 9.53037 18.6849C9.29975 18.8842 8.96375 18.9384 8.67317 18.7961C8.38203 18.6531 8.21928 18.3541 8.23596 18.0499C7.97042 18.1991 7.63025 18.1845 7.37407 17.9863C7.11842 17.788 7.01876 17.463 7.09596 17.1682C6.80586 17.261 6.47614 17.1786 6.26482 16.9328C6.05351 16.6876 6.02112 16.349 6.15579 16.0762C5.85317 16.1085 5.54642 15.9614 5.38882 15.6786C5.23071 15.3958 5.26728 15.0572 5.45454 14.8166C5.1514 14.7874 4.88009 14.5813 4.78306 14.2725C4.68551 13.9636 4.78985 13.6391 5.02203 13.4413C4.73089 13.3515 4.50757 13.0948 4.47471 12.773C4.44185 12.4511 4.60882 12.1553 4.8754 12.0081C4.60878 11.862 4.44078 11.5662 4.4726 11.2448H4.47312C4.50495 10.9223 4.72826 10.6652 5.01884 10.5743C4.78667 10.3771 4.68129 10.0531 4.77781 9.74424C4.87432 9.43486 5.14507 9.22824 5.44826 9.19795C5.26095 8.95795 5.2234 8.61928 5.38043 8.33606C5.53746 8.05327 5.84426 7.90561 6.1474 7.93744C6.01175 7.66458 6.04357 7.32595 6.25437 7.07972C6.46465 6.834 6.79437 6.75103 7.085 6.84286C7.00671 6.54858 7.10585 6.22303 7.36151 6.02428C7.61665 5.82544 7.95682 5.8103 8.22237 5.95847C8.20517 5.65435 8.3674 5.35533 8.65803 5.21185C8.94814 5.06888 9.28465 5.12213 9.51575 5.32139C9.56009 5.01989 9.77975 4.75903 10.0933 4.67756C10.4063 4.59619 10.7246 4.7167 10.9103 4.95774C11.0152 4.67236 11.2823 4.46156 11.6058 4.44539C11.9288 4.42875 12.2157 4.61025 12.3493 4.8832C12.5089 4.62441 12.8126 4.47103 13.1324 4.51955C13.4528 4.56755 13.6985 4.80333 13.7747 5.09817C13.9834 4.87585 14.3121 4.78772 14.6157 4.89933C14.9199 5.0115 15.1129 5.29219 15.1276 5.59688C15.3764 5.42161 15.7166 5.40122 15.9916 5.57236C16.2665 5.74299 16.3985 6.05653 16.3516 6.35756C16.6307 6.23602 16.9677 6.28453 17.2025 6.50677C17.4373 6.72956 17.5041 7.06294 17.3977 7.34831C17.6956 7.28517 18.016 7.39997 18.2017 7.66552C18.3874 7.93055 18.3859 8.27072 18.2247 8.529C18.5288 8.52689 18.8194 8.70431 18.9483 9.00117C19.0767 9.29855 19.0062 9.63197 18.796 9.85266C19.0949 9.91214 19.3438 10.1443 19.4095 10.4615C19.4747 10.7787 19.3385 11.0902 19.0887 11.264C19.3683 11.3825 19.5655 11.6595 19.566 11.9829V11.9934V12.0002C19.566 12.3236 19.3699 12.6012 19.0902 12.7207C19.3407 12.8934 19.4779 13.2049 19.4127 13.5221C19.348 13.8393 19.0996 14.072 18.8007 14.1325C19.0114 14.3527 19.0829 14.6856 18.9551 14.9835C18.8273 15.2809 18.5367 15.4588 18.232 15.4572C18.3937 15.7155 18.3963 16.0557 18.2111 16.3212C18.0259 16.5869 17.7061 16.7026 17.4081 16.64C17.5151 16.9249 17.4488 17.2588 17.2146 17.4821C16.9798 17.705 16.6433 17.754 16.3641 17.6334C16.4116 17.934 16.2801 18.2481 16.0057 18.4197C15.7312 18.5914 15.3911 18.5715 15.1417 18.3968C15.1276 18.7014 14.9356 18.9827 14.632 19.0954C14.3284 19.2081 14.632 19.0954 14.6314 19.0954C14.3278 19.2075 13.9991 19.1199 13.7899 18.8982C13.7148 19.1935 13.4696 19.4298 13.1492 19.4789C12.8294 19.5274 12.5252 19.3751 12.365 19.1163C12.2377 19.3787 11.9685 19.5571 11.6617 19.5571C11.6487 19.5573 11.6356 19.5568 11.6225 19.5563Z" fill="#F3F3F3"/>
<path d="M12.0006 17.217C14.8821 17.217 17.218 14.8811 17.218 11.9996C17.218 9.11812 14.8821 6.78223 12.0006 6.78223C9.1191 6.78223 6.7832 9.11812 6.7832 11.9996C6.7832 14.8811 9.1191 17.217 12.0006 17.217Z" fill="#338AF3"/>
<path d="M13.141 10.2291C13.3974 10.039 13.5642 9.73506 13.5642 9.39138V8.86966C13.5642 8.29333 13.0971 7.82617 12.5208 7.82617H11.4773C10.901 7.82617 10.4338 8.29333 10.4338 8.86966V9.39138C10.4338 9.73506 10.6007 10.039 10.857 10.2291L9.91211 19.8261C9.91211 19.8261 10.4338 20.3479 11.9991 20.3479C13.5643 20.3479 14.086 19.8261 14.086 19.8261L13.141 10.2291Z" fill="#BDBCC1"/>
<path d="M12.0003 7.82617L12.9067 10.6161H15.8404L13.4671 12.3405L14.3735 15.1305L12.0003 13.4062L9.62688 15.1305L10.5335 12.3405L8.16016 10.6161H11.0937L12.0003 7.82617Z" fill="#F0F0F0"/>
</g>
<defs>
<clipPath id="clip0_1518_10647">
<rect width="24" height="24" fill="white"/>
</clipPath>
</defs>
</svg>
