<svg width="24" height="24" viewBox="0 0 24 24" fill="none" xmlns="http://www.w3.org/2000/svg">
<g clip-path="url(#clip0_1518_10632)">
<path d="M12 24C18.6274 24 24 18.6274 24 12C24 5.37258 18.6274 0 12 0C5.37258 0 0 5.37258 0 12C0 18.6274 5.37258 24 12 24Z" fill="#F0F0F0"/>
<path d="M12.0009 0C8.36383 0 5.10494 1.61831 2.9043 4.17389H21.0975C18.8969 1.61831 15.638 0 12.0009 0Z" fill="#0052B4"/>
<path d="M21.0975 19.8262H2.9043C5.10494 22.3818 8.36383 24.0001 12.0009 24.0001C15.638 24.0001 18.8969 22.3818 21.0975 19.8262Z" fill="#0052B4"/>
<path d="M22.2387 5.73926H1.76128C0.644297 7.56199 0 9.70573 0 12.0001C0 14.2945 0.644297 16.4383 1.76128 18.261H22.2387C23.3557 16.4383 24 14.2945 24 12.0001C24 9.70573 23.3557 7.56199 22.2387 5.73926Z" fill="#D80027"/>
<path d="M7.383 16.6176C9.93311 16.6176 12.0004 14.5503 12.0004 12.0002C12.0004 9.45008 9.93311 7.38281 7.383 7.38281C4.83289 7.38281 2.76562 9.45008 2.76562 12.0002C2.76562 14.5503 4.83289 16.6176 7.383 16.6176Z" fill="#F0F0F0"/>
<path d="M7.38181 7.38281L8.4178 10.5713H11.7758L9.05816 12.542L10.1022 15.74L7.38181 13.7599L4.6655 15.7363L5.70547 12.542L2.99023 10.5713H6.34578L7.38181 7.38281Z" fill="#D80027"/>
</g>
<defs>
<clipPath id="clip0_1518_10632">
<rect width="24" height="24" fill="white"/>
</clipPath>
</defs>
</svg>
