<svg width="24" height="24" viewBox="0 0 24 24" fill="none" xmlns="http://www.w3.org/2000/svg">
<g clip-path="url(#clip0_1518_10681)">
<path d="M12 24C18.6274 24 24 18.6274 24 12C24 5.37258 18.6274 0 12 0C5.37258 0 0 5.37258 0 12C0 18.6274 5.37258 24 12 24Z" fill="#F0F0F0"/>
<path d="M0 11.9999C0 16.5484 2.53073 20.5056 6.26086 22.5408V1.45898C2.53073 3.49425 0 7.45139 0 11.9999Z" fill="#F0F0F0"/>
<path d="M12.0009 0C9.92195 0 7.96661 0.528891 6.26172 1.45908V22.5409C7.96661 23.4711 9.92195 24 12.0009 24C18.6282 24 24.0009 18.6274 24.0009 12C24.0009 5.37262 18.6282 0 12.0009 0Z" fill="#496E2D"/>
<path d="M17.1297 13.9845C15.6116 15.0814 13.4916 14.7399 12.3947 13.2219C11.2978 11.7037 11.6392 9.58374 13.1574 8.48687C13.6307 8.14487 14.1626 7.9427 14.7037 7.87243C13.6627 7.71676 12.5623 7.95132 11.6418 8.61643C9.77339 9.96653 9.35306 12.5756 10.7031 14.4442C12.0532 16.3126 14.6623 16.7329 16.5308 15.3827C17.4514 14.7176 18.0196 13.7467 18.1986 12.7094C17.962 13.2009 17.6031 13.6424 17.1297 13.9845Z" fill="#F0F0F0"/>
<path d="M17.0649 7.82617L17.9201 8.74778L19.0609 8.21941L18.4485 9.31741L19.3037 10.2391L18.0701 9.99606L17.4578 11.0942L17.3078 9.84588L16.0742 9.60283L17.215 9.07445L17.0649 7.82617Z" fill="#F0F0F0"/>
</g>
<defs>
<clipPath id="clip0_1518_10681">
<rect width="24" height="24" fill="white"/>
</clipPath>
</defs>
</svg>
