<svg width="24" height="24" viewBox="0 0 24 24" fill="none" xmlns="http://www.w3.org/2000/svg">
<g clip-path="url(#clip0_1518_10703)">
<path d="M20.4853 20.4858C15.799 25.172 8.20108 25.172 3.51471 20.4858C-1.17158 15.7995 -1.17158 8.20145 3.51475 3.51513C8.20103 -1.17115 15.0611 -0.433295 19.7474 4.25303C24.4337 8.93931 25.1716 15.7995 20.4853 20.4858Z" fill="black"/>
<path d="M3.51562 3.51467C8.20191 -1.17161 15.7998 -1.17152 20.4862 3.51472C25.1725 8.201 25.1725 15.799 20.4862 20.4853" fill="#A2001D"/>
<path d="M9.17055 16.1738L9.3648 16.7717H9.99344L9.48484 17.1412L9.67914 17.7391L9.17055 17.3696L8.66195 17.7391L8.8562 17.1412L8.34766 16.7717H8.97625L9.17055 16.1738Z" fill="#F0F0F0"/>
<path d="M7.56483 10.4346L7.88869 11.431H8.93634L8.0887 12.0468L8.41247 13.0433L7.56483 12.4274L6.71723 13.0433L7.04105 12.0468L6.19336 11.431H7.24111L7.56483 10.4346Z" fill="#F0F0F0"/>
<path d="M7.56483 17.7393L7.88859 18.7357H8.93634L8.08861 19.3515L8.41247 20.3479L7.56483 19.7321L6.71723 20.3479L7.04095 19.3515L6.19336 18.7357H7.24097L7.56483 17.7393Z" fill="#F0F0F0"/>
<path d="M10.6292 13.043L10.9531 14.0394H12.0008L11.1531 14.6552L11.4769 15.6517L10.6292 15.0358L9.78164 15.6517L10.1055 14.6552L9.25781 14.0394H10.3055L10.6292 13.043Z" fill="#F0F0F0"/>
<path d="M4.50233 13.043L4.82619 14.0394H5.8738L5.0262 14.6552L5.34992 15.6517L4.50233 15.0358L3.65469 15.6517L3.97855 14.6552L3.13086 14.0394H4.17856L4.50233 13.043Z" fill="#F0F0F0"/>
<path d="M20.0889 8.88575C19.5526 8.34945 18.8557 8.03262 18.1069 7.9782L20.3485 6.23478C19.4557 5.34205 18.2592 4.93887 17.0916 5.02414C16.9518 4.52183 16.6854 4.04736 16.2903 3.65234L15.4049 5.42319C15.3468 5.31734 15.2733 5.21773 15.1836 5.12806C14.6741 4.61867 13.8483 4.61867 13.339 5.12806C12.8296 5.63745 12.8295 6.4633 13.339 6.97269C13.4286 7.06236 13.5283 7.13591 13.6341 7.19403L11.8633 8.07945C12.2584 8.47461 12.7332 8.74128 13.2358 8.88097C13.1502 10.0485 13.553 11.2449 14.4458 12.1377L16.4042 9.61962C16.5515 9.47455 16.7461 9.39444 16.9531 9.39444C17.1622 9.39444 17.3587 9.47581 17.5065 9.6237C17.6543 9.7715 17.7357 9.96805 17.7357 10.1771C17.7357 10.3861 17.6543 10.5826 17.5065 10.7305L18.2444 11.4684C18.5892 11.1235 18.7792 10.6649 18.7792 10.1771C18.7792 9.77802 18.6519 9.39861 18.4169 9.08492C18.7593 9.17637 19.083 9.35553 19.3511 9.6237C20.1649 10.4374 20.1649 11.7614 19.3511 12.5751L20.089 13.313C20.6803 12.7217 21.0059 11.9356 21.0059 11.0994C21.0058 10.2631 20.6801 9.47703 20.0889 8.88575Z" fill="#FFDA44"/>
</g>
<defs>
<clipPath id="clip0_1518_10703">
<rect width="24" height="24" fill="white"/>
</clipPath>
</defs>
</svg>
