<svg width="24" height="24" viewBox="0 0 24 24" fill="none" xmlns="http://www.w3.org/2000/svg">
<g clip-path="url(#clip0_1518_10733)">
<path d="M24 12C24 18.6274 18.6274 24 12 24C5.37262 24 0 18.6274 0 12C0 12.0029 12 0.0013125 12 0C18.6274 0 24 5.37262 24 12Z" fill="#0052B4"/>
<path d="M11.9688 11.9999H12.0009C12.0009 11.9891 12.0009 11.9786 12.0009 11.9678C11.9902 11.9785 11.9795 11.9892 11.9688 11.9999Z" fill="#F0F0F0"/>
<path d="M12 6.26086C12 4.14937 12 2.76586 12 0H11.998C5.37145 0.001125 0 5.37323 0 12H6.26086V8.47448L9.78638 12H11.9679C11.9786 11.9893 11.9893 11.9786 12 11.9679C12 11.1594 12 10.4381 12 9.78647L8.47444 6.26086H12Z" fill="#F0F0F0"/>
<path d="M6.07027 1.56543C4.19344 2.63413 2.63311 4.19441 1.56445 6.07124V12.0002H4.69491V4.69598V4.69588H11.9993C11.9993 3.70855 11.9993 2.76796 11.9993 1.56543H6.07027Z" fill="#D80027"/>
<path d="M11.9989 10.5242L7.73539 6.26074H6.25977V6.26084L11.9988 11.9998H11.9989C11.9989 11.9998 11.9989 10.9823 11.9989 10.5242Z" fill="#D80027"/>
<path d="M18.783 7.304L17.2178 7.82577L15.6526 7.304L15.1309 5.99966L15.6526 4.69531H18.783L18.2613 5.99966L18.783 7.304Z" fill="#ACABB1"/>
<path d="M13.5645 7.30469V13.0438C13.5645 15.8394 17.2166 16.696 17.2166 16.696C17.2166 16.696 20.8688 15.8394 20.8688 13.0438V7.30469H13.5645Z" fill="#338AF3"/>
<path d="M13.8945 14.4026C14.7923 16.1262 17.2175 16.6952 17.2175 16.6952C17.2175 16.6952 19.6427 16.1262 20.5405 14.4026L17.2175 8.86914L13.8945 14.4026Z" fill="#6DA544"/>
<path d="M20.8688 12.9858L17.2166 7.30469L13.5645 12.9858V13.0438C13.5645 13.5612 13.6898 14.012 13.8937 14.4034L17.2166 9.2343L20.5396 14.4034C20.7435 14.0119 20.8688 13.5611 20.8688 13.0437V12.9858Z" fill="#FFDA44"/>
</g>
<defs>
<clipPath id="clip0_1518_10733">
<rect width="24" height="24" fill="white"/>
</clipPath>
</defs>
</svg>
