<svg width="24" height="24" viewBox="0 0 24 24" fill="none" xmlns="http://www.w3.org/2000/svg">
<g clip-path="url(#clip0_1518_10755)">
<path d="M12 24C18.6274 24 24 18.6274 24 12C24 5.37258 18.6274 0 12 0C5.37258 0 0 5.37258 0 12C0 18.6274 5.37258 24 12 24Z" fill="#F0F0F0"/>
<path d="M12.0009 0C8.07503 0 4.58964 1.88545 2.40039 4.8H21.6014C19.4122 1.88545 15.9268 0 12.0009 0Z" fill="#D80027"/>
<path d="M12.0009 24.0002C15.9268 24.0002 19.4122 22.1147 21.6014 19.2002H2.40039C4.58964 22.1147 8.07503 24.0002 12.0009 24.0002Z" fill="#D80027"/>
<path d="M0 11.9996C0 12.8216 0.082875 13.6242 0.240328 14.3996H23.7598C23.9172 13.6242 24 12.8216 24 11.9996C24 11.1777 23.9171 10.3751 23.7597 9.59961H0.240328C0.082875 10.3751 0 11.1777 0 11.9996H0Z" fill="#D80027"/>
<path d="M3.51471 3.51465C-1.17157 8.20093 -1.17157 15.7989 3.51471 20.4853C5.45126 18.5487 7.31374 16.6862 12 12L3.51471 3.51465Z" fill="#0052B4"/>
<path d="M4.85597 8.86914L5.63292 11.2605H8.14758L6.1133 12.7386L6.8902 15.13L4.85597 13.652L2.82164 15.13L3.59873 12.7386L1.56445 11.2605H4.07892L4.85597 8.86914Z" fill="#F0F0F0"/>
</g>
<defs>
<clipPath id="clip0_1518_10755">
<rect width="24" height="24" fill="white"/>
</clipPath>
</defs>
</svg>
