<svg width="24" height="24" viewBox="0 0 24 24" fill="none" xmlns="http://www.w3.org/2000/svg">
<g clip-path="url(#clip0_1518_10766)">
<path d="M12 24C18.6274 24 24 18.6274 24 12C24 5.37258 18.6274 0 12 0C5.37258 0 0 5.37258 0 12C0 18.6274 5.37258 24 12 24Z" fill="#FCFCFC"/>
<path d="M15.6518 9.91309V10.9566H17.084C16.4863 11.7872 15.6902 12.4653 14.7653 12.9219C14.528 12.6754 14.1949 12.5218 13.8257 12.5218C13.2035 12.5218 12.6833 12.9577 12.5531 13.5407C12.3707 13.5568 12.1862 13.5653 11.9997 13.5653C11.8131 13.5653 11.6286 13.5567 11.4462 13.5407C11.316 12.9577 10.7959 12.5218 10.1736 12.5218C9.80445 12.5218 9.47141 12.6754 9.23403 12.9219C8.30909 12.4653 7.51306 11.7871 6.91541 10.9566H8.34748V9.91309H4.69531C4.69531 13.9471 7.96564 17.2174 11.9997 17.2174C16.0338 17.2174 19.304 13.9471 19.304 9.91309H15.6518Z" fill="#D80027"/>
</g>
<defs>
<clipPath id="clip0_1518_10766">
<rect width="24" height="24" fill="white"/>
</clipPath>
</defs>
</svg>
