<svg width="24" height="24" viewBox="0 0 24 24" fill="none" xmlns="http://www.w3.org/2000/svg">
<g clip-path="url(#clip0_1518_10786)">
<path d="M16.1745 0.746344C14.8744 0.264047 13.4684 6.23894e-09 12.0006 6.23894e-09C10.5327 -4.68688e-05 9.12667 0.264047 7.82669 0.746344L6.7832 12L7.82669 23.2536C9.12663 23.736 10.5327 24 12.0006 24C13.4684 24 14.8745 23.736 16.1745 23.2536L17.2179 12L16.1745 0.746344Z" fill="#FFDA44"/>
<path d="M23.9999 11.9997C23.9999 6.84017 20.7434 2.44156 16.1738 0.746094V23.2534C20.7434 21.5578 23.9999 17.1593 23.9999 11.9997Z" fill="#D80027"/>
<path d="M0 11.9996C0 17.1593 3.2565 21.5577 7.82602 23.2533L7.82606 0.746094C3.2565 2.44156 0 6.84003 0 11.9996H0Z" fill="#0052B4"/>
</g>
<defs>
<clipPath id="clip0_1518_10786">
<rect width="24" height="24" fill="white"/>
</clipPath>
</defs>
</svg>
