<svg width="24" height="24" viewBox="0 0 24 24" fill="none" xmlns="http://www.w3.org/2000/svg">
<g clip-path="url(#clip0_1518_10816)">
<path d="M24 12C24 18.6274 18.6274 24 12 24C5.37262 24 0 18.6274 0 12C4.12172 7.87828 7.61737 4.38263 12 0C18.6274 0 24 5.37262 24 12Z" fill="#D80027"/>
<path d="M12 12C12 5.37262 12 4.59131 12 0C5.37262 0 0 5.37262 0 12H12Z" fill="#0052B4"/>
<path d="M9.61195 7.82617L9.80625 8.42406H10.4348L9.92625 8.79348L10.1205 9.39138L9.61195 9.02186L9.10336 9.39138L9.29766 8.79348L8.78906 8.42406H9.41766L9.61195 7.82617Z" fill="#F0F0F0"/>
<path d="M6.45545 3.13086L6.77922 4.12738H7.82697L6.97928 4.74308L7.30314 5.73955L6.45545 5.12366L5.60781 5.73955L5.93163 4.74308L5.08398 4.12738H6.13164L6.45545 3.13086Z" fill="#F0F0F0"/>
<path d="M9.58436 4.17383L9.90812 5.17039H10.9558L10.1082 5.78609L10.432 6.78256L9.58436 6.16667L8.73672 6.78256L9.06053 5.78609L8.21289 5.17039H9.26055L9.58436 4.17383Z" fill="#F0F0F0"/>
<path d="M7.10975 8.34863L7.43356 9.34515H8.48122L7.63358 9.96085L7.95739 10.9573L7.10975 10.3415L6.26211 10.9573L6.58592 9.96085L5.73828 9.34515H6.78598L7.10975 8.34863Z" fill="#F0F0F0"/>
<path d="M4.36752 5.73926L4.69133 6.73577H5.73903L4.89134 7.35148L5.21516 8.34795L4.36752 7.7321L3.51992 8.34795L3.84369 7.35148L2.99609 6.73577H4.04375L4.36752 5.73926Z" fill="#F0F0F0"/>
</g>
<defs>
<clipPath id="clip0_1518_10816">
<rect width="24" height="24" fill="white"/>
</clipPath>
</defs>
</svg>
