<svg width="24" height="24" viewBox="0 0 24 24" fill="none" xmlns="http://www.w3.org/2000/svg">
<g clip-path="url(#clip0_1518_10825)">
<path d="M24 11.9998C24 18.6271 18.6274 23.9998 12 23.9998C5.37262 23.9998 0 18.6271 0 11.9998C0.521719 11.9998 12 10.4346 12 10.4346L24 11.9998Z" fill="#338AF3"/>
<path d="M0 12C0 5.37262 5.37262 0 12 0C18.6274 0 24 5.37262 24 12" fill="#F0F0F0"/>
<path d="M16.7641 8.28027L12.0008 13.0436L7.23756 8.28027C6.62158 9.19466 6.26172 10.2952 6.26172 11.4783V13.0435C6.26172 15.5568 7.8857 17.6977 10.1393 18.4726C9.83852 19.0621 9.88923 19.7978 10.33 20.3479C10.9154 19.8787 11.5214 19.393 12.0355 18.9811C12.5497 19.3931 13.1558 19.8787 13.7411 20.3479C14.187 19.7914 14.2341 19.0446 13.9214 18.4517C16.1442 17.66 17.7399 15.5347 17.7399 13.0435V11.4784C17.74 10.2952 17.38 9.19471 16.7641 8.28027Z" fill="#6DA544"/>
<path d="M12.0001 17.2177C9.69855 17.2177 7.82617 15.3452 7.82617 13.0438V11.4786C7.82617 9.17706 9.69859 7.30469 12.0001 7.30469C14.3015 7.30469 16.174 9.17711 16.174 11.4786V13.0438C16.174 15.3452 14.3016 17.2177 12.0001 17.2177Z" fill="#FFDA44"/>
<path d="M14.608 13.043V11.4778C14.608 10.0394 13.4377 8.86914 11.9993 8.86914C10.5609 8.86914 9.39062 10.0394 9.39062 11.4778V13.043L11.9993 13.5647L14.608 13.043Z" fill="#338AF3"/>
<path d="M9.39062 13.0439C9.39062 14.4824 10.5609 15.6526 11.9993 15.6526C13.4377 15.6526 14.608 14.4824 14.608 13.0439H9.39062Z" fill="#6DA544"/>
<path d="M15.13 7.30452C15.13 6.44009 14.4292 5.73931 13.5648 5.73931C13.1638 5.73931 12.7983 5.89025 12.5213 6.13817V5.21755H13.043V4.17406H12.5213V3.65234H11.4778V4.17406H10.9561V5.21755H11.4778V6.13817C11.2008 5.89025 10.8353 5.73931 10.4343 5.73931C9.56992 5.73931 8.86914 6.44009 8.86914 7.30452C8.86914 7.76797 9.07075 8.18422 9.39086 8.47086V9.39148H14.6082V8.47086C14.9284 8.18422 15.13 7.76797 15.13 7.30452Z" fill="#FFDA44"/>
</g>
<defs>
<clipPath id="clip0_1518_10825">
<rect width="24" height="24" fill="white"/>
</clipPath>
</defs>
</svg>
