<svg width="24" height="24" viewBox="0 0 24 24" fill="none" xmlns="http://www.w3.org/2000/svg">
<g clip-path="url(#clip0_1518_10833)">
<path d="M12 24C18.6274 24 24 18.6274 24 12C24 5.37258 18.6274 0 12 0C5.37258 0 0 5.37258 0 12C0 18.6274 5.37258 24 12 24Z" fill="#FFDA44"/>
<path d="M7.30486 7.82611H23.2541C21.5586 3.2565 17.16 0 12.0005 0C8.68673 0 5.68706 1.34339 3.51562 3.51511L7.30486 7.82611Z" fill="#6DA544"/>
<path d="M7.30486 16.1738H23.2541C21.5586 20.7434 17.16 23.9999 12.0005 23.9999C8.68673 23.9999 5.68706 22.6565 3.51562 20.4848L7.30486 16.1738Z" fill="#6DA544"/>
<path d="M3.51471 3.51465C-1.17157 8.20093 -1.17157 15.7989 3.51471 20.4853C5.45126 18.5487 7.31374 16.6862 12 12L3.51471 3.51465Z" fill="#D80027"/>
<path d="M15.2373 9.91309L15.7553 11.5074H17.4317L16.0755 12.4927L16.5935 14.087L15.2373 13.1017L13.8811 14.087L14.3991 12.4927L13.043 11.5074H14.7193L15.2373 9.91309Z" fill="black"/>
<path d="M20.4561 9.91309L20.9741 11.5074H22.6504L21.2943 12.4927L21.8123 14.087L20.4561 13.1017L19.0999 14.087L19.6179 12.4927L18.2617 11.5074H19.9381L20.4561 9.91309Z" fill="black"/>
</g>
<defs>
<clipPath id="clip0_1518_10833">
<rect width="24" height="24" fill="white"/>
</clipPath>
</defs>
</svg>
