<svg width="24" height="24" viewBox="0 0 24 24" fill="none" xmlns="http://www.w3.org/2000/svg">
<g clip-path="url(#clip0_1518_10841)">
<path d="M12 24C18.6274 24 24 18.6274 24 12C24 5.37258 18.6274 0 12 0C5.37258 0 0 5.37258 0 12C0 18.6274 5.37258 24 12 24Z" fill="#F0F0F0"/>
<path d="M23.8984 10.4348H13.5653H13.5653V0.101578C13.0529 0.034875 12.5305 0 12 0C11.4695 0 10.9471 0.034875 10.4348 0.101578V10.4347V10.4347H0.101578C0.034875 10.9471 0 11.4695 0 12C0 12.5305 0.034875 13.0529 0.101578 13.5652H10.4347H10.4347V23.8984C10.9471 23.9651 11.4695 24 12 24C12.5305 24 13.0529 23.9652 13.5652 23.8984V13.5653V13.5653H23.8984C23.9651 13.0529 24 12.5305 24 12C24 11.4695 23.9651 10.9471 23.8984 10.4348Z" fill="#D80027"/>
<path d="M17.74 4.17383C16.7675 4.17383 15.9504 4.83894 15.7188 5.73903L17.74 6.26075L19.7612 5.73903C19.5295 4.83898 18.7124 4.17383 17.74 4.17383Z" fill="black"/>
<path d="M15.6526 8.86943L18.2613 9.39115V8.28195C18.9946 8.09313 19.5718 7.51577 19.7606 6.78246L17.7395 6.26074H15.1309L15.6526 7.82594V8.86943Z" fill="black"/>
<path d="M19.7607 5.73926H15.1309V6.78274V7.82623H15.6526V6.78274H19.7606C19.8035 6.61601 19.8265 6.44116 19.8265 6.26102C19.8265 6.08084 19.8037 5.90599 19.7607 5.73926Z" fill="#ACABB1"/>
<path d="M6.78292 4.17383C5.81045 4.17383 4.99338 4.83894 4.76172 5.73903L6.78292 6.26075L8.80412 5.73903C8.57247 4.83898 7.75539 4.17383 6.78292 4.17383Z" fill="black"/>
<path d="M4.69559 8.86943L7.30428 9.39115V8.28195C8.03764 8.09313 8.61486 7.51577 8.80362 6.78246L6.78256 6.26074H4.17383L4.69555 7.82594V8.86943H4.69559Z" fill="black"/>
<path d="M8.80377 5.73926H4.17383V6.78274V7.82623H4.69555V6.78274H8.80358C8.84652 6.61601 8.86948 6.44116 8.86948 6.26102C8.86948 6.08084 8.8467 5.90599 8.80377 5.73926Z" fill="#ACABB1"/>
<path d="M17.74 14.6084C16.7675 14.6084 15.9504 15.2735 15.7188 16.1736L17.74 16.6953L19.7612 16.1736C19.5295 15.2735 18.7124 14.6084 17.74 14.6084Z" fill="black"/>
<path d="M15.6526 19.304L18.2613 19.8257V18.7165C18.9946 18.5277 19.5718 17.9503 19.7606 17.217L17.7395 16.6953H15.1309L15.6526 18.2605V19.304Z" fill="black"/>
<path d="M19.7607 16.1738H15.1309V17.2173V18.2608H15.6526V17.2173H19.7606C19.8035 17.0506 19.8265 16.8757 19.8265 16.6956C19.8265 16.5155 19.8037 16.3406 19.7607 16.1738Z" fill="#ACABB1"/>
<path d="M6.78292 14.6084C5.81045 14.6084 4.99338 15.2735 4.76172 16.1736L6.78292 16.6953L8.80412 16.1736C8.57247 15.2735 7.75539 14.6084 6.78292 14.6084Z" fill="black"/>
<path d="M4.69559 19.304L7.30428 19.8257V18.7165C8.03764 18.5277 8.61486 17.9503 8.80362 17.217L6.78256 16.6953H4.17383L4.69555 18.2605V19.304H4.69559Z" fill="black"/>
<path d="M8.80377 16.1738H4.17383V17.2173V18.2608H4.69555V17.2173H8.80358C8.84652 17.0506 8.86948 16.8757 8.86948 16.6956C8.86948 16.5155 8.8467 16.3406 8.80377 16.1738Z" fill="#ACABB1"/>
</g>
<defs>
<clipPath id="clip0_1518_10841">
<rect width="24" height="24" fill="white"/>
</clipPath>
</defs>
</svg>
