<svg width="24" height="24" viewBox="0 0 24 24" fill="none" xmlns="http://www.w3.org/2000/svg">
<g clip-path="url(#clip0_1518_10865)">
<path d="M12 24C18.6274 24 24 18.6274 24 12C24 5.37258 18.6274 0 12 0C5.37258 0 0 5.37258 0 12C0 18.6274 5.37258 24 12 24Z" fill="#F0F0F0"/>
<path d="M19.3049 2.48062C17.2815 0.925266 14.7486 0 11.9992 0C9.24975 0 6.71681 0.925312 4.69336 2.48062L11.9992 9.78638L19.3049 2.48062Z" fill="#0052B4"/>
<path d="M2.48058 4.69434C0.925312 6.71779 0 9.25068 0 12.0001C0 14.7495 0.925312 17.2824 2.48062 19.3059L9.78642 12.0001L2.48058 4.69434Z" fill="#0052B4"/>
<path d="M4.69336 21.5196C6.71686 23.075 9.24975 24.0002 11.9992 24.0002C14.7486 24.0002 17.2815 23.0749 19.305 21.5196L11.9992 14.2139L4.69336 21.5196Z" fill="#0052B4"/>
<path d="M21.5186 19.3058C23.074 17.2824 23.9993 14.7495 23.9993 12.0001C23.9993 9.25068 23.074 6.71779 21.5186 4.69434L14.2129 12.0001L21.5186 19.3058Z" fill="#0052B4"/>
</g>
<defs>
<clipPath id="clip0_1518_10865">
<rect width="24" height="24" fill="white"/>
</clipPath>
</defs>
</svg>
