<svg width="24" height="24" viewBox="0 0 24 24" fill="none" xmlns="http://www.w3.org/2000/svg">
<g clip-path="url(#clip0_1518_10872)">
<path d="M17.2165 1.19072C15.6389 0.427875 13.869 0 11.9991 0C10.1293 0 8.35939 0.427875 6.78177 1.19072L5.73828 12L6.78177 22.8093C8.35939 23.5721 10.1293 24 11.9991 24C13.869 24 15.6389 23.5721 17.2165 22.8093L18.26 12L17.2165 1.19072Z" fill="#FFDA44"/>
<path d="M12 7.82617L13.0359 11.0146H16.3888L13.6764 12.9854L14.7124 16.174L12 14.2033L9.28753 16.174L10.3237 12.9854L7.61133 11.0146H10.964L12 7.82617Z" fill="#496E2D"/>
<path d="M6.78263 1.19141C2.76872 3.13236 0 7.24278 0 12.0003C0 16.7577 2.76872 20.8682 6.78263 22.8091V1.19141Z" fill="#496E2D"/>
<path d="M17.2168 1.19141V22.8091C21.2307 20.8682 23.9994 16.7577 23.9994 12.0003C23.9994 7.24278 21.2307 3.13236 17.2168 1.19141Z" fill="#D80027"/>
</g>
<defs>
<clipPath id="clip0_1518_10872">
<rect width="24" height="24" fill="white"/>
</clipPath>
</defs>
</svg>
