<svg width="24" height="24" viewBox="0 0 24 24" fill="none" xmlns="http://www.w3.org/2000/svg">
<g clip-path="url(#clip0_1518_10923)">
<path d="M10.9575 13.0435C10.9575 13.0435 3.52266 3.51305 3.51562 3.51473C5.68716 1.34316 8.6872 0 12.0009 0C18.6283 0 24.0009 5.37263 24.0009 12L10.9575 13.0435Z" fill="#D80027"/>
<path d="M10.9575 12C10.9575 12 3.52266 20.487 3.51562 20.4853C5.68716 22.6568 8.6872 24 12.0009 24C18.6283 24 24.0009 18.6274 24.0009 12H10.9575Z" fill="#0052B4"/>
<path d="M3.51471 3.51465C-1.17157 8.20093 -1.17157 15.7989 3.51471 20.4853C5.45126 18.5487 7.31374 16.6862 12 12L3.51471 3.51465Z" fill="#F0F0F0"/>
<path d="M1.3157 12C1.30914 12.0862 1.30469 12.173 1.30469 12.2608C1.30469 14.1337 2.82306 15.6521 4.696 15.6521C6.56894 15.6521 8.08731 14.1337 8.08731 12.2608C8.08731 12.173 8.08286 12.0861 8.0763 12H1.3157Z" fill="#FFDA44"/>
<path d="M4.69583 10.4346C5.27213 10.4346 5.73931 9.96744 5.73931 9.39114C5.73931 8.81484 5.27213 8.34766 4.69583 8.34766C4.11953 8.34766 3.65234 8.81484 3.65234 9.39114C3.65234 9.96744 4.11953 10.4346 4.69583 10.4346Z" fill="#FFDA44"/>
<path d="M2.34766 9.13086V12.5222C2.34766 14.3194 4.69548 14.87 4.69548 14.87C4.69548 14.87 7.04331 14.3194 7.04331 12.5222V9.13086H2.34766Z" fill="#D80027"/>
<path d="M4.69614 13.7774C4.26058 13.6207 3.39062 13.2201 3.39062 12.5217V10.1738H5.99936V12.5217C5.99936 13.2224 5.1295 13.622 4.69614 13.7774Z" fill="#338AF3"/>
<path d="M5.21645 11.4779V10.9562L4.69473 10.6953L4.17297 10.9562V11.4779L3.91211 11.7388V12.7823H5.47736V11.7388L5.21645 11.4779Z" fill="#F3F3F3"/>
</g>
<defs>
<clipPath id="clip0_1518_10923">
<rect width="24" height="24" fill="white"/>
</clipPath>
</defs>
</svg>
