<svg width="24" height="24" viewBox="0 0 24 24" fill="none" xmlns="http://www.w3.org/2000/svg">
<g clip-path="url(#clip0_1518_10908)">
<path d="M5.23633 21.9126C7.16223 23.2291 9.49084 23.9996 11.9998 23.9996C14.5087 23.9996 16.8374 23.2291 18.7632 21.9126L11.9998 20.8691L5.23633 21.9126Z" fill="#D80027"/>
<path d="M18.7632 2.08697C16.8374 0.770484 14.5087 0 11.9998 0C9.49084 0 7.16214 0.770484 5.23633 2.08697L11.9998 3.13045L18.7632 2.08697Z" fill="#D80027"/>
<path d="M5.23633 21.9126C7.16223 23.2291 9.49084 23.9996 11.9998 23.9996C14.5087 23.9996 16.8374 23.2291 18.7632 21.9126L11.9998 20.8691L5.23633 21.9126Z" fill="#D80027"/>
<path d="M18.7632 2.08697C16.8374 0.770484 14.5087 0 11.9998 0C9.49084 0 7.16214 0.770484 5.23633 2.08697L11.9998 3.13045L18.7632 2.08697Z" fill="#D80027"/>
<path d="M23.9696 11.2174C23.6853 7.51377 21.435 3.91302 18.7636 2.08691H5.23672C2.27722 4.11009 0.269703 7.42359 0.0253906 11.2174L12.0002 12L23.9696 11.2174Z" fill="#0052B4"/>
<path d="M0.0253906 12.7826C0.269703 16.5765 2.27717 19.8899 5.23667 21.9131H18.7636C21.7232 19.89 23.7306 16.5765 23.9749 12.7826L12.0002 12L0.0253906 12.7826Z" fill="#0052B4"/>
<path d="M23.9694 11.2176H12.7826V1.56543H11.2174V11.2176H0.0252656C0.008625 11.4763 0 11.7373 0 12.0002C0 12.2631 0.00857813 12.5241 0.0252187 12.7828H11.2174V22.435H12.7826V12.7828H23.9748C23.9914 12.5241 24 12.2631 24 12.0002C24 11.7392 23.9895 11.4781 23.9694 11.2176Z" fill="#D80027"/>
<path d="M4.69531 12.0002L11.9996 7.40918L19.304 12.0002L11.9996 16.5913L4.69531 12.0002Z" fill="#F0F0F0"/>
<path d="M7.82617 14.0865H17.2174L15.1305 10.9561L14.087 11.9995L13.0435 11.4778L12.0001 13.043H9.91309L8.86961 11.9995L7.82617 14.0865Z" fill="#6DA544"/>
<path d="M11.9995 8.86914L12.2585 9.66625H13.0966L12.4185 10.159L12.6775 10.9561L11.9995 10.4635L11.3214 10.9561L11.5804 10.159L10.9023 9.66625H11.7404L11.9995 8.86914Z" fill="#FFDA44"/>
<path d="M12.0006 6.09766L2.60938 12.0004L12.0006 17.9032L21.392 12.0004L12.0006 6.09766ZM5.55069 12.0004L12.0006 7.94636L18.4507 12.0004L12.0006 16.0545L5.55069 12.0004Z" fill="#D80027"/>
</g>
<defs>
<clipPath id="clip0_1518_10908">
<rect width="24" height="24" fill="white"/>
</clipPath>
</defs>
</svg>
