<svg width="24" height="24" viewBox="0 0 24 24" fill="none" xmlns="http://www.w3.org/2000/svg">
<g clip-path="url(#clip0_1518_10933)">
<path d="M12 24C18.6274 24 24 18.6274 24 12C24 5.37258 18.6274 0 12 0C5.37258 0 0 5.37258 0 12C0 18.6274 5.37258 24 12 24Z" fill="#F0F0F0"/>
<path d="M12 24.0001C18.6274 24.0001 24 18.6274 24 12.0001C24 10.5322 23.736 9.12611 23.2536 7.82617H0.746391C0.264047 9.12611 0 10.5322 0 12.0001C0 18.6274 5.37262 24.0001 12 24.0001Z" fill="#0052B4"/>
<path d="M11.9997 23.9999C17.1593 23.9999 21.5578 20.7434 23.2533 16.1738H0.746094C2.44161 20.7434 6.84013 23.9999 11.9997 23.9999Z" fill="#D80027"/>
<path d="M3.10352 6.78223V12.7684C3.10352 16.1736 7.552 17.217 7.552 17.217C7.552 17.217 12.0004 16.1736 12.0004 12.7684V6.78223H3.10352Z" fill="#F0F0F0"/>
<path d="M4.14648 6.78223V12.7684C4.14648 13.1682 4.23527 13.5457 4.41114 13.8997H10.6918C10.8677 13.5458 10.9564 13.1682 10.9564 12.7684V6.78223H4.14648Z" fill="#D80027"/>
<path d="M9.63873 10.9566H8.07358V9.91309H9.11706V8.86961H8.07358V7.82617H7.03009V8.86961H5.98666V9.91309H7.03009V10.9566H5.46484V12.0001H7.03009V13.0435H8.07358V12.0001H9.63873V10.9566Z" fill="#F0F0F0"/>
<path d="M5.83537 15.3564C6.5078 15.779 7.19864 16.0244 7.55231 16.1335C7.90598 16.0244 8.59683 15.779 9.26925 15.3564C9.94734 14.9302 10.4227 14.4428 10.6926 13.8998C10.3949 13.6892 10.0317 13.565 9.63928 13.565C9.49641 13.565 9.35761 13.5819 9.22416 13.613C8.94136 12.9704 8.29941 12.5215 7.55236 12.5215C6.80531 12.5215 6.16331 12.9704 5.88056 13.613C5.74711 13.5819 5.60827 13.565 5.46544 13.565C5.07305 13.565 4.70981 13.6892 4.41211 13.8998C4.68187 14.4428 5.15723 14.9302 5.83537 15.3564Z" fill="#0052B4"/>
</g>
<defs>
<clipPath id="clip0_1518_10933">
<rect width="24" height="24" fill="white"/>
</clipPath>
</defs>
</svg>
