<svg width="24" height="24" viewBox="0 0 24 24" fill="none" xmlns="http://www.w3.org/2000/svg">
<g clip-path="url(#clip0_1518_10959)">
<path d="M23.2536 16.1735C23.736 14.8735 24 13.4674 24 11.9996C24 10.5318 23.736 9.1257 23.2536 7.82571L12 6.78223L0.746391 7.82571C0.264047 9.1257 0 10.5318 0 11.9996C0 13.4674 0.264047 14.8735 0.746391 16.1735L12 17.217L23.2536 16.1735Z" fill="#F0F0F0"/>
<path d="M11.9998 23.9999C17.1593 23.9999 21.5578 20.7434 23.2533 16.1738H0.746094C2.44166 20.7434 6.84013 23.9999 11.9998 23.9999Z" fill="#D80027"/>
<path d="M11.9998 0C6.84013 0 2.44166 3.2565 0.746094 7.82611H23.2534C21.5578 3.2565 17.1593 0 11.9998 0Z" fill="#496E2D"/>
<path d="M12.0008 9.3916L12.6482 11.3844H14.7437L13.0485 12.6161L13.696 14.609L12.0008 13.3774L10.3055 14.609L10.953 12.6161L9.25781 11.3844H11.3533L12.0008 9.3916Z" fill="black"/>
<path d="M15.5648 2.34766V4.78239C15.5648 5.16606 15.2527 5.47806 14.8691 5.47806V6.52155C15.8281 6.52155 16.6083 5.74141 16.6083 4.78239V2.34766H15.5648Z" fill="#F0F0F0"/>
<path d="M8.0863 4.78239C8.0863 5.16606 7.77425 5.47806 7.39062 5.47806V6.52155C8.34964 6.52155 9.12978 5.74141 9.12978 4.78239V2.34766H8.0863V4.78239Z" fill="#F0F0F0"/>
<path d="M14 2.34766H15.0435V4.78239H14V2.34766Z" fill="#F0F0F0"/>
<path d="M12.435 3.73891C12.435 3.83481 12.3569 3.91286 12.2611 3.91286C12.1652 3.91286 12.0871 3.83481 12.0871 3.73891V2.34766H11.0436V3.73891C11.0436 3.83481 10.9656 3.91286 10.8697 3.91286C10.7738 3.91286 10.6958 3.83481 10.6958 3.73891V2.34766H9.65234V3.73891C9.65234 4.41025 10.1984 4.95634 10.8697 4.95634C11.1282 4.95634 11.3681 4.87511 11.5654 4.73716C11.7628 4.87511 12.0025 4.95634 12.261 4.95634C12.3131 4.95634 12.3643 4.95269 12.4146 4.94627C12.3407 5.25091 12.0663 5.47806 11.7393 5.47806V6.52155C12.6983 6.52155 13.4784 5.74141 13.4784 4.78239V3.73891V2.34766H12.4349L12.435 3.73891Z" fill="#F0F0F0"/>
<path d="M9.65234 5.47852H11.2175V6.522H9.65234V5.47852Z" fill="#F0F0F0"/>
</g>
<defs>
<clipPath id="clip0_1518_10959">
<rect width="24" height="24" fill="white"/>
</clipPath>
</defs>
</svg>
