<svg width="24" height="24" viewBox="0 0 24 24" fill="none" xmlns="http://www.w3.org/2000/svg">
<g clip-path="url(#clip0_1518_10999)">
<path d="M12 24C18.6274 24 24 18.6274 24 12C24 5.37258 18.6274 0 12 0C5.37258 0 0 5.37258 0 12C0 18.6274 5.37258 24 12 24Z" fill="#F0F0F0"/>
<path d="M23.0644 7.3478C21.2471 3.03103 16.9781 0 12.0005 0C8.68673 0 5.68706 1.34339 3.51562 3.51511L6.52078 7.3478H23.0644Z" fill="black"/>
<path d="M6.55486 16.6084L3.51562 20.4845C5.68706 22.6563 8.68673 23.9996 12.0005 23.9996C16.9949 23.9996 21.276 20.9484 23.0829 16.6084H6.55486Z" fill="#496E2D"/>
<path d="M2.60938 8.82617V15.1305H23.5873C23.8565 14.1325 24.0007 13.0832 24.0007 12.0001C24.0007 10.9012 23.8527 9.83717 23.576 8.82617H2.60938Z" fill="#A2001D"/>
<path d="M3.51471 3.51465C-1.17157 8.20093 -1.17157 15.7989 3.51471 20.4853C5.45126 18.5487 7.31374 16.6862 12 12L3.51471 3.51465Z" fill="#0052B4"/>
<path d="M3.90889 9.0166L5.3735 11.0604L7.77013 10.2989L6.27898 12.3236L7.74359 14.3675L5.35728 13.575L3.86609 15.5996L3.8825 13.0851L1.49609 12.2925L3.89253 11.531L3.90889 9.0166Z" fill="#FFDA44"/>
</g>
<defs>
<clipPath id="clip0_1518_10999">
<rect width="24" height="24" fill="white"/>
</clipPath>
</defs>
</svg>
