<svg width="24" height="24" viewBox="0 0 24 24" fill="none" xmlns="http://www.w3.org/2000/svg">
<g clip-path="url(#clip0_1518_11032)">
<path d="M17.7386 1.45908C16.0337 0.528891 14.0783 0 11.9994 0C9.92052 0 7.96517 0.528891 6.26028 1.45908L5.2168 12L6.26028 22.5409C7.96517 23.4711 9.92052 24 11.9994 24C14.0783 24 16.0337 23.4711 17.7386 22.5409L18.782 12L17.7386 1.45908Z" fill="#FFDA44"/>
<path d="M6.26086 22.5408V1.45898C2.53073 3.4943 0 7.45144 0 12C0 16.5485 2.53073 20.5056 6.26086 22.5408Z" fill="#338AF3"/>
<path d="M24.0011 12C24.0011 7.45144 21.4704 3.4943 17.7402 1.45898V22.5408C21.4704 20.5056 24.0011 16.5485 24.0011 12Z" fill="#6DA544"/>
<path d="M9.3917 15.13L7.30469 11.9996L9.39166 8.86914L11.4787 11.9996L9.3917 15.13Z" fill="#6DA544"/>
<path d="M14.6085 15.13L12.5215 11.9996L14.6085 8.86914L16.6954 11.9996L14.6085 15.13Z" fill="#6DA544"/>
<path d="M12.001 19.3038L9.91406 16.1734L12.001 13.043L14.088 16.1734L12.001 19.3038Z" fill="#6DA544"/>
</g>
<defs>
<clipPath id="clip0_1518_11032">
<rect width="24" height="24" fill="white"/>
</clipPath>
</defs>
</svg>
