<svg width="24" height="24" viewBox="0 0 24 24" fill="none" xmlns="http://www.w3.org/2000/svg">
<g clip-path="url(#clip0_1518_11052)">
<path d="M22.8093 17.2173C23.5721 15.6397 24 13.8697 24 11.9999C24 10.13 23.5721 8.36009 22.8093 6.78251L12 6.26074L1.19072 6.78246C0.427875 8.36009 0 10.13 0 11.9999C0 13.8697 0.427875 15.6397 1.19072 17.2173L12 17.739L22.8093 17.2173Z" fill="#FFDA44"/>
<path d="M12.0007 0C7.24316 0 3.13241 2.76867 1.19141 6.78263H22.8099C20.869 2.76867 16.7582 0 12.0007 0Z" fill="black"/>
<path d="M12.0007 24.0004C7.24316 24.0004 3.13241 21.2317 1.19141 17.2178H22.8099C20.869 21.2317 16.7582 24.0004 12.0007 24.0004Z" fill="#0052B4"/>
<path d="M23.4333 8.34766H0.566672C0.199078 9.49933 0 10.7263 0 11.9998C0 13.2734 0.199078 14.5003 0.566672 15.652H23.4333C23.8009 14.5003 24 13.2734 24 11.9998C24 10.7263 23.8009 9.49933 23.4333 8.34766Z" fill="#A2001D"/>
<path d="M4.17383 11.4785H19.826V12.522H4.17383V11.4785Z" fill="#FFDA44"/>
<path d="M6.26172 9.3916H17.74V10.4351H6.26172V9.3916Z" fill="#FFDA44"/>
<path d="M17.8133 11.9996C17.8133 11.9996 15.13 15.13 11.9996 15.13C8.86919 15.13 8.86914 11.9996 8.86914 11.9996C8.86914 11.9996 8.86914 8.86914 11.9996 8.86914C15.13 8.86914 17.8133 11.9996 17.8133 11.9996Z" fill="#F0F0F0"/>
<path d="M11.9992 15.13C8.86877 15.13 6.18555 11.9996 6.18555 11.9996C6.18555 11.9996 8.86877 8.86914 11.9992 8.86914" fill="black"/>
<path d="M9.91211 10.9561H10.9556V13.043H9.91211V10.9561Z" fill="#F0F0F0"/>
<path d="M13.043 10.9561H14.0865V13.043H13.043V10.9561Z" fill="black"/>
<path d="M4.17434 13.043C4.75064 13.043 5.21783 12.5758 5.21783 11.9995C5.21783 11.4232 4.75064 10.9561 4.17434 10.9561C3.59804 10.9561 3.13086 11.4232 3.13086 11.9995C3.13086 12.5758 3.59804 13.043 4.17434 13.043Z" fill="#0052B4"/>
<path d="M19.8267 13.043C20.403 13.043 20.8702 12.5758 20.8702 11.9995C20.8702 11.4232 20.403 10.9561 19.8267 10.9561C19.2504 10.9561 18.7832 11.4232 18.7832 11.9995C18.7832 12.5758 19.2504 13.043 19.8267 13.043Z" fill="#0052B4"/>
</g>
<defs>
<clipPath id="clip0_1518_11052">
<rect width="24" height="24" fill="white"/>
</clipPath>
</defs>
</svg>
