<svg width="24" height="24" viewBox="0 0 24 24" fill="none" xmlns="http://www.w3.org/2000/svg">
<g clip-path="url(#clip0_1518_11090)">
<path d="M1.19072 6.78274C0.427875 8.36037 0 10.1303 0 12.0001C0 13.87 0.427875 15.6399 1.19072 17.2175L12 18.261L22.8093 17.2175C23.5721 15.6399 24 13.87 24 12.0001C24 10.1303 23.5721 8.36037 22.8093 6.78274L12 5.73926L1.19072 6.78274Z" fill="#F0F0F0"/>
<path d="M1.19141 17.2178C3.13236 21.2317 7.24278 24.0004 12.0003 24.0004C16.7577 24.0004 20.8682 21.2317 22.8091 17.2178H1.19141Z" fill="#6DA544"/>
<path d="M1.19141 6.78263H22.8091C20.8682 2.76872 16.7577 0 12.0003 0C7.24278 0 3.13236 2.76872 1.19141 6.78263Z" fill="#D80027"/>
<path d="M9.91211 15.1302H14.086V13.3563L13.2513 13.7737L11.9991 12.5215L10.7469 13.7737L9.91211 13.3563V15.1302Z" fill="#FFDA44"/>
<path d="M7.52406 13.043L7.71836 13.6408H8.34695L7.83836 14.0103L8.03266 14.6082L7.52406 14.2387L7.01547 14.6082L7.20977 14.0103L6.70117 13.6408H7.32977L7.52406 13.043Z" fill="#FFDA44"/>
<path d="M8.12562 10.9561L8.31992 11.5539H8.94852L8.43992 11.9234L8.63417 12.5213L8.12562 12.1518L7.61703 12.5213L7.81133 11.9234L7.30273 11.5539H7.93133L8.12562 10.9561Z" fill="#FFDA44"/>
<path d="M9.84828 9.39062L10.0426 9.98847H10.6711L10.1626 10.358L10.3568 10.9558L9.84828 10.5864L9.33973 10.9558L9.53398 10.358L9.02539 9.98847H9.65403L9.84828 9.39062Z" fill="#FFDA44"/>
<path d="M16.4733 13.043L16.279 13.6408H15.6504L16.159 14.0103L15.9647 14.6082L16.4733 14.2387L16.9818 14.6082L16.7876 14.0103L17.2962 13.6408H16.6676L16.4733 13.043Z" fill="#FFDA44"/>
<path d="M15.8717 10.9561L15.6774 11.5539H15.0488L15.5574 11.9234L15.3631 12.5213L15.8717 12.1518L16.3803 12.5213L16.186 11.9234L16.6946 11.5539H16.066L15.8717 10.9561Z" fill="#FFDA44"/>
<path d="M14.151 9.39062L13.9567 9.98847H13.3281L13.8366 10.358L13.6424 10.9558L14.151 10.5864L14.6595 10.9558L14.4653 10.358L14.9738 9.98847H14.3452L14.151 9.39062Z" fill="#FFDA44"/>
<path d="M11.9987 8.6084L12.193 9.20624H12.8216L12.313 9.57576L12.5073 10.1736L11.9987 9.80413L11.4901 10.1736L11.6844 9.57576L11.1758 9.20624H11.8044L11.9987 8.6084Z" fill="#FFDA44"/>
</g>
<defs>
<clipPath id="clip0_1518_11090">
<rect width="24" height="24" fill="white"/>
</clipPath>
</defs>
</svg>
