<svg width="24" height="24" viewBox="0 0 24 24" fill="none" xmlns="http://www.w3.org/2000/svg">
<g clip-path="url(#clip0_1518_11114)">
<path d="M12 24C18.6274 24 24 18.6274 24 12C24 5.37258 18.6274 0 12 0C5.37258 0 0 5.37258 0 12C0 18.6274 5.37258 24 12 24Z" fill="#F0F0F0"/>
<path d="M5.23633 2.08697C7.16219 0.770438 9.49084 0 11.9998 0C14.5087 0 16.8374 0.770438 18.7632 2.08697L11.9998 2.60869L5.23633 2.08697Z" fill="#FFDA44"/>
<path d="M3.51534 20.4846L9.04856 14.9515L12 9.91298L14.9511 14.9511L20.4847 20.4846C22.6564 18.3132 24 15.3137 24 11.9999C24 7.88146 21.9249 4.24799 18.7635 2.08691H5.23655C2.07511 4.24799 0 7.88146 0 11.9999C0 15.3137 1.34363 18.3132 3.51534 20.4846Z" fill="#D80027"/>
<path d="M23.088 16.5945L14.3145 12.959L14.9504 14.9504L20.4843 20.4844C21.5893 19.3796 22.4798 18.0604 23.088 16.5945Z" fill="#0052B4"/>
<path d="M24 12C24 10.3723 23.6756 8.82048 23.0884 7.40527L12 12H24Z" fill="#0052B4"/>
<path d="M20.4847 3.51529C19.9572 2.98795 19.3812 2.50921 18.7635 2.08691H16.1077L12 11.9999L20.4847 3.51529Z" fill="#0052B4"/>
<path d="M12.0003 2.08691H7.89258L12.0003 11.9999V2.08691Z" fill="#0052B4"/>
<path d="M3.51578 3.51562C2.41084 4.62047 1.52036 5.93958 0.912109 7.4055L12.0004 12.0003L3.51578 3.51562Z" fill="#0052B4"/>
<path d="M0 12C0 13.6277 0.324422 15.1795 0.911625 16.5947L12 12H0Z" fill="#0052B4"/>
<path d="M5.23633 21.9131C7.16214 23.2296 9.49084 24.0001 11.9998 24.0001C14.5087 24.0001 16.8374 23.2296 18.7632 21.9131H5.23633Z" fill="#FFDA44"/>
<path d="M12.0001 12.0001L14.9515 14.9515C15.7068 14.1961 16.174 13.1527 16.174 12.0001C16.174 9.69484 14.3053 7.82617 12.0001 7.82617C9.69494 7.82617 7.82617 9.69484 7.82617 12.0001C7.82617 13.1526 8.29333 14.1961 9.04872 14.9515L12.0001 12.0001Z" fill="#FFDA44"/>
<path d="M13.826 17.9999C13.826 19.0085 13.0084 19.3043 11.9999 19.3043C10.9915 19.3043 10.1738 19.0085 10.1738 17.9999C10.1738 16.9914 10.9915 16.1738 11.9999 16.1738C13.0084 16.1738 13.826 16.9914 13.826 17.9999Z" fill="#FFDA44"/>
<path d="M13.826 18C13.826 19.0085 13.0084 19.8261 11.9999 19.8261C10.9915 19.8261 10.1738 19.0085 10.1738 18" fill="#0052B4"/>
</g>
<defs>
<clipPath id="clip0_1518_11114">
<rect width="24" height="24" fill="white"/>
</clipPath>
</defs>
</svg>
