<svg width="24" height="24" viewBox="0 0 24 24" fill="none" xmlns="http://www.w3.org/2000/svg">
<g clip-path="url(#clip0_1518_11151)">
<path d="M23.5873 8.86955C22.2103 3.76036 17.545 0 12.0007 0C6.45634 0 1.79106 3.76036 0.414062 8.86955L12.0007 9.39131L23.5873 8.86955Z" fill="#A2001D"/>
<path d="M0.414062 15.1302C1.79106 20.2393 6.45634 23.9997 12.0007 23.9997C17.545 23.9997 22.2103 20.2394 23.5873 15.1302L12.0007 14.6084L0.414062 15.1302Z" fill="#A2001D"/>
<path d="M23.5866 8.86914H0.413391C0.144375 9.86725 0 10.9165 0 11.9996C0 13.0827 0.144375 14.1319 0.413391 15.13H23.5867C23.8556 14.1319 24 13.0827 24 11.9996C24 10.9165 23.8556 9.86725 23.5866 8.86914Z" fill="#6DA544"/>
</g>
<defs>
<clipPath id="clip0_1518_11151">
<rect width="24" height="24" fill="white"/>
</clipPath>
</defs>
</svg>
