<svg width="24" height="24" viewBox="0 0 24 24" fill="none" xmlns="http://www.w3.org/2000/svg">
<g clip-path="url(#clip0_1518_11201)">
<path d="M24 12C24 18.6274 18.6274 24 12 24C5.37262 24 0 18.6274 0 12C0 12.0029 12 0.0013125 12 0C18.6274 0 24 5.37262 24 12Z" fill="#0052B4"/>
<path d="M11.9688 11.9999H12.0009C12.0009 11.9891 12.0009 11.9786 12.0009 11.9678C11.9902 11.9785 11.9795 11.9892 11.9688 11.9999Z" fill="#F0F0F0"/>
<path d="M12 6.26086C12 4.14937 12 2.76586 12 0H11.998C5.37145 0.001125 0 5.37323 0 12H6.26086V8.47448L9.78638 12H11.9679C11.9786 11.9893 11.9893 11.9786 12 11.9679C12 11.1594 12 10.4381 12 9.78647L8.47444 6.26086H12Z" fill="#F0F0F0"/>
<path d="M6.07027 1.56543C4.19344 2.63413 2.63311 4.19441 1.56445 6.07124V12.0002H4.69491V4.69598V4.69588H11.9993C11.9993 3.70855 11.9993 2.76796 11.9993 1.56543H6.07027Z" fill="#D80027"/>
<path d="M11.9989 10.5242L7.73539 6.26074H6.25977V6.26084L11.9988 11.9998H11.9989C11.9989 11.9998 11.9989 10.9823 11.9989 10.5242Z" fill="#D80027"/>
<path d="M13.5645 6.26074V11.9998C13.5645 14.7955 17.2166 15.6521 17.2166 15.6521C17.2166 15.6521 20.8688 14.7955 20.8688 11.9998V6.26074H13.5645Z" fill="#FFDA44"/>
<path d="M16.6963 8.34817C16.6963 8.9245 16.2292 10.4351 15.6529 10.4351C15.0765 10.4351 14.6094 8.9245 14.6094 8.34817C14.6094 7.77184 15.6529 7.30469 15.6529 7.30469C15.6529 7.30469 16.6963 7.77184 16.6963 8.34817Z" fill="#FF9811"/>
<path d="M19.4642 9.48466C19.6326 9.0738 19.7635 8.47323 19.7635 8.17427C19.7635 7.69398 19.1374 7.30469 19.1374 7.30469C19.1374 7.30469 18.5113 7.69403 18.5113 8.17427C18.5113 8.47323 18.6423 9.0738 18.8107 9.48466L18.4492 10.3008C18.6617 10.3871 18.8939 10.4351 19.1374 10.4351C19.3809 10.4351 19.6131 10.3871 19.8256 10.3008L19.4642 9.48466Z" fill="#A2001D"/>
<path d="M16.4338 12.0002C16.4338 12.0002 15.9121 13.0437 15.9121 14.0872H18.5208C18.5208 13.0437 17.999 12.0002 17.999 12.0002L17.2164 11.4785L16.4338 12.0002Z" fill="#6DA544"/>
<path d="M18.0008 11.9995V11.7387C18.0008 11.3065 17.6504 10.9561 17.2182 10.9561C16.786 10.9561 16.4355 11.3064 16.4355 11.7387V11.9995H18.0008Z" fill="#D80027"/>
</g>
<defs>
<clipPath id="clip0_1518_11201">
<rect width="24" height="24" fill="white"/>
</clipPath>
</defs>
</svg>
