<svg width="24" height="24" viewBox="0 0 24 24" fill="none" xmlns="http://www.w3.org/2000/svg">
<g clip-path="url(#clip0_1518_11173)">
<path d="M11.9995 0C11.1035 0 10.2308 0.0990469 9.39086 0.285234L8.86914 12L9.39086 23.7147C10.2308 23.9009 11.1036 24 11.9995 24C18.6269 24 23.9995 18.6274 23.9995 12C23.9995 5.37258 18.6269 0 11.9995 0V0Z" fill="#496E2D"/>
<path d="M3.13041 3.91699C1.18584 6.04962 0 8.88602 0 11.9996C0 15.1131 1.18589 17.9495 3.13045 20.0822L3.65217 11.9996L3.13041 3.91699Z" fill="#496E2D"/>
<path d="M17.5522 9.05131C18.1425 7.40572 17.4793 5.61598 16.0558 4.72461C16.3118 4.75794 16.5682 4.81822 16.8211 4.90892C18.7197 5.59011 19.7066 7.6813 19.0254 9.57983C18.3442 11.4785 16.253 12.4653 14.3544 11.7841C14.1015 11.6934 13.8652 11.5769 13.6465 11.4399C15.312 11.6568 16.9618 10.6969 17.5522 9.05131Z" fill="#F0F0F0"/>
<path d="M14.2766 4.27344L13.7636 4.93634L12.9747 4.65327L13.4465 5.34598L12.9336 6.0088L13.7382 5.77414L14.2101 6.46677L14.2355 5.62902L15.0401 5.39431L14.2513 5.11133L14.2766 4.27344Z" fill="#F0F0F0"/>
<path d="M15.6634 6.43359L15.1503 7.09645L14.3614 6.81338L14.8333 7.50609L14.3203 8.16891L15.1249 7.93416L15.5969 8.62692L15.6223 7.78912L16.4269 7.55438L15.638 7.27134L15.6634 6.43359Z" fill="#F0F0F0"/>
<path d="M11.8352 5.06055L11.3222 5.72336L10.5333 5.44037L11.0052 6.13305L10.4922 6.79591L11.2968 6.5612L11.7687 7.25388L11.7941 6.41612L12.5987 6.18142L11.8098 5.89834L11.8352 5.06055Z" fill="#F0F0F0"/>
<path d="M11.7786 7.53418L11.2656 8.19704L10.4767 7.91401L10.9486 8.60673L10.4355 9.26954L11.2402 9.03488L11.7121 9.72751L11.7375 8.88976L12.5422 8.65505L11.7532 8.37198L11.7786 7.53418Z" fill="#F0F0F0"/>
<path d="M14.1321 8.37891L13.6191 9.04172L12.8302 8.75869L13.3022 9.45141L12.7891 10.1142L13.5938 9.87952L14.0657 10.5722L14.091 9.73439L14.8957 9.49973L14.1067 9.2167L14.1321 8.37891Z" fill="#F0F0F0"/>
<path d="M3.13086 3.91731V20.0825C4.76586 21.8756 6.93758 23.1706 9.39172 23.7146V0.285156C6.93753 0.829188 4.76591 2.12411 3.13086 3.91731Z" fill="#D80027"/>
<path d="M5.51887 6.31822L4.4707 5.53737V4.43314L5.51887 3.65234H7.0013L8.04947 4.43314V5.53737L7.0013 6.31822H5.51887Z" fill="#F0F0F0"/>
<path d="M6.26011 3.65234H5.51888L4.4707 4.43314V4.973H6.26011V3.65234Z" fill="#FF9811"/>
<path d="M6.25977 6.31777H7.00095L8.04913 5.53693V4.97363H6.25977V6.31777Z" fill="#FF9811"/>
<path d="M5.51887 20.3475L4.4707 19.5667V18.4625L5.51887 17.6816H7.0013L8.04947 18.4625V19.5667L7.0013 20.3475H5.51887Z" fill="#F0F0F0"/>
<path d="M6.26011 17.6816H5.51888L4.4707 18.4625V19.0023H6.26011V17.6816Z" fill="#FF9811"/>
<path d="M6.25977 20.348H7.00095L8.04913 19.5672V19.0039H6.25977V20.348Z" fill="#FF9811"/>
<path d="M5.52083 13.3329L4.47266 12.552V11.4478L5.52083 10.667H7.00325L8.05142 11.4478V12.552L7.00325 13.3329H5.52083Z" fill="#496E2D"/>
<path d="M8.08767 15.0502H7.63111V14.5936H6.82884L6.26156 14.0264L5.69433 14.5936H4.89206V15.0502H4.43555V15.9632H4.89206V16.4197H5.69428L6.26161 16.987L6.82884 16.4197H7.63111V15.9632H8.08767V15.0502Z" fill="#496E2D"/>
<path d="M8.08767 8.03556H7.63111V7.579H6.82884L6.26156 7.01172L5.69433 7.579H4.89206V8.03556H4.43555V8.94859H4.89206V9.40511H5.69428L6.26161 9.97248L6.82884 9.40511H7.63111V8.94859H8.08767V8.03556Z" fill="#496E2D"/>
<path d="M5.73828 11.4785H6.78177V12.522H5.73828V11.4785Z" fill="#D80027"/>
<path d="M6.26 9.01414C6.54814 9.01414 6.78172 8.78056 6.78172 8.49242C6.78172 8.20428 6.54814 7.9707 6.26 7.9707C5.97186 7.9707 5.73828 8.20428 5.73828 8.49242C5.73828 8.78056 5.97186 9.01414 6.26 9.01414Z" fill="#D80027"/>
<path d="M6.26 16.0298C6.54814 16.0298 6.78172 15.7962 6.78172 15.508C6.78172 15.2199 6.54814 14.9863 6.26 14.9863C5.97186 14.9863 5.73828 15.2199 5.73828 15.508C5.73828 15.7962 5.97186 16.0298 6.26 16.0298Z" fill="#D80027"/>
</g>
<defs>
<clipPath id="clip0_1518_11173">
<rect width="24" height="24" fill="white"/>
</clipPath>
</defs>
</svg>
