<svg width="24" height="24" viewBox="0 0 24 24" fill="none" xmlns="http://www.w3.org/2000/svg">
<g clip-path="url(#clip0_1518_11248)">
<path d="M12 24C18.6274 24 24 18.6274 24 12C24 5.37258 18.6274 0 12 0C5.37258 0 0 5.37258 0 12C0 18.6274 5.37258 24 12 24Z" fill="#F0F0F0"/>
<path d="M6.7832 16.1738L7.82669 23.2536C9.12663 23.736 10.5327 23.9999 12.0006 23.9999C17.1601 23.9999 21.5587 20.7434 23.2541 16.1738H6.7832Z" fill="black"/>
<path d="M6.7832 7.82611L7.82669 0.746297C9.12663 0.263906 10.5327 0 12.0006 0C17.1601 0 21.5587 3.2565 23.2541 7.82611H6.7832Z" fill="#6DA544"/>
<path d="M0 11.9997C0 17.1593 3.25655 21.5578 7.82611 23.2533V0.746094C3.25655 2.44161 0 6.84013 0 11.9997Z" fill="#A2001D"/>
</g>
<defs>
<clipPath id="clip0_1518_11248">
<rect width="24" height="24" fill="white"/>
</clipPath>
</defs>
</svg>
