<svg width="24" height="24" viewBox="0 0 24 24" fill="none" xmlns="http://www.w3.org/2000/svg">
<g clip-path="url(#clip0_1518_11270)">
<path d="M12 24C18.6274 24 24 18.6274 24 12C24 5.37258 18.6274 0 12 0C5.37258 0 0 5.37258 0 12C0 18.6274 5.37258 24 12 24Z" fill="#338AF3"/>
<path d="M11.9669 7.82617C9.66159 7.82617 7.79297 9.69489 7.79297 12.0001C7.79297 14.3052 9.66164 16.174 11.9669 16.174C14.272 16.174 16.1408 14.3052 16.1408 12.0001C16.1408 9.69489 14.2719 7.82617 11.9669 7.82617ZM10.9234 12.0001C10.9234 11.4238 11.3905 10.9566 11.9669 10.9566C12.5431 10.9566 13.0103 11.4238 13.0103 12.0001C13.0103 12.5764 12.5431 13.0435 11.9669 13.0435C11.3905 13.0435 10.9234 12.5764 10.9234 12.0001ZM13.0487 10.2151C12.8868 10.1167 12.7103 10.0403 12.5233 9.9887V8.91995C12.994 9.00442 13.428 9.19375 13.8004 9.46347L13.0487 10.2151ZM11.4799 9.97084C11.2841 10.0177 11.0991 10.0921 10.9291 10.1897L10.174 9.43455C10.5557 9.16727 10.9995 8.98262 11.4799 8.90748V9.97084ZM10.9291 13.8104C11.0991 13.908 11.284 13.9825 11.4798 14.0292V15.0925C10.9995 15.0175 10.5557 14.8328 10.174 14.5655L10.9291 13.8104ZM12.5234 14.0114C12.7102 13.9598 12.8869 13.8835 13.0487 13.7851L13.8004 14.5367C13.4279 14.8064 12.994 14.9957 12.5233 15.0802V14.0115H12.5234V14.0114ZM13.7772 13.0379C13.8691 12.8779 13.941 12.7048 13.9881 12.5218H15.0532C14.9748 12.9888 14.7932 13.4205 14.5324 13.7929L13.7772 13.0379ZM13.9881 11.4783C13.941 11.2953 13.8691 11.1224 13.7772 10.9623L14.5323 10.2072C14.7931 10.5797 14.9748 11.0113 15.0531 11.4783H13.988V11.4783H13.9881ZM9.43022 10.1665L10.1819 10.9182C10.0774 11.0902 9.99708 11.2785 9.94561 11.4783H8.88052C8.96175 10.9943 9.15389 10.5482 9.43022 10.1665ZM8.88052 12.5218H9.94561C9.99703 12.7217 10.0773 12.9099 10.1819 13.0819L9.43022 13.8336C9.15389 13.452 8.96175 13.0059 8.88052 12.5218Z" fill="#F0F0F0"/>
<path d="M18.7487 12.0001C18.7487 10.1448 18.0035 8.46382 16.7965 7.23926L15.6897 8.34602C16.6135 9.28727 17.1835 10.5771 17.1835 12.0001C17.1835 14.8816 14.8476 17.2175 11.9662 17.2175C9.08462 17.2175 6.7488 14.8816 6.7488 12.0001C6.7488 10.5593 7.33272 9.25498 8.27692 8.31087L7.17016 7.2041C5.94273 8.43152 5.18359 10.1272 5.18359 12.0001C5.18359 15.1039 7.26845 17.7208 10.1142 18.5268C9.80219 19.1194 9.84972 19.8656 10.2954 20.4218C10.8808 19.9527 11.4868 19.467 12.001 19.055C12.5151 19.467 13.1212 19.9527 13.7065 20.4218C14.1566 19.8601 14.2009 19.1044 13.8785 18.5089C16.6931 17.6832 18.7487 15.0819 18.7487 12.0001Z" fill="#F0F0F0"/>
</g>
<defs>
<clipPath id="clip0_1518_11270">
<rect width="24" height="24" fill="white"/>
</clipPath>
</defs>
</svg>
