<svg width="24" height="24" viewBox="0 0 24 24" fill="none" xmlns="http://www.w3.org/2000/svg">
<g clip-path="url(#clip0_1518_11293)">
<path d="M0.566625 8.34794C0.199031 9.49956 -4.68667e-05 10.7264 8.276e-09 12C-4.68667e-05 13.2736 0.199078 14.5005 0.566672 15.6521L12 16.174L23.4333 15.6522C23.8009 14.5006 24 13.2736 24 12.0001C24 10.7265 23.8009 9.49956 23.4333 8.34789L12 7.82617L0.566625 8.34794Z" fill="#F0F0F0"/>
<path d="M23.4332 8.34789L11.9999 7.82617L0.5665 8.34789C0.457562 8.68933 0.363766 9.03747 0.285156 9.39138H23.7144C23.6359 9.03742 23.5421 8.68923 23.4332 8.34789Z" fill="#D80027"/>
<path d="M0.285156 14.6084C0.363672 14.9623 0.457469 15.3104 0.566406 15.6518L0.567531 15.6519L11.9997 16.1736L23.433 15.6519C23.542 15.3104 23.6358 14.9623 23.7143 14.6084H0.285156Z" fill="#D80027"/>
<path d="M11.9997 24.0002C17.3536 24.0002 21.8878 20.4938 23.433 15.6523H0.566406C2.11164 20.4937 6.64595 24.0002 11.9997 24.0002Z" fill="#6DA544"/>
<path d="M11.9997 4.69973e-10C6.64595 4.68755e-05 2.11173 3.50644 0.566406 8.34783L23.433 8.34788C21.8879 3.50639 17.3536 -4.68745e-05 11.9997 4.69973e-10Z" fill="#338AF3"/>
<path d="M5.48278 4.95618C5.48278 3.83226 6.27267 2.89335 7.3275 2.66301C7.16541 2.62757 6.99717 2.6084 6.82439 2.6084C5.52773 2.6084 4.47656 3.65952 4.47656 4.95623C4.47656 6.25293 5.52764 7.30406 6.82439 7.30406C6.99717 7.30406 7.16536 7.28484 7.3275 7.24945C6.27272 7.01901 5.48278 6.0801 5.48278 4.95618Z" fill="#F0F0F0"/>
<path d="M8.71433 6.02344L8.87323 6.51258H9.38755L8.97148 6.81492L9.13039 7.30406L8.71433 7.00177L8.29817 7.30406L8.45712 6.81492L8.04102 6.51258H8.55533L8.71433 6.02344Z" fill="#F0F0F0"/>
<path d="M10.3568 6.02344L10.5158 6.51258H11.0301L10.614 6.81492L10.7729 7.30406L10.3568 7.00177L9.9407 7.30406L10.0997 6.81492L9.68359 6.51258H10.1979L10.3568 6.02344Z" fill="#F0F0F0"/>
<path d="M11.9975 6.02344L12.1564 6.51258H12.6708L12.2547 6.81492L12.4136 7.30406L11.9975 7.00177L11.5814 7.30406L11.7404 6.81492L11.3242 6.51258H11.8386L11.9975 6.02344Z" fill="#F0F0F0"/>
<path d="M13.6401 6.02344L13.7991 6.51258H14.3133L13.8973 6.81492L14.0562 7.30406L13.6401 7.00177L13.224 7.30406L13.383 6.81492L12.9668 6.51258H13.4811L13.6401 6.02344Z" fill="#F0F0F0"/>
<path d="M15.2806 6.02344L15.4396 6.51258H15.9539L15.5378 6.81492L15.6968 7.30406L15.2806 7.00177L14.8645 7.30406L15.0235 6.81492L14.6074 6.51258H15.1217L15.2806 6.02344Z" fill="#F0F0F0"/>
<path d="M10.3568 4.31641L10.5158 4.8055H11.0301L10.614 5.10789L10.7729 5.59698L10.3568 5.29469L9.9407 5.59698L10.0997 5.10789L9.68359 4.8055H10.1979L10.3568 4.31641Z" fill="#F0F0F0"/>
<path d="M11.9975 4.31641L12.1564 4.8055H12.6708L12.2547 5.10789L12.4136 5.59698L11.9975 5.29469L11.5814 5.59698L11.7404 5.10789L11.3242 4.8055H11.8386L11.9975 4.31641Z" fill="#F0F0F0"/>
<path d="M13.6401 4.31641L13.7991 4.8055H14.3133L13.8973 5.10789L14.0562 5.59698L13.6401 5.29469L13.224 5.59698L13.383 5.10789L12.9668 4.8055H13.4811L13.6401 4.31641Z" fill="#F0F0F0"/>
<path d="M15.2806 4.31641L15.4396 4.8055H15.9539L15.5378 5.10789L15.6968 5.59698L15.2806 5.29469L14.8645 5.59698L15.0235 5.10789L14.6074 4.8055H15.1217L15.2806 4.31641Z" fill="#F0F0F0"/>
<path d="M11.9975 2.6084L12.1564 3.09759H12.6708L12.2547 3.39988L12.4136 3.88907L11.9975 3.58677L11.5814 3.88907L11.7404 3.39988L11.3242 3.09759H11.8386L11.9975 2.6084Z" fill="#F0F0F0"/>
<path d="M13.6401 2.6084L13.7991 3.09759H14.3133L13.8973 3.39988L14.0562 3.88907L13.6401 3.58677L13.224 3.88907L13.383 3.39988L12.9668 3.09759H13.4811L13.6401 2.6084Z" fill="#F0F0F0"/>
<path d="M15.2806 2.6084L15.4396 3.09759H15.9539L15.5378 3.39988L15.6968 3.88907L15.2806 3.58677L14.8645 3.88907L15.0235 3.39988L14.6074 3.09759H15.1217L15.2806 2.6084Z" fill="#F0F0F0"/>
</g>
<defs>
<clipPath id="clip0_1518_11293">
<rect width="24" height="24" fill="white"/>
</clipPath>
</defs>
</svg>
