<svg width="24" height="24" viewBox="0 0 24 24" fill="none" xmlns="http://www.w3.org/2000/svg">
<g clip-path="url(#clip0_1518_11314)">
<path d="M24 11.9999C24 11.4695 23.9651 10.9471 23.8984 10.4347H10.4347C7.98306 7.98328 3.51452 3.51502 3.5147 3.51465C-1.17157 8.20092 -1.17157 15.7989 3.5147 20.4852L10.4348 13.5652H23.8984C23.9651 13.0528 24 12.5304 24 11.9999Z" fill="black"/>
<path d="M23.9978 12.2734C23.9973 12.2966 23.9967 12.3198 23.9961 12.343C23.9967 12.3198 23.9972 12.2966 23.9978 12.2734Z" fill="#F0F0F0"/>
<path d="M23.9863 12.6016C23.9852 12.6245 23.9836 12.6473 23.9824 12.6702C23.9836 12.6474 23.9851 12.6245 23.9863 12.6016Z" fill="#F0F0F0"/>
<path d="M23.9703 12.8623C23.968 12.896 23.9656 12.9297 23.9629 12.9633C23.9656 12.9297 23.9679 12.896 23.9703 12.8623Z" fill="#F0F0F0"/>
<path d="M23.9297 10.6924C23.9341 10.7325 23.9385 10.7726 23.9425 10.8128C23.9385 10.7725 23.934 10.7325 23.9297 10.6924Z" fill="#F0F0F0"/>
<path d="M23.9824 11.3311C23.9837 11.3539 23.9852 11.3768 23.9863 11.3997C23.9852 11.3768 23.9837 11.3539 23.9824 11.3311Z" fill="#F0F0F0"/>
<path d="M23.9961 11.6582C23.9967 11.6814 23.9972 11.7046 23.9978 11.7278C23.9973 11.7045 23.9967 11.6814 23.9961 11.6582Z" fill="#F0F0F0"/>
<path d="M23.9629 11.0371C23.9656 11.0707 23.968 11.1044 23.9703 11.1381C23.9679 11.1044 23.9656 11.0707 23.9629 11.0371Z" fill="#F0F0F0"/>
<path d="M23.8975 10.4347C23.9029 10.4758 23.9076 10.5172 23.9126 10.5584C23.2003 4.6108 18.1385 0 11.9991 0C8.68529 0 5.68525 1.3432 3.51367 3.51487L10.4335 10.4348H23.8975V10.4347Z" fill="#D80027"/>
<path d="M23.8975 13.5651H10.4335L3.51367 20.485C5.68525 22.6566 8.68529 23.9998 11.9991 23.9998C18.1385 23.9998 23.2004 19.389 23.9126 13.4414C23.9076 13.4826 23.9028 13.524 23.8975 13.5651Z" fill="#6DA544"/>
<path d="M23.9405 13.1875C23.9365 13.2277 23.9321 13.2678 23.9277 13.3079C23.9321 13.2678 23.9366 13.2278 23.9405 13.1875Z" fill="#F0F0F0"/>
<path d="M23.9688 11.1377C23.9733 11.2019 23.9774 11.2662 23.9809 11.3306C23.9774 11.2662 23.9733 11.2019 23.9688 11.1377Z" fill="black"/>
<path d="M23.9141 10.5586C23.9195 10.6031 23.9246 10.6477 23.9293 10.6923C23.9245 10.6477 23.9194 10.6031 23.9141 10.5586Z" fill="black"/>
<path d="M23.9414 10.8125C23.9487 10.887 23.9553 10.9617 23.9613 11.0366C23.9554 10.9617 23.9488 10.8869 23.9414 10.8125Z" fill="black"/>
<path d="M23.9995 12C23.9995 12.0913 23.9981 12.1822 23.9961 12.2729C23.9981 12.1821 23.9995 12.0912 23.9995 12Z" fill="black"/>
<path d="M23.9809 12.6699C23.9774 12.7344 23.9732 12.7987 23.9688 12.8629C23.9732 12.7987 23.9773 12.7344 23.9809 12.6699Z" fill="black"/>
<path d="M23.9613 12.9639C23.9553 13.0387 23.9487 13.1134 23.9414 13.1879C23.9488 13.1134 23.9554 13.0387 23.9613 12.9639Z" fill="black"/>
<path d="M23.9293 13.3076C23.9246 13.3522 23.9195 13.3968 23.9141 13.4413C23.9194 13.3968 23.9245 13.3522 23.9293 13.3076Z" fill="black"/>
<path d="M23.9961 11.7275C23.9981 11.8183 23.9995 11.9092 23.9995 12.0004C23.9995 11.9092 23.9981 11.8183 23.9961 11.7275Z" fill="black"/>
<path d="M23.9844 11.3994C23.9886 11.4853 23.9918 11.5715 23.9942 11.6578C23.9918 11.5714 23.9886 11.4853 23.9844 11.3994Z" fill="black"/>
<path d="M23.9942 12.3428C23.9918 12.4291 23.9886 12.5153 23.9844 12.6012C23.9887 12.5153 23.9918 12.4291 23.9942 12.3428Z" fill="black"/>
<path d="M23.9873 11.4737H9.99255L2.80395 4.28613C2.57159 4.53119 2.31973 4.87338 2.16397 5.11708L9.0386 11.9953L2.1582 18.8759C2.29442 19.1182 2.59119 19.4769 2.79955 19.7103L9.99269 12.5171H23.989C23.9964 12.3441 23.9988 12.1703 23.9988 11.9954C23.9987 11.7611 23.9923 11.5884 23.9873 11.4737Z" fill="#FFDA44"/>
<path d="M2.91417 14.5574V13.5523C3.9172 13.5523 4.73315 12.7362 4.73315 11.7333C4.73315 11.0237 4.15579 10.4464 3.4462 10.4464C2.96278 10.4464 2.56945 10.8396 2.56945 11.3232C2.56945 11.6323 2.82094 11.8838 3.13012 11.8838C3.30487 11.8838 3.44704 11.7416 3.44704 11.5668H4.45214C4.45214 12.2959 3.85907 12.8889 3.13017 12.8889C2.26678 12.889 1.56445 12.1865 1.56445 11.3232C1.56445 10.2856 2.40867 9.44141 3.44625 9.44141C4.71009 9.44141 5.73834 10.4697 5.73834 11.7334C5.73829 13.2905 4.4714 14.5574 2.91417 14.5574Z" fill="#FFDA44"/>
</g>
<defs>
<clipPath id="clip0_1518_11314">
<rect width="24" height="24" fill="white"/>
</clipPath>
</defs>
</svg>
