<svg width="24" height="24" viewBox="0 0 24 24" fill="none" xmlns="http://www.w3.org/2000/svg">
<g clip-path="url(#clip0_1518_11340)">
<path d="M12.0008 0C18.6281 0 24.0007 5.37262 24.0007 12C24.0007 18.6274 18.6281 24 12.0008 24C12.0008 23.4783 10.4355 12 10.4355 12L12.0008 0Z" fill="#F0F0F0"/>
<path d="M12 24C5.37262 24 0 18.6274 0 12C0 5.37262 5.37262 0 12 0" fill="#FFDA44"/>
<path d="M16.5942 10.4419L18.8494 13.4253C18.4941 13.9633 18.496 14.6882 18.9069 15.2318C19.4282 15.9214 20.4098 16.0579 21.0994 15.5366C21.789 15.0154 21.9255 14.0338 21.4042 13.3442C20.9933 12.8006 20.2964 12.6011 19.6818 12.7962L16.1671 8.14648L15.3347 8.77573L14.0859 9.71952L15.3444 11.3843L16.5942 10.4419ZM19.8409 13.8717C20.0708 13.6979 20.398 13.7435 20.5718 13.9733C20.7455 14.2032 20.7001 14.5304 20.4702 14.7042C20.2404 14.8779 19.9132 14.8325 19.7394 14.6026C19.5656 14.3727 19.6111 14.0455 19.8409 13.8717Z" fill="#ACABB1"/>
<path d="M20.4642 11.3844L21.7227 9.71961L20.4741 8.77573L19.6417 8.14648L16.1269 12.7962C15.5125 12.6011 14.8155 12.8006 14.4046 13.3442C13.8833 14.0338 14.0198 15.0154 14.7093 15.5366C15.399 16.0579 16.3805 15.9214 16.9018 15.2318C17.3127 14.6882 17.3146 13.9633 16.9593 13.4253L19.2145 10.4419L20.4642 11.3844ZM16.0694 14.6027C15.8957 14.8326 15.5685 14.878 15.3386 14.7043C15.1087 14.5305 15.0633 14.2032 15.237 13.9734C15.4107 13.7436 15.738 13.698 15.9679 13.8718C16.1977 14.0456 16.2431 14.3728 16.0694 14.6027Z" fill="#FFDA44"/>
</g>
<defs>
<clipPath id="clip0_1518_11340">
<rect width="24" height="24" fill="white"/>
</clipPath>
</defs>
</svg>
