<svg xmlns="http://www.w3.org/2000/svg" width="79" height="106" viewBox="0 0 79 106" fill="none">
    <path d="M31.9601 82.826C31.7071 83.0243 31.4814 83.1406 31.331 83.3252C30.8045 83.9817 30.2984 83.8586 29.6488 83.4483C28.671 82.826 27.5564 82.4157 26.6059 81.7525C25.6691 81.1029 24.6366 80.3985 24.0349 79.4686C21.1287 75.0034 18.3457 70.4493 15.5216 65.9294C14.5232 64.3293 14.3933 62.5378 14.4959 60.7325C14.66 57.7785 14.8309 54.8313 15.1181 51.891C15.3848 49.1421 16.4857 46.6326 17.5866 44.1299C18.9405 41.0528 20.7731 38.3723 23.3647 36.1705C26.4281 33.5721 29.3616 30.8232 32.3362 28.1222C34.4012 26.2486 36.8492 25.346 39.5776 24.9836C42.9419 24.5323 46.3062 24.3476 49.7046 24.3408C53.8279 24.3339 57.4794 25.5648 60.6386 28.1495C63.025 30.1052 65.2884 32.1976 67.6065 34.2353C67.627 34.249 67.6407 34.2764 67.6612 34.2901C69.4869 35.2269 69.3843 36.7859 68.9741 38.427C68.8031 39.0972 68.9604 39.5348 69.7057 39.5485C71.6204 39.5895 72.5708 40.7041 73.3777 42.3383C75.8599 47.3779 77.4873 52.6432 78.1848 58.2093C78.4036 59.9393 78.6293 61.6693 78.7113 63.4062C78.7455 64.1242 78.5131 64.9105 78.2259 65.5875C76.6942 69.1979 74.4923 72.4049 72.0375 75.441C71.1143 76.583 70.2049 77.7317 69.3638 78.9284C68.6595 79.9267 67.8253 80.7815 66.7107 81.2328C63.9482 82.3405 61.1651 83.3799 58.3684 84.4124C57.2538 84.8227 56.0845 85.0689 54.9835 85.4997C52.9527 86.2929 50.7714 86.2587 48.6858 86.7374C47.5438 86.9972 46.4087 87.3801 45.3352 87.8588C43.824 88.5358 42.2923 88.6383 40.7605 88.1391C38.6955 87.469 36.6167 86.7852 34.6611 85.8689C33.7995 85.4655 33.2046 84.4672 32.5071 83.715C32.2951 83.4893 32.172 83.1748 31.9601 82.826ZM59.312 78.9147C59.312 78.9489 59.312 78.9762 59.312 79.0104C60.071 79.0104 60.83 79.0173 61.5891 79.0036C62.0198 78.9968 62.4506 78.9626 62.8746 78.9215C64.4542 78.7848 64.755 78.5865 65.1722 77.0821C65.6645 75.2906 66.5876 73.8409 68.051 72.6648C69.7878 71.2767 71.4426 69.786 73.1042 68.309C73.3298 68.1039 73.5077 67.7278 73.5213 67.4269C73.576 66.3397 73.5282 65.2524 73.5555 64.1652C73.5692 63.7002 73.4051 63.4198 72.9948 63.201C72.3452 62.8591 71.7161 62.483 71.1144 62.0659C70.8955 61.9155 70.7109 61.6283 70.6494 61.3685C70.4237 60.3359 70.2254 59.2897 70.0887 58.2435C70.0476 57.9358 70.1707 57.5323 70.369 57.293C71.0186 56.4861 71.7298 55.734 72.4136 54.9544C73.1247 54.1475 72.9606 53.156 71.9691 52.6774C69.3775 51.426 66.7654 50.202 64.1533 49.0054C63.9413 48.9096 63.5652 48.9849 63.3533 49.1148C62.437 49.6892 61.548 50.3114 60.6454 50.9132C59.5787 51.6312 58.5051 52.3423 57.4452 53.0671C56.9119 53.4227 56.8572 53.9082 56.9597 54.5236C57.5751 58.2708 57.9034 62.0386 57.7803 65.8405C57.7666 66.1961 57.6709 66.62 57.4521 66.8799C56.7136 67.7756 55.9409 68.6509 55.1066 69.4578C53.9715 70.5519 53.5818 71.8306 53.8006 73.3759C53.8621 73.7931 53.7049 74.3196 53.4724 74.682C53.0279 75.3795 52.4193 75.9744 51.9338 76.6513C50.8398 78.1694 50.9013 78.3745 52.3031 79.578C52.6997 79.9131 52.9595 79.8105 53.3766 79.6669C54.2929 79.3523 55.2434 79.0515 56.2007 78.9352C57.2333 78.819 58.2795 78.9147 59.312 78.9147ZM42.1213 73.0819C41.5537 72.7468 41.1914 72.446 40.7742 72.3024C39.3793 71.8237 38.7981 70.7365 38.3331 69.4373C36.9792 65.6353 35.5568 61.8539 34.1277 58.0794C33.9978 57.7443 33.608 57.4093 33.2661 57.2862C32.2199 56.9101 31.119 56.6981 30.0796 56.3152C29.3411 56.0417 28.4795 55.7545 27.9941 55.1938C27.1872 54.2638 26.2504 53.7988 25.0948 53.6142C24.5204 53.5253 23.9665 53.3338 23.3921 53.2723C23.0776 53.2381 22.6741 53.2928 22.4348 53.4706C21.115 54.4484 19.8158 55.4604 18.544 56.4998C18.3388 56.6639 18.1679 57.0742 18.2226 57.3204C18.9132 60.5547 19.638 63.7823 20.3902 66.9961C20.4449 67.2218 20.7868 67.509 21.0261 67.55C21.8741 67.6867 22.7356 67.6867 23.5835 67.8235C23.8844 67.8714 24.2605 68.0765 24.4041 68.3295C24.8554 69.1159 25.1973 69.9638 25.6076 70.7775C26.1957 71.9468 26.7837 73.1161 27.4265 74.258C27.5701 74.5111 27.8915 74.7299 28.1787 74.8188C30.9276 75.6598 33.6901 76.4736 36.4526 77.2736C36.6783 77.342 37.0202 77.3078 37.2048 77.1779C38.2647 76.4462 39.3246 75.7009 40.3229 74.894C40.9452 74.3674 41.4785 73.7315 42.1213 73.0819ZM58.0333 40.6289C59.7565 40.6289 59.9274 40.4169 59.4693 39.2681C58.6761 37.2714 57.8897 35.2747 56.9803 33.3327C56.7204 32.7789 56.1118 32.2181 55.5306 32.0198C52.5014 30.9668 49.4448 30.0163 46.3814 29.0795C46.06 28.9838 45.5813 29.0932 45.2941 29.2915C44.0975 30.0915 42.9624 30.9873 41.7658 31.7873C41.4786 31.9788 41.0136 32.0609 40.6717 31.9856C39.8648 31.8079 39.0647 31.5343 38.292 31.2403C36.3569 30.5018 34.5927 30.7958 33.0678 32.1634C32.09 33.0387 31.1669 33.9892 30.3395 35.0012C29.7924 35.6713 29.4642 36.5261 29.0402 37.2988C28.8077 37.7227 28.9445 38.0441 29.2796 38.3723C30.0044 39.0835 30.7019 39.8151 31.3857 40.5605C32.0353 41.2716 32.7054 41.8392 33.779 41.764C34.3944 41.7161 35.0303 41.9212 35.6526 41.9759C36.8834 42.0785 38.1416 42.3315 39.3451 42.1948C40.9794 42.0101 42.347 41.0665 43.6325 40.0613C45.2258 38.8236 47.0105 38.2492 49.0277 38.6595C50.5389 38.9672 52.0364 39.3296 53.5407 39.6647C55.175 40.0066 56.8298 40.3622 58.0333 40.6289ZM48.0293 42.0785C47.031 42.1264 46.2104 42.4272 45.5198 43.111C44.2206 44.3966 43.7009 45.9898 43.7009 47.7677C43.7009 47.966 43.9949 48.2669 44.2137 48.3353C45.3693 48.6977 46.5318 49.0259 47.708 49.2926C48.0088 49.361 48.4601 49.2379 48.6858 49.0327C49.8619 47.966 50.9834 46.8309 52.1526 45.7505C52.5082 45.4223 52.5698 45.1009 52.4125 44.6769C52.3031 44.3966 52.1937 44.1094 52.1526 43.8085C52.0774 43.2615 51.7766 42.9469 51.2569 42.8238C50.1765 42.5777 49.1029 42.3247 48.0293 42.0785Z" fill="#32D499"/>
    <path d="M30.9494 3.20463C31.0656 2.99265 31.1545 2.89008 31.175 2.77384C31.3801 1.41992 32.2759 0.859204 33.5341 0.647226C34.5256 0.483115 35.5034 0.236948 36.4949 0.0386462C37.2471 -0.111789 37.6779 0.175408 37.9856 0.927586C39.2712 4.10725 39.4079 7.35528 38.7788 10.6785C38.3002 13.2086 37.719 15.7318 37.9583 18.3371C37.972 18.4602 37.9446 18.5901 37.9446 18.7132C37.9719 19.7525 37.6369 20.3816 36.5291 20.8398C35.0795 21.4415 33.7392 22.3578 32.4469 23.2741C29.4518 25.387 26.5115 27.582 23.5506 29.7497C21.3215 31.384 19.1743 33.1071 17.3623 35.2132C17.3486 35.2337 17.3281 35.2542 17.3076 35.2679C14.4903 37.5176 12.8697 40.5947 11.3517 43.7539C10.6405 45.2309 10.2303 46.7762 10.0867 48.4037C9.90888 50.5166 9.66955 52.6227 9.53279 54.7425C9.36868 57.3751 10.0115 59.9052 10.6132 62.4421C11.5227 66.2713 12.4047 70.1074 13.3347 73.9367C13.4441 74.4017 13.704 74.8803 14.0253 75.2291C16.4392 77.8891 18.8803 80.5217 21.3283 83.1475C23.8242 85.828 26.9628 87.4827 30.3886 88.611C34.5598 89.9854 38.9156 90.4846 43.2167 91.2026C45.186 91.5308 47.1622 91.7702 49.1315 92.0915C51.2034 92.4266 53.2138 92.1121 55.2036 91.5924C57.9662 90.8744 60.7082 90.1017 63.4708 89.3905C63.8058 89.3016 64.223 89.3358 64.5443 89.4658C65.9256 90.0333 67.2659 90.6761 68.6471 91.2436C69.2626 91.4966 69.5703 91.8727 69.7549 92.5292C70.7738 96.0234 71.861 99.4902 72.9003 102.978C73.1807 103.914 73.3448 104.879 73.5978 106C71.5738 104.407 69.6933 102.923 67.8129 101.439C66.7598 100.612 65.7068 99.7774 64.6537 98.95C63.7716 98.2594 62.8007 98.0337 61.6724 98.2115C57.5081 98.8611 53.3369 99.4834 49.1589 100.051C47.634 100.256 46.0818 100.42 44.5501 100.345C43.2372 100.283 41.9243 99.9279 40.6388 99.5791C35.0385 98.0543 29.4518 96.4815 23.8515 94.943C23.3318 94.7994 22.9763 94.5669 22.7027 94.0814C22.1831 93.1583 21.6155 92.2556 20.9864 91.4009C20.7881 91.1274 20.371 90.9017 20.0222 90.8607C18.9555 90.7171 17.9777 90.4846 17.1161 89.7461C15.0647 87.9819 12.9312 86.3135 10.8799 84.5493C10.3328 84.0843 9.88836 83.4688 9.49176 82.8603C7.49507 79.79 5.4095 76.7676 3.60427 73.588C2.89996 72.3435 2.69479 70.757 2.50332 69.2937C2.22297 67.1466 2.15461 64.9653 2.01101 62.7976C1.76484 59.0368 1.54602 55.2827 1.2725 51.5218C1.1836 50.3457 0.910088 49.1764 0.807518 48.0002C0.581865 45.3745 1.58022 43.0427 2.69481 40.7588C3.57007 38.9604 4.52739 37.2099 5.43 35.4252C5.66933 34.9465 5.9702 34.714 6.53775 34.7004C7.44036 34.673 8.34983 34.5568 9.2456 34.4063C9.47126 34.3653 9.73794 34.085 9.84051 33.8525C10.2439 32.902 10.5175 31.8831 10.9893 30.9737C11.3517 30.283 11.8509 29.5992 12.4526 29.1137C16.9041 25.5306 21.3899 21.9954 25.8687 18.4465C26.5047 17.9405 27.1064 17.4071 27.7492 16.9079C28.0842 16.6481 28.1389 16.3951 27.9953 15.9985C26.8944 13.065 25.8003 10.1315 24.7405 7.19117C24.4806 6.45951 24.3507 5.67998 24.1797 4.92096C24.0635 4.40128 24.2618 4.09357 24.7746 3.87475C26.0123 3.36191 27.209 2.75332 28.4535 2.26099C28.7612 2.13791 29.2193 2.2268 29.5476 2.36356C30.0194 2.54819 30.4433 2.88324 30.9494 3.20463Z" fill="#32D499"/>
</svg>