<svg xmlns="http://www.w3.org/2000/svg" width="48" height="97" viewBox="0 0 48 97" fill="none">
    <path d="M38.2859 22.5927C36.2139 20.678 34.2104 18.825 32.2069 16.9719C30.3811 15.2829 28.5486 13.5939 26.7297 11.8981C25.8818 11.1117 25.8886 11.1049 24.9928 11.7818C24.8834 11.8639 24.7672 11.9254 24.5757 12.0485C22.832 10.551 21.0815 9.03981 19.3036 7.5081C21.5465 5.01907 23.7688 2.55057 26.0664 0C33.1984 7.14569 40.3031 14.2572 47.4693 21.4371C46.1564 23.1671 44.7819 24.7877 43.6332 26.5519C42.6895 27.9947 41.657 28.6306 40.0022 27.94C39.7013 27.8169 39.3389 27.8374 38.8329 27.7622C39.291 28.6443 39.715 29.3691 40.0364 30.1281C40.1458 30.3811 40.1184 30.8461 39.9543 31.0376C37.0755 34.3882 34.1626 37.7046 31.2838 41.0552C31.0308 41.3493 30.8256 41.8006 30.8119 42.1835C30.6957 44.8845 30.641 47.5855 30.5521 50.2865C30.5042 51.7977 30.4974 51.7909 29.0682 52.0234C28.7127 52.0849 28.3708 52.2148 28.022 52.3105C28.0152 52.3926 28.0084 52.4747 28.0015 52.5567C28.5622 52.7413 29.1161 52.9533 29.6905 53.1106C30.1897 53.2473 30.4017 53.4798 30.4222 54.0679C30.5794 58.6493 30.853 63.224 30.9692 67.8054C31.0786 72.2022 31.065 76.599 31.0513 81.0027C31.0376 84.4696 30.976 87.9433 30.8666 91.4101C30.8461 92.1828 30.6205 92.9692 30.3811 93.7145C30.0871 94.6171 29.6768 95.4787 29.3007 96.4087C28.2614 96.3608 27.2288 96.3198 26.1895 96.2514C21.9089 95.9847 17.6283 95.718 13.3477 95.4514C12.3836 95.3898 11.4194 95.3556 10.4621 95.2667C10.2433 95.2462 9.92874 95.0684 9.86036 94.8838C9.0398 92.8187 8.26026 90.7332 7.43971 88.5655C8.34916 88.4835 9.16289 88.3877 9.97661 88.333C12.5956 88.1484 15.2145 87.9501 17.8334 87.7997C18.6403 87.7518 19.1053 87.4851 19.2216 86.6099C19.3104 85.9671 19.4814 85.3175 19.7276 84.7226C20.0079 84.0456 19.7276 83.7311 19.201 83.4234C16.9719 82.1173 14.5717 82.0489 12.1032 82.2677C9.73044 82.4797 7.35765 82.7327 4.98487 82.8148C3.29589 82.8695 1.66847 82.3908 0 81.6386C1.65479 80.483 3.21384 79.3958 4.83444 78.2607C3.53522 76.5443 2.29756 74.9032 1.0257 73.2142C1.74369 72.38 2.44116 71.7099 3.74038 71.7236C8.88938 71.7988 14.0452 71.7236 19.1942 71.7578C20.0148 71.7646 20.3498 71.6278 20.3977 70.6842C20.5003 68.6533 20.7669 66.6293 20.9789 64.4958C18.1275 64.1471 15.3444 63.8052 12.4109 63.4428C12.5203 62.0136 12.6161 60.5845 12.7597 59.1622C12.7734 59.0254 13.0879 58.8545 13.2862 58.8135C15.3102 58.4169 17.3274 58.0134 19.3651 57.6715C20.0148 57.5621 20.343 57.3296 20.3567 56.598C20.4797 51.8524 20.6302 47.1 20.808 42.3545C20.8353 41.6296 20.5892 41.151 20.0831 40.6586C14.4213 35.0925 9.14922 29.164 4.31476 22.8389C4.17117 22.6474 4.04808 22.4423 3.88397 22.2029C8.85518 17.4505 13.7922 12.7255 18.8455 7.89103C20.0011 10.0723 21.1225 12.1784 22.2918 14.3871C21.5054 15.1188 20.596 15.953 19.707 16.8078C18.2095 18.2506 16.7257 19.7207 15.2282 21.1704C14.9205 21.4713 14.7837 21.6764 15.0777 22.1209C17.977 26.4493 21.2182 30.4632 25.2458 33.7796C25.5877 34.06 25.8065 34.2651 26.2442 33.8548C30.135 30.217 34.0463 26.5997 37.9576 22.9825C38.0465 22.8799 38.1286 22.7705 38.2859 22.5927Z" fill="#32D499"/>
</svg>