<svg xmlns="http://www.w3.org/2000/svg" width="63" height="70" viewBox="0 0 63 70" fill="none">
    <path d="M28.8242 39.4486C29.8278 40.5552 30.2878 41.7868 30.2878 43.3319V44.2297L29.2737 44.7098C28.2701 45.1795 24.5693 46.7663 24.4857 46.7663C24.4648 46.7663 24.6948 46.234 25.0084 45.5867C25.3116 44.9499 25.782 43.7808 26.0538 43.0084C26.5452 41.568 27.256 38.9581 27.256 38.5613C27.256 38.4466 27.2874 38.3108 27.3188 38.2795C27.4233 38.1753 28.2806 38.833 28.8242 39.4486Z" fill="white"/>
    <path d="M24.9563 38.0915C24.9563 38.6554 24.8831 39.5323 24.7995 40.0437C24.6113 41.0874 24.0468 42.8517 23.66 43.6031L23.3986 44.1045L23.3882 40.576V37.0581H24.1722H24.9563V38.0915Z" fill="white"/>
    <path d="M13.9268 36.0143C15.6413 36.1187 16.9794 36.1918 19.3421 36.2962L20.8788 36.3588V40.8791V45.3884L20.5443 45.305C20.3561 45.2529 20.0007 45.1691 19.7707 45.1066C19.0075 44.9082 17.5021 44.8561 16.4253 44.992C15.5785 45.0962 13.979 45.493 13.2263 45.7747C13.08 45.8268 13.1009 45.7435 13.31 45.2004C13.979 43.5511 13.7699 41.2234 12.7768 39.2503C12.2959 38.3004 11.5955 37.4026 10.6546 36.5258L9.84961 35.7847L11.1041 35.8473C11.7941 35.8891 13.0695 35.9621 13.9268 36.0143Z" fill="white"/>
    <path d="M14.5018 22.2871C15.4531 22.3706 16.394 22.4646 16.5926 22.4959C16.9481 22.5377 17.6903 22.6003 19.1017 22.7047C22.332 22.9447 30.6536 23.6546 31.1345 23.7277C31.354 23.759 31.3959 23.8425 31.4586 24.2809C31.4899 24.5628 31.5736 25.1161 31.6363 25.5232C31.699 25.9198 31.7513 27.0786 31.7513 28.1016C31.7513 30.9827 31.3645 32.8096 30.34 34.7303C30.0786 35.2209 29.8695 35.6385 29.8695 35.6489C29.8695 35.6698 30.0891 35.6176 30.3609 35.5341C30.6222 35.4506 31.0195 35.388 31.2495 35.388H31.6468V36.651C31.6468 38.0811 31.7095 38.029 30.8627 37.2567C26.8796 33.7177 17.9308 32.0266 11.5015 33.6029C11.0833 33.7073 10.7383 33.7699 10.7383 33.749C10.7383 33.7193 10.9267 33.445 11.1605 33.1047L11.1983 33.0496C11.836 32.1728 12.5678 30.6069 12.8396 29.5943C13.1114 28.5609 13.2159 26.7445 13.0487 25.8572C12.85 24.8133 12.4423 23.6963 11.9405 22.8195L11.4805 22.0052L12.1287 22.0679C12.4841 22.0992 13.5505 22.2036 14.5018 22.2871Z" fill="white"/>
    <path d="M19.5199 10.1258C22.3216 10.4181 26.4302 10.94 26.5138 11.0235C26.5451 11.0548 26.566 11.7751 26.566 12.6102C26.5556 13.8211 26.5033 14.3222 26.3256 14.9799C26.0538 16.0133 25.2279 17.694 24.6006 18.5186C24.3393 18.8631 24.1407 19.1554 24.1616 19.1763C24.1825 19.1972 24.7052 19.145 25.3324 19.051C25.9597 18.9675 27.0574 18.8527 27.7787 18.7901L29.0855 18.6857L29.5873 19.2181C30.0577 19.7191 30.8105 21.0136 30.8105 21.3267C30.8105 21.4102 30.4027 21.2641 29.6919 20.9091C26.451 19.3224 22.0916 18.9988 17.8995 20.0427C17.2095 20.2097 16.6136 20.3559 16.5718 20.3559C16.5404 20.3559 16.7077 20.0114 16.969 19.5938C18.5058 17.0363 18.694 13.9568 17.4813 11.4306C17.2931 11.0235 16.9482 10.4911 16.7391 10.2406L16.3418 9.78125L16.8541 9.84389C17.1468 9.88565 18.3385 10.0109 19.5199 10.1258Z" fill="white"/>
    <path d="M30.3926 6.41991C31.6889 6.56604 33.2675 6.75397 33.8948 6.83746C34.5325 6.92098 35.8497 7.09841 36.8219 7.2237L38.599 7.45335L39.3412 8.19453C40.6901 9.55157 41.5473 11.0339 42.0073 12.7877C42.3207 13.9881 42.3524 16.2429 42.0595 17.3286C41.8607 18.0697 41.2756 19.4164 41.1606 19.4164C41.1185 19.4164 40.8572 19.2389 40.5855 19.0093C39.1741 17.8401 36.2365 16.7544 33.8425 16.5143C32.7761 16.41 29.6608 16.4204 28.8244 16.5352C28.1658 16.6187 28.1554 16.6187 28.3122 16.4308C28.699 15.982 29.2112 14.5936 29.4621 13.2887C29.619 12.464 29.5353 10.6059 29.3053 9.76034C29.044 8.84173 28.4167 7.55776 27.8627 6.80615C27.5804 6.44079 27.3608 6.12762 27.3608 6.09631C27.3608 6.06497 27.5177 6.07543 27.7058 6.10674C27.8698 6.13566 28.9154 6.25346 30.0946 6.38634L30.3926 6.41991Z" fill="white"/>
    <path d="M24.9562 6.61836V8.96711L24.2034 8.94623L23.4403 8.92535L23.4298 8.19463C23.4194 7.48479 23.4089 7.46391 23.0221 7.15073C22.6458 6.84801 22.6144 6.83755 21.6108 6.86886C20.7745 6.88974 20.4608 6.84801 20.0009 6.68096C19.3109 6.42001 18.5686 5.65795 18.3386 4.95857L18.1714 4.4888L18.5164 4.74976C19.2586 5.31347 20.2204 5.45963 21.2972 5.16734C22.029 4.96899 22.4158 4.96899 22.9594 5.16734L23.388 5.31347V4.80198V4.28003H24.1721H24.9562V6.61836Z" fill="white"/>
    <path d="M35.3056 2.58885V5.17769L34.7098 5.10463C34.3752 5.06286 34.0198 5.0211 33.9257 5.0211C33.7689 5.01068 33.7375 4.90627 33.7375 4.24862V3.4866L33.1835 3.30913C32.8071 3.18387 32.3157 3.1421 31.5944 3.15254C30.6535 3.16298 30.4967 3.14211 30.0158 2.89158C29.4094 2.58885 28.824 1.96251 28.4477 1.23179C28.1236 0.59501 28.134 0.521945 28.4895 0.866428C28.8972 1.25267 29.7544 1.56584 30.4026 1.56584C30.6953 1.56584 31.2598 1.46145 31.6676 1.34662C32.3784 1.1274 33.0998 1.11696 33.5598 1.30486C33.7166 1.3675 33.7375 1.30486 33.7375 0.688963V0H34.5216H35.3056V2.58885Z" fill="white"/>
    <path d="M35.3269 20.5646C38.1497 21.1492 41.0663 22.1827 43.9309 23.6232C46.9938 25.1578 50.5063 27.9658 52.7228 30.6591C53.2141 31.2541 53.6113 31.7656 53.5904 31.776C53.5696 31.7969 53.1095 32.0997 52.5661 32.4441L51.5831 33.0809L51.2593 32.7677C50.7888 32.3084 49.2624 31.3898 48.0914 30.8574C46.377 30.0954 44.7672 29.6674 42.509 29.3855C41.7981 29.302 41.2022 29.2289 41.1918 29.2289C41.1709 29.2289 41.1605 29.1246 41.1605 28.9889C41.1605 28.6653 40.805 27.7675 40.2925 26.7758C39.2053 24.6776 37.3029 22.7046 34.6369 20.8882C34.1142 20.5333 33.7274 20.2515 33.7692 20.2515C33.8006 20.2515 34.501 20.3872 35.3269 20.5646Z" fill="white"/>
    <path d="M35.8182 24.8238C37.4491 26.9742 38.4943 29.2081 38.8289 31.2124L38.9964 32.2563H40.8466C41.8713 32.2563 42.854 32.2876 43.0315 32.3189L43.3661 32.392L43.3032 32.9766C43.2199 33.676 42.9061 34.6885 42.6239 35.1478L42.4252 35.4923L42.028 35.1165C40.4912 33.6969 37.9925 33.0392 34.9609 33.2584C34.2187 33.3106 33.5914 33.3315 33.5705 33.3106C33.5496 33.2897 33.5705 33.2167 33.6228 33.154C33.8423 32.8617 34.25 31.5778 34.4173 30.6382C34.7728 28.6444 34.4696 24.8759 33.79 22.9761C33.7064 22.7255 33.6332 22.4959 33.6332 22.4646C33.6332 22.2871 35.1073 23.8843 35.8182 24.8238Z" fill="white"/>
    <path d="M34.9714 35.0748H35.4105V37.0895V39.1043L34.71 39.3965C34.3127 39.5636 33.9364 39.7095 33.8737 39.7412C33.7691 39.7829 33.7378 39.2711 33.7378 37.3713V34.9391L34.1351 35.0122C34.3441 35.0435 34.7205 35.0748 34.9714 35.0748Z" fill="white"/>
    <path d="M58.692 31.1288C58.9641 31.3793 59.0162 31.9013 58.807 32.1831C58.6711 32.3606 54.0193 35.4192 49.2103 38.5091C46.44 40.2942 46.6696 40.0333 46.5442 41.3904C46.4292 42.5803 46.3771 42.9667 46.1679 44.1045C45.6766 46.8082 44.9657 49.0314 43.8159 51.4326L43.1571 52.8209H42.1011H41.0351L41.3277 52.3199C42.6032 50.1797 43.6276 47.2359 44.2864 43.8436C44.4848 42.8621 44.924 40.0229 44.924 39.7619C44.924 39.7095 44.5789 39.6678 44.1501 39.6678C42.2266 39.6678 38.9232 40.5343 35.4942 41.9226C34.5952 42.2881 33.832 42.5907 33.7902 42.5907C33.7588 42.5907 33.7483 42.1418 33.7588 41.5887L33.7902 40.5968L34.6265 40.2317C36.8114 39.271 40.1463 38.1544 41.8398 37.8097C42.9587 37.5801 43.8055 37.5592 44.7985 37.7263C45.3315 37.8201 45.9379 37.9664 46.1366 38.0498L46.4921 38.1961L47.5897 37.4967C51.9595 34.7094 53.9147 33.4567 55.692 32.2667C57.9081 30.7843 58.2111 30.6799 58.692 31.1288Z" fill="#32D499"/>
    <path d="M39.4248 36.5362C39.822 36.7972 40.167 37.0581 40.1882 37.1103C40.1987 37.1729 39.7178 37.3921 39.0902 37.6218C38.4735 37.841 37.9092 38.0498 37.8463 38.0706C37.7417 38.1123 37.7104 37.8306 37.7104 36.8598V35.5967L38.2122 35.8263C38.4839 35.9516 39.0277 36.2752 39.4248 36.5362Z" fill="white"/>
    <path d="M38.3482 43.3111C38.2332 43.4678 37.7002 44.0417 37.167 44.5743C34.1875 47.5494 30.7899 49.5433 26.0959 51.0776C24.371 51.6415 22.0501 52.1216 20.0848 52.3096C17.5757 52.5601 13.624 52.205 11.4914 51.5473C11.1986 51.4639 11.0837 51.3072 10.6132 50.3886C10.1114 49.3866 7.91602 44.6786 7.91602 44.6056C7.91602 44.5848 8.37599 44.5743 8.94052 44.5743H9.97552L10.77 46.2132C11.1986 47.1214 11.7736 48.3113 12.0245 48.8648L12.4845 49.8668L13.2581 49.9922C14.4917 50.1902 17.3771 50.3365 18.6839 50.2636C21.1929 50.1173 23.451 49.6684 25.845 48.8544C27.5804 48.2592 28.8872 47.6745 31.804 46.2132C34.4593 44.8874 38.3274 43.0293 38.4736 43.0189C38.5261 43.0085 38.4632 43.1439 38.3482 43.3111Z" fill="#32D499"/>
    <path d="M40.3657 46.7767C39.7593 47.8728 38.5154 48.7081 36.6753 49.2195C35.609 49.5117 35.3163 49.5117 36.1003 49.2091C37.1248 48.8227 39.6235 47.163 40.3135 46.4115C40.6794 46.0148 40.7003 46.1506 40.3657 46.7767Z" fill="#32D499"/>
    <path d="M10.9266 53.7605C11.4075 53.8755 12.3588 54.1989 13.0488 54.4911C14.4706 55.0759 15.5264 55.3263 16.5614 55.3263C17.5128 55.3263 18.3073 55.128 19.8022 54.512C21.8617 53.6667 22.1022 53.6038 23.7539 53.6038C25.4057 53.6038 25.9702 53.7292 27.6325 54.4911C30.0369 55.5977 31.4065 55.5977 34.1036 54.4703C36.0795 53.6458 36.2572 53.6038 38.1808 53.6038H38.1834C39.8327 53.6142 39.8643 53.6146 40.8987 53.9901C41.4738 54.1885 42.3414 54.5328 42.8331 54.7312C43.8261 55.1488 44.7146 55.3263 45.8122 55.3263C46.774 55.3263 47.5479 55.128 49.1472 54.4911C51.28 53.6458 51.928 53.51 53.7574 53.51C55.6602 53.4995 56.3294 53.6458 58.6188 54.5015C60.009 55.0133 61.3892 55.4306 62.1105 55.556C62.2568 55.5768 62.0897 55.8065 61.3579 56.5788L60.417 57.5708L59.2877 57.1844C58.6605 56.9756 57.5837 56.6105 56.894 56.3704C55.7022 55.9632 55.5556 55.9319 54.1233 55.8794C52.2418 55.8065 51.4471 55.9528 49.5656 56.6938C47.7987 57.3932 46.7428 57.6229 45.3943 57.5708C44.1083 57.5291 43.3244 57.3515 41.8397 56.746C40.0624 56.0362 39.5189 55.9111 38.0241 55.9111C36.5395 55.9003 36.1422 55.9945 34.4486 56.746C32.0964 57.79 29.9951 57.8525 27.7788 56.9339C24.5275 55.5768 23.2626 55.5247 20.5445 56.6209C18.9345 57.2786 18.2132 57.4766 17.1051 57.5708C16.0073 57.6646 14.7946 57.4662 13.352 56.9756C10.728 56.0674 10.3307 55.9632 9.19118 55.8378C8.30257 55.744 7.75896 55.744 6.84943 55.8378C5.4695 55.9736 5.1245 56.0674 3.11729 56.7981L1.62233 57.3515L0.785994 56.485C0.326008 56.0153 -0.0294363 55.6081 0.00192643 55.5768C0.0228349 55.5456 0.535092 55.3993 1.13098 55.2326C1.72688 55.0654 2.55276 54.8045 2.95002 54.6478C4.54951 54.0318 5.49038 53.7292 6.19084 53.5933C7.25715 53.4057 9.81843 53.4891 10.9266 53.7605Z" fill="white"/>
    <path d="M25.6774 58.3014C26.0852 58.3848 26.9424 58.6669 27.5697 58.9279C29.2319 59.6168 29.8905 59.7419 31.3332 59.6793C32.6086 59.6168 32.9431 59.5331 34.8981 58.7816C36.3408 58.2285 37.2398 58.0926 38.3792 58.2389C38.8601 58.3014 39.498 58.4477 39.8114 58.5415L40.3552 58.7295L39.9998 58.9487C39.4668 59.2721 36.1944 60.8068 35.3685 61.1094C34.1245 61.5791 32.7654 61.7983 31.1555 61.7983C30.3505 61.7983 29.42 61.7462 29.0751 61.6837C27.5278 61.4124 25.7611 60.7442 23.2311 59.4705L21.7676 58.7399L22.1335 58.5832C23.1684 58.1551 24.4961 58.0509 25.6774 58.3014Z" fill="white"/>
    <path d="M11.9404 58.4164C13.174 58.5935 16.6971 59.4496 18.7356 60.076C22.5724 61.2347 27.4127 63.3641 30.5803 65.2747L31.5526 65.859L32.1484 65.4623C33.5493 64.5332 37.3442 62.6335 40.01 61.5165C42.1007 60.65 44.2335 59.9402 46.9096 59.2408C50.0355 58.4164 51.3739 58.218 53.653 58.2075C55.5657 58.2075 56.35 58.2909 58.0435 58.6877L58.9845 58.9069L58.0019 59.836C57.343 60.462 56.9667 60.7442 56.8517 60.7025C56.4858 60.5562 54.3218 60.4203 53.3913 60.4832C52.4191 60.5458 50.1925 60.8588 49.3666 61.0572C44.7668 62.1638 41.9965 63.1553 38.1806 65.0867C36.1106 66.1304 34.1452 67.3207 32.5457 68.4794L31.5107 69.2309L31.0298 68.8862C26.89 65.9636 23.3878 64.1785 18.5266 62.5501C15.589 61.5582 13.1426 60.9842 10.2155 60.577C9.36867 60.462 6.27424 60.4937 5.66787 60.6291L5.14518 60.7442L4.18339 59.7839C3.27386 58.8861 3.23204 58.8232 3.45158 58.7398C3.68157 58.6564 5.52152 58.3013 6.24286 58.2075C6.9642 58.1134 10.8114 58.2597 11.9404 58.4164Z" fill="white"/>
</svg>