<svg xmlns="http://www.w3.org/2000/svg" width="21" height="16" viewBox="0 0 21 16" fill="none">
    <g clip-path="url(#clip0_70_5630)">
        <rect y="0.5" width="21" height="15" rx="3" fill="white"/>
        <path d="M10.7059 12.1176H10.2941L10.3971 10.4706C10.3912 10.3839 10.3496 10.3611 10.1912 10.3676L8.54412 10.5735C8.54412 10.5735 8.85294 10.1618 8.85294 9.95588C8.85294 9.75 7 8.41176 7 8.41176C7 8.41176 7.41176 8.30882 7.51471 8.20588C7.61765 8.10294 7.10294 6.97059 7.10294 6.97059C7.10294 6.97059 8.14906 7.38235 8.23529 7.27941C8.32153 7.17647 8.44118 6.76471 8.44118 6.76471C8.44118 6.76471 9.26471 7.69118 9.47059 7.69118C9.67647 7.69118 9.05882 5.42647 9.05882 5.42647C9.05882 5.42647 9.57353 5.83824 9.77941 5.83824C9.98529 5.83824 10.5 4.5 10.5 4.5C10.5 4.5 11.0147 5.83824 11.1176 5.83824C11.2206 5.83824 11.9412 5.42647 11.9412 5.42647C11.9412 5.42647 11.4265 7.58824 11.5294 7.69118C11.6324 7.79412 12.5588 6.76471 12.5588 6.76471C12.5588 6.76471 12.6618 7.17647 12.7647 7.27941C12.8676 7.38235 13.8971 6.97059 13.8971 6.97059C13.8971 6.97059 13.3824 8.10294 13.4853 8.20588C13.5882 8.30882 14 8.41176 14 8.41176C14 8.41176 12.1471 9.75 12.1471 9.95588C12.1471 10.1618 12.3529 10.5735 12.3529 10.5735L10.8088 10.3676C10.6847 10.3321 10.6417 10.3591 10.6029 10.4706L10.7059 12.1176Z" fill="#F93939"/>
        <rect x="16" y="0.5" width="5" height="15" fill="#F93939"/>
        <rect y="0.5" width="5" height="15" fill="#F93939"/>
    </g>
    <defs>
        <clipPath id="clip0_70_5630">
            <rect y="0.5" width="21" height="15" rx="3" fill="white"/>
        </clipPath>
    </defs>
</svg>