<svg xmlns="http://www.w3.org/2000/svg" width="295" height="205" viewBox="0 0 295 205" fill="none">
    <path d="M175.794 117.647C171.272 124.782 168.085 132.33 163.908 145.857C163.779 146.228 163.219 146.228 161.884 145.981C160.85 145.775 150.428 143.836 138.715 141.692C127.001 139.506 108.009 135.959 96.5102 133.814C85.0117 131.67 73.5562 129.525 71.0153 129.03L66.3642 128.164L67.4839 126.885C68.1299 126.184 72.781 120.946 77.8197 115.296L87.0358 104.985L92.9788 101.273C96.2088 99.2525 101.032 96.2418 103.616 94.6333C134.451 75.414 142.117 70.506 150.773 64.4845C169.248 51.6992 175.966 46.9562 176.612 46.3788C177.172 45.8426 177.258 49.637 177.388 80.4044L177.474 115.007L175.794 117.647Z" fill="url(#paint0_linear_1023_880)"/>
    <path d="M292.502 30.5414C263.347 84.9411 261.236 88.7768 259.471 90.4677C258.523 91.3751 244.226 103.624 227.645 117.688L222.358 122.198C207.958 134.48 195.545 145.067 193.623 146.723C191.513 148.538 189.704 150.023 189.661 149.982C189.575 149.94 192.461 135.959 195.992 118.967L202.452 88.0756L204.002 72.6094C204.82 64.1133 206.026 51.7816 206.672 45.1827L207.835 33.2222L226.353 26.0871C236.56 22.169 255.681 14.7865 268.902 9.71359C282.123 4.59944 293.277 0.268921 293.665 0.0626984C294.354 -0.308487 294.397 0.598877 294.526 13.1368L294.612 26.6233L292.502 30.5414Z" fill="url(#paint1_linear_1023_880)"/>
    <path d="M295 133.897C295 158.643 294.914 184.75 294.742 191.926L294.483 205H233.115H171.703L172.995 203.721C174.115 202.567 196.81 182.605 206.457 174.315L210.247 171.057L226.913 174.439C236.086 176.295 245.087 178.192 246.982 178.646C248.834 179.099 250.427 179.388 250.513 179.305C250.599 179.223 248.704 178.357 246.293 177.367C234.579 172.583 216.879 164.994 216.793 164.705C216.707 164.375 226.999 151.838 242.546 133.361C279.712 89.2304 292.158 74.4654 293.277 73.2281L294.397 71.9908L294.655 80.4456C294.785 85.1061 294.957 109.151 295 133.897Z" fill="url(#paint2_linear_1023_880)"/>
    <path d="M65.9336 144.579C71.2738 145.156 87.1649 146.93 101.247 148.497C146.553 153.57 160.291 155.096 160.764 155.096C161.066 155.096 161.109 156.374 160.893 158.89C160.247 166.561 160.936 165.324 150.988 176.955C146.036 182.729 138.628 191.431 134.494 196.215L127.001 205H63.4788H0L0.818246 203.845C1.85182 202.525 28.6387 171.304 43.0226 154.766L53.1431 143.094L54.6934 143.3C55.5548 143.424 60.5935 144.001 65.9336 144.579Z" fill="url(#paint3_linear_1023_880)"/>
    <defs>
        <linearGradient id="paint0_linear_1023_880" x1="147.5" y1="-1.60192e-06" x2="298.665" y2="222.221" gradientUnits="userSpaceOnUse">
            <stop stop-color="#32D499"/>
            <stop offset="1" stop-color="#15372B"/>
        </linearGradient>
        <linearGradient id="paint1_linear_1023_880" x1="147.5" y1="-1.60192e-06" x2="298.665" y2="222.221" gradientUnits="userSpaceOnUse">
            <stop stop-color="#32D499"/>
            <stop offset="1" stop-color="#15372B"/>
        </linearGradient>
        <linearGradient id="paint2_linear_1023_880" x1="147.5" y1="-1.60192e-06" x2="298.665" y2="222.221" gradientUnits="userSpaceOnUse">
            <stop stop-color="#32D499"/>
            <stop offset="1" stop-color="#15372B"/>
        </linearGradient>
        <linearGradient id="paint3_linear_1023_880" x1="147.5" y1="-1.60192e-06" x2="298.665" y2="222.221" gradientUnits="userSpaceOnUse">
            <stop stop-color="#32D499"/>
            <stop offset="1" stop-color="#15372B"/>
        </linearGradient>
    </defs>
</svg>