<svg width="269" height="74" viewBox="0 0 269 74" fill="none" xmlns="http://www.w3.org/2000/svg">
    <path d="M268.209 11.2089C266.878 8.25433 268.839 5.13428 266.971 3.18024C266.678 3.15055 266.384 3.12584 266.09 3.10613C263.697 2.94309 261.116 2.93568 258.504 2.71582C255.911 2.56687 253.329 2.0711 250.787 1.23361C250.465 1.19656 250.129 0.144193 249.801 0.109609L230.947 0.0107949C229.451 -0.105311 206.519 0.756838 205.019 0.603677C202.966 0.455456 200.937 0.761779 198.893 0.796364C196.849 0.830948 194.713 1.32008 192.667 1.5597C191.137 1.73756 189.633 2.05377 188.166 2.25139C187.1 2.3922 186.055 2.59724 185.014 2.72817C183.463 2.90356 181.924 3.04437 180.421 3.20989C178.146 3.46186 175.909 3.71384 173.694 3.84971C172.474 3.88676 171.252 3.87441 170.016 3.85959C168.235 3.83488 166.435 3.78548 164.564 3.67184C163.068 3.58538 161.527 3.52362 159.943 3.42481C158.55 3.40954 157.157 3.31973 155.766 3.15554C153.327 2.82712 150.88 2.67134 148.432 2.68865C147.315 2.74546 146.205 2.75287 145.128 2.71335C142.803 2.58489 94.6683 2.47126 92.26 2.71829C91.3895 2.78005 90.5434 2.7924 89.7478 2.75534C89.148 2.70594 88.5283 2.67382 87.8964 2.66394C85.6453 2.77593 83.4492 2.89286 81.3082 3.01473C79.4569 3.06661 77.6407 3.13331 75.8827 3.17283C74.6786 3.20001 73.4806 3.242 72.2872 3.3087C70.95 3.38775 69.6387 3.52856 68.3168 3.6249C68.0512 3.62415 67.7858 3.64228 67.5212 3.67925C66.3915 3.84331 65.2563 3.88705 64.123 3.81018C63.1622 3.86288 62.2095 3.9337 61.265 4.02263C60.1557 4.06216 59.0311 4.0498 57.905 4.04733L50.5763 3.8917C49.2253 3.92135 47.9033 3.94605 46.5768 4.05968C45.2503 4.17579 43.8426 4.36848 42.5115 4.51423C41.413 4.68221 40.2777 4.78349 39.1302 4.81561C36.6592 4.82549 16.3482 4.95642 13.9339 5.21086C11.6795 5.42723 9.41981 5.45774 7.16354 5.30227C6.87723 5.30156 6.59147 5.3429 6.30979 5.42578C5.6386 5.68236 4.94866 5.78793 4.25957 5.73952C3.7412 5.59827 3.20854 5.70652 2.72802 6.05078C2.70236 6.0796 2.68008 6.11557 2.66223 6.15701C2.36224 6.77216 2.14354 7.48007 2.01962 8.23703C2.05784 10.109 1.874 11.9755 1.478 13.736C1.0791 15.0477 0.728623 16.3964 0.428405 17.775L0.377914 18.0072L2.30268 19.5784L0.0397805 19.8872C0.0375881 20.0149 0.0288887 20.1422 0.0137702 20.2676C0.00765009 20.7123 0.00306003 21.152 0 21.5868L4.28252 23.899L0.459005 23.6717L0.524796 24.3807C0.601297 25.1638 1.22095 25.9617 1.2286 26.7127C1.19549 28.2439 1.02278 29.7589 0.716048 31.2087C0.545627 32.0163 0.525524 32.8869 0.658222 33.7127C0.790921 34.5385 1.0706 35.2835 1.4627 35.8555C1.78633 36.259 2.07008 36.7396 2.30421 37.2808C2.75376 38.8445 3.09202 40.4854 3.31249 42.1721C3.46079 44.4224 3.50988 46.6868 3.45937 48.9483C3.45325 49.5016 3.39205 50.0525 3.39817 50.6034C3.37555 51.5293 3.39601 52.4566 3.45937 53.3776C3.50527 54.0693 3.89083 54.7733 3.89083 55.465C3.93674 57.358 3.61292 59.2263 2.96517 60.8059C2.5792 61.6067 2.29858 62.5264 2.14049 63.5085C1.89263 65.5984 1.63559 67.7154 1.3709 69.8819C1.23625 70.9887 2.18027 71.5198 4.20449 71.705C4.51508 71.7372 4.80425 71.8162 5.10414 71.8483C6.24414 72.0718 7.39573 72.0967 8.53903 71.9224C9.45182 71.6612 10.3719 71.4715 11.2961 71.3543C12.973 71.2357 14.6606 71.2505 16.3054 71.248C17.15 71.248 35.7427 71.5593 36.5292 71.747C38.8885 72.3399 41.3038 72.8538 43.7753 73.2885C45.8113 73.557 47.911 73.7381 50.0744 73.832C51.8814 73.9061 53.7158 73.9852 55.5519 74C56.5567 73.9837 57.5612 73.9285 58.5645 73.8345C59.4091 73.737 60.2549 73.6678 61.1012 73.627C62.5441 73.6097 63.9945 73.6492 65.4404 73.7406C66.9847 73.8641 68.5417 73.9316 70.1115 73.9432C71.6848 73.9534 73.258 73.9081 74.8301 73.8073C77.7004 73.5998 80.6656 73.669 83.5971 73.6616C85.8496 73.6892 88.1016 73.5334 90.3445 73.1947C91.526 72.9624 92.7146 72.8379 93.9048 72.8216C97.1638 72.8809 146.331 73.0094 149.582 73.2021C151.946 73.3404 154.302 73.6072 156.652 73.8641C159.095 74.0443 161.542 73.9519 163.977 73.5875C164.859 73.4639 165.756 73.3651 166.662 73.296C168.854 73.1626 171.062 73.0835 173.255 72.9649C174.067 72.9007 174.878 72.8019 175.687 72.6685C177.285 72.4363 178.87 72.1794 180.469 71.9521C180.729 71.9332 180.99 71.9514 181.249 72.0064C183.844 72.4437 186.405 72.96 189.029 73.3058C191.209 73.5652 193.426 73.7431 195.669 73.8246C197.047 73.8571 198.425 73.8291 199.802 73.7406C201.878 73.6253 203.958 73.4755 206.043 73.291C206.624 73.1749 228.611 73.039 229.161 72.8834C230.762 72.6166 250.214 72.3449 251.836 72.1324C254.139 71.831 256.472 71.6112 258.783 71.3271C260.413 71.3617 262.027 70.7975 263.503 69.6769C263.738 69.5483 263.986 69.4872 264.234 69.4966C264.374 69.5165 264.504 69.6174 264.601 69.7807C264.69 70.0853 264.761 70.4019 264.815 70.7268C265.069 70.845 265.334 70.8797 265.596 70.8288C265.858 70.7779 266.111 70.6424 266.339 70.4304C266.621 70.1904 266.861 69.8385 267.035 69.4076C267.135 68.9679 267.234 67.4462 267.299 67.0015C266.917 65.0752 266.798 63.0383 266.95 61.0307L263.775 61.0554C264.834 61.0431 265.886 58.5604 266.95 60.3168C269.046 58.5702 266.918 53.8568 269 52.1474C267.974 50.5173 267.13 48.6136 266.505 46.5199C265.904 44.4546 265.505 42.2511 265.323 39.9883C265.131 37.5935 265.09 35.1733 265.201 32.7651C265.312 30.2713 265.516 27.7906 265.813 25.3367C266.101 22.8862 266.456 20.4949 266.827 18.2271C267.199 15.9593 267.591 13.8151 267.95 11.8289C268.058 11.6489 268.146 11.4388 268.207 11.2089H268.209Z" fill="#134A36"/>
    <path d="M257.37 56.027C257.157 56.0777 256.941 55.9974 256.764 55.8022C256.53 55.402 256.993 54.9475 257.376 54.782C259.839 53.7133 262.357 53.0104 264.899 52.6822L266.091 52.5339C266.407 49.3922 266.18 46.1706 265.436 43.2232C263.135 30.9209 264.463 18.1097 265.8 5.60486C258.66 5.37265 212.243 5.14537 205.098 5.03174C202.496 5.98035 199.608 6.41019 197.613 8.57174C197.222 9.0804 196.787 9.49479 196.322 9.80197C195.71 10.0437 195.075 10.0923 194.452 9.94525L191.437 9.54752C183.11 21.2174 172.368 30.3527 161.817 39.241C160.088 40.8814 158.205 42.0577 156.242 42.7242C153.921 43.1238 151.576 42.9069 149.298 42.0819C127.093 35.9975 59.0733 29.4585 37.0564 22.4649C31.7273 20.7728 8.51236 19.0485 3.10222 17.7713C3.1573 18.9274 3.2185 20.0811 3.26593 21.2347C5.20294 21.1441 7.14096 21.1211 9.08 21.1655C8.9271 22.1367 8.6524 23.0469 8.27291 23.8398C7.89342 24.6326 7.4172 25.2914 6.87371 25.7752C5.92637 26.4795 5.01563 27.3056 4.15028 28.2455C3.9269 28.5593 3.73718 28.9125 3.51839 29.2312C3.79503 41.2462 3.60442 53.2773 2.94769 65.2537C2.82681 66.03 2.83292 66.8436 2.96542 67.6149C3.09792 68.3862 3.35226 69.0886 3.70352 69.6534C4.43048 70.3993 5.2593 70.8471 6.11789 70.9578C10.1141 71.8859 14.1498 72.2981 18.1867 72.1905C19.3954 70.3921 38.4594 68.6011 39.6987 66.8348C39.864 66.5601 40.0723 66.3629 40.3015 66.2641C40.537 66.2321 40.7735 66.3011 40.9871 66.4642C41.2008 66.6273 41.3839 66.8788 41.5179 67.193C42.3579 68.816 43.0877 70.8985 44.6483 71.2764C45.0461 71.3728 45.5832 71.4988 45.7147 71.8792C55.8021 71.5037 65.8987 71.5111 75.9907 71.5333C88.2737 71.5556 146.456 71.5803 158.739 71.6025L165.953 71.6173C165.558 70.6704 165.098 69.7986 164.582 69.0185C163.899 67.9835 163.05 66.8866 163.139 65.5724L167.129 68.1292C167.883 68.6432 168.658 69.0765 169.447 69.4261C170.016 69.6608 170.61 69.814 171.161 70.103C171.806 70.4515 172.413 70.9671 172.956 71.6297L175.791 71.6346C192.881 71.6692 249.25 71.7013 266.322 72.6401C267.097 67.5472 267.305 62.2726 266.937 57.0621L264.206 56.2222C264.223 56.2073 264.236 56.1901 264.252 56.1728C261.959 56.0204 259.664 55.9718 257.37 56.027Z" fill="#1E8B63"/>
    <path d="M257.37 56.027C257.157 56.0777 256.941 55.9974 256.764 55.8022C256.53 55.402 256.993 54.9475 257.376 54.782C259.839 53.7133 262.357 53.0104 264.899 52.6822L266.091 52.5339C266.407 49.3922 266.18 46.1706 265.436 43.2232C263.135 30.9209 264.463 18.1097 265.8 5.60486C258.66 5.37265 212.243 5.14537 205.098 5.03174C202.496 5.98035 199.608 6.41019 197.613 8.57174C197.222 9.0804 196.787 9.49479 196.322 9.80197C195.71 10.0437 195.075 10.0923 194.452 9.94525L191.437 9.54752C183.11 21.2174 172.368 30.3527 161.817 39.241C160.088 40.8814 158.205 42.0577 156.242 42.7242C153.921 43.1238 151.576 42.9069 149.298 42.0819C127.093 35.9975 59.0733 29.4585 37.0564 22.4649C31.7273 20.7728 8.51236 19.0485 3.10222 17.7713C3.1573 18.9274 3.2185 20.0811 3.26593 21.2347C5.20294 21.1441 7.14096 21.1211 9.08 21.1655C8.9271 22.1367 8.6524 23.0469 8.27291 23.8398C7.89342 24.6326 7.4172 25.2914 6.87371 25.7752C5.92637 26.4795 5.01563 27.3056 4.15028 28.2455C3.9269 28.5593 3.73718 28.9125 3.51839 29.2312C3.79503 41.2462 3.60442 53.2773 2.94769 65.2537C2.82681 66.03 2.83292 66.8436 2.96542 67.6149C3.09792 68.3862 3.35226 69.0886 3.70352 69.6534C4.43048 70.3993 5.2593 70.847 6.11789 70.9578C10.1141 71.8859 14.1498 72.2981 18.1867 72.1905C19.3954 70.392 38.4594 68.601 39.6987 66.8348C39.864 66.5601 40.0723 66.3629 40.3015 66.2641C40.537 66.2321 40.7735 66.3011 40.9871 66.4642C41.2008 66.6273 41.3839 66.8787 41.5179 67.193C42.3579 68.816 43.0877 70.8985 44.6483 71.2764C45.0461 71.3728 45.5832 71.4988 45.7147 71.8792C55.8021 71.5037 65.8987 71.5111 75.9907 71.5333C88.2737 71.5556 146.456 71.5803 158.739 71.6025L165.953 71.6173C165.558 70.6704 165.098 69.7986 164.582 69.0185C163.899 67.9835 163.05 66.8866 163.139 65.5724L167.129 68.1292C167.883 68.6432 168.658 69.0765 169.447 69.4261C170.016 69.6608 170.61 69.814 171.161 70.103C171.806 70.4515 172.413 70.9671 172.956 71.6297L175.791 71.6346C192.881 71.6692 249.25 71.7013 266.322 72.6401C267.097 67.5472 267.305 62.2726 266.937 57.0621L264.206 56.2222C264.223 56.2073 264.236 56.1901 264.252 56.1728C261.959 56.0204 259.664 55.9718 257.37 56.027Z" fill="#1E8B63"/>
    <path d="M6.87731 25.7775C7.4208 25.2936 7.89702 24.6349 8.27651 23.842C8.656 23.0491 8.9307 22.139 9.0836 21.1678C7.14557 21.1217 5.20755 21.1448 3.26953 21.237C3.37663 23.9 4.09421 25.5823 4.15541 28.2478C3.9305 28.5615 4.37267 27.9267 4.15541 28.2478C5.02027 27.308 5.9305 26.4819 6.87731 25.7775ZM44.6519 71.2787C43.0913 70.9007 42.3615 68.8182 41.5215 67.1952C41.3875 66.881 41.2043 66.6296 40.9907 66.4665C40.7771 66.3034 40.5406 66.2343 40.3051 66.2664C40.0765 66.3656 39.8687 66.5627 39.7038 66.837C38.4645 68.6033 37.8984 69.4284 36.6897 71.2268C39.482 71.2095 41.6317 72.0346 44.4148 71.921C44.8493 71.9037 45.2838 71.8963 45.7183 71.8815C45.5867 71.501 45.0512 71.375 44.6519 71.2787ZM169.451 69.4284C168.661 69.0787 167.887 68.6455 167.133 68.1315L163.143 65.5747C163.054 66.8889 163.903 67.9857 164.585 69.0208C164.969 69.4898 165.303 70.0572 165.574 70.7006C167.909 70.7056 170.623 71.6295 172.959 71.632C172.416 70.9694 171.81 70.4538 171.164 70.1053C170.614 69.8162 170.02 69.6606 169.451 69.4284ZM266.094 52.5337C265.695 52.5881 265.296 52.6326 264.902 52.6844C262.36 53.0126 259.841 53.7154 257.378 54.7842C256.995 54.9497 256.533 55.4043 256.766 55.8045C256.944 56.0003 257.16 56.0806 257.373 56.0293C259.668 55.97 261.963 56.0293 264.257 56.1775C264.697 55.7958 265.085 55.2773 265.4 54.6519C265.716 54.0265 265.952 53.3066 266.094 52.5337ZM194.508 4.96731C193.519 6.55167 192.495 8.08009 191.44 9.54979L194.454 9.94505C195.078 10.0932 195.713 10.0454 196.326 9.80424C196.791 9.49706 197.226 9.08267 197.617 8.57401C199.612 6.41246 202.499 5.98262 205.102 5.03401C201.569 4.97801 198.038 4.95578 194.508 4.96731Z" fill="#005C37"/>
    <path d="M149.299 42.0797C151.577 42.9059 153.924 43.1238 156.245 42.7244C158.208 42.0577 160.09 40.8813 161.819 39.2412C172.37 30.3529 183.113 21.2176 191.439 9.54772L188.512 9.16235C183.995 8.56947 179.476 7.97165 174.982 7.16137C173.06 6.80933 171.14 6.42229 169.223 6.00031C165.854 6.38908 162.474 6.4798 159.099 6.27205C155.565 5.94597 152.091 4.93807 148.556 4.64657C144.014 4.2686 93.5713 5.06899 89.0333 5.48154C88.0367 5.57212 87.0397 5.64458 86.0421 5.69893L86.0222 5.72858C85.3582 6.89952 85.759 8.66828 84.9772 9.73053C84.5529 10.1509 84.0659 10.3779 83.5681 10.3875C83.0703 10.3971 82.5802 10.1888 82.1497 9.78488C81.4167 9.03339 80.8201 7.98152 80.4208 6.73648L80.0842 5.8595C76.7702 5.86691 73.4516 5.75822 70.133 5.62235C70.0051 5.74252 69.876 5.85947 69.7459 5.97314L66.0402 9.22411C66.3331 7.86786 66.7746 6.6077 67.3438 5.50377C58.3408 4.79498 49.3185 5.07395 40.339 6.33875C35.6693 7.16631 12.9333 8.50277 8.49165 6.59072C6.50415 5.73599 3.93219 4.42424 2.60567 6.3931L2.48633 7.11197C2.73878 10.6618 2.93462 14.2167 3.10446 17.7715C8.5146 19.0487 31.7295 20.773 37.0586 22.4651C59.0756 29.4562 127.094 35.9977 149.299 42.0797Z" fill="#2A9F75"/>
    <path d="M80.3849 7.0908C80.3972 7.0908 80.4094 6.92776 80.4217 6.95987C80.8238 8.17296 81.421 9.18852 82.1506 9.89958C82.5722 10.3266 83.0573 10.5623 83.5549 10.5819C84.0524 10.6015 84.5441 10.4042 84.978 10.0107C85.5748 9.198 85.486 7.08833 85.7048 7.08833L80.3849 7.0908ZM67.3798 5.50978L67.3446 5.50484C66.7755 6.60877 66.3339 7.86893 66.041 9.22518L69.1515 6.49545C68.5321 6.32063 67.934 5.98951 67.3798 5.50978ZM169.99 5.93468L169.224 5.99891C171.139 6.41887 173.058 6.81412 174.983 7.16244C179.477 7.97271 183.995 8.57054 188.513 9.16342L191.44 9.54879C192.495 8.07909 193.518 6.55067 194.507 4.96631C186.326 5.00089 178.152 5.26522 169.99 5.93468Z" fill="#005C37"/>
</svg>
