<svg xmlns="http://www.w3.org/2000/svg" width="656" height="724" viewBox="0 0 656 724" fill="none">
    <path d="M620.308 357.268C620.219 356.397 636.329 353.178 638.159 352.621C640.915 351.822 645.969 351.314 648.278 348.845C650.855 346.013 650.119 342.092 650.085 337.566C649.963 316.702 645.902 295.838 643.994 275.143C643.492 269.745 639.531 257.546 640.993 253.722C641.963 251.084 645.533 249.849 646.816 246.799C648.49 242.806 648.412 237.263 648.602 232.664C648.97 223.369 648.88 214.753 649.829 205.458C650.944 194.929 648.825 194.663 642.265 190.935C647.374 183.48 652.763 176.97 653.968 165.787C654.615 159.76 653.287 153.685 653.499 147.585C653.689 141.897 654.146 136.282 654.146 130.521C654.156 116.24 653.75 101.971 652.93 87.8003C652.194 75.093 650.978 62.6035 652.529 49.9688C653.247 43.6401 653.47 37.0942 653.187 30.6052C653.064 24.5299 654.503 19.7132 655.418 13.9042C657.382 1.10002 654.303 3.06058 647.263 4.22239C641.987 4.89991 636.698 4.94839 631.42 4.36762C627.694 4.12558 622.104 1.75354 618.523 2.91536C612.152 4.99694 610.613 22.9566 606.831 29.7581C604.822 24.9172 603.841 18.6724 601.52 14.1462C598.452 8.14352 594.592 8.74863 589.883 8.79704C577.611 8.96647 565.584 11.9194 553.356 12.3793C529.927 13.2749 506.676 15.066 483.203 14.2672C460.331 13.4927 436.913 14.9208 414.165 11.3385C408.586 10.4671 402.718 10.0315 397.273 8.0709C392.587 6.4008 390.111 2.23763 388.236 9.86203C386.853 15.5017 386.842 23.0292 383.461 26.9988C381.23 29.5887 374.357 34.2601 372.182 30.3874C370.006 26.5147 371.49 12.9602 367.206 10.564C365.421 9.57158 361.572 12.2825 359.608 12.5971C356.261 13.1538 352.713 12.936 349.31 12.7666C342.817 12.4519 338.99 9.6926 336.815 19.3744C335.219 26.4663 334.215 34.4537 330.645 39.9482C328.979 33.3645 327.384 26.7325 325.859 20.0521C324.208 12.7908 324.052 12.2099 318.707 12.0162C308.354 11.6532 297.454 11.0965 287.223 13.3475C264.296 18.4062 242.273 14.2188 219.368 12.1857C209.327 11.2901 199.286 10.0799 189.244 9.47476C178.501 8.79704 166.741 5.96512 156.6 11.0723C152.416 12.8162 148.173 13.8199 143.915 14.0736C141.449 14.5977 138.971 14.7595 136.495 14.5577C134.922 14.2914 132.3 12.1372 130.817 12.5245C126.945 13.6621 124 25.1592 120.374 25.1592C117.116 25.1592 112.854 14.4851 110.411 11.3385C103.505 2.43126 89.2465 5.11796 80.6 4.41603C69.2201 3.52047 57.8068 2.96376 46.4269 1.99559C36.7316 1.19684 27.4381 1.94718 17.7652 1.5357C14.1727 1.39048 5.57083 -1.39304 2.40231 0.906386C-1.12323 3.54467 0.282524 13.5169 0.249054 19.689C0.1598 35.0104 2.01182 50.3077 2.32421 65.6775C2.69238 83.4435 1.49861 101.306 1.00771 119.072C0.12633 151.652 2.2238 184.86 2.7147 217.56C2.84858 225.693 2.2238 231.914 5.49273 238.4C8.58315 244.548 7.98068 250.067 8.05878 257.764C8.12572 264.299 8.11457 270.883 8.36001 277.418C8.46043 280.226 9.3195 284.679 8.9067 287.318C8.05878 292.715 8.15919 289.544 5.48157 291.747C4.07582 292.909 3.84153 290.924 2.75932 293.199C1.86678 295.063 2.61429 301.332 2.62544 303.486C2.56101 310.323 2.69143 317.161 3.01593 323.963C3.41757 330.571 3.08287 336.235 6.56378 340.422C10.5802 345.263 16.8949 348.652 21.4246 352.815C25.4075 356.47 27.4715 357.656 22.4175 360.802C17.947 363.092 13.3924 364.526 8.80628 365.086C4.34358 366.006 4.06466 365.086 2.87089 370.775C1.20853 378.641 2.6366 390.477 2.45809 398.779C1.78869 429.664 2.1457 460.525 0.427562 491.361C0.126879 499.201 0.0374731 507.073 0.1598 514.936C0.1598 524.981 0.215583 525.756 6.49684 530.016C8.72819 531.54 14.8756 534.639 15.0764 539.383C15.2437 543.401 7.80218 548.024 6.15098 551.921C2.2238 560.997 3.60724 576.077 3.09403 586.678C2.2238 604.565 3.09403 622.573 2.33537 640.533C1.72175 655.056 0.706481 669.578 0.673011 684.101C0.673011 692.113 0.315994 700.1 0.137486 708.088C-0.0521786 717.334 1.76637 715.978 7.62367 715.857C18.6131 715.64 29.3459 712.009 40.313 711.016C52.273 709.968 64.2442 709.12 76.2266 708.475C82.6603 708.12 89.0903 707.951 95.5166 707.967C99.7227 707.967 105.145 710.024 109.172 709.298C114.037 708.427 117.049 699.253 121.724 696.76C127.302 693.783 129.333 698.938 132.947 704.481C137.254 711.089 138.347 713.485 144.327 712.953C150.307 712.42 156.265 714.09 162.178 714.695C174.551 715.93 187.013 715.155 199.419 715.155C225.158 715.155 250.741 718.036 276.457 717.818C288.752 717.721 301.043 717.721 313.33 717.818C315.316 717.818 320.024 719.028 321.798 717.818C324.966 715.688 324.621 713.122 325.245 708.136C325.77 703.9 326.227 687.877 329.094 685.844C332.854 689.523 332.296 701.528 335.231 706.369C338.165 711.21 339.693 709.879 344.29 707.579C349.545 704.941 349.567 701.262 354.677 705.691C357.052 708.026 359.501 709.984 362.007 711.549C364.818 713.074 369.08 712.009 371.501 713.969C376.187 717.866 374.067 720.601 380.036 720.601C385.726 720.601 391.282 723.191 396.983 723.724C408.843 724.813 420.413 722.393 432.228 721.449C442.38 720.626 452.555 720.021 462.674 718.399C473.954 716.583 485.044 717.866 496.301 717.019C502.002 716.583 504.244 714.599 508.573 709.758C512.489 705.522 516.751 704.312 521.493 703.44C527.188 702.29 532.921 702.387 538.607 703.731C541.363 704.384 544.107 705.328 546.919 705.401C549.072 705.401 552.821 703.44 554.662 705.401C558.12 708.911 556.469 715.373 561.021 717.503C565.807 719.754 572.033 716.729 576.919 716.753C588.946 716.753 600.215 724.45 612.443 723.312C622.919 722.344 632.826 721.206 643.336 722.635C647.798 723.24 651.993 726.023 653.377 719.052C654.927 711.525 652.094 699.374 651.893 691.459C651.469 675.412 654.292 659.993 655.34 644.164C656.456 626.664 655.653 608.97 654.66 591.471C652.841 558.698 651.748 525.635 651.413 492.474C651.302 483.228 651.145 474.055 650.833 464.833C650.643 459.193 651.848 448.858 648.914 444.646C645.567 439.806 637.668 443.17 638.605 434.021C639.286 427.364 645.143 420.611 648.055 416.085C652.138 409.719 651.257 403.741 650.956 395.415C650.688 387.96 652.071 376.051 650.376 369.056C648.802 362.569 641.528 363.223 637.043 361.988C631.443 360.375 625.827 358.85 620.196 357.414C620.308 357.099 623.32 358.067 620.308 357.268Z" fill="#222631"/>
</svg>