<svg width="281" height="82" viewBox="0 0 281 82" fill="none" xmlns="http://www.w3.org/2000/svg">
    <path d="M125.379 62.6042C131.963 62.471 164.31 62.4838 167.732 62.2258C176.509 61.5631 188.239 61.5148 201.329 61.6951C213.439 61.8619 223.747 61.692 232.076 61.146C240.136 60.6176 250.593 60.4515 261.463 60.3533C264.67 60.3244 267.848 60.2947 271.085 60.274C277.263 60.2345 281.824 60.6542 280.593 61.1678C279.512 61.6212 276.416 61.952 271.809 62.1145C265.508 62.336 258.793 62.502 252.019 62.6492C231.727 63.0892 211.317 63.5111 190.936 63.9364L144.694 65.4328C134.145 65.7299 123.863 66.071 113.728 66.4284C106.832 66.6737 100.155 66.5541 93.1631 65.9517C89.845 65.6662 86.4083 65.3777 83.5363 65.0645C79.9242 64.6676 79.6074 64.2984 82.8206 64.0571C85.647 63.8451 88.9775 63.6637 92.6622 63.556C101.131 63.3127 109.955 63.1233 118.661 62.9135C119.195 62.9004 119.908 62.9069 120.354 62.8816C122.079 62.7937 123.714 62.6961 125.379 62.6042Z" fill="#32D499" fill-opacity="0.8"/>
    <path d="M112.294 43.3131C112.294 45.0845 111.793 46.5885 110.793 47.8251C110.125 48.6272 108.925 49.563 107.19 50.6325C105.189 51.9025 103.821 52.8718 103.087 53.5402C103.02 53.6071 102.103 53.9914 100.335 54.6933L99.985 54.3423C99.9183 54.4092 99.9183 54.5262 99.985 54.6933C100.052 54.8938 100.085 54.9941 100.085 54.9941C99.2511 55.5288 97.9335 56.2307 96.1322 57.0996C95.6319 57.1999 94.9814 57.367 94.1809 57.601C93.4137 57.8349 92.513 58.2694 91.479 58.9044C91.3455 58.9379 90.8952 59.0882 90.128 59.3556C89.5276 59.5562 89.1273 59.6564 88.9272 59.6564C88.2267 59.6564 87.7763 59.7233 87.5762 59.857C87.5095 59.6564 87.3927 59.3556 87.2259 58.9546C87.1259 59.1217 86.9591 59.3556 86.7256 59.6564C86.1252 59.5562 85.6248 59.2052 85.2245 58.6036C84.8242 58.002 84.4073 57.7012 83.9736 57.7012C84.0404 57.5341 84.0904 57.3837 84.1238 57.25C84.1905 57.0829 84.1404 56.9994 83.9736 56.9994C83.8069 56.9994 83.6734 57.0328 83.5734 57.0996C83.5067 57.1665 83.4066 57.1999 83.2732 57.1999C83.0063 57.1999 82.7394 57.0996 82.4726 56.8991C82.4726 56.7988 82.3392 56.5482 82.0723 56.1471C81.8054 55.7461 81.672 55.462 81.672 55.2949C81.672 55.1612 81.7387 54.9439 81.8722 54.6431C82.0056 54.3089 82.089 54.0583 82.1223 53.8911C82.2891 52.9553 82.3725 51.7187 82.3725 50.1813C82.3725 50.0811 82.2891 49.3959 82.1223 48.1259C81.9889 46.8558 81.9055 46.0036 81.8722 45.5691C81.8722 45.402 81.9556 44.6166 82.1223 43.2129C82.0223 42.9455 81.9389 42.4943 81.8722 41.8593C81.4052 41.3914 80.688 40.7396 79.7206 39.9041C79.6873 39.7036 79.804 39.3526 80.0709 38.8513C79.4037 38.5505 79.1035 38.1494 79.1702 37.6481C79.237 36.846 79.237 36.3781 79.1702 36.2444C79.6039 36.0439 80.1376 35.6929 80.7714 35.1916C81.2384 34.6234 81.4719 34.0386 81.4719 33.437V29.0754C81.4719 28.9751 81.4052 28.6409 81.2717 28.0727C81.1717 27.4712 81.1216 27.0367 81.1216 26.7693C81.0549 26.7359 80.9048 26.6356 80.6713 26.4685C80.171 26.8361 79.4705 27.4879 78.5698 28.4237C78.3697 28.29 78.0695 28.2231 77.6692 28.2231H77.0688C76.9353 27.6216 76.4016 26.8529 75.4676 25.917C74.1667 24.6136 73.3995 23.8115 73.166 23.5107C73.3328 23.3436 73.583 23.26 73.9165 23.26C74.1167 23.0595 74.1334 22.9091 73.9666 22.8088C73.9332 22.6417 74.05 22.5581 74.3168 22.5581C74.4836 22.5581 74.6004 22.4913 74.6671 22.3576C74.7338 22.1905 74.7838 22.1069 74.8172 22.1069C75.2842 21.9064 76.1014 21.6056 77.2689 21.2046C78.3363 20.8703 79.9041 20.5862 81.9722 20.3523C83.5734 20.1518 84.6241 20.0515 85.1245 20.0515C85.2245 20.0515 85.825 20.1183 86.9257 20.252C88.0599 20.3857 88.8271 20.4693 89.2274 20.5027C89.4275 20.603 89.611 20.8703 89.7778 21.3048C90.0446 21.3048 90.178 21.0709 90.178 20.603C91.579 20.9706 92.98 21.3382 94.381 21.7059C96.0155 22.1738 97.4665 22.9425 98.7341 24.012C98.7007 24.012 98.6507 24.0788 98.584 24.2125C98.6507 24.2459 98.8508 24.4632 99.1844 24.8642C99.4179 25.0982 99.6014 25.2152 99.7348 25.2152C99.9016 25.2152 100.018 25.1985 100.085 25.165C100.152 25.0982 100.202 25.0648 100.235 25.0648C100.269 25.165 100.302 25.5661 100.335 26.268C100.369 26.7359 100.469 26.9698 100.635 26.9698C100.802 26.9698 100.886 26.8863 100.886 26.7192C100.886 26.7526 100.919 26.8863 100.986 27.1202C101.086 27.3208 101.136 27.4879 101.136 27.6216C101.136 28.3234 100.769 29.3261 100.035 30.6295C99.2678 32.0332 98.5506 32.7351 97.8835 32.7351C97.7834 32.7351 97.6667 32.7184 97.5332 32.685C97.3331 33.2197 96.8828 33.8213 96.1823 34.4897C95.5151 35.1582 95.0148 35.4924 94.6812 35.4924L94.331 35.342C94.2309 35.342 93.964 35.5592 93.5304 35.9937C93.5304 36.1943 93.6805 36.4449 93.9807 36.7457C94.3143 36.5118 95.4318 36.3948 97.3331 36.3948C97.1997 36.3948 97.7334 36.4784 98.9342 36.6455C98.9342 36.7457 98.9843 36.8961 99.0843 37.0967C99.1844 36.9964 99.2344 36.8961 99.2344 36.7959C102.27 36.9964 104.888 37.4476 107.09 38.1494C110.559 39.3526 112.294 41.0739 112.294 43.3131ZM99.4346 25.3154L99.1844 25.2152L98.9843 25.6664L99.2344 25.7666L99.4346 25.3154ZM96.4825 26.7693C96.6159 26.3014 96.5659 25.8502 96.3324 25.4157C96.299 25.4157 96.2657 25.4491 96.2323 25.516C96.199 25.5494 96.0989 25.5661 95.9321 25.5661C95.6653 25.5661 95.5485 25.4658 95.5819 25.2653C93.8473 25.2653 92.7465 24.9812 92.2795 24.4131C92.4129 24.3128 92.4296 24.2292 92.3296 24.1624C92.2628 24.3629 92.1461 24.5969 91.9793 24.8642C91.2788 24.7306 90.1447 24.6637 88.5769 24.6637C88.0098 24.7306 87.276 24.8308 86.3753 24.9645C85.5081 25.0648 84.7909 25.1483 84.2238 25.2152C84.057 25.2152 83.8569 25.165 83.6234 25.0648C83.4233 24.9311 83.3232 24.8642 83.3232 24.8642C82.9563 25.399 82.7728 25.9338 82.7728 26.4685C83.0063 26.2345 83.3399 26.1176 83.7735 26.1176C83.9403 26.1176 84.1905 26.2345 84.524 26.4685C84.891 26.7025 85.1411 26.8194 85.2746 26.8194C85.3746 26.8194 85.5581 26.786 85.825 26.7192C85.9917 26.6857 86.1418 26.7025 86.2753 26.7693C86.0418 27.1035 85.825 27.6884 85.6248 28.5239C85.8917 28.9919 85.9584 29.443 85.825 29.8775C85.6582 30.6128 85.5748 30.9303 85.5748 30.8301L85.7249 31.0306C85.7249 31.1643 85.7416 31.4316 85.7749 31.8327C85.8416 32.2338 85.875 32.5346 85.875 32.7351C85.7749 32.8354 85.6915 32.9523 85.6248 33.086C85.7916 33.7545 85.8416 34.2558 85.7749 34.59C85.8083 34.59 85.9083 34.6234 86.0751 34.6903C86.2753 34.7571 86.4587 34.7905 86.6255 34.7905C87.3927 34.7905 87.743 34.4396 87.6763 33.7378C87.8764 33.7712 88.1266 33.7545 88.4268 33.6876C88.727 33.5874 88.9272 33.5372 89.0272 33.5372C89.1606 33.5372 89.2941 33.4537 89.4275 33.2866C89.5943 33.1195 89.6944 33.0526 89.7277 33.086C90.1947 32.451 91.1287 31.7157 92.5297 30.8802C92.6631 31.0139 92.7298 31.1309 92.7298 31.2311C92.7966 30.9972 92.9633 30.6462 93.2302 30.1783C93.2969 30.3454 93.4303 30.5794 93.6305 30.8802L94.0808 30.4791C94.0808 30.3789 94.0141 30.2786 93.8807 30.1783C93.7472 30.0446 93.6805 29.911 93.6805 29.7773C93.9474 29.7104 94.3143 29.5934 94.7813 29.4263C94.7813 29.159 94.9314 28.8749 95.2316 28.5741C95.3984 28.3735 95.5652 28.1897 95.732 28.0226C95.9655 27.6884 96.0322 27.3542 95.9321 27.02C96.0989 26.9865 96.2824 26.903 96.4825 26.7693ZM91.9293 32.4343C91.7291 32.0332 91.7291 31.699 91.9293 31.4316C91.8959 31.4651 91.6624 31.8661 91.2288 32.6348C91.5623 32.6348 91.7958 32.568 91.9293 32.4343ZM110.542 42.0097C110.542 41.5083 109.742 40.89 108.141 40.1548C106.706 39.4863 105.772 39.1688 105.339 39.2022C105.072 39.0017 104.938 38.8012 104.938 38.6006C104.938 38.8012 104.822 38.9014 104.588 38.9014C104.321 38.9014 104.238 38.868 104.338 38.8012C104.438 38.8012 104.488 38.6508 104.488 38.35C104.155 38.7176 103.871 38.9014 103.638 38.9014C103.504 38.9014 103.321 38.8513 103.087 38.751C102.887 38.6174 102.72 38.5505 102.587 38.5505C102.42 38.5505 102.37 38.6174 102.437 38.751C102.503 38.8513 102.453 38.9014 102.287 38.9014C102.12 38.9014 100.335 38.7343 96.9328 38.4001C96.9328 38.5004 96.8995 38.6006 96.8327 38.7009C96.5992 38.2664 96.3991 38.0492 96.2323 38.0492C96.2323 38.4502 96.1156 38.7343 95.8821 38.9014C95.7153 38.9014 95.5151 38.8513 95.2816 38.751C95.0481 38.6174 94.848 38.5505 94.6812 38.5505C94.5478 38.5505 94.1975 38.7009 93.6305 39.0017C93.0968 39.2691 92.7632 39.4028 92.6298 39.4028C92.4963 39.4028 92.4296 39.3861 92.4296 39.3526C92.4296 39.2858 92.3462 39.2524 92.1795 39.2524C92.0794 39.2524 91.8626 39.4195 91.529 39.7537C91.3288 39.5866 91.0787 39.3526 90.7785 39.0518C90.545 39.5866 90.178 39.9375 89.6777 40.1046C88.677 40.3052 87.2593 40.7396 85.4247 41.4081C85.4247 42.4442 85.358 44.1654 85.2245 46.5718C85.1245 48.8444 85.0744 50.5824 85.0744 51.7856C85.0744 52.9553 84.941 53.841 84.6741 54.4426C84.8409 54.5094 85.1078 54.6933 85.4747 54.9941C85.8416 55.2614 86.1085 55.3951 86.2753 55.3951C86.4087 55.3951 86.6255 55.3116 86.9257 55.1445C87.2593 54.9439 87.4761 54.8437 87.5762 54.8437C87.7096 54.8437 87.9098 54.8771 88.1766 54.9439C88.4768 55.0108 88.6937 55.0442 88.8271 55.0442C89.3941 55.0442 90.3615 54.7768 91.7291 54.2421C93.1301 53.7073 93.7973 53.44 93.7305 53.44C93.864 53.44 93.9474 53.4734 93.9807 53.5402C94.0141 53.6071 94.0975 53.6405 94.2309 53.6405C94.3977 53.6405 94.5978 53.4901 94.8313 53.1893C95.0648 52.8885 95.2149 52.7381 95.2816 52.7381C95.4484 52.7381 95.5151 52.7715 95.4818 52.8384C95.4484 52.9052 95.5151 52.9386 95.6819 52.9386C95.782 52.9386 96.8995 52.4039 99.0343 51.3344C101.169 50.2314 102.72 49.3959 103.688 48.8277L103.788 48.6272C103.954 48.6272 104.038 48.6606 104.038 48.7275C104.038 48.7943 104.105 48.8277 104.238 48.8277C104.338 48.8277 104.938 48.3431 106.039 47.3739C107.173 46.3712 107.941 45.6694 108.341 45.2683C108.574 45.5023 108.825 45.6192 109.091 45.6192C109.191 45.2516 109.475 44.5497 109.942 43.5137C110.342 42.6447 110.542 42.1434 110.542 42.0097ZM83.2231 50.7328C83.2231 50.0643 83.2231 49.7301 83.2231 49.7301C83.0897 49.7301 82.9229 49.8137 82.7228 49.9808C82.9896 50.4821 83.1564 50.7328 83.2231 50.7328ZM124.446 44.6166C124.446 44.8839 124.329 45.168 124.095 45.4688C122.194 46.271 120.926 46.789 120.293 47.0229C118.691 47.658 117.341 48.0925 116.24 48.3264C116.073 48.4267 115.99 48.5938 115.99 48.8277C115.956 48.9614 115.956 49.1787 115.99 49.4795C116.023 49.8137 116.04 50.0476 116.04 50.1813C116.04 51.585 116.44 52.8551 117.24 53.9914C118.174 55.2949 119.392 55.9466 120.893 55.9466C121.026 55.9466 121.727 55.462 122.995 54.4927C123.261 54.7601 123.378 55.0776 123.345 55.4453C123.145 55.8129 122.928 56.1805 122.694 56.5482C122.494 56.9158 122.211 57.0996 121.844 57.0996C121.71 57.0996 121.644 57.0829 121.644 57.0495C121.644 56.9827 121.594 56.9492 121.493 56.9492C121.327 56.9492 121.227 56.9994 121.193 57.0996C121.193 57.2333 121.16 57.3002 121.093 57.3002C121.06 57.3336 120.893 57.3837 120.593 57.4506C120.326 57.5174 120.126 57.5508 119.992 57.5508C119.726 57.5508 119.525 57.4004 119.392 57.0996C119.325 57.2333 119.192 57.4172 118.992 57.6511C118.925 57.6511 118.775 57.6344 118.541 57.601C118.341 57.5676 118.174 57.5508 118.041 57.5508C117.707 57.5508 117.441 57.3503 117.24 56.9492C117.207 57.0161 117.19 57.1498 117.19 57.3503C116.857 57.2835 116.39 57.1331 115.79 56.8991C115.456 56.732 114.655 55.98 113.388 54.6431C113.321 54.2755 113.154 53.8076 112.887 53.2394C112.654 53.0055 112.387 52.6545 112.087 52.1866C111.687 51.0169 111.486 49.5797 111.486 47.8752C111.486 43.9648 112.654 39.6367 114.989 34.8908C115.723 34.3895 116.69 33.9717 117.891 33.6375C119.092 33.2699 120.126 33.086 120.993 33.086C121.093 33.086 121.377 33.1529 121.844 33.2866C122.344 33.3868 122.694 33.4537 122.894 33.4871C123.095 33.721 123.361 34.189 123.695 34.8908C123.828 35.3253 123.929 37.2805 123.995 40.7564C123.995 41.1908 124.062 41.9261 124.195 42.9622C124.362 43.9983 124.446 44.5497 124.446 44.6166ZM120.893 39.7537C120.893 38.9516 120.66 37.598 120.193 35.6929C119.792 35.6261 119.475 35.7264 119.242 35.9937C118.875 36.4616 118.491 37.0298 118.091 37.6982C117.924 37.999 117.524 39.2524 116.89 41.4582C116.29 43.6641 115.99 44.884 115.99 45.1179C115.99 45.519 116.023 45.7529 116.09 45.8198H116.54C116.74 45.8198 117.424 45.6527 118.591 45.3184C118.892 45.2516 119.192 45.2015 119.492 45.168C119.826 45.1012 120.042 44.9675 120.143 44.767C120.143 44.2322 120.176 43.4802 120.243 42.511C120.243 42.4776 120.343 42.4107 120.543 42.3105C120.509 42.0431 120.493 41.6253 120.493 41.0571C120.526 40.9235 120.593 40.7062 120.693 40.4054C120.826 40.0712 120.893 39.854 120.893 39.7537ZM139.673 33.437C139.44 33.8046 139.073 34.072 138.573 34.2391C138.406 34.4396 138.156 34.707 137.822 35.0412C137.355 35.2752 136.488 35.5258 135.22 35.7932C134.253 35.9937 133.269 36.1776 132.268 36.3447C132.035 38.2831 131.985 39.9041 132.118 41.2075C132.218 42.1434 132.268 42.628 132.268 42.6614C132.268 42.4943 132.218 42.2436 132.118 41.9094H132.018C131.985 42.1099 132.001 42.394 132.068 42.7617C132.168 43.1293 132.218 43.3298 132.218 43.3633C132.252 43.6641 132.185 44.2155 132.018 45.0176C131.885 45.92 131.818 46.4715 131.818 46.672C131.785 47.3405 131.818 48.0757 131.918 48.8779C132.018 49.6466 132.068 50.1479 132.068 50.3818C132.068 50.7495 132.018 51.1171 131.918 51.4848C132.018 51.6185 132.101 52.2535 132.168 53.3898C132.168 53.323 132.151 54.4259 132.118 56.6986C132.118 57.3002 132.118 57.9686 132.118 58.7039C132.151 59.4392 132.235 60.4251 132.368 61.6617C132.535 63.1323 132.735 64.0514 132.969 64.419C133.002 64.4859 132.919 64.6363 132.719 64.8702C132.752 65.2044 132.769 65.6389 132.769 66.1737C132.368 66.2405 131.918 65.9397 131.418 65.2713C130.951 64.6363 130.667 64.0681 130.567 63.5668C130.6 63.3662 130.584 63.0654 130.517 62.6644C130.317 62.397 130.1 61.9458 129.867 61.3108C129.233 58.5702 128.799 55.9299 128.566 53.3898C128.532 51.9193 128.449 49.8137 128.315 47.0731C128.249 46.4381 128.282 44.0651 128.415 39.9542C128.349 39.6869 128.265 39.3025 128.165 38.8012C128.332 38.233 128.365 37.4309 128.265 36.3948C128.232 36.328 127.298 35.6762 125.463 34.4396C125.463 34.3393 125.33 34.0218 125.063 33.4871C125.764 33.3868 126.748 33.3367 128.015 33.3367C128.049 33.3367 128.099 33.2699 128.165 33.1362C128.165 33.0025 128.115 32.568 128.015 31.8327C127.948 31.0974 127.932 30.6128 127.965 30.3789C128.065 30.0446 128.165 29.6102 128.265 29.0754C128.332 26.034 128.349 24.2125 128.315 23.6109C128.616 23.6109 129.116 23.5608 129.816 23.4605C130.55 23.3268 130.934 23.26 130.967 23.26C131.534 23.26 132.018 23.3937 132.418 23.6611C132.819 23.895 133.019 24.1958 133.019 24.5635C132.919 24.8642 132.819 25.2653 132.719 25.7666C132.652 26.2345 132.585 26.9698 132.518 27.9725C132.485 28.3401 132.452 28.8247 132.418 29.4263C132.385 31.298 132.485 32.5011 132.719 33.0359L136.521 33.1362C136.254 33.1362 137.305 33.2364 139.673 33.437ZM130.617 61.7119H130.417L130.367 62.4137H130.617V61.7119ZM131.117 63.3161L130.967 63.1657L130.617 63.4665L130.767 63.6169L131.117 63.3161ZM150.961 33.437C150.727 33.8046 150.36 34.072 149.86 34.2391C149.693 34.4396 149.443 34.707 149.109 35.0412C148.643 35.2752 147.775 35.5258 146.508 35.7932C145.54 35.9937 144.556 36.1776 143.556 36.3447C143.322 38.2831 143.272 39.9041 143.405 41.2075C143.506 42.1434 143.556 42.628 143.556 42.6614C143.556 42.4943 143.506 42.2436 143.405 41.9094H143.305C143.272 42.1099 143.289 42.394 143.355 42.7617C143.455 43.1293 143.506 43.3298 143.506 43.3633C143.539 43.6641 143.472 44.2155 143.305 45.0176C143.172 45.92 143.105 46.4715 143.105 46.672C143.072 47.3405 143.105 48.0757 143.205 48.8779C143.305 49.6466 143.355 50.1479 143.355 50.3818C143.355 50.7495 143.305 51.1171 143.205 51.4848C143.305 51.6185 143.389 52.2535 143.455 53.3898C143.455 53.323 143.439 54.4259 143.405 56.6986C143.405 57.3002 143.405 57.9686 143.405 58.7039C143.439 59.4392 143.522 60.4251 143.656 61.6617C143.822 63.1323 144.023 64.0514 144.256 64.419C144.289 64.4859 144.206 64.6363 144.006 64.8702C144.039 65.2044 144.056 65.6389 144.056 66.1737C143.656 66.2405 143.205 65.9397 142.705 65.2713C142.238 64.6363 141.954 64.0681 141.854 63.5668C141.888 63.3662 141.871 63.0654 141.804 62.6644C141.604 62.397 141.387 61.9458 141.154 61.3108C140.52 58.5702 140.086 55.9299 139.853 53.3898C139.82 51.9193 139.736 49.8137 139.603 47.0731C139.536 46.4381 139.569 44.0651 139.703 39.9542C139.636 39.6869 139.553 39.3025 139.453 38.8012C139.619 38.233 139.653 37.4309 139.553 36.3948C139.519 36.328 138.585 35.6762 136.751 34.4396C136.751 34.3393 136.617 34.0218 136.35 33.4871C137.051 33.3868 138.035 33.3367 139.303 33.3367C139.336 33.3367 139.386 33.2699 139.453 33.1362C139.453 33.0025 139.403 32.568 139.303 31.8327C139.236 31.0974 139.219 30.6128 139.253 30.3789C139.353 30.0446 139.453 29.6102 139.553 29.0754C139.619 26.034 139.636 24.2125 139.603 23.6109C139.903 23.6109 140.403 23.5608 141.104 23.4605C141.838 23.3268 142.221 23.26 142.255 23.26C142.822 23.26 143.305 23.3937 143.706 23.6611C144.106 23.895 144.306 24.1958 144.306 24.5635C144.206 24.8642 144.106 25.2653 144.006 25.7666C143.939 26.2345 143.872 26.9698 143.806 27.9725C143.772 28.3401 143.739 28.8247 143.706 29.4263C143.672 31.298 143.772 32.5011 144.006 33.0359L147.809 33.1362C147.542 33.1362 148.592 33.2364 150.961 33.437ZM141.904 61.7119H141.704L141.654 62.4137H141.904V61.7119ZM142.405 63.3161L142.255 63.1657L141.904 63.4665L142.055 63.6169L142.405 63.3161ZM160.849 44.6166C160.849 44.8839 160.732 45.168 160.498 45.4688C158.597 46.271 157.329 46.789 156.696 47.0229C155.094 47.658 153.743 48.0925 152.643 48.3264C152.476 48.4267 152.393 48.5938 152.393 48.8277C152.359 48.9614 152.359 49.1787 152.393 49.4795C152.426 49.8137 152.443 50.0476 152.443 50.1813C152.443 51.585 152.843 52.8551 153.643 53.9914C154.577 55.2949 155.795 55.9466 157.296 55.9466C157.429 55.9466 158.13 55.462 159.397 54.4927C159.664 54.7601 159.781 55.0776 159.748 55.4453C159.548 55.8129 159.331 56.1805 159.097 56.5482C158.897 56.9158 158.614 57.0996 158.247 57.0996C158.113 57.0996 158.047 57.0829 158.047 57.0495C158.047 56.9827 157.996 56.9492 157.896 56.9492C157.73 56.9492 157.63 56.9994 157.596 57.0996C157.596 57.2333 157.563 57.3002 157.496 57.3002C157.463 57.3336 157.296 57.3837 156.996 57.4506C156.729 57.5174 156.529 57.5508 156.395 57.5508C156.128 57.5508 155.928 57.4004 155.795 57.0996C155.728 57.2333 155.595 57.4172 155.395 57.6511C155.328 57.6511 155.178 57.6344 154.944 57.601C154.744 57.5676 154.577 57.5508 154.444 57.5508C154.11 57.5508 153.844 57.3503 153.643 56.9492C153.61 57.0161 153.593 57.1498 153.593 57.3503C153.26 57.2835 152.793 57.1331 152.192 56.8991C151.859 56.732 151.058 55.98 149.791 54.6431C149.724 54.2755 149.557 53.8076 149.29 53.2394C149.057 53.0055 148.79 52.6545 148.49 52.1866C148.089 51.0169 147.889 49.5797 147.889 47.8752C147.889 43.9648 149.057 39.6367 151.392 34.8908C152.126 34.3895 153.093 33.9717 154.294 33.6375C155.495 33.2699 156.529 33.086 157.396 33.086C157.496 33.086 157.78 33.1529 158.247 33.2866C158.747 33.3868 159.097 33.4537 159.297 33.4871C159.498 33.721 159.764 34.189 160.098 34.8908C160.231 35.3253 160.331 37.2805 160.398 40.7564C160.398 41.1908 160.465 41.9261 160.598 42.9622C160.765 43.9983 160.849 44.5497 160.849 44.6166ZM157.296 39.7537C157.296 38.9516 157.062 37.598 156.595 35.6929C156.195 35.6261 155.878 35.7264 155.645 35.9937C155.278 36.4616 154.894 37.0298 154.494 37.6982C154.327 37.999 153.927 39.2524 153.293 41.4582C152.693 43.6641 152.393 44.884 152.393 45.1179C152.393 45.519 152.426 45.7529 152.493 45.8198H152.943C153.143 45.8198 153.827 45.6527 154.994 45.3184C155.295 45.2516 155.595 45.2015 155.895 45.168C156.229 45.1012 156.445 44.9675 156.545 44.767C156.545 44.2322 156.579 43.4802 156.646 42.511C156.646 42.4776 156.746 42.4107 156.946 42.3105C156.912 42.0431 156.896 41.6253 156.896 41.0571C156.929 40.9235 156.996 40.7062 157.096 40.4054C157.229 40.0712 157.296 39.854 157.296 39.7537ZM176.659 32.7852C176.492 33.8213 176.242 35.4089 175.909 37.5479C175.909 37.6481 175.842 38.8513 175.709 41.1574C175.642 42.5946 175.375 43.6641 174.908 44.3659C174.841 44.5999 174.908 44.7168 175.108 44.7168C174.775 45.2516 174.408 45.6192 174.007 45.8198C173.64 44.5832 173.374 43.0457 173.207 41.2075C173.073 39.6367 172.94 38.0826 172.807 36.5452C172.773 36.5118 172.673 36.4449 172.506 36.3447C172.306 36.6789 172.056 37.2972 171.756 38.1996C171.255 38.4001 171.055 38.8513 171.155 39.5532C171.055 39.4529 170.955 39.4028 170.855 39.4028C170.688 39.7704 170.655 40.0712 170.755 40.3052C170.655 40.2049 170.522 40.1548 170.355 40.1548C170.321 40.2884 170.371 40.5558 170.505 40.9569H170.605C170.238 41.5251 169.921 42.1434 169.654 42.8118C169.621 42.9121 169.571 43.3131 169.504 44.015C169.471 44.4829 169.304 44.7837 169.004 44.9174C168.97 45.0176 169.054 45.0678 169.254 45.0678V45.519C169.254 45.4855 169.171 45.5691 169.004 45.7696C169.004 46.0704 168.92 46.5885 168.754 47.3237C168.62 48.0256 168.554 48.5269 168.554 48.8277C168.554 49.2288 168.554 49.446 168.554 49.4795C168.52 49.6131 168.487 50.7829 168.453 52.9888C168.453 54.4259 168.303 55.3951 168.003 55.8965C167.97 56.1973 167.936 56.4813 167.903 56.7487C167.836 57.2166 167.62 57.4506 167.253 57.4506C167.419 57.4506 166.869 57.3169 165.601 57.0495C165.535 56.8824 165.418 56.6317 165.251 56.2975C164.818 56.1304 164.584 55.863 164.551 55.4954C164.551 55.1278 164.551 54.8938 164.551 54.7935C164.451 54.4593 164.284 54.2254 164.05 54.0917C164.15 53.6906 164.2 53.2227 164.2 52.688C164.2 52.5877 164.15 52.4373 164.05 52.2368C163.95 52.0362 163.9 51.9193 163.9 51.8858V48.3264C163.9 47.8919 163.683 47.6078 163.25 47.4741C163.25 47.4407 163.333 47.2402 163.5 46.8726C163.5 46.7389 163.483 46.6386 163.45 46.5718C163.283 46.7389 163.166 46.8224 163.1 46.8224V40.7564L163.5 35.9937C163.433 35.9603 163.984 35.9436 165.151 35.9436C165.618 35.9436 166.068 36.1776 166.502 36.6455C166.969 37.0799 167.203 37.4977 167.203 37.8988C167.203 37.9656 167.119 38.2497 166.952 38.751C166.786 39.2524 166.702 39.5532 166.702 39.6534C166.702 39.8874 166.719 40.0211 166.752 40.0545C167.853 39.4529 168.403 38.5672 168.403 37.3975C168.604 37.1301 168.804 36.9797 169.004 36.9463C169.471 36.3112 169.871 35.6595 170.205 34.9911C170.305 34.9911 170.438 34.9409 170.605 34.8407C170.672 34.0386 171.239 33.3534 172.306 32.7852C173.207 32.3507 174.074 32.1335 174.908 32.1335C175.142 32.1335 175.725 32.3507 176.659 32.7852ZM163.55 48.6272H163.3V48.0256H163.55V48.6272ZM172.356 35.7932L172.206 35.6428L171.906 35.9937L172.006 36.094L172.356 35.7932ZM171.205 36.6956V36.2444H171.005V36.6956H171.205ZM170.555 37.8486L170.405 37.4977L170.205 37.5479L170.355 37.8486H170.555ZM174.157 44.0651L173.957 44.015L173.807 44.3158L173.957 44.416L174.157 44.0651ZM174.157 45.2683V44.8171H173.907V45.2683H174.157ZM168.503 39.102L168.353 39.0017L168.053 39.6033L168.203 39.7036L168.503 39.102ZM209.669 35.5927H209.269V35.342H209.669V35.5927ZM222.729 27.6216C222.562 27.655 222.428 27.6216 222.328 27.5213L222.128 27.772C222.128 27.772 222.278 27.9224 222.579 28.2231C221.945 28.056 220.911 27.8555 219.476 27.6216L214.623 27.1704C214.523 27.1704 214.406 27.1035 214.273 26.9698C214.139 26.8361 214.006 26.7693 213.872 26.7693C213.339 26.7693 212.888 26.9197 212.521 27.2205C212.255 27.0534 212.054 26.8696 211.921 26.669C211.821 26.4351 211.704 26.268 211.571 26.1677C211.304 26.268 211.171 26.5186 211.171 26.9197L210.82 26.6189C210.787 26.6189 210.704 26.669 210.57 26.7693C210.437 26.8361 210.303 26.8696 210.17 26.8696C210.17 26.5688 210.136 26.3849 210.07 26.3181C209.97 26.3515 209.836 26.4685 209.669 26.669C209.503 26.8696 209.369 27.0033 209.269 27.0701C209.336 26.7693 209.252 26.5186 209.019 26.3181C208.819 26.5186 208.652 26.6189 208.519 26.6189C208.419 26.6189 208.385 26.669 208.419 26.7693C208.452 26.8696 208.402 26.9197 208.268 26.9197C208.135 26.9197 207.935 26.903 207.668 26.8696C207.435 26.8027 207.251 26.7693 207.118 26.7693C207.018 26.7693 206.801 26.8696 206.467 27.0701C206.167 27.2372 205.967 27.3208 205.867 27.3208C204.966 27.421 204.082 27.5213 203.215 27.6216C201.981 27.7887 200.997 28.0727 200.263 28.4738C200.129 28.7078 199.979 29.0754 199.812 29.5767C199.546 29.677 199.362 29.794 199.262 29.9277C199.295 29.9611 199.496 29.9778 199.863 29.9778C199.362 30.7131 199.112 31.3147 199.112 31.7826C199.112 31.7492 199.179 31.8327 199.312 32.0332C199.412 32.1669 199.396 32.4844 199.262 32.9858C200.496 33.2197 202.348 33.5874 204.816 34.0887C205.05 34.1555 205.55 34.3226 206.317 34.59C206.984 34.824 207.368 34.9409 207.468 34.9409C207.601 34.9409 207.852 34.9911 208.218 35.0913C208.619 35.1916 208.902 35.2417 209.069 35.2417C209.202 35.6428 209.419 35.9269 209.719 36.094C209.653 36.094 209.503 36.1776 209.269 36.3447C209.069 36.5118 208.886 36.5953 208.719 36.5953C208.585 36.5953 208.469 36.5285 208.369 36.3948C208.302 36.2277 208.268 36.1441 208.268 36.1441C208.135 36.3781 207.985 36.612 207.818 36.846C207.651 37.0799 207.401 37.1969 207.068 37.1969C206.934 37.1969 206.601 37.2471 206.067 37.3473C205.533 37.4476 205.216 37.4977 205.116 37.4977C204.983 37.4977 204.949 37.4476 205.016 37.3473C205.083 37.2471 205.066 37.1969 204.966 37.1969C204.866 37.1969 204.583 37.3807 204.116 37.7484C203.649 38.116 203.348 38.2998 203.215 38.2998H202.664C202.531 38.2998 202.414 38.1996 202.314 37.999C202.248 37.7985 202.214 37.6815 202.214 37.6481C202.114 37.7818 201.964 37.9823 201.764 38.2497C200.797 38.7845 199.946 39.0518 199.212 39.0518C198.912 39.0518 198.411 39.1688 197.711 39.4028C197.611 39.4696 197.561 39.6033 197.561 39.8038C197.561 39.737 197.494 39.6367 197.361 39.503C197.227 39.6367 197.244 39.8874 197.411 40.255C197.311 40.0211 197.061 39.8205 196.66 39.6534C196.727 40.3887 196.644 41.5251 196.41 43.0625C196.443 43.0959 196.477 43.1627 196.51 43.263C196.544 43.3298 196.594 43.38 196.66 43.4134C196.894 43.3131 197.061 42.8954 197.161 42.1601C197.294 41.3914 197.427 40.9067 197.561 40.7062V42.9121C197.294 43.0792 196.96 43.3967 196.56 43.8646C196.527 43.9983 196.543 44.5999 196.61 45.6694C196.477 45.6025 196.41 45.6861 196.41 45.92C196.41 46.1206 196.577 46.3211 196.91 46.5216C196.844 47.3237 196.894 48.4768 197.061 49.9808C197.561 51.5182 197.811 52.6378 197.811 53.3397C197.811 53.7073 197.744 53.958 197.611 54.0917C197.744 54.2254 197.961 54.4593 198.261 54.7935C198.361 54.8604 198.378 54.9774 198.311 55.1445C198.445 55.2447 198.628 55.4453 198.862 55.7461C198.862 55.7795 198.912 56.1304 199.012 56.7989C199.679 57.6678 200.013 58.2861 200.013 58.6538C200.013 58.8543 199.929 59.0381 199.762 59.2052C199.762 59.0715 199.679 58.9211 199.512 58.754C199.412 58.8209 199.362 58.9713 199.362 59.2052C199.162 59.0047 199.045 58.8042 199.012 58.6036C199.012 58.4031 198.912 58.1524 198.712 57.8516C198.512 58.0522 198.445 58.1859 198.512 58.2527C198.411 58.2527 198.261 58.1691 198.061 58.002C197.861 57.8684 197.711 57.8015 197.611 57.8015C197.611 57.3336 197.611 57.0996 197.611 57.0996C197.611 57.0996 197.427 57.4506 197.061 58.1524C196.994 57.9185 196.91 57.367 196.81 56.4981C196.744 55.863 196.627 55.5455 196.46 55.5455C196.327 55.5455 196.243 55.5622 196.21 55.5957C196.177 55.6625 196.143 55.6959 196.11 55.6959C196.277 55.3617 196.293 55.0609 196.16 54.7935C195.993 54.9941 195.91 55.1946 195.91 55.3951C195.81 55.2614 195.643 54.71 195.409 53.7407L195.109 54.0415C194.976 53.6071 194.776 52.9888 194.509 52.1866C194.509 50.315 194.242 48.1259 193.708 45.6192C193.742 45.1513 193.742 44.4495 193.708 43.5137C193.541 42.3773 193.308 40.6728 193.008 38.4001C192.574 38.0325 191.757 37.3306 190.556 36.2945C190.489 36.2945 190.456 36.3948 190.456 36.5953C190.189 36.1943 190.039 35.8768 190.006 35.6428C189.772 35.5425 189.405 35.2919 188.905 34.8908C188.871 34.7571 188.871 34.59 188.905 34.3895C188.971 34.1555 189.005 34.0051 189.005 33.9383C189.005 33.6375 188.855 33.32 188.555 32.9858C188.688 33.0526 189.105 33.086 189.805 33.086C190.539 33.086 190.906 33.2531 190.906 33.5874C190.94 33.5539 190.956 33.4035 190.956 33.1362C191.023 33.1362 191.19 33.2866 191.457 33.5874C191.757 33.2866 192.174 32.8354 192.707 32.2338C192.741 32.2672 192.791 32.2505 192.858 32.1836C192.958 32.1168 192.991 32.05 192.958 31.9831C192.924 31.8828 192.808 31.8494 192.607 31.8828C192.908 31.582 193.058 31.3314 193.058 31.1309C193.058 30.8635 192.874 30.5961 192.507 30.3287C192.507 30.2953 192.541 30.195 192.607 30.0279C192.707 29.8608 192.757 29.6937 192.757 29.5266V28.9751C192.424 28.7746 192.124 28.6743 191.857 28.6743C191.89 28.5741 191.874 28.3234 191.807 27.9224C191.206 27.5881 190.839 27.2205 190.706 26.8194C190.372 26.9197 190.006 26.7693 189.605 26.3682C189.905 26.1343 190.056 25.9505 190.056 25.8168C189.589 25.516 188.888 25.0648 187.954 24.4632C187.987 23.6276 187.937 23.1096 187.804 22.9091V22.3576C187.937 22.3576 188.204 22.4077 188.605 22.508C189.005 22.6083 189.288 22.6584 189.455 22.6584C189.555 22.6584 189.872 22.5247 190.406 22.2573C190.973 21.99 191.39 21.8229 191.657 21.756C191.757 21.8229 191.957 22.1738 192.257 22.8088C192.324 22.7754 192.457 22.6751 192.657 22.508C192.891 22.3075 193.074 22.2072 193.208 22.2072C193.341 22.2072 193.391 22.2406 193.358 22.3075C193.358 22.3409 193.408 22.3576 193.508 22.3576C193.641 22.3576 193.742 22.2908 193.808 22.1571C193.908 21.99 194.008 21.9064 194.108 21.9064C194.242 21.9064 194.325 21.9565 194.359 22.0568C194.392 22.1571 194.475 22.2072 194.609 22.2072C194.709 22.2072 195.243 22.1069 196.21 21.9064C197.177 21.7059 197.728 21.6056 197.861 21.6056C198.128 21.6056 198.328 21.756 198.462 22.0568C198.595 22.0234 198.795 21.9231 199.062 21.756C199.329 21.5555 199.529 21.4552 199.662 21.4552C199.796 21.4552 199.896 21.5054 199.963 21.6056C200.029 21.7059 200.129 21.756 200.263 21.756C200.396 21.756 200.997 21.6892 202.064 21.5555C203.165 21.3884 203.765 21.3048 203.865 21.3048C204.399 21.3048 204.683 21.355 204.716 21.4552C204.816 21.6557 204.899 21.8563 204.966 22.0568C205.066 21.9231 205.316 21.7727 205.717 21.6056L206.017 21.9064C206.417 21.7059 206.717 21.6056 206.917 21.6056C207.851 21.6056 209.569 21.873 212.071 22.4077C212.171 22.5414 212.321 22.7252 212.521 22.9592C212.555 22.9592 212.638 22.9091 212.772 22.8088C212.938 22.7085 213.072 22.6584 213.172 22.6584C213.672 22.6584 214.123 22.9592 214.523 23.5608C214.556 23.5608 214.64 23.5107 214.773 23.4104C214.906 23.3101 215.04 23.26 215.173 23.26C215.273 23.26 215.474 23.3268 215.774 23.4605C216.107 23.5608 216.357 23.6109 216.524 23.6109V24.2125C216.758 24.3128 216.941 24.3629 217.075 24.3629C217.208 24.3629 217.292 24.3128 217.325 24.2125C217.392 24.0788 217.458 24.012 217.525 24.012C217.558 24.012 218.075 24.4131 219.076 25.2152C219.343 25.2486 219.693 25.3322 220.127 25.4658C220.494 25.6998 220.744 26.0173 220.877 26.4184C221.078 26.4518 221.478 26.6189 222.078 26.9197L222.729 27.6216ZM197.211 45.2182H196.96V44.8171H197.211V45.2182ZM210.77 22.7085C210.637 22.5749 210.453 22.508 210.22 22.508C210.12 22.508 210.07 22.7085 210.07 23.1096C210.537 22.8756 210.77 22.742 210.77 22.7085ZM197.061 28.7746H196.81L196.66 29.6269H196.91L197.061 28.7746ZM196.76 31.0306H196.51L196.36 31.5319L196.56 31.6322L196.76 31.0306ZM194.959 41.007V40.4054H194.659V41.007H194.959ZM196.16 44.767V44.0651H195.91V44.767H196.16ZM196.01 46.1206V45.5691H195.76V46.1206H196.01ZM196.31 46.7222V46.1707H196.06V46.7222H196.31ZM194.959 45.519V44.8171H194.659V45.519H194.959ZM198.411 56.1471V55.5957H198.161V56.1471H198.411ZM198.612 56.5983C198.512 56.6986 198.378 56.7654 198.211 56.7989C198.211 56.8991 198.278 57.0495 198.411 57.25C198.678 56.9827 198.745 56.7654 198.612 56.5983ZM199.612 58.5535V58.1524H199.362V58.5535H199.612ZM222.293 16.6425C222.293 16.7093 222.227 16.8263 222.093 16.9934C221.993 17.1605 221.943 17.2942 221.943 17.3945C221.71 18.7648 221.576 19.8844 221.543 20.7534C221.543 21.3884 221.276 24.4131 220.742 29.8274C220.709 29.8608 220.542 30.0279 220.242 30.3287C220.242 30.3621 220.292 30.429 220.392 30.5293C220.525 30.6295 220.592 30.7131 220.592 30.7799C220.592 30.947 220.592 31.1476 220.592 31.3815C220.625 31.6489 220.642 31.8327 220.642 31.933C220.642 32.5011 220.625 32.8688 220.592 33.0359C220.559 33.203 220.442 33.4537 220.242 33.7879C220.075 34.1221 219.992 34.3393 219.992 34.4396C219.992 34.5399 220.075 34.7571 220.242 35.0913C220.409 35.3921 220.492 35.5927 220.492 35.6929C220.492 35.7932 220.442 36.0104 220.342 36.3447C220.242 36.6789 220.192 36.9295 220.192 37.0967C220.192 37.8654 220.158 38.985 220.092 40.4556C219.992 41.2577 219.942 42.277 219.942 43.5137C219.975 45.285 219.992 46.2877 219.992 46.5216C219.958 46.7222 219.842 47.4407 219.641 48.6773C219.475 49.9139 219.391 50.5657 219.391 50.6325C219.391 50.7328 219.441 50.9166 219.541 51.184C219.641 51.4179 219.708 51.6185 219.741 51.7856C219.708 52.3537 219.708 53.2227 219.741 54.3925C219.741 54.8938 219.825 55.6458 219.992 56.6484C220.158 57.6845 220.242 58.236 220.242 58.3028C220.242 58.4031 220.192 58.5702 220.092 58.8042C220.025 59.0381 219.992 59.2219 219.992 59.3556C218.024 58.8877 217.04 57.2668 217.04 54.4927C217.04 53.8243 217.106 53.2227 217.24 52.688C217.006 52.454 216.889 52.0028 216.889 51.3344C216.923 50.2983 216.939 49.7803 216.939 49.7803C217.073 49.7134 217.14 49.6299 217.14 49.5296C216.906 49.1954 216.789 48.7275 216.789 48.1259C216.789 44.6834 216.789 43.0123 216.789 43.1126C216.856 43.0792 216.973 42.9789 217.14 42.8118V39.7537C216.906 39.5197 216.789 39.4195 216.789 39.4529C216.789 39.4529 216.756 39.3861 216.689 39.2524C216.656 39.1187 216.639 39.0017 216.639 38.9014C216.639 38.7677 216.656 38.6842 216.689 38.6508C216.756 38.6173 216.789 38.6006 216.789 38.6006C216.723 37.9322 216.723 37.3473 216.789 36.846C216.789 36.7791 216.806 36.6455 216.839 36.4449C216.906 36.211 216.939 36.0439 216.939 35.9436C216.939 35.8099 216.906 35.5592 216.839 35.1916C216.806 34.7905 216.806 34.4897 216.839 34.2892C216.839 34.189 216.889 34.0051 216.99 33.7378C217.09 33.4704 217.14 33.2866 217.14 33.1863C217.14 33.086 217.056 32.7017 216.889 32.0332C216.723 31.3314 216.639 30.9136 216.639 30.7799C216.639 29.677 216.739 28.2064 216.939 26.3682C217.04 26.2011 217.106 26.0507 217.14 25.917C216.939 25.2486 216.906 24.0788 217.04 22.4077C217.073 21.9398 217.09 21.0207 217.09 19.6504C217.09 19.3831 217.09 18.9653 217.09 18.3971C217.123 17.8289 217.14 17.5281 217.14 17.4947V16.843C217.306 16.6759 217.44 16.5756 217.54 16.5422L217.84 16.7929C218.007 16.6258 218.257 16.5422 218.591 16.5422L218.841 16.7929C218.841 16.7929 218.858 16.7093 218.891 16.5422C218.924 16.4754 219.008 16.4419 219.141 16.4419C219.241 16.4419 219.274 16.4586 219.241 16.4921C219.241 16.5255 219.291 16.5422 219.391 16.5422C219.458 16.5422 219.775 16.4085 220.342 16.1411C220.909 15.8403 221.276 15.6899 221.443 15.6899C221.543 15.6899 221.576 15.7401 221.543 15.8403C221.543 15.9072 221.593 15.9406 221.693 15.9406C221.96 15.9406 222.16 15.9907 222.293 16.091V16.6425ZM219.691 44.4662H219.491L219.341 44.8672L219.541 44.9174L219.691 44.4662ZM217.29 47.0731H217.09L216.939 47.7749H217.19L217.29 47.0731ZM217.44 53.9914H217.19L217.14 54.4426H217.34L217.44 53.9914ZM236.048 44.6166C236.048 44.8839 235.931 45.168 235.698 45.4688C233.797 46.271 232.529 46.789 231.895 47.0229C230.294 47.658 228.943 48.0925 227.842 48.3264C227.676 48.4267 227.592 48.5938 227.592 48.8277C227.559 48.9614 227.559 49.1787 227.592 49.4795C227.626 49.8137 227.642 50.0476 227.642 50.1813C227.642 51.585 228.043 52.8551 228.843 53.9914C229.777 55.2949 230.995 55.9466 232.496 55.9466C232.629 55.9466 233.33 55.462 234.597 54.4927C234.864 54.7601 234.981 55.0776 234.947 55.4453C234.747 55.8129 234.53 56.1805 234.297 56.5482C234.097 56.9158 233.813 57.0996 233.446 57.0996C233.313 57.0996 233.246 57.0829 233.246 57.0495C233.246 56.9827 233.196 56.9492 233.096 56.9492C232.929 56.9492 232.829 56.9994 232.796 57.0996C232.796 57.2333 232.763 57.3002 232.696 57.3002C232.662 57.3336 232.496 57.3837 232.195 57.4506C231.929 57.5174 231.728 57.5508 231.595 57.5508C231.328 57.5508 231.128 57.4004 230.995 57.0996C230.928 57.2333 230.794 57.4172 230.594 57.6511C230.528 57.6511 230.378 57.6344 230.144 57.601C229.944 57.5676 229.777 57.5508 229.644 57.5508C229.31 57.5508 229.043 57.3503 228.843 56.9492C228.81 57.0161 228.793 57.1498 228.793 57.3503C228.459 57.2835 227.992 57.1331 227.392 56.8991C227.059 56.732 226.258 55.98 224.99 54.6431C224.924 54.2755 224.757 53.8076 224.49 53.2394C224.257 53.0055 223.99 52.6545 223.689 52.1866C223.289 51.0169 223.089 49.5797 223.089 47.8752C223.089 43.9648 224.257 39.6367 226.592 34.8908C227.325 34.3895 228.293 33.9717 229.494 33.6375C230.694 33.2699 231.728 33.086 232.596 33.086C232.696 33.086 232.979 33.1529 233.446 33.2866C233.947 33.3868 234.297 33.4537 234.497 33.4871C234.697 33.721 234.964 34.189 235.298 34.8908C235.431 35.3253 235.531 37.2805 235.598 40.7564C235.598 41.1908 235.665 41.9261 235.798 42.9622C235.965 43.9983 236.048 44.5497 236.048 44.6166ZM232.496 39.7537C232.496 38.9516 232.262 37.598 231.795 35.6929C231.395 35.6261 231.078 35.7264 230.845 35.9937C230.478 36.4616 230.094 37.0298 229.694 37.6982C229.527 37.999 229.127 39.2524 228.493 41.4582C227.892 43.6641 227.592 44.884 227.592 45.1179C227.592 45.519 227.626 45.7529 227.692 45.8198H228.143C228.343 45.8198 229.027 45.6527 230.194 45.3184C230.494 45.2516 230.794 45.2015 231.095 45.168C231.428 45.1012 231.645 44.9675 231.745 44.767C231.745 44.2322 231.779 43.4802 231.845 42.511C231.845 42.4776 231.945 42.4107 232.145 42.3105C232.112 42.0431 232.095 41.6253 232.095 41.0571C232.129 40.9235 232.195 40.7062 232.296 40.4054C232.429 40.0712 232.496 39.854 232.496 39.7537ZM249.925 44.6166C249.925 44.8839 249.808 45.168 249.575 45.4688C247.674 46.271 246.406 46.789 245.772 47.0229C244.171 47.658 242.82 48.0925 241.719 48.3264C241.553 48.4267 241.469 48.5938 241.469 48.8277C241.436 48.9614 241.436 49.1787 241.469 49.4795C241.502 49.8137 241.519 50.0476 241.519 50.1813C241.519 51.585 241.919 52.8551 242.72 53.9914C243.654 55.2949 244.872 55.9466 246.373 55.9466C246.506 55.9466 247.207 55.462 248.474 54.4927C248.741 54.7601 248.858 55.0776 248.824 55.4453C248.624 55.8129 248.407 56.1805 248.174 56.5482C247.974 56.9158 247.69 57.0996 247.323 57.0996C247.19 57.0996 247.123 57.0829 247.123 57.0495C247.123 56.9827 247.073 56.9492 246.973 56.9492C246.806 56.9492 246.706 56.9994 246.673 57.0996C246.673 57.2333 246.639 57.3002 246.573 57.3002C246.539 57.3336 246.373 57.3837 246.072 57.4506C245.806 57.5174 245.605 57.5508 245.472 57.5508C245.205 57.5508 245.005 57.4004 244.872 57.0996C244.805 57.2333 244.671 57.4172 244.471 57.6511C244.405 57.6511 244.254 57.6344 244.021 57.601C243.821 57.5676 243.654 57.5508 243.521 57.5508C243.187 57.5508 242.92 57.3503 242.72 56.9492C242.687 57.0161 242.67 57.1498 242.67 57.3503C242.336 57.2835 241.869 57.1331 241.269 56.8991C240.935 56.732 240.135 55.98 238.867 54.6431C238.801 54.2755 238.634 53.8076 238.367 53.2394C238.133 53.0055 237.867 52.6545 237.566 52.1866C237.166 51.0169 236.966 49.5797 236.966 47.8752C236.966 43.9648 238.133 39.6367 240.468 34.8908C241.202 34.3895 242.17 33.9717 243.37 33.6375C244.571 33.2699 245.605 33.086 246.473 33.086C246.573 33.086 246.856 33.1529 247.323 33.2866C247.824 33.3868 248.174 33.4537 248.374 33.4871C248.574 33.721 248.841 34.189 249.175 34.8908C249.308 35.3253 249.408 37.2805 249.475 40.7564C249.475 41.1908 249.542 41.9261 249.675 42.9622C249.842 43.9983 249.925 44.5497 249.925 44.6166ZM246.373 39.7537C246.373 38.9516 246.139 37.598 245.672 35.6929C245.272 35.6261 244.955 35.7264 244.721 35.9937C244.355 36.4616 243.971 37.0298 243.571 37.6982C243.404 37.999 243.004 39.2524 242.37 41.4582C241.769 43.6641 241.469 44.884 241.469 45.1179C241.469 45.519 241.502 45.7529 241.569 45.8198H242.02C242.22 45.8198 242.903 45.6527 244.071 45.3184C244.371 45.2516 244.671 45.2015 244.972 45.168C245.305 45.1012 245.522 44.9675 245.622 44.767C245.622 44.2322 245.655 43.4802 245.722 42.511C245.722 42.4776 245.822 42.4107 246.022 42.3105C245.989 42.0431 245.972 41.6253 245.972 41.0571C246.006 40.9235 246.072 40.7062 246.172 40.4054C246.306 40.0712 246.373 39.854 246.373 39.7537ZM265.153 33.437C264.919 33.8046 264.553 34.072 264.052 34.2391C263.885 34.4396 263.635 34.707 263.302 35.0412C262.835 35.2752 261.967 35.5258 260.7 35.7932C259.732 35.9937 258.748 36.1776 257.748 36.3447C257.514 38.2831 257.464 39.9041 257.598 41.2075C257.698 42.1434 257.748 42.628 257.748 42.6614C257.748 42.4943 257.698 42.2436 257.598 41.9094H257.498C257.464 42.1099 257.481 42.394 257.548 42.7617C257.648 43.1293 257.698 43.3298 257.698 43.3633C257.731 43.6641 257.664 44.2155 257.498 45.0176C257.364 45.92 257.297 46.4715 257.297 46.672C257.264 47.3405 257.297 48.0757 257.397 48.8779C257.498 49.6466 257.548 50.1479 257.548 50.3818C257.548 50.7495 257.498 51.1171 257.397 51.4848C257.498 51.6185 257.581 52.2535 257.648 53.3898C257.648 53.323 257.631 54.4259 257.598 56.6986C257.598 57.3002 257.598 57.9686 257.598 58.7039C257.631 59.4392 257.714 60.4251 257.848 61.6617C258.015 63.1323 258.215 64.0514 258.448 64.419C258.482 64.4859 258.398 64.6363 258.198 64.8702C258.231 65.2044 258.248 65.6389 258.248 66.1737C257.848 66.2405 257.398 65.9397 256.897 65.2713C256.43 64.6363 256.147 64.0681 256.047 63.5668C256.08 63.3662 256.063 63.0654 255.997 62.6644C255.796 62.397 255.58 61.9458 255.346 61.3108C254.712 58.5702 254.279 55.9299 254.045 53.3898C254.012 51.9193 253.928 49.8137 253.795 47.0731C253.728 46.4381 253.762 44.0651 253.895 39.9542C253.828 39.6869 253.745 39.3025 253.645 38.8012C253.812 38.233 253.845 37.4309 253.745 36.3948C253.712 36.328 252.778 35.6762 250.943 34.4396C250.943 34.3393 250.81 34.0218 250.543 33.4871C251.243 33.3868 252.227 33.3367 253.495 33.3367C253.528 33.3367 253.578 33.2699 253.645 33.1362C253.645 33.0025 253.595 32.568 253.495 31.8327C253.428 31.0974 253.411 30.6128 253.445 30.3789C253.545 30.0446 253.645 29.6102 253.745 29.0754C253.812 26.034 253.828 24.2125 253.795 23.6109C254.095 23.6109 254.596 23.5608 255.296 23.4605C256.03 23.3268 256.413 23.26 256.447 23.26C257.014 23.26 257.498 23.3937 257.898 23.6611C258.298 23.895 258.498 24.1958 258.498 24.5635C258.398 24.8642 258.298 25.2653 258.198 25.7666C258.131 26.2345 258.065 26.9698 257.998 27.9725C257.965 28.3401 257.931 28.8247 257.898 29.4263C257.865 31.298 257.965 32.5011 258.198 33.0359L262.001 33.1362C261.734 33.1362 262.785 33.2364 265.153 33.437ZM256.097 61.7119H255.896L255.846 62.4137H256.097V61.7119ZM256.597 63.3161L256.447 63.1657L256.097 63.4665L256.247 63.6169L256.597 63.3161Z" fill="white"/>
    <path d="M33.9699 46.4888C35.1526 47.7929 35.6947 49.2444 35.6947 51.0652V52.1232L34.4996 52.689C33.3169 53.2426 28.9556 55.1125 28.857 55.1125C28.8324 55.1125 29.1034 54.4853 29.473 53.7225C29.8303 52.972 30.3847 51.5942 30.705 50.684C31.2841 48.9865 32.1218 45.9107 32.1218 45.4431C32.1218 45.308 32.1588 45.1479 32.1957 45.1111C32.319 44.9882 33.3292 45.7633 33.9699 46.4888Z" fill="white"/>
    <path d="M29.4085 44.8897C29.4085 45.5542 29.3223 46.5877 29.2237 47.1904C29.002 48.4203 28.3367 50.4995 27.8808 51.3851L27.5728 51.9759L27.5605 47.8176V43.6719H28.4845H29.4085V44.8897Z" fill="white"/>
    <path d="M16.4123 42.4415C18.4328 42.5646 20.0097 42.6507 22.7941 42.7737L24.6052 42.8475V48.1745V53.4887L24.2109 53.3904C23.9891 53.329 23.5703 53.2303 23.2992 53.1566C22.3998 52.9228 20.6258 52.8614 19.3568 53.0215C18.3589 53.1444 16.4739 53.6119 15.5868 53.944C15.4143 54.0054 15.439 53.9071 15.6854 53.2672C16.4739 51.3236 16.2275 48.5803 15.0571 46.255C14.4903 45.1356 13.6649 44.0776 12.5561 43.0444L11.6074 42.1709L13.0858 42.2447C13.899 42.2939 15.402 42.38 16.4123 42.4415Z" fill="white"/>
    <path d="M17.0895 26.2643C18.2107 26.3627 19.3195 26.4734 19.5536 26.5103C19.9725 26.5596 20.8472 26.6333 22.5104 26.7564C26.3173 27.0393 36.1241 27.8759 36.6908 27.962C36.9496 27.9989 36.9989 28.0973 37.0728 28.614C37.1097 28.9461 37.2083 29.5982 37.2822 30.0779C37.3561 30.5454 37.4177 31.9109 37.4177 33.1165C37.4177 36.5119 36.9619 38.6648 35.7545 40.9284C35.4465 41.5065 35.2001 41.9986 35.2001 42.0109C35.2001 42.0355 35.4588 41.974 35.7792 41.8756C36.0871 41.7772 36.5553 41.7034 36.8264 41.7034H37.2945V43.1919C37.2945 44.8772 37.3685 44.8158 36.3705 43.9056C31.6766 39.7351 21.1305 37.7421 13.5537 39.5998C13.0609 39.7228 12.6543 39.7966 12.6543 39.772C12.6543 39.7369 12.8764 39.4136 13.1518 39.0126L13.1964 38.9477C13.9479 37.9144 14.8103 36.069 15.1306 34.8757C15.4509 33.6578 15.5742 31.5173 15.377 30.4716C15.143 29.2414 14.6625 27.9251 14.0711 26.8917L13.529 25.9321L14.2929 26.006C14.7117 26.0428 15.9684 26.1659 17.0895 26.2643Z" fill="white"/>
    <path d="M23.0032 11.9329C26.3049 12.2773 31.1468 12.8924 31.2453 12.9908C31.2822 13.0277 31.3069 13.8766 31.3069 14.8607C31.2946 16.2878 31.233 16.8783 31.0235 17.6533C30.7032 18.8712 29.7299 20.8518 28.9907 21.8237C28.6827 22.2297 28.4486 22.5741 28.4733 22.5987C28.4979 22.6233 29.1139 22.5618 29.8531 22.4511C30.5923 22.3527 31.886 22.2174 32.736 22.1436L34.2761 22.0206L34.8674 22.648C35.4218 23.2385 36.3089 24.7639 36.3089 25.133C36.3089 25.2314 35.8284 25.0592 34.9906 24.6409C31.1714 22.7709 26.0339 22.3896 21.0935 23.6198C20.2804 23.8166 19.5782 23.9889 19.5288 23.9889C19.4919 23.9889 19.689 23.5829 19.997 23.0908C21.8081 20.0768 22.0298 16.4477 20.6007 13.4706C20.3789 12.9908 19.9724 12.3634 19.726 12.0682L19.2578 11.5269L19.8615 11.6007C20.2065 11.6499 21.6109 11.7975 23.0032 11.9329Z" fill="white"/>
    <path d="M35.815 7.56576C37.3427 7.73797 39.203 7.95944 39.9423 8.05783C40.6938 8.15626 42.2461 8.36536 43.3919 8.51301L45.4862 8.78365L46.3608 9.65712C47.9505 11.2564 48.9607 13.0033 49.5028 15.07C49.8722 16.4847 49.9094 19.142 49.5642 20.4214C49.33 21.2948 48.6405 22.8819 48.5049 22.8819C48.4553 22.8819 48.1474 22.6727 47.8272 22.4021C46.1639 21.0242 42.7019 19.7448 39.8806 19.4619C38.624 19.3389 34.9526 19.3511 33.967 19.4865C33.1908 19.5849 33.1785 19.5849 33.3633 19.3634C33.8191 18.8345 34.4229 17.1983 34.7185 15.6605C34.9033 14.6886 34.8048 12.4989 34.5337 11.5024C34.2257 10.4198 33.4865 8.90669 32.8336 8.02094C32.5009 7.59037 32.2422 7.2213 32.2422 7.18441C32.2422 7.14747 32.427 7.1598 32.6488 7.19669C32.842 7.23077 34.0742 7.3696 35.4639 7.5262L35.815 7.56576Z" fill="white"/>
    <path d="M29.4117 7.79962V10.5676L28.5247 10.543L27.6253 10.5184L27.613 9.65723C27.6007 8.82069 27.5884 8.79608 27.1325 8.42701C26.689 8.07026 26.652 8.05794 25.4693 8.09483C24.4837 8.11944 24.1141 8.07027 23.572 7.8734C22.7589 7.56587 21.8841 6.6678 21.6131 5.84359L21.416 5.28998L21.8225 5.59751C22.6973 6.26183 23.8307 6.43409 25.0997 6.08962C25.9621 5.85587 26.418 5.85587 27.0586 6.08962L27.5638 6.26183V5.65905V5.04395H28.4878H29.4117V7.79962Z" fill="white"/>
    <path d="M41.6061 3.05091V6.10181L40.9039 6.01571C40.5097 5.96649 40.0908 5.91727 39.9799 5.91727C39.7951 5.90499 39.7581 5.78195 39.7581 5.00692V4.10889L39.1052 3.89975C38.6616 3.75213 38.0826 3.70291 37.2325 3.71521C36.1237 3.72751 35.9389 3.70292 35.3722 3.40767C34.6576 3.05091 33.9677 2.31278 33.5241 1.45164C33.1423 0.701208 33.1545 0.615103 33.5734 1.02107C34.0539 1.47625 35.0642 1.84531 35.828 1.84531C36.173 1.84531 36.8382 1.72229 37.3187 1.58696C38.1565 1.32862 39.0066 1.31632 39.5487 1.53775C39.7335 1.61157 39.7581 1.53775 39.7581 0.81193V0H40.6821H41.6061V3.05091Z" fill="white"/>
    <path d="M41.6304 24.2348C44.957 24.9237 48.3942 26.1416 51.77 27.8393C55.3796 29.6477 59.519 32.957 62.1311 36.1309C62.7101 36.8321 63.1782 37.4349 63.1536 37.4472C63.129 37.4718 62.5869 37.8286 61.9465 38.2346L60.788 38.985L60.4064 38.6159C59.8519 38.0746 58.0531 36.992 56.6731 36.3646C54.6527 35.4666 52.7556 34.9622 50.0944 34.63C49.2566 34.5316 48.5543 34.4455 48.542 34.4455C48.5174 34.4455 48.5052 34.3225 48.5052 34.1626C48.5052 33.7812 48.0863 32.7232 47.4822 31.5545C46.201 29.0818 43.9591 26.7567 40.8172 24.6162C40.2012 24.1979 39.7454 23.8657 39.7947 23.8657C39.8316 23.8657 40.6571 24.0257 41.6304 24.2348Z" fill="white"/>
    <path d="M42.211 29.2544C44.133 31.7886 45.3648 34.4212 45.7591 36.7832L45.9565 38.0134H48.137C49.3445 38.0134 50.5026 38.0503 50.7118 38.0872L51.1061 38.1733L51.032 38.8623C50.9337 39.6865 50.564 40.8798 50.2315 41.4211L49.9972 41.827L49.5292 41.3842C47.7181 39.7111 44.7735 38.9361 41.2007 39.1944C40.326 39.2559 39.5868 39.2806 39.5622 39.2559C39.5375 39.2313 39.5622 39.1452 39.6238 39.0714C39.8825 38.7269 40.363 37.2138 40.5601 36.1066C40.979 33.7569 40.6217 29.3159 39.8209 27.0769C39.7223 26.7816 39.6361 26.511 39.6361 26.4741C39.6361 26.265 41.3732 28.1472 42.211 29.2544Z" fill="white"/>
    <path d="M41.2135 41.3342H41.731V43.7086V46.083L40.9055 46.4273C40.4373 46.6243 39.9938 46.7962 39.9199 46.8335C39.7967 46.8826 39.7598 46.2795 39.7598 44.0407V41.1743L40.2279 41.2604C40.4743 41.2974 40.9178 41.3342 41.2135 41.3342Z" fill="white"/>
    <path d="M69.1672 36.6845C69.4878 36.9797 69.5493 37.5949 69.3027 37.927C69.1426 38.1361 63.6605 41.7406 57.9932 45.382C54.7284 47.4857 54.9991 47.1783 54.8513 48.7775C54.7157 50.1799 54.6543 50.6352 54.4078 51.9761C53.8288 55.1624 52.991 57.7824 51.636 60.6121L50.8596 62.2482H49.6152H48.3589L48.7037 61.6578C50.2069 59.1356 51.4141 55.6664 52.1905 51.6686C52.4243 50.5119 52.9418 47.166 52.9418 46.8585C52.9418 46.7966 52.5352 46.7475 52.0299 46.7475C49.763 46.7475 45.8701 47.7687 41.8291 49.4048C40.7695 49.8355 39.8702 50.1922 39.8209 50.1922C39.7839 50.1922 39.7716 49.6632 39.7839 49.0113L39.8209 47.8424L40.8065 47.412C43.3814 46.2799 47.3114 44.964 49.3073 44.5578C50.6258 44.2872 51.6237 44.2626 52.794 44.4596C53.4222 44.5701 54.1367 44.7425 54.3709 44.8407L54.7898 45.0131L56.0834 44.1889C61.2331 40.9041 63.5372 39.4278 65.6318 38.0254C68.2434 36.2785 68.6005 36.1555 69.1672 36.6845Z" fill="#32D499"/>
    <path d="M46.4618 43.0574C46.9298 43.3649 47.3364 43.6725 47.3614 43.734C47.3737 43.8078 46.807 44.0661 46.0675 44.3367C45.3406 44.5951 44.6756 44.8411 44.6015 44.8657C44.4783 44.9148 44.4414 44.5828 44.4414 43.4388V41.9502L45.0327 42.2208C45.3529 42.3685 45.9938 42.7498 46.4618 43.0574Z" fill="white"/>
    <path d="M45.1938 51.0413C45.0583 51.226 44.4302 51.9023 43.8018 52.53C40.2905 56.0361 36.2865 58.3859 30.7548 60.194C28.7219 60.8585 25.9869 61.4244 23.6707 61.6459C20.7139 61.9411 16.0569 61.5226 13.5436 60.7475C13.1986 60.6493 13.0631 60.4646 12.5087 59.3821C11.9173 58.2012 9.33008 52.6529 9.33008 52.5669C9.33008 52.5423 9.87215 52.53 10.5374 52.53H11.7572L12.6935 54.4614C13.1986 55.5317 13.8762 56.934 14.1719 57.5863L14.714 58.7671L15.6257 58.9149C17.0794 59.1483 20.4798 59.3206 22.0198 59.2347C24.9766 59.0623 27.6378 58.5333 30.4591 57.574C32.5042 56.8726 34.0442 56.1835 37.4816 54.4614C40.6109 52.8989 45.1693 50.7092 45.3417 50.697C45.4035 50.6847 45.3294 50.8443 45.1938 51.0413Z" fill="#32D499"/>
    <path d="M47.5714 55.1249C46.8569 56.4167 45.3909 57.401 43.2224 58.0037C41.9658 58.348 41.6208 58.348 42.5448 57.9914C43.7522 57.5361 46.6968 55.5802 47.51 54.6946C47.9412 54.227 47.9658 54.3871 47.5714 55.1249Z" fill="#32D499"/>
    <path d="M12.8768 63.3552C13.4435 63.4908 14.5647 63.8719 15.3778 64.2163C17.0533 64.9054 18.2976 65.2006 19.5174 65.2006C20.6385 65.2006 21.5748 64.9668 23.3366 64.2408C25.7637 63.2447 26.047 63.1706 27.9936 63.1706C29.9401 63.1706 30.6054 63.3184 32.5644 64.2163C35.398 65.5204 37.0119 65.5204 40.1905 64.1917C42.519 63.2201 42.7284 63.1706 44.9954 63.1706H44.9985C46.9421 63.1828 46.9794 63.1833 48.1984 63.6259C48.8761 63.8597 49.8985 64.2654 50.478 64.4992C51.6483 64.9914 52.6953 65.2006 53.9889 65.2006C55.1223 65.2006 56.0343 64.9668 57.9191 64.2163C60.4325 63.2201 61.1962 63.06 63.3521 63.06C65.5944 63.0477 66.3831 63.2201 69.0812 64.2286C70.7195 64.8317 72.346 65.3234 73.1961 65.4712C73.3685 65.4958 73.1715 65.7664 72.3092 66.6766L71.2003 67.8456L69.8694 67.3903C69.1303 67.1442 67.8613 66.7139 67.0485 66.431C65.644 65.9511 65.4712 65.9143 63.7833 65.8524C61.566 65.7664 60.6295 65.9388 58.4121 66.8122C56.3299 67.6364 55.0855 67.907 53.4963 67.8456C51.9808 67.7965 51.057 67.5872 49.3073 66.8736C47.2127 66.0371 46.5723 65.8897 44.8107 65.8897C43.0611 65.877 42.5929 65.9879 40.5971 66.8736C37.825 68.104 35.3487 68.1776 32.7368 67.0951C28.9052 65.4958 27.4145 65.4344 24.2113 66.7262C22.314 67.5013 21.4639 67.7346 20.158 67.8456C18.8643 67.9561 17.4352 67.7223 15.735 67.1442C12.6427 66.0739 12.1745 65.9511 10.8316 65.8033C9.78442 65.6927 9.14379 65.6927 8.07192 65.8033C6.4457 65.9634 6.03913 66.0739 3.67367 66.935L1.91189 67.5872L0.926279 66.5661C0.384194 66.0125 -0.0346901 65.5326 0.00227026 65.4958C0.0269105 65.4589 0.630595 65.2866 1.33284 65.0901C2.03509 64.8931 3.00838 64.5856 3.47654 64.4009C5.36152 63.675 6.47031 63.3184 7.29579 63.1583C8.55241 62.9372 11.5708 63.0355 12.8768 63.3552Z" fill="white"/>
    <path d="M30.262 68.7068C30.7425 68.8051 31.7527 69.1376 32.4919 69.4451C34.4509 70.257 35.227 70.4044 36.9272 70.3307C38.4303 70.257 38.8245 70.1583 41.1283 69.2727C42.8285 68.6208 43.8881 68.4607 45.2307 68.6331C45.7975 68.7068 46.5493 68.8792 46.9186 68.9897L47.5595 69.2113L47.1406 69.4696C46.5124 69.8508 42.656 71.6593 41.6827 72.0159C40.2167 72.5695 38.6151 72.8279 36.7178 72.8279C35.7691 72.8279 34.6726 72.7665 34.2661 72.6928C32.4427 72.373 30.3606 71.5856 27.3791 70.0846L25.6543 69.2235L26.0855 69.0389C27.3052 68.5344 28.8698 68.4116 30.262 68.7068Z" fill="white"/>
    <path d="M14.072 68.8426C15.5257 69.0514 19.6776 70.0603 22.08 70.7985C26.6015 72.164 32.3057 74.6735 36.0387 76.925L37.1845 77.6137L37.8867 77.1461C39.5376 76.0512 44.0099 73.8124 47.1515 72.496C49.6153 71.4749 52.1287 70.6384 55.2826 69.8142C58.9663 68.8426 60.5436 68.6088 63.2294 68.5965C65.4836 68.5965 66.4078 68.6948 68.4036 69.1624L69.5125 69.4207L68.3545 70.5156C67.5781 71.2534 67.1346 71.5859 66.9991 71.5367C66.5679 71.3643 64.0177 71.2042 62.9211 71.2784C61.7753 71.3521 59.1514 71.721 58.178 71.9547C52.7573 73.2588 49.4925 74.4274 44.9955 76.7035C42.5561 77.9334 40.2399 79.3362 38.3549 80.7017L37.1352 81.5873L36.5685 81.1811C31.6897 77.7369 27.5625 75.6332 21.8336 73.7141C18.3717 72.5452 15.4888 71.8688 12.0392 71.3889C11.0412 71.2534 7.39448 71.2906 6.67988 71.4503L6.0639 71.5859L4.93045 70.4542C3.85859 69.3962 3.8093 69.322 4.06803 69.2238C4.33907 69.1255 6.50741 68.707 7.3575 68.5965C8.20758 68.4855 12.7414 68.6579 14.072 68.8426Z" fill="white"/>
</svg>
