<svg xmlns="http://www.w3.org/2000/svg" width="209" height="6" viewBox="0 0 209 6" fill="none">
    <path d="M46.7783 0.832768C53.6271 0.850919 87.237 1.87901 90.809 1.62276C99.9719 0.964374 112.163 1.26259 125.752 1.92507C138.325 2.53793 149.046 2.62065 157.735 2.1124C166.146 1.62062 177.021 1.71347 188.322 1.91463C191.657 1.9741 194.961 2.03153 198.326 2.10345C204.746 2.24088 209.459 2.97371 208.146 3.658C206.994 4.26214 203.754 4.63101 198.957 4.71577C192.396 4.83068 185.408 4.85467 178.36 4.85029C157.247 4.8357 136.012 4.79216 114.808 4.75411L66.6626 5.41586C55.6824 5.50445 44.9758 5.6634 34.422 5.84986C27.2414 5.97975 20.3108 5.60291 13.0855 4.53694C9.65645 4.03176 6.10433 3.51847 3.14068 2.98817C-0.586501 2.31683 -0.89164 1.78746 2.4628 1.54826C5.41344 1.33824 8.88573 1.18704 12.7214 1.15049C21.5369 1.07262 30.7177 1.08161 39.7769 1.05818C40.3334 1.05652 41.0733 1.08787 41.5385 1.06623C43.336 0.996421 45.042 0.910107 46.7783 0.832768Z" fill="#32D499" fill-opacity="0.8"/>
</svg>