<svg width="26" height="28" viewBox="0 0 26 28" fill="none" xmlns="http://www.w3.org/2000/svg">
<path d="M24.6375 11.825L23 11.275V5C23 4.46957 22.7893 3.96086 22.4142 3.58579C22.0391 3.21071 21.5304 3 21 3H14V1C14 0.734784 13.8946 0.48043 13.7071 0.292893C13.5196 0.105357 13.2652 0 13 0C12.7348 0 12.4804 0.105357 12.2929 0.292893C12.1054 0.48043 12 0.734784 12 1V3H5C4.46957 3 3.96086 3.21071 3.58579 3.58579C3.21072 3.96086 3 4.46957 3 5V11.275L1.3625 11.825C0.964796 11.9587 0.619224 12.2142 0.374703 12.5552C0.130182 12.8962 -0.00090182 13.3054 4.66996e-06 13.725V18C0.000131893 18.0929 0.0127446 18.1854 0.0375046 18.275C2 25.15 10.8 27.525 12.55 27.925C12.8463 27.9917 13.1537 27.9917 13.45 27.925C15.2 27.525 24 25.15 25.9625 18.275C25.9873 18.1854 25.9999 18.0929 26 18V13.725C26.0009 13.3054 25.8698 12.8962 25.6253 12.5552C25.3808 12.2142 25.0352 11.9587 24.6375 11.825ZM14 19C14 19.2652 13.8946 19.5196 13.7071 19.7071C13.5196 19.8946 13.2652 20 13 20C12.7348 20 12.4804 19.8946 12.2929 19.7071C12.1054 19.5196 12 19.2652 12 19V12.05C12 11.7848 12.1054 11.5304 12.2929 11.3429C12.4804 11.1554 12.7348 11.05 13 11.05C13.2652 11.05 13.5196 11.1554 13.7071 11.3429C13.8946 11.5304 14 11.7848 14 12.05V19ZM21 10.6125L13.6375 8.1625C13.2236 8.02521 12.7764 8.02521 12.3625 8.1625L5 10.6125V5H21V10.6125Z" fill="#80d5ad"/>
</svg>
