<svg xmlns="http://www.w3.org/2000/svg" width="9" height="11" viewBox="0 0 9 11" fill="none">
    <path fill-rule="evenodd" clip-rule="evenodd" d="M7.09567 1.42892C7.19864 1.43605 7.30141 1.44387 7.404 1.45238C8.10951 1.51094 8.62502 2.10962 8.62502 2.7996V7.21874C8.62502 7.97814 8.00941 8.59375 7.25002 8.59375V7.5625C7.25002 4.84828 5.15286 2.62389 2.49054 2.42129C2.63912 1.90266 3.08634 1.49987 3.65854 1.45238C3.76112 1.44387 3.8639 1.43605 3.96687 1.42892C4.196 0.988381 4.65662 0.6875 5.18752 0.6875H5.87502C6.40592 0.6875 6.86654 0.988381 7.09567 1.42892ZM4.50002 2.0625C4.50002 1.6828 4.80782 1.375 5.18752 1.375H5.87502C6.25471 1.375 6.56252 1.6828 6.56252 2.0625H4.50002Z" fill="#32D499"/>
    <path d="M0.375 3.95312C0.375 3.47851 0.759755 3.09375 1.23437 3.09375H1.40625C2.35549 3.09375 3.125 3.86326 3.125 4.8125V5.67188C3.125 6.14649 3.50976 6.53125 3.98437 6.53125H4.84375C5.79299 6.53125 6.5625 7.30076 6.5625 8.25V9.45312C6.5625 9.92774 6.17774 10.3125 5.70312 10.3125H1.23437C0.759755 10.3125 0.375 9.92774 0.375 9.45312V3.95312Z" fill="#32D499"/>
    <path d="M3.8125 4.8125C3.8125 4.21068 3.59157 3.66047 3.22638 3.23854C4.78422 3.64548 6.01077 4.87203 6.41771 6.42987C5.99578 6.06468 5.44557 5.84375 4.84375 5.84375H3.98437C3.88945 5.84375 3.8125 5.7668 3.8125 5.67188V4.8125Z" fill="#32D499"/>
</svg>