<svg xmlns="http://www.w3.org/2000/svg" width="25" height="19" viewBox="0 0 25 19" fill="none">
    <path d="M20.7797 1.93483C19.2592 1.23685 17.6299 0.722912 15.9254 0.428904C15.8941 0.423116 15.8629 0.437007 15.8478 0.465945C15.6384 0.838665 15.4058 1.32598 15.2438 1.70795C13.4108 1.43362 11.5871 1.43362 9.79119 1.70795C9.62803 1.31672 9.38733 0.838665 9.17672 0.465945C9.16052 0.438165 9.12929 0.424274 9.0992 0.428904C7.39584 0.722912 5.76539 1.23685 4.24487 1.93483C4.23214 1.94062 4.22056 1.94988 4.21246 1.96261C1.1205 6.5834 0.273427 11.0908 0.688852 15.5426C0.691166 15.5645 0.70274 15.5854 0.720098 15.5981C2.76019 17.0971 4.73667 18.0069 6.67609 18.61C6.70733 18.6192 6.73973 18.6076 6.7594 18.5822C7.21764 17.956 7.62728 17.295 7.97791 16.5994C7.99874 16.5589 7.9779 16.5102 7.93624 16.494C7.28706 16.2475 6.67028 15.9477 6.07549 15.6074C6.02805 15.5796 6.0246 15.5125 6.06741 15.48C6.19239 15.3863 6.31736 15.2891 6.43655 15.1907C6.45853 15.1721 6.48861 15.1687 6.51407 15.1803C10.4172 16.9628 14.6432 16.9628 18.5001 15.1803C18.5255 15.1675 18.5556 15.1722 18.5776 15.1895C18.6968 15.2879 18.8217 15.3863 18.9479 15.48C18.9907 15.5125 18.9884 15.5796 18.941 15.6074C18.3473 15.9546 17.7294 16.2486 17.0791 16.494C17.0362 16.5102 17.0177 16.5589 17.0385 16.6005C17.3973 17.2939 17.8058 17.9548 18.2559 18.5822C18.2744 18.6088 18.308 18.6204 18.3392 18.6111C20.2879 18.0081 22.2643 17.0983 24.3044 15.5993C24.3218 15.5865 24.3334 15.5657 24.3357 15.5449C24.8333 10.3986 23.5025 5.92825 20.8098 1.96493C20.8028 1.95219 20.7924 1.94178 20.7785 1.93599L20.7797 1.93483ZM8.55878 12.8317C7.3831 12.8317 6.41572 11.7529 6.41572 10.4275C6.41572 9.10215 7.36574 8.02335 8.55878 8.02335C9.75183 8.02335 10.7215 9.11257 10.7019 10.4275C10.7019 11.7529 9.75183 12.8317 8.55878 12.8317ZM16.4843 12.8317C15.3086 12.8317 14.3412 11.7529 14.3412 10.4275C14.3412 9.10215 15.2912 8.02335 16.4843 8.02335C17.6773 8.02335 18.647 9.11257 18.6273 10.4275C18.6273 11.7529 17.6877 12.8317 16.4843 12.8317Z" fill="#5765F0"/>
</svg>