<svg width="595" height="173" viewBox="0 0 595 173" fill="none" xmlns="http://www.w3.org/2000/svg">
    <path d="M265.662 132.651C279.61 132.368 348.151 132.396 355.401 131.849C373.998 130.445 398.853 130.342 426.588 130.724C452.249 131.078 474.09 130.718 491.737 129.561C508.817 128.441 530.972 128.089 554.005 127.881C560.802 127.82 567.535 127.757 574.394 127.713C587.483 127.63 597.148 128.519 594.54 129.607C592.25 130.568 585.688 131.269 575.927 131.613C562.576 132.082 548.348 132.434 533.995 132.746C490.999 133.678 447.752 134.572 404.568 135.473L306.587 138.644C284.236 139.274 262.448 139.996 240.973 140.754C226.363 141.274 212.214 141.02 197.399 139.744C190.369 139.139 183.087 138.527 177.001 137.864C169.348 137.023 168.676 136.24 175.485 135.729C181.474 135.28 188.53 134.896 196.338 134.667C214.283 134.152 232.979 133.751 251.425 133.306C252.559 133.278 254.068 133.292 255.013 133.238C258.667 133.052 262.133 132.845 265.662 132.651Z" fill="#32D499" fill-opacity="0.8"/>
    <path d="M237.938 91.7751C237.938 95.5284 236.878 98.7151 234.757 101.335C233.344 103.035 230.799 105.018 227.124 107.284C222.883 109.975 219.985 112.029 218.43 113.445C218.289 113.587 216.345 114.401 212.599 115.888L211.857 115.145C211.716 115.286 211.716 115.534 211.857 115.888C211.999 116.313 212.069 116.526 212.069 116.526C210.302 117.659 207.51 119.146 203.694 120.987C202.634 121.199 201.255 121.554 199.559 122.049C197.933 122.545 196.025 123.466 193.834 124.811C193.551 124.882 192.597 125.201 190.972 125.767C189.699 126.192 188.851 126.404 188.427 126.404C186.943 126.404 185.989 126.546 185.565 126.829C185.423 126.404 185.176 125.767 184.822 124.917C184.61 125.271 184.257 125.767 183.762 126.404C182.49 126.192 181.43 125.448 180.582 124.174C179.734 122.899 178.85 122.262 177.931 122.262C178.073 121.908 178.179 121.589 178.249 121.306C178.391 120.952 178.285 120.775 177.931 120.775C177.578 120.775 177.295 120.845 177.083 120.987C176.942 121.129 176.73 121.199 176.447 121.199C175.882 121.199 175.316 120.987 174.751 120.562C174.751 120.35 174.468 119.819 173.903 118.969C173.337 118.119 173.054 117.517 173.054 117.163C173.054 116.88 173.196 116.419 173.478 115.782C173.761 115.074 173.938 114.543 174.009 114.189C174.362 112.206 174.539 109.586 174.539 106.328C174.539 106.115 174.362 104.664 174.009 101.973C173.726 99.2817 173.549 97.4759 173.478 96.5552C173.478 96.2012 173.655 94.537 174.009 91.5627C173.797 90.9961 173.62 90.0401 173.478 88.6946C172.489 87.7032 170.969 86.3222 168.92 84.5518C168.849 84.1269 169.096 83.3833 169.662 82.3211C168.248 81.6837 167.612 80.8339 167.753 79.7717C167.895 78.0721 167.895 77.0807 167.753 76.7974C168.672 76.3725 169.803 75.6289 171.146 74.5667C172.136 73.3628 172.63 72.1235 172.63 70.8488V61.6072C172.63 61.3948 172.489 60.6866 172.206 59.4827C171.994 58.208 171.888 57.2874 171.888 56.7209C171.747 56.65 171.429 56.4376 170.934 56.0835C169.874 56.8625 168.39 58.2434 166.481 60.2263C166.057 59.943 165.421 59.8014 164.573 59.8014H163.301C163.018 58.5267 161.887 56.8979 159.908 54.915C157.152 52.1532 155.526 50.4536 155.031 49.8162C155.385 49.4621 155.915 49.2851 156.622 49.2851C157.046 48.8602 157.081 48.5415 156.728 48.3291C156.657 47.975 156.904 47.798 157.47 47.798C157.823 47.798 158.07 47.6563 158.212 47.3731C158.353 47.019 158.459 46.8419 158.53 46.8419C159.519 46.417 161.251 45.7797 163.725 44.9299C165.986 44.2217 169.308 43.6198 173.691 43.1241C177.083 42.6992 179.309 42.4867 180.37 42.4867C180.582 42.4867 181.854 42.6283 184.186 42.9116C186.589 43.1949 188.215 43.3719 189.063 43.4427C189.487 43.6552 189.876 44.2217 190.229 45.1423C190.795 45.1423 191.078 44.6466 191.078 43.6552C194.046 44.4342 197.015 45.2131 199.983 45.9921C203.446 46.9836 206.521 48.6123 209.207 50.8785C209.136 50.8785 209.03 51.0201 208.889 51.3034C209.03 51.3742 209.454 51.8345 210.161 52.6843C210.656 53.18 211.044 53.4279 211.327 53.4279C211.68 53.4279 211.928 53.3925 212.069 53.3217C212.211 53.18 212.317 53.1092 212.387 53.1092C212.458 53.3217 212.529 54.1715 212.599 55.6586C212.67 56.65 212.882 57.1458 213.235 57.1458C213.589 57.1458 213.766 56.9687 213.766 56.6146C213.766 56.6854 213.836 56.9687 213.978 57.4644C214.19 57.8893 214.296 58.2434 214.296 58.5267C214.296 60.0138 213.518 62.1383 211.963 64.9002C210.338 67.8745 208.818 69.3616 207.404 69.3616C207.192 69.3616 206.945 69.3262 206.662 69.2554C206.238 70.3885 205.284 71.6632 203.8 73.0795C202.386 74.4958 201.326 75.204 200.619 75.204L199.877 74.8853C199.665 74.8853 199.1 75.3456 198.181 76.2663C198.181 76.6912 198.499 77.2223 199.135 77.8596C199.842 77.3639 202.21 77.1161 206.238 77.1161C205.955 77.1161 207.086 77.2931 209.631 77.6472C209.631 77.8596 209.737 78.1783 209.949 78.6032C210.161 78.3908 210.267 78.1783 210.267 77.9659C216.699 78.3908 222.247 79.3468 226.912 80.8339C234.262 83.3833 237.938 87.0304 237.938 91.7751ZM210.691 53.6403L210.161 53.4279L209.737 54.3839L210.267 54.5964L210.691 53.6403ZM204.436 56.7209C204.719 55.7294 204.613 54.7734 204.118 53.8528C204.047 53.8528 203.976 53.9236 203.906 54.0652C203.835 54.136 203.623 54.1715 203.27 54.1715C202.704 54.1715 202.457 53.959 202.528 53.5341C198.852 53.5341 196.52 52.9322 195.53 51.7283C195.813 51.5158 195.848 51.3388 195.636 51.1972C195.495 51.6221 195.248 52.1178 194.894 52.6843C193.41 52.401 191.007 52.2594 187.685 52.2594C186.483 52.401 184.928 52.6135 183.02 52.8968C181.182 53.1092 179.663 53.2862 178.461 53.4279C178.108 53.4279 177.684 53.3217 177.189 53.1092C176.765 52.8259 176.553 52.6843 176.553 52.6843C175.776 53.8174 175.387 54.9504 175.387 56.0835C175.882 55.5878 176.588 55.3399 177.507 55.3399C177.861 55.3399 178.391 55.5878 179.097 56.0835C179.875 56.5792 180.405 56.8271 180.688 56.8271C180.9 56.8271 181.288 56.7563 181.854 56.6146C182.207 56.5438 182.525 56.5792 182.808 56.7209C182.313 57.429 181.854 58.6683 181.43 60.4387C181.995 61.4302 182.137 62.3862 181.854 63.3068C181.501 64.8648 181.324 65.5375 181.324 65.3251L181.642 65.75C181.642 66.0332 181.677 66.5998 181.748 67.4496C181.889 68.2994 181.96 68.9367 181.96 69.3616C181.748 69.5741 181.571 69.8219 181.43 70.1052C181.783 71.5215 181.889 72.5838 181.748 73.292C181.819 73.292 182.031 73.3628 182.384 73.5044C182.808 73.646 183.197 73.7169 183.55 73.7169C185.176 73.7169 185.918 72.9733 185.777 71.4861C186.201 71.557 186.731 71.5215 187.367 71.3799C188.003 71.1675 188.427 71.0612 188.639 71.0612C188.922 71.0612 189.205 70.8842 189.487 70.5301C189.841 70.176 190.053 70.0344 190.123 70.1052C191.113 68.7597 193.092 67.2017 196.06 65.4313C196.343 65.7146 196.484 65.9624 196.484 66.1749C196.626 65.6792 196.979 64.9356 197.545 63.9442C197.686 64.2982 197.969 64.794 198.393 65.4313L199.347 64.5815C199.347 64.3691 199.206 64.1566 198.923 63.9442C198.64 63.6609 198.499 63.3776 198.499 63.0944C199.064 62.9527 199.842 62.7049 200.831 62.3508C200.831 61.7843 201.149 61.1823 201.785 60.545C202.139 60.1201 202.492 59.7306 202.846 59.3765C203.34 58.6683 203.482 57.9601 203.27 57.252C203.623 57.1812 204.012 57.0041 204.436 56.7209ZM194.788 68.7243C194.364 67.8745 194.364 67.1663 194.788 66.5998C194.718 66.6706 194.223 67.5204 193.304 69.1492C194.011 69.1492 194.505 69.0076 194.788 68.7243ZM234.227 89.0133C234.227 87.951 232.531 86.6409 229.138 85.0829C226.099 83.6666 224.12 82.9938 223.201 83.0647C222.636 82.6398 222.353 82.2149 222.353 81.79C222.353 82.2149 222.106 82.4273 221.611 82.4273C221.045 82.4273 220.869 82.3565 221.081 82.2149C221.293 82.2149 221.399 81.8962 221.399 81.2588C220.692 82.0378 220.091 82.4273 219.597 82.4273C219.314 82.4273 218.925 82.3211 218.43 82.1086C218.006 81.8254 217.653 81.6837 217.37 81.6837C217.017 81.6837 216.911 81.8254 217.052 82.1086C217.193 82.3211 217.087 82.4273 216.734 82.4273C216.381 82.4273 212.599 82.0732 205.39 81.3651C205.39 81.5775 205.319 81.79 205.178 82.0024C204.683 81.0818 204.259 80.6215 203.906 80.6215C203.906 81.4713 203.658 82.0732 203.164 82.4273C202.81 82.4273 202.386 82.3211 201.891 82.1086C201.397 81.8254 200.973 81.6837 200.619 81.6837C200.337 81.6837 199.594 82.0024 198.393 82.6398C197.262 83.2063 196.555 83.4896 196.272 83.4896C195.99 83.4896 195.848 83.4542 195.848 83.3833C195.848 83.2417 195.672 83.1709 195.318 83.1709C195.106 83.1709 194.647 83.525 193.94 84.2331C193.516 83.8791 192.986 83.3833 192.35 82.746C191.855 83.8791 191.078 84.6226 190.017 84.9767C187.897 85.4016 184.893 86.3222 181.006 87.7386C181.006 89.9339 180.864 93.5809 180.582 98.6797C180.37 103.495 180.264 107.178 180.264 109.727C180.264 112.206 179.981 114.082 179.416 115.357C179.769 115.499 180.334 115.888 181.112 116.526C181.889 117.092 182.455 117.375 182.808 117.375C183.091 117.375 183.55 117.198 184.186 116.844C184.893 116.419 185.353 116.207 185.565 116.207C185.847 116.207 186.271 116.278 186.837 116.419C187.473 116.561 187.932 116.632 188.215 116.632C189.417 116.632 191.466 116.065 194.364 114.932C197.333 113.799 198.746 113.233 198.605 113.233C198.888 113.233 199.064 113.303 199.135 113.445C199.206 113.587 199.382 113.657 199.665 113.657C200.018 113.657 200.443 113.339 200.937 112.701C201.432 112.064 201.75 111.745 201.891 111.745C202.245 111.745 202.386 111.816 202.316 111.958C202.245 112.1 202.386 112.17 202.74 112.17C202.952 112.17 205.319 111.037 209.843 108.771C214.366 106.434 217.653 104.664 219.703 103.46L219.915 103.035C220.268 103.035 220.445 103.106 220.445 103.247C220.445 103.389 220.586 103.46 220.869 103.46C221.081 103.46 222.353 102.433 224.685 100.379C227.089 98.2548 228.714 96.7677 229.562 95.9179C230.057 96.4136 230.587 96.6615 231.153 96.6615C231.365 95.8825 231.965 94.3953 232.955 92.2C233.803 90.3588 234.227 89.2965 234.227 89.0133ZM176.341 107.496C176.341 106.08 176.341 105.372 176.341 105.372C176.058 105.372 175.705 105.549 175.281 105.903C175.846 106.965 176.2 107.496 176.341 107.496ZM263.686 94.537C263.686 95.1035 263.439 95.7054 262.944 96.3428C258.915 98.0424 256.229 99.14 254.887 99.6358C251.494 100.981 248.631 101.902 246.299 102.398C245.946 102.61 245.769 102.964 245.769 103.46C245.698 103.743 245.698 104.203 245.769 104.841C245.84 105.549 245.875 106.045 245.875 106.328C245.875 109.302 246.723 111.993 248.419 114.401C250.398 117.163 252.978 118.544 256.159 118.544C256.441 118.544 257.926 117.517 260.612 115.463C261.177 116.03 261.424 116.703 261.354 117.482C260.93 118.261 260.47 119.04 259.975 119.819C259.551 120.598 258.951 120.987 258.173 120.987C257.89 120.987 257.749 120.952 257.749 120.881C257.749 120.739 257.643 120.668 257.431 120.668C257.078 120.668 256.866 120.775 256.795 120.987C256.795 121.27 256.724 121.412 256.583 121.412C256.512 121.483 256.159 121.589 255.523 121.731C254.957 121.872 254.533 121.943 254.25 121.943C253.685 121.943 253.261 121.624 252.978 120.987C252.837 121.27 252.554 121.66 252.13 122.155C251.989 122.155 251.671 122.12 251.176 122.049C250.752 121.978 250.398 121.943 250.116 121.943C249.409 121.943 248.843 121.518 248.419 120.668C248.349 120.81 248.313 121.093 248.313 121.518C247.607 121.376 246.617 121.058 245.345 120.562C244.638 120.208 242.942 118.615 240.256 115.782C240.115 115.003 239.761 114.012 239.196 112.808C238.701 112.312 238.136 111.568 237.5 110.577C236.652 108.098 236.227 105.053 236.227 101.442C236.227 93.156 238.701 83.9853 243.649 73.9293C245.204 72.8671 247.253 71.9819 249.798 71.2737C252.342 70.4947 254.533 70.1052 256.371 70.1052C256.583 70.1052 257.184 70.2468 258.173 70.5301C259.233 70.7426 259.975 70.8842 260.399 70.955C260.824 71.4507 261.389 72.4422 262.096 73.9293C262.379 74.8499 262.591 78.9927 262.732 86.3576C262.732 87.2783 262.873 88.8362 263.156 91.0315C263.509 93.2269 263.686 94.3953 263.686 94.537ZM256.159 84.2331C256.159 82.5335 255.664 79.6655 254.674 75.6289C253.826 75.4873 253.155 75.6997 252.66 76.2663C251.883 77.2577 251.07 78.4616 250.222 79.8779C249.868 80.5153 249.02 83.1709 247.677 87.8448C246.405 92.5187 245.769 95.1035 245.769 95.5992C245.769 96.449 245.84 96.9447 245.981 97.0864H246.935C247.359 97.0864 248.808 96.7323 251.282 96.0241C251.918 95.8825 252.554 95.7763 253.19 95.7054C253.897 95.5638 254.356 95.2805 254.568 94.8556C254.568 93.7226 254.639 92.1292 254.781 90.0755C254.781 90.0047 254.993 89.8631 255.417 89.6506C255.346 89.0841 255.311 88.1989 255.311 86.995C255.381 86.7117 255.523 86.2514 255.735 85.6141C256.017 84.9059 256.159 84.4456 256.159 84.2331ZM295.952 70.8488C295.457 71.6278 294.68 72.1943 293.62 72.5484C293.266 72.9733 292.736 73.5398 292.029 74.248C291.04 74.7437 289.202 75.2748 286.516 75.8414C284.467 76.2663 282.382 76.6558 280.261 77.0098C279.766 81.1172 279.66 84.5518 279.943 87.3137C280.155 89.2965 280.261 90.3234 280.261 90.3942C280.261 90.0401 280.155 89.509 279.943 88.8008H279.731C279.66 89.2257 279.696 89.8277 279.837 90.6066C280.049 91.3856 280.155 91.8105 280.155 91.8813C280.226 92.5187 280.085 93.6872 279.731 95.3868C279.448 97.2988 279.307 98.4673 279.307 98.8922C279.236 100.309 279.307 101.866 279.519 103.566C279.731 105.195 279.837 106.257 279.837 106.753C279.837 107.532 279.731 108.311 279.519 109.09C279.731 109.373 279.908 110.719 280.049 113.126C280.049 112.985 280.014 115.322 279.943 120.137C279.943 121.412 279.943 122.828 279.943 124.386C280.014 125.944 280.191 128.033 280.473 130.653C280.827 133.769 281.251 135.717 281.745 136.496C281.816 136.637 281.639 136.956 281.215 137.452C281.286 138.16 281.321 139.081 281.321 140.214C280.473 140.355 279.519 139.718 278.459 138.302C277.469 136.956 276.869 135.752 276.657 134.69C276.727 134.265 276.692 133.628 276.551 132.778C276.127 132.211 275.667 131.255 275.172 129.91C273.829 124.103 272.911 118.508 272.416 113.126C272.345 110.01 272.168 105.549 271.886 99.742C271.744 98.3965 271.815 93.3685 272.098 84.658C271.956 84.0915 271.78 83.2771 271.568 82.2149C271.921 81.011 271.992 79.3114 271.78 77.1161C271.709 76.9744 269.73 75.5935 265.843 72.9733C265.843 72.7608 265.56 72.0881 264.995 70.955C266.479 70.7426 268.564 70.6363 271.25 70.6363C271.32 70.6363 271.426 70.4947 271.568 70.2114C271.568 69.9282 271.462 69.0076 271.25 67.4496C271.108 65.8916 271.073 64.8648 271.144 64.3691C271.356 63.6609 271.568 62.7403 271.78 61.6072C271.921 55.1629 271.956 51.3034 271.886 50.0287C272.522 50.0287 273.582 49.9225 275.066 49.71C276.621 49.4267 277.434 49.2851 277.505 49.2851C278.706 49.2851 279.731 49.5684 280.579 50.1349C281.427 50.6306 281.852 51.268 281.852 52.047C281.639 52.6843 281.427 53.5341 281.215 54.5964C281.074 55.5878 280.933 57.1458 280.791 59.2703C280.721 60.0492 280.65 61.0761 280.579 62.3508C280.509 66.3165 280.721 68.8659 281.215 69.999L289.273 70.2114C288.707 70.2114 290.934 70.4239 295.952 70.8488ZM276.763 130.76H276.339L276.233 132.247H276.763V130.76ZM277.823 134.159L277.505 133.84L276.763 134.478L277.081 134.796L277.823 134.159ZM319.868 70.8488C319.374 71.6278 318.596 72.1943 317.536 72.5484C317.183 72.9733 316.653 73.5398 315.946 74.248C314.956 74.7437 313.119 75.2748 310.433 75.8414C308.383 76.2663 306.298 76.6558 304.178 77.0098C303.683 81.1172 303.577 84.5518 303.86 87.3137C304.072 89.2965 304.178 90.3234 304.178 90.3942C304.178 90.0401 304.072 89.509 303.86 88.8008H303.648C303.577 89.2257 303.612 89.8277 303.754 90.6066C303.966 91.3856 304.072 91.8105 304.072 91.8813C304.142 92.5187 304.001 93.6872 303.648 95.3868C303.365 97.2988 303.224 98.4673 303.224 98.8922C303.153 100.309 303.224 101.866 303.436 103.566C303.648 105.195 303.754 106.257 303.754 106.753C303.754 107.532 303.648 108.311 303.436 109.09C303.648 109.373 303.824 110.719 303.966 113.126C303.966 112.985 303.93 115.322 303.86 120.137C303.86 121.412 303.86 122.828 303.86 124.386C303.93 125.944 304.107 128.033 304.39 130.653C304.743 133.769 305.167 135.717 305.662 136.496C305.733 136.637 305.556 136.956 305.132 137.452C305.203 138.16 305.238 139.081 305.238 140.214C304.39 140.355 303.436 139.718 302.375 138.302C301.386 136.956 300.785 135.752 300.573 134.69C300.644 134.265 300.608 133.628 300.467 132.778C300.043 132.211 299.584 131.255 299.089 129.91C297.746 124.103 296.827 118.508 296.332 113.126C296.262 110.01 296.085 105.549 295.802 99.742C295.661 98.3965 295.732 93.3685 296.014 84.658C295.873 84.0915 295.696 83.2771 295.484 82.2149C295.838 81.011 295.908 79.3114 295.696 77.1161C295.626 76.9744 293.647 75.5935 289.759 72.9733C289.759 72.7608 289.476 72.0881 288.911 70.955C290.395 70.7426 292.48 70.6363 295.166 70.6363C295.237 70.6363 295.343 70.4947 295.484 70.2114C295.484 69.9282 295.378 69.0076 295.166 67.4496C295.025 65.8916 294.989 64.8648 295.06 64.3691C295.272 63.6609 295.484 62.7403 295.696 61.6072C295.838 55.1629 295.873 51.3034 295.802 50.0287C296.438 50.0287 297.499 49.9225 298.983 49.71C300.538 49.4267 301.351 49.2851 301.421 49.2851C302.623 49.2851 303.648 49.5684 304.496 50.1349C305.344 50.6306 305.768 51.268 305.768 52.047C305.556 52.6843 305.344 53.5341 305.132 54.5964C304.991 55.5878 304.849 57.1458 304.708 59.2703C304.637 60.0492 304.566 61.0761 304.496 62.3508C304.425 66.3165 304.637 68.8659 305.132 69.999L313.189 70.2114C312.624 70.2114 314.85 70.4239 319.868 70.8488ZM300.679 130.76H300.255L300.149 132.247H300.679V130.76ZM301.739 134.159L301.421 133.84L300.679 134.478L300.997 134.796L301.739 134.159ZM340.819 94.537C340.819 95.1035 340.572 95.7054 340.077 96.3428C336.048 98.0424 333.363 99.14 332.02 99.6358C328.627 100.981 325.765 101.902 323.432 102.398C323.079 102.61 322.902 102.964 322.902 103.46C322.831 103.743 322.831 104.203 322.902 104.841C322.973 105.549 323.008 106.045 323.008 106.328C323.008 109.302 323.856 111.993 325.553 114.401C327.532 117.163 330.111 118.544 333.292 118.544C333.575 118.544 335.059 117.517 337.745 115.463C338.31 116.03 338.558 116.703 338.487 117.482C338.063 118.261 337.603 119.04 337.109 119.819C336.685 120.598 336.084 120.987 335.306 120.987C335.024 120.987 334.882 120.952 334.882 120.881C334.882 120.739 334.776 120.668 334.564 120.668C334.211 120.668 333.999 120.775 333.928 120.987C333.928 121.27 333.857 121.412 333.716 121.412C333.645 121.483 333.292 121.589 332.656 121.731C332.09 121.872 331.666 121.943 331.384 121.943C330.818 121.943 330.394 121.624 330.111 120.987C329.97 121.27 329.687 121.66 329.263 122.155C329.122 122.155 328.804 122.12 328.309 122.049C327.885 121.978 327.532 121.943 327.249 121.943C326.542 121.943 325.977 121.518 325.553 120.668C325.482 120.81 325.447 121.093 325.447 121.518C324.74 121.376 323.75 121.058 322.478 120.562C321.771 120.208 320.075 118.615 317.389 115.782C317.248 115.003 316.894 114.012 316.329 112.808C315.834 112.312 315.269 111.568 314.633 110.577C313.785 108.098 313.36 105.053 313.36 101.442C313.36 93.156 315.834 83.9853 320.782 73.9293C322.337 72.8671 324.386 71.9819 326.931 71.2737C329.475 70.4947 331.666 70.1052 333.504 70.1052C333.716 70.1052 334.317 70.2468 335.306 70.5301C336.366 70.7426 337.109 70.8842 337.533 70.955C337.957 71.4507 338.522 72.4422 339.229 73.9293C339.512 74.8499 339.724 78.9927 339.865 86.3576C339.865 87.2783 340.006 88.8362 340.289 91.0315C340.643 93.2269 340.819 94.3953 340.819 94.537ZM333.292 84.2331C333.292 82.5335 332.797 79.6655 331.808 75.6289C330.96 75.4873 330.288 75.6997 329.793 76.2663C329.016 77.2577 328.203 78.4616 327.355 79.8779C327.001 80.5153 326.153 83.1709 324.81 87.8448C323.538 92.5187 322.902 95.1035 322.902 95.5992C322.902 96.449 322.973 96.9447 323.114 97.0864H324.068C324.492 97.0864 325.941 96.7323 328.415 96.0241C329.051 95.8825 329.687 95.7763 330.323 95.7054C331.03 95.5638 331.49 95.2805 331.702 94.8556C331.702 93.7226 331.772 92.1292 331.914 90.0755C331.914 90.0047 332.126 89.8631 332.55 89.6506C332.479 89.0841 332.444 88.1989 332.444 86.995C332.514 86.7117 332.656 86.2514 332.868 85.6141C333.151 84.9059 333.292 84.4456 333.292 84.2331ZM374.32 69.4679C373.967 71.6632 373.437 75.027 372.73 79.5592C372.73 79.7717 372.589 82.3211 372.306 87.2074C372.164 90.2526 371.599 92.5187 370.61 94.0058C370.468 94.5016 370.61 94.7494 371.034 94.7494C370.327 95.8825 369.549 96.6615 368.701 97.0864C367.924 94.4661 367.358 91.2086 367.005 87.3137C366.722 83.9853 366.439 80.6923 366.157 77.4347C366.086 77.3639 365.874 77.2223 365.521 77.0098C365.097 77.718 364.566 79.0281 363.93 80.9402C362.87 81.3651 362.446 82.3211 362.658 83.8082C362.446 83.5958 362.234 83.4896 362.022 83.4896C361.669 84.2685 361.598 84.9059 361.81 85.4016C361.598 85.1892 361.315 85.0829 360.962 85.0829C360.891 85.3662 360.997 85.9327 361.28 86.7825H361.492C360.714 87.9864 360.043 89.2965 359.478 90.7129C359.407 90.9253 359.301 91.7751 359.16 93.2623C359.089 94.2537 358.735 94.891 358.099 95.1743C358.029 95.3868 358.205 95.493 358.629 95.493V96.449C358.629 96.3782 358.453 96.5552 358.099 96.9801C358.099 97.6175 357.923 98.7151 357.569 100.273C357.287 101.76 357.145 102.823 357.145 103.46C357.145 104.31 357.145 104.77 357.145 104.841C357.075 105.124 357.004 107.603 356.933 112.277C356.933 115.322 356.615 117.375 355.979 118.438C355.908 119.075 355.838 119.677 355.767 120.243C355.626 121.235 355.166 121.731 354.389 121.731C354.742 121.731 353.576 121.447 350.89 120.881C350.749 120.527 350.501 119.996 350.148 119.287C349.229 118.933 348.734 118.367 348.664 117.588C348.664 116.809 348.664 116.313 348.664 116.101C348.452 115.392 348.098 114.897 347.604 114.613C347.816 113.764 347.922 112.772 347.922 111.639C347.922 111.427 347.816 111.108 347.604 110.683C347.391 110.258 347.285 110.01 347.285 109.94V102.398C347.285 101.477 346.826 100.875 345.907 100.592C345.907 100.521 346.084 100.096 346.437 99.3171C346.437 99.0338 346.402 98.8214 346.331 98.6797C345.978 99.0338 345.731 99.2109 345.589 99.2109V86.3576L346.437 76.2663C346.296 76.1954 347.462 76.16 349.936 76.16C350.925 76.16 351.88 76.6558 352.798 77.6472C353.788 78.5678 354.283 79.453 354.283 80.3028C354.283 80.4444 354.106 81.0464 353.753 82.1086C353.399 83.1709 353.222 83.8082 353.222 84.0207C353.222 84.5164 353.258 84.7997 353.329 84.8705C355.661 83.5958 356.827 81.7191 356.827 79.2406C357.251 78.674 357.675 78.3554 358.099 78.2845C359.089 76.939 359.937 75.5581 360.644 74.1418C360.856 74.1418 361.139 74.0355 361.492 73.8231C361.633 72.1235 362.835 70.6717 365.097 69.4679C367.005 68.5472 368.843 68.0869 370.61 68.0869C371.104 68.0869 372.341 68.5472 374.32 69.4679ZM346.543 103.035H346.013V101.76H346.543V103.035ZM365.203 75.8414L364.885 75.5227L364.248 76.2663L364.46 76.4787L365.203 75.8414ZM362.764 77.7534V76.7974H362.34V77.7534H362.764ZM361.386 80.1966L361.068 79.453L360.644 79.5592L360.962 80.1966H361.386ZM369.019 93.3685L368.595 93.2623L368.277 93.8996L368.595 94.1121L369.019 93.3685ZM369.019 95.9179V94.9619H368.489V95.9179H369.019ZM357.039 82.8522L356.721 82.6398L356.085 83.9145L356.403 84.1269L357.039 82.8522ZM444.265 75.4165H443.416V74.8853H444.265V75.4165ZM471.935 58.5267C471.582 58.5975 471.299 58.5267 471.087 58.3142L470.663 58.8454C470.663 58.8454 470.981 59.164 471.617 59.8014C470.275 59.4473 468.083 59.0224 465.044 58.5267L454.76 57.5707C454.548 57.5707 454.301 57.429 454.018 57.1458C453.736 56.8625 453.453 56.7209 453.17 56.7209C452.039 56.7209 451.085 57.0395 450.308 57.6769C449.742 57.3228 449.318 56.9333 449.035 56.5084C448.823 56.0127 448.576 55.6586 448.293 55.4462C447.728 55.6586 447.445 56.1897 447.445 57.0395L446.703 56.4022C446.632 56.4022 446.456 56.5084 446.173 56.7209C445.89 56.8625 445.607 56.9333 445.325 56.9333C445.325 56.296 445.254 55.9065 445.113 55.7648C444.901 55.8356 444.618 56.0835 444.265 56.5084C443.911 56.9333 443.628 57.2166 443.416 57.3582C443.558 56.7209 443.381 56.1897 442.886 55.7648C442.462 56.1897 442.109 56.4022 441.826 56.4022C441.614 56.4022 441.543 56.5084 441.614 56.7209C441.685 56.9333 441.579 57.0395 441.296 57.0395C441.013 57.0395 440.589 57.0041 440.024 56.9333C439.529 56.7917 439.14 56.7209 438.858 56.7209C438.646 56.7209 438.186 56.9333 437.479 57.3582C436.843 57.7123 436.419 57.8893 436.207 57.8893C434.299 58.1018 432.426 58.3142 430.588 58.5267C427.973 58.8808 425.888 59.4827 424.333 60.3325C424.05 60.8282 423.732 61.6072 423.379 62.6695C422.814 62.8819 422.425 63.1298 422.213 63.413C422.283 63.4838 422.707 63.5193 423.485 63.5193C422.425 65.0772 421.895 66.3519 421.895 67.3434C421.895 67.2725 422.036 67.4496 422.319 67.8745C422.531 68.1577 422.495 68.8305 422.213 69.8928C424.828 70.3885 428.751 71.1675 433.981 72.2297C434.476 72.3713 435.536 72.7254 437.161 73.292C438.575 73.7877 439.388 74.0355 439.6 74.0355C439.882 74.0355 440.413 74.1418 441.19 74.3542C442.038 74.5667 442.639 74.6729 442.992 74.6729C443.275 75.5227 443.734 76.1246 444.371 76.4787C444.229 76.4787 443.911 76.6558 443.416 77.0098C442.992 77.3639 442.604 77.541 442.25 77.541C441.968 77.541 441.72 77.3993 441.508 77.1161C441.367 76.762 441.296 76.5849 441.296 76.5849C441.013 77.0807 440.695 77.5764 440.342 78.0721C439.988 78.5678 439.458 78.8157 438.752 78.8157C438.469 78.8157 437.762 78.9219 436.631 79.1343C435.5 79.3468 434.829 79.453 434.617 79.453C434.334 79.453 434.263 79.3468 434.405 79.1343C434.546 78.9219 434.511 78.8157 434.299 78.8157C434.087 78.8157 433.486 79.2052 432.497 79.9841C431.507 80.7631 430.871 81.1526 430.588 81.1526H429.422C429.139 81.1526 428.892 80.9402 428.68 80.5153C428.539 80.0904 428.468 79.8425 428.468 79.7717C428.256 80.055 427.938 80.4799 427.514 81.0464C425.464 82.1795 423.662 82.746 422.107 82.746C421.471 82.746 420.41 82.9938 418.926 83.4896C418.714 83.6312 418.608 83.9145 418.608 84.3394C418.608 84.1977 418.467 83.9853 418.184 83.702C417.901 83.9853 417.937 84.5164 418.29 85.2954C418.078 84.7997 417.548 84.3748 416.7 84.0207C416.841 85.5787 416.664 87.9864 416.17 91.244C416.24 91.3148 416.311 91.4564 416.382 91.6689C416.452 91.8105 416.558 91.9167 416.7 91.9876C417.195 91.7751 417.548 90.8899 417.76 89.3319C418.043 87.7032 418.325 86.6763 418.608 86.2514V90.9253C418.043 91.2794 417.336 91.9522 416.488 92.9436C416.417 93.2269 416.452 94.5016 416.594 96.7677C416.311 96.6261 416.17 96.8031 416.17 97.2988C416.17 97.7237 416.523 98.1486 417.23 98.5735C417.089 100.273 417.195 102.716 417.548 105.903C418.608 109.161 419.138 111.533 419.138 113.02C419.138 113.799 418.997 114.33 418.714 114.613C418.997 114.897 419.456 115.392 420.092 116.101C420.304 116.242 420.34 116.49 420.198 116.844C420.481 117.057 420.87 117.482 421.365 118.119C421.365 118.19 421.471 118.933 421.683 120.35C423.096 122.191 423.803 123.501 423.803 124.28C423.803 124.705 423.626 125.094 423.273 125.448C423.273 125.165 423.096 124.847 422.743 124.492C422.531 124.634 422.425 124.953 422.425 125.448C422.001 125.024 421.753 124.599 421.683 124.174C421.683 123.749 421.471 123.218 421.047 122.58C420.622 123.005 420.481 123.289 420.622 123.43C420.41 123.43 420.092 123.253 419.668 122.899C419.244 122.616 418.926 122.474 418.714 122.474C418.714 121.483 418.714 120.987 418.714 120.987C418.714 120.987 418.325 121.731 417.548 123.218C417.407 122.722 417.23 121.554 417.018 119.712C416.876 118.367 416.629 117.694 416.276 117.694C415.993 117.694 415.816 117.729 415.746 117.8C415.675 117.942 415.604 118.013 415.534 118.013C415.887 117.305 415.922 116.667 415.64 116.101C415.286 116.526 415.109 116.95 415.109 117.375C414.897 117.092 414.544 115.924 414.049 113.87L413.413 114.507C413.13 113.587 412.706 112.277 412.141 110.577C412.141 106.611 411.576 101.973 410.445 96.6615C410.515 95.67 410.515 94.1829 410.445 92.2C410.091 89.7922 409.597 86.1806 408.96 81.3651C408.042 80.5861 406.31 79.0989 403.765 76.9036C403.624 76.9036 403.553 77.1161 403.553 77.541C402.988 76.6912 402.67 76.0184 402.599 75.5227C402.105 75.3102 401.327 74.7791 400.267 73.9293C400.196 73.646 400.196 73.292 400.267 72.8671C400.408 72.3713 400.479 72.0527 400.479 71.911C400.479 71.2737 400.161 70.6009 399.525 69.8928C399.807 70.0344 400.691 70.1052 402.175 70.1052C403.73 70.1052 404.508 70.4593 404.508 71.1675C404.578 71.0966 404.614 70.778 404.614 70.2114C404.755 70.2114 405.108 70.5301 405.674 71.1675C406.31 70.5301 407.193 69.5741 408.324 68.2994C408.395 68.3702 408.501 68.3348 408.642 68.1932C408.854 68.0515 408.925 67.9099 408.854 67.7683C408.784 67.5558 408.536 67.485 408.112 67.5558C408.748 66.9185 409.066 66.3873 409.066 65.9624C409.066 65.3959 408.678 64.8294 407.9 64.2628C407.9 64.192 407.971 63.9796 408.112 63.6255C408.324 63.2714 408.43 62.9173 408.43 62.5632V61.3948C407.724 60.9699 407.087 60.7574 406.522 60.7574C406.593 60.545 406.557 60.0138 406.416 59.164C405.144 58.4559 404.366 57.6769 404.084 56.8271C403.377 57.0395 402.599 56.7209 401.751 55.8711C402.387 55.3753 402.705 54.9858 402.705 54.7026C401.716 54.0652 400.232 53.1092 398.253 51.8345C398.323 50.0641 398.217 48.9664 397.934 48.5415V47.3731C398.217 47.3731 398.783 47.4793 399.631 47.6917C400.479 47.9042 401.08 48.0104 401.433 48.0104C401.645 48.0104 402.317 47.7271 403.447 47.1606C404.649 46.5941 405.532 46.24 406.098 46.0984C406.31 46.24 406.734 46.9836 407.37 48.3291C407.511 48.2583 407.794 48.0458 408.218 47.6917C408.713 47.2668 409.102 47.0544 409.384 47.0544C409.667 47.0544 409.773 47.1252 409.703 47.2668C409.703 47.3376 409.809 47.3731 410.021 47.3731C410.303 47.3731 410.515 47.2314 410.657 46.9482C410.869 46.5941 411.081 46.417 411.293 46.417C411.576 46.417 411.752 46.5233 411.823 46.7357C411.894 46.9482 412.07 47.0544 412.353 47.0544C412.565 47.0544 413.696 46.8419 415.746 46.417C417.795 45.9921 418.961 45.7797 419.244 45.7797C419.81 45.7797 420.234 46.0984 420.516 46.7357C420.799 46.6649 421.223 46.4524 421.789 46.0984C422.354 45.6735 422.778 45.461 423.061 45.461C423.344 45.461 423.556 45.5672 423.697 45.7797C423.838 45.9921 424.05 46.0984 424.333 46.0984C424.616 46.0984 425.888 45.9567 428.15 45.6735C430.482 45.3194 431.754 45.1423 431.966 45.1423C433.097 45.1423 433.698 45.2486 433.769 45.461C433.981 45.8859 434.158 46.3108 434.299 46.7357C434.511 46.4524 435.041 46.1338 435.889 45.7797L436.525 46.417C437.373 45.9921 438.009 45.7797 438.434 45.7797C440.413 45.7797 444.053 46.3462 449.353 47.4793C449.566 47.7625 449.884 48.152 450.308 48.6478C450.378 48.6478 450.555 48.5415 450.838 48.3291C451.191 48.1166 451.474 48.0104 451.686 48.0104C452.746 48.0104 453.7 48.6478 454.548 49.9225C454.619 49.9225 454.796 49.8162 455.078 49.6038C455.361 49.3913 455.644 49.2851 455.927 49.2851C456.139 49.2851 456.563 49.4267 457.199 49.71C457.906 49.9225 458.436 50.0287 458.789 50.0287V51.3034C459.284 51.5158 459.673 51.6221 459.955 51.6221C460.238 51.6221 460.415 51.5158 460.485 51.3034C460.627 51.0201 460.768 50.8785 460.91 50.8785C460.98 50.8785 462.076 51.7283 464.196 53.4279C464.762 53.4987 465.504 53.6757 466.422 53.959C467.2 54.4547 467.73 55.1275 468.013 55.9773C468.437 56.0481 469.285 56.4022 470.557 57.0395L471.935 58.5267ZM417.866 95.8117H417.336V94.9619H417.866V95.8117ZM446.597 48.1166C446.314 47.8334 445.926 47.6917 445.431 47.6917C445.219 47.6917 445.113 48.1166 445.113 48.9664C446.102 48.4707 446.597 48.1874 446.597 48.1166ZM417.548 60.9699H417.018L416.7 62.7757H417.23L417.548 60.9699ZM416.912 65.75H416.382L416.064 66.8122L416.488 67.0247L416.912 65.75ZM413.095 86.8888V85.6141H412.459V86.8888H413.095ZM415.64 94.8556V93.3685H415.109V94.8556H415.64ZM415.322 97.7237V96.5552H414.791V97.7237H415.322ZM415.958 98.9984V97.8299H415.428V98.9984H415.958ZM413.095 96.449V94.9619H412.459V96.449H413.095ZM420.41 118.969V117.8H419.88V118.969H420.41ZM420.835 119.925C420.622 120.137 420.34 120.279 419.986 120.35C419.986 120.562 420.128 120.881 420.41 121.306C420.976 120.739 421.117 120.279 420.835 119.925ZM422.955 124.068V123.218H422.425V124.068H422.955ZM471.013 35.2634C471.013 35.405 470.872 35.6529 470.589 36.007C470.377 36.3611 470.271 36.6443 470.271 36.8568C469.776 39.7603 469.493 42.1326 469.423 43.9739C469.423 45.3194 468.857 51.7283 467.726 63.2006C467.656 63.2714 467.302 63.6255 466.666 64.2628C466.666 64.3336 466.772 64.4753 466.984 64.6877C467.267 64.9002 467.408 65.0772 467.408 65.2189C467.408 65.5729 467.408 65.9978 467.408 66.4936C467.479 67.0601 467.514 67.4496 467.514 67.662C467.514 68.8659 467.479 69.6449 467.408 69.999C467.338 70.3531 467.09 70.8842 466.666 71.5924C466.313 72.3005 466.136 72.7608 466.136 72.9733C466.136 73.1857 466.313 73.646 466.666 74.3542C467.02 74.9916 467.196 75.4165 467.196 75.6289C467.196 75.8414 467.09 76.3017 466.878 77.0098C466.666 77.718 466.56 78.2491 466.56 78.6032C466.56 80.232 466.489 82.6044 466.348 85.7203C466.136 87.4199 466.03 89.5798 466.03 92.2C466.101 95.9533 466.136 98.0778 466.136 98.5735C466.065 98.9984 465.818 100.521 465.394 103.141C465.041 105.761 464.864 107.142 464.864 107.284C464.864 107.496 464.97 107.886 465.182 108.452C465.394 108.948 465.535 109.373 465.606 109.727C465.535 110.931 465.535 112.772 465.606 115.251C465.606 116.313 465.783 117.906 466.136 120.031C466.489 122.226 466.666 123.395 466.666 123.536C466.666 123.749 466.56 124.103 466.348 124.599C466.207 125.094 466.136 125.484 466.136 125.767C461.966 124.776 459.881 121.341 459.881 115.463C459.881 114.047 460.022 112.772 460.305 111.639C459.81 111.143 459.563 110.187 459.563 108.771C459.634 106.576 459.669 105.478 459.669 105.478C459.952 105.337 460.093 105.159 460.093 104.947C459.598 104.239 459.351 103.247 459.351 101.973C459.351 94.6786 459.351 91.1378 459.351 91.3502C459.492 91.2794 459.74 91.0669 460.093 90.7129V84.2331C459.598 83.7374 459.351 83.525 459.351 83.5958C459.351 83.5958 459.28 83.4542 459.139 83.1709C459.068 82.8876 459.033 82.6398 459.033 82.4273C459.033 82.144 459.068 81.967 459.139 81.8962C459.28 81.8254 459.351 81.79 459.351 81.79C459.21 80.3736 459.21 79.1343 459.351 78.0721C459.351 77.9305 459.386 77.6472 459.457 77.2223C459.598 76.7266 459.669 76.3725 459.669 76.16C459.669 75.8768 459.598 75.3456 459.457 74.5667C459.386 73.7169 459.386 73.0795 459.457 72.6546C459.457 72.4422 459.563 72.0527 459.775 71.4861C459.987 70.9196 460.093 70.5301 460.093 70.3177C460.093 70.1052 459.916 69.2908 459.563 67.8745C459.21 66.3873 459.033 65.5021 459.033 65.2189C459.033 62.8819 459.245 59.766 459.669 55.8711C459.881 55.517 460.022 55.1983 460.093 54.915C459.669 53.4987 459.598 51.0201 459.881 47.4793C459.952 46.4878 459.987 44.5404 459.987 41.6369C459.987 41.0704 459.987 40.1852 459.987 38.9813C460.058 37.7774 460.093 37.14 460.093 37.0692V35.6883C460.446 35.3342 460.729 35.1218 460.941 35.0509L461.577 35.5821C461.931 35.228 462.461 35.0509 463.168 35.0509L463.698 35.5821C463.698 35.5821 463.733 35.405 463.804 35.0509C463.874 34.9093 464.051 34.8385 464.334 34.8385C464.546 34.8385 464.616 34.8739 464.546 34.9447C464.546 35.0155 464.652 35.0509 464.864 35.0509C465.005 35.0509 465.677 34.7677 466.878 34.2011C468.08 33.5638 468.857 33.2451 469.211 33.2451C469.423 33.2451 469.493 33.3513 469.423 33.5638C469.423 33.7054 469.529 33.7762 469.741 33.7762C470.306 33.7762 470.73 33.8825 471.013 34.0949V35.2634ZM465.5 94.2183H465.076L464.758 95.0681L465.182 95.1743L465.5 94.2183ZM460.411 99.742H459.987L459.669 101.229H460.199L460.411 99.742ZM460.729 114.401H460.199L460.093 115.357H460.517L460.729 114.401ZM500.158 94.537C500.158 95.1035 499.91 95.7054 499.416 96.3428C495.387 98.0424 492.701 99.14 491.358 99.6358C487.966 100.981 485.103 101.902 482.771 102.398C482.417 102.61 482.241 102.964 482.241 103.46C482.17 103.743 482.17 104.203 482.241 104.841C482.311 105.549 482.347 106.045 482.347 106.328C482.347 109.302 483.195 111.993 484.891 114.401C486.87 117.163 489.45 118.544 492.63 118.544C492.913 118.544 494.397 117.517 497.083 115.463C497.649 116.03 497.896 116.703 497.825 117.482C497.401 118.261 496.942 119.04 496.447 119.819C496.023 120.598 495.422 120.987 494.645 120.987C494.362 120.987 494.221 120.952 494.221 120.881C494.221 120.739 494.115 120.668 493.903 120.668C493.549 120.668 493.337 120.775 493.267 120.987C493.267 121.27 493.196 121.412 493.055 121.412C492.984 121.483 492.63 121.589 491.994 121.731C491.429 121.872 491.005 121.943 490.722 121.943C490.157 121.943 489.733 121.624 489.45 120.987C489.309 121.27 489.026 121.66 488.602 122.155C488.46 122.155 488.142 122.12 487.648 122.049C487.224 121.978 486.87 121.943 486.587 121.943C485.881 121.943 485.315 121.518 484.891 120.668C484.82 120.81 484.785 121.093 484.785 121.518C484.078 121.376 483.089 121.058 481.817 120.562C481.11 120.208 479.413 118.615 476.728 115.782C476.586 115.003 476.233 114.012 475.668 112.808C475.173 112.312 474.607 111.568 473.971 110.577C473.123 108.098 472.699 105.053 472.699 101.442C472.699 93.156 475.173 83.9853 480.12 73.9293C481.675 72.8671 483.725 71.9819 486.269 71.2737C488.814 70.4947 491.005 70.1052 492.842 70.1052C493.055 70.1052 493.655 70.2468 494.645 70.5301C495.705 70.7426 496.447 70.8842 496.871 70.955C497.295 71.4507 497.861 72.4422 498.568 73.9293C498.85 74.8499 499.062 78.9927 499.204 86.3576C499.204 87.2783 499.345 88.8362 499.628 91.0315C499.981 93.2269 500.158 94.3953 500.158 94.537ZM492.63 84.2331C492.63 82.5335 492.136 79.6655 491.146 75.6289C490.298 75.4873 489.627 75.6997 489.132 76.2663C488.354 77.2577 487.542 78.4616 486.693 79.8779C486.34 80.5153 485.492 83.1709 484.149 87.8448C482.877 92.5187 482.241 95.1035 482.241 95.5992C482.241 96.449 482.311 96.9447 482.453 97.0864H483.407C483.831 97.0864 485.28 96.7323 487.754 96.0241C488.39 95.8825 489.026 95.7763 489.662 95.7054C490.369 95.5638 490.828 95.2805 491.04 94.8556C491.04 93.7226 491.111 92.1292 491.252 90.0755C491.252 90.0047 491.464 89.8631 491.888 89.6506C491.818 89.0841 491.782 88.1989 491.782 86.995C491.853 86.7117 491.994 86.2514 492.206 85.6141C492.489 84.9059 492.63 84.4456 492.63 84.2331ZM529.561 94.537C529.561 95.1035 529.314 95.7054 528.819 96.3428C524.79 98.0424 522.105 99.14 520.762 99.6358C517.369 100.981 514.507 101.902 512.174 102.398C511.821 102.61 511.644 102.964 511.644 103.46C511.573 103.743 511.573 104.203 511.644 104.841C511.715 105.549 511.75 106.045 511.75 106.328C511.75 109.302 512.598 111.993 514.295 114.401C516.274 117.163 518.853 118.544 522.034 118.544C522.317 118.544 523.801 117.517 526.487 115.463C527.052 116.03 527.299 116.703 527.229 117.482C526.805 118.261 526.345 119.04 525.851 119.819C525.426 120.598 524.826 120.987 524.048 120.987C523.766 120.987 523.624 120.952 523.624 120.881C523.624 120.739 523.518 120.668 523.306 120.668C522.953 120.668 522.741 120.775 522.67 120.987C522.67 121.27 522.599 121.412 522.458 121.412C522.387 121.483 522.034 121.589 521.398 121.731C520.832 121.872 520.408 121.943 520.126 121.943C519.56 121.943 519.136 121.624 518.853 120.987C518.712 121.27 518.429 121.66 518.005 122.155C517.864 122.155 517.546 122.12 517.051 122.049C516.627 121.978 516.274 121.943 515.991 121.943C515.284 121.943 514.719 121.518 514.295 120.668C514.224 120.81 514.189 121.093 514.189 121.518C513.482 121.376 512.492 121.058 511.22 120.562C510.513 120.208 508.817 118.615 506.131 115.782C505.99 115.003 505.636 114.012 505.071 112.808C504.576 112.312 504.011 111.568 503.375 110.577C502.526 108.098 502.102 105.053 502.102 101.442C502.102 93.156 504.576 83.9853 509.524 73.9293C511.079 72.8671 513.128 71.9819 515.673 71.2737C518.217 70.4947 520.408 70.1052 522.246 70.1052C522.458 70.1052 523.059 70.2468 524.048 70.5301C525.108 70.7426 525.851 70.8842 526.275 70.955C526.699 71.4507 527.264 72.4422 527.971 73.9293C528.254 74.8499 528.466 78.9927 528.607 86.3576C528.607 87.2783 528.748 88.8362 529.031 91.0315C529.385 93.2269 529.561 94.3953 529.561 94.537ZM522.034 84.2331C522.034 82.5335 521.539 79.6655 520.55 75.6289C519.701 75.4873 519.03 75.6997 518.535 76.2663C517.758 77.2577 516.945 78.4616 516.097 79.8779C515.743 80.5153 514.895 83.1709 513.552 87.8448C512.28 92.5187 511.644 95.1035 511.644 95.5992C511.644 96.449 511.715 96.9447 511.856 97.0864H512.81C513.234 97.0864 514.683 96.7323 517.157 96.0241C517.793 95.8825 518.429 95.7763 519.065 95.7054C519.772 95.5638 520.232 95.2805 520.444 94.8556C520.444 93.7226 520.514 92.1292 520.656 90.0755C520.656 90.0047 520.868 89.8631 521.292 89.6506C521.221 89.0841 521.186 88.1989 521.186 86.995C521.256 86.7117 521.398 86.2514 521.61 85.6141C521.893 84.9059 522.034 84.4456 522.034 84.2331ZM561.827 70.8488C561.332 71.6278 560.555 72.1943 559.495 72.5484C559.141 72.9733 558.611 73.5398 557.904 74.248C556.915 74.7437 555.077 75.2748 552.391 75.8414C550.342 76.2663 548.257 76.6558 546.136 77.0098C545.642 81.1172 545.536 84.5518 545.818 87.3137C546.03 89.2965 546.136 90.3234 546.136 90.3942C546.136 90.0401 546.03 89.509 545.818 88.8008H545.606C545.536 89.2257 545.571 89.8277 545.712 90.6066C545.924 91.3856 546.03 91.8105 546.03 91.8813C546.101 92.5187 545.96 93.6872 545.606 95.3868C545.324 97.2988 545.182 98.4673 545.182 98.8922C545.112 100.309 545.182 101.866 545.394 103.566C545.606 105.195 545.712 106.257 545.712 106.753C545.712 107.532 545.606 108.311 545.394 109.09C545.606 109.373 545.783 110.719 545.924 113.126C545.924 112.985 545.889 115.322 545.818 120.137C545.818 121.412 545.818 122.828 545.818 124.386C545.889 125.944 546.066 128.033 546.348 130.653C546.702 133.769 547.126 135.717 547.621 136.496C547.691 136.637 547.515 136.956 547.091 137.452C547.161 138.16 547.197 139.081 547.197 140.214C546.348 140.355 545.394 139.718 544.334 138.302C543.345 136.956 542.744 135.752 542.532 134.69C542.602 134.265 542.567 133.628 542.426 132.778C542.002 132.211 541.542 131.255 541.048 129.91C539.705 124.103 538.786 118.508 538.291 113.126C538.22 110.01 538.044 105.549 537.761 99.742C537.62 98.3965 537.69 93.3685 537.973 84.658C537.832 84.0915 537.655 83.2771 537.443 82.2149C537.796 81.011 537.867 79.3114 537.655 77.1161C537.584 76.9744 535.605 75.5935 531.718 72.9733C531.718 72.7608 531.435 72.0881 530.87 70.955C532.354 70.7426 534.439 70.6363 537.125 70.6363C537.195 70.6363 537.302 70.4947 537.443 70.2114C537.443 69.9282 537.337 69.0076 537.125 67.4496C536.983 65.8916 536.948 64.8648 537.019 64.3691C537.231 63.6609 537.443 62.7403 537.655 61.6072C537.796 55.1629 537.832 51.3034 537.761 50.0287C538.397 50.0287 539.457 49.9225 540.941 49.71C542.496 49.4267 543.309 49.2851 543.38 49.2851C544.581 49.2851 545.606 49.5684 546.454 50.1349C547.303 50.6306 547.727 51.268 547.727 52.047C547.515 52.6843 547.303 53.5341 547.091 54.5964C546.949 55.5878 546.808 57.1458 546.666 59.2703C546.596 60.0492 546.525 61.0761 546.454 62.3508C546.384 66.3165 546.596 68.8659 547.091 69.999L555.148 70.2114C554.583 70.2114 556.809 70.4239 561.827 70.8488ZM542.638 130.76H542.214L542.108 132.247H542.638V130.76ZM543.698 134.159L543.38 133.84L542.638 134.478L542.956 134.796L543.698 134.159Z" fill="white"/>
    <path d="M71.9755 98.5043C74.4815 101.268 75.6301 104.343 75.6301 108.201V110.443L73.0979 111.642C70.5919 112.815 61.3508 116.777 61.142 116.777C61.0897 116.777 61.664 115.448 62.4472 113.831C63.2043 112.241 64.379 109.322 65.0576 107.393C66.2846 103.796 68.0597 97.2793 68.0597 96.2886C68.0597 96.0023 68.138 95.6631 68.2163 95.585C68.4774 95.3248 70.618 96.967 71.9755 98.5043Z" fill="white"/>
    <path d="M62.3141 95.1155C62.3141 96.5236 62.1314 98.7133 61.9225 99.9904C61.4526 102.596 60.043 107.002 59.0771 108.878L58.4245 110.13L58.3984 101.319V92.5352H60.3563H62.3141V95.1155Z" fill="white"/>
    <path d="M34.7765 89.9289C39.0577 90.1896 42.3991 90.3721 48.2988 90.6328L52.1363 90.7892V102.076V113.336L51.3009 113.128C50.831 112.998 49.9435 112.789 49.3691 112.633C47.4635 112.137 43.7044 112.007 41.0156 112.347C38.9011 112.607 34.9071 113.598 33.0275 114.301C32.6621 114.431 32.7143 114.223 33.2364 112.867C34.9071 108.749 34.385 102.936 31.9051 98.0093C30.7043 95.6374 28.9552 93.3956 26.6058 91.2062L24.5957 89.3555L27.7282 89.5119C29.4512 89.6162 32.636 89.7986 34.7765 89.9289Z" fill="white"/>
    <path d="M36.2122 55.6516C38.5877 55.8601 40.9372 56.0947 41.4331 56.1729C42.3207 56.2772 44.1741 56.4335 47.6983 56.6942C55.7647 57.2937 76.544 59.0663 77.7448 59.2488C78.293 59.3269 78.3975 59.5355 78.5541 60.6303C78.6324 61.334 78.8413 62.7156 78.9979 63.7322C79.1545 64.7227 79.285 67.6161 79.285 70.1706C79.285 77.3649 78.3191 81.9267 75.7609 86.7229C75.1082 87.9479 74.5862 88.9907 74.5862 89.0167C74.5862 89.0688 75.1343 88.9385 75.8131 88.73C76.4657 88.5215 77.4576 88.3651 78.032 88.3651H79.024V91.5191C79.024 95.09 79.1806 94.9599 77.0661 93.0313C67.1202 84.1944 44.7745 79.9716 28.7201 83.9077C27.6759 84.1683 26.8145 84.3248 26.8145 84.2726C26.8145 84.1984 27.285 83.5134 27.8687 82.6636L27.963 82.5261C29.5554 80.3366 31.3828 76.4266 32.0615 73.8981C32.7402 71.3175 33.0013 66.7819 32.5836 64.5663C32.0876 61.9597 31.0696 59.1705 29.8165 56.981L28.6679 54.9478L30.2864 55.1042C31.1739 55.1823 33.8366 55.443 36.2122 55.6516Z" fill="white"/>
    <path d="M48.7406 25.2841C55.7366 26.014 65.9958 27.3172 66.2046 27.5258C66.2829 27.6039 66.3352 29.4026 66.3352 31.4879C66.309 34.5116 66.1786 35.7628 65.7348 37.405C65.056 39.9856 62.9938 44.1823 61.4274 46.2415C60.7749 47.1017 60.2788 47.8316 60.3311 47.8837C60.3833 47.9359 61.6885 47.8056 63.2548 47.571C64.821 47.3624 67.5621 47.0757 69.3633 46.9193L72.6264 46.6587L73.8794 47.988C75.0541 49.2392 76.9337 52.4715 76.9337 53.2535C76.9337 53.462 75.9156 53.0971 74.1405 52.2108C66.048 48.2486 55.1624 47.4406 44.6943 50.0473C42.9714 50.4643 41.4834 50.8293 41.379 50.8293C41.3007 50.8293 41.7184 49.9691 42.371 48.9264C46.2084 42.5401 46.6783 34.8505 43.6501 28.5424C43.1802 27.5258 42.3188 26.1964 41.7967 25.5708L40.8047 24.4238L42.0839 24.5803C42.8148 24.6845 45.7907 24.9974 48.7406 25.2841Z" fill="white"/>
    <path d="M75.8887 16.0316C79.1257 16.3965 83.0675 16.8657 84.6339 17.0742C86.2263 17.2828 89.5154 17.7258 91.9431 18.0387L96.3807 18.6121L98.234 20.4629C101.602 23.8515 103.743 27.553 104.891 31.9322C105.674 34.9298 105.753 40.5601 105.022 43.2711C104.525 45.1217 103.064 48.4844 102.777 48.4844C102.672 48.4844 102.02 48.0413 101.341 47.4678C97.8167 44.5483 90.4813 41.8374 84.5033 41.2379C81.8407 40.9772 74.0614 41.0033 71.9731 41.29C70.3284 41.4986 70.3023 41.4986 70.6939 41.0293C71.6597 39.9085 72.9389 36.4417 73.5654 33.1834C73.957 31.124 73.7482 26.4843 73.1739 24.3728C72.5212 22.079 70.955 18.8728 69.5714 16.996C68.8665 16.0837 68.3184 15.3017 68.3184 15.2235C68.3184 15.1453 68.7099 15.1714 69.1798 15.2495C69.5894 15.3218 72.2002 15.6159 75.1448 15.9477L75.8887 16.0316Z" fill="white"/>
    <path d="M62.3189 16.5264V22.3914L60.4393 22.3392L58.5337 22.2871L58.5076 20.4625C58.4815 18.6899 58.4554 18.6378 57.4895 17.8558C56.5498 17.0999 56.4714 17.0738 53.9654 17.1519C51.877 17.2041 51.0938 17.0999 49.9453 16.6828C48.2223 16.0311 46.3688 14.1282 45.7945 12.3818L45.377 11.2088L46.2383 11.8604C48.0918 13.268 50.4934 13.633 53.1822 12.9032C55.0095 12.4079 55.9755 12.4079 57.3329 12.9032L58.4032 13.268V11.9908V10.6875H60.3611H62.3189V16.5264Z" fill="white"/>
    <path d="M88.1609 6.4645V12.929L86.673 12.7465C85.8376 12.6422 84.95 12.5379 84.7151 12.5379C84.3235 12.5119 84.2452 12.2512 84.2452 10.609V8.70622L82.8617 8.26308C81.9219 7.95028 80.6949 7.846 78.8937 7.87207C76.5443 7.89813 76.1527 7.84601 74.9519 7.22042C73.4378 6.46449 71.976 4.90049 71.0362 3.07583C70.227 1.48577 70.253 1.30332 71.1406 2.16352C72.1587 3.12798 74.2993 3.90998 75.9178 3.90998C76.6487 3.90998 78.0583 3.64931 79.0764 3.36257C80.8515 2.81517 82.6529 2.78911 83.8014 3.25831C84.193 3.41471 84.2452 3.25831 84.2452 1.72038V0H86.2031H88.1609V6.4645Z" fill="white"/>
    <path d="M88.2118 51.3509C95.2605 52.8106 102.543 55.3912 109.696 58.9883C117.345 62.8202 126.116 69.832 131.65 76.5572C132.877 78.0429 133.869 79.3202 133.817 79.3463C133.765 79.3984 132.616 80.1544 131.259 81.0146L128.804 82.6046L127.996 81.8226C126.821 80.6757 123.009 78.3818 120.085 77.0525C115.805 75.1496 111.785 74.0809 106.146 73.377C104.371 73.1686 102.883 72.986 102.857 72.986C102.805 72.986 102.779 72.7254 102.779 72.3865C102.779 71.5785 101.891 69.3367 100.611 66.8605C97.8963 61.6211 93.146 56.6945 86.4889 52.1589C85.1837 51.2727 84.2178 50.5688 84.3222 50.5688C84.4005 50.5688 86.1495 50.9077 88.2118 51.3509Z" fill="white"/>
    <path d="M89.4392 61.9861C93.5117 67.3558 96.1216 72.9341 96.9571 77.9389L97.3754 80.5455H101.996C104.554 80.5455 107.008 80.6237 107.451 80.7019L108.287 80.8843L108.13 82.3441C107.922 84.0906 107.138 86.619 106.434 87.7659L105.937 88.6261L104.946 87.6877C101.108 84.1427 94.8687 82.5005 87.2985 83.0478C85.4452 83.1782 83.8788 83.2304 83.8267 83.1782C83.7744 83.1261 83.8267 82.9437 83.9572 82.7872C84.5053 82.0574 85.5234 78.8512 85.9411 76.5051C86.8287 71.5265 86.0716 62.1164 84.3748 57.3724C84.166 56.7468 83.9833 56.1733 83.9833 56.0951C83.9833 55.652 87.664 59.6402 89.4392 61.9861Z" fill="white"/>
    <path d="M87.3264 87.583H88.4228V92.6139V97.645L86.6738 98.3746C85.6818 98.7919 84.742 99.1562 84.5854 99.2352C84.3244 99.3393 84.2461 98.0614 84.2461 93.3176V87.2441L85.2381 87.4266C85.7601 87.5048 86.6999 87.583 87.3264 87.583Z" fill="white"/>
    <path d="M146.556 77.7299C147.236 78.3555 147.366 79.6588 146.844 80.3626C146.504 80.8057 134.888 88.4432 122.88 96.1588C115.962 100.616 116.536 99.9648 116.223 103.354C115.935 106.325 115.805 107.29 115.283 110.131C114.056 116.882 112.281 122.434 109.41 128.429L107.765 131.896H105.128H102.466L103.197 130.645C106.382 125.301 108.94 117.95 110.585 109.479C111.08 107.028 112.177 99.9388 112.177 99.2873C112.177 99.1562 111.315 99.0521 110.245 99.0521C105.441 99.0521 97.1927 101.216 88.6303 104.683C86.3853 105.595 84.4796 106.351 84.3753 106.351C84.2969 106.351 84.2708 105.23 84.2969 103.849L84.3753 101.372L86.4637 100.46C91.9195 98.0614 100.247 95.2731 104.476 94.4124C107.27 93.839 109.384 93.7869 111.864 94.2043C113.195 94.4385 114.709 94.8037 115.205 95.0119L116.093 95.3772L118.833 93.6308C129.745 86.6707 134.627 83.5427 139.065 80.5712C144.599 76.8697 145.356 76.609 146.556 77.7299Z" fill="#32D499"/>
    <path d="M98.4469 91.2332C99.4386 91.8849 100.3 92.5365 100.353 92.6669C100.379 92.8232 99.1784 93.3705 97.6114 93.9439C96.0713 94.4914 94.6623 95.0128 94.5053 95.0648C94.2441 95.1689 94.166 94.4653 94.166 92.0413V88.8872L95.4189 89.4607C96.0974 89.7735 97.4552 90.5816 98.4469 91.2332Z" fill="white"/>
    <path d="M95.7583 108.15C95.4711 108.542 94.1402 109.975 92.8087 111.305C85.3688 118.734 76.8848 123.713 65.1638 127.544C60.8565 128.952 55.0612 130.151 50.1536 130.62C43.8884 131.246 34.0208 130.359 28.6955 128.717C27.9645 128.509 27.6774 128.117 26.5027 125.823C25.2496 123.321 19.7676 111.565 19.7676 111.383C19.7676 111.331 20.9162 111.305 22.3258 111.305H24.9103L26.8942 115.397C27.9645 117.665 29.4002 120.636 30.0268 122.018L31.1753 124.52L33.1072 124.834C36.1875 125.328 43.3924 125.693 46.6555 125.511C52.9207 125.146 58.5593 124.025 64.5373 121.992C68.8706 120.506 72.1337 119.046 79.417 115.397C86.0476 112.087 95.7063 107.447 96.0715 107.421C96.2026 107.395 96.0455 107.733 95.7583 108.15Z" fill="#32D499"/>
    <path d="M100.797 116.803C99.2827 119.541 96.1766 121.626 91.5818 122.903C88.9191 123.633 88.1882 123.633 90.146 122.877C92.7042 121.912 98.9435 117.768 100.667 115.892C101.58 114.901 101.632 115.24 100.797 116.803Z" fill="#32D499"/>
    <path d="M27.2843 134.242C28.4851 134.529 30.8606 135.337 32.5835 136.067C36.1338 137.527 38.7703 138.152 41.3548 138.152C43.7303 138.152 45.7143 137.657 49.4472 136.119C54.5899 134.008 55.1903 133.851 59.3148 133.851C63.4393 133.851 64.849 134.164 68.9997 136.067C75.0038 138.83 78.4235 138.83 85.1585 136.015C90.0923 133.956 90.5361 133.851 95.3395 133.851H95.346C99.4643 133.877 99.5433 133.878 102.126 134.816C103.562 135.311 105.729 136.171 106.956 136.666C109.436 137.709 111.655 138.152 114.396 138.152C116.797 138.152 118.729 137.657 122.723 136.067C128.049 133.956 129.667 133.617 134.235 133.617C138.986 133.591 140.657 133.956 146.374 136.093C149.846 137.371 153.292 138.412 155.093 138.726C155.458 138.778 155.041 139.351 153.214 141.28L150.864 143.757L148.044 142.792C146.478 142.271 143.79 141.359 142.067 140.759C139.091 139.743 138.725 139.664 135.149 139.533C130.45 139.351 128.466 139.716 123.768 141.567C119.356 143.313 116.719 143.887 113.352 143.757C110.141 143.653 108.183 143.209 104.476 141.697C100.038 139.925 98.6808 139.612 94.9482 139.612C91.2409 139.585 90.249 139.821 86.02 141.697C80.1464 144.304 74.8993 144.46 69.3652 142.166C61.2465 138.778 58.0879 138.648 51.3007 141.385C47.2805 143.027 45.4793 143.522 42.7122 143.757C39.9711 143.991 36.943 143.496 33.3405 142.271C26.7883 140.003 25.7963 139.743 22.9509 139.429C20.7319 139.195 19.3745 139.195 17.1034 139.429C13.6576 139.769 12.7961 140.003 7.78403 141.827L4.05105 143.209L1.96267 141.046C0.814058 139.873 -0.0735039 138.856 0.00481039 138.778C0.0570199 138.7 1.33615 138.334 2.82412 137.918C4.3121 137.501 6.37437 136.849 7.36635 136.458C11.3604 134.92 13.7098 134.164 15.4589 133.825C18.1215 133.356 24.5171 133.565 27.2843 134.242Z" fill="white"/>
    <path d="M64.1206 145.581C65.1387 145.79 67.2792 146.494 68.8455 147.146C72.9962 148.866 74.6407 149.178 78.2432 149.022C81.4281 148.866 82.2633 148.657 87.1449 146.78C90.7474 145.399 92.9924 145.06 95.8374 145.425C97.0382 145.581 98.6313 145.947 99.4138 146.181L100.772 146.65L99.8841 147.198C98.5532 148.005 90.382 151.837 88.3196 152.593C85.2132 153.766 81.8196 154.313 77.7995 154.313C75.7894 154.313 73.466 154.183 72.6046 154.027C68.7411 153.349 64.3294 151.681 58.012 148.501L54.3574 146.676L55.271 146.285C57.8554 145.216 61.1708 144.956 64.1206 145.581Z" fill="white"/>
    <path d="M29.8174 145.868C32.8978 146.311 41.6951 148.449 46.7854 150.013C56.3659 152.906 68.4524 158.223 76.3622 162.994L78.7899 164.453L80.2778 163.463C83.7759 161.143 93.2521 156.399 99.9086 153.61C105.129 151.446 110.455 149.674 117.137 147.927C124.943 145.868 128.285 145.373 133.976 145.347C138.752 145.347 140.71 145.555 144.939 146.546L147.289 147.093L144.835 149.413C143.19 150.977 142.25 151.681 141.963 151.577C141.05 151.212 135.646 150.873 133.322 151.03C130.895 151.186 125.335 151.967 123.272 152.463C111.787 155.226 104.869 157.702 95.3405 162.525C90.1716 165.131 85.2638 168.103 81.2698 170.996L78.6855 172.873L77.4846 172.012C67.1472 164.714 58.4021 160.257 46.2634 156.191C38.928 153.714 32.8194 152.281 25.5101 151.264C23.3956 150.977 15.6686 151.056 14.1545 151.394L12.8493 151.681L10.4477 149.283C8.17654 147.041 8.07212 146.884 8.62032 146.676C9.19462 146.468 13.7891 145.581 15.5903 145.347C17.3915 145.112 26.9981 145.477 29.8174 145.868Z" fill="white"/>
</svg>
