<svg xmlns="http://www.w3.org/2000/svg" width="19" height="19" viewBox="0 0 19 19" fill="none">
    <path fill-rule="evenodd" clip-rule="evenodd" d="M9.49912 0C4.25326 0 0 4.25326 0 9.50029C0 13.6976 2.72178 17.258 6.49682 18.5148C6.97213 18.6017 7.14534 18.3083 7.14534 18.0564C7.14534 17.8313 7.13717 17.2335 7.13251 16.4409C4.49004 17.0148 3.9325 15.1672 3.9325 15.1672C3.50035 14.0702 2.8775 13.778 2.8775 13.778C2.01495 13.1884 2.94282 13.2001 2.94282 13.2001C3.89634 13.2677 4.39789 14.1793 4.39789 14.1793C5.24528 15.6309 6.62163 15.2115 7.16283 14.9689C7.24915 14.3548 7.49409 13.9361 7.76586 13.6987C5.65643 13.459 3.43853 12.6437 3.43853 9.00341C3.43853 7.96648 3.80886 7.11851 4.41656 6.45425C4.31858 6.21397 3.99257 5.2482 4.50928 3.94008C4.50928 3.94008 5.3071 3.68464 7.12201 4.91402C7.87958 4.70349 8.69256 4.59793 9.50029 4.59443C10.3069 4.59793 11.1198 4.70349 11.8786 4.91402C13.6923 3.68464 14.4884 3.94008 14.4884 3.94008C15.0068 5.2482 14.6808 6.21397 14.5829 6.45425C15.1917 7.11851 15.5597 7.96648 15.5597 9.00341C15.5597 12.6531 13.3383 13.4561 11.2219 13.6911C11.5631 13.9845 11.8669 14.5642 11.8669 15.4507C11.8669 16.7203 11.8552 17.745 11.8552 18.0564C11.8552 18.3107 12.0261 18.6063 12.5084 18.5136C16.2805 17.2545 19 13.6964 19 9.50029C19 4.25326 14.7462 0 9.49912 0Z" fill="white"/>
</svg>