<svg width="18" height="23" viewBox="0 0 18 23" fill="none" xmlns="http://www.w3.org/2000/svg">
<path d="M3.07187 7.77898H11.8149V5.95248C11.8149 5.16564 11.5421 4.49681 10.9966 3.94598C10.4511 3.39514 9.78562 3.11973 9.00012 3.11973C8.21462 3.11973 7.54912 3.39514 7.00362 3.94598C6.45813 4.49681 6.18537 5.16564 6.18537 5.95248H3.91038C3.91038 4.53714 4.40587 3.33206 5.39687 2.33723C6.38787 1.34223 7.58896 0.844727 9.00012 0.844727C10.4113 0.844727 11.6124 1.34223 12.6034 2.33723C13.5944 3.33206 14.0899 4.53714 14.0899 5.95248V7.77898H14.9284C15.554 7.77898 16.0896 8.00173 16.5351 8.44723C16.9806 8.89273 17.2034 9.42831 17.2034 10.054V19.9105C17.2034 20.5361 16.9806 21.0717 16.5351 21.5172C16.0896 21.9627 15.554 22.1855 14.9284 22.1855H3.07187C2.44621 22.1855 1.91063 21.9627 1.46513 21.5172C1.01963 21.0717 0.796875 20.5361 0.796875 19.9105V10.054C0.796875 9.42831 1.01963 8.89273 1.46513 8.44723C1.91063 8.00173 2.44621 7.77898 3.07187 7.77898ZM3.07187 19.9105H14.9284V10.054H3.07187V19.9105ZM9.00012 16.9822C9.55013 16.9822 10.021 16.7864 10.4126 16.3947C10.8043 16.0031 11.0001 15.5322 11.0001 14.9822C11.0001 14.4322 10.8043 13.9614 10.4126 13.5697C10.021 13.1781 9.55013 12.9822 9.00012 12.9822C8.45012 12.9822 7.97929 13.1781 7.58762 13.5697C7.19596 13.9614 7.00012 14.4322 7.00012 14.9822C7.00012 15.5322 7.19596 16.0031 7.58762 16.3947C7.97929 16.7864 8.45012 16.9822 9.00012 16.9822Z" fill="#32D499" fill-opacity="0.8"/>
</svg>
