<svg width="167" height="186" viewBox="0 0 167 186" fill="none" xmlns="http://www.w3.org/2000/svg">
<path d="M77.441 105.985C80.1373 108.958 81.3732 112.267 81.3732 116.418V118.83L78.6487 120.12C75.9524 121.382 66.0096 125.645 65.7849 125.645C65.7287 125.645 66.3466 124.215 67.1892 122.476C68.0038 120.765 69.2677 117.624 69.9979 115.549C71.318 111.679 73.2279 104.667 73.2279 103.601C73.2279 103.293 73.3122 102.928 73.3964 102.844C73.6773 102.564 75.9805 104.331 77.441 105.985Z" fill="white"/>
<path d="M67.0488 102.339C67.0488 103.854 66.8522 106.21 66.6275 107.584C66.1219 110.388 64.6052 115.128 63.566 117.147L62.8638 118.494L62.8358 109.014V99.5627H64.9423H67.0488V102.339Z" fill="white"/>
<path d="M37.417 96.7581C42.0233 97.0386 45.6184 97.2349 51.9661 97.5154L56.0949 97.6837V109.828V121.943L55.1961 121.719C54.6905 121.579 53.7356 121.354 53.1176 121.186C51.0673 120.653 47.0228 120.513 44.1298 120.878C41.8548 121.158 37.5575 122.224 35.5352 122.981C35.142 123.121 35.1982 122.897 35.7599 121.438C37.5575 117.007 36.9957 110.753 34.3275 105.452C33.0355 102.9 31.1536 100.488 28.6258 98.1324L26.4631 96.1411L29.8335 96.3094C31.6873 96.4216 35.1139 96.6179 37.417 96.7581Z" fill="white"/>
<path d="M38.9618 59.8779C41.5177 60.1022 44.0456 60.3546 44.5792 60.4388C45.5342 60.551 47.5283 60.7192 51.3201 60.9997C59.999 61.6448 82.3562 63.5519 83.6482 63.7482C84.238 63.8323 84.3504 64.0567 84.5189 65.2346C84.6032 65.9918 84.8279 67.4783 84.9964 68.5721C85.1649 69.6378 85.3053 72.7509 85.3053 75.4994C85.3053 83.24 84.2661 88.1481 81.5136 93.3085C80.8114 94.6266 80.2497 95.7485 80.2497 95.7765C80.2497 95.8326 80.8395 95.6924 81.5698 95.468C82.2719 95.2437 83.3392 95.0754 83.9572 95.0754H85.0245V98.4689C85.0245 102.311 85.193 102.171 82.9179 100.096C72.2168 90.5881 48.1743 86.0446 30.9009 90.2796C29.7774 90.56 28.8505 90.7283 28.8505 90.6722C28.8505 90.5923 29.3568 89.8553 29.9848 88.941L30.0863 88.7931C31.7996 86.4373 33.7657 82.2304 34.496 79.5099C35.2262 76.7334 35.5071 71.8534 35.0577 69.4695C34.5241 66.665 33.4287 63.664 32.0805 61.3082L30.8447 59.1206L32.5861 59.2889C33.541 59.373 36.4059 59.6535 38.9618 59.8779Z" fill="white"/>
<path d="M52.4436 27.2045C59.9709 27.9897 71.0091 29.392 71.2337 29.6164C71.318 29.7005 71.3742 31.6357 71.3742 33.8794C71.3461 37.1327 71.2057 38.4789 70.7282 40.2458C69.9979 43.0223 67.7791 47.5377 66.0938 49.7533C65.3917 50.6788 64.858 51.4641 64.9142 51.5202C64.9704 51.5763 66.3747 51.4361 68.0599 51.1837C69.7451 50.9593 72.6943 50.6508 74.6323 50.4825L78.1432 50.2021L79.4913 51.6324C80.7552 52.9786 82.7775 56.4563 82.7775 57.2977C82.7775 57.522 81.6821 57.1294 79.7722 56.1758C71.0652 51.9128 59.353 51.0434 48.0901 53.848C46.2363 54.2967 44.6354 54.6894 44.523 54.6894C44.4388 54.6894 44.8882 53.7639 45.5903 52.642C49.7191 45.7708 50.2247 37.4973 46.9666 30.7102C46.461 29.6164 45.5342 28.1861 44.9724 27.513L43.9051 26.2789L45.2814 26.4472C46.0678 26.5594 49.2697 26.896 52.4436 27.2045Z" fill="white"/>
<path d="M81.654 17.2482C85.1368 17.6408 89.3779 18.1457 91.0632 18.37C92.7765 18.5944 96.3154 19.0712 98.9275 19.4077L103.702 20.0247L105.696 22.016C109.32 25.6619 111.623 29.6445 112.859 34.3562C113.701 37.5814 113.786 43.6393 112.999 46.5561C112.465 48.5473 110.893 52.1653 110.584 52.1653C110.471 52.1653 109.769 51.6885 109.039 51.0715C105.247 47.9303 97.3546 45.0136 90.9227 44.3685C88.0579 44.0881 79.6879 44.1161 77.441 44.4246C75.6715 44.649 75.6434 44.649 76.0647 44.1441C77.1039 42.9382 78.4802 39.2081 79.1543 35.7024C79.5756 33.4867 79.3509 28.4946 78.733 26.2228C78.0308 23.7548 76.3456 20.3052 74.857 18.2859C74.0986 17.3043 73.5088 16.4629 73.5088 16.3788C73.5088 16.2946 73.9301 16.3227 74.4357 16.4068C74.8763 16.4845 77.6854 16.801 80.8536 17.158L81.654 17.2482Z" fill="white"/>
<path d="M67.0488 17.7811V24.0914L65.0265 24.0353L62.9762 23.9792L62.9481 22.016C62.92 20.1089 62.8919 20.0528 61.8527 19.2114C60.8416 18.3981 60.7573 18.37 58.061 18.4541C55.814 18.5102 54.9714 18.3981 53.7356 17.9493C51.8818 17.2482 49.8876 15.2009 49.2697 13.3218L48.8204 12.0597L49.7472 12.7608C51.7414 14.2753 54.3254 14.668 57.2183 13.8827C59.1844 13.3498 60.2237 13.3498 61.6842 13.8827L62.8358 14.2753V12.9011V11.4988H64.9423H67.0488V17.7811Z" fill="white"/>
<path d="M94.8549 6.95537V13.9107L93.254 13.7144C92.3552 13.6022 91.4002 13.49 91.1474 13.49C90.7261 13.462 90.6419 13.1815 90.6419 11.4146V9.36731L89.1533 8.89052C88.1421 8.55397 86.822 8.44177 84.884 8.46982C82.3562 8.49786 81.9349 8.44179 80.6429 7.76869C79.0138 6.95537 77.441 5.2726 76.4298 3.30939C75.5592 1.59859 75.5872 1.4023 76.5422 2.3278C77.6376 3.36549 79.9407 4.20688 81.6821 4.20688C82.4686 4.20688 83.9852 3.92641 85.0806 3.6179C86.9905 3.02895 88.9286 3.0009 90.1644 3.50572C90.5857 3.674 90.6419 3.50572 90.6419 1.85101V0H92.7484H94.8549V6.95537Z" fill="white"/>
<path d="M94.9111 55.2503C102.495 56.8209 110.331 59.5974 118.027 63.4677C126.256 67.5905 135.693 75.1348 141.648 82.3706C142.968 83.9692 144.035 85.3435 143.979 85.3715C143.923 85.4276 142.687 86.241 141.227 87.1665L138.586 88.8773L137.716 88.0359C136.452 86.8019 132.351 84.3338 129.205 82.9035C124.599 80.8562 120.274 79.7063 114.207 78.949C112.297 78.7247 110.696 78.5283 110.668 78.5283C110.612 78.5283 110.584 78.2479 110.584 77.8833C110.584 77.0139 109.629 74.6019 108.252 71.9376C105.331 66.3004 100.22 60.9997 93.0573 56.1197C91.653 55.1662 90.6138 54.4089 90.7261 54.4089C90.8104 54.4089 92.6922 54.7735 94.9111 55.2503Z" fill="white"/>
<path d="M96.2312 66.693C100.613 72.4704 103.421 78.4723 104.32 83.8571L104.77 86.6616H109.741C112.494 86.6616 115.134 86.7458 115.611 86.8299L116.51 87.0262L116.341 88.5968C116.117 90.4759 115.274 93.1963 114.516 94.4303L113.982 95.3558L112.915 94.3462C108.786 90.532 102.073 88.7651 93.928 89.354C91.9339 89.4943 90.2486 89.5504 90.1925 89.4943C90.1363 89.4382 90.1925 89.2419 90.3329 89.0736C90.9227 88.2883 92.0181 84.8387 92.4675 82.3145C93.4225 76.9578 92.6079 66.8332 90.7823 61.7289C90.5576 61.0558 90.361 60.4388 90.361 60.3546C90.361 59.8779 94.3213 64.1689 96.2312 66.693Z" fill="white"/>
<path d="M93.9561 94.234H95.1358V99.6469V105.06L93.254 105.845C92.1866 106.294 91.1755 106.686 91.007 106.771C90.7261 106.883 90.6419 105.508 90.6419 100.404V93.8694L91.7092 94.0657C92.2709 94.1499 93.282 94.234 93.9561 94.234Z" fill="white"/>
<path d="M157.685 83.6327C158.416 84.3058 158.556 85.7081 157.994 86.4653C157.629 86.9421 145.131 95.1595 132.211 103.461C124.768 108.257 125.385 107.556 125.048 111.202C124.739 114.399 124.599 115.437 124.037 118.494C122.717 125.758 120.807 131.731 117.718 138.182L115.948 141.912H113.111H110.247L111.033 140.566C114.46 134.816 117.212 126.907 118.982 117.793C119.515 115.156 120.695 107.528 120.695 106.827C120.695 106.686 119.768 106.574 118.616 106.574C113.448 106.574 104.573 108.902 95.3605 112.632C92.945 113.614 90.8946 114.427 90.7823 114.427C90.698 114.427 90.6699 113.221 90.698 111.735L90.7823 109.07L93.0293 108.089C98.8994 105.508 107.859 102.508 112.409 101.582C115.415 100.965 117.69 100.909 120.358 101.358C121.79 101.61 123.419 102.003 123.953 102.227L124.908 102.62L127.857 100.741C139.597 93.2524 144.85 89.8869 149.625 86.6897C155.579 82.7072 156.393 82.4267 157.685 83.6327Z" fill="white"/>
<path d="M105.921 98.1604C106.988 98.8616 107.915 99.5627 107.972 99.703C108 99.8712 106.708 100.46 105.022 101.077C103.365 101.666 101.849 102.227 101.68 102.283C101.399 102.395 101.315 101.638 101.315 99.0299V95.6363L102.663 96.2533C103.393 96.5899 104.854 97.4593 105.921 98.1604Z" fill="white"/>
<path d="M103.028 116.362C102.719 116.783 101.287 118.325 99.8544 119.756C91.8496 127.749 82.7213 133.106 70.1103 137.228C65.4759 138.743 59.2406 140.033 53.9603 140.538C47.2194 141.211 36.6025 140.257 30.8728 138.49C30.0863 138.266 29.7774 137.845 28.5135 135.377C27.1653 132.685 21.267 120.036 21.267 119.84C21.267 119.784 22.5028 119.756 24.0195 119.756H26.8002L28.9348 124.159C30.0863 126.599 31.6311 129.796 32.3052 131.283L33.541 133.975L35.6195 134.312C38.9337 134.844 46.6857 135.237 50.1966 135.041C56.9375 134.648 63.0043 133.442 69.4362 131.255C74.0986 129.656 77.6095 128.085 85.4458 124.159C92.5799 120.597 102.972 115.605 103.365 115.577C103.506 115.549 103.337 115.913 103.028 116.362Z" fill="white"/>
<path d="M108.449 125.673C106.82 128.618 103.478 130.862 98.5343 132.236C95.6694 133.021 94.883 133.021 96.9895 132.208C99.7421 131.17 106.455 126.711 108.309 124.692C109.292 123.626 109.348 123.991 108.449 125.673Z" fill="white"/>
<path d="M29.3561 144.436C30.6481 144.745 33.204 145.614 35.0577 146.399C38.8776 147.97 41.7143 148.643 44.495 148.643C47.0509 148.643 49.1855 148.11 53.2019 146.455C58.7351 144.184 59.3811 144.015 63.8188 144.015C68.2565 144.015 69.7732 144.352 74.2391 146.399C80.6991 149.372 84.3785 149.372 91.6249 146.343C96.9333 144.128 97.4108 144.015 102.579 144.015L102.586 144.015C107.017 144.043 107.102 144.044 109.881 145.053C111.426 145.586 113.757 146.511 115.078 147.044C117.746 148.166 120.133 148.643 123.082 148.643C125.666 148.643 127.745 148.11 132.042 146.399C137.772 144.128 139.513 143.763 144.428 143.763C149.54 143.735 151.338 144.128 157.489 146.427C161.224 147.802 164.932 148.923 166.87 149.26C167.263 149.316 166.814 149.933 164.848 152.008L162.32 154.673L159.286 153.635C157.601 153.074 154.708 152.093 152.855 151.448C149.653 150.354 149.259 150.27 145.411 150.129C140.356 149.933 138.221 150.326 133.166 152.317C128.419 154.196 125.582 154.813 121.959 154.673C118.504 154.561 116.398 154.084 112.409 152.457C107.634 150.55 106.174 150.214 102.158 150.214C98.1692 150.185 97.1019 150.438 92.5518 152.457C86.2322 155.262 80.5867 155.43 74.6323 152.962C65.8972 149.316 62.4987 149.176 55.1961 152.121C50.8707 153.888 48.9327 154.42 45.9555 154.673C43.0063 154.925 39.7482 154.392 35.8722 153.074C28.8224 150.634 27.7551 150.354 24.6936 150.017C22.3062 149.765 20.8457 149.765 18.4021 150.017C14.6947 150.382 13.7678 150.634 8.3751 152.597L4.35866 154.084L2.1117 151.756C0.875872 150.494 -0.0790853 149.4 0.00517566 149.316C0.0613496 149.232 1.43761 148.839 3.03857 148.391C4.63953 147.942 6.8584 147.241 7.9257 146.82C12.223 145.165 14.7508 144.352 16.6327 143.987C19.4975 143.483 26.3788 143.707 29.3561 144.436Z" fill="white"/>
<path d="M68.9868 156.636C70.0822 156.86 72.3853 157.618 74.0705 158.319C78.5364 160.17 80.3058 160.506 84.1818 160.338C87.6085 160.17 88.5072 159.945 93.7595 157.926C97.6355 156.44 100.051 156.075 103.112 156.468C104.404 156.636 106.118 157.029 106.96 157.281L108.421 157.786L107.466 158.375C106.034 159.244 97.2423 163.367 95.0234 164.18C91.6811 165.442 88.0298 166.031 83.7044 166.031C81.5417 166.031 79.0419 165.891 78.1151 165.723C73.9582 164.994 69.2115 163.199 62.4144 159.777L58.4823 157.814L59.4653 157.393C62.2459 156.243 65.813 155.963 68.9868 156.636Z" fill="white"/>
<path d="M32.0805 156.945C35.3948 157.421 44.8601 159.721 50.337 161.404C60.645 164.517 73.6492 170.238 82.1596 175.371L84.7717 176.941L86.3726 175.875C90.1363 173.379 100.332 168.275 107.494 165.274C113.111 162.946 118.841 161.039 126.031 159.16C134.429 156.945 138.025 156.412 144.148 156.384C149.287 156.384 151.394 156.608 155.944 157.674L158.472 158.263L155.832 160.759C154.062 162.441 153.051 163.199 152.742 163.087C151.759 162.694 145.945 162.329 143.445 162.498C140.833 162.666 134.851 163.507 132.632 164.04C120.274 167.013 112.831 169.677 102.579 174.866C97.0176 177.67 91.7373 180.868 87.4399 183.981L84.6593 186L83.3673 185.074C72.2449 177.222 62.8358 172.426 49.7753 168.051C41.8829 165.386 35.3105 163.844 27.4462 162.75C25.1711 162.441 16.8574 162.526 15.2283 162.89L13.824 163.199L11.24 160.619C8.7964 158.207 8.68405 158.038 9.27388 157.814C9.89179 157.59 14.8351 156.636 16.7731 156.384C18.7111 156.131 29.0471 156.524 32.0805 156.945Z" fill="white"/>
</svg>
