<svg xmlns="http://www.w3.org/2000/svg" width="22" height="18" viewBox="0 0 22 18" fill="none">
    <path fill-rule="evenodd" clip-rule="evenodd" d="M1.65041 14.9295C-0.080296 14.4382 -0.374175 13.4242 0.416914 12.84C1.14843 12.2983 2.39225 11.8938 2.39225 11.8938L7.52876 10.0723V12.1477L3.83226 13.4668C3.17857 13.7034 3.07851 14.0314 3.60987 14.2041C4.14122 14.3767 5.10149 14.3279 5.75438 14.0945L7.52717 13.4527V15.3096C7.41519 15.3301 7.28889 15.3498 7.17372 15.3687C5.32397 15.6682 3.42859 15.5175 1.65041 14.9295ZM12.4874 15.1456L18.2513 13.1033C18.9058 12.8668 19.0059 12.5404 18.4745 12.3676C17.9432 12.195 16.9829 12.2439 16.33 12.478L12.4889 13.8233V11.6793L12.7114 11.6044C13.5792 11.3257 14.4738 11.1373 15.3809 11.0422C16.9416 10.8711 18.8526 11.0659 20.3522 11.6304C22.0432 12.1619 22.2338 12.9449 21.8041 13.4842C21.3744 14.0235 20.3212 14.4075 20.3212 14.4075L12.4889 17.2059L12.4874 15.1456ZM13.1617 1.85385C16.1966 2.89388 17.2252 4.1886 17.2252 7.10605C17.2252 9.94855 15.4667 11.0265 13.2332 9.95015V4.64908C13.2332 4.02773 13.1188 3.45528 12.5342 3.29286C12.0863 3.14935 11.8083 3.5649 11.8083 4.18622V17.4527L8.22453 16.3173V0.5C9.74875 0.782282 11.9687 1.4462 13.1617 1.8507V1.85385ZM20.8661 16.374C20.8687 16.3948 20.8662 16.416 20.8587 16.4356C20.8512 16.4553 20.839 16.4728 20.8232 16.4867C20.784 16.5109 20.7382 16.5224 20.6922 16.5199H20.4166V16.2368H20.7088C20.7415 16.2356 20.774 16.2415 20.8041 16.2542C20.8253 16.2657 20.8425 16.2834 20.8535 16.3047C20.8646 16.3261 20.869 16.3502 20.8661 16.374ZM21.0639 17.019C21.056 17.0143 21.0493 17.0078 21.0442 17.0002C21.0391 16.9926 21.0358 16.9839 21.0345 16.9749C21.0287 16.949 21.026 16.9225 21.0265 16.896L21.021 16.7675C21.0232 16.7206 21.0111 16.6741 20.986 16.6342C20.9693 16.6145 20.9491 16.598 20.9265 16.5853C20.9563 16.5661 20.9819 16.5412 21.0019 16.512C21.0292 16.4657 21.0427 16.4127 21.0408 16.359C21.0447 16.308 21.0327 16.257 21.0065 16.213C20.9802 16.169 20.9409 16.1341 20.8939 16.113C20.8343 16.0886 20.7701 16.077 20.7056 16.0792H20.2442V17.0805H20.4166V16.6697H20.6881C20.7241 16.6677 20.7601 16.6731 20.7938 16.6855C20.8124 16.6961 20.8277 16.7117 20.8377 16.7306C20.8476 16.7494 20.852 16.7707 20.8502 16.7919L20.8581 16.9496C20.8585 16.976 20.8609 17.0024 20.8653 17.0285C20.8677 17.0416 20.872 17.0544 20.878 17.0663L20.8843 17.0781H21.0766V17.0198L21.0639 17.019ZM19.8812 16.6011C19.8805 16.4031 19.9588 16.2129 20.0988 16.0721C20.1671 16.0025 20.2488 15.9472 20.3389 15.9094C20.4291 15.8717 20.526 15.8522 20.6238 15.8522C20.7217 15.8522 20.8185 15.8717 20.9087 15.9094C20.9989 15.9472 21.0806 16.0025 21.1488 16.0721C21.2524 16.1767 21.3228 16.3091 21.3514 16.4531C21.3799 16.5969 21.3653 16.746 21.3095 16.8818C21.2537 17.0176 21.1589 17.1342 21.0371 17.2172C20.9152 17.3001 20.7715 17.3458 20.6238 17.3486C20.526 17.3487 20.4292 17.3293 20.339 17.2917C20.2488 17.254 20.1672 17.1989 20.0988 17.1294C19.959 16.9887 19.8807 16.7988 19.8812 16.6011ZM20.6238 17.5C20.7414 17.5002 20.8578 17.4769 20.9662 17.4315C21.0745 17.3861 21.1726 17.3196 21.2545 17.2358C21.422 17.0661 21.5157 16.8379 21.5157 16.6003C21.5157 16.3627 21.422 16.1345 21.2545 15.9648C21.1724 15.8813 21.0743 15.815 20.966 15.7698C20.8577 15.7245 20.7413 15.7013 20.6238 15.7015C20.4463 15.7047 20.2735 15.7597 20.1271 15.8594C19.9806 15.9591 19.8668 16.0993 19.7997 16.2626C19.7326 16.4258 19.7152 16.605 19.7496 16.778C19.784 16.951 19.8686 17.1101 19.9932 17.2358C20.0752 17.3196 20.1732 17.3861 20.2815 17.4315C20.3898 17.4769 20.5063 17.5002 20.6238 17.5Z" fill="white"/>
</svg>