<svg width="81" height="114" viewBox="0 0 81 114" fill="none" xmlns="http://www.w3.org/2000/svg">
<path fill-rule="evenodd" clip-rule="evenodd" d="M32.931 0.758395C16.9429 3.04404 1.82366 13.5932 0.375468 35.0431C-0.667232 51.0427 -0.551321 51.1598 14.6258 48.0537C27.4278 45.4164 26.7326 46.1197 26.7326 36.2738C26.7326 27.8931 29.0496 23.146 35.3638 19.8641C49.3823 12.6555 59.4618 31.6439 59.4618 37.6217C59.4618 44.1857 54.8274 47.6434 40.2296 51.9217C28.2965 55.4381 24.4733 60.4197 24.0099 72.9028C23.894 76.595 23.4888 79.5253 23.0833 79.9942C21.2875 82.2212 27.5435 84.2725 34.2052 83.6864C54.1903 81.8696 53.9007 82.0454 52.8001 74.4266C52.1049 69.6795 52.5683 68.9762 57.3183 67.511C68.788 63.9946 75.3339 57.3135 78.8096 45.5923C87.9042 15.3514 67.9193 -4.16454 32.931 0.758395ZM51.6415 4.27478C64.6753 6.20879 76.8402 23.2632 74.581 36.5669C72.4956 48.8742 65.8917 56.4344 52.7421 61.416C46.37 63.8189 44.3425 66.8664 44.2846 74.0164V78.0016C37.2174 78.7048 36.754 78.7048 32.1198 79.4081C32.9308 62.1192 31.7724 60.361 52.916 52.8594C66.1815 48.1709 69.0779 36.9771 60.4467 23.9665C46.6019 3.10264 10.9762 16.9337 17.7538 40.5521C18.0434 41.6656 18.2173 42.6619 18.1014 42.7791C17.9276 42.955 10.3969 44.6545 9.81758 44.6545C9.75965 44.6545 9.35421 37.4459 9.00665 34.9845C5.93648 13.8276 28.1229 0.875607 51.6415 4.27478ZM29.629 90.3675C19.202 95.1732 18.7964 108.067 28.9337 111.759C49.1505 119.143 67.4559 107.012 56.0441 93.8253C52.6843 89.84 35.5376 87.613 29.629 90.3675ZM44.4585 93.8839C49.0928 94.5871 53.1477 98.338 53.1477 101.854C53.1477 108.36 37.3914 111.583 31.7144 106.25C28.9339 103.613 28.0071 91.3638 44.4585 93.8839Z" fill="#32D499"/>
</svg>
