<svg xmlns="http://www.w3.org/2000/svg" width="64" height="75" viewBox="0 0 64 75" fill="none">
    <path d="M0 46.3119V42.2498H1.00369C1.88127 41.1147 3.03211 40.1793 3.96223 39.0022C4.07784 39.1756 4.23023 39.307 4.26176 39.4594C4.50349 40.4421 4.99745 41.3407 5.6806 42.0816C6.11676 42.6071 6.67378 43.1011 6.86822 43.8893L5.58075 44.0049L7.05214 45.3449L4.7242 45.6707C4.91863 46.1384 5.12883 46.5536 5.51244 46.706L7.77207 46.2751L8.1767 46.9319L10.2892 46.6587L11.0301 47.3996C11.4348 47.3208 11.9077 47.1947 12.3754 47.1421C13.2687 47.0475 14.1673 46.995 15.0607 46.9162C15.1605 46.9109 15.2604 46.8794 15.3392 46.8216C15.5336 46.6639 15.8069 46.6639 16.0013 46.8216C16.1852 46.9057 16.3902 46.9424 16.5899 46.9372C17.2257 46.9372 17.8616 46.9372 18.7181 46.9372L19.2279 46.254L19.7271 46.9424C19.7901 46.8794 19.8164 46.8268 19.8427 46.8268L22.6856 46.6587L22.9431 45.6655L24.8086 44.9088V43.7632C25.9594 43.5688 28.4608 44.1678 30.1214 44.4674C28.5396 45.9598 27.394 47.7675 26.2958 49.6067C26.6636 49.9745 26.3536 50.4685 26.4849 50.8784C26.6163 51.2883 26.8896 51.6929 27.0682 52.1343C27.2469 52.5757 27.2942 52.9488 27.4151 53.406L28.692 53.1012C29.0178 53.4691 29.3646 53.8107 29.7377 54.1312C30.1424 54.415 30.589 54.6409 31.0515 54.8091C31.3878 54.8669 31.7294 54.8091 32.0237 54.6409C33.1114 54.3256 34.2728 54.3151 35.3658 54.6147C35.9228 54.746 36.4956 54.7933 37.0474 54.8722L37.6307 53.9998L39.8745 54.7408C40.0847 54.1785 39.7116 53.6688 39.6486 53.1748C38.9865 52.4969 37.9617 52.8122 37.3206 52.1291L39.2912 50.437C39.1546 49.9745 38.9392 49.6067 38.8078 49.1863C38.4715 48.2614 38.0826 47.3523 37.6359 46.4748C37.5308 46.2698 37.4362 46.0596 37.3574 45.8442C37.0999 45.0296 36.7163 44.2624 36.3853 43.4742C36.2434 43.0906 35.9281 42.8015 35.534 42.6964C34.6932 42.481 33.9365 42.0133 33.3689 41.3512L32.2706 43.1116L30.8833 42.4232L29.6274 43.6896L25.6074 43.1957C25.6074 43.1221 25.6074 43.0695 25.6074 43.0538C26.238 42.3812 26.8685 41.719 27.5149 41.0254C27.5149 40.7521 27.6305 40.4211 27.2574 40.1425C28.4766 39.4174 29.2438 38.2928 29.9006 37.0947H30.6416C30.8098 36.8372 30.5943 36.4641 30.9622 36.3275C31.6138 36.0857 31.9553 35.4761 32.4546 35.0452C32.5649 34.9034 32.6595 34.7562 32.7488 34.5986L29.6537 36.2696L28.1613 35.865C28.1455 36.0332 28.1455 36.2066 28.1613 36.3747C28.2033 36.5534 28.2611 36.7268 28.3294 36.9002C26.9579 37.5098 25.5496 37.9355 24.4303 38.7868H22.6383C22.0865 37.9039 21.1827 37.5256 20.2 37.226L20.3261 36.8582C20.9567 37.2418 21.6294 37.0474 22.4964 37.1209L23.1638 38.0038C23.7944 37.7463 24.4303 37.7095 24.9768 37.3206C25.5075 36.9843 26.0593 36.69 26.6321 36.4325C26.6689 34.7562 27.0262 33.1009 27.6936 31.5612L27.0472 29.743C25.9857 29.1965 25.0188 28.6762 23.9993 28.1613C22.9799 27.6463 22.013 27.1155 20.9935 26.6583C20.3787 26.3798 18.5132 25.3604 18.0823 24.9137C19.0071 25.1134 19.911 25.3972 20.7833 25.7598C21.6924 26.0593 22.5437 26.5112 23.4633 26.7687C24.3199 27.0104 25.0871 27.4939 26.0225 27.5832L24.7455 26.7687C24.7928 25.8543 24.3672 24.9557 24.5143 24.0099C24.5143 23.9415 24.5459 23.8417 24.5143 23.7997C24.1097 23.2952 24.3935 22.7434 24.2884 22.1759H25.8859L26.5007 20.9042H27.8039C28.9495 20.3156 29.9795 19.5221 30.8308 18.5552H31.9238C32.5649 18.1506 33.2008 17.6987 33.8524 17.2835C34.3779 16.9419 34.9927 17.1154 35.5497 17.0576L37.1262 15.7754H37.8829L38.2875 15.1342H39.6538C39.8167 14.6613 40.1793 14.5825 40.5734 14.4984C41.409 14.3513 42.2077 14.057 42.9434 13.6313C43.8 13.0848 44.5672 12.4122 45.3817 11.7711C45.7443 12.1442 46.2856 12.2861 46.7848 12.1337C47.3471 11.934 47.8883 11.687 48.4086 11.3927L48.3613 11.2929H49.6382L50.8153 10.41C51.4144 10.7516 51.9452 10.6623 52.581 10.3102C53.2169 9.95813 54.0629 9.7269 54.7723 10.4836H56.1228C56.0966 10.6308 56.0966 10.7831 56.1228 10.9355C56.7482 12.4174 57.1896 13.9782 57.9621 15.4022C58.0199 15.5704 58.0409 15.7491 58.0304 15.9277L56.1333 16.2693V16.5321L59.754 17.3466C59.8854 17.9456 60.001 18.5973 60.1586 19.2384C60.2637 19.89 60.4792 20.5258 60.7892 21.1091C61.3988 22.0287 61.9663 22.9746 62.618 23.868C63.0489 24.3935 63.506 24.8979 63.9948 25.3709V25.5863C63.5428 25.7282 63.8581 26.1171 63.753 26.4009C63.2328 27.6463 62.8807 28.9495 62.4393 30.2212C62.2921 30.6101 62.2501 31.0305 62.3132 31.4403C62.5549 32.8855 62.5864 33.3794 62.2869 34.3516C62.0662 34.835 61.9138 35.35 61.8455 35.8808C61.8139 36.112 61.7088 36.3222 61.5459 36.4904C61.0835 37.0421 60.5948 37.5729 60.1271 38.1141C60.248 38.5555 60.1797 38.9444 60.3058 39.3753C60.7104 40.7679 61.5459 41.9923 61.877 43.4111C61.9401 43.574 62.0714 43.7001 62.2291 43.7579C62.5602 43.863 62.8965 43.9471 63.238 44.0154L64 44.625V45.902C63.5638 46.4064 63.3379 47.0738 62.7809 47.4627C61.8875 48.1406 61.0572 48.8973 60.3058 49.7276C60.227 49.8011 60.1692 49.9062 60.0798 49.9483C59.1444 50.3792 58.9237 51.1884 58.9027 52.1133C58.9027 52.4339 58.9027 52.7492 58.9027 53.0539L58.1145 53.8369C57.7519 55.282 57.6573 56.7745 56.2017 57.7676C56.1596 57.1791 55.8338 56.6536 55.3293 56.3488H54.5148C53.2747 55.6341 53.0855 55.4975 52.3498 54.3782C52.1343 54.1102 52.0292 53.7686 52.0503 53.427C52.1396 53.1012 52.1501 52.7597 52.0923 52.4286C52.0187 52.0082 52.0135 51.5773 52.066 51.1517C52.087 50.7365 51.9294 50.3371 51.6299 50.0534C51.4512 49.88 51.283 49.7013 51.1149 49.5279C50.7575 49.4963 50.3949 49.5016 50.0376 49.5489C49.7013 49.6487 49.3755 49.7854 49.0707 49.9535L48.2562 49.5174V50.7365L48.5505 50.8101C48.9551 51.6246 48.9551 51.6246 48.6608 52.3656L49.2231 53.5006L48.1353 54.0787L48.9866 54.7776C48.5242 55.5921 48.0618 56.354 48.2562 57.2684L46.5693 59.4965C46.1752 59.6384 45.7653 59.7172 45.3502 59.733C44.9981 59.6121 44.6723 59.4334 44.378 59.2075C44.3938 59.1129 44.3938 59.0183 44.378 58.9237C43.7001 57.2316 43.2009 55.4712 42.8909 53.6793C42.4862 53.117 42.5335 52.3288 42.0028 51.9346C41.2724 52.4128 41.9187 53.2694 41.3775 53.7896C41.7821 54.2258 41.5246 54.7566 41.7085 55.1822L43.3323 58.9447C43.3323 59.4702 43.3323 60.1639 43.3323 60.8102C43.306 61.2937 43.4952 61.7666 43.8473 62.0977C43.9944 62.2816 44.131 62.4708 44.2519 62.6758L45.1242 62.9911L45.6707 62.2764V61.8717L46.2173 61.0572H46.6219L47.1737 61.8717V64.3573C46.8163 64.7357 46.4905 65.1403 46.2067 65.5765C45.9282 66.0862 45.3555 66.2281 45.0717 66.6905C44.9929 66.8377 44.9088 66.9796 44.8194 67.1162C44.378 67.6627 44.3097 68.3353 44.1941 68.9869C44.0049 69.9539 43.7369 70.905 43.3796 71.8299L41.8714 72.4184C41.6927 71.7878 42.4284 72.0348 42.4547 71.5724C42.213 71.2939 41.9555 70.9365 41.6402 70.6265C40.9676 69.9328 40.2897 69.2602 39.6118 68.5981C39.307 68.2828 39.1021 67.8834 39.0232 67.4525C38.8341 66.638 38.8656 65.6501 37.8041 65.3663V64.4414C38.1194 64.494 38.4242 64.5991 38.7079 64.7462C38.9917 64.9459 39.349 64.9984 39.6801 64.8881C39.1231 64.1576 38.9339 63.2328 38.2245 62.7441V61.3935C39.039 61.3042 39.6433 60.6579 40.6628 60.8786L40.2582 60.4371H37.9407L36.5534 61.4986H34.5776C34.3568 62.5286 34.1361 63.5638 33.9154 64.5938L34.7562 64.9774V66.0757C34.1309 66.9533 33.432 67.7678 32.6542 68.514L33.7736 69.8277C33.5003 70.3164 33.2008 70.863 32.8329 71.5303L33.0904 73.6218C32.0499 73.7795 30.9832 73.6376 30.0163 73.2172C29.5801 73.6218 28.9442 73.6218 28.5869 74.1H28.2033C28.2821 72.7442 28.0667 71.3832 28.3925 70.0379C28.4766 69.3968 28.4818 68.7557 28.4188 68.1146L27.8039 66.9323V65.6868L29.1912 64.9669L29.454 63.774L29.1807 63.2958L27.31 62.7493V61.7141C26.548 61.5249 25.9279 60.9416 25.0188 61.1361C24.7508 61.3568 24.4408 61.6248 24.1202 61.8717C23.7997 62.1187 23.642 62.5601 23.1165 62.6127V61.2096H23.0114L22.8222 60.5317L23.4791 60.1271L23.7366 59.5386C23.3372 59.2022 22.8012 59.0814 22.2967 59.2075C21.8028 59.6909 21.251 60.1481 21.3719 60.9574C21.1039 61.299 20.9988 61.7719 20.5416 61.9506C20.3787 62.0346 20.2263 62.1397 20.0844 62.2606L20.3314 63.6795C19.6272 64.5833 18.6708 65.0825 18.345 66.144L19.0649 66.5802C19.664 66.3332 20.2 66.0757 20.7518 65.8813C21.3036 65.6868 21.7712 65.1929 22.5858 65.1771L20.426 68.1672C20.4575 69.1604 20.8569 69.9906 20.6992 70.884L19.6272 71.5724L16.8789 69.1341C17.0733 67.6049 17.2625 66.1598 17.4622 64.5833L16.8421 62.3447H16.0854C15.8752 61.5985 16.1379 60.9259 16.3534 60.3163C16.6056 59.6489 16.7107 58.9342 16.6687 58.2248C15.1921 56.6063 13.5 55.198 11.6502 54.0261L8.66541 54.9142C8.10313 53.6845 7.24132 52.6125 6.1588 51.798C5.21291 51.1411 4.70843 50.2058 4.07784 49.4491L4.28278 48.561L3.81509 47.9251C3.28434 47.7937 2.92175 47.7202 2.56967 47.6151C1.73939 47.4469 0.982675 47.0318 0.394121 46.4222C0.315297 46.3171 0.131374 46.3434 0 46.3119ZM56.3646 34.5355C56.4434 34.3726 56.5065 34.2044 56.559 34.0258C56.6273 33.7893 56.5485 33.5266 56.3541 33.3742C56.8796 33.0326 56.2384 32.7278 56.312 32.3652C56.3751 31.9974 56.3015 31.619 56.1071 31.2985C55.6499 30.6153 55.7024 29.7535 55.2926 29.1965C55.508 28.177 55.6972 27.2627 55.8759 26.4481C55.5711 25.2605 55.2873 24.1412 54.9615 22.88C54.725 23.1375 54.4465 23.2847 54.4518 23.4581C54.478 23.91 54.1207 24.0571 53.8947 24.3041C53.7949 24.4197 53.5847 24.4355 53.4901 24.5459C52.4076 25.5443 51.3251 26.548 50.2426 27.5569C50.1953 27.6042 50.19 27.6778 50.1427 27.7776L50.416 28.1455L45.8862 31.083V31.6716L44.3885 32.4861V34.6196L43.4006 35.4131H46.0911L46.9635 35.865L48.2825 35.5497C48.4191 35.2397 48.5767 34.8823 48.808 34.3779C49.0654 33.9995 49.344 33.6369 49.6382 33.2953C49.9062 33.0011 50.1164 32.5544 50.6472 32.649C51.1044 32.1918 51.7822 32.3022 52.3077 32.0131C52.3393 32.0131 52.4234 32.0604 52.4812 32.092L52.5074 32.3127C52.1659 32.4966 51.8295 32.6858 51.4775 32.8644C50.7733 33.2375 50.2373 33.8576 49.9693 34.6091C49.6277 35.5655 49.0707 36.4273 48.3455 37.1367H47.0896L46.2751 36.627V35.9018C45.1768 35.7284 44.0732 36.0857 43.0275 35.6496C42.6229 35.9649 42.1447 36.1173 41.74 36.4325C40.9571 37.0474 40.0953 37.5676 39.4384 38.3348C39.4016 38.3821 39.3228 38.3874 39.265 38.4189L37.7831 39.2807H40.111L40.6523 40.5945H45.2451L45.2188 40.9255C44.4674 41.0359 43.7474 41.204 43.0275 41.3302C41.9975 41.5351 40.9991 41.9135 39.9113 41.8084C39.5067 41.7663 39.0705 41.7138 38.5345 41.6507L39.6486 42.4652H40.7101L41.9502 43.9419L44.1889 42.3969L47.0318 44.1941L47.7044 44.0312C48.0092 44.1048 48.3245 44.1468 48.6398 44.1626C49.1495 44.1258 49.6487 44.0049 50.1532 43.9681C50.663 43.9314 51.2147 43.9681 51.7507 43.9681C52.0292 44.0259 52.3183 44.0259 52.5968 43.9681C53.4113 43.5898 54.2836 43.595 55.1139 43.3428C55.7708 43.2009 56.4013 42.9644 56.9952 42.6386C56.9689 41.6717 56.5275 40.852 56.1806 39.9481L57.878 39.0127L56.7324 38.3453L57.0109 37.226L56.5537 37.0684C56.1491 36.7531 56.9584 36.5744 56.6326 36.2171C56.5222 36.091 56.9111 35.7494 56.6746 35.4236C56.5222 35.1503 56.4171 34.8508 56.3488 34.546L56.3646 34.5355Z" fill="#32D499"/>
    <path d="M38.2086 0C38.3505 0.404631 38.8024 0.147141 39.0599 0.404633C39.2386 0.588556 39.6064 0.583301 39.906 0.667381L39.6642 1.14033L40.3264 0.861811C40.8098 1.05099 41.309 1.19288 41.8188 1.29272C42.2917 1.36629 42.6911 1.80245 43.2376 1.69735C44.2203 2.1703 45.2397 2.54865 46.2907 2.83242C46.5903 2.96904 46.9056 3.06364 47.2314 3.11093C47.883 3.0794 48.3769 3.47878 48.9445 3.65219C49.512 3.8256 50.0217 4.30906 50.5367 4.68216C51.7191 5.53872 52.8857 6.41104 54.0208 7.36744C53.2062 7.12046 52.2761 7.36744 51.5299 6.81567L49.9482 7.33065V6.11151L48.6502 6.61598L47.7148 6.13253L47.2576 7.27811C46.0385 8.49725 46.0385 8.49725 44.5303 8.69694L45.0295 7.92971C45.1451 7.5461 44.956 7.13622 44.5881 6.97857L41.5665 7.2203C41.1146 7.59866 40.8203 8.12941 40.731 8.7127C40.6364 9.20141 40.1635 9.6113 39.8797 10.0264H38.9864L37.9143 10.7096C37.7094 11.0617 37.4834 11.4032 37.2365 11.7343C36.8896 12.1389 36.485 12.491 36.1119 12.8694C35.7388 13.2477 35.2553 13.6471 35.2028 14.3145C35.1818 14.5772 34.9032 14.819 34.7614 15.0817C34.6563 15.2972 34.5669 15.5179 34.4829 15.7386L33.7209 16.0696C33.7734 14.9293 33.8733 13.9519 34.7036 13.1847C35.0504 12.8063 35.3657 12.3964 35.6442 11.9655L35.3447 11.1195C35.1713 10.9566 34.9978 10.5362 34.4566 10.6623L33.7367 11.4768V12.2545L32.1129 12.8641C32.3914 13.8363 32.3388 14.7664 31.5243 15.5704H29.9005C28.5132 17.1206 27.3729 18.7444 25.7334 19.7796L24.7244 19.6062L23.994 21.8869L22.7013 21.7082L22.4438 21.4297L22.717 20.5101H22.0444L22.0076 19.7954L23.1374 20.0581L22.6645 19.0071L24.1148 14.6928C23.9204 14.7769 23.7838 14.8347 23.6524 14.8978L21.7869 15.8016C21.5977 15.8647 21.4191 15.9435 21.2404 16.0329C19.7112 17.0418 19.5903 17.0786 17.9928 17.0838C18.1978 17.9614 19.0228 18.303 19.5273 19.0492L21.1511 18.7602L22.7118 15.9908C22.7748 16.0696 22.8589 16.1379 22.8484 16.1695C22.4438 17.4202 22.4122 18.8022 21.6293 19.9268C21.4401 20.1948 21.2614 20.4785 21.0302 20.8359C20.3786 20.5101 19.811 20.2 19.1962 19.9268C17.956 19.3487 16.7001 18.7917 15.3969 18.1979C15.4021 18.6919 15.481 19.1806 15.6386 19.6535C15.8961 20.1737 15.7385 20.6782 15.8383 21.1144L15.0501 22.3756C15.8646 22.3966 16.4689 22.7802 17.1678 22.6331C17.6933 22.528 18.0349 22.9536 18.4763 23.0902C18.8231 23.2584 19.1384 23.4844 19.4117 23.7524V24.4775L19.1121 24.7718C17.9035 24.4775 16.7106 24.1202 15.5335 23.7051C14.3144 23.3372 13.0952 23.085 11.8078 22.7644V23.7839L13.894 25.2237V25.9437L11.3348 28.5081L11.3085 29.0178C10.3679 29.5906 9.41676 30.2002 8.43408 30.7625C7.45141 31.3247 6.51077 31.7924 5.48606 32.3337L6.20599 34.5408C5.27061 34.7878 4.29844 34.3411 3.36306 34.8561C2.79553 34.2728 2.77976 33.5371 2.80078 32.7909L2.5065 32.4966L1.34516 33.3111V30.7414L2.37513 29.5223C2.37513 29.1177 2.52227 28.5974 2.33309 28.2243C2.14391 27.8565 2.33309 27.3047 1.92846 27.0052C1.90218 26.1329 1.69724 25.271 1.31888 24.4828C1.24006 24.2831 1.24006 24.0624 1.31888 23.8627C1.82336 22.7224 2.02305 21.4244 2.79553 20.4155V19.5642C3.90958 18.345 5.52285 17.7985 6.77878 16.6845H8.28169C8.53918 15.2078 10.0421 15.1448 11.0616 14.3513H11.9391C12.638 14.0307 13.2266 13.5105 13.6417 12.8589C14.6192 12.7012 15.5703 12.4279 16.4847 12.0443C17.068 11.8236 17.6408 11.5714 18.2083 11.3192C18.2819 11.2666 18.3344 11.1878 18.3449 11.0932C18.676 11.1825 19.0018 10.9723 19.2908 11.2456C19.4327 11.3454 19.6114 11.3665 19.769 11.3034C20.2682 10.8988 20.9041 10.9671 21.4558 10.7359C22.181 10.4363 22.985 10.3312 23.7155 10.0317C24.8243 9.59553 25.9751 9.31703 27.1102 8.98596C27.7092 8.85459 28.1401 8.3291 28.1454 7.71427C27.3309 8.62863 26.3377 8.8651 25.1974 8.77576C24.8558 8.74423 24.509 8.77577 24.1727 8.85459C23.5315 9.0753 22.8589 9.1909 22.181 9.19616C21.8657 9.16988 21.5504 9.19616 21.2772 9.19616L20.8725 9.84777H19.5325C19.1279 10.2524 18.718 10.636 18.3134 11.1037C17.956 11.2036 17.4989 10.925 17.1625 11.3297C16.6896 11.2456 16.2062 11.4663 15.7227 11.1878C15.4757 11.1037 15.213 11.0722 14.9555 11.1037C13.8467 10.6991 12.9638 9.6691 11.7762 10.7569V12.1442L10.7515 12.2125L9.85817 13.3633C9.16452 13.6839 8.5602 12.8589 7.89808 13.4947C7.89808 13.232 7.85604 13.0165 7.94537 12.9061C8.78616 11.8184 9.33793 10.5519 10.1104 9.42212C10.3469 9.028 10.5413 8.60761 10.6779 8.16619C10.7988 7.84564 11.051 7.5934 11.3663 7.46728C12.8482 6.74736 14.3039 5.97488 15.791 5.2602C17.0312 4.65588 18.3029 4.09361 19.7112 3.44725C20.058 3.51031 20.6361 3.22129 21.088 3.65219L22.5646 2.96905C23.2688 2.69053 23.7365 2.0179 23.7575 1.26119C24.1411 1.19813 24.53 1.1088 24.9294 1.08252C26.2484 0.998443 27.5936 1.05099 28.8863 0.825027C29.7797 0.719928 30.6783 0.662125 31.5769 0.64636C31.9815 0.614831 32.3914 0.483457 32.7645 0.441418C33.1428 0.399378 33.579 0.478204 33.9836 0.241731C34.0992 0.173417 34.3515 0.325809 34.4198 0.346828C35.0189 0.299534 35.5286 0.268004 36.0436 0.215455C36.217 0.215455 36.4955 0.367849 36.5375 0.0105121H38.2086V0Z" fill="#32D499"/>
    <path d="M33.8418 47.3734L34.3726 47.3996L34.1624 47.7359L34.567 47.8778V49.4228C34.9454 50.2583 35.2712 50.9677 35.5917 51.6929C35.907 52.4181 36.7163 52.8648 36.9633 53.7686C36.3327 53.7056 35.7441 53.9788 35.1346 53.6057C34.9822 53.5059 34.7299 53.5742 34.5145 53.5742C33.8418 53.5742 33.164 53.5742 32.4861 53.5742C32.0604 53.5532 31.6348 53.4638 31.1934 53.406V50.9152C31.4719 50.5789 31.6926 50.19 31.8397 49.7801C32.0657 49.0707 32.3494 48.3245 33.1902 48.0092C33.453 47.8988 33.6422 47.5888 33.8418 47.3734Z" fill="#32D499"/>
    <path d="M11.193 31.1724L12.0548 30.3053L12.265 30.7414L13.0007 29.9269L14.0938 29.7588L14.4248 30.4945C14.6245 30.0898 14.5825 29.5276 15.192 29.1807C14.9556 30.4682 14.635 31.7399 14.2304 32.9853C13.7942 33.5108 13.3423 34.031 12.9167 34.567C12.5646 34.9822 12.0916 35.2765 11.5661 35.4131C11.0932 35.5655 10.6202 35.6969 10.079 35.8545C10.079 35.7179 10.0317 35.5707 10.079 35.4867C10.4836 34.8718 10.8935 34.2675 11.3192 33.6369L8.88086 30.8571C9.7164 31.2827 10.4679 31.1146 11.193 31.1724Z" fill="#32D499"/>
    <path d="M18.2822 11.0616L19.5224 9.84249H20.8571L21.2618 9.19088C21.5403 9.19088 21.8556 9.19088 22.1656 9.19088C22.8435 9.18563 23.5162 9.07001 24.1573 8.84931C24.4936 8.76523 24.8351 8.73896 25.182 8.77049C26.3223 8.86508 27.3365 8.62335 28.13 7.70898C28.1247 8.32381 27.6938 8.84931 27.0948 8.98068C25.9597 9.31174 24.8089 9.59551 23.7001 10.0264C22.9644 10.3154 22.1656 10.431 21.4404 10.7306C20.8939 10.9618 20.2528 10.9092 19.7536 11.2981C19.596 11.3612 19.412 11.3402 19.2754 11.2403C18.9969 10.9565 18.6501 11.172 18.2822 11.0616Z" fill="#32D499"/>
</svg>