<svg xmlns="http://www.w3.org/2000/svg" width="19" height="19" viewBox="0 0 19 19" fill="none">
    <path d="M12.2708 0.568777C12.1526 0.512635 12.0207 0.490176 11.8901 0.50394C11.7595 0.517705 11.6355 0.567143 11.5319 0.646664L5.38333 5.34582H1.40741C1.03414 5.34582 0.67616 5.4917 0.41222 5.75138C0.14828 6.01105 0 6.36324 0 6.73047V12.2691C0 12.6363 0.14828 12.9885 0.41222 13.2482C0.67616 13.5078 1.03414 13.6537 1.40741 13.6537H5.38333L11.5319 18.3529C11.6547 18.4482 11.8066 18.5001 11.963 18.5C12.0694 18.4988 12.1744 18.4751 12.2708 18.4308C12.3896 18.3739 12.4897 18.2853 12.5597 18.1751C12.6297 18.065 12.6668 17.9376 12.6667 17.8077V1.19187C12.6668 1.06193 12.6297 0.934585 12.5597 0.824397C12.4897 0.714209 12.3896 0.625625 12.2708 0.568777Z" fill="#32D499"/>
    <path d="M15.4815 6.73047C15.2948 6.73047 15.1159 6.80341 14.9839 6.93325C14.8519 7.06309 14.7778 7.23918 14.7778 7.4228V11.5767C14.7778 11.7604 14.8519 11.9365 14.9839 12.0663C15.1159 12.1961 15.2948 12.2691 15.4815 12.2691C15.6681 12.2691 15.8471 12.1961 15.9791 12.0663C16.111 11.9365 16.1852 11.7604 16.1852 11.5767V7.4228C16.1852 7.23918 16.111 7.06309 15.9791 6.93325C15.8471 6.80341 15.6681 6.73047 15.4815 6.73047Z" fill="#32D499"/>
    <path d="M18.2963 5.34582C18.1097 5.34582 17.9307 5.41876 17.7987 5.5486C17.6667 5.67844 17.5926 5.85453 17.5926 6.03815V12.9614C17.5926 13.145 17.6667 13.3211 17.7987 13.4509C17.9307 13.5808 18.1097 13.6537 18.2963 13.6537C18.4829 13.6537 18.6619 13.5808 18.7939 13.4509C18.9259 13.3211 19 13.145 19 12.9614V6.03815C19 5.85453 18.9259 5.67844 18.7939 5.5486C18.6619 5.41876 18.4829 5.34582 18.2963 5.34582Z" fill="#32D499"/>
</svg>