<svg xmlns="http://www.w3.org/2000/svg" width="54" height="52" viewBox="0 0 54 52" fill="none">
    <path fill-rule="evenodd" clip-rule="evenodd" d="M19.9156 2.63881C19.934 7.66835 20.1844 12.7943 20.7629 17.7928C17.9952 18.0655 16.3169 18.1463 13.8232 18.4281C16.3543 23.5256 22.3909 27.2698 26.5926 29.6543C32.0308 26.3366 35.1591 20.1857 36.5672 16.7354C34.8577 16.8586 31.779 16.8154 30.1011 17.2368C29.8047 13.8127 29.3723 6.28181 28.9155 2.00012L19.9156 2.63881Z" stroke="#32D499" stroke-width="4" stroke-miterlimit="1.5" stroke-linecap="round" stroke-linejoin="round"/>
    <path fill-rule="evenodd" clip-rule="evenodd" d="M43.0968 37.551C35.6948 38.8165 28.9142 38.6063 21.4482 39.2219C19.2576 39.4024 17.0466 39.5239 14.8517 39.6252C13.392 39.6929 10.7111 40.0283 10.4814 39.3278C9.34897 36.9934 8.80103 31.6533 5.91737 32.0474C-1.42415 33.0512 3.22476 45.4675 6.39672 47.1665C13.3295 50.88 33.1383 49.1047 42.5554 47.3427C49.7431 45.9976 52.5106 41.9976 51.9237 34.8102C51.8006 33.2994 52.0455 31.0419 50.9413 29.813C49.6787 28.4078 46.0993 28.0965 45.3341 30.1124C44.4699 32.389 44.702 37.2767 43.0968 37.551Z" stroke="#32D499" stroke-width="4" stroke-miterlimit="1.5" stroke-linecap="round" stroke-linejoin="round"/>
</svg>