<svg xmlns="http://www.w3.org/2000/svg" width="15" height="16" viewBox="0 0 15 16" fill="none">
    <path d="M2.23538 2.65581L2.23409 2.65834C2.29309 2.6204 3.02625 2.21889 5.43681 4.61517C5.44709 4.62021 5.45221 4.63028 5.45221 4.64036C5.45221 4.65043 5.44709 4.66051 5.44192 4.66554C3.93116 6.46374 1.00723 10.7501 1.58276 12.5181C1.58791 12.5332 1.58791 12.5483 1.57249 12.5584C1.55707 12.5634 1.54166 12.5584 1.53138 12.5433C0.532925 11.2311 -0.00440391 9.63694 4.53891e-05 8C-0.00695115 6.00256 0.795173 4.08404 2.23024 2.66588L2.23409 2.65834C2.23096 2.66036 2.22972 2.66135 2.23024 2.66084L2.23538 2.65581Z" fill="white"/>
    <path d="M12.7646 2.65581L12.7698 2.66084C14.2058 4.0804 15.008 6.00083 14.9999 8C15.0044 9.63694 14.467 11.2311 13.4686 12.5433C13.4583 12.5584 13.4429 12.5634 13.4275 12.5584C13.4172 12.5483 13.4172 12.5332 13.4172 12.5181C13.9876 10.7501 11.0688 6.45867 9.55801 4.6605C9.55263 4.65495 9.54906 4.64793 9.54778 4.64036C9.54778 4.63028 9.5529 4.62021 9.56318 4.61517C11.9681 2.21974 12.6988 2.61803 12.7647 2.65803C12.7646 2.65681 12.7646 2.65581 12.7646 2.65581Z" fill="white"/>
    <path d="M11.408 1.59805C10.262 0.91303 9.01335 0.5 7.50258 0.5C5.99176 0.5 4.72765 0.918065 3.58172 1.60812C3.5663 1.61316 3.56117 1.62827 3.5663 1.64338C3.57145 1.65849 3.58686 1.66353 3.60228 1.65849C4.88695 1.33109 6.92701 2.39892 7.48201 2.71625C7.48713 2.72128 7.4923 2.72128 7.49741 2.72128C7.50258 2.72128 7.50769 2.72128 7.51281 2.71625C7.72353 2.59032 9.92803 1.33613 11.3823 1.64842C11.3977 1.64842 11.4131 1.64842 11.4182 1.63331C11.4285 1.62324 11.4234 1.60309 11.408 1.59805Z" fill="white"/>
    <path d="M7.52826 6.52416C7.51798 6.51915 7.51281 6.51408 7.50258 6.51408C7.4923 6.51408 7.48201 6.52416 7.47684 6.52416C5.23637 8.23171 1.39263 12.4526 2.56426 13.6464C3.92088 14.8402 5.67832 15.5 7.50258 15.5C9.32556 15.5004 11.0844 14.8402 12.4409 13.6464C13.6125 12.4526 9.77384 8.23171 7.52826 6.52416Z" fill="white"/>
</svg>